<svg width="28" height="28" viewBox="0 0 28 28" fill="none" xmlns="http://www.w3.org/2000/svg">
<path d="M9.76608 22.6816C9.76449 22.1254 9.87331 21.5744 10.0862 21.0606C10.2991 20.5468 10.6119 20.0804 11.0064 19.6884C11.3985 19.294 11.865 18.9814 12.3788 18.7686C12.8925 18.5557 13.4434 18.4469 13.9996 18.4484C14.5556 18.447 15.1065 18.5558 15.6202 18.7687C16.1339 18.9815 16.6003 19.2941 16.9924 19.6884C17.3868 20.0804 17.6995 20.5468 17.9124 21.0606C18.1253 21.5743 18.2342 22.1252 18.2327 22.6813C21.4843 22.6622 24.0003 22.4101 24.0003 19.0463C24.0003 15.6062 21.3684 12.7806 18.0067 12.4735C17.9807 13.6772 16.1969 14.6485 14.0005 14.6485C11.8034 14.6485 10.02 13.6772 9.99363 12.4735C6.6328 12.7809 4 15.6062 4 19.0463C4 22.4092 6.5151 22.6625 9.76608 22.6816Z" fill="#002A54"/>
<path d="M14.0003 0.383667C11.4713 0.383667 9.37622 2.34019 9.00676 4.89402C8.95244 5.27077 8.93652 5.65207 8.95925 6.03204C8.96893 6.19272 8.98406 6.35097 9.00676 6.5074C9.01009 6.55521 9.01462 6.60211 9.01886 6.64962C9.33748 10.254 11.4462 13.0384 14.0003 13.0384C16.5539 13.0384 18.6629 10.2537 18.9815 6.64962L18.9933 6.5074C19.016 6.35097 19.0311 6.19272 19.0402 6.03204C19.0469 5.9222 19.0508 5.81236 19.0508 5.70071C19.0508 5.42626 19.0311 5.15727 18.9933 4.89402C18.6242 2.34019 16.5293 0.383667 14.0003 0.383667ZM16.6343 24.1064C16.8711 23.6689 16.9947 23.179 16.9938 22.6815C16.9949 22.2882 16.9179 21.8985 16.7673 21.5351C16.6167 21.1717 16.3956 20.8417 16.1166 20.5643C15.5514 19.9991 14.7995 19.6878 13.9997 19.6878C13.2 19.6878 12.4481 19.9991 11.8825 20.5643C11.6035 20.8416 11.3823 21.1716 11.2317 21.535C11.0811 21.8984 11.0042 22.2881 11.0053 22.6815C11.0053 24.3328 12.3485 25.6759 13.9997 25.6759C14.5054 25.6759 14.9922 25.551 15.4249 25.3165L17.4737 27.3653C17.6404 27.5332 17.8598 27.6164 18.0786 27.6164C18.2478 27.6165 18.4133 27.5663 18.554 27.4723C18.6947 27.3783 18.8045 27.2447 18.8693 27.0884C18.9341 26.9321 18.9511 26.76 18.9181 26.594C18.8851 26.428 18.8037 26.2755 18.6841 26.1558L16.6343 24.1064ZM15.1486 23.8314C14.9981 23.9828 14.819 24.1028 14.6217 24.1844C14.4245 24.2661 14.2129 24.3078 13.9994 24.307C13.5685 24.3066 13.1553 24.1351 12.8506 23.8304C12.5458 23.5257 12.3744 23.1125 12.3739 22.6815C12.3734 22.468 12.4153 22.2564 12.4971 22.0592C12.5789 21.8619 12.699 21.6828 12.8505 21.5323C13.0011 21.3809 13.1801 21.2608 13.3774 21.1791C13.5747 21.0973 13.7862 21.0555 13.9997 21.056C14.2132 21.0557 14.4246 21.0975 14.6218 21.1793C14.819 21.261 14.9981 21.381 15.1486 21.5323C15.3002 21.6828 15.4203 21.8619 15.502 22.0592C15.5838 22.2564 15.6256 22.468 15.6249 22.6815C15.6256 22.8952 15.5839 23.1068 15.5021 23.3042C15.4204 23.5016 15.3002 23.6808 15.1486 23.8314Z" fill="#002A54"/>
</svg>
