<svg width="28" height="28" viewBox="0 0 28 28" fill="none" xmlns="http://www.w3.org/2000/svg">
<g clip-path="url(#clip0_2702_47335)">
<path d="M5.0715 7.28683V6.02295C5.0715 3.12057 7.44625 0.745605 10.3502 0.745605C13.2525 0.745605 15.6275 3.12036 15.6275 6.02295V7.28683C15.6275 10.1892 13.2527 12.5642 10.3502 12.5642C7.44625 12.5639 5.0715 10.1892 5.0715 7.28683ZM11.2602 13.6031L12.5639 20.4947L10.3502 24.1318L8.13482 20.4947L9.43852 13.6031H8.91406C1.94141 13.6031 0.615234 20.3019 0 25.8467H15.6432V14.5068C14.5993 13.933 13.3306 13.6031 11.7846 13.6031H11.2602ZM17.6274 5.94961C17.6274 5.0818 17.8848 4.23347 18.3669 3.51191C18.849 2.79035 19.5343 2.22797 20.336 1.89587C21.1378 1.56377 22.02 1.47688 22.8712 1.64618C23.7223 1.81548 24.5041 2.23337 25.1178 2.84701C25.7314 3.46065 26.1493 4.24247 26.3186 5.09361C26.4879 5.94475 26.401 6.82697 26.0689 7.62873C25.7368 8.43048 25.1744 9.11576 24.4529 9.59789C23.7313 10.08 22.883 10.3374 22.0152 10.3374C20.8521 10.3352 19.7374 9.87221 18.915 9.04981C18.0926 8.22742 17.6297 7.11264 17.6275 5.94961H17.6274ZM19.7408 6.29546L21.0254 7.58165C21.0993 7.65515 21.1993 7.6964 21.3035 7.6964C21.4077 7.6964 21.5077 7.65515 21.5817 7.58165L24.2895 4.8738C24.363 4.79998 24.4042 4.70003 24.4041 4.59586C24.404 4.4917 24.3626 4.39183 24.2889 4.31818C24.2153 4.24452 24.1154 4.20309 24.0112 4.20298C23.9071 4.20287 23.8071 4.24408 23.7333 4.31757L21.3043 6.74652L20.297 5.73923C20.2233 5.66546 20.1232 5.62402 20.0189 5.62401C19.9146 5.62401 19.8146 5.66544 19.7408 5.7392C19.667 5.81296 19.6256 5.91301 19.6256 6.01732C19.6256 6.12164 19.667 6.22169 19.7408 6.29546ZM28 15.4662V27.2541H16.4306V12.5496H25.0852V15.0726C25.085 15.1243 25.0951 15.1756 25.1148 15.2235C25.1345 15.2713 25.1635 15.3148 25.2001 15.3514C25.2367 15.388 25.2802 15.417 25.328 15.4367C25.3759 15.4564 25.4272 15.4665 25.4789 15.4663L28 15.4662ZM17.6785 17.39C17.6785 17.4944 17.72 17.5945 17.7938 17.6684C17.8677 17.7422 17.9678 17.7837 18.0723 17.7837H22.2161C22.3206 17.7837 22.4207 17.7422 22.4946 17.6684C22.5684 17.5945 22.6099 17.4944 22.6099 17.39C22.6099 17.2855 22.5684 17.1854 22.4946 17.1115C22.4207 17.0377 22.3206 16.9962 22.2161 16.9962H18.0722C18.0204 16.996 17.9692 17.0061 17.9213 17.0258C17.8735 17.0456 17.83 17.0746 17.7934 17.1112C17.7568 17.1478 17.7278 17.1912 17.7081 17.2391C17.6884 17.2869 17.6783 17.3382 17.6785 17.39ZM26.7537 24.8426C26.7537 24.7382 26.7122 24.638 26.6383 24.5642C26.5645 24.4903 26.4644 24.4489 26.3599 24.4489H18.0722C18.0205 24.4489 17.9693 24.459 17.9215 24.4788C17.8737 24.4986 17.8303 24.5276 17.7938 24.5642C17.7572 24.6008 17.7282 24.6442 17.7084 24.6919C17.6886 24.7397 17.6784 24.7909 17.6784 24.8426C17.6784 24.8943 17.6886 24.9455 17.7084 24.9933C17.7282 25.0411 17.7572 25.0845 17.7938 25.121C17.8303 25.1576 17.8737 25.1866 17.9215 25.2064C17.9693 25.2262 18.0205 25.2364 18.0722 25.2364H26.36C26.4643 25.2361 26.5644 25.1946 26.6381 25.1208C26.7119 25.047 26.7535 24.947 26.7537 24.8426ZM26.7537 22.3579C26.7535 22.2535 26.7119 22.1535 26.6381 22.0797C26.5643 22.0059 26.4643 21.9643 26.3599 21.9641H18.0722C17.9678 21.9641 17.8676 22.0056 17.7938 22.0795C17.7199 22.1533 17.6784 22.2535 17.6784 22.3579C17.6784 22.4623 17.7199 22.5625 17.7938 22.6363C17.8676 22.7102 17.9678 22.7516 18.0722 22.7516H26.36C26.4644 22.7516 26.5645 22.7101 26.6384 22.6363C26.7122 22.5624 26.7537 22.4623 26.7537 22.3579ZM26.7537 19.8747C26.7537 19.7703 26.7122 19.6701 26.6383 19.5963C26.5645 19.5224 26.4644 19.4809 26.3599 19.4809H18.0722C17.968 19.4809 17.8681 19.5223 17.7944 19.596C17.7207 19.6697 17.6793 19.7696 17.6793 19.8738C17.6793 19.978 17.7207 20.0779 17.7944 20.1516C17.8681 20.2253 17.968 20.2667 18.0722 20.2667H26.36C26.4641 20.2668 26.5641 20.2256 26.6379 20.1521C26.7117 20.0786 26.7534 19.9789 26.7537 19.8747ZM25.8723 14.6789H27.6062L25.8722 12.9432L25.8723 14.6789Z" fill="#E069A0"/>
</g>
<defs>
<clipPath id="clip0_2702_47335">
<rect width="28" height="28" fill="white"/>
</clipPath>
</defs>
</svg>
