<svg width="18" height="18" viewBox="0 0 18 18" fill="none" xmlns="http://www.w3.org/2000/svg">
<path d="M16.7388 4.44128C16.6392 2.78573 15.2568 1.48869 13.5918 1.48869H12.7812V0.858604C12.7812 0.691494 12.7148 0.531228 12.5967 0.413064C12.4785 0.2949 12.3182 0.228516 12.1511 0.228516C11.984 0.228516 11.8237 0.2949 11.7056 0.413064C11.5874 0.531228 11.521 0.691494 11.521 0.858604V1.48869H6.48032V0.858604C6.48032 0.691494 6.41394 0.531228 6.29577 0.413064C6.17761 0.2949 6.01734 0.228516 5.85023 0.228516C5.68312 0.228516 5.52286 0.2949 5.40469 0.413064C5.28653 0.531228 5.22015 0.691494 5.22015 0.858604V1.48869H4.40954C2.74422 1.48869 1.3618 2.78573 1.26256 4.44128C1.07574 7.55518 1.07921 10.7138 1.27296 13.8293C1.37125 15.4114 2.63868 16.6789 4.22083 16.7771C5.80644 16.8758 7.4034 16.9249 9.00036 16.9249C10.597 16.9249 12.1943 16.8758 13.7799 16.7771C15.362 16.6789 16.6295 15.4114 16.7278 13.8293C16.9218 10.7154 16.9253 7.55707 16.7388 4.44128ZM15.4704 13.7511C15.4412 14.2106 15.2455 14.6436 14.92 14.9691C14.5945 15.2946 14.1615 15.4903 13.7021 15.5195C10.5825 15.7132 7.41884 15.7132 4.29927 15.5195C3.83985 15.4903 3.40683 15.2946 3.08132 14.9691C2.75581 14.6436 2.56013 14.2106 2.53093 13.7511C2.38325 11.3468 2.34992 8.93687 2.43106 6.52939H15.5706C15.65 8.93633 15.6194 11.3568 15.4704 13.7511ZM5.85023 4.00904C6.01734 4.00904 6.17761 3.94266 6.29577 3.82449C6.41394 3.70633 6.48032 3.54606 6.48032 3.37896V2.74887H11.521V3.37896C11.521 3.54606 11.5874 3.70633 11.7056 3.82449C11.8237 3.94266 11.984 4.00904 12.1511 4.00904C12.3182 4.00904 12.4785 3.94266 12.5967 3.82449C12.7148 3.70633 12.7812 3.54606 12.7812 3.37896V2.74887H13.5918C14.5914 2.74887 15.4213 3.52545 15.4808 4.51658C15.4956 4.76672 15.5019 5.01844 15.5142 5.26922H2.48714C2.49974 5.01844 2.50573 4.76672 2.52053 4.51658C2.58008 3.52545 3.40959 2.74887 4.40954 2.74887H5.22015V3.37896C5.22015 3.54606 5.28653 3.70633 5.40469 3.82449C5.52286 3.94266 5.68312 4.00904 5.85023 4.00904Z" fill="#444444"/>
<path d="M5.85138 10.3102C6.37336 10.3102 6.79651 9.88704 6.79651 9.36505C6.79651 8.84307 6.37336 8.41992 5.85138 8.41992C5.3294 8.41992 4.90625 8.84307 4.90625 9.36505C4.90625 9.88704 5.3294 10.3102 5.85138 10.3102Z" fill="#444444"/>
<path d="M9.00177 10.3102C9.52375 10.3102 9.9469 9.88704 9.9469 9.36505C9.9469 8.84307 9.52375 8.41992 9.00177 8.41992C8.47979 8.41992 8.05664 8.84307 8.05664 9.36505C8.05664 9.88704 8.47979 10.3102 9.00177 10.3102Z" fill="#444444"/>
<path d="M5.85138 13.4606C6.37336 13.4606 6.79651 13.0374 6.79651 12.5154C6.79651 11.9935 6.37336 11.5703 5.85138 11.5703C5.3294 11.5703 4.90625 11.9935 4.90625 12.5154C4.90625 13.0374 5.3294 13.4606 5.85138 13.4606Z" fill="#444444"/>
<path d="M12.1522 10.3102C12.6741 10.3102 13.0973 9.88704 13.0973 9.36505C13.0973 8.84307 12.6741 8.41992 12.1522 8.41992C11.6302 8.41992 11.207 8.84307 11.207 9.36505C11.207 9.88704 11.6302 10.3102 12.1522 10.3102Z" fill="#444444"/>
<path d="M12.1522 13.4606C12.6741 13.4606 13.0973 13.0374 13.0973 12.5154C13.0973 11.9935 12.6741 11.5703 12.1522 11.5703C11.6302 11.5703 11.207 11.9935 11.207 12.5154C11.207 13.0374 11.6302 13.4606 12.1522 13.4606Z" fill="#444444"/>
<path d="M9.00177 13.4606C9.52375 13.4606 9.9469 13.0374 9.9469 12.5154C9.9469 11.9935 9.52375 11.5703 9.00177 11.5703C8.47979 11.5703 8.05664 11.9935 8.05664 12.5154C8.05664 13.0374 8.47979 13.4606 9.00177 13.4606Z" fill="#444444"/>
</svg>
