<svg width="18" height="18" viewBox="0 0 18 18" fill="none" xmlns="http://www.w3.org/2000/svg">
<g clip-path="url(#clip0_3920_4487)">
<path d="M5.15106 8.19357H3.28201C1.76066 8.19357 0.527344 9.42685 0.527344 10.9482V17.4729H9.34393M13.0617 10.9482C13.0617 9.42689 11.8284 8.19357 10.307 8.19357H8.4028M5.56404 6.875V8.38711C5.56404 9.06668 6.11494 9.61757 6.79451 9.61757C7.47408 9.61757 8.02498 9.06668 8.02498 8.38711V6.875M2.75755 11.2317V17.4729" stroke="#444444" stroke-width="1.2" stroke-miterlimit="10" stroke-linecap="round" stroke-linejoin="round"/>
<path d="M9.34435 17.4727H8.35393C7.71074 17.4727 7.18934 16.9513 7.18934 16.3081V15.3627H9.34435V17.4727ZM9.34435 17.4727H17.4731V11.0902H9.34435V17.4727ZM3.97926 3.77504H3.2793M9.61059 3.77504H10.3105M4.02211 2.66748V4.25C4.02211 5.78137 5.26352 7.02278 6.79489 7.02278C8.32626 7.02278 9.56766 5.78137 9.56766 4.25V0.527344H6.16225C4.9803 0.527344 4.02211 1.48553 4.02211 2.66748Z" stroke="#444444" stroke-width="1.2" stroke-miterlimit="10" stroke-linecap="round" stroke-linejoin="round"/>
<path d="M4.02148 3.56247C4.02148 3.56247 5.31049 3.77443 6.17357 2.83203C6.17357 2.83203 7.15123 3.77443 9.56707 3.51958" stroke="#444444" stroke-width="1.2" stroke-miterlimit="10" stroke-linecap="round" stroke-linejoin="round"/>
</g>
<defs>
<clipPath id="clip0_3920_4487">
<rect width="18" height="18" fill="white"/>
</clipPath>
</defs>
</svg>
