<svg width="512" height="512" viewBox="0 0 512 512" fill="none" xmlns="http://www.w3.org/2000/svg">
<path d="M502.145 255.979C502.153 250.611 500.956 245.31 498.644 240.466C496.331 235.621 492.961 231.358 488.782 227.989L457.082 201.58L471.604 163.814C473.487 158.804 474.236 153.44 473.797 148.106C473.358 142.772 471.742 137.602 469.065 132.968C466.388 128.334 462.717 124.351 458.316 121.306C453.915 118.261 448.894 116.229 443.614 115.358L402.946 108.325L396.617 68.3606C395.742 63.0818 393.709 58.0624 390.663 53.6631C387.617 49.2639 383.634 45.5942 379.001 42.9177C374.368 40.2413 369.199 38.6248 363.867 38.1842C358.534 37.7437 353.17 38.4901 348.16 40.3699L309.445 54.6466L283.986 23.1746C280.503 19.1712 276.203 15.9613 271.374 13.7617C266.545 11.5621 261.301 10.4238 255.995 10.4238C250.689 10.4238 245.445 11.5621 240.616 13.7617C235.787 15.9613 231.487 19.1712 228.004 23.1746L201.596 54.8927L163.83 40.3699C158.818 38.487 153.451 37.7386 148.115 38.1786C142.779 38.6186 137.607 40.2361 132.971 42.9146C128.336 45.5932 124.351 49.2661 121.305 53.6691C118.259 58.0722 116.227 63.0957 115.356 68.3782L108.358 109.063L68.3939 115.322C63.1114 116.194 58.0878 118.226 53.6848 121.272C49.2818 124.318 45.6088 128.302 42.9303 132.938C40.2518 137.574 38.6343 142.746 38.1943 148.082C37.7542 153.417 38.5026 158.784 40.3856 163.796L54.6622 202.53L23.1903 227.971C19.0529 231.369 15.7202 235.641 13.432 240.481C11.1437 245.321 9.95691 250.608 9.95691 255.962C9.95691 261.315 11.1437 266.602 13.432 271.442C15.7202 276.282 19.0529 280.555 23.1903 283.952L54.9084 310.361L40.3856 348.127C38.5058 353.137 37.7593 358.501 38.1999 363.833C38.6404 369.166 40.257 374.335 42.9334 378.968C45.6098 383.601 49.2796 387.584 53.6788 390.63C58.078 393.676 63.0975 395.709 68.3763 396.583L109.044 403.616L115.373 443.58C116.248 448.859 118.281 453.879 121.327 458.278C124.373 462.677 128.356 466.347 132.989 469.023C137.622 471.7 142.791 473.316 148.123 473.757C153.456 474.197 158.82 473.451 163.83 471.571L202.545 457.294L228.004 488.766C231.402 492.904 235.674 496.237 240.514 498.525C245.354 500.813 250.641 502 255.995 502C261.349 502 266.636 500.813 271.476 498.525C276.316 496.237 280.588 492.904 283.986 488.766L310.394 457.048L348.16 471.571C353.171 473.454 358.537 474.203 363.872 473.764C369.206 473.325 374.377 471.709 379.013 469.032C383.648 466.356 387.633 462.685 390.68 458.284C393.727 453.883 395.76 448.861 396.634 443.58L403.65 402.895L443.596 396.636C448.879 395.764 453.902 393.733 458.305 390.687C462.708 387.641 466.381 383.656 469.06 379.021C471.738 374.385 473.356 369.213 473.796 363.877C474.236 358.541 473.487 353.174 471.604 348.162L457.328 309.429L488.8 283.988C492.976 280.613 496.342 276.346 498.652 271.499C500.961 266.651 502.155 261.348 502.145 255.979Z" fill="#1976D2"/>
<path d="M222.941 338.896C211.581 338.925 200.52 335.253 191.434 328.435L148.744 296.418C146.897 295.032 145.341 293.297 144.165 291.31C142.988 289.323 142.215 287.124 141.888 284.839C141.229 280.222 142.43 275.533 145.228 271.803C148.026 268.072 152.191 265.606 156.807 264.947C161.423 264.287 166.112 265.489 169.843 268.286L212.532 300.303C216.232 303.042 220.852 304.232 225.415 303.622C229.977 303.011 234.122 300.648 236.971 297.033L338.807 166.046C341.675 162.363 345.888 159.969 350.521 159.392C355.154 158.815 359.826 160.102 363.51 162.97C367.193 165.837 369.587 170.051 370.164 174.684C370.741 179.316 369.454 183.989 366.587 187.672L264.716 318.624C259.754 324.958 253.411 330.077 246.172 333.59C238.933 337.103 230.987 338.918 222.941 338.896Z" fill="#F5F5F5"/>
</svg>
