<svg width="30" height="26" viewBox="0 0 30 26" fill="none" xmlns="http://www.w3.org/2000/svg">
<path d="M15.881 18.2478C16.3566 18.2478 16.7423 17.8621 16.7423 17.3864V13.941C16.7423 13.4653 16.3568 13.0796 15.881 13.0796H14.1582C13.6826 13.0796 13.2969 13.4651 13.2969 13.941V17.3864C13.2969 17.8621 13.6825 18.2478 14.1582 18.2478H15.881Z" fill="#3378C7"/>
<path d="M27.1376 3.60465H21.0506V2.74328C21.0506 1.31835 19.8914 0.15918 18.4665 0.15918H11.5755C10.1506 0.15918 8.99141 1.31829 8.99141 2.74328V3.60465H2.90442C1.47948 3.60465 0.320312 4.76376 0.320312 6.18875C0.320312 7.87571 0.527041 9.35307 0.937511 10.6121C1.34798 11.8711 1.96225 12.9119 2.77739 13.7257C4.14909 15.0956 5.89629 15.6638 7.85814 15.6638H11.5755V13.9411C11.5755 12.5161 12.7346 11.357 14.1596 11.357H15.8824C17.3073 11.357 18.4665 12.5161 18.4665 13.9411V15.6638H20.3804C22.0951 15.5925 24.8998 16.1139 27.2637 13.761C28.0793 12.9493 28.6937 11.9067 29.1043 10.6417C29.515 9.37679 29.7217 7.88961 29.7217 6.18875C29.7217 4.76382 28.5625 3.60465 27.1376 3.60465ZM10.7141 2.74328C10.7141 2.26804 11.1002 1.88191 11.5755 1.88191H18.4665C18.9417 1.88191 19.3278 2.26798 19.3278 2.74328V3.60465H10.7141V2.74328Z" fill="#3378C7"/>
<path d="M20.4039 17.3862H18.4665C18.4665 18.8111 17.3073 19.9703 15.8824 19.9703H14.1596C12.7347 19.9703 11.5755 18.8112 11.5755 17.3862H7.86566C5.40881 17.3862 3.25086 16.6323 1.56016 14.9443C1.08257 14.4675 0.674736 13.9306 0.320312 13.3564V25.1385C0.320312 25.6146 0.705573 25.9999 1.18168 25.9999H28.8603C29.3364 25.9999 29.7217 25.6146 29.7217 25.1385V13.3919C29.3625 13.9748 28.953 14.5104 28.4792 14.9821C25.7613 17.6859 22.8667 17.2699 20.4039 17.3862Z" fill="#3378C7"/>
</svg>
