<svg width="34" height="34" viewBox="0 0 34 34" fill="none" xmlns="http://www.w3.org/2000/svg">
<path d="M26.9167 2.125H7.08333C6.89547 2.125 6.7153 2.19963 6.58247 2.33247C6.44963 2.4653 6.375 2.64547 6.375 2.83333V23.0775C6.375 23.2654 6.44963 23.4455 6.58247 23.5784C6.7153 23.7112 6.89547 23.7858 7.08333 23.7858H21.0729V21.335C21.0744 20.9524 21.1611 20.575 21.3268 20.2302C21.4924 19.8853 21.7328 19.5817 22.0304 19.3413C22.3281 19.101 22.6755 18.93 23.0476 18.8408C23.4196 18.7515 23.8068 18.7462 24.1811 18.8254C24.7638 18.9593 25.2829 19.2891 25.6519 19.7596C26.0208 20.2301 26.2172 20.8129 26.2083 21.4108V23.788L26.9174 23.7865C27.1051 23.7864 27.2851 23.7116 27.4178 23.5788C27.5505 23.446 27.625 23.2659 27.625 23.0782V2.83333C27.625 2.64547 27.5504 2.4653 27.4175 2.33247C27.2847 2.19963 27.1045 2.125 26.9167 2.125ZM17 4.78125C18.0157 4.78125 19.0086 5.08244 19.8531 5.64672C20.6976 6.21101 21.3558 7.01305 21.7445 7.95143C22.1332 8.8898 22.2349 9.92236 22.0367 10.9185C21.8386 11.9147 21.3495 12.8298 20.6313 13.548C19.9131 14.2662 18.998 14.7553 18.0019 14.9534C17.0057 15.1516 15.9731 15.0499 15.0348 14.6612C14.0964 14.2725 13.2943 13.6143 12.7301 12.7698C12.1658 11.9252 11.8646 10.9324 11.8646 9.91667C11.8661 8.55513 12.4076 7.24979 13.3704 6.28703C14.3331 5.32428 15.6385 4.78275 17 4.78125ZM17.7083 20.5417H11.3333C11.1455 20.5417 10.9653 20.467 10.8325 20.3342C10.6996 20.2014 10.625 20.0212 10.625 19.8333C10.625 19.6455 10.6996 19.4653 10.8325 19.3325C10.9653 19.1996 11.1455 19.125 11.3333 19.125H17.7083C17.8962 19.125 18.0764 19.1996 18.2092 19.3325C18.342 19.4653 18.4167 19.6455 18.4167 19.8333C18.4167 20.0212 18.342 20.2014 18.2092 20.3342C18.0764 20.467 17.8962 20.5417 17.7083 20.5417ZM22.6667 17.7083H11.3333C11.1455 17.7083 10.9653 17.6337 10.8325 17.5009C10.6996 17.368 10.625 17.1879 10.625 17C10.625 16.8121 10.6996 16.632 10.8325 16.4991C10.9653 16.3663 11.1455 16.2917 11.3333 16.2917H22.6667C22.8545 16.2917 23.0347 16.3663 23.1675 16.4991C23.3004 16.632 23.375 16.8121 23.375 17C23.375 17.1879 23.3004 17.368 23.1675 17.5009C23.0347 17.6337 22.8545 17.7083 22.6667 17.7083Z" fill="#FC975C"/>
<path d="M16.9998 13.9896C17.8054 13.9896 18.5928 13.7507 19.2626 13.3032C19.9324 12.8556 20.4544 12.2195 20.7627 11.4753C21.071 10.7311 21.1516 9.91215 20.9945 9.12208C20.8373 8.33201 20.4494 7.60629 19.8798 7.03668C19.3102 6.46707 18.5845 6.07917 17.7944 5.92201C17.0043 5.76486 16.1854 5.84551 15.4412 6.15378C14.6969 6.46205 14.0608 6.98409 13.6133 7.65388C13.1658 8.32367 12.9269 9.11112 12.9269 9.91667C12.928 10.9965 13.3575 12.0318 14.1211 12.7954C14.8846 13.559 15.9199 13.9885 16.9998 13.9896ZM16.108 9.85575C15.8861 9.69521 15.7061 9.48367 15.583 9.23897C15.46 8.99427 15.3976 8.72358 15.4011 8.44971C15.3812 8.23793 15.4057 8.02431 15.473 7.82254C15.5404 7.62077 15.6492 7.4353 15.7924 7.27799C15.9356 7.12068 16.11 6.99501 16.3046 6.90901C16.4991 6.82302 16.7095 6.7786 16.9222 6.7786C17.135 6.7786 17.3453 6.82302 17.5399 6.90901C17.7345 6.99501 17.9089 7.12068 18.0521 7.27799C18.1953 7.4353 18.3041 7.62077 18.3715 7.82254C18.4388 8.02431 18.4633 8.23793 18.4434 8.44971C18.4467 8.72338 18.3843 8.99385 18.2615 9.23839C18.1386 9.48294 17.9588 9.69441 17.7372 9.85504C18.2042 10.0219 18.6084 10.3288 18.8946 10.7338C19.1809 11.1388 19.3352 11.6222 19.3366 12.1182C19.3413 12.1918 19.331 12.2656 19.3065 12.3351C19.2819 12.4047 19.2435 12.4686 19.1936 12.5229C19.1437 12.5772 19.0834 12.6209 19.0161 12.6513C18.9489 12.6817 18.8763 12.6981 18.8025 12.6997H15.042C14.9004 12.6995 14.7648 12.6432 14.6648 12.543C14.5648 12.4429 14.5086 12.3072 14.5086 12.1656C14.5041 11.6626 14.6555 11.1705 14.9419 10.757C15.2282 10.3434 15.6356 10.0286 16.108 9.85575ZM19.054 24.8505C18.7642 25.0859 18.5303 25.3827 18.369 25.7194C18.2077 26.0561 18.123 26.4243 18.1211 26.7977V28.3631C18.1211 28.4962 18.174 28.6238 18.2681 28.718C18.3622 28.8121 18.4898 28.8649 18.6229 28.8649C18.756 28.8649 18.8837 28.8121 18.9778 28.718C19.0719 28.6238 19.1248 28.4962 19.1248 28.3631V26.7977C19.123 26.481 19.2223 26.172 19.4084 25.9156C19.5944 25.6593 19.8573 25.469 20.159 25.3725L21.7938 24.82H21.8037C21.8874 24.787 21.9604 24.7316 22.0148 24.6599C22.0312 24.646 22.0449 24.6292 22.0552 24.6103C22.1027 24.531 22.1302 24.4413 22.1352 24.349V21.3385C22.1352 20.9393 22.2938 20.5565 22.5761 20.2742C22.8584 19.9919 23.2412 19.8333 23.6404 19.8333C24.0396 19.8333 24.4225 19.9919 24.7048 20.2742C24.9871 20.5565 25.1456 20.9393 25.1456 21.3385V26.5243C25.1457 26.7222 25.1067 26.9183 25.031 27.1012C24.9553 27.2841 24.8443 27.4503 24.7043 27.5903L23.5781 28.7151C23.4387 28.8547 23.3282 29.0204 23.2528 29.2027C23.1775 29.385 23.1388 29.5804 23.1389 29.7776V29.9122C23.1389 30.4328 22.9321 30.932 22.564 31.3001C22.1959 31.6682 21.6967 31.875 21.1761 31.875H14.0631C13.5426 31.8748 13.0435 31.6679 12.6756 31.2999C12.3077 30.9318 12.101 30.4327 12.101 29.9122C12.1007 29.3943 11.8951 28.8976 11.5293 28.531L10.3464 27.3445C10.1792 27.1767 10.0438 26.9799 9.94693 26.7637L9.08984 24.8512L19.054 24.8505Z" fill="#FC975C"/>
</svg>
