<svg width="17" height="21" viewBox="0 0 17 21" fill="none" xmlns="http://www.w3.org/2000/svg">
<path d="M8.51795 3.08534H10.959L10.0345 3.97868C9.79506 4.2101 9.79539 4.58495 10.0353 4.81605C10.2748 5.04655 10.6635 5.04699 10.9032 4.81526L12.8721 2.91278C13.1144 2.6786 13.1124 2.29361 12.858 2.06266L10.9032 0.173764C10.6638 -0.0576514 10.2752 -0.0579276 10.0353 0.172975C9.79539 0.404114 9.79506 0.778926 10.0345 1.01038L10.9565 1.90123C8.17509 1.90123 8.52196 1.90107 8.49155 1.90107C2.00289 1.90107 -2.11584 8.71297 1.13787 14.1882C1.30633 14.4718 1.68115 14.5702 1.97556 14.4075C2.26968 14.2448 2.37132 13.8831 2.20286 13.5995C-0.592715 8.89536 2.9768 3.0585 8.51795 3.08534ZM15.8621 6.02049C15.6936 5.73697 15.3185 5.63873 15.0244 5.80127C14.7302 5.96389 14.6286 6.32579 14.7972 6.60947C17.5762 11.2858 14.0689 17.1236 8.50002 17.1236H6.04093L6.96545 16.2302C7.20503 15.9988 7.2047 15.624 6.96479 15.3929C6.72488 15.1619 6.33615 15.1622 6.0967 15.3937L4.12781 17.2961C3.88213 17.5336 3.89011 17.9184 4.14266 18.147L6.0967 20.0352C6.33615 20.2664 6.72472 20.267 6.96479 20.0359C7.2047 19.8048 7.20503 19.43 6.96561 19.1985L6.04363 18.3077H8.50772C14.9997 18.3075 19.1151 11.4947 15.8621 6.02049Z" fill="#002A54"/>
<path opacity="0.4" d="M7.88432 8.32819H10.3394C10.6783 8.32819 10.9532 8.06299 10.9532 7.73613C10.9532 7.40912 10.6783 7.14408 10.3394 7.14408H9.11188V6.55202C9.11188 6.22501 8.83699 5.95996 8.4981 5.95996C8.15909 5.95996 7.88432 6.22501 7.88432 6.55202V7.14408C6.86887 7.14408 6.04297 7.94091 6.04297 8.92025C6.04297 9.89959 6.86887 10.6964 7.88432 10.6964H9.11176C9.45028 10.6964 9.72566 10.9619 9.72566 11.2885C9.72566 11.615 9.45192 11.8807 9.11176 11.8807L6.65675 11.8805C6.31774 11.8805 6.04297 12.1456 6.04297 12.4724C6.04285 12.7994 6.31758 13.0645 6.65663 13.0647H7.88432V13.6567C7.88432 13.9836 8.15909 14.2488 8.4981 14.2488C8.83699 14.2488 9.11188 13.9836 9.11188 13.6567V13.0648C10.1295 13.0648 10.9532 12.2706 10.9532 11.2885C10.9532 10.3091 10.1271 9.51231 9.11176 9.51231H7.88432C7.54579 9.51231 7.27053 9.24667 7.27053 8.92025C7.27053 8.59371 7.54579 8.32819 7.88432 8.32819Z" fill="#002A54"/>
</svg>
