<svg width="235" height="23" viewBox="0 0 235 23" fill="none" xmlns="http://www.w3.org/2000/svg">
<g clip-path="url(#clip0_1135_3331)">
<path opacity="0.827996" fill-rule="evenodd" clip-rule="evenodd" d="M234.421 13.3473C234.228 13.9792 231.6 15.2486 231.393 14.8259C231.281 14.5983 230.938 14.5349 230.62 14.6864C229.992 14.964 227.313 14.9604 224.822 14.6825C223.974 14.5754 221.54 14.4943 219.381 14.4838C217.222 14.4733 213.961 14.4296 212.058 14.3868C210.199 14.3711 208.233 14.3643 207.741 14.4073C207.079 14.4538 206.984 14.3418 207.34 13.9394C207.618 13.6236 207.418 13.6866 206.912 14.0709C206.394 14.4516 205.902 14.5776 205.818 14.3446C205.711 14.1459 205.372 14.0699 205.042 14.2177C204.723 14.3692 203.148 14.4403 201.509 14.3815C199.878 14.3388 198.031 14.3268 197.369 14.3733C196.735 14.4144 194.64 14.4509 192.765 14.4442C185.97 14.4396 180.039 14.5331 175.132 14.7465C172.391 14.862 169.859 14.9307 169.567 14.9107C169.252 14.8834 168.661 14.9101 168.287 14.9477C166.618 15.1561 156.262 15.6655 155.237 15.5872C154.607 15.5326 153.878 15.5863 153.595 15.7071C152.346 16.1956 147.69 16.2647 147.002 15.8056C146.188 15.294 145.84 13.8058 146.574 14.0302C146.823 14.1063 146.952 13.9799 146.875 13.6801C146.677 12.8042 156.974 11.558 157.928 12.3333C158.217 12.5737 158.398 12.5738 158.341 12.3354C158.224 11.8297 175.942 10.6138 176.339 11.0943C176.53 11.3184 176.786 11.3276 177.001 11.1309C177.342 10.8206 189.069 10.3156 196.1 10.3095C197.613 10.316 200.295 10.2239 202.071 10.1312C203.851 10.0258 205.726 10.0741 206.259 10.2369C206.803 10.4034 207.413 10.3551 207.648 10.1367C207.883 9.91842 208.297 9.92051 208.59 10.1482C208.879 10.3886 209.174 10.3545 209.259 10.0764C209.336 9.8237 209.628 9.80223 209.929 10.0462C210.218 10.2865 210.6 10.3482 210.78 10.1822C210.96 10.0162 212.272 9.96111 213.718 10.0578C215.156 10.1382 217.173 10.1883 218.221 10.1493C222.309 10.0311 225.78 10.2772 226.138 10.718C226.38 11.0269 226.454 10.953 226.337 10.4888C226.22 9.98314 226.35 9.93989 226.793 10.2688C227.125 10.5363 227.456 10.5961 227.514 10.4065C227.576 10.2043 228.288 10.0351 229.123 10.014C229.954 10.0055 231.456 10.2575 232.502 10.6049C234.172 11.1568 234.346 11.3483 234.056 12.2131C233.882 12.7402 233.92 13.1249 234.136 13.0528C234.388 12.9915 234.495 13.1072 234.421 13.3473ZM179.447 3.41804C180.825 3.20986 181.234 3.33482 180.726 3.79422C180.511 4.02156 179.905 4.07039 179.392 3.89897C178.511 3.60023 178.519 3.57345 179.447 3.41804ZM185.597 1.16506C185.813 1.23122 185.535 1.45357 184.935 1.69482C184.356 1.91298 183.854 1.96443 183.774 1.7938C183.624 1.46959 185.003 0.998371 185.597 1.16506ZM196.802 2.71325C197.03 2.78308 197.454 3.16136 197.724 3.52232C197.983 3.8796 198.026 4.12688 197.785 4.05338C197.569 3.98723 197.13 3.61866 196.859 3.2577C196.6 2.90042 196.573 2.64342 196.802 2.71325ZM201.561 3.04361C202.021 3.34523 202.562 3.42293 202.756 3.2187C202.978 3.00842 203.296 2.91523 203.548 2.99241C203.777 3.06223 203.578 3.36754 203.135 3.65657C202.12 4.2685 201.045 4.04248 200.87 3.15439C200.76 2.6963 200.969 2.65771 201.561 3.04361ZM168.297 4.39591C168.548 4.47248 168.574 4.68644 168.354 4.89394C168.149 5.09253 168.251 5.35714 168.597 5.46288C169.444 5.72175 170.068 5.0883 169.484 4.56641C169.236 4.35327 169.708 4.38768 170.519 4.63561C172.201 5.14971 173.121 5.25256 174.01 4.98867C174.366 4.89138 174.787 5.00643 175.016 5.28238C175.277 5.58183 175.355 5.53724 175.264 5.11094C175.053 4.22227 176.913 3.55467 177.401 4.3493C177.663 4.77276 178.456 4.82294 180.118 4.54804C182.559 4.113 183.638 4.20934 183.867 4.9112C184.034 5.42949 185.563 5.33371 185.728 4.79351C185.797 4.56738 185.692 4.35667 185.442 4.2801C185.227 4.21447 185.187 3.79019 185.373 3.31118C185.613 2.69763 185.814 2.63561 186.092 3.09148C186.302 3.43024 186.381 3.89423 186.253 4.14346C185.7 5.14202 186.885 5.14719 187.735 4.15711L188.656 3.06491L189.145 4.36811C189.409 5.08091 189.694 5.42898 189.775 5.16516C189.859 4.88878 190.258 4.7773 190.688 4.90856C191.868 5.26953 192.264 4.82738 191.766 3.68586C191.198 2.3859 191.639 2.43814 192.293 3.75105C192.827 4.77951 194.768 5.51038 196.112 5.16581C196.606 5.04217 196.803 4.86871 196.532 4.77229C196.262 4.67586 196.044 4.27956 196.024 3.87513C196.004 3.38804 196.169 3.31508 196.581 3.63315C197.016 3.99986 197.158 3.9196 197.125 3.34619C197.105 2.90043 197.339 2.56001 197.703 2.52027C198.103 2.49146 198.186 2.81888 197.938 3.41623C197.334 4.88001 197.491 5.55998 198.409 5.37349C198.868 5.28025 200.104 5.28743 201.12 5.41945C202.152 5.54255 203.289 5.45046 203.643 5.18783C203.977 4.94668 204.532 4.92394 204.796 5.12816C205.059 5.33237 205.531 5.32545 205.778 5.11267C206.104 4.81398 206.287 4.85611 206.374 5.25364C206.469 5.62605 206.898 5.71597 207.8 5.5384C208.733 5.34299 209.158 5.44548 209.385 5.89932C209.631 6.37303 209.754 6.39692 209.877 5.99491C209.966 5.70597 210.349 5.56208 210.73 5.67875C211.112 5.79543 212.817 5.89091 214.482 5.90535C216.138 5.90359 218.49 6.05939 219.625 6.22787C220.82 6.41458 221.735 6.32332 221.772 6.03235C221.804 5.71262 222.577 5.70161 223.741 5.98882C226.025 6.53609 228.601 6.8564 229.007 6.63713C229.165 6.54796 228.897 6.35631 228.432 6.21411C227.979 6.07556 227.394 5.471 227.131 4.88221C226.75 3.99639 226.792 3.81687 227.394 3.76737C227.869 3.74788 227.934 3.91888 227.625 4.374C227.261 4.83965 227.322 4.94055 227.804 4.81326C228.207 4.68922 228.315 4.76337 228.075 4.99235C226.991 5.97961 232.568 7.2313 234.137 6.36476C234.819 5.96878 234.86 5.74792 234.393 4.58857C234.031 3.63994 233.819 3.43774 233.657 3.92405C233.484 4.4067 233.381 4.40266 233.269 3.91517C233.158 3.55168 232.954 3.32435 232.765 3.43135C232.583 3.51323 231.762 3.46832 230.956 3.33183C230.174 3.20263 228.972 3.04104 228.365 2.9791C227.754 2.92971 226.476 2.80015 225.584 2.69203C224.691 2.58391 223.346 2.50257 222.645 2.49413L221.345 2.48128L222.26 3.28317C222.848 3.7925 222.925 4.00848 222.468 3.88249C222.083 3.77838 221.614 3.30551 221.436 2.86625C221.228 2.30825 220.921 2.11822 220.53 2.28724C220.199 2.43316 218.966 2.41341 217.728 2.24089C216.489 2.06836 215.015 2.07093 214.383 2.26226C213.774 2.46088 212.938 2.46622 212.532 2.30092C211.135 1.70899 210.652 1.75361 210.81 2.43359C210.913 2.90487 210.834 2.86679 210.439 2.27922C210.073 1.68639 209.842 1.58835 209.504 1.88339C209.245 2.13385 208.877 2.14483 208.613 1.94061C208.066 1.51232 206.75 1.97562 206.117 2.81209C205.784 3.25992 205.724 3.20035 205.88 2.56128C206.033 1.9761 205.86 1.73094 205.334 1.78975C204.906 1.82383 204.216 1.73636 203.75 1.59416C203.285 1.45196 202.981 1.55127 203.031 1.81386C203.233 2.60366 202.025 2.7152 201.823 1.92541C201.692 1.4594 201.477 1.3111 201.174 1.53441C200.918 1.73098 200.161 1.77441 199.411 1.62737C198.672 1.48398 197.796 1.40828 197.392 1.44965C197.016 1.48575 196.345 1.3768 195.978 1.20988C195.051 0.788915 194.38 1.53178 194.775 2.54525C194.995 3.14822 194.907 3.4785 194.446 3.74965C193.961 4.0135 193.857 3.92679 194.022 3.38659C194.571 1.59012 191.7 1.42666 190.639 3.19035C190.09 4.13501 189.928 4.19541 189.529 3.53774C189.279 3.0766 189.237 2.48698 189.455 2.11414C189.721 1.67322 189.547 1.38673 188.868 1.1789C187.723 0.828878 187.236 1.73788 188.233 2.31728C188.687 2.57983 188.502 2.67427 187.641 2.58965C186.705 2.49572 186.489 2.34742 186.779 1.95512C187.021 1.63091 186.864 1.37684 186.336 1.27031C185.911 1.16782 185.342 1.32348 185.126 1.60109C184.872 1.96299 184.356 1.90144 183.488 1.41604C182.448 0.850826 182.242 0.842743 182.386 1.4364C182.527 2.04263 182.455 2.02075 182.009 1.3485C181.558 0.647479 181.368 0.671809 180.655 1.51153C180.188 2.05581 179.496 2.53081 179.107 2.56326C178.537 2.59492 178.532 2.52481 179.095 2.13371C179.67 1.74625 179.518 1.60362 178.064 1.20013C177.126 0.940861 176.289 0.863533 176.231 1.05198C176.173 1.24042 175.856 1.17074 175.52 0.903317C175.109 0.58524 174.955 0.620511 175.038 0.98927C175.219 1.71788 172.096 1.73841 170.932 1.0253C170.473 0.733973 166.575 0.558852 162.22 0.600979C137.804 0.870214 106.406 2.90611 76.0388 6.17748C70.4405 6.78746 64.4059 7.37397 62.5958 7.49368C57.7278 7.80493 48.0021 9.07623 47.8946 9.42798C47.8447 9.5913 47.445 9.66144 47.0161 9.57152C46.2098 9.39369 34.448 11.1826 33.2281 11.6751C32.857 11.8227 31.492 12.0647 30.1619 12.235C28.8238 12.3891 22.2134 13.665 15.4099 15.0605C2.24229 17.7796 0.706259 18.3677 0.773516 20.7923C0.815712 23.0855 2.67796 23.4351 7.97248 22.1552C10.4913 21.5516 16.3455 20.3605 21.0455 19.4896C25.7456 18.6188 29.5297 17.7151 29.4681 17.4902C29.4141 17.2402 29.7038 17.2738 30.1305 17.5416C30.5453 17.8058 31.7346 17.8398 32.7708 17.6071C33.8031 17.3869 35.6589 17.0751 36.9135 16.8955C41.3663 16.2787 43.3414 16.0034 47.208 15.4272C58.4837 13.7781 86.9068 10.6815 107.72 8.84396C124.487 7.36252 134.31 6.75298 151.719 6.07225C161.869 5.67258 167.553 5.25346 167.672 4.86401C167.768 4.54994 168.071 4.32664 168.297 4.39591Z" fill="#F45C37"/>
</g>
<defs>
<clipPath id="clip0_1135_3331">
<rect width="235" height="23" fill="white"/>
</clipPath>
</defs>
</svg>
