<svg width="236" height="161" viewBox="0 0 236 161" fill="none" xmlns="http://www.w3.org/2000/svg">
<path d="M58.2883 45.7597H9.13672V73.8835H58.2883V45.7597Z" fill="#FAFAFA"/>
<path d="M58.2877 73.8835C58.2877 73.8835 58.2833 73.7096 58.2811 73.3777C58.2796 73.0431 58.2774 72.5511 58.2742 71.9077C58.2708 70.6168 58.2654 68.7209 58.2585 66.285C58.2506 61.4167 58.2393 54.3935 58.2251 45.7597L58.2877 45.8238C45.1759 45.829 27.9492 45.836 9.13996 45.8434H9.13619L9.218 45.7597C9.21611 55.7047 9.21422 65.2169 9.21265 73.8835L9.13619 73.8053C23.5196 73.8207 35.7976 73.8339 44.483 73.8433C48.8292 73.8523 52.276 73.8597 54.6398 73.8645C55.8204 73.8687 56.7298 73.8719 57.3475 73.8742C57.6537 73.8761 57.8872 73.8777 58.0473 73.879C58.2053 73.8803 58.2877 73.8835 58.2877 73.8835C58.2877 73.8835 58.2113 73.8867 58.0568 73.8884C57.8985 73.8893 57.6682 73.8909 57.3658 73.8932C56.7515 73.8954 55.8472 73.8987 54.6735 73.9028C52.3138 73.9077 48.8729 73.9151 44.5343 73.9241C35.8363 73.9334 23.541 73.9466 9.1365 73.9621H9.06004V73.8839C9.05846 65.2169 9.05658 55.705 9.05469 45.76V45.6763H9.1365H9.14028C27.9495 45.6837 45.1762 45.6908 58.2881 45.696H58.351V45.76C58.3372 54.4106 58.3255 61.4472 58.3176 66.3249C58.3107 68.7547 58.3054 70.6458 58.3019 71.9335C58.2988 72.5717 58.2966 73.0595 58.295 73.3915C58.2922 73.7187 58.2877 73.8835 58.2877 73.8835Z" fill="#E0E0E0"/>
<path d="M22.0914 52.4628H15.1426V59.5735H22.0914V52.4628Z" fill="#E0E0E0"/>
<path d="M31.6346 53.462C31.6346 53.5083 30.0128 53.5457 28.0128 53.5457C26.0118 53.5457 24.3906 53.508 24.3906 53.462C24.3906 53.4156 26.0121 53.3782 28.0128 53.3782C30.0128 53.3782 31.6346 53.4156 31.6346 53.462Z" fill="#E0E0E0"/>
<path d="M54.7745 56.018C54.7745 56.0644 47.9724 56.1017 39.5834 56.1017C31.1915 56.1017 24.3906 56.064 24.3906 56.018C24.3906 55.9716 31.1915 55.9343 39.5834 55.9343C47.9721 55.9343 54.7745 55.9719 54.7745 56.018Z" fill="#E0E0E0"/>
<path d="M44.5525 58.8861C44.5525 58.9325 40.083 58.9698 34.5707 58.9698C29.0565 58.9698 24.5879 58.9321 24.5879 58.8861C24.5879 58.8397 29.0565 58.8024 34.5707 58.8024C40.083 58.802 44.5525 58.8397 44.5525 58.8861Z" fill="#E0E0E0"/>
<path d="M51.0123 70.156H17.4374C15.6589 70.156 14.2168 68.6806 14.2168 66.8604C14.2168 65.0404 15.6586 63.5647 17.4374 63.5647H51.0123C52.7908 63.5647 54.233 65.0401 54.233 66.8604C54.233 68.6806 52.7908 70.156 51.0123 70.156Z" fill="#E0E0E0"/>
<path d="M28.0522 67.323H27.2284L27.0711 67.712H26.6504L27.4415 65.8959H27.8471L28.6403 67.712H28.2092L28.0522 67.323ZM27.9229 67.0039L27.6416 66.3087L27.3603 67.0039H27.9229Z" fill="white"/>
<path d="M30.3649 66.5553C30.3649 66.9601 30.0682 67.2116 29.5943 67.2116H29.2368V67.7123H28.8262V65.8962H29.5943C30.0682 65.8962 30.3649 66.148 30.3649 66.5553ZM29.9492 66.5553C29.9492 66.3557 29.8224 66.2388 29.5713 66.2388H29.2368V66.8693H29.5713C29.8224 66.8689 29.9492 66.7524 29.9492 66.5553Z" fill="white"/>
<path d="M32.1953 66.5553C32.1953 66.9601 31.8989 67.2116 31.4247 67.2116H31.0672V67.7123H30.6562V65.8962H31.4243C31.8986 65.8962 32.1953 66.148 32.1953 66.5553ZM31.7793 66.5553C31.7793 66.3557 31.6525 66.2388 31.4017 66.2388H31.0672V66.8693H31.4017C31.6528 66.8689 31.7793 66.7524 31.7793 66.5553Z" fill="white"/>
<path d="M32.4883 65.8962H32.8992V67.3697H33.7891V67.7119H32.4886V65.8962H32.4883Z" fill="white"/>
<path d="M34.6877 67.0689V67.7123H34.2768V67.0638L33.5898 65.8962H34.026L34.4999 66.7028L34.9741 65.8962H35.3772L34.6877 67.0689Z" fill="white"/>
<path d="M37.8953 65.8962V67.7123H37.558L36.6732 66.6097V67.7123H36.2676V65.8962H36.6074L37.4897 66.9987V65.8962H37.8953Z" fill="white"/>
<path d="M38.2051 66.804C38.2051 66.2644 38.6157 65.8647 39.1761 65.8647C39.7337 65.8647 40.1469 66.2618 40.1469 66.804C40.1469 67.3463 39.7337 67.7433 39.1761 67.7433C38.6157 67.7433 38.2051 67.3437 38.2051 66.804ZM39.7312 66.804C39.7312 66.4592 39.493 66.2228 39.1761 66.2228C38.8593 66.2228 38.6211 66.4588 38.6211 66.804C38.6211 67.1489 38.8593 67.3852 39.1761 67.3852C39.493 67.3852 39.7312 67.1489 39.7312 66.804Z" fill="white"/>
<path d="M43.0812 65.8962L42.5006 67.7123H42.0595L41.669 66.4825L41.2659 67.7123H40.8272L40.2441 65.8962H40.6702L41.0708 67.1726L41.4893 65.8962H41.8694L42.275 67.1829L42.6885 65.8962H43.0812Z" fill="white"/>
<path d="M59.3266 105.649H16.8438V129.958H59.3266V105.649Z" fill="#FAFAFA"/>
<path d="M59.3264 129.958C59.3264 129.958 59.322 129.807 59.3198 129.519C59.3182 129.229 59.316 128.804 59.3128 128.248C59.3094 127.131 59.304 125.492 59.2971 123.387C59.2892 119.179 59.2779 113.11 59.2637 105.649L59.3264 105.714C47.993 105.719 33.1036 105.726 16.8467 105.733H16.8435L16.9253 105.649C16.9235 114.245 16.9216 122.467 16.92 129.958L16.8435 129.879C29.2738 129.895 39.8841 129.908 47.3914 129.917C51.1479 129.926 54.1271 129.934 56.1712 129.939C57.1914 129.943 57.9774 129.946 58.5126 129.948C58.777 129.95 58.9787 129.952 59.1181 129.953C59.2546 129.955 59.3264 129.958 59.3264 129.958C59.3264 129.958 59.2606 129.961 59.1272 129.962C58.9897 129.963 58.7911 129.965 58.5306 129.967C57.9988 129.969 57.2181 129.973 56.2046 129.977C54.1643 129.982 51.191 129.989 47.442 129.998C39.9224 130.007 29.2943 130.021 16.8435 130.036H16.7671V129.958C16.7655 122.467 16.7636 114.245 16.7617 105.65V105.566H16.8435H16.8467C33.1036 105.573 47.993 105.581 59.3264 105.586H59.3893V105.65C59.3755 113.127 59.3638 119.21 59.3559 123.427C59.349 125.526 59.3437 127.16 59.3402 128.274C59.3371 128.824 59.3349 129.246 59.3333 129.533C59.3308 129.816 59.3264 129.958 59.3264 129.958Z" fill="#E0E0E0"/>
<path d="M28.0412 111.443H22.0352V117.589H28.0412V111.443Z" fill="#E0E0E0"/>
<path d="M36.2909 112.307C36.2909 112.353 34.889 112.39 33.1602 112.39C31.4308 112.39 30.0293 112.353 30.0293 112.307C30.0293 112.26 31.4308 112.223 33.1602 112.223C34.889 112.223 36.2909 112.26 36.2909 112.307Z" fill="#E0E0E0"/>
<path d="M56.2907 114.516C56.2907 114.562 50.4115 114.6 43.1607 114.6C35.9073 114.6 30.0293 114.562 30.0293 114.516C30.0293 114.47 35.9073 114.432 43.1607 114.432C50.4115 114.432 56.2907 114.47 56.2907 114.516Z" fill="#E0E0E0"/>
<path d="M47.4552 116.995C47.4552 117.041 43.5921 117.079 38.8277 117.079C34.0618 117.079 30.1992 117.041 30.1992 116.995C30.1992 116.949 34.0614 116.911 38.8277 116.911C43.5921 116.911 47.4552 116.948 47.4552 116.995Z" fill="#E0E0E0"/>
<path d="M53.0374 126.736H24.0179C22.4805 126.736 21.2344 125.46 21.2344 123.887C21.2344 122.314 22.4808 121.039 24.0179 121.039H53.0377C54.5749 121.039 55.8213 122.314 55.8213 123.887C55.8213 125.46 54.5749 126.736 53.0374 126.736Z" fill="#E0E0E0"/>
<path d="M33.1913 124.288H32.4798L32.3439 124.624H31.9805L32.6636 123.055H33.0138L33.6992 124.624H33.3269L33.1913 124.288ZM33.0796 124.012L32.8367 123.411L32.5934 124.012H33.0796Z" fill="white"/>
<path d="M35.1902 123.624C35.1902 123.974 34.934 124.191 34.5246 124.191H34.216V124.624H33.8613V123.055H34.5246C34.934 123.055 35.1902 123.273 35.1902 123.624ZM34.8314 123.624C34.8314 123.452 34.7219 123.351 34.5051 123.351H34.216V123.895H34.5051C34.7219 123.895 34.8314 123.795 34.8314 123.624Z" fill="white"/>
<path d="M36.7722 123.624C36.7722 123.974 36.5161 124.191 36.1067 124.191H35.798V124.624H35.4434V123.055H36.1067C36.5157 123.055 36.7722 123.273 36.7722 123.624ZM36.4128 123.624C36.4128 123.452 36.3033 123.351 36.0865 123.351H35.7974V123.895H36.0865C36.3033 123.895 36.4128 123.795 36.4128 123.624Z" fill="white"/>
<path d="M37.0254 123.055H37.38V124.328H38.1484V124.623H37.0254V123.055Z" fill="white"/>
<path d="M38.9263 124.068V124.624H38.5717V124.064L37.9785 123.056H38.3549L38.7642 123.752L39.1736 123.056H39.5216L38.9263 124.068Z" fill="white"/>
<path d="M41.6983 123.055V124.624H41.4072L40.6432 123.672V124.624H40.293V123.055H40.5862L41.348 124.007V123.055H41.6983Z" fill="white"/>
<path d="M41.9668 123.839C41.9668 123.373 42.3214 123.028 42.8054 123.028C43.2868 123.028 43.6437 123.371 43.6437 123.839C43.6437 124.308 43.2868 124.65 42.8054 124.65C42.3214 124.65 41.9668 124.305 41.9668 123.839ZM43.2849 123.839C43.2849 123.541 43.0791 123.337 42.8057 123.337C42.5319 123.337 42.3262 123.541 42.3262 123.839C42.3262 124.137 42.5319 124.341 42.8057 124.341C43.0791 124.341 43.2849 124.137 43.2849 123.839Z" fill="white"/>
<path d="M46.1808 123.055L45.6795 124.624H45.2988L44.9614 123.562L44.6131 124.624H44.2342L43.7305 123.055H44.0983L44.4444 124.158L44.8057 123.055H45.1342L45.4844 124.167L45.8413 123.055H46.1808Z" fill="white"/>
<path d="M207.334 116.617H164.852V140.925H207.334V116.617Z" fill="#FAFAFA"/>
<path d="M207.334 140.925C207.334 140.925 207.33 140.774 207.328 140.487C207.326 140.196 207.324 139.771 207.321 139.215C207.317 138.098 207.312 136.46 207.305 134.355C207.297 130.146 207.286 124.078 207.272 116.617L207.334 116.681C196.001 116.686 181.111 116.693 164.854 116.7H164.851L164.933 116.617C164.931 125.212 164.929 133.434 164.928 140.925L164.851 140.846C177.282 140.862 187.892 140.875 195.399 140.884C199.156 140.893 202.135 140.901 204.179 140.906C205.199 140.91 205.985 140.913 206.52 140.915C206.785 140.917 206.986 140.919 207.126 140.92C207.262 140.922 207.334 140.925 207.334 140.925C207.334 140.925 207.268 140.928 207.135 140.93C206.998 140.931 206.799 140.932 206.538 140.935C206.007 140.937 205.226 140.94 204.212 140.944C202.172 140.949 199.199 140.957 195.45 140.966C187.93 140.975 177.302 140.988 164.851 141.004H164.775V140.925C164.773 133.434 164.771 125.213 164.77 116.617V116.533H164.851H164.854C181.111 116.541 196.001 116.548 207.334 116.553H207.397V116.617C207.383 124.095 207.372 130.177 207.364 134.394C207.357 136.494 207.351 138.127 207.348 139.241C207.345 139.792 207.343 140.213 207.341 140.5C207.339 140.783 207.334 140.925 207.334 140.925Z" fill="#E0E0E0"/>
<path d="M176.049 122.411H170.043V128.557H176.049V122.411Z" fill="#E0E0E0"/>
<path d="M184.299 123.274C184.299 123.321 182.897 123.358 181.168 123.358C179.439 123.358 178.037 123.32 178.037 123.274C178.037 123.228 179.439 123.19 181.168 123.19C182.897 123.19 184.299 123.228 184.299 123.274Z" fill="#E0E0E0"/>
<path d="M204.299 125.483C204.299 125.53 198.419 125.567 191.168 125.567C183.915 125.567 178.037 125.529 178.037 125.483C178.037 125.437 183.915 125.4 191.168 125.4C198.419 125.4 204.299 125.437 204.299 125.483Z" fill="#E0E0E0"/>
<path d="M195.463 127.962C195.463 128.009 191.6 128.046 186.836 128.046C182.07 128.046 178.207 128.009 178.207 127.962C178.207 127.916 182.069 127.878 186.836 127.878C191.6 127.878 195.463 127.916 195.463 127.962Z" fill="#E0E0E0"/>
<path d="M201.046 137.703H172.026C170.489 137.703 169.242 136.428 169.242 134.855C169.242 133.282 170.488 132.006 172.026 132.006H201.046C202.583 132.006 203.829 133.282 203.829 134.855C203.829 136.428 202.583 137.703 201.046 137.703Z" fill="#E0E0E0"/>
<path d="M181.199 135.255H180.487L180.351 135.591H179.988L180.671 134.022H181.022L181.707 135.591H181.335L181.199 135.255ZM181.087 134.979L180.845 134.379L180.602 134.979H181.087Z" fill="white"/>
<path d="M183.198 134.592C183.198 134.941 182.942 135.159 182.532 135.159H182.224V135.591H181.869V134.023H182.532C182.942 134.022 183.198 134.24 183.198 134.592ZM182.839 134.592C182.839 134.419 182.729 134.318 182.513 134.318H182.223V134.863H182.513C182.729 134.863 182.839 134.762 182.839 134.592Z" fill="white"/>
<path d="M184.78 134.592C184.78 134.941 184.524 135.159 184.114 135.159H183.806V135.591H183.451V134.023H184.114C184.524 134.022 184.78 134.24 184.78 134.592ZM184.421 134.592C184.421 134.419 184.311 134.318 184.095 134.318H183.806V134.863H184.095C184.311 134.863 184.421 134.762 184.421 134.592Z" fill="white"/>
<path d="M185.033 134.022H185.388V135.295H186.156V135.591H185.033V134.022Z" fill="white"/>
<path d="M186.934 135.035V135.591H186.579V135.031L185.986 134.023H186.363L186.772 134.72L187.182 134.023H187.53L186.934 135.035Z" fill="white"/>
<path d="M189.706 134.022V135.591H189.415L188.651 134.639V135.591H188.301V134.022H188.594L189.356 134.975V134.022H189.706Z" fill="white"/>
<path d="M189.977 134.807C189.977 134.341 190.331 133.996 190.815 133.996C191.297 133.996 191.653 134.338 191.653 134.807C191.653 135.275 191.297 135.618 190.815 135.618C190.331 135.617 189.977 135.273 189.977 134.807ZM191.294 134.807C191.294 134.508 191.089 134.305 190.815 134.305C190.541 134.305 190.336 134.508 190.336 134.807C190.336 135.105 190.541 135.309 190.815 135.309C191.089 135.308 191.294 135.104 191.294 134.807Z" fill="white"/>
<path d="M194.188 134.022L193.686 135.591H193.306L192.968 134.529L192.62 135.591H192.242L191.738 134.022H192.106L192.452 135.125L192.813 134.022H193.142L193.492 135.134L193.849 134.022H194.188Z" fill="white"/>
<path d="M222.638 57.2622H173.486V85.386H222.638V57.2622Z" fill="#FAFAFA"/>
<path d="M222.637 85.3863C222.637 85.3863 222.633 85.2125 222.63 84.8805C222.629 84.5459 222.627 84.0542 222.624 83.4105C222.62 82.1197 222.614 80.2237 222.608 77.7878C222.6 72.9195 222.589 65.8963 222.574 57.2625L222.637 57.3266C209.525 57.3318 192.298 57.3388 173.489 57.3463H173.485L173.567 57.2625C173.565 67.2075 173.564 76.7197 173.562 85.3863L173.485 85.3081C187.869 85.3236 200.147 85.3368 208.832 85.3461C213.178 85.3551 216.625 85.3625 218.989 85.3673C220.169 85.3715 221.079 85.3747 221.697 85.377C222.003 85.3789 222.236 85.3805 222.397 85.3818C222.554 85.3831 222.637 85.3863 222.637 85.3863C222.637 85.3863 222.561 85.3896 222.406 85.3912C222.248 85.3921 222.017 85.3937 221.715 85.396C221.101 85.3983 220.196 85.4015 219.023 85.4057C216.663 85.4105 213.222 85.4179 208.884 85.4269C200.186 85.4363 187.89 85.4495 173.486 85.4649H173.41V85.3867C173.408 76.72 173.406 67.2078 173.404 57.2629V57.1791H173.486H173.49C192.299 57.1865 209.526 57.1936 222.638 57.1988H222.701V57.2629C222.687 65.9134 222.675 72.9501 222.668 77.8277C222.661 80.2575 222.655 82.1486 222.652 83.4363C222.649 84.0745 222.647 84.5623 222.645 84.8943C222.641 85.2215 222.637 85.3863 222.637 85.3863Z" fill="#E0E0E0"/>
<path d="M186.441 63.9656H179.492V71.0764H186.441V63.9656Z" fill="#E0E0E0"/>
<path d="M195.984 64.9645C195.984 65.0108 194.362 65.0485 192.362 65.0485C190.361 65.0485 188.74 65.0108 188.74 64.9645C188.74 64.9181 190.362 64.8807 192.362 64.8807C194.362 64.8807 195.984 64.9184 195.984 64.9645Z" fill="#E0E0E0"/>
<path d="M219.124 67.5208C219.124 67.5672 212.322 67.6045 203.933 67.6045C195.541 67.6045 188.74 67.5668 188.74 67.5208C188.74 67.4744 195.541 67.4371 203.933 67.4371C212.322 67.4371 219.124 67.4744 219.124 67.5208Z" fill="#E0E0E0"/>
<path d="M208.902 70.3885C208.902 70.4349 204.433 70.4723 198.92 70.4723C193.406 70.4723 188.938 70.4346 188.938 70.3885C188.938 70.3422 193.406 70.3048 198.92 70.3048C204.432 70.3048 208.902 70.3425 208.902 70.3885Z" fill="#E0E0E0"/>
<path d="M215.36 81.6586H181.785C180.007 81.6586 178.564 80.1832 178.564 78.3629C178.564 76.543 180.006 75.0673 181.785 75.0673H215.36C217.139 75.0673 218.581 76.5427 218.581 78.3629C218.581 80.1832 217.139 81.6586 215.36 81.6586Z" fill="#E0E0E0"/>
<path d="M192.402 78.8257H191.578L191.421 79.215H191L191.791 77.3989H192.197L192.99 79.215H192.559L192.402 78.8257ZM192.273 78.5066L191.991 77.8114L191.71 78.5066H192.273Z" fill="white"/>
<path d="M194.715 78.0578C194.715 78.4626 194.418 78.7141 193.944 78.7141H193.586V79.2148H193.176V77.3987H193.944C194.418 77.399 194.715 77.6508 194.715 78.0578ZM194.299 78.0578C194.299 77.8582 194.172 77.7413 193.921 77.7413H193.586V78.3718H193.921C194.172 78.3718 194.299 78.2552 194.299 78.0578Z" fill="white"/>
<path d="M196.545 78.0578C196.545 78.4626 196.248 78.7141 195.774 78.7141H195.417V79.2148H195.006V77.3987H195.774C196.248 77.399 196.545 77.6508 196.545 78.0578ZM196.129 78.0578C196.129 77.8582 196.002 77.7413 195.752 77.7413H195.417V78.3718H195.752C196.002 78.3718 196.129 78.2552 196.129 78.0578Z" fill="white"/>
<path d="M196.838 77.3989H197.249V78.8724H198.138V79.215H196.838V77.3989Z" fill="white"/>
<path d="M199.038 78.5716V79.215H198.627V78.5665L197.939 77.3989H198.376L198.85 78.2055L199.324 77.3989H199.727L199.038 78.5716Z" fill="white"/>
<path d="M202.245 77.3989V79.215H201.907L201.023 78.1125V79.215H200.617V77.3989H200.957L201.839 78.5015V77.3989H202.245Z" fill="white"/>
<path d="M202.555 78.3068C202.555 77.7672 202.965 77.3676 203.525 77.3676C204.083 77.3676 204.497 77.7646 204.497 78.3068C204.497 78.8491 204.083 79.2461 203.525 79.2461C202.965 79.2458 202.555 78.8465 202.555 78.3068ZM204.081 78.3068C204.081 77.962 203.842 77.7256 203.525 77.7256C203.208 77.7256 202.97 77.9616 202.97 78.3068C202.97 78.652 203.208 78.888 203.525 78.888C203.842 78.8877 204.081 78.6517 204.081 78.3068Z" fill="white"/>
<path d="M207.431 77.3989L206.85 79.215H206.409L206.019 77.9853L205.616 79.215H205.177L204.594 77.3989H205.02L205.42 78.6753L205.839 77.3989H206.219L206.624 78.6856L207.038 77.3989H207.431Z" fill="white"/>
<path d="M188.413 13.9944H42.793V150.254H188.413V13.9944Z" fill="white"/>
<path d="M188.413 13.9944H42.793V23.0597H188.413V13.9944Z" fill="#E0E0E0"/>
<path d="M168.814 141.507C168.814 141.553 144.444 141.591 114.388 141.591C84.3223 141.591 59.957 141.553 59.957 141.507C59.957 141.461 84.3223 141.423 114.388 141.423C144.444 141.423 168.814 141.461 168.814 141.507Z" fill="#263238"/>
<path d="M105.371 114.171H103.215V125.787H105.371V114.171Z" fill="#E0E0E0"/>
<path d="M105.37 125.787C105.367 125.783 105.363 125.701 105.36 125.547C105.357 125.381 105.353 125.158 105.349 124.879C105.343 124.286 105.335 123.453 105.325 122.421C105.316 120.334 105.304 117.446 105.289 114.171L105.37 114.253C104.678 114.254 103.953 114.254 103.215 114.254C103.377 114.086 103.26 114.21 103.296 114.173V114.177V114.184V114.198V114.227V114.284V114.398V114.626C103.296 114.778 103.296 114.928 103.296 115.079C103.296 115.379 103.296 115.677 103.295 115.972C103.295 116.562 103.294 117.14 103.293 117.704C103.291 118.832 103.288 119.902 103.286 120.898C103.275 122.877 103.265 124.556 103.259 125.787L103.214 125.742C103.883 125.752 104.415 125.761 104.794 125.767C104.97 125.772 105.11 125.775 105.219 125.778C105.316 125.781 105.367 125.784 105.37 125.787C105.373 125.79 105.327 125.793 105.235 125.796C105.128 125.799 104.991 125.802 104.82 125.807C104.434 125.813 103.894 125.821 103.214 125.832L103.17 125.833L103.17 125.787C103.163 124.556 103.154 122.877 103.143 120.898C103.14 119.902 103.138 118.832 103.135 117.704C103.135 117.14 103.134 116.562 103.133 115.972C103.133 115.677 103.133 115.38 103.133 115.079C103.133 114.928 103.133 114.778 103.133 114.626V114.398V114.284V114.227V114.198V114.184V114.177V114.173C103.169 114.135 103.05 114.254 103.215 114.087C103.953 114.087 104.678 114.087 105.371 114.088H105.452L105.451 114.171C105.437 117.469 105.425 120.378 105.416 122.48C105.406 123.504 105.398 124.331 105.392 124.919C105.388 125.19 105.384 125.406 105.381 125.569C105.377 125.716 105.374 125.791 105.37 125.787Z" fill="#263238"/>
<path d="M109.281 112.411H99.2016C97.7072 112.411 96.4961 111.172 96.4961 109.643H111.986C111.987 111.172 110.775 112.411 109.281 112.411Z" fill="#263238"/>
<path d="M118.173 110.186H100.6V106.339H118.173C119.211 106.339 120.053 107.201 120.053 108.262C120.053 109.325 119.211 110.186 118.173 110.186Z" fill="#FF725E"/>
<path d="M86.9439 78.72C85.9395 78.8588 85.2268 79.7919 85.3375 80.823L87.8728 104.412C88.2334 107.7 90.9502 110.186 94.1834 110.186H100.886C101.926 110.186 102.768 109.324 102.768 108.26C102.768 107.197 101.926 106.335 100.886 106.335H95.196C93.5774 106.335 92.2089 105.109 91.9949 103.467L89.0462 80.3664C88.9118 79.3164 87.9691 78.578 86.9439 78.72Z" fill="#FF725E"/>
<path d="M108.295 106.528L89.1928 106.802L87.3281 78.7014L103.316 78.5974C104.912 78.5974 106.205 79.9334 106.205 81.5817L108.295 106.528Z" fill="#FF725E"/>
<g opacity="0.3">
<path d="M86.9439 78.72C85.9395 78.8588 85.2268 79.7919 85.3375 80.823L87.8728 104.412C88.2334 107.7 90.9502 110.186 94.1834 110.186H100.886C101.926 110.186 102.768 109.324 102.768 108.26C102.768 107.197 101.926 106.335 100.886 106.335H94.7873C93.1686 106.335 92.0324 105.162 91.8184 103.52L89.0462 80.3664C88.9118 79.3164 87.9691 78.578 86.9439 78.72Z" fill="black"/>
</g>
<path d="M106.379 112.411H102.203V114.634H106.379V112.411Z" fill="#263238"/>
<path d="M105.075 135.313H103.453C102.764 135.313 102.205 134.742 102.205 134.036V126.411C102.205 125.706 102.764 125.134 103.453 125.134H105.075C105.765 125.134 106.323 125.706 106.323 126.411V134.036C106.323 134.742 105.765 135.313 105.075 135.313Z" fill="#E0E0E0"/>
<path d="M105.075 135.313C105.074 135.304 105.167 135.307 105.333 135.268C105.496 135.226 105.743 135.13 105.962 134.885C106.069 134.764 106.166 134.607 106.224 134.418C106.288 134.228 106.28 134.012 106.277 133.77C106.274 133.29 106.269 132.746 106.265 132.147C106.26 130.939 106.254 129.508 106.247 127.921C106.246 127.523 106.245 127.115 106.244 126.699C106.242 126.487 106.256 126.283 106.2 126.094C106.151 125.901 106.047 125.724 105.91 125.578C105.772 125.434 105.596 125.324 105.403 125.266C105.212 125.205 105.003 125.219 104.781 125.218C104.344 125.218 103.901 125.218 103.453 125.218C103.031 125.216 102.628 125.464 102.432 125.833C102.334 126.016 102.283 126.222 102.285 126.43C102.285 126.651 102.285 126.869 102.285 127.085C102.283 127.951 102.281 128.786 102.28 129.581C102.273 131.169 102.267 132.6 102.262 133.808C102.247 134.114 102.274 134.381 102.399 134.616C102.519 134.845 102.701 135.021 102.899 135.128C103.1 135.237 103.309 135.277 103.506 135.273C103.705 135.276 103.887 135.279 104.054 135.281C104.37 135.288 104.623 135.293 104.811 135.297C104.984 135.302 105.075 135.308 105.075 135.313C105.075 135.319 104.984 135.325 104.811 135.33C104.623 135.334 104.371 135.339 104.054 135.346C103.888 135.348 103.705 135.35 103.506 135.353C103.304 135.361 103.073 135.325 102.857 135.211C102.641 135.1 102.442 134.914 102.307 134.667C102.241 134.543 102.193 134.403 102.168 134.257C102.141 134.107 102.149 133.956 102.146 133.808C102.141 132.6 102.135 131.169 102.128 129.581C102.127 128.786 102.125 127.951 102.124 127.085C102.123 126.869 102.123 126.651 102.123 126.43C102.121 126.199 102.178 125.96 102.29 125.752C102.512 125.331 102.972 125.048 103.453 125.05C103.901 125.05 104.344 125.051 104.781 125.051C104.993 125.053 105.225 125.036 105.449 125.107C105.668 125.173 105.868 125.299 106.025 125.463C106.18 125.63 106.298 125.832 106.353 126.051C106.415 126.273 106.399 126.497 106.4 126.699C106.399 127.115 106.399 127.523 106.398 127.921C106.391 129.508 106.385 130.938 106.38 132.147C106.376 132.746 106.371 133.29 106.368 133.77C106.367 134.005 106.371 134.242 106.298 134.442C106.231 134.642 106.124 134.806 106.008 134.93C105.77 135.179 105.509 135.268 105.34 135.301C105.167 135.33 105.075 135.313 105.075 135.313Z" fill="#263238"/>
<path d="M116.287 134.684H91.7718C91.0528 134.684 90.459 134.929 90.0074 135.411C89.0984 136.383 89.155 137.978 89.1578 138.045L90.2737 137.997C90.2617 137.67 90.336 136.71 90.8165 136.199C91.0521 135.948 91.3646 135.826 91.7718 135.826H98.2036V138.741H99.32V135.826H116.286C117.004 135.826 117.588 136.424 117.588 137.159V138.02H118.705V137.159C118.705 135.794 117.62 134.684 116.287 134.684Z" fill="#E0E0E0"/>
<path d="M116.286 134.684C116.286 134.684 116.389 134.676 116.591 134.695C116.792 134.714 117.093 134.778 117.447 134.964C117.793 135.156 118.193 135.487 118.464 136.019C118.599 136.282 118.698 136.594 118.729 136.936C118.752 137.281 118.738 137.637 118.744 138.02L118.745 138.061H118.704C118.357 138.062 117.981 138.064 117.588 138.065H117.546L117.544 138.02C117.513 137.461 117.669 136.779 117.214 136.301C117.009 136.069 116.71 135.91 116.387 135.885C116.058 135.875 115.706 135.884 115.353 135.882C113.933 135.885 112.374 135.889 110.694 135.892C107.333 135.896 103.49 135.901 99.3194 135.906L99.3977 135.826C99.3983 136.743 99.399 137.734 99.3993 138.741V138.823H99.319C98.9704 138.823 98.5874 138.823 98.2026 138.823H98.122V138.741C98.1217 137.819 98.1214 136.828 98.1211 135.826L98.2026 135.909C97.0377 135.909 95.8017 135.909 94.5506 135.909C93.5789 135.91 92.616 135.912 91.6648 135.913C91.4376 135.924 91.2167 135.987 91.0361 136.115C90.8539 136.242 90.7201 136.432 90.6217 136.639C90.4288 137.056 90.3501 137.537 90.3536 137.993L90.3542 138.076L90.2761 138.079C89.9014 138.095 89.5298 138.111 89.1603 138.126L89.0776 138.13L89.0766 138.048C89.0694 137.501 89.1449 136.965 89.3161 136.457C89.4851 135.952 89.7699 135.477 90.1777 135.141C90.5833 134.801 91.1012 134.63 91.6062 134.608C92.1088 134.599 92.5927 134.606 93.0795 134.604C95.0185 134.607 96.8772 134.609 98.639 134.611C102.161 134.618 105.296 134.624 107.912 134.629C110.521 134.64 112.613 134.648 114.059 134.654C114.774 134.66 115.329 134.665 115.712 134.668C115.896 134.671 116.038 134.674 116.14 134.675C116.236 134.679 116.286 134.684 116.286 134.684C116.286 134.684 116.236 134.689 116.14 134.691C116.038 134.693 115.896 134.696 115.713 134.699C115.33 134.702 114.775 134.707 114.06 134.713C112.614 134.719 110.522 134.727 107.912 134.738C105.296 134.743 102.161 134.749 98.6394 134.756C96.8775 134.758 95.0188 134.76 93.0798 134.762C92.5968 134.765 92.1012 134.758 91.6147 134.768C91.1342 134.79 90.6547 134.951 90.2768 135.267C89.8973 135.582 89.6289 136.027 89.4668 136.512C89.3032 136.996 89.2299 137.524 89.2374 138.041L89.1537 137.963C89.5232 137.947 89.8948 137.931 90.2695 137.914L90.1921 138C90.1893 137.51 90.2677 137.022 90.4756 136.567C90.5817 136.343 90.7318 136.126 90.9436 135.978C91.1534 135.829 91.4083 135.758 91.6556 135.746C92.61 135.745 93.5761 135.744 94.5509 135.742C95.802 135.742 97.038 135.743 98.2029 135.743H98.2844V135.826C98.2841 136.828 98.2838 137.819 98.2835 138.741L98.2029 138.659C98.5881 138.659 98.971 138.659 99.3194 138.659L99.2394 138.741C99.2401 137.735 99.2407 136.744 99.241 135.826V135.746H99.3194C103.49 135.751 107.333 135.756 110.694 135.759C112.374 135.763 113.933 135.766 115.353 135.769C115.71 135.773 116.05 135.766 116.395 135.778C116.746 135.806 117.068 135.981 117.288 136.233C117.509 136.485 117.631 136.811 117.633 137.129C117.632 137.436 117.632 137.733 117.631 138.02L117.587 137.974C117.981 137.976 118.357 137.977 118.704 137.979L118.664 138.02C118.661 137.639 118.678 137.273 118.658 136.942C118.631 136.609 118.538 136.305 118.409 136.047C118.15 135.526 117.763 135.196 117.427 135.001C117.082 134.813 116.786 134.742 116.588 134.716C116.389 134.691 116.285 134.69 116.286 134.684Z" fill="#263238"/>
<path d="M100.91 140.101C100.91 141.336 99.9325 142.336 98.7257 142.336C97.5193 142.336 96.541 141.336 96.541 140.101C96.541 138.866 97.519 137.865 98.7257 137.865C99.9322 137.865 100.91 138.866 100.91 140.101Z" fill="#263238"/>
<path d="M91.8988 139.554C91.8988 140.788 90.9208 141.789 89.714 141.789C88.5076 141.789 87.5293 140.788 87.5293 139.554C87.5293 138.319 88.5073 137.318 89.714 137.318C90.9205 137.318 91.8988 138.319 91.8988 139.554Z" fill="#263238"/>
<path d="M120.076 139.635C120.076 140.869 119.099 141.871 117.892 141.871C116.685 141.871 115.707 140.87 115.707 139.635C115.707 138.4 116.685 137.399 117.892 137.399C119.098 137.4 120.076 138.4 120.076 139.635Z" fill="#263238"/>
<path d="M118.644 106.34C118.644 106.386 113.258 106.444 106.615 106.469C99.9695 106.494 94.5843 106.477 94.584 106.431C94.5837 106.384 99.9689 106.326 106.614 106.301C113.258 106.276 118.644 106.293 118.644 106.34Z" fill="#263238"/>
<path d="M91.8437 103.143C91.7987 103.148 91.136 98.0541 90.3632 91.7655C89.5904 85.4749 89.0004 80.3721 89.0454 80.3663C89.0904 80.3605 89.7531 85.4539 90.5259 91.7445C91.2984 98.0332 91.8884 103.137 91.8437 103.143Z" fill="#263238"/>
<path d="M88.8457 78.6662C88.8445 78.661 88.9021 78.6436 89.0144 78.6198C89.127 78.6008 89.2944 78.5741 89.5119 78.5683C89.9433 78.5577 90.5858 78.5802 91.3259 78.8539C91.6906 78.9927 92.0805 79.2294 92.3829 79.5903C92.6938 79.9423 92.9515 80.3741 93.1944 80.8352C93.6664 81.7642 94.1894 82.7752 94.7684 83.8249C95.9254 85.9234 97.0113 87.8033 97.748 89.1933C98.1199 89.8863 98.4069 90.4546 98.6013 90.8491C98.6888 91.0342 98.7606 91.1855 98.8181 91.3073C98.866 91.4129 98.8889 91.4696 98.8836 91.4721C98.8786 91.4747 98.8461 91.4232 98.7886 91.3227C98.7237 91.2052 98.6432 91.0584 98.5447 90.8793C98.3213 90.4739 98.017 89.9227 97.6463 89.2506C96.8848 87.8773 95.7838 86.0084 94.6249 83.9067C94.0459 82.857 93.5229 81.836 93.0607 80.908C92.8241 80.4491 92.5758 80.025 92.2809 79.6827C91.993 79.3314 91.6368 79.1086 91.2834 78.9644C90.5714 78.6845 89.9376 78.6424 89.5122 78.6333C89.083 78.6285 88.8486 78.6807 88.8457 78.6662Z" fill="#263238"/>
<path d="M85.4664 79.8869C85.5054 79.9104 84.0589 82.4922 82.236 85.6529C80.4125 88.8147 78.9031 91.3578 78.8641 91.3343C78.825 91.3108 80.2712 88.7297 82.0947 85.5679C83.9176 82.4069 85.4274 79.8631 85.4664 79.8869Z" fill="#263238"/>
<path d="M102.533 91.3334H76.3438V99.2359H102.533V91.3334Z" fill="#FAFAFA"/>
<path d="M83.406 93.7874L82.1243 96.8174H81.4475L80.1699 93.7874H80.91L81.8109 95.9518L82.7247 93.7874H83.406Z" fill="#263238"/>
<path d="M85.5033 96.1681H84.1285L83.8664 96.8176H83.1641L84.4838 93.7876H85.1606L86.4844 96.8176H85.7654L85.5033 96.1681ZM85.2874 95.6356L84.818 94.4757L84.3485 95.6356H85.2874Z" fill="#263238"/>
<path d="M86.5625 95.3023C86.5625 94.3888 87.2478 93.7355 88.1698 93.7355C88.6815 93.7355 89.1088 93.9261 89.3882 94.2722L88.9483 94.6876C88.7494 94.4539 88.4999 94.3328 88.2038 94.3328C87.6497 94.3328 87.2563 94.7308 87.2563 95.3023C87.2563 95.8739 87.6497 96.2722 88.2038 96.2722C88.4999 96.2722 88.7494 96.1508 88.9483 95.9128L89.3882 96.3282C89.1091 96.6792 88.6818 96.8695 88.1657 96.8695C87.2478 96.8692 86.5625 96.2158 86.5625 95.3023Z" fill="#263238"/>
<path d="M91.7396 96.1681H90.3648L90.1027 96.8176H89.4004L90.7201 93.7876H91.397L92.7208 96.8176H92.0017L91.7396 96.1681ZM91.5238 95.6356L91.0543 94.4757L90.5848 95.6356H91.5238Z" fill="#263238"/>
<path d="M95.7449 93.7874V96.8174H95.1822L93.7061 94.9778V96.8174H93.0293V93.7874H93.596L95.068 95.6269V93.7874H95.7449Z" fill="#263238"/>
<path d="M97.0588 94.3586H96.1113V93.7874H98.6916V94.3586H97.7441V96.8174H97.0588V94.3586Z" fill="#263238"/>
<path d="M101.686 98.5163C101.685 98.5147 101.683 98.476 101.681 98.4016C101.68 98.3211 101.679 98.2129 101.676 98.0729C101.673 97.7782 101.67 97.3542 101.664 96.8058C101.658 95.6991 101.649 94.0923 101.637 92.0618L101.686 92.112C96.1017 92.1194 87.1101 92.1316 76.9838 92.1455C77.02 92.1081 76.9007 92.2292 77.0643 92.0618V92.0634V92.0666V92.0731V92.0859V92.112V92.1639V92.2675V92.4746V92.8877C77.0643 93.1627 77.0643 93.4367 77.0643 93.7098C77.0643 94.2562 77.064 94.7985 77.064 95.3372C77.0637 96.4143 77.0631 97.4749 77.0628 98.5163L76.9825 98.4342C84.02 98.449 90.184 98.4622 94.596 98.4715C96.8012 98.4815 98.568 98.4895 99.7911 98.495C100.396 98.4995 100.867 98.5034 101.193 98.506C101.349 98.5082 101.47 98.5098 101.559 98.5111C101.642 98.5124 101.686 98.5163 101.686 98.5163C101.688 98.5179 101.649 98.5198 101.569 98.5217C101.483 98.523 101.365 98.5246 101.213 98.5269C100.891 98.5295 100.426 98.533 99.8286 98.5378C98.6096 98.5433 96.849 98.5514 94.6517 98.5613C90.2256 98.5707 84.0421 98.5836 76.9822 98.5987H76.902V98.5163C76.9016 97.4749 76.901 96.4143 76.9007 95.3372C76.9007 94.7988 76.9004 94.2562 76.9004 93.7098C76.9004 93.4367 76.9004 93.1627 76.9004 92.8877V92.4746V92.2675V92.1639V92.112V92.0859V92.0731V92.0666V92.0634V92.0618C77.0643 91.894 76.9466 92.0154 76.9838 91.9777C87.1097 91.9916 96.1013 92.0035 101.686 92.0112H101.736L101.736 92.0615C101.724 94.1049 101.715 95.7216 101.708 96.8354C101.703 97.3786 101.699 97.7992 101.696 98.0912C101.694 98.2274 101.693 98.3327 101.691 98.411C101.69 98.4825 101.688 98.5179 101.686 98.5163Z" fill="#263238"/>
<path d="M104.247 52.1251H106.241L104.268 53.7566H102.842L104.247 52.1251Z" fill="#263238"/>
<path d="M81.8854 67.6719V71.9107H79.3467V68.0956C79.3467 67.0288 78.8923 66.5777 78.1576 66.5777C77.3426 66.5777 76.7145 67.0974 76.7145 68.3281V71.9107H74.1758V61.7648H76.7145V65.1831C77.2759 64.6499 78.0374 64.3765 78.8926 64.3765C80.5893 64.3765 81.8854 65.3747 81.8854 67.6719Z" fill="#263238"/>
<path d="M83.1973 62.298C83.1973 61.5187 83.8118 60.9169 84.7473 60.9169C85.6828 60.9169 86.2974 61.4775 86.2974 62.2571C86.2974 63.0776 85.6825 63.679 84.7473 63.679C83.8118 63.679 83.1973 63.0772 83.1973 62.298ZM83.4779 64.4995H86.0167V71.9107H83.4779V64.4995Z" fill="#263238"/>
<path d="M92.5107 64.3765V66.7148C92.2835 66.6875 92.1231 66.6739 91.9362 66.6739C90.9072 66.6739 90.1989 67.2072 90.1989 68.5061V71.9109H87.6602V64.4998H90.0787V65.3885C90.5998 64.7181 91.4418 64.3765 92.5107 64.3765Z" fill="#263238"/>
<path d="M93.2734 62.298C93.2734 61.5187 93.888 60.9169 94.8235 60.9169C95.759 60.9169 96.3735 61.4775 96.3735 62.2571C96.3735 63.0776 95.759 63.679 94.8235 63.679C93.888 63.679 93.2734 63.0772 93.2734 62.298ZM93.5541 64.4995H96.0929V71.9107H93.5541V64.4995Z" fill="#263238"/>
<path d="M105.446 67.6718V71.9106H102.907V68.0956C102.907 67.0288 102.453 66.5777 101.718 66.5777C100.903 66.5777 100.275 67.0974 100.275 68.3281V71.9106H97.7363V64.4995H100.155V65.3061C100.729 64.6908 101.545 64.3762 102.453 64.3762C104.15 64.3765 105.446 65.3747 105.446 67.6718Z" fill="#263238"/>
<path d="M114.934 64.4995V70.557C114.934 73.3603 113.384 74.6866 110.685 74.6866C109.295 74.6866 107.972 74.3582 107.09 73.7158L108.012 71.8971C108.614 72.3895 109.602 72.6902 110.458 72.6902C111.821 72.6902 112.395 72.0614 112.395 70.8989V70.6529C111.901 71.2409 111.166 71.5281 110.244 71.5281C108.32 71.5281 106.689 70.1332 106.689 67.9456C106.689 65.7714 108.32 64.3768 110.244 64.3768C111.246 64.3768 112.021 64.705 112.516 65.4024V64.4998L114.934 64.4995ZM112.422 67.9452C112.422 67.0427 111.754 66.4412 110.845 66.4412C109.937 66.4412 109.255 67.043 109.255 67.9452C109.255 68.8478 109.937 69.4631 110.845 69.4631C111.754 69.4631 112.422 68.8478 112.422 67.9452Z" fill="#263238"/>
<path d="M116.111 70.4884C116.111 69.5585 116.78 68.957 117.635 68.957C118.503 68.957 119.158 69.5585 119.158 70.4884C119.158 71.391 118.503 72.0337 117.635 72.0337C116.78 72.0337 116.111 71.391 116.111 70.4884Z" fill="#FF725E"/>
<path d="M108.781 54.3582V56.1939C108.603 56.1726 108.477 56.1617 108.33 56.1617C107.522 56.1617 106.966 56.5803 106.966 57.6004V60.2736H104.973V54.4551H106.872V55.1529C107.281 54.6267 107.942 54.3582 108.781 54.3582Z" fill="#263238"/>
<path d="M115.328 57.8795H111.195C111.363 58.4701 111.856 58.8137 112.59 58.8137C113.146 58.8137 113.514 58.6527 113.902 58.3091L114.951 59.4255C114.405 60.0482 113.608 60.3702 112.527 60.3702C110.503 60.3702 109.191 59.0925 109.191 57.3534C109.191 55.6037 110.524 54.3582 112.318 54.3582C113.996 54.3582 115.36 55.4533 115.36 57.375C115.36 57.5253 115.339 57.7185 115.328 57.8795ZM111.163 56.806H113.493C113.387 56.1942 112.947 55.8078 112.328 55.8078C111.709 55.8075 111.279 56.1939 111.163 56.806Z" fill="#263238"/>
<path d="M96.3797 54.4551L94.3549 60.2736H92.4247L91.3545 57.1064L90.2425 60.2736H88.312L86.2871 54.4551H88.1754L89.34 57.9765L90.5464 54.4551H92.246L93.4209 58.0087L94.6274 54.4551H96.3797Z" fill="#263238"/>
<path d="M102.612 57.8795H98.4781C98.6461 58.4701 99.1392 58.8137 99.8736 58.8137C100.43 58.8137 100.797 58.6527 101.185 58.3091L102.234 59.4255C101.689 60.0482 100.892 60.3702 99.8107 60.3702C97.7858 60.3702 96.4746 59.0925 96.4746 57.3534C96.4746 55.6037 97.8069 54.3582 99.6008 54.3582C101.28 54.3582 102.643 55.4533 102.643 57.375C102.643 57.5253 102.622 57.7185 102.612 57.8795ZM98.4466 56.806H100.776C100.671 56.1942 100.23 55.8078 99.6112 55.8078C98.9923 55.8075 98.5621 56.1939 98.4466 56.806Z" fill="#263238"/>
<path d="M87.7636 43.6816L87.4455 36.8391C87.4194 36.2798 86.9899 35.8277 86.4442 35.7855C85.8684 35.7411 85.3599 36.1665 85.2872 36.7528L84.4404 43.6111C84.3763 44.1305 84.7715 44.5897 85.2828 44.5906L86.9125 44.5935C87.3989 44.5942 87.7869 44.1785 87.7636 43.6816Z" fill="#E0E0E0"/>
<path d="M84.7323 31.9122C85.0294 31.0421 85.9595 30.5836 86.8094 30.8876C87.6597 31.1915 88.1078 32.1434 87.8107 33.0131C87.5137 33.8831 86.5835 34.3417 85.7333 34.0377C84.8837 33.7341 84.4353 32.7822 84.7323 31.9122Z" fill="#E0E0E0"/>
<path d="M70.2618 52.3286L66.3669 48.9521C66.0484 48.6761 65.5786 48.6861 65.2718 48.9759C64.9484 49.2815 64.9156 49.7928 65.1973 50.1393L68.495 54.1891C68.7448 54.4956 69.2005 54.5092 69.467 54.2177L70.3163 53.2891C70.5696 53.0115 70.5447 52.5739 70.2618 52.3286Z" fill="#F5F5F5"/>
<path d="M62.2702 47.9384C61.9505 47.3163 62.184 46.5471 62.7919 46.2199C63.3995 45.8928 64.1516 46.1317 64.4713 46.7538C64.791 47.3759 64.5572 48.1452 63.9495 48.4723C63.3416 48.7995 62.5899 48.5605 62.2702 47.9384Z" fill="#F5F5F5"/>
<path d="M66.958 36.4144L72.9461 46.7969C73.4358 47.6457 74.4669 47.988 75.3505 47.5949C76.2822 47.1798 76.7325 46.0905 76.3747 45.1171L72.1875 33.7308C71.8703 32.8685 70.8866 32.4857 70.0899 32.9142L67.5509 34.2798C66.7935 34.6872 66.5232 35.6603 66.958 36.4144Z" fill="#E0E0E0"/>
<path d="M81.124 52.1844C81.36 53.7882 80.2807 55.2839 78.7134 55.5251C77.146 55.7666 75.6844 54.6621 75.4484 53.0586C75.2124 51.4547 76.2917 49.959 77.8591 49.7175C79.4264 49.4763 80.888 50.5805 81.124 52.1844Z" fill="#E0E0E0"/>
<path d="M188.413 150.254C188.413 149.65 188.386 95.937 188.343 13.9945L188.413 14.0659C146.409 14.0695 96.3707 14.0737 42.8063 14.0785H42.7931L42.8749 13.9948C42.8711 63.6353 42.8676 110.31 42.8648 150.254L42.7931 150.181C129.854 150.224 187.793 150.254 188.413 150.254C187.794 150.254 129.854 150.284 42.7931 150.327H42.721V150.254C42.7182 110.31 42.7147 63.6346 42.7109 13.9941V13.9101H42.7927H42.806C96.3701 13.9146 146.409 13.9188 188.413 13.9227H188.483V13.9941C188.441 95.937 188.414 149.65 188.413 150.254Z" fill="#263238"/>
<path d="M46.8406 19.6948C47.5055 19.6948 48.0445 19.1433 48.0445 18.4629C48.0445 17.7825 47.5055 17.2309 46.8406 17.2309C46.1757 17.2309 45.6367 17.7825 45.6367 18.4629C45.6367 19.1433 46.1757 19.6948 46.8406 19.6948Z" fill="white"/>
<path d="M50.9813 19.6948C51.6462 19.6948 52.1852 19.1433 52.1852 18.4629C52.1852 17.7825 51.6462 17.2309 50.9813 17.2309C50.3164 17.2309 49.7773 17.7825 49.7773 18.4629C49.7773 19.1433 50.3164 19.6948 50.9813 19.6948Z" fill="white"/>
<path d="M55.1238 19.6948C55.7887 19.6948 56.3277 19.1433 56.3277 18.4629C56.3277 17.7825 55.7887 17.2309 55.1238 17.2309C54.4589 17.2309 53.9199 17.7825 53.9199 18.4629C53.9199 19.1433 54.4589 19.6948 55.1238 19.6948Z" fill="white"/>
<path d="M132.652 44.0985C132.634 44.1475 131.962 43.9308 131.15 43.6149C130.338 43.2987 129.695 43.0031 129.713 42.9542C129.732 42.9055 130.404 43.1219 131.215 43.4381C132.027 43.754 132.67 44.0499 132.652 44.0985Z" fill="#455A64"/>
<path d="M128.624 50.5994C128.295 50.562 127.46 50.9938 126.754 51.8545C126.742 51.8678 126.73 51.8787 126.718 51.8922C126.218 52.4689 125.907 50.6982 125.874 50.0452C125.852 49.6215 125.426 49.3314 125.013 49.4547L122.817 50.3202L122.195 50.2974C121.874 50.3933 121.677 50.7105 121.737 51.036L122.519 54.5449L122.476 55.4845L126.694 56.3796L126.921 54.0355C127.003 53.7685 127.109 53.4542 127.247 53.0968C127.372 52.7758 127.552 52.4741 127.779 52.2133C128.017 51.9399 128.339 51.596 128.603 51.4089C128.627 51.3954 128.654 51.3761 128.676 51.3658C128.73 51.341 128.77 51.3055 128.805 51.2669C129.036 51.0431 128.945 50.6358 128.624 50.5994Z" fill="#FFBE9D"/>
<path d="M127.7 40.7121C127.7 40.7121 125.183 40.3917 121.399 37.3117C117.615 34.2318 115.567 29.8549 115.145 29.918C114.722 29.9811 112.786 29.2788 109.982 37.4702C107.178 45.6615 108.735 47.3507 109.436 47.2683C110.136 47.1859 114.777 45.3672 117.786 45.4265C120.794 45.4857 124.766 46.7042 124.766 46.7042L127.7 40.7121Z" fill="#FF725E"/>
<path d="M133.332 44.4866L132.642 46.2041L132.333 46.9737C131.908 48.0292 130.751 48.5602 129.699 48.1818L124.24 46.8072L126.656 39.3201L132.201 41.6903C133.266 42.1456 133.771 43.3947 133.332 44.4866Z" fill="#263238"/>
<path d="M131.183 47.0249L129.355 50.3425L128.52 50.0662L122.813 54.4257L121.396 51.2698C121.396 51.2698 124.717 49.9709 125.369 48.8062C126.02 47.6415 125.334 47.3421 125.334 47.3421L126.942 45.6223L131.183 47.0249Z" fill="#263238"/>
<path d="M110.28 37.5858C108.794 42.0197 108.362 45.885 109.314 46.2192C110.266 46.5531 112.242 43.2295 113.728 38.7955C115.213 34.3616 115.646 30.4963 114.693 30.1624C113.741 29.8281 111.765 33.1518 110.28 37.5858Z" fill="#263238"/>
<path d="M134.004 46.8075L132.529 46.4855L133.257 44.6752L134.394 45.2548L134.004 46.8075Z" fill="#455A64"/>
<path d="M132.305 45.1682C132.289 45.2178 131.548 45.0024 130.65 44.6871C129.752 44.3719 129.038 44.0763 129.055 44.027C129.071 43.9778 129.812 44.1932 130.71 44.5081C131.608 44.8233 132.322 45.1189 132.305 45.1682Z" fill="#455A64"/>
<path d="M131.85 46.299C131.845 46.3248 131.671 46.301 131.392 46.2414C131.252 46.2118 131.086 46.1728 130.903 46.1271C130.72 46.0788 130.528 46.0015 130.323 45.9294C129.505 45.6328 128.873 45.326 128.889 45.2809C128.908 45.2278 129.574 45.457 130.384 45.751C130.587 45.8225 130.777 45.9046 130.954 45.9609C131.132 46.015 131.291 46.0662 131.425 46.1123C131.691 46.2037 131.855 46.2736 131.85 46.299Z" fill="#455A64"/>
<path d="M114.019 36.271C114.019 36.271 111.751 35.118 110.851 38.1937C109.952 41.2698 112.251 41.5393 112.251 41.5393C113.039 39.9863 113.634 38.2359 114.019 36.271Z" fill="#FAFAFA"/>
<path d="M115.975 32.52C115.987 32.521 115.976 32.7251 115.943 33.0941C115.909 33.4628 115.861 33.9977 115.783 34.6562C115.722 34.9827 115.655 35.3391 115.583 35.7217C115.546 35.9133 115.508 36.1113 115.469 36.3151C115.45 36.4172 115.43 36.5206 115.409 36.6255C115.387 36.7299 115.354 36.8332 115.326 36.9392C115.21 37.3616 115.087 37.805 114.96 38.2642C114.928 38.3791 114.896 38.4947 114.864 38.6116C114.832 38.7288 114.783 38.8412 114.743 38.9574C114.659 39.1886 114.573 39.4231 114.487 39.6604C114.4 39.8977 114.313 40.1321 114.229 40.363C114.184 40.4776 114.149 40.5951 114.098 40.7046C114.047 40.8144 113.997 40.9236 113.948 41.0318C113.749 41.4636 113.556 41.8802 113.373 42.2776C113.326 42.3761 113.285 42.4759 113.235 42.57C113.183 42.6627 113.131 42.7545 113.08 42.8446C112.979 43.025 112.88 43.1998 112.785 43.3695C112.593 43.7063 112.414 44.0209 112.251 44.3084C111.888 44.8562 111.582 45.2899 111.371 45.591C111.159 45.8908 111.037 46.0534 111.026 46.046C111.015 46.0385 111.118 45.8624 111.312 45.5498C111.513 45.231 111.796 44.7834 112.143 44.2337C112.299 43.9446 112.47 43.6287 112.653 43.29C112.745 43.1206 112.84 42.9454 112.938 42.7654C112.987 42.6756 113.037 42.5841 113.087 42.4914C113.135 42.3977 113.176 42.2976 113.222 42.1993C113.4 41.8033 113.588 41.3879 113.782 40.9571C113.831 40.8495 113.88 40.741 113.93 40.6315C113.981 40.5227 114.015 40.4058 114.059 40.2918C114.143 40.0622 114.228 39.8294 114.314 39.5937C114.4 39.3583 114.486 39.1255 114.57 38.8963C114.61 38.781 114.659 38.6696 114.69 38.5533C114.723 38.4374 114.756 38.3228 114.788 38.2088C114.918 37.7538 115.043 37.3143 115.162 36.8957C115.191 36.7907 115.224 36.6886 115.248 36.5853C115.27 36.4813 115.291 36.3789 115.312 36.2778C115.353 36.0759 115.394 35.8794 115.433 35.6898C115.513 35.3111 115.587 34.9579 115.655 34.6346C115.746 33.988 115.819 33.4619 115.872 33.0867C115.926 32.7209 115.962 32.5191 115.975 32.52Z" fill="#263238"/>
<path d="M124.316 48.7447C124.081 48.829 123.95 49.0957 124.018 49.3494C124.149 49.835 124.363 50.5971 124.53 51.0615C124.583 51.2112 124.642 51.3635 124.745 51.4801C124.848 51.5966 125.006 51.671 125.151 51.6263C125.303 51.5789 125.402 51.4112 125.425 51.2434C125.448 51.0753 125.41 50.9059 125.37 50.742C125.261 50.289 125.066 49.6092 124.897 49.0554C124.819 48.7965 124.558 48.6574 124.316 48.7447Z" fill="#FFBE9D"/>
<path d="M123.611 49.5719C123.376 49.6563 123.245 49.9229 123.313 50.1766C123.444 50.6622 123.657 51.4244 123.825 51.8887C123.878 52.0384 123.937 52.191 124.04 52.3073C124.143 52.4238 124.301 52.4982 124.445 52.4535C124.598 52.4065 124.697 52.2384 124.72 52.0706C124.743 51.9025 124.705 51.7332 124.665 51.5689C124.556 51.1159 124.361 50.4361 124.192 49.8823C124.113 49.6237 123.853 49.4849 123.611 49.5719Z" fill="#FFBE9D"/>
<path d="M122.949 50.0813C122.736 50.1537 122.618 50.3843 122.681 50.6042C122.801 51.0251 122.996 51.6858 123.148 52.0886C123.197 52.2184 123.251 52.3507 123.344 52.4518C123.437 52.5529 123.58 52.618 123.711 52.5797C123.849 52.5391 123.938 52.3942 123.958 52.2487C123.979 52.1031 123.944 51.9563 123.908 51.814C123.808 51.4214 123.63 50.8322 123.475 50.3518C123.404 50.1276 123.167 50.0066 122.949 50.0813Z" fill="#FFBE9D"/>
<path d="M122.116 50.2091C121.903 50.2819 121.784 50.5137 121.847 50.7346C121.967 51.1574 122.163 51.8214 122.316 52.2261C122.366 52.3565 122.419 52.4895 122.513 52.5909C122.607 52.6927 122.751 52.7577 122.882 52.7191C123.021 52.6785 123.11 52.5327 123.131 52.3865C123.151 52.2403 123.116 52.0928 123.08 51.9498C122.979 51.5554 122.8 50.9632 122.645 50.4809C122.573 50.2558 122.336 50.1341 122.116 50.2091Z" fill="#FFBE9D"/>
<path d="M124.7 51.4958C124.655 51.5113 124.487 51.1262 124.325 50.6351C124.162 50.1441 124.068 49.7335 124.113 49.7178C124.158 49.702 124.326 50.0874 124.488 50.5785C124.65 51.0695 124.745 51.4804 124.7 51.4958Z" fill="#EB996E"/>
<path d="M123.945 52.1708C123.899 52.1849 123.721 51.7416 123.547 51.1803C123.373 50.6191 123.268 50.1512 123.313 50.1354C123.358 50.1196 123.536 50.563 123.711 51.1259C123.885 51.6884 123.99 52.1563 123.945 52.1708Z" fill="#EB996E"/>
<path d="M123.203 52.2142C123.161 52.2336 122.957 51.8575 122.792 51.3571C122.627 50.8567 122.567 50.431 122.612 50.42C122.66 50.4085 122.793 50.8087 122.956 51.3007C123.117 51.7927 123.248 52.1943 123.203 52.2142Z" fill="#EB996E"/>
<path d="M149.438 40.5044C148.238 38.4304 146.072 37.0847 143.801 36.4446C142.846 36.1751 142.198 36.2501 141.213 36.3638C140.229 36.4775 139.298 36.8635 138.611 37.5951C137.796 38.4639 137.071 39.4663 136.768 40.63C136.456 41.8256 136.144 43.0292 136.051 44.2631C135.959 45.4967 136.1 46.7757 136.654 47.875L139.607 48.8873C141.273 49.2071 142.963 49.5281 144.653 49.3919C146.343 49.2554 148.062 48.6046 149.154 47.2777C150.671 45.4336 150.637 42.5787 149.438 40.5044Z" fill="#263238"/>
<path d="M151.034 49.5983C151.062 48.8863 150.806 48.1422 150.267 47.6914C149.728 47.2406 148.894 47.1485 148.327 47.5626L147.764 48.0694C146.969 48.2784 146.37 49.0741 146.337 49.9139C146.305 50.7536 146.817 51.5783 147.557 51.9418C148.297 52.3053 149.223 52.2094 149.901 51.7354C150.579 51.2617 150.999 50.4381 151.034 49.5983Z" fill="#263238"/>
<path d="M150.12 51.5973C150.1 51.5831 150.34 51.4176 150.375 51.0051C150.409 50.6039 150.205 50.0394 149.889 49.5017C149.566 48.9604 149.15 48.5602 148.822 48.3151C148.496 48.0646 148.263 47.9551 148.274 47.931C148.279 47.9165 148.531 47.9912 148.883 48.2259C149.235 48.4542 149.681 48.8583 150.017 49.4212C150.186 49.7007 150.311 49.9889 150.394 50.261C150.478 50.5315 150.516 50.7978 150.481 51.0183C150.449 51.2395 150.353 51.4002 150.272 51.4891C150.189 51.5789 150.125 51.6047 150.12 51.5973Z" fill="#455A64"/>
<path d="M148.517 52.2848C148.468 52.2741 148.814 51.368 148.687 50.2143C148.577 49.0583 148.055 48.2459 148.101 48.2247C148.114 48.215 148.264 48.4011 148.432 48.7479C148.602 49.0931 148.775 49.6073 148.837 50.1982C148.897 50.7891 148.831 51.3287 148.736 51.7026C148.641 52.0774 148.533 52.2912 148.517 52.2848Z" fill="#455A64"/>
<path d="M138.608 55.3618C138.791 54.276 139.197 51.9489 139.196 51.9538C139.196 51.9538 136.765 51.2892 136.565 47.9394C136.465 46.2734 136.8 43.5911 137.143 41.4057C137.452 39.4383 139.491 37.012 141.869 37.3743L142.944 37.4135L146.742 39.6888C147.322 39.8102 147.714 40.365 147.645 40.9665L145.564 55.0321L139.677 66.8211L138.347 58.4578L138.608 55.3618Z" fill="#FFBE9D"/>
<path d="M138.238 43.8065C138.209 44.0293 138.369 44.238 138.596 44.2731C138.822 44.3082 139.029 44.1565 139.058 43.9337C139.087 43.7112 138.927 43.5022 138.701 43.4671C138.474 43.432 138.266 43.584 138.238 43.8065Z" fill="#263238"/>
<path d="M137.749 42.743C137.795 42.8032 138.131 42.5971 138.576 42.6422C139.021 42.6808 139.325 42.9474 139.379 42.8966C139.405 42.8743 139.362 42.7694 139.23 42.6496C139.1 42.5304 138.871 42.4042 138.594 42.3778C138.316 42.3521 138.073 42.4332 137.929 42.5269C137.782 42.6206 137.726 42.7159 137.749 42.743Z" fill="#263238"/>
<path d="M140.012 46.5963C140.017 46.5706 139.745 46.4946 139.302 46.3912C139.19 46.368 139.084 46.3342 139.073 46.2531C139.054 46.1665 139.113 46.0457 139.181 45.9159C139.315 45.6451 139.454 45.3611 139.601 45.0639C140.186 43.8497 140.623 42.8466 140.574 42.8231C140.526 42.7993 140.013 43.7643 139.427 44.9786C139.285 45.2784 139.15 45.564 139.021 45.8374C138.965 45.9652 138.877 46.1078 138.919 46.2878C138.941 46.3777 139.019 46.4492 139.09 46.4762C139.161 46.5062 139.224 46.5136 139.28 46.5229C139.728 46.5925 140.008 46.6221 140.012 46.5963Z" fill="#263238"/>
<path d="M139.196 51.9538C139.196 51.9538 141.351 52.3115 143.625 51.2029C143.625 51.2029 142.258 53.3757 139.061 52.7475L139.196 51.9538Z" fill="#EB996E"/>
<path d="M138.098 41.1368C138.167 41.2479 138.483 41.1709 138.852 41.2025C139.222 41.2209 139.527 41.3394 139.608 41.2382C139.645 41.189 139.605 41.0805 139.478 40.9691C139.353 40.8583 139.136 40.7562 138.882 40.7388C138.628 40.7221 138.399 40.7939 138.261 40.8873C138.121 40.9806 138.068 41.083 138.098 41.1368Z" fill="#263238"/>
<path d="M143.327 44.1395C143.305 44.3629 143.103 44.5284 142.874 44.5098C142.646 44.4911 142.478 44.295 142.5 44.0715C142.522 43.8481 142.724 43.6822 142.952 43.7009C143.181 43.7196 143.349 43.916 143.327 44.1395Z" fill="#263238"/>
<path d="M143.638 43.1216C143.58 43.1696 143.299 42.8904 142.856 42.8305C142.414 42.7642 142.058 42.9529 142.017 42.8904C141.997 42.8627 142.062 42.7706 142.217 42.6847C142.371 42.599 142.622 42.5295 142.898 42.5687C143.173 42.6084 143.392 42.7442 143.511 42.8692C143.633 42.9948 143.666 43.1007 143.638 43.1216Z" fill="#263238"/>
<path d="M143.571 41.5692C143.479 41.6613 143.188 41.5126 142.822 41.4569C142.457 41.3883 142.135 41.4327 142.077 41.3152C142.053 41.2585 142.116 41.1622 142.264 41.0833C142.411 41.0048 142.645 40.9562 142.896 40.9987C143.147 41.0418 143.353 41.1651 143.467 41.2881C143.583 41.4118 143.611 41.5238 143.571 41.5692Z" fill="#263238"/>
<path d="M146.961 45.5872L146.32 46.0885C144.278 43.3737 140.479 36.7808 140.688 37.1711C140.688 37.1711 142.429 36.7373 144.16 37.3247C145.892 37.912 149.129 39.3487 148.757 41.4862C148.385 43.6236 146.961 45.5872 146.961 45.5872Z" fill="#263238"/>
<path d="M148.285 47.6918C148.272 47.6892 148.303 47.5047 148.34 47.1704C148.379 46.8365 148.405 46.3487 148.366 45.7501C148.298 44.5551 147.869 42.9084 146.912 41.3554C145.953 39.8015 144.751 38.6487 143.855 37.8743C143.404 37.4863 143.027 37.1865 142.765 36.9814C142.504 36.776 142.359 36.6613 142.365 36.652C142.368 36.6478 142.409 36.6703 142.482 36.718C142.555 36.766 142.664 36.8362 142.8 36.9331C143.073 37.124 143.461 37.4109 143.922 37.7906C144.84 38.5473 146.067 39.6981 147.039 41.274C148.011 42.8498 148.431 44.531 148.472 45.7443C148.497 46.3522 148.455 46.8449 148.398 47.1791C148.377 47.3475 148.34 47.4747 148.323 47.562C148.303 47.648 148.29 47.693 148.285 47.6918Z" fill="#455A64"/>
<path d="M143.756 36.7351C143.759 36.7306 143.8 36.7521 143.877 36.7976C143.954 36.8423 144.065 36.9122 144.206 37.0052C144.489 37.1917 144.891 37.4721 145.366 37.8498C145.841 38.2272 146.389 38.7006 146.959 39.2695C147.523 39.8398 148.139 40.4893 148.629 41.2972C148.873 41.6997 149.063 42.1263 149.186 42.5575C149.307 42.9896 149.358 43.4233 149.361 43.8339C149.366 44.6579 149.204 45.3843 149.037 45.9749C148.866 46.5664 148.688 47.0304 148.563 47.3488C148.5 47.5082 148.448 47.6306 148.411 47.7127C148.374 47.7951 148.353 47.8373 148.348 47.8354C148.338 47.8312 148.398 47.6515 148.508 47.3276C148.617 47.0033 148.778 46.5352 148.934 45.9456C149.087 45.357 149.235 44.6386 149.223 43.8361C149.216 43.4362 149.164 43.0167 149.045 42.5997C148.924 42.1836 148.739 41.7708 148.501 41.378C148.024 40.5897 147.418 39.9435 146.862 39.3707C146.302 38.8001 145.765 38.3213 145.301 37.9352C144.837 37.5488 144.445 37.2558 144.174 37.0548C143.902 36.8539 143.75 36.7451 143.756 36.7351Z" fill="#455A64"/>
<path d="M146.997 45.6496C146.988 45.6551 146.902 45.5385 146.754 45.3231C146.592 45.0809 146.386 44.7721 146.139 44.4022C145.625 43.621 144.924 42.5362 144.157 41.3332C143.391 40.1296 142.704 39.0354 142.213 38.2391C141.982 37.8585 141.789 37.5407 141.638 37.2914C141.505 37.0657 141.436 36.9382 141.444 36.9321C141.453 36.9263 141.538 37.0425 141.687 37.258C141.848 37.5001 142.055 37.8089 142.302 38.1786C142.815 38.9597 143.517 40.0449 144.284 41.2488C145.05 42.4525 145.737 43.5469 146.229 44.3436C146.46 44.7238 146.652 45.042 146.803 45.2909C146.936 45.5163 147.005 45.6438 146.997 45.6496Z" fill="#455A64"/>
<path d="M146.35 46.4578C146.374 46.2121 146.706 45.6606 146.947 45.6461C147.589 45.6077 148.726 45.7729 148.581 47.4193C148.382 49.6701 146.215 49.0023 146.217 48.9372C146.218 48.8867 146.267 47.306 146.35 46.4578Z" fill="#FFBE9D"/>
<path d="M146.823 48.092C146.833 48.0855 146.859 48.1229 146.921 48.1593C146.981 48.1947 147.088 48.2253 147.207 48.1918C147.447 48.1261 147.676 47.7664 147.722 47.3617C147.746 47.1572 147.721 46.9585 147.664 46.7901C147.612 46.6191 147.518 46.4945 147.403 46.4626C147.289 46.4243 147.2 46.4884 147.167 46.5489C147.132 46.6091 147.142 46.6555 147.13 46.6581C147.123 46.6632 147.086 46.6162 147.112 46.5248C147.125 46.481 147.155 46.4301 147.211 46.3915C147.268 46.3525 147.347 46.3371 147.428 46.3538C147.596 46.3815 147.735 46.5554 147.797 46.7399C147.869 46.926 147.901 47.1501 147.875 47.3797C147.82 47.8318 147.556 48.2356 147.23 48.3003C147.072 48.3273 146.947 48.2678 146.885 48.2085C146.822 48.1467 146.815 48.0955 146.823 48.092Z" fill="#EB996E"/>
<path d="M151.515 129.791C151.471 130.146 150.617 140.049 150.617 140.049H146.183L145.406 129.833L151.515 129.791Z" fill="#FFBE9D"/>
<path d="M146.172 138.574C146.172 138.574 149.286 140.835 150.792 138.878L151.186 139.826L152.957 146.583C153.071 147.02 152.871 147.503 152.458 147.668C152.141 147.795 151.792 147.723 151.553 147.491C150.272 146.244 145.584 141.635 145.629 141.01L145.647 139.35C145.652 139.006 145.859 138.699 146.172 138.574Z" fill="#FF725E"/>
<path d="M152.306 147.714L145.628 140.433L145.629 140.795C145.596 141.188 145.764 141.343 145.946 141.594C146.486 142.34 147.982 144.008 151.528 147.491C151.734 147.694 152.027 147.778 152.306 147.714Z" fill="#263238"/>
<path d="M146.606 139.353C146.816 139.5 146.886 139.824 146.751 140.045C146.616 140.266 146.294 140.341 146.082 140.198C145.869 140.054 145.774 139.668 145.932 139.464C146.091 139.26 146.473 139.193 146.645 139.384" fill="white"/>
<path d="M150.382 143.985C150.429 144.008 150.616 143.559 151.112 143.316C151.601 143.058 152.063 143.177 152.074 143.123C152.081 143.103 151.975 143.037 151.779 143.009C151.585 142.981 151.302 143.01 151.03 143.148C150.759 143.287 150.565 143.5 150.471 143.675C150.373 143.851 150.361 143.978 150.382 143.985Z" fill="#263238"/>
<path d="M150.982 145.128C151.022 145.164 151.289 144.885 151.72 144.757C152.149 144.619 152.523 144.699 152.536 144.646C152.56 144.602 152.157 144.422 151.667 144.577C151.176 144.726 150.938 145.105 150.982 145.128Z" fill="#263238"/>
<path d="M149.267 142.521C149.306 142.562 149.715 142.13 150.369 141.87C151.02 141.6 151.606 141.626 151.608 141.569C151.621 141.523 151 141.407 150.301 141.695C149.6 141.976 149.226 142.498 149.267 142.521Z" fill="#263238"/>
<path d="M149.118 140.464C149.141 140.515 149.602 140.316 150.203 140.291C150.803 140.258 151.28 140.412 151.298 140.359C151.321 140.317 150.84 140.07 150.194 140.104C149.548 140.132 149.092 140.425 149.118 140.464Z" fill="#263238"/>
<path d="M150.545 140.273C150.556 140.271 150.554 140.154 150.498 139.953C150.443 139.753 150.33 139.464 150.099 139.167C149.982 139.028 149.852 138.845 149.603 138.778C149.478 138.744 149.313 138.799 149.236 138.928C149.159 139.055 149.153 139.199 149.175 139.333C149.281 139.865 149.824 140.295 150.424 140.26C151.025 140.213 151.495 139.767 151.645 139.261C151.674 139.132 151.682 138.979 151.593 138.849C151.504 138.718 151.327 138.693 151.213 138.736C150.975 138.82 150.848 138.993 150.724 139.127C150.484 139.415 150.353 139.693 150.283 139.888C150.212 140.084 150.199 140.2 150.21 140.203C150.243 140.219 150.342 139.75 150.821 139.216C150.943 139.091 151.082 138.936 151.254 138.885C151.338 138.86 151.418 138.881 151.462 138.946C151.506 139.008 151.508 139.117 151.481 139.219C151.353 139.633 150.922 140.04 150.413 140.072C149.907 140.107 149.431 139.728 149.342 139.301C149.321 139.198 149.329 139.088 149.372 139.017C149.414 138.946 149.492 138.914 149.574 138.931C149.745 138.966 149.885 139.122 150 139.252C150.458 139.803 150.51 140.288 150.545 140.273Z" fill="#263238"/>
<path d="M127.168 126.569L127.932 139.209L133.301 139.171L134.208 126.038L127.168 126.569Z" fill="#FFBE9D"/>
<path d="M127.834 137.685L127.831 138.05C127.831 138.05 121.768 140.513 121.699 141.688L133.719 141.675L133.551 137.582C131.765 138.431 129.895 138.529 127.834 137.685Z" fill="#FF725E"/>
<path d="M132.337 138.892C132.569 138.957 132.73 139.224 132.676 139.465C132.623 139.706 132.358 139.876 132.125 139.815C131.891 139.754 131.688 139.439 131.768 139.206C131.847 138.973 132.169 138.791 132.381 138.907" fill="white"/>
<path d="M133.72 141.675L133.68 140.691L122.174 141.064C122.174 141.064 121.639 141.303 121.7 141.688L133.72 141.675Z" fill="#263238"/>
<path d="M127.789 138.085C127.791 138.145 128.085 138.172 128.374 138.365C128.668 138.55 128.817 138.81 128.871 138.786C128.925 138.774 128.837 138.415 128.483 138.188C128.131 137.958 127.777 138.03 127.789 138.085Z" fill="#263238"/>
<path d="M126.53 138.62C126.517 138.678 126.771 138.78 126.97 139.034C127.177 139.281 127.228 139.556 127.286 139.554C127.341 139.563 127.382 139.211 127.128 138.9C126.877 138.588 126.531 138.562 126.53 138.62Z" fill="#263238"/>
<path d="M125.815 140.165C125.868 140.178 125.949 139.877 125.798 139.549C125.65 139.219 125.373 139.089 125.348 139.139C125.315 139.189 125.493 139.365 125.613 139.637C125.739 139.905 125.757 140.159 125.815 140.165Z" fill="#263238"/>
<path d="M134.208 87.4462C134.048 87.9195 127.681 109.991 127.681 109.991L126.586 136.179L134.511 136.647L137.348 110.499L144.587 94.1451L141.405 80.8413H134.93L134.208 87.4462Z" fill="#263238"/>
<path d="M139.848 80.8417C139.96 81.1569 144.022 96.1357 144.022 96.1357L144.586 118.464V136.936H151.806L155.171 96.1966C155.171 96.1966 155.764 88.8041 154.749 86.3012C153.734 83.7986 149.618 79.4397 149.618 79.4397L139.848 80.8417Z" fill="#263238"/>
<path d="M140.43 82.3734C140.441 82.3705 140.498 82.5567 140.593 82.8951C140.697 83.2602 140.835 83.7426 141.001 84.3261C141.364 85.5574 141.85 87.2102 142.387 89.0369C142.92 90.8807 143.357 92.5654 143.609 93.8003C143.739 94.4166 143.826 94.9195 143.876 95.2686C143.925 95.6176 143.947 95.8112 143.936 95.8131C143.925 95.8147 143.881 95.6247 143.813 95.2802C143.744 94.9356 143.64 94.4378 143.496 93.8267C143.215 92.6021 142.762 90.9267 142.23 89.0846C141.696 87.2434 141.208 85.5761 140.889 84.3586C140.728 83.7506 140.607 83.2557 140.531 82.9118C140.455 82.5676 140.419 82.3763 140.43 82.3734Z" fill="#455A64"/>
<path d="M142.922 82.3734C142.933 82.4011 142.669 82.4078 142.469 82.706C142.374 82.8487 142.319 83.0644 142.406 83.2708C142.486 83.4743 142.696 83.662 142.941 83.6749C143.187 83.6852 143.414 83.5181 143.511 83.3233C143.617 83.1259 143.581 82.906 143.499 82.7549C143.327 82.4394 143.065 82.4072 143.079 82.3808C143.08 82.3714 143.141 82.364 143.245 82.3995C143.346 82.4342 143.49 82.5228 143.599 82.6947C143.708 82.859 143.772 83.1375 143.646 83.3928C143.531 83.6398 143.26 83.8539 142.934 83.843C142.608 83.823 142.358 83.5844 142.265 83.3275C142.163 83.0615 142.252 82.7904 142.375 82.6371C142.499 82.4761 142.65 82.4017 142.755 82.3766C142.861 82.3508 142.921 82.364 142.922 82.3734Z" fill="#455A64"/>
<path d="M149.332 93.1285C149.335 93.1285 149.337 93.1665 149.34 93.2409C149.341 93.324 149.343 93.4331 149.346 93.571C149.348 93.8714 149.352 94.2971 149.356 94.84C149.363 95.9422 149.351 97.5367 149.32 99.507C149.263 103.448 149.091 108.889 148.865 114.897C148.639 120.906 148.449 126.346 148.362 130.285C148.317 132.254 148.287 133.848 148.275 134.95C148.266 135.492 148.258 135.918 148.253 136.218C148.249 136.356 148.246 136.465 148.244 136.548C148.24 136.622 148.238 136.66 148.235 136.66C148.232 136.66 148.229 136.622 148.227 136.548C148.225 136.465 148.223 136.356 148.22 136.218C148.218 135.918 148.215 135.492 148.211 134.949C148.204 133.847 148.216 132.253 148.246 130.283C148.303 126.342 148.476 120.9 148.701 114.89C148.927 108.883 149.117 103.443 149.204 99.5048C149.249 97.5354 149.279 95.9415 149.291 94.8396C149.301 94.2968 149.308 93.8714 149.313 93.571C149.317 93.4331 149.32 93.324 149.323 93.2409C149.326 93.1665 149.329 93.1285 149.332 93.1285Z" fill="#455A64"/>
<path d="M138.19 90.4389C138.193 90.4398 138.18 90.4788 138.154 90.5541C138.123 90.6366 138.083 90.7464 138.031 90.8858C137.916 91.1849 137.753 91.6106 137.545 92.1545C137.112 93.2622 136.492 94.8499 135.727 96.8077C134.973 98.7767 134.083 101.126 133.245 103.787C132.413 106.444 131.592 109.418 131.247 112.621C131.083 114.222 131.01 115.8 130.914 117.318C130.834 118.838 130.756 120.304 130.682 121.701C130.542 124.493 130.415 127.008 130.308 129.125C130.195 131.238 130.088 132.947 130.001 134.127C129.955 134.709 129.919 135.165 129.894 135.485C129.88 135.633 129.869 135.75 129.861 135.838C129.852 135.917 129.847 135.958 129.844 135.957C129.841 135.957 129.841 135.916 129.844 135.836C129.848 135.748 129.854 135.631 129.861 135.482C129.879 135.162 129.905 134.705 129.938 134.122C130.005 132.941 130.094 131.232 130.193 129.118C130.289 127.002 130.404 124.486 130.531 121.693C130.602 120.296 130.677 118.829 130.754 117.308C130.848 115.788 130.919 114.214 131.085 112.603C131.431 109.381 132.261 106.399 133.102 103.739C133.95 101.076 134.852 98.7284 135.62 96.7639C136.392 94.8007 137.042 93.2222 137.486 92.1297C137.707 91.591 137.88 91.1695 138.001 90.8729C138.059 90.7361 138.104 90.6285 138.139 90.5474C138.17 90.4746 138.187 90.4379 138.19 90.4389Z" fill="#455A64"/>
<path d="M149.081 54.4836C149.081 54.4836 153.378 55.3035 154.322 56.1088C155.245 56.8957 163.869 68.3953 164.048 70.7141C164.227 73.0328 163.18 73.8832 162.583 74.4322C161.987 74.9812 151.705 82.1241 151.705 82.1241L148.545 76.7548L157.429 71.3242L153.141 63.8181L149.081 54.4836Z" fill="#FF725E"/>
<path d="M160.3 69.2683C160.309 69.3214 159.449 69.3137 158.595 69.8724C157.73 70.4146 157.36 71.209 157.317 71.1774C157.3 71.17 157.365 70.9627 157.552 70.6706C157.738 70.3792 158.064 70.0153 158.507 69.7301C158.952 69.4467 159.415 69.3063 159.752 69.2628C160.091 69.2184 160.301 69.2496 160.3 69.2683Z" fill="#FF725E"/>
<path d="M138.672 55.0398L139.81 65.6146L145.622 53.6906L149.37 57.5862C149.37 57.5862 151.672 71.5136 151.704 71.6125C151.736 71.7113 150.128 79.5804 150.128 79.5804L139.478 81.6875L136.228 80.8417L135.714 68.4553L135.488 58.9692L138.672 55.0398Z" fill="white"/>
<path d="M137.292 55.4896L134.525 56.1474C134.156 56.235 133.813 56.4121 133.526 56.6642C131.164 58.7321 126.062 63.1065 126.062 63.1065L127.001 55.3447L122.1 54.8652C122.1 54.8652 120.626 64.6473 120.779 67.222C120.957 70.2098 123.575 70.9437 127.387 69.3372C131.61 67.5575 134.203 65.8963 134.203 65.8963L137.292 55.4896Z" fill="#FF725E"/>
<path d="M152.716 63.8465L152.212 73.1204L152.719 74.9242C152.719 74.9242 157.489 84.1376 158.264 90.2392L152.361 91.2155C152.361 91.2155 150.751 83.3445 149.618 79.4393C148.485 75.5341 145.146 73.8867 144.013 69.8598C142.88 65.8329 143.298 63.026 143.298 62.7819C143.298 62.5379 145.623 53.6906 145.623 53.6906L146.04 51.8407L148.128 53.8735L153.494 55.7041L152.716 63.8465Z" fill="#FF725E"/>
<g opacity="0.3">
<path d="M155.53 81.0908C155.53 81.0908 153.499 82.6786 152.472 83.2205C152.411 83.2527 152.328 83.2882 152.236 83.3236C151.798 83.492 151.306 83.2997 151.081 82.8795C150.956 82.6448 150.827 82.3952 150.742 82.2088C150.524 81.7313 150.289 81.1546 150.08 80.6552L150.742 80.4893L151.704 82.1241L154.48 80.1779L155.009 79.807L155.53 81.0908Z" fill="black"/>
</g>
<path d="M138.723 53.9958L137.433 55.3769L134.34 56.4875C134.34 56.4875 133.583 65.8316 133.994 67.8161C134.391 69.7281 135.145 72.0526 135.209 74.7993C135.272 77.546 132.205 92.0637 132.205 92.0637L135.912 93.5024C135.912 93.5024 137.803 76.6956 137.433 73.0335C137.062 69.3714 138.02 61.9815 138.02 61.9815L138.723 53.9958Z" fill="#FF725E"/>
<path d="M145.741 71.8121C145.737 71.816 145.69 71.7638 145.605 71.6601C145.521 71.5555 145.409 71.3903 145.289 71.1629C145.054 70.7067 144.842 69.9722 144.81 69.05C144.774 68.1278 144.876 67.0381 145.028 65.8367C145.19 64.636 145.439 63.3239 145.814 61.9776C146.499 59.4518 147.487 57.2719 148.338 55.7263L148.39 55.8184C147.902 55.8023 147.465 55.7881 147.077 55.7752L146.984 55.7723L147.039 55.6963C147.399 55.2001 147.689 54.8021 147.9 54.5107C147.995 54.3855 148.072 54.2834 148.134 54.2006C148.188 54.1311 148.218 54.0966 148.222 54.0992C148.226 54.1018 148.203 54.142 148.156 54.2164C148.099 54.303 148.029 54.4102 147.943 54.5416C147.74 54.8395 147.463 55.2468 147.118 55.7543L147.08 55.6754C147.468 55.6809 147.905 55.687 148.393 55.6937L148.493 55.695L148.445 55.7858C147.62 57.3382 146.653 59.5114 145.971 62.0223C145.599 63.3612 145.347 64.6643 145.178 65.8577C145.018 67.0513 144.905 68.1371 144.926 69.0455C144.943 69.9554 145.133 70.6764 145.346 71.1336C145.563 71.5909 145.757 71.8005 145.741 71.8121Z" fill="#263238"/>
<path d="M149.371 63.243C149.379 63.2872 148.703 63.4517 147.852 63.5393C147.001 63.6285 146.307 63.6056 146.307 63.5609C146.305 63.5132 146.992 63.4607 147.836 63.3725C148.679 63.2859 149.363 63.1964 149.371 63.243Z" fill="#263238"/>
<path d="M153.136 61.0943C153.148 61.0976 153.119 61.2644 153.07 61.5638C153.029 61.8659 152.975 62.3028 152.925 62.846C152.824 63.9318 152.721 65.4362 152.622 67.0987C152.524 68.747 152.436 70.2379 152.369 71.3584C152.334 71.9036 152.301 72.3444 152.274 72.6487C152.245 72.953 152.223 73.1207 152.212 73.1201C152.2 73.1191 152.201 72.9501 152.21 72.6448C152.221 72.3083 152.236 71.8739 152.253 71.3523C152.295 70.261 152.359 68.7531 152.458 67.0884C152.558 65.4246 152.679 63.9189 152.81 62.8328C152.875 62.2899 152.947 61.8523 153.007 61.5522C153.076 61.2531 153.126 61.0914 153.136 61.0943Z" fill="#263238"/>
<path d="M160.005 71.6205C159.989 71.6681 159.408 71.4769 158.668 71.4231C157.927 71.3629 157.325 71.4637 157.317 71.4138C157.305 71.3732 157.912 71.1942 158.68 71.2557C159.448 71.3123 160.023 71.5822 160.005 71.6205Z" fill="#263238"/>
<path d="M126.093 62.914C126.134 62.933 125.94 63.4707 125.659 64.115C125.378 64.7597 125.117 65.2668 125.076 65.2478C125.035 65.2288 125.229 64.6914 125.509 64.0468C125.79 63.4021 126.052 62.895 126.093 62.914Z" fill="#263238"/>
<path d="M133.807 59.8189C133.852 59.8179 133.924 61.6414 133.966 63.8912C134.008 66.1417 134.006 67.9665 133.96 67.9671C133.915 67.9681 133.844 66.1449 133.802 63.8945C133.759 61.6446 133.762 59.8199 133.807 59.8189Z" fill="#263238"/>
<path d="M137.475 67.4757C137.464 67.4761 137.451 67.3089 137.436 67.0059C137.424 66.6714 137.409 66.2402 137.39 65.7221C137.359 64.638 137.326 63.1394 137.301 61.4843C137.275 59.8286 137.262 58.3296 137.26 57.2452C137.262 56.7271 137.264 56.2953 137.266 55.9607C137.271 55.6574 137.279 55.4899 137.291 55.4899C137.302 55.4899 137.315 55.6577 137.33 55.961C137.342 56.2956 137.357 56.7271 137.376 57.2452C137.407 58.3293 137.439 59.8273 137.465 61.482C137.49 63.1361 137.504 64.6344 137.506 65.7189C137.504 66.2373 137.501 66.6691 137.5 67.004C137.495 67.3073 137.487 67.4754 137.475 67.4757Z" fill="#263238"/>
<path d="M160.771 75.7663C160.774 75.7705 160.716 75.8172 160.602 75.9028C160.476 75.9952 160.309 76.1186 160.098 76.2731C159.643 76.5996 159.002 77.0588 158.208 77.6287C156.58 78.7789 154.323 80.3735 151.751 82.1915L151.681 82.2411L151.637 82.166C151.179 81.3903 150.706 80.5869 150.221 79.7642C149.616 78.7342 149.028 77.734 148.477 76.7964L148.436 76.7262L148.504 76.6846C151.06 75.1365 153.281 73.7902 154.879 72.8222C155.665 72.3534 156.297 71.9767 156.747 71.7088C156.957 71.587 157.124 71.4898 157.25 71.4167C157.366 71.3517 157.427 71.3198 157.429 71.324C157.432 71.3282 157.375 71.3684 157.264 71.4415C157.141 71.5207 156.979 71.6254 156.774 71.7567C156.331 72.0346 155.707 72.4252 154.931 72.9111C153.341 73.8919 151.129 75.2556 148.586 76.8241L148.613 76.7123C149.166 77.6493 149.755 78.6482 150.362 79.6776C150.846 80.501 151.318 81.3047 151.774 82.0813L151.66 82.0559C154.246 80.2569 156.513 78.6788 158.149 77.5405C158.955 76.9876 159.605 76.542 160.066 76.2255C160.283 76.0802 160.456 75.965 160.586 75.878C160.705 75.8007 160.769 75.7624 160.771 75.7663Z" fill="#263238"/>
<g opacity="0.3">
<path d="M145.309 71.1166C145.156 69.741 145.381 68.3512 145.673 66.9991C146.486 63.2408 147.828 59.6028 149.646 56.2328C149.247 55.9568 148.68 56.0792 148.306 56.3899C147.932 56.7003 147.708 57.1579 147.505 57.6048C146.129 60.6355 145.224 63.9038 144.91 67.2297C144.836 68.0044 144.799 68.5026 144.862 69.1762C144.925 69.8498 144.925 70.5589 145.335 71.0905" fill="black"/>
</g>
<g opacity="0.3">
<path d="M133.797 60.4935C132.819 62.2345 132.949 64.3269 133.884 66.0921C133.884 64.1504 133.884 62.4677 133.771 60.5202" fill="black"/>
</g>
<path d="M141.407 47.5948C141.382 47.4818 141.328 47.3649 141.226 47.3146C141.163 47.2837 141.091 47.2824 141.021 47.2834C140.612 47.2895 140.204 47.3491 139.81 47.4605L139.787 47.5243C139.812 47.7033 139.838 47.8839 139.896 48.0549C139.954 48.2259 140.046 48.3892 140.185 48.5015C140.442 48.7108 140.839 48.7009 141.101 48.4973C141.363 48.2938 141.48 47.9229 141.407 47.5948Z" fill="#EB996E"/>
<path d="M140.193 48.5785C140.199 48.5501 140.401 48.6374 140.703 48.5479C140.85 48.5018 141.016 48.4065 141.127 48.2385C141.238 48.0733 141.296 47.8382 141.239 47.6151C141.213 47.5043 141.157 47.4058 141.082 47.3662C141.009 47.3253 140.904 47.3391 140.8 47.3607C140.606 47.398 140.417 47.4344 140.232 47.4702C139.907 47.5278 139.704 47.5519 139.699 47.5294C139.694 47.5069 139.889 47.4415 140.207 47.3546C140.39 47.3075 140.576 47.2596 140.769 47.21C140.873 47.1868 141.011 47.1498 141.156 47.2203C141.295 47.295 141.365 47.4389 141.398 47.5738C141.468 47.8527 141.391 48.1348 141.249 48.3289C141.106 48.5279 140.9 48.6274 140.731 48.6632C140.379 48.7308 140.181 48.5904 140.193 48.5785Z" fill="#263238"/>
<path d="M147.059 48.9021C146.975 48.6738 146.7 48.4807 146.468 48.5373L146.474 48.5383C146.337 48.5512 146.202 48.6368 146.127 48.7582C145.999 48.964 146.022 49.257 146.185 49.436C146.347 49.6151 146.634 49.6605 146.839 49.5365C147.044 49.4128 147.144 49.1301 147.059 48.9021Z" fill="#FAFAFA"/>
<path d="M148.681 77.0745L145.043 73.7731L141.969 74.0442C141.969 74.0442 142.075 74.5594 142.499 74.6409C142.923 74.7223 144.46 74.7494 144.46 74.7494L145.18 75.4816L143.347 75.2926L141.015 76.702C141.015 76.702 140.962 77.1357 141.571 77.0275C142.181 76.919 143.347 76.4309 143.347 76.4309L144.702 76.5123L143.223 76.7294L141.306 78.1123C141.306 78.1123 141.704 78.5735 142.313 78.3835C142.923 78.1938 143.665 77.8953 143.665 77.8953L145.334 77.7327L143.665 78.1668L142.419 79.7394C142.419 79.7394 142.807 80.0376 143.223 79.7394C143.638 79.4412 143.93 79.1698 143.93 79.1698L145.785 79.0883C145.785 79.0883 147.834 80.6069 148.545 80.7695C149.256 80.9321 150.743 80.4897 150.743 80.4897L148.681 77.0745Z" fill="#FFBE9D"/>
<path d="M220.844 92.6033H164.426V124.885H220.844V92.6033Z" fill="#FAFAFA"/>
<path d="M220.844 124.885C220.844 124.885 220.839 124.686 220.837 124.305C220.836 123.922 220.833 123.358 220.83 122.619C220.826 121.138 220.821 118.962 220.814 116.166C220.807 110.578 220.795 102.515 220.781 92.603L220.844 92.6671C205.794 92.6722 186.02 92.6793 164.43 92.6867H164.426L164.508 92.603C164.506 104.019 164.504 114.937 164.502 124.885L164.426 124.807C180.938 124.822 195.032 124.835 205.002 124.845C209.991 124.854 213.947 124.861 216.659 124.866C218.014 124.87 219.058 124.873 219.766 124.875C220.118 124.877 220.386 124.879 220.569 124.88C220.749 124.882 220.844 124.885 220.844 124.885C220.844 124.885 220.756 124.888 220.578 124.89C220.397 124.891 220.132 124.892 219.784 124.895C219.079 124.897 218.041 124.9 216.692 124.904C213.984 124.909 210.034 124.917 205.053 124.926C195.071 124.935 180.958 124.948 164.426 124.964H164.349V124.885C164.348 114.937 164.346 104.019 164.344 92.6036V92.5199H164.426H164.43C186.02 92.5273 205.794 92.5344 220.843 92.5395H220.906V92.6036C220.893 102.532 220.881 110.609 220.873 116.206C220.866 118.996 220.861 121.167 220.857 122.645C220.854 123.378 220.852 123.939 220.85 124.319C220.848 124.695 220.844 124.885 220.844 124.885Z" fill="#263238"/>
<path d="M179.296 100.297H171.32V108.459H179.296V100.297Z" fill="#455A64"/>
<path d="M190.251 101.444C190.251 101.491 188.389 101.528 186.093 101.528C183.796 101.528 181.936 101.49 181.936 101.444C181.936 101.398 183.797 101.361 186.093 101.361C188.389 101.36 190.251 101.398 190.251 101.444Z" fill="#FF725E"/>
<path d="M216.811 104.379C216.811 104.425 209.004 104.462 199.374 104.462C189.742 104.462 181.936 104.425 181.936 104.379C181.936 104.332 189.742 104.295 199.374 104.295C209.004 104.295 216.811 104.332 216.811 104.379Z" fill="#263238"/>
<path d="M205.078 107.67C205.078 107.717 199.948 107.754 193.621 107.754C187.291 107.754 182.162 107.716 182.162 107.67C182.162 107.624 187.291 107.587 193.621 107.587C199.948 107.587 205.078 107.624 205.078 107.67Z" fill="#263238"/>
<path d="M212.491 120.607H173.953C171.911 120.607 170.256 118.913 170.256 116.824C170.256 114.735 171.911 113.041 173.953 113.041H212.491C214.533 113.041 216.188 114.735 216.188 116.824C216.188 118.913 214.533 120.607 212.491 120.607Z" fill="#FF725E"/>
<path d="M186.138 117.354H185.193L185.012 117.801H184.529L185.437 115.717H185.903L186.813 117.801H186.319L186.138 117.354ZM185.99 116.988L185.667 116.19L185.344 116.988H185.99Z" fill="white"/>
<path d="M188.792 116.473C188.792 116.937 188.451 117.227 187.907 117.227H187.497V117.801H187.025V115.717H187.907C188.451 115.717 188.792 116.006 188.792 116.473ZM188.315 116.473C188.315 116.244 188.169 116.11 187.881 116.11H187.497V116.833H187.881C188.169 116.833 188.315 116.699 188.315 116.473Z" fill="white"/>
<path d="M190.893 116.473C190.893 116.937 190.553 117.227 190.009 117.227H189.598V117.801H189.127V115.717H190.009C190.553 115.717 190.893 116.006 190.893 116.473ZM190.416 116.473C190.416 116.244 190.27 116.11 189.983 116.11H189.598V116.833H189.983C190.271 116.833 190.416 116.699 190.416 116.473Z" fill="white"/>
<path d="M191.229 115.717H191.7V117.408H192.721V117.801H191.229V115.717Z" fill="white"/>
<path d="M193.754 117.063V117.801H193.283V117.057L192.494 115.717H192.995L193.539 116.643L194.083 115.717H194.545L193.754 117.063Z" fill="white"/>
<path d="M197.438 115.717V117.801H197.051L196.036 116.536V117.801H195.57V115.717H195.96L196.973 116.982V115.717H197.438Z" fill="white"/>
<path d="M197.793 116.759C197.793 116.139 198.264 115.681 198.908 115.681C199.548 115.681 200.022 116.136 200.022 116.759C200.022 117.381 199.548 117.837 198.908 117.837C198.264 117.837 197.793 117.378 197.793 116.759ZM199.544 116.759C199.544 116.363 199.271 116.092 198.908 116.092C198.544 116.092 198.27 116.363 198.27 116.759C198.27 117.154 198.544 117.426 198.908 117.426C199.271 117.426 199.544 117.154 199.544 116.759Z" fill="white"/>
<path d="M203.389 115.717L202.723 117.801H202.217L201.768 116.39L201.306 117.801H200.802L200.133 115.717H200.622L201.082 117.181L201.561 115.717H201.998L202.464 117.193L202.938 115.717H203.389Z" fill="white"/>
<path d="M58.8896 70.1747H17.1309V94.0688H58.8896V70.1747Z" fill="#FAFAFA"/>
<path d="M58.8897 94.0688C58.8897 94.0688 58.8853 93.9203 58.8831 93.6379C58.8816 93.3523 58.8794 92.9347 58.8762 92.3883C58.8724 91.2902 58.8671 89.6793 58.8605 87.6101C58.8526 83.4737 58.8413 77.5083 58.8271 70.1748L58.8897 70.2388C47.7496 70.244 33.1138 70.2511 17.1341 70.2585H17.131L17.2128 70.1748C17.2109 78.624 17.209 86.7053 17.2074 94.0688L17.131 93.9905C29.3491 94.006 39.7785 94.0192 47.1577 94.0285C50.85 94.0375 53.7786 94.0449 55.7881 94.0498C56.7909 94.054 57.5634 94.0572 58.0899 94.0594C58.3498 94.0614 58.5477 94.063 58.6849 94.0643C58.8193 94.0656 58.8897 94.0688 58.8897 94.0688C58.8897 94.0688 58.8252 94.072 58.694 94.0736C58.5587 94.0746 58.3636 94.0762 58.1075 94.0784C57.5848 94.0807 56.8173 94.0839 55.8211 94.0881C53.8157 94.0929 50.8931 94.1003 47.2081 94.1094C39.8162 94.1187 29.3693 94.1319 17.1306 94.1473H17.0542V94.0691C17.0526 86.7056 17.0507 78.6244 17.0488 70.1751V70.0914H17.131H17.1341C33.1138 70.0988 47.7496 70.1059 58.8897 70.111H58.9527V70.1751C58.9385 77.5251 58.9272 83.504 58.9193 87.6497C58.9124 89.7128 58.907 91.3189 58.9036 92.4137C58.9004 92.9547 58.8982 93.3687 58.8967 93.6515C58.8941 93.9293 58.8897 94.0688 58.8897 94.0688Z" fill="#263238"/>
<path d="M28.1378 75.87H22.2344V81.911H28.1378V75.87Z" fill="#455A64"/>
<path d="M36.2464 76.7187C36.2464 76.7651 34.8684 76.8025 33.1692 76.8025C31.4694 76.8025 30.0918 76.7648 30.0918 76.7187C30.0918 76.6727 31.4694 76.635 33.1692 76.635C34.8684 76.6347 36.2464 76.6724 36.2464 76.7187Z" fill="#FF725E"/>
<path d="M55.9058 78.8904C55.9058 78.9367 50.1266 78.9741 42.9994 78.9741C35.8697 78.9741 30.0918 78.9364 30.0918 78.8904C30.0918 78.844 35.8697 78.8066 42.9994 78.8066C50.1266 78.8066 55.9058 78.844 55.9058 78.8904Z" fill="#263238"/>
<path d="M47.2196 81.3269C47.2196 81.3733 43.4222 81.4109 38.739 81.4109C34.0543 81.4109 30.2578 81.3733 30.2578 81.3269C30.2578 81.2805 34.0543 81.2432 38.739 81.2432C43.4222 81.2432 47.2196 81.2805 47.2196 81.3269Z" fill="#263238"/>
<path d="M52.7085 90.9019H24.1833C22.6723 90.9019 21.4473 89.6484 21.4473 88.1022C21.4473 86.5559 22.6723 85.3024 24.1833 85.3024H52.7085C54.2195 85.3024 55.4445 86.5559 55.4445 88.1022C55.4445 89.6484 54.2195 90.9019 52.7085 90.9019Z" fill="#FF725E"/>
<path d="M33.202 88.4947H32.5013L32.3675 88.8254H32.0098L32.6822 87.2811H33.0271L33.702 88.8254H33.3358L33.202 88.4947ZM33.0922 88.2233L32.8531 87.6321L32.6136 88.2233H33.0922Z" fill="white"/>
<path d="M35.1681 87.8414C35.1681 88.1853 34.9157 88.3994 34.5126 88.3994H34.2087V88.8251H33.8594V87.2808H34.5126C34.9157 87.2811 35.1681 87.4952 35.1681 87.8414ZM34.8144 87.8414C34.8144 87.6717 34.7068 87.5722 34.4931 87.5722H34.2087V88.1083H34.4931C34.7068 88.1086 34.8144 88.0091 34.8144 87.8414Z" fill="white"/>
<path d="M36.7228 87.8414C36.7228 88.1853 36.4704 88.3994 36.0673 88.3994H35.7633V88.8251H35.4141V87.2808H36.0673C36.4707 87.2811 36.7228 87.4952 36.7228 87.8414ZM36.3691 87.8414C36.3691 87.6717 36.2615 87.5722 36.0478 87.5722H35.7633V88.1083H36.0478C36.2615 88.1086 36.3691 88.0091 36.3691 87.8414Z" fill="white"/>
<path d="M36.9688 87.2811H37.318V88.5344H38.0748V88.8254H36.9688V87.2811Z" fill="white"/>
<path d="M38.8396 88.2784V88.8254H38.4903V88.2739L37.9062 87.2811H38.2769L38.68 87.9673L39.0831 87.2811H39.4258L38.8396 88.2784Z" fill="white"/>
<path d="M41.5659 87.2811V88.8254H41.2789L40.5265 87.8878V88.8254H40.1816V87.2811H40.4705L41.2207 88.2188V87.2811H41.5659Z" fill="white"/>
<path d="M41.8262 88.0534C41.8262 87.5943 42.1755 87.2549 42.6519 87.2549C43.1261 87.2549 43.4775 87.5923 43.4775 88.0534C43.4775 88.5146 43.1261 88.8517 42.6519 88.8517C42.1755 88.8517 41.8262 88.512 41.8262 88.0534ZM43.1242 88.0534C43.1242 87.7598 42.9215 87.5592 42.6522 87.5592C42.3828 87.5592 42.1802 87.7598 42.1802 88.0534C42.1802 88.3468 42.3828 88.5474 42.6522 88.5474C42.9215 88.5474 43.1242 88.3468 43.1242 88.0534Z" fill="white"/>
<path d="M45.9708 87.2811L45.4771 88.8254H45.102L44.7701 87.7799L44.4274 88.8254H44.0545L43.5586 87.2811H43.9208L44.2616 88.3666L44.6171 87.2811H44.9406L45.2855 88.3753L45.637 87.2811H45.9708Z" fill="white"/>
<path d="M210.863 28.4323H165.049V54.6467H210.863V28.4323Z" fill="#FAFAFA"/>
<path d="M210.863 54.6466C210.863 54.6466 210.858 54.4843 210.856 54.1746C210.855 53.8622 210.852 53.4037 210.849 52.8042C210.846 51.6005 210.84 49.8331 210.834 47.5626C210.826 43.0247 210.814 36.4791 210.8 28.4323L210.863 28.4964C198.641 28.5015 182.584 28.5086 165.052 28.516H165.049L165.131 28.4323C165.129 37.702 165.127 46.5683 165.125 54.6466L165.049 54.5684C178.455 54.5838 189.898 54.597 197.994 54.6064C202.045 54.6154 205.258 54.6228 207.462 54.6276C208.562 54.6318 209.41 54.635 209.986 54.6373C210.271 54.6392 210.489 54.6408 210.639 54.6421C210.786 54.6434 210.863 54.6466 210.863 54.6466C210.863 54.6466 210.792 54.6499 210.648 54.6515C210.5 54.6524 210.285 54.654 210.004 54.6563C209.431 54.6585 208.588 54.6618 207.495 54.666C205.295 54.6708 202.088 54.6782 198.045 54.6872C189.936 54.6965 178.475 54.7097 165.049 54.7252H164.972V54.647C164.971 46.5686 164.969 37.7024 164.967 28.4326V28.3486H165.049H165.052C182.584 28.3563 198.641 28.3631 210.863 28.3682H210.925V28.4323C210.911 36.4958 210.9 43.0546 210.892 47.6019C210.885 49.8662 210.88 51.6288 210.876 52.8293C210.873 53.4237 210.871 53.878 210.869 54.1878C210.867 54.4934 210.863 54.6466 210.863 54.6466Z" fill="#263238"/>
<path d="M177.125 34.6804H170.648V41.3081H177.125V34.6804Z" fill="#455A64"/>
<path d="M186.02 35.6116C186.02 35.658 184.508 35.6953 182.644 35.6953C180.779 35.6953 179.268 35.6577 179.268 35.6116C179.268 35.5652 180.779 35.5279 182.644 35.5279C184.508 35.5279 186.02 35.5652 186.02 35.6116Z" fill="#FF725E"/>
<path d="M207.589 37.9944C207.589 38.0408 201.248 38.0781 193.429 38.0781C185.607 38.0781 179.268 38.0408 179.268 37.9944C179.268 37.9481 185.607 37.9107 193.429 37.9107C201.248 37.9104 207.589 37.9481 207.589 37.9944Z" fill="#263238"/>
<path d="M198.06 40.6673C198.06 40.7137 193.894 40.7511 188.756 40.7511C183.616 40.7511 179.451 40.7134 179.451 40.6673C179.451 40.621 183.616 40.5836 188.756 40.5836C193.894 40.5836 198.06 40.621 198.06 40.6673Z" fill="#263238"/>
<path d="M204.08 51.1723H172.785C171.127 51.1723 169.783 49.797 169.783 48.1004C169.783 46.4038 171.127 45.0285 172.785 45.0285H204.08C205.738 45.0285 207.082 46.4038 207.082 48.1004C207.082 49.797 205.738 51.1723 204.08 51.1723Z" fill="#FF725E"/>
<path d="M182.679 48.5314H181.912L181.765 48.8939H181.373L182.11 47.2018H182.488L183.228 48.8939H182.826L182.679 48.5314ZM182.559 48.2339L182.297 47.586L182.034 48.2339H182.559Z" fill="white"/>
<path d="M184.834 47.8156C184.834 48.1927 184.558 48.4271 184.116 48.4271H183.783V48.8936H183.4V47.2015H184.116C184.558 47.2019 184.834 47.4363 184.834 47.8156ZM184.447 47.8156C184.447 47.6295 184.329 47.5206 184.095 47.5206H183.783V48.108H184.095C184.329 48.1083 184.447 47.9995 184.447 47.8156Z" fill="white"/>
<path d="M186.541 47.8156C186.541 48.1927 186.265 48.4271 185.823 48.4271H185.49V48.8936H185.107V47.2015H185.823C186.265 47.2019 186.541 47.4363 186.541 47.8156ZM186.154 47.8156C186.154 47.6295 186.036 47.5206 185.802 47.5206H185.49V48.108H185.802C186.036 48.1083 186.154 47.9995 186.154 47.8156Z" fill="white"/>
<path d="M186.814 47.2018H187.197V48.5748H188.027V48.8939H186.814V47.2018Z" fill="white"/>
<path d="M188.865 48.2944V48.8939H188.482V48.2896L187.842 47.2018H188.248L188.69 47.9537L189.132 47.2018H189.507L188.865 48.2944Z" fill="white"/>
<path d="M191.854 47.2018V48.8939H191.54L190.716 47.8668V48.8939H190.338V47.2018H190.654L191.476 48.229V47.2018H191.854Z" fill="white"/>
<path d="M192.145 48.0476C192.145 47.5449 192.527 47.1724 193.049 47.1724C193.569 47.1724 193.954 47.542 193.954 48.0476C193.954 48.5528 193.569 48.9224 193.049 48.9224C192.527 48.9224 192.145 48.5505 192.145 48.0476ZM193.567 48.0476C193.567 47.7262 193.344 47.506 193.049 47.506C192.754 47.506 192.532 47.7259 192.532 48.0476C192.532 48.3692 192.754 48.5892 193.049 48.5892C193.344 48.5892 193.567 48.3692 193.567 48.0476Z" fill="white"/>
<path d="M196.686 47.2018L196.146 48.8939H195.734L195.371 47.748L194.995 48.8939H194.586L194.043 47.2018H194.44L194.813 48.391L195.203 47.2018H195.557L195.935 48.401L196.32 47.2018H196.686Z" fill="white"/>
</svg>
