<svg width="171" height="161" viewBox="0 0 171 161" fill="none" xmlns="http://www.w3.org/2000/svg">
<path d="M170.883 108.328H105.338V71.9132H170.883V108.328ZM105.738 107.944H170.483V72.2971H105.738V107.944Z" fill="#E0E0E0"/>
<path d="M157.363 91.329H114.109V92.5468H157.363V91.329Z" fill="#F0F0F0"/>
<path d="M160.342 95.8679H114.109V97.1967H160.342V95.8679Z" fill="#F0F0F0"/>
<path d="M160.342 100.46H114.109V101.789H160.342V100.46Z" fill="#F0F0F0"/>
<path d="M129.226 84.7372H114.109V87.8966H129.226V84.7372Z" fill="#F0F0F0"/>
<path d="M170.682 72.1048H105.537V77.9019H170.682V72.1048Z" fill="#E0E0E0"/>
<path d="M165.67 77.0357C165.587 76.9593 166.426 75.9876 167.544 74.8653C168.663 73.7427 169.637 72.8949 169.72 72.9713C169.803 73.0477 168.964 74.0195 167.845 75.1417C166.727 76.264 165.753 77.1121 165.67 77.0357Z" fill="white"/>
<path d="M169.721 77.0358C169.637 77.1122 168.663 76.2641 167.545 75.1418C166.426 74.0192 165.587 73.0474 165.67 72.9714C165.753 72.8954 166.727 73.7427 167.845 74.8654C168.964 75.9876 169.804 76.9594 169.721 77.0358Z" fill="white"/>
<path d="M90.218 0H25.0723V36.0307H90.218V0Z" fill="#E6E6E6"/>
<path d="M76.8963 19.2242H33.6426V20.442H76.8963V19.2242Z" fill="#F0F0F0"/>
<path d="M79.8755 23.7631H33.6426V25.0915H79.8755V23.7631Z" fill="#F0F0F0"/>
<path d="M79.8755 28.3546H33.6426V29.683H79.8755V28.3546Z" fill="#F0F0F0"/>
<path d="M48.7594 12.6323H33.6426V15.7918H48.7594V12.6323Z" fill="#F0F0F0"/>
<path d="M90.218 0H25.0723V5.7967H90.218V0Z" fill="#E0E0E0"/>
<path d="M84.9822 4.9033C84.899 4.82689 85.7386 3.85514 86.8566 2.73289C87.9755 1.61026 88.9495 0.76252 89.0327 0.838539C89.1159 0.914943 88.2763 1.88631 87.1575 3.00894C86.0399 4.1312 85.0654 4.97932 84.9822 4.9033Z" fill="white"/>
<path d="M89.033 4.90357C88.9498 4.97997 87.9758 4.13185 86.8574 3.0096C85.7382 1.88696 84.8994 0.915214 84.9822 0.839194C85.0654 0.76279 86.0394 1.61091 87.1578 2.73355C88.277 3.85541 89.1162 4.82716 89.033 4.90357Z" fill="white"/>
<path d="M65.5453 66.9343H0V30.5197H65.5453V66.9343ZM0.400001 66.5504H65.1453V30.9036H0.400001V66.5504Z" fill="#E0E0E0"/>
<path d="M52.0256 49.9354H8.77148V51.1533H52.0256V49.9354Z" fill="#F0F0F0"/>
<path d="M55.0048 54.4747H8.77148V55.8032H55.0048V54.4747Z" fill="#F0F0F0"/>
<path d="M55.0048 59.0662H8.77148V60.3946H55.0048V59.0662Z" fill="#F0F0F0"/>
<path d="M23.8883 43.3436H8.77148V46.5034H23.8883V43.3436Z" fill="#F0F0F0"/>
<path d="M65.3446 30.7116H0.199219V36.5087H65.3446V30.7116Z" fill="#E0E0E0"/>
<path d="M141.189 75.2788H64.2676V141.376H141.189V75.2788Z" fill="#E6E6E6"/>
<path d="M68.1362 54.457H7.88086V114.547H68.1362V54.457Z" fill="#F0F0F0"/>
<path d="M68.1362 54.457H7.88086V61.0043H68.1362V54.457Z" fill="#E0E0E0"/>
<path d="M12.8566 57.6637C12.8566 58.3648 12.2902 58.933 11.5914 58.933C10.8926 58.933 10.3262 58.3648 10.3262 57.6637C10.3262 56.9626 10.8926 56.3944 11.5914 56.3944C12.2902 56.3944 12.8566 56.9626 12.8566 57.6637Z" fill="white"/>
<path d="M17.9874 57.6637C17.9874 58.3648 17.421 58.933 16.7222 58.933C16.0234 58.933 15.457 58.3648 15.457 57.6637C15.457 56.9626 16.0234 56.3944 16.7222 56.3944C17.421 56.3944 17.9874 56.9626 17.9874 57.6637Z" fill="white"/>
<path d="M23.1202 57.6637C23.1202 58.3648 22.5538 58.933 21.855 58.933C21.1562 58.933 20.5898 58.3648 20.5898 57.6637C20.5898 56.9626 21.1562 56.3944 21.855 56.3944C22.5538 56.3944 23.1202 56.9626 23.1202 57.6637Z" fill="white"/>
<path d="M162.281 13.1426H85.3594V86.7286H162.281V13.1426Z" fill="#F0F0F0"/>
<path d="M162.281 13.1426H85.3594V21.762H162.281V13.1426Z" fill="#E0E0E0"/>
<path d="M91.9109 17.3636C91.9109 18.2866 91.1653 19.0349 90.2453 19.0349C89.3257 19.0349 88.5801 18.2866 88.5801 17.3636C88.5801 16.4406 89.3257 15.6927 90.2453 15.6927C91.1649 15.6927 91.9109 16.441 91.9109 17.3636Z" fill="white"/>
<path d="M98.1781 16.2336C98.8577 16.8863 98.8817 17.9214 98.2313 18.5453C97.5809 19.1696 96.5025 19.1466 95.8229 18.4943C95.1433 17.8416 95.1189 16.8065 95.7693 16.1822C96.4193 15.5579 97.4977 15.5809 98.1781 16.2336Z" fill="white"/>
<path d="M105.421 17.3636C105.421 18.2866 104.675 19.0349 103.755 19.0349C102.835 19.0349 102.09 18.2866 102.09 17.3636C102.09 16.4406 102.835 15.6927 103.755 15.6927C104.675 15.6927 105.421 16.441 105.421 17.3636Z" fill="white"/>
<path d="M145.664 160.9C145.664 160.955 117.888 161 83.6326 161C49.3658 161 21.5957 160.955 21.5957 160.9C21.5957 160.844 49.3654 160.8 83.6326 160.8C117.888 160.8 145.664 160.845 145.664 160.9Z" fill="#263238"/>
<path d="M118.599 113.898C112.42 109.755 111.018 102.063 111.262 95.1492C111.303 93.995 111.171 92.7783 111.743 91.7655C112.315 90.7531 113.65 90.0612 114.726 90.5473C115.619 90.9508 116.008 91.9475 116.508 92.7722C117.172 93.8691 118.162 94.7771 119.328 95.3573C120.093 95.7385 121.04 95.9719 121.796 95.5719C122.834 95.0225 122.956 93.6472 122.948 92.4992C122.934 90.3599 122.921 88.2202 122.907 86.0813C122.899 84.9337 122.896 83.7615 123.268 82.6723C123.64 81.5831 124.461 80.571 125.599 80.265C126.737 79.9594 128.143 80.5887 128.384 81.7125C128.484 82.1801 128.384 82.6654 128.418 83.1419C128.451 83.6183 128.682 84.1455 129.154 84.2783C129.631 84.4131 130.11 84.0875 130.467 83.7516C131.701 82.5928 132.539 81.0997 133.322 79.615C134.104 78.1303 134.864 76.6103 135.984 75.346C137.104 74.0817 138.653 73.0804 140.366 72.9871C142.078 72.8942 143.903 73.9085 144.336 75.5226C144.77 77.1409 143.786 78.7826 142.716 80.0926C141.128 82.0361 139.25 83.755 137.158 85.1779C136.781 85.4348 136.372 85.7123 136.228 86.1374C135.969 86.9026 136.724 87.6627 137.511 87.9142C138.402 88.1991 139.37 88.1104 140.302 88.2156C141.234 88.3208 142.245 88.7159 142.597 89.5617C143.087 90.735 142.065 91.9648 141.059 92.7699C139.045 94.3828 136.745 95.6571 134.291 96.5198C133.412 96.8289 132.486 97.1 131.776 97.6931C131.067 98.2867 130.639 99.318 131.068 100.127C131.496 100.936 132.596 101.195 133.518 101.03C134.439 100.866 135.264 100.386 136.142 100.068C137.786 99.4727 139.908 99.5813 140.961 100.945C141.652 101.841 141.714 103.089 141.364 104.157C141.014 105.225 140.304 106.145 139.551 106.994C136.917 109.96 133.545 112.348 129.732 113.617C125.92 114.885 122.388 115.228 118.599 113.898Z" fill="#FF725E"/>
<path d="M142.608 73.9481C142.61 73.9508 142.571 73.988 142.492 74.0571C142.403 74.1328 142.286 74.2333 142.136 74.3612C141.823 74.6269 141.361 75.0189 140.781 75.5391C139.619 76.5761 137.986 78.1365 136.213 80.2712C135.323 81.3351 134.399 82.5395 133.43 83.8498C132.464 85.1625 131.441 86.5712 130.424 88.0908C129.406 89.6097 128.387 91.2376 127.473 92.9964C127.012 93.8737 126.601 94.7921 126.182 95.7281C125.764 96.6642 125.341 97.6137 124.913 98.5747C123.214 102.424 121.719 106.145 120.651 109.621C119.577 113.093 118.938 116.312 118.658 119.039C118.372 121.767 118.43 123.994 118.546 125.522C118.609 126.286 118.67 126.879 118.726 127.279C118.749 127.471 118.767 127.622 118.781 127.736C118.792 127.839 118.796 127.892 118.793 127.893C118.789 127.893 118.778 127.842 118.759 127.739C118.74 127.627 118.714 127.476 118.682 127.286C118.612 126.887 118.537 126.294 118.461 125.529C118.319 124 118.236 121.765 118.504 119.025C118.764 116.286 119.39 113.051 120.458 109.565C121.518 106.075 123.01 102.343 124.711 98.491C125.14 97.5296 125.564 96.5793 125.982 95.6433C126.401 94.7096 126.816 93.7835 127.281 92.902C128.203 91.1343 129.23 89.5026 130.255 87.9833C131.279 86.4625 132.31 85.0554 133.282 83.7466C134.259 82.4389 135.193 81.2368 136.093 80.1759C137.886 78.0466 139.542 76.497 140.724 75.4781C141.314 74.9663 141.784 74.5839 142.108 74.3286C142.263 74.2076 142.385 74.1124 142.477 74.0406C142.561 73.9765 142.605 73.945 142.608 73.9481Z" fill="#263238"/>
<path d="M127.344 92.8936C127.329 92.8959 127.288 92.7216 127.227 92.404C127.164 92.0869 127.089 91.6254 127.005 91.0533C126.836 89.9104 126.659 88.3247 126.47 86.5755C126.281 84.8251 126.081 83.2463 125.894 82.1091C125.803 81.5405 125.724 81.0805 125.665 80.7634C125.608 80.4459 125.583 80.2685 125.598 80.2651C125.613 80.262 125.666 80.4332 125.748 80.7461C125.833 81.0587 125.936 81.5155 126.047 82.083C126.274 83.2179 126.5 84.8005 126.688 86.5524C126.87 88.279 127.034 89.8409 127.16 91.0345C127.22 91.5732 127.271 92.0274 127.312 92.3918C127.347 92.7127 127.36 92.8916 127.344 92.8936Z" fill="#263238"/>
<path d="M142.721 90.1357C142.721 90.1502 142.503 90.1748 142.108 90.2063C141.713 90.2401 141.142 90.2858 140.439 90.3641C139.03 90.51 137.093 90.7768 134.968 91.1612C132.843 91.5493 130.936 91.9789 129.566 92.3279C128.879 92.4976 128.328 92.6497 127.946 92.7526C127.564 92.8566 127.351 92.9077 127.346 92.8939C127.341 92.8797 127.546 92.8021 127.92 92.6731C128.295 92.546 128.842 92.3717 129.525 92.1824C130.888 91.795 132.797 91.3408 134.927 90.9511C137.058 90.5661 139.007 90.3215 140.423 90.214C141.131 90.1548 141.706 90.1314 142.103 90.1238C142.501 90.1172 142.72 90.1207 142.721 90.1357Z" fill="#263238"/>
<path d="M120.647 109.293C120.64 109.296 120.604 109.234 120.542 109.113C120.47 108.968 120.384 108.792 120.279 108.578C120.053 108.114 119.744 107.434 119.373 106.588C118.632 104.897 117.683 102.531 116.674 99.9065C115.664 97.2807 114.74 94.9091 114.036 93.2064C113.691 92.3786 113.407 91.6975 113.196 91.1915C113.106 90.9719 113.032 90.7906 112.97 90.6417C112.921 90.5153 112.898 90.4474 112.906 90.4439C112.913 90.4412 112.948 90.5031 113.011 90.6244C113.082 90.7687 113.169 90.9446 113.274 91.1581C113.5 91.6226 113.809 92.303 114.18 93.1488C114.922 94.8393 115.87 97.2055 116.879 99.8312C117.889 102.456 118.813 104.827 119.517 106.531C119.862 107.358 120.146 108.039 120.357 108.545C120.447 108.765 120.521 108.946 120.582 109.095C120.632 109.222 120.654 109.29 120.647 109.293Z" fill="#263238"/>
<path d="M141.079 102.972C141.081 102.98 141.011 103.007 140.877 103.052C140.717 103.104 140.521 103.167 140.283 103.243C139.735 103.414 138.995 103.644 138.095 103.924C136.248 104.499 133.706 105.321 130.899 106.233C128.09 107.146 125.538 107.947 123.678 108.485C122.748 108.755 121.993 108.966 121.469 109.101C121.226 109.162 121.026 109.212 120.864 109.253C120.724 109.286 120.65 109.3 120.648 109.293C120.646 109.286 120.716 109.258 120.851 109.212C121.01 109.161 121.207 109.098 121.444 109.022C121.992 108.851 122.732 108.621 123.632 108.341C125.479 107.766 128.022 106.943 130.83 106.031C133.637 105.118 136.189 104.318 138.049 103.779C138.979 103.51 139.734 103.299 140.259 103.163C140.501 103.102 140.701 103.052 140.864 103.011C141.003 102.979 141.077 102.965 141.079 102.972Z" fill="#263238"/>
<path d="M132.743 9.8384L130.681 10.546L129.8 7.96248C128.175 3.19704 122.987 0.647302 118.241 2.27674C113.493 3.90694 110.955 9.10969 112.581 13.8751L113.462 16.4587L111.394 17.1686C109.786 17.7207 108.915 19.4998 109.466 21.1151L115.201 37.9281C115.76 39.5679 117.535 40.4421 119.143 39.89L140.493 32.5595C142.127 31.9986 142.998 30.2152 142.439 28.5758L136.704 11.7627C136.153 10.1475 134.376 9.27709 132.743 9.8384ZM116.47 12.539C115.579 9.92748 116.97 7.07558 119.573 6.18177C122.174 5.28873 125.015 6.68742 125.906 9.29897L126.787 11.8829L117.351 15.1225L116.47 12.539ZM128.474 27.4562L129.938 31.7498C130 31.9314 129.892 32.1168 129.709 32.1798L127.66 32.8832C127.503 32.9369 127.303 32.8574 127.241 32.6758L125.777 28.3822C124.19 28.3177 122.717 27.3084 122.166 25.6931C121.458 23.6164 122.565 21.3458 124.642 20.6328C126.717 19.9202 128.979 21.0337 129.687 23.1108C130.238 24.726 129.69 26.4295 128.474 27.4562Z" fill="#FF725E"/>
<path d="M130.591 10.4995C130.61 10.5514 126.771 11.9313 122.016 13.5807C117.259 15.2308 113.389 16.5262 113.369 16.4744C113.35 16.4226 117.188 15.0431 121.945 13.3929C126.7 11.7435 130.571 10.4477 130.591 10.4995Z" fill="#263238"/>
<path d="M135.126 11.2071C135.13 11.206 135.145 11.2401 135.172 11.3077C135.202 11.386 135.241 11.4851 135.288 11.6087C135.391 11.8886 135.534 12.2779 135.716 12.7724C136.083 13.8002 136.606 15.2627 137.25 17.0641C137.892 18.8828 138.655 21.0413 139.501 23.4375C139.919 24.6404 140.376 25.8901 140.814 27.2101C141.016 27.8735 141.184 28.5826 141.114 29.3171C141.078 29.6815 140.975 30.0481 140.79 30.3799C140.602 30.7093 140.339 30.9991 140.034 31.2353C139.419 31.7071 138.699 31.9828 138.004 32.2301C137.306 32.4708 136.618 32.7081 135.942 32.9411C134.59 33.4053 133.286 33.8533 132.043 34.2807C129.56 35.1292 127.322 35.894 125.438 36.5382C123.566 37.1702 122.046 37.6831 120.978 38.0436C120.462 38.2133 120.055 38.3473 119.763 38.4433C119.632 38.484 119.528 38.5167 119.445 38.5424C119.372 38.5639 119.335 38.5731 119.334 38.5696C119.333 38.5666 119.368 38.5508 119.438 38.5232C119.519 38.4925 119.621 38.4537 119.748 38.4053C120.038 38.3009 120.44 38.155 120.951 37.9703C122.014 37.5952 123.526 37.0619 125.388 36.405C127.268 35.7492 129.501 34.971 131.979 34.1075C133.22 33.6767 134.523 33.2252 135.873 32.7568C136.548 32.523 137.236 32.285 137.933 32.0435C138.623 31.7981 139.323 31.5259 139.903 31.0798C140.191 30.8571 140.433 30.5883 140.608 30.285C140.778 29.9794 140.874 29.6412 140.908 29.2983C140.976 28.6084 140.817 27.9192 140.618 27.2657C140.188 25.9588 139.731 24.6979 139.32 23.4966C138.49 21.0958 137.742 18.932 137.111 17.1094C136.494 15.2995 135.992 13.8302 135.639 12.7978C135.473 12.2983 135.343 11.9047 135.249 11.6222C135.209 11.4958 135.178 11.3949 135.153 11.3146C135.131 11.2444 135.122 11.2083 135.126 11.2071Z" fill="#263238"/>
<path d="M123.863 5.9126C123.852 5.9295 123.65 5.80932 123.257 5.65728C122.863 5.51292 122.267 5.34437 121.511 5.32134C120.76 5.29485 119.847 5.40619 118.935 5.78859C118.026 6.16639 117.131 6.83713 116.49 7.74975C115.836 8.65891 115.55 9.71091 115.55 10.665C115.541 11.6233 115.753 12.4768 115.957 13.1771C116.168 13.8782 116.383 14.4345 116.525 14.8207C116.669 15.207 116.747 15.4216 116.733 15.427C116.72 15.4316 116.617 15.227 116.45 14.8492C116.285 14.4706 116.047 13.9208 115.816 13.2178C115.592 12.5156 115.36 11.6513 115.358 10.6638C115.347 9.68173 115.64 8.57829 116.317 7.63725C116.982 6.69123 117.913 6.00129 118.859 5.61927C119.807 5.23341 120.749 5.13436 121.518 5.17966C122.293 5.22151 122.898 5.41617 123.289 5.58549C123.483 5.67648 123.631 5.75096 123.724 5.81355C123.819 5.87306 123.867 5.90646 123.863 5.9126Z" fill="#263238"/>
<path d="M124.045 20.9361C124.043 20.9312 124.112 20.8981 124.248 20.8394C124.383 20.7791 124.589 20.7019 124.865 20.6263C125.139 20.5438 125.49 20.4839 125.905 20.4605C126.318 20.4409 126.805 20.4819 127.308 20.6612C128.33 21.006 129.272 22.0089 129.734 23.3377C129.957 24.0088 129.976 24.7882 129.753 25.5419C129.514 26.2925 129.077 27.0124 128.445 27.6174L128.471 27.5157C129.002 28.9152 129.581 30.4382 130.183 32.0228L130.219 32.1191L130.118 32.1518C129.828 32.2451 129.517 32.3453 129.204 32.4459C128.53 32.6624 127.865 32.8759 127.213 33.0855L127.115 33.117L127.083 33.0221C126.535 31.4303 125.934 29.9295 125.498 28.4951L125.585 28.5604C124.766 28.5078 124.03 28.178 123.444 27.748C122.855 27.3137 122.405 26.7747 122.101 26.2076C121.802 25.6386 121.651 25.0347 121.677 24.4784C121.691 23.9224 121.825 23.4191 122.012 22.9948C122.385 22.139 122.941 21.6007 123.353 21.307C123.773 21.0126 124.045 20.9361 124.045 20.9361C124.055 20.9534 123.791 21.0498 123.391 21.3535C122.998 21.6568 122.468 22.1959 122.119 23.0367C121.771 23.8572 121.619 25.0366 122.243 26.1374C122.541 26.6814 122.982 27.1986 123.551 27.6128C124.118 28.0229 124.825 28.332 125.595 28.3773L125.662 28.3811L125.681 28.4425C126.122 29.8669 126.726 31.3616 127.279 32.9599L127.147 32.897C127.799 32.6874 128.463 32.4731 129.137 32.2562C129.451 32.1556 129.761 32.0554 130.052 31.9621L129.987 32.0907C129.389 30.5047 128.814 28.98 128.286 27.5798L128.265 27.5234L128.312 27.4781C128.911 26.9102 129.347 26.2061 129.576 25.492C129.795 24.7713 129.782 24.0307 129.575 23.3841C129.137 22.0945 128.239 21.1139 127.264 20.7695C126.783 20.5891 126.311 20.5399 125.907 20.5503C125.501 20.5641 125.154 20.6136 124.881 20.6858C124.332 20.8217 124.052 20.953 124.045 20.9361Z" fill="#263238"/>
<path d="M111.684 131.792L71.7313 131.615C66.926 131.594 63.048 127.838 63.0684 123.226L63.492 27.0864C63.5124 22.4715 67.4272 18.7469 72.2349 18.7684L112.187 18.9454C116.993 18.9669 120.87 22.7222 120.85 27.3341L120.426 123.474C120.407 128.089 116.492 131.814 111.684 131.792Z" fill="#455A64"/>
<path d="M112.13 22.2634L104.384 22.2292C103.346 22.2246 102.5 23.0662 102.495 24.1082L102.489 25.457C102.484 26.4994 101.638 27.3406 100.6 27.336L85.5008 27.2692C84.462 27.2645 83.6236 26.4157 83.628 25.3733L83.634 24.0245C83.6384 22.9821 82.8 22.1332 81.7612 22.1286L79.0368 22.1163L72.2572 22.0864C68.8904 22.0714 66.1484 24.6799 66.134 27.9119L65.7208 121.751C65.7064 124.981 68.4224 127.611 71.7876 127.626L111.66 127.803C115.027 127.818 117.769 125.21 117.784 121.978L118.197 28.138C118.211 24.9083 115.496 22.2787 112.13 22.2634Z" fill="white"/>
<path d="M106.765 115.286L77.1149 115.154C76.8081 115.153 76.5605 114.832 76.5625 114.438L76.5953 106.992C76.5969 106.598 76.8473 106.28 77.1541 106.281L106.804 106.413C107.111 106.414 107.359 106.735 107.357 107.129L107.324 114.574C107.322 114.968 107.072 115.287 106.765 115.286Z" fill="#FF725E"/>
<path d="M82.3782 113.123C82.1182 113.122 81.8684 113.079 81.6288 112.995C81.3925 112.907 81.2096 112.796 81.0802 112.662L81.2265 112.378C81.3493 112.498 81.5138 112.601 81.7201 112.685C81.9298 112.766 82.1496 112.807 82.3796 112.808C82.5996 112.809 82.778 112.783 82.9149 112.73C83.0552 112.674 83.1572 112.6 83.2209 112.507C83.288 112.414 83.3218 112.31 83.3223 112.197C83.3229 112.06 83.2833 111.95 83.2037 111.867C83.1274 111.783 83.026 111.717 82.8996 111.67C82.7731 111.62 82.6333 111.576 82.4801 111.538C82.327 111.501 82.1738 111.462 82.0207 111.421C81.8675 111.377 81.7261 111.32 81.5964 111.249C81.47 111.179 81.3671 111.087 81.2876 110.973C81.2115 110.856 81.1738 110.704 81.1746 110.518C81.1754 110.344 81.221 110.186 81.3117 110.043C81.4056 109.897 81.5478 109.781 81.7382 109.695C81.9286 109.606 82.1721 109.562 82.4688 109.563C82.6655 109.564 82.8603 109.593 83.0534 109.651C83.2465 109.705 83.4128 109.781 83.5524 109.878L83.4261 110.173C83.2766 110.072 83.1169 109.998 82.9471 109.95C82.7806 109.903 82.6191 109.879 82.4624 109.878C82.2524 109.877 82.079 109.905 81.942 109.961C81.8051 110.017 81.7031 110.093 81.636 110.19C81.5723 110.283 81.5402 110.389 81.5396 110.509C81.539 110.646 81.5769 110.756 81.6532 110.84C81.7328 110.923 81.8359 110.989 81.9623 111.036C82.0921 111.083 82.2336 111.126 82.3868 111.163C82.54 111.2 82.6914 111.241 82.8413 111.285C82.9944 111.329 83.1341 111.386 83.2605 111.457C83.3902 111.524 83.4932 111.614 83.5693 111.728C83.6488 111.842 83.6882 111.99 83.6874 112.174C83.6866 112.344 83.6393 112.502 83.5453 112.648C83.4513 112.791 83.3075 112.907 83.1138 112.996C82.9234 113.082 82.6782 113.124 82.3782 113.123ZM84.4895 113.102L84.5048 109.602L84.8748 109.604L84.8595 113.104L84.4895 113.102ZM85.9983 113.109L86.0136 109.609L86.3186 109.61L88.7203 112.661L88.5603 112.66L88.5736 109.62L88.9386 109.622L88.9232 113.122L88.6182 113.12L86.2216 110.07L86.3816 110.071L86.3683 113.111L85.9983 113.109ZM91.6005 113.164C91.3338 113.162 91.0873 113.118 90.861 113.03C90.6381 112.939 90.4437 112.814 90.2777 112.653C90.1151 112.492 89.9875 112.303 89.8952 112.086C89.8061 111.869 89.7621 111.632 89.7633 111.375C89.7644 111.119 89.8104 110.882 89.9014 110.666C89.9957 110.45 90.1265 110.262 90.2938 110.103C90.4612 109.944 90.6567 109.821 90.8805 109.735C91.1075 109.646 91.3544 109.603 91.621 109.604C91.8877 109.605 92.1309 109.648 92.3505 109.732C92.5735 109.816 92.7629 109.944 92.9188 110.114L92.6878 110.348C92.5418 110.201 92.3806 110.095 92.2042 110.031C92.0278 109.967 91.8379 109.935 91.6346 109.934C91.4179 109.933 91.2178 109.969 91.0341 110.041C90.8538 110.11 90.695 110.211 90.5578 110.344C90.4239 110.473 90.3182 110.626 90.2408 110.803C90.1667 110.976 90.1292 111.167 90.1283 111.377C90.1274 111.584 90.1632 111.776 90.2357 111.953C90.3116 112.13 90.416 112.285 90.5487 112.419C90.6848 112.55 90.8427 112.652 91.0224 112.726C91.2054 112.797 91.4036 112.833 91.6169 112.834C91.8169 112.835 92.0054 112.805 92.1823 112.746C92.3626 112.687 92.528 112.586 92.6786 112.443L92.8874 112.724C92.7201 112.87 92.5246 112.981 92.3009 113.057C92.0773 113.129 91.8438 113.165 91.6005 113.164ZM92.5326 112.678L92.5382 111.388L92.8932 111.389L92.8874 112.724L92.5326 112.678ZM96.6512 113.186C96.2045 113.184 95.8534 113.054 95.5979 112.796C95.3423 112.538 95.2157 112.158 95.2179 111.655L95.2267 109.65L95.5967 109.651L95.5879 111.641C95.5861 112.055 95.6781 112.36 95.8639 112.557C96.0497 112.755 96.3126 112.854 96.6526 112.856C96.996 112.857 97.2614 112.76 97.4489 112.564C97.6364 112.369 97.7311 112.064 97.7329 111.651L97.7416 109.661L98.1016 109.662L98.0929 111.667C98.0907 112.171 97.9607 112.55 97.7029 112.806C97.4484 113.061 97.0979 113.188 96.6512 113.186ZM99.2013 113.167L99.2166 109.667L100.527 109.673C100.823 109.674 101.078 109.724 101.291 109.821C101.504 109.916 101.667 110.053 101.779 110.234C101.895 110.411 101.952 110.626 101.951 110.879C101.95 111.126 101.891 111.339 101.774 111.519C101.659 111.695 101.495 111.831 101.282 111.926C101.068 112.022 100.813 112.069 100.516 112.068L99.4111 112.063L99.5769 111.889L99.5713 113.169L99.2013 113.167ZM99.5767 111.919L99.4125 111.738L100.508 111.743C100.858 111.744 101.123 111.671 101.303 111.521C101.487 111.369 101.58 111.154 101.581 110.878C101.583 110.598 101.492 110.381 101.309 110.226C101.13 110.072 100.865 109.994 100.515 109.993L99.4202 109.988L99.5859 109.814L99.5767 111.919Z" fill="#E8E8E3"/>
<path d="M83.0232 49.8406L72.7363 49.7952L72.7276 51.607L83.0145 51.6524L83.0232 49.8406Z" fill="#FF725E"/>
<path opacity="0.1" d="M83.0232 49.8406L72.7363 49.7952L72.7276 51.607L83.0145 51.6524L83.0232 49.8406Z" fill="black"/>
<path d="M113.188 60.9586C113.186 60.951 113.274 60.9632 113.423 60.9057C113.563 60.8534 113.785 60.6895 113.81 60.3889C113.809 59.7765 113.807 58.8865 113.805 57.7439C113.805 57.1684 113.804 56.5299 113.804 55.8311C113.804 55.6561 113.804 55.4779 113.804 55.2955C113.809 55.109 113.809 54.9358 113.692 54.7926C113.587 54.6501 113.407 54.5592 113.219 54.5584C113.014 54.558 112.805 54.5576 112.592 54.5572C110.89 54.5542 108.954 54.5503 106.815 54.5465C98.2457 54.5158 86.4201 54.4739 73.3584 54.4275C73.186 54.4263 73.0176 54.5073 72.9176 54.6413C72.8064 54.7772 72.8112 54.9373 72.8136 55.1431C72.812 55.5328 72.81 55.921 72.8084 56.3084C72.8048 57.0828 72.8012 57.8518 72.798 58.6151C72.7964 58.9971 72.7944 59.3772 72.7924 59.7561C72.7988 59.9377 72.774 60.1551 72.8092 60.296C72.8488 60.4499 72.9704 60.5805 73.1216 60.6419C73.2004 60.6726 73.274 60.6833 73.3692 60.6826L73.662 60.6841L74.2456 60.6868C74.634 60.6887 75.0208 60.6906 75.406 60.6926C78.4864 60.7083 81.458 60.7237 84.2892 60.7379C89.9489 60.7709 95.0465 60.8008 99.3301 60.8258C103.606 60.858 107.068 60.8845 109.47 60.9026C110.661 60.916 111.589 60.9264 112.227 60.9337C112.536 60.9394 112.775 60.9437 112.944 60.9467C113.105 60.9513 113.188 60.9586 113.188 60.9586C113.188 60.9586 113.105 60.9652 112.943 60.9675C112.774 60.969 112.536 60.9713 112.227 60.9744C111.588 60.9759 110.661 60.9782 109.469 60.9809C107.067 60.9778 103.605 60.9732 99.3289 60.9679C95.0453 60.9548 89.9477 60.9394 84.2876 60.9225C81.4568 60.9118 78.4852 60.9007 75.4048 60.8891C75.0196 60.8876 74.6328 60.8861 74.2444 60.8845L73.6604 60.8822L73.3676 60.8811C73.2676 60.883 73.1436 60.868 73.0412 60.825C72.832 60.7406 72.6652 60.5609 72.6092 60.347C72.5776 60.2384 72.5848 60.1286 72.5844 60.0399L72.5856 59.7561C72.5872 59.3772 72.5888 58.9967 72.5904 58.6151C72.5936 57.8514 72.5968 57.0824 72.6 56.3084C72.6016 55.9214 72.6032 55.5328 72.6048 55.1431C72.608 55.0433 72.5988 54.9558 72.6152 54.8364C72.6328 54.7242 72.678 54.6156 72.7488 54.5242C72.886 54.3388 73.122 54.2255 73.3588 54.2282C86.42 54.2973 98.2457 54.3603 106.814 54.4056C108.954 54.4205 110.89 54.434 112.592 54.4459C112.805 54.4474 113.014 54.449 113.219 54.4509C113.443 54.4528 113.656 54.5634 113.778 54.7323C113.916 54.8978 113.915 55.1243 113.907 55.2963C113.905 55.4787 113.904 55.6572 113.902 55.8319C113.895 56.5307 113.89 57.1692 113.885 57.7443C113.87 58.8884 113.859 59.7796 113.851 60.3923C113.816 60.7125 113.576 60.8769 113.429 60.9249C113.274 60.9778 113.188 60.9586 113.188 60.9586Z" fill="#E0E0E0"/>
<path d="M94.3133 56.8468L75.4961 56.7637L75.488 58.4573L94.3052 58.5404L94.3133 56.8468Z" fill="#FF725E"/>
<path opacity="0.2" d="M94.3133 56.8468L75.4961 56.7637L75.488 58.4573L94.3052 58.5404L94.3133 56.8468Z" fill="white"/>
<path d="M82.9509 66.3743L72.6641 66.3289L72.6554 68.1407L82.9422 68.1861L82.9509 66.3743Z" fill="#FF725E"/>
<path opacity="0.1" d="M82.9509 66.3743L72.6641 66.3289L72.6554 68.1407L82.9422 68.1861L82.9509 66.3743Z" fill="black"/>
<path d="M112.924 77.4914C112.924 77.4845 113.008 77.4918 113.162 77.4484C113.307 77.4027 113.541 77.2875 113.668 77.0134C113.737 76.8782 113.744 76.7143 113.738 76.5265C113.737 76.3399 113.736 76.1365 113.735 75.9165C113.734 75.4746 113.733 74.9658 113.732 74.3945C113.732 73.8213 113.732 73.1847 113.732 72.4887C113.732 72.3144 113.732 72.1366 113.732 71.955C113.74 71.7715 113.717 71.6014 113.615 71.4482C113.519 71.2977 113.362 71.1783 113.18 71.1249C113.001 71.0704 112.787 71.1 112.576 71.0919C110.88 71.0888 108.95 71.085 106.817 71.0811C98.278 71.0508 86.4932 71.0086 73.4772 70.9625C73.1156 70.9541 72.7816 71.237 72.7468 71.5803C72.7348 71.9454 72.7404 72.3489 72.7364 72.7298C72.7328 73.5011 72.7292 74.2678 72.726 75.0284C72.7244 75.4089 72.7224 75.7882 72.7208 76.1656C72.7276 76.3542 72.6996 76.5511 72.746 76.7016C72.7912 76.8606 72.8968 77.0022 73.038 77.0952C73.1848 77.19 73.3436 77.2249 73.5356 77.218L74.1176 77.2207C74.5048 77.2226 74.89 77.2245 75.274 77.2265C78.344 77.2418 81.3052 77.2572 84.126 77.2714C89.7664 77.3044 94.846 77.3343 99.1148 77.3593C103.376 77.3916 106.826 77.4177 109.22 77.4357C110.407 77.4491 111.331 77.4595 111.967 77.4668C112.275 77.4726 112.512 77.4768 112.681 77.4799C112.842 77.4841 112.924 77.4914 112.924 77.4914C112.924 77.4914 112.842 77.4979 112.681 77.5002C112.512 77.5017 112.275 77.504 111.966 77.5071C111.331 77.5087 110.406 77.511 109.219 77.514C106.826 77.511 103.375 77.5064 99.114 77.501C94.8452 77.4883 89.7656 77.4729 84.1252 77.4561C81.304 77.4453 78.3428 77.4342 75.2732 77.4227C74.8892 77.4211 74.504 77.4196 74.1168 77.418L73.5348 77.4157C73.3392 77.4257 73.0988 77.3804 72.922 77.2591C72.7408 77.1401 72.6056 76.9585 72.5472 76.7542C72.4876 76.5392 72.5232 76.3522 72.5144 76.1649C72.516 75.7875 72.5172 75.4081 72.5188 75.0276C72.522 74.2667 72.5256 73.5003 72.5284 72.7286C72.5332 72.3378 72.5252 71.9669 72.54 71.5565C72.5844 71.1145 73.014 70.751 73.478 70.7621C86.494 70.8312 98.2784 70.8938 106.818 70.9391C108.95 70.9541 110.879 70.9675 112.576 70.9798C112.785 70.9905 112.996 70.9579 113.213 71.0216C113.422 71.0842 113.598 71.2217 113.706 71.3937C113.821 71.5622 113.846 71.7776 113.834 71.955C113.833 72.1366 113.832 72.3144 113.83 72.489C113.824 73.1851 113.818 73.8217 113.812 74.3949C113.806 74.9666 113.801 75.4749 113.796 75.9168C113.793 76.1368 113.791 76.3403 113.789 76.5265C113.792 76.7097 113.781 76.8913 113.706 77.0299C113.565 77.3151 113.318 77.4273 113.167 77.468C113.008 77.506 112.924 77.4914 112.924 77.4914Z" fill="#E0E0E0"/>
<path d="M82.8747 83.6201L72.5879 83.5747L72.5792 85.3865L82.866 85.4319L82.8747 83.6201Z" fill="#FF725E"/>
<path opacity="0.1" d="M82.8747 83.6201L72.5879 83.5747L72.5792 85.3865L82.866 85.4319L82.8747 83.6201Z" fill="black"/>
<path d="M112.848 94.7353C112.848 94.7284 112.933 94.7357 113.085 94.6927C113.231 94.647 113.465 94.5314 113.592 94.2573C113.661 94.1221 113.667 93.9582 113.661 93.7704C113.661 93.5838 113.66 93.3804 113.659 93.1604C113.658 92.7185 113.657 92.2097 113.656 91.6384C113.656 91.0652 113.656 90.4286 113.655 89.7322C113.655 89.5583 113.656 89.3801 113.656 89.1981C113.664 89.0146 113.641 88.8449 113.539 88.6917C113.443 88.5412 113.287 88.4218 113.104 88.368C112.925 88.3139 112.711 88.3435 112.499 88.335C110.804 88.3316 108.874 88.3281 106.741 88.3243C98.2017 88.2939 86.4173 88.2521 73.4013 88.2056C73.0393 88.1972 72.7057 88.4802 72.6709 88.8234C72.6589 89.1885 72.6645 89.592 72.6609 89.9729C72.6573 90.7442 72.6537 91.511 72.6505 92.2715C72.6489 92.652 72.6469 93.0306 72.6453 93.4088C72.6521 93.5969 72.6237 93.7939 72.6701 93.9447C72.7153 94.1037 72.8209 94.2454 72.9621 94.3383C73.1089 94.4331 73.2677 94.4684 73.4597 94.4611L74.0417 94.4638C74.4289 94.4658 74.8141 94.4677 75.1981 94.4696C78.2677 94.4853 81.2289 94.5003 84.0501 94.5145C89.6905 94.5479 94.7701 94.5775 99.0389 94.6024C103.3 94.6347 106.75 94.6608 109.144 94.6788C110.331 94.6923 111.255 94.703 111.891 94.7099C112.199 94.7157 112.437 94.7195 112.605 94.723C112.766 94.7284 112.848 94.7353 112.848 94.7353C112.848 94.7353 112.766 94.7418 112.605 94.7441C112.436 94.7456 112.199 94.748 111.891 94.751C111.255 94.7526 110.33 94.7549 109.143 94.7579C106.75 94.7545 103.299 94.7503 99.0377 94.7449C94.7689 94.7322 89.6893 94.7169 84.0489 94.7C81.2277 94.6892 78.2665 94.6781 75.1969 94.6666C74.8129 94.665 74.4277 94.6631 74.0405 94.6616L73.4585 94.6593C73.2629 94.6692 73.0225 94.6236 72.8457 94.5026C72.6645 94.3832 72.5293 94.202 72.4709 93.9977C72.4117 93.7827 72.4469 93.5954 72.4381 93.4084C72.4397 93.031 72.4413 92.6516 72.4429 92.2715C72.4461 91.5106 72.4493 90.7439 72.4525 89.9725C72.4573 89.5821 72.4493 89.2112 72.4641 88.8004C72.5085 88.3585 72.9381 87.9949 73.4021 88.0064C86.4181 88.0755 98.2021 88.1381 106.742 88.1834C108.874 88.1983 110.803 88.2118 112.5 88.2237C112.709 88.234 112.921 88.2018 113.137 88.2655C113.346 88.3281 113.522 88.4656 113.631 88.638C113.745 88.8065 113.77 89.0219 113.759 89.1993C113.757 89.3809 113.755 89.5586 113.754 89.7329C113.747 90.4294 113.742 91.066 113.737 91.6388C113.73 92.2105 113.725 92.7192 113.72 93.1611C113.717 93.3807 113.715 93.5846 113.712 93.7708C113.716 93.9543 113.704 94.1356 113.629 94.2742C113.489 94.5591 113.241 94.6715 113.091 94.7122C112.933 94.7495 112.848 94.7353 112.848 94.7353Z" fill="#E0E0E0"/>
<path d="M94.2415 73.3804L75.4238 73.2974L75.4157 74.9909L94.2334 75.074L94.2415 73.3804Z" fill="#FF725E"/>
<path opacity="0.2" d="M94.2415 73.3804L75.4238 73.2974L75.4157 74.9909L94.2334 75.074L94.2415 73.3804Z" fill="white"/>
<path d="M77.1315 91.6012C77.1295 92.0661 76.7595 92.4416 76.3051 92.4397C75.8507 92.4374 75.4843 92.0589 75.4863 91.5939C75.4883 91.129 75.8583 90.7531 76.3127 90.7554C76.7671 90.7573 77.1335 91.1359 77.1315 91.6012Z" fill="#FF725E"/>
<path d="M79.6804 91.6127C79.6784 92.0776 79.3084 92.4531 78.854 92.4512C78.3996 92.4493 78.0332 92.0707 78.0352 91.6054C78.0372 91.1404 78.4072 90.7649 78.8616 90.7669C79.316 90.7684 79.6824 91.1473 79.6804 91.6127Z" fill="#FF725E"/>
<path d="M82.2292 91.6239C82.2272 92.0889 81.8572 92.4647 81.4028 92.4624C80.9484 92.4605 80.582 92.0819 80.584 91.6166C80.586 91.1517 80.956 90.7762 81.4104 90.7781C81.8644 90.78 82.2312 91.1586 82.2292 91.6239Z" fill="#FF725E"/>
<path d="M84.7796 91.635C84.7776 92.1 84.4076 92.4758 83.9536 92.4735C83.4992 92.4716 83.1324 92.093 83.1348 91.6277C83.1368 91.1628 83.5068 90.7873 83.9612 90.7892C84.4152 90.7915 84.782 91.1701 84.7796 91.635Z" fill="#FF725E"/>
<path d="M87.3292 91.6461C87.3272 92.1115 86.9572 92.4869 86.5028 92.4846C86.0484 92.4827 85.6816 92.1042 85.6836 91.6392C85.686 91.1739 86.056 90.7984 86.51 90.8003C86.9644 90.8026 87.3308 91.1812 87.3292 91.6461Z" fill="#FF725E"/>
<path d="M89.8776 91.6576C89.8756 92.1229 89.5056 92.4984 89.0512 92.4961C88.5968 92.4942 88.2304 92.1156 88.2324 91.6507C88.2344 91.1853 88.6044 90.8102 89.0584 90.8118C89.5132 90.8137 89.8796 91.1926 89.8776 91.6576Z" fill="#FF725E"/>
<path d="M92.4265 91.6688C92.4241 92.1341 92.0541 92.5096 91.6001 92.5077C91.1457 92.5054 90.7793 92.1269 90.7813 91.6619C90.7833 91.1966 91.1533 90.8215 91.6073 90.8234C92.0613 90.8253 92.4281 91.2039 92.4265 91.6688Z" fill="#FF725E"/>
<path d="M94.9749 91.6799C94.9729 92.1452 94.6029 92.5207 94.1489 92.5188C93.6945 92.5165 93.3277 92.1383 93.3301 91.673C93.3321 91.208 93.7021 90.8326 94.1561 90.8345C94.6105 90.8364 94.9769 91.215 94.9749 91.6799Z" fill="#FF725E"/>
<path d="M97.5241 91.6918C97.5221 92.1567 97.1521 92.5322 96.6981 92.5303C96.2437 92.5284 95.8769 92.1498 95.8789 91.6845C95.8813 91.2195 96.2513 90.8444 96.7053 90.846C97.1597 90.8475 97.5261 91.2264 97.5241 91.6918Z" fill="#FF725E"/>
<g opacity="0.2">
<path d="M77.1315 91.6012C77.1295 92.0661 76.7595 92.4416 76.3051 92.4397C75.8507 92.4374 75.4843 92.0589 75.4863 91.5939C75.4883 91.129 75.8583 90.7531 76.3127 90.7554C76.7671 90.7573 77.1335 91.1359 77.1315 91.6012Z" fill="white"/>
<path d="M79.6804 91.6127C79.6784 92.0776 79.3084 92.4531 78.854 92.4512C78.3996 92.4493 78.0332 92.0707 78.0352 91.6054C78.0372 91.1404 78.4072 90.7649 78.8616 90.7669C79.316 90.7684 79.6824 91.1473 79.6804 91.6127Z" fill="white"/>
<path d="M82.2292 91.6239C82.2272 92.0889 81.8572 92.4647 81.4028 92.4624C80.9484 92.4605 80.582 92.0819 80.584 91.6166C80.586 91.1517 80.956 90.7762 81.4104 90.7781C81.8644 90.78 82.2312 91.1586 82.2292 91.6239Z" fill="white"/>
<path d="M84.7796 91.635C84.7776 92.1 84.4076 92.4758 83.9536 92.4735C83.4992 92.4716 83.1324 92.093 83.1348 91.6277C83.1368 91.1628 83.5068 90.7873 83.9612 90.7892C84.4152 90.7915 84.782 91.1701 84.7796 91.635Z" fill="white"/>
<path d="M87.3292 91.6461C87.3272 92.1115 86.9572 92.4869 86.5028 92.4846C86.0484 92.4827 85.6816 92.1042 85.6836 91.6392C85.686 91.1739 86.056 90.7984 86.51 90.8003C86.9644 90.8026 87.3308 91.1812 87.3292 91.6461Z" fill="white"/>
<path d="M89.8776 91.6576C89.8756 92.1229 89.5056 92.4984 89.0512 92.4961C88.5968 92.4942 88.2304 92.1156 88.2324 91.6507C88.2344 91.1853 88.6044 90.8102 89.0584 90.8118C89.5132 90.8137 89.8796 91.1926 89.8776 91.6576Z" fill="white"/>
<path d="M92.4265 91.6688C92.4241 92.1341 92.0541 92.5096 91.6001 92.5077C91.1457 92.5054 90.7793 92.1269 90.7813 91.6619C90.7833 91.1966 91.1533 90.8215 91.6073 90.8234C92.0613 90.8253 92.4281 91.2039 92.4265 91.6688Z" fill="white"/>
<path d="M94.9749 91.6799C94.9729 92.1452 94.6029 92.5207 94.1489 92.5188C93.6945 92.5165 93.3277 92.1383 93.3301 91.673C93.3321 91.208 93.7021 90.8326 94.1561 90.8345C94.6105 90.8364 94.9769 91.215 94.9749 91.6799Z" fill="white"/>
<path d="M97.5241 91.6918C97.5221 92.1567 97.1521 92.5322 96.6981 92.5303C96.2437 92.5284 95.8769 92.1498 95.8789 91.6845C95.8813 91.2195 96.2513 90.8444 96.7053 90.846C97.1597 90.8475 97.5261 91.2264 97.5241 91.6918Z" fill="white"/>
</g>
<path d="M93.9029 36.2637C94.4413 36.0468 94.8241 35.5143 94.8273 34.8865C94.8309 34.0641 94.1825 33.3945 93.3789 33.3907C92.5757 33.3872 91.9213 34.0511 91.9181 34.8735C91.9153 35.507 92.3009 36.0464 92.8449 36.2637C90.6061 36.5874 90.7077 38.9229 90.7077 38.9229L96.0013 38.9463C96.0013 38.9463 96.1221 36.5854 93.9029 36.2637Z" fill="#FF725E"/>
<path opacity="0.1" d="M93.9029 36.2637C94.4413 36.0468 94.8241 35.5143 94.8273 34.8865C94.8309 34.0641 94.1825 33.3945 93.3789 33.3907C92.5757 33.3872 91.9213 34.0511 91.9181 34.8735C91.9153 35.507 92.3009 36.0464 92.8449 36.2637C90.6061 36.5874 90.7077 38.9229 90.7077 38.9229L96.0013 38.9463C96.0013 38.9463 96.1221 36.5854 93.9029 36.2637Z" fill="black"/>
<path d="M102.508 40.474L83.6309 40.3906L83.6205 42.5572L102.498 42.6405L102.508 40.474Z" fill="#FF725E"/>
<path opacity="0.2" d="M102.508 40.474L83.6309 40.3906L83.6205 42.5572L102.498 42.6405L102.508 40.474Z" fill="white"/>
<path d="M33.1126 51.6869C33.1126 51.6908 33.0494 51.6973 32.927 51.7069C32.7946 51.7161 32.6142 51.7288 32.3826 51.7449C32.1422 51.7488 31.8498 51.7991 31.505 51.8574C31.3334 51.8908 31.1438 51.9043 30.9502 51.9592C30.7558 52.011 30.549 52.0659 30.3302 52.1243C29.467 52.3857 28.4274 52.8011 27.3806 53.5287C26.3366 54.2505 25.2922 55.2829 24.4782 56.6298C24.0502 57.2917 23.7398 58.0561 23.461 58.8597C23.2342 59.6775 23.0334 60.5463 23.0182 61.462C22.9758 61.9185 23.0238 62.3823 23.0438 62.8538C23.0566 63.0895 23.1094 63.323 23.141 63.5606C23.1746 63.7983 23.211 64.0371 23.2814 64.2717C23.4838 65.2262 23.889 66.1618 24.4014 67.0583C25.4258 68.8582 27.1474 70.4089 29.2734 71.3077C30.337 71.7581 31.513 72.0011 32.709 72.0484C33.9062 72.1213 35.1326 71.9366 36.295 71.5531L36.6466 71.4291L36.693 71.4129L36.735 71.4333C38.4562 72.2722 40.1442 73.0946 41.7798 73.8916L41.6298 74.0145C41.091 72.4096 40.569 70.8539 40.0678 69.3608L40.0486 69.3032L40.093 69.2606C41.3646 68.0385 42.2506 66.5538 42.7418 65.0338C43.2342 63.5092 43.3182 61.9565 43.1262 60.5337C42.9342 59.1077 42.4486 57.8111 41.801 56.72C41.1538 55.6258 40.349 54.737 39.523 54.0428C38.6874 53.3536 37.821 52.8868 37.0446 52.5293C36.2494 52.2099 35.5406 52.0052 34.9514 51.8962C34.657 51.8478 34.395 51.8052 34.1666 51.768C33.9402 51.7526 33.7474 51.7399 33.5878 51.7292C33.439 51.718 33.3218 51.7096 33.233 51.7031C33.1534 51.695 33.1126 51.69 33.1126 51.6869C33.1126 51.6843 33.1534 51.6835 33.2334 51.6846C33.3222 51.6869 33.4398 51.6904 33.5894 51.6942C33.7498 51.7004 33.9442 51.7081 34.1722 51.7169C34.4026 51.7499 34.667 51.7875 34.9642 51.8302C35.5594 51.93 36.2774 52.1262 37.085 52.4402C37.873 52.7923 38.7546 53.2569 39.6066 53.948C40.449 54.6437 41.271 55.5394 41.9346 56.6455C42.5982 57.7486 43.099 59.0628 43.3006 60.5106C43.5022 61.955 43.423 63.5338 42.927 65.0868C42.4322 66.6352 41.5338 68.1506 40.2394 69.3992L40.2646 69.299C40.7678 70.791 41.2926 72.3463 41.8338 73.9504L41.913 74.185L41.6838 74.0736C40.0474 73.2773 38.3594 72.4561 36.6374 71.618L36.7258 71.6222L36.3666 71.7489C35.1782 72.1413 33.9238 72.329 32.7002 72.2545C31.4782 72.2058 30.2758 71.9558 29.1898 71.4943C27.0182 70.574 25.2666 68.9876 24.2278 67.1516C23.7078 66.2371 23.2994 65.283 23.0958 64.3112C23.0254 64.0724 22.9894 63.8294 22.9558 63.5875C22.9246 63.346 22.8722 63.108 22.8598 62.8684C22.841 62.3892 22.7942 61.9174 22.8394 61.454C22.859 60.5237 23.0666 59.6414 23.3018 58.8125C23.589 57.9977 23.909 57.2241 24.347 56.5549C25.181 55.1938 26.2474 54.1553 27.311 53.4339C28.377 52.7067 29.4326 52.2982 30.307 52.0463C30.5282 51.991 30.7378 51.9384 30.9346 51.8893C31.1302 51.8371 31.3218 51.8263 31.495 51.7964C31.8434 51.7438 32.1378 51.7 32.3798 51.7031C32.6126 51.6954 32.7942 51.69 32.9274 51.6854C33.0498 51.6831 33.1126 51.6835 33.1126 51.6869Z" fill="#FF725E"/>
<path d="M35.3942 60.6515H34.655L33.0418 58.4934V57.077C33.0418 57.077 31.8994 57.0095 32.0334 58.8643C32.1678 60.7191 32.0226 60.2468 32.0226 60.2468C32.0226 60.2468 29.5965 60.2557 29.3949 60.458C29.2481 60.605 29.1821 62.9183 29.1565 64.1726C29.1437 64.8042 29.5473 65.3916 30.1593 65.541C30.2461 65.5625 30.3341 65.5747 30.4205 65.5747C31.0258 65.5747 34.1174 65.1025 34.1174 65.1025H35.3942V60.6515Z" fill="#FF725E"/>
<path d="M37.5095 60.2626L37.0551 65.1156H35.7891V60.3605L37.5095 60.2626Z" fill="#FF725E"/>
<path d="M52.5875 159.061V155.776L46.4551 155.736L46.4043 160.699L46.7843 160.726C48.4759 160.831 55.3927 160.983 56.5259 160.647C57.7903 160.272 52.5875 159.061 52.5875 159.061Z" fill="#FF725E"/>
<path d="M56.6718 160.339C56.6718 160.395 54.3778 160.439 51.549 160.439C48.719 160.439 46.4258 160.395 46.4258 160.339C46.4258 160.284 48.719 160.239 51.549 160.239C54.3778 160.239 56.6718 160.284 56.6718 160.339Z" fill="#263238"/>
<path d="M52.6943 159.731C52.6439 159.706 52.6871 159.532 52.8187 159.361C52.9499 159.189 53.1103 159.098 53.1503 159.137C53.1915 159.176 53.1075 159.321 52.9863 159.48C52.8651 159.637 52.7459 159.758 52.6943 159.731Z" fill="#263238"/>
<path d="M53.0864 159.948C53.0332 159.928 53.0608 159.734 53.1812 159.529C53.3012 159.324 53.4608 159.201 53.5052 159.234C53.5512 159.269 53.474 159.436 53.3624 159.627C53.2508 159.817 53.1412 159.968 53.0864 159.948Z" fill="#263238"/>
<path d="M48.2734 160.324C48.2494 160.34 48.1582 160.254 48.0254 160.11C47.8918 159.966 47.717 159.764 47.4874 159.593C47.2598 159.422 47.009 159.336 46.8238 159.314C46.6374 159.29 46.515 159.318 46.5046 159.289C46.4938 159.268 46.6078 159.186 46.829 159.173C47.0466 159.159 47.3542 159.238 47.6146 159.434C47.8734 159.628 48.039 159.859 48.1442 160.026C48.249 160.195 48.2962 160.309 48.2734 160.324Z" fill="#263238"/>
<path d="M52.7143 159.114C52.7443 159.16 52.6391 159.274 52.4639 159.336C52.2891 159.398 52.1315 159.376 52.1235 159.322C52.1143 159.267 52.2387 159.203 52.3919 159.148C52.5455 159.094 52.6839 159.066 52.7143 159.114Z" fill="#263238"/>
<path d="M52.6173 158.796C52.6229 158.851 52.4592 158.899 52.2524 158.901C52.0452 158.904 51.8805 158.861 51.8849 158.806C51.8889 158.75 52.0521 158.704 52.2497 158.701C52.4469 158.699 52.6117 158.741 52.6173 158.796Z" fill="#263238"/>
<path d="M67.6867 159.061L67.6871 155.776L61.5547 155.736L61.5039 160.648L61.8839 160.675C63.5755 160.78 70.4923 160.983 71.6259 160.647C72.8899 160.272 67.6867 159.061 67.6867 159.061Z" fill="#FF725E"/>
<path d="M71.7714 160.347C71.7714 160.401 69.4778 160.447 66.6486 160.447C63.8186 160.447 61.5254 160.402 61.5254 160.347C61.5254 160.291 63.8186 160.246 66.6486 160.246C69.4774 160.246 71.7714 160.291 71.7714 160.347Z" fill="#263238"/>
<path d="M67.7939 159.731C67.7435 159.706 67.7867 159.532 67.9187 159.361C68.0499 159.189 68.2103 159.098 68.2503 159.137C68.2915 159.176 68.2075 159.321 68.0863 159.48C67.9647 159.637 67.8451 159.758 67.7939 159.731Z" fill="#263238"/>
<path d="M68.186 159.948C68.1328 159.928 68.1604 159.734 68.2808 159.529C68.4008 159.324 68.5604 159.201 68.6048 159.234C68.6508 159.269 68.5736 159.436 68.4624 159.627C68.3504 159.817 68.2404 159.968 68.186 159.948Z" fill="#263238"/>
<path d="M63.3711 160.324C63.3471 160.34 63.2559 160.254 63.1231 160.11C62.9899 159.966 62.8147 159.764 62.5851 159.593C62.3575 159.422 62.1071 159.336 61.9215 159.314C61.7351 159.29 61.6127 159.318 61.6023 159.289C61.5915 159.268 61.7055 159.186 61.9263 159.173C62.1439 159.159 62.4519 159.238 62.7119 159.434C62.9711 159.628 63.1359 159.859 63.2415 160.026C63.3471 160.195 63.3943 160.309 63.3711 160.324Z" fill="#263238"/>
<path d="M67.8139 159.114C67.8439 159.16 67.7387 159.274 67.5639 159.336C67.3887 159.398 67.2315 159.376 67.2231 159.322C67.2139 159.267 67.3383 159.203 67.4915 159.148C67.6451 159.094 67.7835 159.066 67.8139 159.114Z" fill="#263238"/>
<path d="M67.7169 158.796C67.7225 158.851 67.5589 158.899 67.352 158.901C67.1448 158.904 66.9804 158.861 66.9844 158.806C66.9884 158.75 67.1521 158.704 67.3497 158.701C67.5469 158.699 67.7113 158.741 67.7169 158.796Z" fill="#263238"/>
<path d="M90.2778 61.5802C90.1178 61.4221 89.7242 61.4965 89.7242 61.4965C89.7242 61.4965 89.793 61.0477 89.7202 60.8308C89.6478 60.6139 89.1438 60.6557 89.1438 60.6557C89.1438 60.6557 89.1126 60.4468 89.1566 60.1097C89.1678 60.0253 89.119 59.9631 89.0394 59.9166C88.8006 59.778 88.2858 59.7846 88.2858 59.7846C87.977 59.5726 89.2266 57.8956 89.6898 57.3588C90.1478 56.8286 90.0706 56.4036 89.6574 56.4044C89.3758 56.4047 87.917 58.0169 87.4718 58.5583C87.027 59.0992 85.8334 60.6046 85.793 59.4033C85.7522 58.202 85.2494 57.2932 84.935 57.1385C84.6206 56.9837 84.2814 57.3469 84.4554 57.6806C84.5962 57.9501 84.685 58.4696 84.7354 58.8623C84.777 59.1864 84.763 59.515 84.6894 59.8333C84.4806 60.7333 84.2562 61.3176 84.151 61.5676L84.1202 61.5511C84.1202 61.5511 75.3894 69.5865 74.7602 70.1601C74.1938 70.6761 62.849 69.5496 60.5762 69.3181C59.955 69.2513 59.035 69.1315 58.2378 69.1653C57.2518 69.2068 57.0766 69.3412 56.0898 69.3538C53.0682 69.3926 50.5502 69.6748 48.6762 69.9793C46.4105 70.3471 44.5529 71.8951 43.8517 73.9956C41.5577 80.867 36.3681 97.1348 35.4433 106.274C34.7149 107.589 33.9009 109.124 33.5701 109.988C32.9273 111.668 33.0833 111.725 33.3001 111.764C33.8817 111.867 34.5473 108.85 34.7957 109.578C35.0445 110.307 33.5349 113.177 34.1473 113.261C34.9457 113.37 35.5821 110.2 35.6565 109.936C35.7289 109.679 36.1317 109.766 36.0513 110.001C35.9353 110.339 34.8097 113.921 35.5929 114.036C36.0269 114.1 36.0737 113.341 36.0737 113.341C36.0737 113.341 36.8697 109.915 37.2373 109.981C37.6109 110.048 37.2141 112.075 37.0297 112.749C36.8477 113.415 37.1041 113.769 37.4785 113.602C37.7337 113.487 38.3485 111.435 38.5141 110.764C38.6801 110.093 39.1005 108.245 39.6653 109.318C40.2301 110.391 41.0849 111.011 41.4381 111.025C41.7909 111.038 41.9389 110.571 41.6345 110.339C41.3885 110.152 41.0797 109.717 40.8613 109.381C40.6813 109.104 40.5493 108.8 40.4765 108.481C40.1953 107.253 40.1977 106.538 40.1977 106.538L40.1325 106.144C41.0281 101.885 43.6101 89.3893 47.319 81.4064L48.8462 84.423L49.509 86.656L45.4389 96.3078L62.8042 96.0882L60.2154 86.5132L63.3606 76.5289H63.3602C66.7642 76.6018 75.507 76.7235 76.9762 76.0931C78.8078 75.3076 88.2874 63.8378 88.2874 63.8378H88.287C88.9274 63.3483 89.5786 62.8219 90.059 62.3623C90.0598 62.3615 90.625 61.9227 90.2778 61.5802Z" fill="#FFBE9D"/>
<path d="M44.6825 89.2015C45.1853 87.551 47.7741 79.3892 47.7741 79.3892C47.7741 79.3892 49.0445 86.0432 48.7105 86.8445C48.3257 87.7679 47.6185 88.8245 47.6185 88.8245C44.6825 93.1165 45.0677 95.2616 45.0677 95.2616L62.8037 94.7425C62.8469 92.3617 61.3785 86.8265 61.0717 85.9446C60.7645 85.0627 61.7829 82.1682 61.7829 82.1682C61.7829 82.1682 63.7873 80.2143 63.7097 79.2088C63.5533 77.1831 63.3601 76.5289 63.3601 76.5289L74.1521 76.9101L73.8129 69.8814L58.2997 68.3913C57.7629 69.8576 52.8777 69.1392 52.8777 69.1392C47.6037 69.3055 47.2845 70.2365 45.0849 71.8709C42.8857 73.5054 39.2637 87.5429 39.2637 87.5429L44.6825 89.2015Z" fill="#FF725E"/>
<path d="M55.1718 87.5414C55.1714 87.5679 54.8146 87.5905 54.237 87.5867C53.6598 87.5832 52.8618 87.5487 51.985 87.4646C51.1078 87.3793 50.319 87.2607 49.7522 87.1536C49.1858 87.0469 48.8406 86.9566 48.8458 86.9305C48.8514 86.9025 49.2054 86.9436 49.7758 87.0142C50.3462 87.0853 51.1334 87.1812 52.0058 87.2653C52.8778 87.3494 53.669 87.4058 54.2426 87.4454C54.8166 87.4853 55.1722 87.5126 55.1718 87.5414Z" fill="#263238"/>
<path d="M56.385 86.0935C56.3926 86.1181 56.0266 86.2513 55.4166 86.4103C54.807 86.5688 53.9506 86.7443 52.9922 86.8541C52.0334 86.9628 51.1578 86.9854 50.5262 86.9677C49.8942 86.9505 49.5062 86.9025 49.5078 86.8775C49.509 86.848 49.8986 86.8453 50.5258 86.8264C51.153 86.8076 52.0178 86.7635 52.9674 86.6556C53.9162 86.5469 54.7682 86.3953 55.3826 86.2728C55.997 86.15 56.3766 86.0647 56.385 86.0935Z" fill="#263238"/>
<path d="M62.3522 79.6353C62.3798 79.6411 62.3342 79.9728 62.231 80.5038C62.1278 81.0348 61.9658 81.7643 61.7614 82.5644C61.5566 83.3649 61.349 84.084 61.1846 84.6004C61.0202 85.1172 60.901 85.4317 60.8734 85.4244C60.8454 85.4167 60.9146 85.0892 61.0422 84.564C61.1934 83.9646 61.3674 83.2766 61.559 82.5172C61.755 81.7589 61.9326 81.072 62.0874 80.4735C62.227 79.9505 62.3238 79.6296 62.3522 79.6353Z" fill="#263238"/>
<path d="M44.8683 88.2237C44.8531 88.277 43.6299 88.0033 42.1363 87.6121C40.6423 87.2204 39.4439 86.8607 39.4591 86.8069C39.4743 86.7536 40.6971 87.0277 42.1911 87.4189C43.6847 87.8102 44.8835 88.1707 44.8683 88.2237Z" fill="#263238"/>
<path d="M63.5555 76.4387C63.5555 76.4479 63.3911 76.4644 63.0963 76.4364C62.8031 76.4076 62.3739 76.3419 61.8767 76.1572C61.3791 75.9783 60.8135 75.6792 60.2851 75.2269C59.7567 74.7766 59.2843 74.1569 58.9831 73.4278C58.6771 72.6991 58.5767 71.9397 58.6247 71.2635C58.6711 70.5886 58.8575 69.9785 59.1723 69.5512C59.4839 69.1181 59.8971 68.9085 60.1847 68.8359C60.3303 68.7987 60.4479 68.7898 60.5263 68.7917C60.6051 68.7937 60.6455 68.8021 60.6455 68.8083C60.6463 68.8271 60.4795 68.8182 60.2091 68.91C59.9435 69.0014 59.5699 69.2168 59.2947 69.6303C58.7503 70.4519 58.5983 71.9519 59.1771 73.3541C59.4671 74.0552 59.9131 74.6503 60.4147 75.091C60.9159 75.5337 61.4551 75.8359 61.9319 76.0263C62.8927 76.4087 63.5627 76.396 63.5555 76.4387Z" fill="#263238"/>
<path d="M72.8803 76.7696C72.8231 76.7696 72.7795 75.1855 72.7835 73.2316C72.7875 71.277 72.8375 69.6936 72.8947 69.6936C72.9523 69.694 72.9955 71.2777 72.9915 73.232C72.9879 75.1858 72.9379 76.77 72.8803 76.7696Z" fill="#263238"/>
<path d="M58.2046 68.8194C58.2482 67.9625 58.3418 66.9945 58.3418 66.9945C58.3418 66.9945 60.549 66.7611 60.683 64.5723C60.817 62.3835 60.683 57.3366 60.683 57.3366L56.6626 55.3716L52.2402 58.7214L52.9102 69.6641L56.9794 69.9125C57.621 69.9516 58.1718 69.461 58.2046 68.8194Z" fill="#FFBE9D"/>
<path d="M58.6035 62.8411C58.6099 62.8427 58.6103 62.8822 58.5687 62.9352C58.5279 62.9866 58.4387 63.045 58.3147 63.0427C58.0583 63.0308 57.8119 62.759 57.7211 62.4272C57.6755 62.2587 57.6759 62.0878 57.7103 61.9408C57.7375 61.7961 57.8247 61.6505 57.9503 61.611C58.0103 61.5895 58.0727 61.5918 58.1203 61.6148C58.1671 61.6375 58.1959 61.6717 58.2107 61.7031C58.2407 61.7684 58.2175 61.808 58.2115 61.8049C58.2023 61.8045 58.2047 61.7684 58.1711 61.7273C58.1395 61.6855 58.0643 61.6475 57.9811 61.6889C57.8963 61.7258 57.8383 61.8298 57.8167 61.9631C57.7915 62.0951 57.7947 62.2468 57.8351 62.3969C57.9151 62.6941 58.1299 62.9375 58.3207 62.9594C58.4151 62.9709 58.4935 62.936 58.5359 62.9029C58.5799 62.8684 58.5951 62.8373 58.6035 62.8411Z" fill="#EB996E"/>
<path d="M62.0547 56.1552C61.7475 55.1478 60.6315 54.6471 59.6147 54.3707C58.0679 53.9499 56.3922 53.7637 54.881 54.2977C53.3698 54.8318 51.5522 55.7713 51.5526 57.3738C50.6606 57.3032 50.151 58.0534 49.797 58.9829C49.5878 59.5319 49.4502 60.1432 49.4178 60.7486L49.403 60.744C49.2882 62.8415 48.6794 65.7314 47.2626 67.2829C46.4802 68.1395 45.3538 68.7311 44.8978 69.7981C44.5014 70.7253 44.7066 71.821 44.3318 72.7571C44.001 73.5833 43.2686 74.17 42.7434 74.8887C41.5998 76.4544 41.5218 78.6663 42.3622 80.4136C43.2026 82.1609 44.8678 83.4394 46.7162 84.0253C48.5646 84.6112 50.5782 84.5467 52.4594 84.0767C53.8482 83.7297 55.1994 83.1553 56.3063 82.2473C57.4131 81.3393 58.2623 80.0773 58.5155 78.6682C58.7971 77.0998 58.3399 75.5072 58.0035 73.9496C56.9395 69.0217 57.2435 68.7657 58.5863 64.1945C58.6167 64.1139 58.6355 64.0298 58.6587 63.9468C58.6763 63.8862 58.6935 63.8282 58.7115 63.766L58.7087 63.7652C58.7463 63.5863 58.7707 63.4043 58.7715 63.2185C58.3827 63.3656 57.9131 63.2677 57.6147 62.9782C57.3167 62.6887 57.2055 62.2218 57.3411 61.829C57.4971 61.3772 57.9291 61.0754 58.3727 60.8961C58.8163 60.7168 59.2935 60.6281 59.7291 60.4296C60.6527 60.0076 61.2931 59.1323 61.7287 58.215C62.0347 57.5719 62.2623 56.8355 62.0547 56.1552Z" fill="#263238"/>
<path d="M58.7611 62.9344C58.7751 62.9286 58.8527 63.0714 58.9715 63.3137C59.0903 63.556 59.2495 63.8981 59.4267 64.2912L59.4599 64.3657L59.3751 64.3726C59.2419 64.3837 59.1071 64.3949 58.9679 64.4064C58.6887 64.4237 58.4559 64.4559 58.1855 64.4532C58.1427 64.4459 58.0951 64.4083 58.0823 64.3661C58.0679 64.3246 58.0719 64.2897 58.0763 64.2593C58.0879 64.1991 58.1019 64.1545 58.1139 64.1035L58.1847 63.8316C58.2731 63.4999 58.3363 63.2964 58.3531 63.3003C58.3699 63.3041 58.3371 63.5141 58.2707 63.8501L58.2151 64.1246C58.1947 64.2175 58.1595 64.3561 58.2115 64.3453C58.4107 64.3373 58.6943 64.3054 58.9575 64.2866C59.0967 64.2759 59.2315 64.2659 59.3647 64.2555L59.3135 64.3369C59.1423 63.9418 58.9971 63.5936 58.8979 63.3433C58.7999 63.0933 58.7471 62.9401 58.7611 62.9344Z" fill="#FF725E"/>
<path d="M45.0685 95.262L62.8045 94.7429L70.5185 123.668L69.0977 156.848H59.7101L60.8733 124.375L54.0125 104.239L55.0697 158.135L45.5921 158.269L44.5937 107.609C44.5521 106.201 44.0693 103.024 44.2489 101.628L45.0685 95.262Z" fill="#263238"/>
<path d="M56.3752 104.647C56.3716 104.674 56.0388 104.658 55.5052 104.598C54.9716 104.538 54.2376 104.429 53.4336 104.275C52.6296 104.119 51.9092 103.946 51.3928 103.804C50.8764 103.661 50.5632 103.553 50.5704 103.526C50.5864 103.471 51.874 103.771 53.4748 104.078C55.0744 104.389 56.3828 104.59 56.3752 104.647Z" fill="#455A64"/>
<path d="M69.0128 155.028C69.0128 155.083 66.8871 155.128 64.2663 155.128C61.6443 155.128 59.5195 155.083 59.5195 155.028C59.5195 154.973 61.6443 154.928 64.2663 154.928C66.8871 154.928 69.0128 154.973 69.0128 155.028Z" fill="#455A64"/>
<path d="M54.9854 156.734C54.9854 156.79 52.9238 156.834 50.3806 156.834C47.837 156.834 45.7754 156.79 45.7754 156.734C45.7754 156.679 47.837 156.634 50.3806 156.634C52.9238 156.634 54.9854 156.679 54.9854 156.734Z" fill="#455A64"/>
<path d="M53.7648 156.596C53.7072 156.597 53.458 144.82 53.208 130.295C52.958 115.765 52.802 103.989 52.8596 103.988C52.9172 103.987 53.1664 115.761 53.4164 130.291C53.6664 144.817 53.8224 156.595 53.7648 156.596Z" fill="#455A64"/>
<path d="M67.752 155.028C67.7484 155.028 67.7472 154.974 67.7476 154.871C67.7496 154.758 67.7528 154.606 67.7564 154.411C67.7688 153.996 67.7868 153.403 67.8096 152.644C67.8656 151.098 67.9456 148.88 68.0448 146.143C68.2636 140.646 68.5656 133.069 68.8992 124.7C68.9024 124.623 68.9056 124.546 68.9084 124.474L68.9116 124.503C66.8096 116.424 64.9096 109.121 63.532 103.827C62.856 101.189 62.3084 99.0523 61.9267 97.5634C61.7435 96.8316 61.6007 96.2592 61.5007 95.8591C61.4559 95.6714 61.4212 95.5243 61.3952 95.4149C61.3724 95.3143 61.3624 95.2629 61.366 95.2621C61.3692 95.2613 61.3859 95.3116 61.4155 95.4103C61.4463 95.5182 61.4879 95.6641 61.5411 95.8499C61.6503 96.248 61.8059 96.8174 62.0051 97.5454C62.4019 99.0301 62.9711 101.162 63.674 103.793C65.0668 109.083 66.988 116.381 69.1132 124.454L69.1168 124.468L69.1164 124.483C69.1136 124.554 69.11 124.631 69.1072 124.709C68.75 133.077 68.4264 140.652 68.1916 146.149C68.0648 148.884 67.962 151.101 67.8904 152.647C67.8504 153.405 67.8196 153.998 67.798 154.413C67.7856 154.607 67.776 154.759 67.7688 154.872C67.7612 154.976 67.7556 155.028 67.752 155.028Z" fill="#455A64"/>
<path d="M64.6917 123.799C64.7013 123.854 63.7729 124.052 62.6177 124.243C61.7553 124.385 61.0105 124.483 60.6853 124.5L60.6849 124.422C60.7929 124.451 60.8509 124.473 60.8485 124.487C60.8465 124.501 60.7837 124.505 60.6721 124.5L60.4297 124.49L60.6717 124.422C60.9845 124.334 61.7205 124.188 62.5829 124.046C63.7373 123.855 64.6817 123.745 64.6917 123.799Z" fill="#455A64"/>
<path d="M64.5123 124.903C64.5043 124.959 63.6711 124.897 62.6451 124.821C61.6191 124.744 60.7859 124.681 60.7871 124.624C60.7883 124.57 61.6287 124.544 62.6615 124.622C63.6935 124.698 64.5199 124.849 64.5123 124.903Z" fill="#455A64"/>
<path opacity="0.2" d="M44.9902 95.8729C45.419 96.4523 46.0306 96.6554 46.7414 96.7671C47.4518 96.8788 48.177 96.8043 48.8922 96.7279C53.4702 96.2403 58.3215 95.7907 62.8051 94.7422C57.0015 95.0543 50.8726 94.9491 45.069 95.2613C45.069 95.2613 45.0194 95.6444 45.0078 95.7366" fill="black"/>
<g opacity="0.2">
<path d="M50.9727 103.725L54.2423 115.908L54.0135 104.238L50.9727 103.725Z" fill="black"/>
</g>
</svg>
