<svg width="16" height="15" viewBox="0 0 16 15" fill="none" xmlns="http://www.w3.org/2000/svg">
<path d="M15.5342 1.87513C15.5332 1.87513 15.5322 1.875 15.5312 1.875H11.2812V1.40625C11.2812 0.630844 10.6504 0 9.875 0H6.125C5.34959 0 4.71875 0.630875 4.71875 1.40625V1.875H0.46875C0.20775 1.875 0 2.08887 0 2.34375V12.6562C0 13.4317 0.630875 14.0625 1.40625 14.0625H14.5938C15.3692 14.0625 16 13.4316 16 12.6562V2.35181C15.9821 2.04394 15.7927 1.87681 15.5342 1.87513ZM5.65625 1.40625C5.65625 1.14781 5.86656 0.9375 6.125 0.9375H9.875C10.1334 0.9375 10.3438 1.14781 10.3438 1.40625V1.875H5.65625V1.40625ZM14.8809 2.8125L13.4252 7.17944C13.3942 7.27282 13.3345 7.35405 13.2547 7.4116C13.1749 7.46915 13.079 7.50008 12.9806 7.5H10.3438V7.03125C10.3438 6.77234 10.1339 6.5625 9.875 6.5625H6.125C5.86609 6.5625 5.65625 6.77234 5.65625 7.03125V7.5H3.01941C2.92101 7.50009 2.82509 7.46916 2.74529 7.41161C2.66548 7.35406 2.60584 7.27282 2.57484 7.17944L1.11916 2.8125H14.8809ZM9.40625 7.5V8.4375H6.59375V7.5H9.40625ZM15.0625 12.6562C15.0625 12.9147 14.8522 13.125 14.5938 13.125H1.40625C1.14781 13.125 0.9375 12.9147 0.9375 12.6562V5.23231L1.68544 7.47594C1.77849 7.75608 1.95747 7.99978 2.19694 8.1724C2.4364 8.34501 2.72418 8.43778 3.01938 8.4375H5.65625V8.90625C5.65625 9.16516 5.86609 9.375 6.125 9.375H9.875C10.1339 9.375 10.3438 9.16516 10.3438 8.90625V8.4375H12.9806C13.2758 8.43778 13.5636 8.34502 13.8031 8.17241C14.0425 7.99979 14.2215 7.75609 14.3146 7.47594L15.0625 5.23231V12.6562Z" fill="#666666"/>
</svg>
