<svg width="44" height="44" viewBox="0 0 44 44" fill="none" xmlns="http://www.w3.org/2000/svg">
<g clip-path="url(#clip0_34_188)">
<path d="M8.14229 38.9828C7.74968 38.9828 7.43262 38.6654 7.43262 38.2732V34.8515C7.43262 34.4593 7.74968 34.1419 8.14229 34.1419C8.53456 34.1419 8.85198 34.4593 8.85198 34.8515V38.2732C8.85198 38.6647 8.53387 38.9828 8.14229 38.9828Z" fill="#002A54"/>
<path d="M23.0823 40.0266H0.709683C0.317069 40.0266 0 39.7094 0 39.3169V32.3663C0 25.9643 3.92612 20.2366 9.76887 18.1152C10.0107 18.0265 10.2796 18.0771 10.4727 18.2437C12.0844 19.624 14.1177 20.3849 16.1994 20.3849C18.2906 20.3849 20.3302 19.6198 21.9426 18.2295C22.1371 18.0629 22.4083 18.0123 22.6489 18.1003C24.1576 18.6492 25.5634 19.4476 26.8272 20.4743C27.0005 20.614 27.0978 20.8277 27.0891 21.0506C27.0816 21.2727 26.97 21.4793 26.7877 21.6064L26.7018 21.6667L26.3116 21.1102L25.9332 21.5766C24.8977 20.7355 23.758 20.0648 22.5393 19.5779C20.7249 21.0166 18.4902 21.805 16.1994 21.805C13.9188 21.805 11.6907 21.0222 9.87871 19.5928C4.80248 21.6161 1.41936 26.6975 1.41936 32.3663V38.6071H23.0823V40.0266Z" fill="#002A54"/>
<path d="M16.1995 21.8043C10.4267 21.8043 5.73096 16.9132 5.73096 10.9023C5.73096 4.89117 10.4267 0 16.1995 0C21.9718 0 26.6686 4.89048 26.6686 10.9013C26.6686 16.9124 21.9718 21.8043 16.1995 21.8043ZM16.1995 1.41936C11.2096 1.41936 7.15032 5.67328 7.15032 10.9013C7.15032 16.1303 11.2096 20.3842 16.1995 20.3842C21.1891 20.3842 25.2493 16.1303 25.2493 10.9013C25.2493 5.67328 21.1891 1.41936 16.1995 1.41936Z" fill="#002A54"/>
<path d="M31.6563 36.4782C31.3604 36.4782 31.063 36.4514 30.7671 36.3967C29.4648 36.1549 28.3272 35.4039 27.5622 34.2805C26.8015 33.1598 26.5124 31.817 26.7488 30.5013C26.9865 29.1828 27.7253 28.0295 28.829 27.253C29.9369 26.4747 31.2654 26.1815 32.569 26.4207C33.872 26.6629 35.009 27.4142 35.7724 28.5376L35.7782 28.5455C36.5312 29.6852 36.8178 31.0253 36.5867 32.3161C36.3486 33.6339 35.6109 34.7871 34.5065 35.5636C33.6499 36.1652 32.6619 36.4782 31.6563 36.4782ZM31.6812 27.7579C30.9643 27.7579 30.2592 27.9821 29.6458 28.4142C28.8495 28.9735 28.3172 29.8037 28.147 30.7526C27.9765 31.7007 28.1865 32.6702 28.7375 33.4828C29.2868 34.2902 30.1001 34.8291 31.0271 35.0016C31.9494 35.1717 32.8969 34.9604 33.6904 34.4025C34.4867 33.8431 35.019 33.013 35.1891 32.0649C35.3558 31.1358 35.1451 30.1648 34.5959 29.3311C34.048 28.5257 33.2361 27.9876 32.3099 27.8161C32.0999 27.7776 31.8906 27.7579 31.6812 27.7579Z" fill="#002A54"/>
<path d="M31.8361 44.0001C31.746 44.0001 31.6545 43.9919 31.5638 43.9752L27.4041 43.2045C26.6095 43.0569 26.0997 42.3133 26.244 41.5114L26.5759 39.6634C26.5298 39.6329 26.4858 39.6018 26.4449 39.5706L26.3916 39.5356L24.8564 40.615C24.5789 40.8274 24.1915 40.923 23.8155 40.86C23.4271 40.7966 23.078 40.5731 22.8566 40.2466L20.4594 36.7211C20.25 36.4367 20.1607 36.0575 20.2238 35.6757C20.2868 35.2903 20.5048 34.9417 20.8226 34.7189L22.3251 33.6346C22.313 33.5764 22.3029 33.521 22.2938 33.4693C22.2887 33.443 22.2845 33.4159 22.2804 33.3882L20.4663 33.0521C20.0945 32.9824 19.7601 32.7597 19.5501 32.4395C19.3345 32.1102 19.2657 31.717 19.3543 31.3317L20.108 27.1377C20.1783 26.7458 20.3904 26.4099 20.7068 26.1909C21.0215 25.973 21.4062 25.8926 21.7907 25.9637L23.5913 26.2981C23.6193 26.2533 23.6485 26.2107 23.6775 26.1709L23.7223 26.0984L22.6515 24.5239C22.4429 24.2407 22.3535 23.8623 22.4152 23.4804C22.4782 23.0951 22.6962 22.7462 23.0133 22.5223L26.4844 20.0824C26.7627 19.8711 27.1508 19.7775 27.5257 19.8378C27.9139 19.9009 28.2631 20.1244 28.4845 20.4508L29.5498 22.0171C29.5695 22.0122 29.5893 22.0066 29.6086 22.0015C29.6318 21.9945 29.6562 21.9887 29.6808 21.9845C29.7057 21.9797 29.7314 21.9752 29.757 21.9716L30.0897 20.1202C30.1614 19.7269 30.3735 19.3921 30.6902 19.1728C31.0038 18.9556 31.3878 18.8761 31.7731 18.9465L35.9126 19.7138C36.7076 19.861 37.217 20.605 37.0728 21.4068L36.7402 23.2549C36.7869 23.2854 36.8309 23.3165 36.8722 23.3477L36.9252 23.3827L38.4603 22.3033C38.7385 22.0915 39.1267 21.9973 39.5016 22.0583C39.8897 22.1214 40.239 22.3449 40.4605 22.6717L42.839 26.1958C43.0462 26.4768 43.1356 26.8552 43.074 27.2368C43.0108 27.6221 42.7929 27.9714 42.4758 28.1949L40.9259 29.2837C40.932 29.3121 40.9386 29.3398 40.9456 29.3658C40.9522 29.3886 40.9577 29.4112 40.9612 29.4355C40.9664 29.4632 40.9712 29.4909 40.9754 29.5193L42.7887 29.8555C43.5154 29.9905 44.0245 30.6632 44.0002 31.4532C43.9988 31.4879 43.9953 31.5225 43.9887 31.5568L43.2288 35.7859C43.1578 36.1782 42.9457 36.5139 42.6283 36.7332C42.3133 36.9501 41.9301 37.0278 41.5447 36.9588L39.7456 36.6244C39.7172 36.6691 39.688 36.7118 39.6589 36.7516L39.6142 36.8233L40.6853 38.3986C40.8946 38.6835 40.9841 39.0622 40.9209 39.4441C40.8576 39.8294 40.64 40.178 40.3219 40.4008L36.8521 42.84C36.5742 43.0521 36.1874 43.147 35.8111 43.0854C35.4237 43.0216 35.0744 42.7988 34.8523 42.473L33.7923 40.913C33.7458 40.9223 33.7004 40.931 33.6564 40.9393C33.6311 40.9435 33.6061 40.9487 33.5799 40.9522L33.2472 42.8029C33.1768 43.1948 32.9647 43.5303 32.648 43.7497C32.4076 43.9142 32.1272 44.0001 31.8361 44.0001ZM26.3971 37.9544C26.5711 37.9544 26.7443 38.0185 26.8798 38.144C26.9522 38.2108 27.0354 38.261 27.1182 38.3158L27.2807 38.4236C27.3518 38.4763 27.4568 38.5477 27.6626 38.6429C27.9558 38.7784 28.1211 39.0948 28.0636 39.4129L27.6415 41.7626L31.8226 42.5794L32.2727 40.2005C32.3223 39.9237 32.5296 39.704 32.8029 39.6364C32.9488 39.601 33.0923 39.5817 33.2309 39.5647C33.2888 39.557 33.3455 39.5504 33.4003 39.5407C33.4862 39.5248 33.6949 39.486 33.829 39.4326C34.1399 39.3086 34.494 39.4171 34.6807 39.6919L36.027 41.6725L39.5058 39.2376L38.1637 37.2149C37.9807 36.9453 38.0039 36.5856 38.2219 36.3427C38.2881 36.2689 38.3377 36.1837 38.3917 36.0987L38.4981 35.9342C38.5497 35.8624 38.6207 35.7537 38.7167 35.5416C38.8502 35.2435 39.1659 35.0775 39.4937 35.134L41.8042 35.5627L42.5802 31.37C42.5736 31.2977 42.5431 31.2543 42.5296 31.2516L40.2189 30.8229C39.943 30.7716 39.723 30.5623 39.6582 30.2886C39.6229 30.1417 39.6052 29.9982 39.5883 29.8606C39.5823 29.81 39.5768 29.7598 39.5696 29.7123C39.5504 29.6392 39.5335 29.5626 39.5179 29.4837C39.5009 29.4029 39.4867 29.3183 39.4576 29.2424C39.3377 28.9378 39.4427 28.5917 39.7095 28.4028L41.6584 27.0333L39.2843 23.4669L37.3279 24.8346C37.0531 25.027 36.6826 25.002 36.437 24.7743C36.3648 24.7075 36.2817 24.6572 36.1985 24.6025L36.036 24.4947C35.965 24.442 35.8593 24.3696 35.6541 24.2754C35.3606 24.1413 35.195 23.8232 35.2525 23.5054L35.6757 21.1557L31.5146 20.3423L31.0648 22.7212C31.0152 22.9967 30.8087 23.2171 30.5374 23.2846C30.3904 23.3207 30.2481 23.34 30.1094 23.3571C30.0613 23.3634 30.0138 23.3692 29.9683 23.3761C29.8953 23.3956 29.8186 23.4132 29.7414 23.4295C29.6637 23.4458 29.583 23.4599 29.5121 23.4884C29.2025 23.617 28.8463 23.5075 28.6575 23.2306L27.3112 21.2498L23.8324 23.6842L25.1745 25.7068C25.3582 25.9772 25.3339 26.3379 25.1149 26.5804C25.0495 26.6536 25.0006 26.7374 24.9473 26.8217L24.8401 26.988C24.7885 27.0594 24.7175 27.1682 24.6215 27.3802C24.4881 27.6782 24.1745 27.8442 23.8446 27.7877L21.5336 27.3591L20.7467 31.6171L23.0382 32.084C23.3137 32.1352 23.5331 32.3438 23.5989 32.6162C23.6342 32.7645 23.653 32.9086 23.67 33.0477C23.6769 33.1072 23.6841 33.1655 23.6932 33.2216C23.708 33.3062 23.7459 33.5223 23.8006 33.6638C23.9191 33.9652 23.8176 34.3083 23.5549 34.4975L21.6466 35.8746L24.0317 39.4476L25.99 38.0823C26.1126 37.997 26.2554 37.9544 26.3971 37.9544Z" fill="#002A54"/>
</g>
<defs>
<clipPath id="clip0_34_188">
<rect width="44" height="44" fill="white"/>
</clipPath>
</defs>
</svg>
