<svg width="149" height="126" viewBox="0 0 149 126" fill="none" xmlns="http://www.w3.org/2000/svg">
<circle cx="75" cy="63" r="63" fill="#E4EDF7"/>
<g clip-path="url(#clip0_733_2174)">
<path d="M148.036 104.786H65.07C64.8144 104.785 64.5693 104.679 64.3885 104.489C64.2077 104.3 64.106 104.043 64.1057 103.775V23.0108C64.106 22.7428 64.2077 22.4859 64.3885 22.2964C64.5693 22.107 64.8144 22.0004 65.07 22H148.036C148.291 22.0004 148.536 22.107 148.717 22.2964C148.898 22.4859 149 22.7428 149 23.0108V103.775C149 104.043 148.898 104.299 148.717 104.489C148.537 104.678 148.291 104.785 148.036 104.786ZM65.07 22.4035C64.9168 22.4039 64.77 22.4678 64.6616 22.5814C64.5533 22.695 64.4923 22.8489 64.4919 23.0095V103.775C64.4923 103.935 64.5533 104.089 64.6616 104.203C64.77 104.316 64.9168 104.38 65.07 104.381H148.036C148.189 104.38 148.336 104.316 148.444 104.203C148.553 104.089 148.614 103.935 148.614 103.775V23.0108C148.613 22.8502 148.552 22.6963 148.444 22.5827C148.336 22.4692 148.189 22.4052 148.036 22.4049L65.07 22.4035Z" fill="#102A54"/>
<path d="M104.273 42.9868C104.099 42.9868 103.933 43.0591 103.81 43.1878C103.687 43.3165 103.618 43.491 103.618 43.673C103.618 43.855 103.687 44.0296 103.81 44.1582C103.933 44.2869 104.099 44.3592 104.273 44.3592H140.196C140.369 44.3592 140.536 44.2869 140.659 44.1582C140.781 44.0296 140.85 43.855 140.85 43.673C140.85 43.491 140.781 43.3165 140.659 43.1878C140.536 43.0591 140.369 42.9868 140.196 42.9868H104.273Z" fill="#102A54"/>
<path d="M104.273 47.1046C104.099 47.1046 103.933 47.1769 103.81 47.3056C103.687 47.4343 103.618 47.6089 103.618 47.7909C103.618 47.9729 103.687 48.1474 103.81 48.2761C103.933 48.4048 104.099 48.4771 104.273 48.4771H122.612C122.786 48.4771 122.952 48.4048 123.075 48.2761C123.198 48.1474 123.267 47.9729 123.267 47.7909C123.267 47.6089 123.198 47.4343 123.075 47.3056C122.952 47.1769 122.786 47.1046 122.612 47.1046H104.273Z" fill="#102A54"/>
<path d="M72.8749 67.0356C72.7013 67.0356 72.5347 67.1079 72.412 67.2366C72.2892 67.3653 72.2202 67.5398 72.2202 67.7218C72.2202 67.9038 72.2892 68.0784 72.412 68.2071C72.5347 68.3358 72.7013 68.4081 72.8749 68.4081H140.231C140.404 68.4081 140.571 68.3358 140.694 68.2071C140.816 68.0784 140.885 67.9038 140.885 67.7218C140.885 67.5398 140.816 67.3653 140.694 67.2366C140.571 67.1079 140.404 67.0356 140.231 67.0356H72.8749Z" fill="#102A54"/>
<path d="M72.8749 71.1534C72.7013 71.1534 72.5347 71.2257 72.412 71.3544C72.2892 71.4831 72.2202 71.6577 72.2202 71.8397C72.2202 72.0217 72.2892 72.1962 72.412 72.3249C72.5347 72.4536 72.7013 72.5259 72.8749 72.5259H122.647C122.821 72.5259 122.987 72.4536 123.11 72.3249C123.233 72.1962 123.302 72.0217 123.302 71.8397C123.302 71.6577 123.233 71.4831 123.11 71.3544C122.987 71.2257 122.821 71.1534 122.647 71.1534H72.8749Z" fill="#102A54"/>
<path d="M72.8749 75.1781C72.7013 75.1781 72.5347 75.2504 72.412 75.3791C72.2892 75.5078 72.2202 75.6824 72.2202 75.8644C72.2202 76.0464 72.2892 76.2209 72.412 76.3496C72.5347 76.4783 72.7013 76.5506 72.8749 76.5506H140.231C140.404 76.5506 140.571 76.4783 140.694 76.3496C140.816 76.2209 140.885 76.0464 140.885 75.8644C140.885 75.6824 140.816 75.5078 140.694 75.3791C140.571 75.2504 140.404 75.1781 140.231 75.1781H72.8749Z" fill="#102A54"/>
<path d="M72.8749 79.296C72.7013 79.296 72.5347 79.3683 72.412 79.497C72.2892 79.6257 72.2202 79.8002 72.2202 79.9822C72.2202 80.1642 72.2892 80.3388 72.412 80.4675C72.5347 80.5962 72.7013 80.6684 72.8749 80.6684H122.647C122.821 80.6684 122.987 80.5962 123.11 80.4675C123.233 80.3388 123.302 80.1642 123.302 79.9822C123.302 79.8002 123.233 79.6257 123.11 79.497C122.987 79.3683 122.821 79.296 122.647 79.296H72.8749Z" fill="#102A54"/>
<path d="M95.1942 57.4452H43.1191C42.8634 57.4449 42.6183 57.3383 42.4375 57.1488C42.2568 56.9593 42.1551 56.7024 42.1548 56.4344V32.4789C42.1551 32.211 42.2568 31.954 42.4375 31.7645C42.6183 31.575 42.8634 31.4684 43.1191 31.4681H95.1942C95.4498 31.4684 95.6949 31.575 95.8757 31.7645C96.0565 31.954 96.1582 32.211 96.1585 32.4789V56.4344C96.1582 56.7024 96.0565 56.9593 95.8757 57.1488C95.6949 57.3383 95.4498 57.4449 95.1942 57.4452Z" fill="#FF491D"/>
<path d="M139.814 95.3174H120.075C119.819 95.3171 119.574 95.2105 119.394 95.021C119.213 94.8315 119.111 94.5746 119.111 94.3066V90.9915C119.111 90.7235 119.213 90.4665 119.394 90.277C119.574 90.0876 119.819 89.981 120.075 89.9807H139.814C140.07 89.981 140.315 90.0876 140.496 90.277C140.677 90.4665 140.778 90.7235 140.778 90.9915V94.3066C140.778 94.5746 140.677 94.8315 140.496 95.021C140.315 95.2105 140.07 95.3171 139.814 95.3174Z" fill="#FF491D"/>
<path d="M22.8404 62.544C21.9898 61.8783 21.7401 60.6344 22.2828 59.7656C22.3368 59.6805 22.3977 59.6006 22.4651 59.5268L22.5194 41.8292L25.0291 42.3204L25.1393 59.7264C25.7111 60.4216 25.8265 61.4348 25.3634 62.1761C24.8207 63.0449 23.6911 63.2096 22.8404 62.544Z" fill="#FFB8B8"/>
<path d="M35.8917 102.157L38.479 102.156L39.7099 91.6958L35.8914 91.696L35.8917 102.157Z" fill="#FFB8B8"/>
<path d="M35.2317 101.271L40.327 101.271H40.3272C41.1883 101.271 42.0142 101.63 42.6231 102.268C43.2321 102.906 43.5742 103.772 43.5743 104.675V104.785L35.2318 104.786L35.2317 101.271Z" fill="#2F2E41"/>
<path d="M11.8336 102.157L14.421 102.156L15.6518 91.6958L11.8333 91.696L11.8336 102.157Z" fill="#FFB8B8"/>
<path d="M11.1736 101.271L16.2689 101.271H16.2691C17.1302 101.271 17.9561 101.63 18.565 102.268C19.174 102.906 19.5161 103.772 19.5162 104.675V104.785L11.1737 104.786L11.1736 101.271Z" fill="#2F2E41"/>
<path d="M35.7407 99.2349L35.5238 97.8711C35.3011 97.7894 35.1118 97.6301 34.9875 97.4198C34.7547 97.0342 34.7176 96.4914 34.8772 95.8064L33.1315 80.3531L24.0177 70.4412L18.1709 85.2235L15.8564 96.9213V98.6114L11.2354 99.2334L11.4456 97.6404C11.2689 97.561 11.1216 97.4234 11.026 97.2484C10.7605 96.7852 10.7642 96.0672 11.0368 95.1147L11.0486 95.0734L11.0335 94.9311C11.023 94.8314 11.0924 85.2765 13.8022 80.5425L16.516 66.1696C16.4455 65.9672 16.0976 64.7887 16.7357 62.7972C17.3654 60.832 19.1267 57.6659 23.9411 53.7436L23.9576 53.7302L23.9781 53.7257C24.0315 53.7141 29.3415 52.6075 32.0877 56.3719L32.1062 56.3973V56.4294C32.1062 56.6621 32.1014 62.0781 31.6929 63.2798L38.2094 75.8397C38.3363 75.9806 39.4755 77.3597 39.0709 80.9855L40.1236 93.3447C40.2441 93.5857 41.3337 95.8558 40.1327 96.7544L40.348 98.3149L35.7407 99.2349Z" fill="#2F2E41"/>
<path d="M24.8393 47.2986C23.6158 47.2986 21.9898 46.8452 20.9944 44.7557L20.9749 44.7146L23.427 39.266C23.7447 38.5601 24.3133 38.0125 25.0112 37.7405C25.7091 37.4684 26.4809 37.4935 27.1614 37.8104C27.8419 38.1272 28.377 38.7106 28.6524 39.4358C28.9277 40.161 28.9214 40.9703 28.6347 41.6907L26.5147 47.018L26.4778 47.0324C25.9484 47.2106 25.3954 47.3005 24.8393 47.2986Z" fill="#FF491D"/>
<path d="M31.6317 58.1013L23.9014 54.2749L24.964 40.686L26.9012 38.2042L27.2764 38.1199C29.0011 37.7329 30.7932 37.8369 32.4665 38.4213L32.5033 38.4341L35.6853 45.5497C35.7053 45.5852 38 49.832 34.8277 52.0711L31.6317 58.1013Z" fill="#FF491D"/>
<path d="M42.2591 53.7707C42.1668 53.811 42.0778 53.8588 41.9927 53.9138L33.8468 50.008L33.6379 47.7374L30.3277 47.6201L30.325 51.6774C30.3247 52.0051 30.4259 52.3241 30.6134 52.5865C30.8009 52.8488 31.0644 53.0403 31.3646 53.1323L41.1464 56.1289C41.2468 56.5185 41.4581 56.8668 41.752 57.1275C42.0459 57.3882 42.4086 57.5489 42.7918 57.5883C43.175 57.6276 43.5605 57.5438 43.8971 57.3478C44.2337 57.1519 44.5055 56.8532 44.6762 56.4914C44.8469 56.1297 44.9085 55.722 44.8527 55.3227C44.797 54.9233 44.6266 54.5512 44.3642 54.2559C44.1018 53.9605 43.7599 53.7559 43.3838 53.6692C43.0078 53.5826 42.6155 53.6179 42.2591 53.7707Z" fill="#FFB8B8"/>
<path d="M32.2954 48.7064C31.3672 48.7064 30.3197 48.3699 29.3142 47.3159L29.2832 47.2835L29.9626 41.3012C30.0506 40.5262 30.4245 39.818 31.0043 39.3282C31.5841 38.8385 32.3237 38.606 33.0649 38.6806C33.8061 38.7552 34.49 39.1309 34.9703 39.7273C35.4506 40.3238 35.6892 41.0935 35.6349 41.872L35.2339 47.6288L35.2032 47.6546C35.1835 47.6712 33.9232 48.7064 32.2954 48.7064Z" fill="#FF491D"/>
<path d="M34.7794 33.4704C36.1525 30.8374 35.2293 27.5362 32.7175 26.0969C30.2057 24.6575 27.0563 25.6252 25.6832 28.2582C24.3101 30.8912 25.2333 34.1924 27.7451 35.6317C30.2569 37.071 33.4063 36.1034 34.7794 33.4704Z" fill="#FFB8B8"/>
<path d="M35.5064 27.9855C35.2492 26.4174 34.0484 25.1175 32.6178 24.5856C31.1872 24.0538 29.574 24.2267 28.1731 24.8392C27.9398 24.9417 27.7117 25.0567 27.4896 25.1837C26.9776 24.1606 25.7222 23.5672 24.574 23.6313C23.1869 23.7086 21.9342 24.478 20.7294 25.2031C19.5247 25.9282 18.232 26.6496 16.8431 26.6159C14.3334 26.5549 12.4662 24.1158 10.0529 23.391C8.97853 23.0683 7.83539 23.1009 6.7794 23.4844C5.72342 23.8679 4.80603 24.5836 4.1524 25.5338C3.49876 26.484 3.14071 27.6224 3.12711 28.7938C3.11351 29.9652 3.44501 31.1124 4.07639 32.079C5.10611 30.1447 7.52431 29.4913 9.62258 29.7547C11.7208 30.018 13.6763 30.9821 15.7319 31.4956C17.7876 32.0092 20.1683 31.9871 21.7605 30.5308C22.6637 29.7047 23.194 28.524 23.9803 27.5757C24.5122 26.9342 25.2694 26.3926 26.043 26.2651C25.281 26.9845 24.6992 27.889 24.3488 28.8993C23.7285 30.7469 24.0601 32.9652 25.3471 34.3853C26.7267 35.9078 28.8921 36.3135 30.8952 36.2889L30.9371 36.2443C30.3238 35.282 29.8398 33.9477 30.5151 33.0321C31.1816 32.1283 32.4963 32.2615 33.5171 31.8616C34.9389 31.3046 35.7636 29.5536 35.5064 27.9855Z" fill="#2F2E41"/>
<path d="M49.4976 105H0.180648C0.132737 105 0.0867886 104.98 0.0529105 104.945C0.0190324 104.909 0 104.861 0 104.811C0 104.76 0.0190324 104.712 0.0529105 104.677C0.0867886 104.641 0.132737 104.621 0.180648 104.621H49.4976C49.5455 104.621 49.5915 104.641 49.6253 104.677C49.6592 104.712 49.6782 104.76 49.6782 104.811C49.6782 104.861 49.6592 104.909 49.6253 104.945C49.5915 104.98 49.5455 105 49.4976 105Z" fill="#CCCCCC"/>
<path d="M66.8201 39.87C66.5939 39.8708 66.4109 40.1786 66.4114 40.5576C66.4118 40.9355 66.5945 41.2417 66.8201 41.2425H86.1258C86.352 41.2417 86.535 40.9339 86.5345 40.5549C86.5341 40.1769 86.3514 39.8707 86.1258 39.87H66.8201Z" fill="white"/>
<path d="M66.8201 43.8466C66.5939 43.8473 66.4109 44.1552 66.4114 44.5342C66.4118 44.9121 66.5945 45.2183 66.8201 45.219H86.1258C86.352 45.2183 86.535 44.9104 86.5345 44.5314C86.5341 44.1535 86.3514 43.8473 86.1258 43.8466H66.8201Z" fill="white"/>
<path d="M66.8201 47.7751C66.5939 47.7758 66.4109 48.0837 66.4114 48.4627C66.4118 48.8406 66.5945 49.1468 66.8201 49.1475H75.1274C75.3535 49.1468 75.5365 48.8389 75.536 48.4599C75.5356 48.082 75.3529 47.7758 75.1274 47.7751H66.8201Z" fill="white"/>
<path d="M57.0176 49.9481C59.9109 49.9481 62.2564 47.4895 62.2564 44.4567C62.2564 41.4238 59.9109 38.9652 57.0176 38.9652C54.1243 38.9652 51.7788 41.4238 51.7788 44.4567C51.7788 47.4895 54.1243 49.9481 57.0176 49.9481Z" fill="white"/>
</g>
<defs>
<clipPath id="clip0_733_2174">
<rect width="149" height="83" fill="white" transform="translate(0 22)"/>
</clipPath>
</defs>
</svg>
