<svg width="34" height="46" viewBox="0 0 34 46" fill="none" xmlns="http://www.w3.org/2000/svg">
<g clip-path="url(#clip0_34_232)">
<path d="M25.0666 9.02013H8.93627C8.5381 9.02013 8.21777 8.69968 8.21777 8.30138V4.30332C8.21777 3.12039 9.17876 2.15906 10.3613 2.15906H12.7053C13.1036 2.15906 13.4239 2.47951 13.4239 2.87781C13.4239 3.27612 13.1036 3.59656 12.7053 3.59656H10.3613C9.97211 3.59656 9.65477 3.914 9.65477 4.30332V7.57963H24.3481V4.30332C24.3481 3.914 24.0307 3.59656 23.6416 3.59656H21.2975C20.8992 3.59656 20.5789 3.27612 20.5789 2.87781C20.5789 2.47951 20.8992 2.15906 21.2975 2.15906H23.6416C24.8241 2.15906 25.785 3.12039 25.785 4.30332V8.29838C25.785 8.69669 25.4647 9.02013 25.0666 9.02013Z" fill="#002A54"/>
<path d="M31.9822 46H2.02078C0.907105 46 0 45.0925 0 43.9785V6.78321C0 5.66915 0.907105 4.76172 2.02078 4.76172H8.93633C9.33451 4.76172 9.65483 5.08217 9.65483 5.48047C9.65483 5.87878 9.33451 6.19922 8.93633 6.19922H2.02078C1.69745 6.19922 1.437 6.46276 1.437 6.78321V43.9785C1.437 44.3019 1.70045 44.5625 2.02078 44.5625H31.9793C32.3025 44.5625 32.563 44.2989 32.563 43.9785V6.78321C32.563 6.45977 32.2995 6.19922 31.9793 6.19922H25.0637C24.6655 6.19922 24.3451 5.87878 24.3451 5.48047C24.3451 5.08217 24.6655 4.76172 25.0637 4.76172H31.9793C33.0929 4.76172 34 5.66915 34 6.78321V43.9785C34.0029 45.0925 33.0958 46 31.9822 46Z" fill="#002A54"/>
<path d="M21.2969 5.29779H12.7047C12.3066 5.29779 11.9863 4.97734 11.9863 4.57904V1.3177C11.9863 0.589974 12.5761 0 13.3036 0H20.6981C21.4256 0 22.0153 0.589974 22.0153 1.3177V4.57904C22.0153 4.97734 21.692 5.29779 21.2969 5.29779ZM13.4233 3.86029H20.5784V1.4375H13.4233V3.86029Z" fill="#002A54"/>
<path d="M28.958 30.0465H11.5493C11.1511 30.0465 10.8308 29.7261 10.8308 29.3278C10.8308 28.9295 11.1511 28.609 11.5493 28.609H28.958C29.3561 28.609 29.6764 28.9295 29.6764 29.3278C29.6764 29.7261 29.3532 30.0465 28.958 30.0465Z" fill="#002A54"/>
<path d="M6.09203 30.6514C5.90941 30.6514 5.7238 30.5825 5.58309 30.4418L4.53528 29.3937C4.25386 29.1122 4.25386 28.6569 4.53528 28.3783C4.81669 28.0999 5.27175 28.0968 5.55016 28.3783L6.08904 28.9175L8.00803 26.9978C8.28944 26.7162 8.74449 26.7162 9.02291 26.9978C9.30432 27.2793 9.30432 27.7345 9.02291 28.013L6.59797 30.4388C6.46026 30.5825 6.27464 30.6514 6.09203 30.6514Z" fill="#002A54"/>
<path d="M28.958 35.9223H11.5493C11.1511 35.9223 10.8308 35.6019 10.8308 35.2036C10.8308 34.8053 11.1511 34.4848 11.5493 34.4848H28.958C29.3561 34.4848 29.6764 34.8053 29.6764 35.2036C29.6764 35.6019 29.3532 35.9223 28.958 35.9223Z" fill="#002A54"/>
<path d="M6.09203 36.5303C5.90043 36.5303 5.71781 36.4555 5.58309 36.3207L4.53528 35.2725C4.25386 34.9909 4.25386 34.5358 4.53528 34.2572C4.81669 33.9787 5.27175 33.9757 5.55016 34.2572L6.08904 34.7962L8.00504 32.8767C8.28645 32.5951 8.74149 32.5951 9.01992 32.8767C9.30132 33.1582 9.30132 33.6134 9.01992 33.8919L6.59498 36.3177C6.46624 36.4525 6.28363 36.5303 6.09203 36.5303Z" fill="#002A54"/>
<path d="M28.958 41.7982H11.5493C11.1511 41.7982 10.8308 41.4777 10.8308 41.0794C10.8308 40.681 11.1511 40.3607 11.5493 40.3607H28.958C29.3561 40.3607 29.6764 40.681 29.6764 41.0794C29.6764 41.4777 29.3532 41.7982 28.958 41.7982Z" fill="#002A54"/>
<path d="M6.09203 42.4059C5.90941 42.4059 5.7238 42.337 5.58309 42.1962L4.53528 41.148C4.25386 40.8665 4.25386 40.4113 4.53528 40.1328C4.81669 39.8543 5.27175 39.8513 5.55016 40.1328L6.08904 40.6719L8.00504 38.7552C8.28645 38.4737 8.74149 38.4737 9.01992 38.7552C9.30132 39.0367 9.30132 39.4919 9.01992 39.7704L6.59498 42.1962C6.46026 42.337 6.27464 42.4059 6.09203 42.4059Z" fill="#002A54"/>
<path d="M21.8057 23.2696C21.5094 23.2696 21.234 23.0868 21.1291 22.7934C20.5364 21.1343 18.9556 20.0172 17.1924 20.0172H16.8122C15.0488 20.0172 13.4682 21.1313 12.8754 22.7934C12.7407 23.1677 12.3305 23.3624 11.9563 23.2276C11.5821 23.0928 11.3875 22.6826 11.5222 22.3082C12.3185 20.0771 14.4441 18.5797 16.8122 18.5797H17.1924C19.5604 18.5797 21.686 20.0771 22.4823 22.3082C22.617 22.6826 22.4194 23.0928 22.0483 23.2276C21.9674 23.2546 21.8866 23.2696 21.8057 23.2696Z" fill="#002A54"/>
<path d="M17.0007 20.0173C15.1177 20.0173 13.5879 18.4839 13.5879 16.6032C13.5879 14.7224 15.1206 13.1891 17.0007 13.1891C18.8837 13.1891 20.4166 14.7224 20.4166 16.6032C20.4166 18.4839 18.8837 20.0173 17.0007 20.0173ZM17.0007 14.6235C15.911 14.6235 15.0248 15.5101 15.0248 16.6002C15.0248 17.6902 15.911 18.5767 17.0007 18.5767C18.0904 18.5767 18.9796 17.6902 18.9796 16.6002C18.9796 15.5101 18.0904 14.6235 17.0007 14.6235Z" fill="#002A54"/>
<path d="M17.0012 25.366C15.0582 25.366 13.232 24.6083 11.8579 23.2337C10.4837 21.8591 9.72632 20.0323 9.72632 18.0886C9.72632 16.145 10.4837 14.3182 11.8579 12.9436C13.232 11.569 15.0582 10.8113 17.0012 10.8113C18.944 10.8113 20.7703 11.569 22.1443 12.9436C23.5185 14.3182 24.2759 16.145 24.2759 18.0886C24.2759 20.0323 23.5185 21.8591 22.1443 23.2337C20.7703 24.6083 18.944 25.366 17.0012 25.366ZM17.0012 12.2488C13.7828 12.2488 11.1633 14.8693 11.1633 18.0886C11.1633 21.308 13.7828 23.9285 17.0012 23.9285C20.2194 23.9285 22.839 21.308 22.839 18.0886C22.839 14.8693 20.2194 12.2488 17.0012 12.2488Z" fill="#002A54"/>
</g>
<defs>
<clipPath id="clip0_34_232">
<rect width="34" height="46" fill="white"/>
</clipPath>
</defs>
</svg>
