<svg xmlns="http://www.w3.org/2000/svg" width="203.515" height="154.719" viewBox="0 0 203.515 154.719">
  <g id="Group_175386" data-name="Group 175386" transform="translate(83.23 -67.762)">
    <g id="Group_175377" data-name="Group 175377">
      <path id="Path_43274" data-name="Path 43274" d="M-46.236,175.921l-9.024.073.015,1.952.114,14.278.016,1.957,1.288-.011.385,2.16A1.657,1.657,0,0,0-51.8,197.7l.756-.006,2.6,13.129a2.027,2.027,0,0,0,2.195,1.8l4.574-.9a2.027,2.027,0,0,0,1.344-2.5c-.346-1.751-2.357-1.448-2.355-1.465.133-1.272-.836-2.657-1.043-2.434,1.18-1.27-.344-4.934-.871-4.4.815-.827.428-2.676-.123-3.695.025-.023.054-.041.078-.066L-42,194.468a21.843,21.843,0,0,1,3.858,1.09c5.815,2.235,12.671,4.869,16.57,6.369l-.274-34.215c-3.874,1.559-10.687,4.3-16.466,6.634A21.732,21.732,0,0,1-46.236,175.921Z" fill="#05264e"/>
      <path id="Path_43275" data-name="Path 43275" d="M-62.311,181.364l.061,7.612a3.332,3.332,0,0,0,3.362,3.3l1.784-.014-.114-14.278L-59,178A3.336,3.336,0,0,0-62.311,181.364Z" fill="#05264e"/>
      <path id="Path_43276" data-name="Path 43276" d="M-17.287,166.034a1.133,1.133,0,0,0-.8-.323,1.126,1.126,0,0,0-1.117,1.135c.035,4.35.251,31.417.285,35.685h.008a1.1,1.1,0,0,0,.327.682,1.119,1.119,0,0,0,.8.323,1.124,1.124,0,0,0,1.117-1.131l-.284-35.577A1.125,1.125,0,0,0-17.287,166.034Z" fill="#05264e"/>
    </g>
    <g id="Group_175383" data-name="Group 175383">
      <g id="Group_175378" data-name="Group 175378">
        <path id="Path_43277" data-name="Path 43277" d="M-83.23,111.4v58.4L94.559,145.483v-58.4Z" fill="#f96f4d"/>
        <path id="Path_43278" data-name="Path 43278" d="M-83.23,163.64v27.886l29.1-33.083Z" fill="#f96f4d"/>
      </g>
      <g id="Group_175379" data-name="Group 175379">
        <path id="Path_43279" data-name="Path 43279" d="M-44.179,138.1v7.308q0,5.05-2.894,7.812a14.149,14.149,0,0,1-8.093,3.474,9.72,9.72,0,0,1-7.5-1.583q-2.892-2.214-2.893-7.022V130.148q0-5.754,2.563-8.957t8.031-3.952a14.408,14.408,0,0,1,4.12-.017,9.2,9.2,0,0,1,3.346,1.157,6.026,6.026,0,0,1,2.293,2.491,8.388,8.388,0,0,1,.834,3.88v6.822l-8.534,1.167v-4.492q0-3.471-2.059-3.19a1.924,1.924,0,0,0-1.619.986,5.094,5.094,0,0,0-.392,2.178V146.5a3.406,3.406,0,0,0,.552,1.988,1.434,1.434,0,0,0,1.459.675,2.27,2.27,0,0,0,1.447-.842,3.687,3.687,0,0,0,.612-2.378v-6.652Z" fill="#05264e"/>
        <path id="Path_43280" data-name="Path 43280" d="M-41.188,143.906V125.479a11.5,11.5,0,0,1,2.637-7.851q2.634-3.018,7.932-3.816,5.443-.672,8.08,1.626t2.636,7.13v18.427a15.185,15.185,0,0,1-.6,4.367,11.93,11.93,0,0,1-1.827,3.685,9.616,9.616,0,0,1-3.322,2.786,13.289,13.289,0,0,1-4.818,1.411,12.211,12.211,0,0,1-4.966-.073,6.6,6.6,0,0,1-3.323-1.876,8.582,8.582,0,0,1-1.828-3.186A13.591,13.591,0,0,1-41.188,143.906Zm10.642,1.774a2,2,0,0,0,.823-.295,1.633,1.633,0,0,0,.563-.635,5.815,5.815,0,0,0,.331-.762,3.987,3.987,0,0,0,.172-.934q.048-.576.062-.882t.011-.84V125.6c0-.1,0-.292.013-.584s.008-.511,0-.656-.017-.357-.024-.64a2.917,2.917,0,0,0-.075-.645c-.041-.148-.089-.336-.146-.563a1.175,1.175,0,0,0-.234-.5c-.1-.108-.212-.221-.342-.341a.912.912,0,0,0-.492-.225,2.3,2.3,0,0,0-.662.006,2.422,2.422,0,0,0-.894.292,1.6,1.6,0,0,0-.6.629q-.219.406-.367.73a2.865,2.865,0,0,0-.2.925c-.033.4-.049.687-.049.856V141.6q0,.534.013.848t.06.914a3.635,3.635,0,0,0,.184.958,5.164,5.164,0,0,0,.355.741,1.217,1.217,0,0,0,.6.537A1.728,1.728,0,0,0-30.546,145.68Z" fill="#05264e"/>
        <path id="Path_43281" data-name="Path 43281" d="M4.644,148.078l-7.749,1.059-4.757-27.245v27.9l-8.289,1.133V112.246l13.144-1.8L.622,130.128l3.605-20.669,13.266-1.814V146.32l-8.386,1.147v-27.9Z" fill="#05264e"/>
        <path id="Path_43282" data-name="Path 43282" d="M21.761,145.736V107.061l8.337-1.14V144.6Z" fill="#05264e"/>
        <path id="Path_43283" data-name="Path 43283" d="M55.552,102.44v38.675l-8.436,1.154L42.8,123.509v19.35l-8.436,1.154V105.338l8.876-1.214,3.973,17.956v-18.5Z" fill="#05264e"/>
        <path id="Path_43284" data-name="Path 43284" d="M77.205,138.154l-1.471-3.076a9.179,9.179,0,0,1-7.112,4.687q-9.342,1.276-9.342-10.692V112.321a14.993,14.993,0,0,1,.735-4.883,10.4,10.4,0,0,1,1.8-3.391,9.508,9.508,0,0,1,2.611-2.117,13.123,13.123,0,0,1,2.808-1.222,20.33,20.33,0,0,1,2.734-.556,19.179,19.179,0,0,1,3.286-.194,7.978,7.978,0,0,1,4.414,1.387,4.453,4.453,0,0,1,1.336,1.468,11.418,11.418,0,0,1,.859,1.825,10.694,10.694,0,0,1,.5,2.238q.173,1.323.234,2.48t.06,2.735l-8.239,1.127v-3.059a4.814,4.814,0,0,0-.195-1.5,1.37,1.37,0,0,0-.553-.787,1.915,1.915,0,0,0-.649-.251,2.3,2.3,0,0,0-.662.006,3.344,3.344,0,0,0-1.19.357,2.375,2.375,0,0,0-.711.583,2.44,2.44,0,0,0-.38,1.107,12.043,12.043,0,0,0-.147,1.465q-.025.683-.025,2.14v14.956a13.452,13.452,0,0,0,.062,1.424,5.705,5.705,0,0,0,.281,1.223,1.609,1.609,0,0,0,.724.933,2.019,2.019,0,0,0,1.287.176,2,2,0,0,0,1.729-1.244,9.493,9.493,0,0,0,.429-3.324v-4.467l-2.305.316v-6.677l10.447-1.429v22.53Z" fill="#05264e"/>
      </g>
      <g id="Group_175380" data-name="Group 175380" opacity="0.2" style="mix-blend-mode: multiply;isolation: isolate">
        <path id="Path_43285" data-name="Path 43285" d="M-19.481,171.136V222.48L89.514,207.574l15.175,13.1v-66.52Z" fill="#fff"/>
        <path id="Path_43286" data-name="Path 43286" d="M-18.978,170.633v51.344L90.017,207.071l15.175,13.1v-66.52Z" fill="#f7f8f9"/>
        <path id="Path_43287" data-name="Path 43287" d="M-18.474,170.13v51.344L90.52,206.568l15.175,13.1v-66.52Z" fill="#eff0f3"/>
        <path id="Path_43288" data-name="Path 43288" d="M-17.971,169.627v51.344L91.023,206.065l15.175,13.1v-66.52Z" fill="#e6e9ed"/>
        <path id="Path_43289" data-name="Path 43289" d="M-17.468,169.124v51.344L91.527,205.562l15.175,13.1v-66.52Z" fill="#dee2e7"/>
        <path id="Path_43290" data-name="Path 43290" d="M-16.965,168.621v51.344L92.03,205.058l15.175,13.1v-66.52Z" fill="#d6dae1"/>
        <path id="Path_43291" data-name="Path 43291" d="M-16.462,168.118v51.344L92.533,204.555l15.175,13.1v-66.52Z" fill="#ced3db"/>
        <path id="Path_43292" data-name="Path 43292" d="M-15.959,167.614v51.345L93.036,204.052l15.175,13.1v-66.52Z" fill="#c5ccd5"/>
        <path id="Path_43293" data-name="Path 43293" d="M-15.456,167.111v51.344L93.539,203.549l15.175,13.1v-66.52Z" fill="#bdc4cf"/>
        <path id="Path_43294" data-name="Path 43294" d="M-14.953,166.608v51.344L94.042,203.046l15.175,13.1v-66.52Z" fill="#b5bdc9"/>
        <path id="Path_43295" data-name="Path 43295" d="M-14.45,166.105V217.45L94.545,202.543l15.175,13.1v-66.52Z" fill="#adb5c3"/>
        <path id="Path_43296" data-name="Path 43296" d="M-13.947,165.6v51.344L95.048,202.04l15.175,13.1V148.62Z" fill="#a5aebd"/>
        <path id="Path_43297" data-name="Path 43297" d="M-13.444,165.1v51.344L95.551,201.537l15.175,13.1v-66.52Z" fill="#9ca7b7"/>
        <path id="Path_43298" data-name="Path 43298" d="M-12.941,164.6V215.94L96.054,201.034l15.175,13.1v-66.52Z" fill="#949fb1"/>
        <path id="Path_43299" data-name="Path 43299" d="M-12.438,164.093v51.344L96.557,200.531l15.175,13.1v-66.52Z" fill="#8c98ab"/>
        <path id="Path_43300" data-name="Path 43300" d="M-11.934,163.59v51.344L97.06,200.028l15.175,13.1v-66.52Z" fill="#8491a5"/>
        <path id="Path_43301" data-name="Path 43301" d="M-11.431,163.087v51.344L97.563,199.525l15.175,13.1V146.1Z" fill="#7b899f"/>
        <path id="Path_43302" data-name="Path 43302" d="M-10.928,162.584v51.344L98.067,199.022l15.175,13.1V145.6Z" fill="#738299"/>
        <path id="Path_43303" data-name="Path 43303" d="M-10.425,162.081v51.344L98.57,198.518l15.175,13.1V145.1Z" fill="#6b7b93"/>
        <path id="Path_43304" data-name="Path 43304" d="M-9.922,161.578v51.344L99.073,198.015l15.175,13.1V144.6Z" fill="#63738d"/>
        <path id="Path_43305" data-name="Path 43305" d="M-9.419,161.074v51.344L99.576,197.512l15.175,13.1v-66.52Z" fill="#5a6c87"/>
        <path id="Path_43306" data-name="Path 43306" d="M-8.916,160.571v51.344l108.995-14.907,15.175,13.1v-66.52Z" fill="#526581"/>
        <path id="Path_43307" data-name="Path 43307" d="M-8.413,160.068v51.344l108.995-14.907,15.175,13.1v-66.52Z" fill="#4a5d7b"/>
        <path id="Path_43308" data-name="Path 43308" d="M-7.91,159.565V210.91L101.085,196l15.175,13.1v-66.52Z" fill="#425675"/>
        <path id="Path_43309" data-name="Path 43309" d="M-7.407,159.062v51.344L101.588,195.5l15.175,13.1V142.08Z" fill="#3a4e6f"/>
        <path id="Path_43310" data-name="Path 43310" d="M-6.9,158.559V209.9L102.091,195l15.175,13.1v-66.52Z" fill="#314769"/>
        <path id="Path_43311" data-name="Path 43311" d="M-6.4,158.056V209.4l108.995-14.907,15.175,13.1v-66.52Z" fill="#294063"/>
        <path id="Path_43312" data-name="Path 43312" d="M-5.9,157.553V208.9L103.1,193.991l15.175,13.1v-66.52Z" fill="#21385d"/>
        <path id="Path_43313" data-name="Path 43313" d="M-5.394,157.05v51.344L103.6,193.488l15.175,13.1v-66.52Z" fill="#193157"/>
        <path id="Path_43314" data-name="Path 43314" d="M-4.891,156.547v51.344L104.1,192.985l15.175,13.1v-66.52Z" fill="#102a51"/>
        <path id="Path_43315" data-name="Path 43315" d="M-4.388,156.044v51.344l108.995-14.907,15.175,13.1v-66.52Z" fill="#08224b"/>
        <path id="Path_43316" data-name="Path 43316" d="M-3.885,155.541v51.344L105.11,191.978l15.175,13.1v-66.52Z" fill="#001b45"/>
      </g>
      <g id="Group_175381" data-name="Group 175381">
        <path id="Path_43317" data-name="Path 43317" d="M-3.885,206.885,120.285,189.9V138.559L-3.885,155.541Z" fill="#05264e"/>
        <path id="Path_43318" data-name="Path 43318" d="M120.285,185.6v19.476L99.959,187.533Z" fill="#05264e"/>
      </g>
      <g id="Group_175382" data-name="Group 175382">
        <path id="Path_43319" data-name="Path 43319" d="M18.962,197.58q-6.009.822-8.57-1.547t-2.563-8.05V184.2l8.535-1.167V186.5q0,3.739,2.059,3.457a2.1,2.1,0,0,0,1.508-.934,3.441,3.441,0,0,0,.552-1.994,6.6,6.6,0,0,0-.43-2.564,5.616,5.616,0,0,0-1.3-1.848,27.832,27.832,0,0,0-2.857-2.268l-3.654-2.633q-4.414-3.159-4.414-7.894,0-5.146,2.662-8.023a11.756,11.756,0,0,1,7.319-3.514l.221-.03,1.3-.178a11.2,11.2,0,0,1,3.09.124,7.524,7.524,0,0,1,3.36,1.362,6.416,6.416,0,0,1,2.207,3.242,17.206,17.206,0,0,1,.735,5.448l-8.754,1.2-.049-2.325a1.421,1.421,0,0,0-.564-1.088,1.514,1.514,0,0,0-1.2-.345,2.471,2.471,0,0,0-1.459.721,1.961,1.961,0,0,0-.6,1.43q0,1.651,2.428,3.261l5.223,3.462a14.873,14.873,0,0,1,2.22,1.772,8.934,8.934,0,0,1,1.495,1.883,17.757,17.757,0,0,1,.9,1.747,6.774,6.774,0,0,1,.477,1.755q.135.966.16,1.46t.024,1.295a23.9,23.9,0,0,1-.27,3.739,14.421,14.421,0,0,1-.956,3.336,9.321,9.321,0,0,1-1.8,2.82,9.626,9.626,0,0,1-2.894,2.035A13.949,13.949,0,0,1,18.962,197.58Z" fill="#f96f4d"/>
        <path id="Path_43320" data-name="Path 43320" d="M31.591,184.976V166.549a11.5,11.5,0,0,1,2.637-7.851q2.635-3.018,7.932-3.816,5.444-.672,8.081,1.626t2.635,7.13v18.427a15.225,15.225,0,0,1-.6,4.367,12,12,0,0,1-1.827,3.685,9.607,9.607,0,0,1-3.323,2.785,13.29,13.29,0,0,1-4.818,1.412,12.192,12.192,0,0,1-4.966-.074,6.593,6.593,0,0,1-3.323-1.876,8.54,8.54,0,0,1-1.827-3.185A13.56,13.56,0,0,1,31.591,184.976Zm10.643,1.774a2,2,0,0,0,.822-.295,1.628,1.628,0,0,0,.563-.636,5.747,5.747,0,0,0,.331-.761,3.941,3.941,0,0,0,.171-.934c.034-.385.054-.679.062-.882s.013-.484.013-.84V166.67c0-.1,0-.292.012-.584s.008-.511,0-.656-.016-.358-.025-.64a2.9,2.9,0,0,0-.073-.646c-.041-.147-.09-.335-.148-.562a1.175,1.175,0,0,0-.232-.5q-.147-.162-.344-.342a.923.923,0,0,0-.49-.224,2.3,2.3,0,0,0-.662.006,2.432,2.432,0,0,0-.9.292,1.589,1.589,0,0,0-.6.629q-.22.407-.368.73a2.858,2.858,0,0,0-.2.925q-.05.6-.049.856v16.716c0,.356,0,.638.012.848s.028.514.062.914a3.639,3.639,0,0,0,.183.958,5.07,5.07,0,0,0,.356.741,1.209,1.209,0,0,0,.6.537A1.746,1.746,0,0,0,42.234,186.75Z" fill="#f96f4d"/>
        <path id="Path_43321" data-name="Path 43321" d="M56.114,181.622V163.2a11.5,11.5,0,0,1,2.636-7.851q2.635-3.018,7.932-3.816,5.445-.671,8.08,1.626t2.637,7.13v18.428a15.182,15.182,0,0,1-.6,4.366,12,12,0,0,1-1.827,3.685,9.593,9.593,0,0,1-3.322,2.785,13.3,13.3,0,0,1-4.82,1.413,12.222,12.222,0,0,1-4.965-.074,6.606,6.606,0,0,1-3.323-1.877,8.568,8.568,0,0,1-1.827-3.185A13.591,13.591,0,0,1,56.114,181.622ZM66.756,183.4a1.982,1.982,0,0,0,.821-.295,1.622,1.622,0,0,0,.564-.636,5.632,5.632,0,0,0,.332-.761,4.046,4.046,0,0,0,.171-.933c.033-.386.054-.679.061-.883s.013-.483.013-.84V163.316c0-.1,0-.291.012-.584s.009-.511,0-.655-.016-.359-.025-.641a2.887,2.887,0,0,0-.073-.645q-.062-.222-.147-.563a1.175,1.175,0,0,0-.234-.5c-.1-.108-.212-.222-.343-.342a.916.916,0,0,0-.49-.224,2.3,2.3,0,0,0-.662.006,2.421,2.421,0,0,0-.895.292,1.6,1.6,0,0,0-.6.629c-.147.271-.269.514-.368.73a2.868,2.868,0,0,0-.195.925c-.034.4-.05.686-.05.856v16.716q0,.534.012.848t.062.914a3.594,3.594,0,0,0,.184.958,4.959,4.959,0,0,0,.355.741,1.215,1.215,0,0,0,.6.537A1.731,1.731,0,0,0,66.756,183.4Z" fill="#f96f4d"/>
        <path id="Path_43322" data-name="Path 43322" d="M102.338,147.065V185.74L93.9,186.894l-4.316-18.76v19.35l-8.435,1.153V149.963l8.877-1.215L94,166.705v-18.5Z" fill="#f96f4d"/>
      </g>
    </g>
    <g id="Group_175384" data-name="Group 175384">
      <path id="Path_43323" data-name="Path 43323" d="M92.751,79.268a1.637,1.637,0,0,0-1.362,1.564,1.147,1.147,0,0,0,1.362,1.161,1.635,1.635,0,0,0,1.362-1.564A1.147,1.147,0,0,0,92.751,79.268Z" fill="#f96f4d"/>
      <path id="Path_43324" data-name="Path 43324" d="M89.878,79.693a1.637,1.637,0,0,0-1.362,1.564,1.147,1.147,0,0,0,1.362,1.161,1.637,1.637,0,0,0,1.363-1.564A1.148,1.148,0,0,0,89.878,79.693Z" fill="#f96f4d"/>
      <path id="Path_43325" data-name="Path 43325" d="M87.006,80.15a1.6,1.6,0,0,0-1.331,1.527,1.121,1.121,0,0,0,1.331,1.134,1.6,1.6,0,0,0,1.33-1.527A1.12,1.12,0,0,0,87.006,80.15Z" fill="#f96f4d"/>
      <path id="Path_43326" data-name="Path 43326" d="M84.133,80.607a1.559,1.559,0,0,0-1.3,1.49,1.094,1.094,0,0,0,1.3,1.107,1.559,1.559,0,0,0,1.3-1.491A1.093,1.093,0,0,0,84.133,80.607Z" fill="#f96f4d"/>
      <path id="Path_43327" data-name="Path 43327" d="M81.26,81.063a1.522,1.522,0,0,0-1.267,1.454A1.066,1.066,0,0,0,81.26,83.6a1.52,1.52,0,0,0,1.267-1.453A1.067,1.067,0,0,0,81.26,81.063Z" fill="#f96f4d"/>
      <path id="Path_43328" data-name="Path 43328" d="M78.387,81.52a1.483,1.483,0,0,0-1.235,1.417,1.04,1.04,0,0,0,1.235,1.052,1.482,1.482,0,0,0,1.235-1.417A1.04,1.04,0,0,0,78.387,81.52Z" fill="#f96f4d"/>
      <path id="Path_43329" data-name="Path 43329" d="M75.514,81.985a1.434,1.434,0,0,0-1.195,1.371,1.006,1.006,0,0,0,1.195,1.018A1.434,1.434,0,0,0,76.709,83,1.006,1.006,0,0,0,75.514,81.985Z" fill="#f96f4d"/>
      <path id="Path_43330" data-name="Path 43330" d="M72.642,82.441a1.4,1.4,0,0,0-1.163,1.335.979.979,0,0,0,1.163.991,1.4,1.4,0,0,0,1.163-1.335A.979.979,0,0,0,72.642,82.441Z" fill="#f96f4d"/>
      <path id="Path_43331" data-name="Path 43331" d="M69.769,82.9a1.358,1.358,0,0,0-1.131,1.3.952.952,0,0,0,1.131.964,1.357,1.357,0,0,0,1.131-1.3A.952.952,0,0,0,69.769,82.9Z" fill="#f96f4d"/>
      <path id="Path_43332" data-name="Path 43332" d="M66.9,83.354a1.32,1.32,0,0,0-1.1,1.262.925.925,0,0,0,1.1.937A1.32,1.32,0,0,0,68,84.291.926.926,0,0,0,66.9,83.354Z" fill="#f96f4d"/>
      <path id="Path_43333" data-name="Path 43333" d="M64.023,83.811a1.282,1.282,0,0,0-1.067,1.225.9.9,0,0,0,1.067.91,1.282,1.282,0,0,0,1.068-1.225A.9.9,0,0,0,64.023,83.811Z" fill="#f96f4d"/>
      <path id="Path_43334" data-name="Path 43334" d="M61.15,84.268a1.244,1.244,0,0,0-1.035,1.189.872.872,0,0,0,1.035.882,1.244,1.244,0,0,0,1.036-1.189A.872.872,0,0,0,61.15,84.268Z" fill="#f96f4d"/>
      <path id="Path_43335" data-name="Path 43335" d="M58.278,84.724a1.205,1.205,0,0,0-1,1.153.845.845,0,0,0,1,.855,1.205,1.205,0,0,0,1-1.152A.845.845,0,0,0,58.278,84.724Z" fill="#f96f4d"/>
      <path id="Path_43336" data-name="Path 43336" d="M55.4,85.181a1.167,1.167,0,0,0-.972,1.116.819.819,0,0,0,.972.828,1.168,1.168,0,0,0,.972-1.116A.819.819,0,0,0,55.4,85.181Z" fill="#f96f4d"/>
      <path id="Path_43337" data-name="Path 43337" d="M52.532,85.646a1.119,1.119,0,0,0-.932,1.07.785.785,0,0,0,.932.794,1.119,1.119,0,0,0,.932-1.07A.784.784,0,0,0,52.532,85.646Z" fill="#f96f4d"/>
      <path id="Path_43338" data-name="Path 43338" d="M49.659,86.1a1.082,1.082,0,0,0-.9,1.034.758.758,0,0,0,.9.767,1.081,1.081,0,0,0,.9-1.034A.758.758,0,0,0,49.659,86.1Z" fill="#f96f4d"/>
      <path id="Path_43339" data-name="Path 43339" d="M46.787,86.559a1.043,1.043,0,0,0-.869,1,.732.732,0,0,0,.869.74,1.043,1.043,0,0,0,.868-1A.731.731,0,0,0,46.787,86.559Z" fill="#f96f4d"/>
      <path id="Path_43340" data-name="Path 43340" d="M43.914,87.016a1,1,0,0,0-.837.96.7.7,0,0,0,.837.713,1,1,0,0,0,.836-.961A.7.7,0,0,0,43.914,87.016Z" fill="#f96f4d"/>
      <path id="Path_43341" data-name="Path 43341" d="M41.041,87.472a.968.968,0,0,0-.805.924.679.679,0,0,0,.805.686.968.968,0,0,0,.805-.924A.679.679,0,0,0,41.041,87.472Z" fill="#f96f4d"/>
      <path id="Path_43342" data-name="Path 43342" d="M38.168,87.929a.928.928,0,0,0-.773.887.65.65,0,0,0,.773.658.928.928,0,0,0,.773-.887A.651.651,0,0,0,38.168,87.929Z" fill="#f96f4d"/>
      <path id="Path_43343" data-name="Path 43343" d="M35.295,88.386a.889.889,0,0,0-.741.85.624.624,0,0,0,.741.631.888.888,0,0,0,.741-.85A.623.623,0,0,0,35.295,88.386Z" fill="#f96f4d"/>
      <path id="Path_43344" data-name="Path 43344" d="M32.423,88.842a.852.852,0,0,0-.709.814.6.6,0,0,0,.709.6.852.852,0,0,0,.709-.813A.6.6,0,0,0,32.423,88.842Z" fill="#f96f4d"/>
      <path id="Path_43345" data-name="Path 43345" d="M29.55,89.3a.812.812,0,0,0-.677.777.57.57,0,0,0,.677.577.812.812,0,0,0,.677-.777A.57.57,0,0,0,29.55,89.3Z" fill="#f96f4d"/>
      <path id="Path_43346" data-name="Path 43346" d="M26.677,89.764a.764.764,0,0,0-.637.731.536.536,0,0,0,.637.543.764.764,0,0,0,.637-.731A.536.536,0,0,0,26.677,89.764Z" fill="#f96f4d"/>
      <path id="Path_43347" data-name="Path 43347" d="M23.8,90.22a.728.728,0,0,0-.605.695.509.509,0,0,0,.605.516.726.726,0,0,0,.606-.695A.51.51,0,0,0,23.8,90.22Z" fill="#f96f4d"/>
      <path id="Path_43348" data-name="Path 43348" d="M20.931,90.677a.689.689,0,0,0-.573.658.483.483,0,0,0,.573.489.689.689,0,0,0,.574-.658A.483.483,0,0,0,20.931,90.677Z" fill="#f96f4d"/>
      <path id="Path_43349" data-name="Path 43349" d="M18.059,91.134a.649.649,0,0,0-.542.621.456.456,0,0,0,.542.462A.65.65,0,0,0,18.6,91.6.455.455,0,0,0,18.059,91.134Z" fill="#f96f4d"/>
      <path id="Path_43350" data-name="Path 43350" d="M15.186,91.59a.612.612,0,0,0-.51.585.429.429,0,0,0,.51.435.613.613,0,0,0,.51-.585A.43.43,0,0,0,15.186,91.59Z" fill="#f96f4d"/>
      <path id="Path_43351" data-name="Path 43351" d="M12.313,92.047a.574.574,0,0,0-.478.549.4.4,0,0,0,.478.407.574.574,0,0,0,.478-.549A.4.4,0,0,0,12.313,92.047Z" fill="#f96f4d"/>
      <path id="Path_43352" data-name="Path 43352" d="M9.44,92.5a.535.535,0,0,0-.446.512.376.376,0,0,0,.446.38.536.536,0,0,0,.446-.512A.375.375,0,0,0,9.44,92.5Z" fill="#f96f4d"/>
      <path id="Path_43353" data-name="Path 43353" d="M6.567,92.96a.5.5,0,0,0-.414.476.349.349,0,0,0,.414.353.5.5,0,0,0,.415-.476A.349.349,0,0,0,6.567,92.96Z" fill="#f96f4d"/>
      <path id="Path_43354" data-name="Path 43354" d="M3.695,93.417a.459.459,0,0,0-.383.439.322.322,0,0,0,.383.326.46.46,0,0,0,.382-.439A.322.322,0,0,0,3.695,93.417Z" fill="#f96f4d"/>
      <path id="Path_43355" data-name="Path 43355" d="M.822,93.874a.42.42,0,0,0-.351.4.3.3,0,0,0,.351.3.422.422,0,0,0,.35-.4A.3.3,0,0,0,.822,93.874Z" fill="#f96f4d"/>
      <path id="Path_43356" data-name="Path 43356" d="M-2.051,94.33a.383.383,0,0,0-.319.366.269.269,0,0,0,.319.272.384.384,0,0,0,.319-.366A.269.269,0,0,0-2.051,94.33Z" fill="#f96f4d"/>
      <path id="Path_43357" data-name="Path 43357" d="M-4.924,94.787a.345.345,0,0,0-.287.329.241.241,0,0,0,.287.244.343.343,0,0,0,.287-.329A.241.241,0,0,0-4.924,94.787Z" fill="#f96f4d"/>
      <path id="Path_43358" data-name="Path 43358" d="M-7.8,95.244a.3.3,0,0,0-.254.292.214.214,0,0,0,.254.217.3.3,0,0,0,.255-.292A.214.214,0,0,0-7.8,95.244Z" fill="#f96f4d"/>
      <path id="Path_43359" data-name="Path 43359" d="M-10.669,95.708a.258.258,0,0,0-.215.247.18.18,0,0,0,.215.183.258.258,0,0,0,.215-.247A.182.182,0,0,0-10.669,95.708Z" fill="#f96f4d"/>
      <path id="Path_43360" data-name="Path 43360" d="M-13.542,96.165a.22.22,0,0,0-.183.21.154.154,0,0,0,.183.156.22.22,0,0,0,.183-.21A.154.154,0,0,0-13.542,96.165Z" fill="#f96f4d"/>
      <path id="Path_43361" data-name="Path 43361" d="M-16.415,96.621a.183.183,0,0,0-.151.174.127.127,0,0,0,.151.129.181.181,0,0,0,.151-.174A.127.127,0,0,0-16.415,96.621Z" fill="#f96f4d"/>
      <path id="Path_43362" data-name="Path 43362" d="M-19.288,97.078a.143.143,0,0,0-.119.137.1.1,0,0,0,.119.1.144.144,0,0,0,.12-.137A.1.1,0,0,0-19.288,97.078Z" fill="#f96f4d"/>
      <path id="Path_43363" data-name="Path 43363" d="M-22.16,97.535a.1.1,0,0,0-.088.1.074.074,0,0,0,.088.075.1.1,0,0,0,.087-.1A.073.073,0,0,0-22.16,97.535Z" fill="#f96f4d"/>
      <path id="Path_43364" data-name="Path 43364" d="M-25.033,97.991a.068.068,0,0,0-.056.064.047.047,0,0,0,.056.048.067.067,0,0,0,.056-.064A.048.048,0,0,0-25.033,97.991Z" fill="#f96f4d"/>
      <path id="Path_43365" data-name="Path 43365" d="M-27.906,98.448a.029.029,0,0,0-.024.028.02.02,0,0,0,.024.02.029.029,0,0,0,.024-.028A.02.02,0,0,0-27.906,98.448Z" fill="#f96f4d"/>
      <ellipse id="Ellipse_320" data-name="Ellipse 320" cx="1.467" cy="1.265" rx="1.467" ry="1.265" transform="translate(90.826 77.972) rotate(-47.121)" fill="#f96f4d"/>
      <path id="Path_43366" data-name="Path 43366" d="M89.878,76.82a1.637,1.637,0,0,0-1.362,1.564,1.147,1.147,0,0,0,1.362,1.161,1.635,1.635,0,0,0,1.363-1.564A1.148,1.148,0,0,0,89.878,76.82Z" fill="#f96f4d"/>
      <path id="Path_43367" data-name="Path 43367" d="M87.006,77.277A1.6,1.6,0,0,0,85.675,78.8a1.121,1.121,0,0,0,1.331,1.134,1.6,1.6,0,0,0,1.33-1.527A1.12,1.12,0,0,0,87.006,77.277Z" fill="#f96f4d"/>
      <path id="Path_43368" data-name="Path 43368" d="M84.133,77.734a1.559,1.559,0,0,0-1.3,1.49,1.094,1.094,0,0,0,1.3,1.107,1.559,1.559,0,0,0,1.3-1.491A1.093,1.093,0,0,0,84.133,77.734Z" fill="#f96f4d"/>
      <path id="Path_43369" data-name="Path 43369" d="M81.26,78.19a1.522,1.522,0,0,0-1.267,1.454,1.067,1.067,0,0,0,1.267,1.08,1.522,1.522,0,0,0,1.267-1.454A1.067,1.067,0,0,0,81.26,78.19Z" fill="#f96f4d"/>
      <path id="Path_43370" data-name="Path 43370" d="M78.387,78.647a1.483,1.483,0,0,0-1.235,1.417,1.041,1.041,0,0,0,1.235,1.053A1.484,1.484,0,0,0,79.622,79.7,1.04,1.04,0,0,0,78.387,78.647Z" fill="#f96f4d"/>
      <path id="Path_43371" data-name="Path 43371" d="M75.514,79.112a1.434,1.434,0,0,0-1.195,1.371A1.007,1.007,0,0,0,75.514,81.5a1.436,1.436,0,0,0,1.195-1.372A1.006,1.006,0,0,0,75.514,79.112Z" fill="#f96f4d"/>
      <path id="Path_43372" data-name="Path 43372" d="M72.642,79.568A1.4,1.4,0,0,0,71.479,80.9a.98.98,0,0,0,1.163.992,1.4,1.4,0,0,0,1.163-1.336A.979.979,0,0,0,72.642,79.568Z" fill="#f96f4d"/>
      <ellipse id="Ellipse_321" data-name="Ellipse 321" cx="1.218" cy="1.051" rx="1.218" ry="1.051" transform="translate(68.17 81.334) rotate(-47.115)" fill="#f96f4d"/>
      <path id="Path_43373" data-name="Path 43373" d="M66.9,80.482a1.319,1.319,0,0,0-1.1,1.262.925.925,0,0,0,1.1.936A1.319,1.319,0,0,0,68,81.418.925.925,0,0,0,66.9,80.482Z" fill="#f96f4d"/>
      <path id="Path_43374" data-name="Path 43374" d="M64.023,80.938a1.283,1.283,0,0,0-1.067,1.226.9.9,0,0,0,1.067.909,1.281,1.281,0,0,0,1.068-1.225A.9.9,0,0,0,64.023,80.938Z" fill="#f96f4d"/>
      <path id="Path_43375" data-name="Path 43375" d="M61.15,81.395a1.244,1.244,0,0,0-1.035,1.189.871.871,0,0,0,1.035.882,1.244,1.244,0,0,0,1.036-1.189A.872.872,0,0,0,61.15,81.395Z" fill="#f96f4d"/>
      <path id="Path_43376" data-name="Path 43376" d="M58.278,81.852a1.2,1.2,0,0,0-1,1.152.845.845,0,0,0,1,.855,1.205,1.205,0,0,0,1-1.152A.845.845,0,0,0,58.278,81.852Z" fill="#f96f4d"/>
      <path id="Path_43377" data-name="Path 43377" d="M55.4,82.308a1.168,1.168,0,0,0-.972,1.116.818.818,0,0,0,.972.828,1.167,1.167,0,0,0,.972-1.116A.819.819,0,0,0,55.4,82.308Z" fill="#f96f4d"/>
      <path id="Path_43378" data-name="Path 43378" d="M52.532,82.773a1.119,1.119,0,0,0-.932,1.07.784.784,0,0,0,.932.794,1.119,1.119,0,0,0,.932-1.07A.784.784,0,0,0,52.532,82.773Z" fill="#f96f4d"/>
      <path id="Path_43379" data-name="Path 43379" d="M49.659,83.23a1.08,1.08,0,0,0-.9,1.033.758.758,0,0,0,.9.767,1.081,1.081,0,0,0,.9-1.033A.758.758,0,0,0,49.659,83.23Z" fill="#f96f4d"/>
      <path id="Path_43380" data-name="Path 43380" d="M46.787,83.686a1.043,1.043,0,0,0-.869,1,.731.731,0,0,0,.869.74,1.043,1.043,0,0,0,.868-1A.731.731,0,0,0,46.787,83.686Z" fill="#f96f4d"/>
      <path id="Path_43381" data-name="Path 43381" d="M43.914,84.143a1,1,0,0,0-.837.96.7.7,0,0,0,.837.713,1,1,0,0,0,.836-.96A.7.7,0,0,0,43.914,84.143Z" fill="#f96f4d"/>
      <path id="Path_43382" data-name="Path 43382" d="M41.041,84.6a.966.966,0,0,0-.805.923.678.678,0,0,0,.805.686.967.967,0,0,0,.805-.924A.678.678,0,0,0,41.041,84.6Z" fill="#f96f4d"/>
      <path id="Path_43383" data-name="Path 43383" d="M38.168,85.056a.928.928,0,0,0-.773.887.651.651,0,0,0,.773.659.928.928,0,0,0,.773-.887A.651.651,0,0,0,38.168,85.056Z" fill="#f96f4d"/>
      <path id="Path_43384" data-name="Path 43384" d="M35.295,85.513a.889.889,0,0,0-.741.85.625.625,0,0,0,.741.632.89.89,0,0,0,.741-.851A.623.623,0,0,0,35.295,85.513Z" fill="#f96f4d"/>
      <path id="Path_43385" data-name="Path 43385" d="M32.423,85.97a.85.85,0,0,0-.709.813.6.6,0,0,0,.709.605.853.853,0,0,0,.709-.814A.6.6,0,0,0,32.423,85.97Z" fill="#f96f4d"/>
      <path id="Path_43386" data-name="Path 43386" d="M29.55,86.426a.814.814,0,0,0-.677.777.57.57,0,0,0,.677.577A.812.812,0,0,0,30.227,87,.57.57,0,0,0,29.55,86.426Z" fill="#f96f4d"/>
      <path id="Path_43387" data-name="Path 43387" d="M26.677,86.891a.764.764,0,0,0-.637.731.536.536,0,0,0,.637.543.764.764,0,0,0,.637-.731A.536.536,0,0,0,26.677,86.891Z" fill="#f96f4d"/>
      <path id="Path_43388" data-name="Path 43388" d="M23.8,87.348a.726.726,0,0,0-.605.694.509.509,0,0,0,.605.516.726.726,0,0,0,.606-.695A.509.509,0,0,0,23.8,87.348Z" fill="#f96f4d"/>
      <path id="Path_43389" data-name="Path 43389" d="M20.931,87.8a.69.69,0,0,0-.573.659.483.483,0,0,0,.573.488.688.688,0,0,0,.574-.658A.483.483,0,0,0,20.931,87.8Z" fill="#f96f4d"/>
      <path id="Path_43390" data-name="Path 43390" d="M18.059,88.261a.649.649,0,0,0-.542.622.456.456,0,0,0,.542.461.649.649,0,0,0,.541-.622A.455.455,0,0,0,18.059,88.261Z" fill="#f96f4d"/>
      <path id="Path_43391" data-name="Path 43391" d="M15.186,88.717a.613.613,0,0,0-.51.586.429.429,0,0,0,.51.434.613.613,0,0,0,.51-.585A.43.43,0,0,0,15.186,88.717Z" fill="#f96f4d"/>
      <path id="Path_43392" data-name="Path 43392" d="M12.313,89.174a.574.574,0,0,0-.478.549.4.4,0,0,0,.478.407.574.574,0,0,0,.478-.549A.4.4,0,0,0,12.313,89.174Z" fill="#f96f4d"/>
      <path id="Path_43393" data-name="Path 43393" d="M9.44,89.631a.535.535,0,0,0-.446.512.376.376,0,0,0,.446.38.535.535,0,0,0,.446-.512A.375.375,0,0,0,9.44,89.631Z" fill="#f96f4d"/>
      <path id="Path_43394" data-name="Path 43394" d="M6.567,90.087a.5.5,0,0,0-.414.476.349.349,0,0,0,.414.353.5.5,0,0,0,.415-.476A.35.35,0,0,0,6.567,90.087Z" fill="#f96f4d"/>
      <path id="Path_43395" data-name="Path 43395" d="M3.695,90.544a.459.459,0,0,0-.383.439.322.322,0,0,0,.383.326.459.459,0,0,0,.382-.439A.322.322,0,0,0,3.695,90.544Z" fill="#f96f4d"/>
      <path id="Path_43396" data-name="Path 43396" d="M.822,91a.421.421,0,0,0-.351.4.3.3,0,0,0,.351.3.422.422,0,0,0,.35-.4A.3.3,0,0,0,.822,91Z" fill="#f96f4d"/>
      <path id="Path_43397" data-name="Path 43397" d="M-2.051,91.457a.383.383,0,0,0-.319.366.269.269,0,0,0,.319.272.383.383,0,0,0,.319-.366A.269.269,0,0,0-2.051,91.457Z" fill="#f96f4d"/>
      <path id="Path_43398" data-name="Path 43398" d="M-4.924,91.914a.346.346,0,0,0-.287.329.242.242,0,0,0,.287.245.345.345,0,0,0,.287-.33A.242.242,0,0,0-4.924,91.914Z" fill="#f96f4d"/>
      <path id="Path_43399" data-name="Path 43399" d="M-7.8,92.371a.306.306,0,0,0-.254.292.215.215,0,0,0,.254.218.306.306,0,0,0,.255-.293A.214.214,0,0,0-7.8,92.371Z" fill="#f96f4d"/>
      <path id="Path_43400" data-name="Path 43400" d="M-10.669,92.835a.258.258,0,0,0-.215.247.182.182,0,0,0,.215.184.26.26,0,0,0,.215-.247A.182.182,0,0,0-10.669,92.835Z" fill="#f96f4d"/>
      <path id="Path_43401" data-name="Path 43401" d="M-13.542,93.292a.22.22,0,0,0-.183.21.154.154,0,0,0,.183.156.219.219,0,0,0,.183-.21A.154.154,0,0,0-13.542,93.292Z" fill="#f96f4d"/>
      <path id="Path_43402" data-name="Path 43402" d="M-16.415,93.749a.181.181,0,0,0-.151.173.127.127,0,0,0,.151.129.18.18,0,0,0,.151-.173A.127.127,0,0,0-16.415,93.749Z" fill="#f96f4d"/>
      <path id="Path_43403" data-name="Path 43403" d="M-19.288,94.205a.144.144,0,0,0-.119.138.1.1,0,0,0,.119.1.143.143,0,0,0,.12-.137A.1.1,0,0,0-19.288,94.205Z" fill="#f96f4d"/>
      <path id="Path_43404" data-name="Path 43404" d="M-22.16,94.662a.1.1,0,0,0-.088.1.074.074,0,0,0,.088.074.1.1,0,0,0,.087-.1A.073.073,0,0,0-22.16,94.662Z" fill="#f96f4d"/>
      <path id="Path_43405" data-name="Path 43405" d="M-25.033,95.119a.066.066,0,0,0-.056.064.047.047,0,0,0,.056.047.066.066,0,0,0,.056-.064A.046.046,0,0,0-25.033,95.119Z" fill="#f96f4d"/>
      <path id="Path_43406" data-name="Path 43406" d="M-27.906,95.575a.03.03,0,0,0-.024.028.02.02,0,0,0,.024.02.029.029,0,0,0,.024-.027A.02.02,0,0,0-27.906,95.575Z" fill="#f96f4d"/>
      <ellipse id="Ellipse_322" data-name="Ellipse 322" cx="1.467" cy="1.265" rx="1.467" ry="1.265" transform="translate(90.826 75.099) rotate(-47.121)" fill="#f96f4d"/>
      <ellipse id="Ellipse_323" data-name="Ellipse 323" cx="1.467" cy="1.265" rx="1.467" ry="1.265" transform="translate(87.953 75.524) rotate(-47.121)" fill="#f96f4d"/>
      <path id="Path_43407" data-name="Path 43407" d="M87.006,74.4a1.6,1.6,0,0,0-1.331,1.527,1.121,1.121,0,0,0,1.331,1.134,1.6,1.6,0,0,0,1.33-1.527A1.121,1.121,0,0,0,87.006,74.4Z" fill="#f96f4d"/>
      <path id="Path_43408" data-name="Path 43408" d="M84.133,74.861a1.559,1.559,0,0,0-1.3,1.49,1.094,1.094,0,0,0,1.3,1.107,1.559,1.559,0,0,0,1.3-1.491A1.093,1.093,0,0,0,84.133,74.861Z" fill="#f96f4d"/>
      <path id="Path_43409" data-name="Path 43409" d="M81.26,75.318a1.52,1.52,0,0,0-1.267,1.454,1.067,1.067,0,0,0,1.267,1.079A1.521,1.521,0,0,0,82.527,76.4,1.066,1.066,0,0,0,81.26,75.318Z" fill="#f96f4d"/>
      <path id="Path_43410" data-name="Path 43410" d="M78.387,75.774a1.484,1.484,0,0,0-1.235,1.418,1.04,1.04,0,0,0,1.235,1.052,1.484,1.484,0,0,0,1.235-1.418A1.04,1.04,0,0,0,78.387,75.774Z" fill="#f96f4d"/>
      <path id="Path_43411" data-name="Path 43411" d="M75.514,76.239a1.436,1.436,0,0,0-1.195,1.372,1.007,1.007,0,0,0,1.195,1.018,1.436,1.436,0,0,0,1.195-1.372A1.006,1.006,0,0,0,75.514,76.239Z" fill="#f96f4d"/>
      <path id="Path_43412" data-name="Path 43412" d="M72.642,76.7a1.4,1.4,0,0,0-1.163,1.335.979.979,0,0,0,1.163.991,1.4,1.4,0,0,0,1.163-1.335A.979.979,0,0,0,72.642,76.7Z" fill="#f96f4d"/>
      <ellipse id="Ellipse_324" data-name="Ellipse 324" cx="1.218" cy="1.051" rx="1.218" ry="1.051" transform="translate(68.17 78.461) rotate(-47.115)" fill="#f96f4d"/>
      <path id="Path_43413" data-name="Path 43413" d="M66.9,77.609a1.32,1.32,0,0,0-1.1,1.262.926.926,0,0,0,1.1.937A1.32,1.32,0,0,0,68,78.546.926.926,0,0,0,66.9,77.609Z" fill="#f96f4d"/>
      <path id="Path_43414" data-name="Path 43414" d="M64.023,78.066a1.281,1.281,0,0,0-1.067,1.225.9.9,0,0,0,1.067.909,1.281,1.281,0,0,0,1.068-1.225A.9.9,0,0,0,64.023,78.066Z" fill="#f96f4d"/>
      <path id="Path_43415" data-name="Path 43415" d="M61.15,78.522a1.244,1.244,0,0,0-1.035,1.189.871.871,0,0,0,1.035.882A1.243,1.243,0,0,0,62.186,79.4.873.873,0,0,0,61.15,78.522Z" fill="#f96f4d"/>
      <path id="Path_43416" data-name="Path 43416" d="M58.278,78.979a1.205,1.205,0,0,0-1,1.152.845.845,0,0,0,1,.855,1.2,1.2,0,0,0,1-1.152A.845.845,0,0,0,58.278,78.979Z" fill="#f96f4d"/>
      <path id="Path_43417" data-name="Path 43417" d="M55.4,79.436a1.166,1.166,0,0,0-.972,1.115.818.818,0,0,0,.972.828,1.167,1.167,0,0,0,.972-1.115A.818.818,0,0,0,55.4,79.436Z" fill="#f96f4d"/>
      <path id="Path_43418" data-name="Path 43418" d="M52.532,79.9a1.119,1.119,0,0,0-.932,1.07.784.784,0,0,0,.932.794,1.119,1.119,0,0,0,.932-1.07A.785.785,0,0,0,52.532,79.9Z" fill="#f96f4d"/>
      <path id="Path_43419" data-name="Path 43419" d="M49.659,80.357a1.08,1.08,0,0,0-.9,1.033.758.758,0,0,0,.9.767,1.08,1.08,0,0,0,.9-1.033A.758.758,0,0,0,49.659,80.357Z" fill="#f96f4d"/>
      <path id="Path_43420" data-name="Path 43420" d="M46.787,80.813a1.044,1.044,0,0,0-.869,1,.731.731,0,0,0,.869.74,1.043,1.043,0,0,0,.868-1A.732.732,0,0,0,46.787,80.813Z" fill="#f96f4d"/>
      <path id="Path_43421" data-name="Path 43421" d="M43.914,81.27a1,1,0,0,0-.837.96.7.7,0,0,0,.837.713,1,1,0,0,0,.836-.96A.7.7,0,0,0,43.914,81.27Z" fill="#f96f4d"/>
      <path id="Path_43422" data-name="Path 43422" d="M41.041,81.727a.967.967,0,0,0-.805.923.678.678,0,0,0,.805.686.967.967,0,0,0,.805-.924A.678.678,0,0,0,41.041,81.727Z" fill="#f96f4d"/>
      <path id="Path_43423" data-name="Path 43423" d="M38.168,82.183a.929.929,0,0,0-.773.887.651.651,0,0,0,.773.659.928.928,0,0,0,.773-.887A.651.651,0,0,0,38.168,82.183Z" fill="#f96f4d"/>
      <path id="Path_43424" data-name="Path 43424" d="M35.295,82.64a.89.89,0,0,0-.741.851.624.624,0,0,0,.741.631.889.889,0,0,0,.741-.851A.624.624,0,0,0,35.295,82.64Z" fill="#f96f4d"/>
      <path id="Path_43425" data-name="Path 43425" d="M32.423,83.1a.851.851,0,0,0-.709.814.6.6,0,0,0,.709.6.853.853,0,0,0,.709-.814A.6.6,0,0,0,32.423,83.1Z" fill="#f96f4d"/>
      <path id="Path_43426" data-name="Path 43426" d="M29.55,83.553a.814.814,0,0,0-.677.778.57.57,0,0,0,.677.577.814.814,0,0,0,.677-.778A.57.57,0,0,0,29.55,83.553Z" fill="#f96f4d"/>
      <path id="Path_43427" data-name="Path 43427" d="M26.677,84.018a.765.765,0,0,0-.637.732.536.536,0,0,0,.637.543.765.765,0,0,0,.637-.732A.536.536,0,0,0,26.677,84.018Z" fill="#f96f4d"/>
      <path id="Path_43428" data-name="Path 43428" d="M23.8,84.475a.726.726,0,0,0-.605.695.51.51,0,0,0,.605.516.728.728,0,0,0,.606-.695A.509.509,0,0,0,23.8,84.475Z" fill="#f96f4d"/>
      <path id="Path_43429" data-name="Path 43429" d="M20.931,84.931a.69.69,0,0,0-.573.659.482.482,0,0,0,.573.488.688.688,0,0,0,.574-.658A.484.484,0,0,0,20.931,84.931Z" fill="#f96f4d"/>
      <path id="Path_43430" data-name="Path 43430" d="M18.059,85.388a.65.65,0,0,0-.542.622.455.455,0,0,0,.542.461.649.649,0,0,0,.541-.621A.456.456,0,0,0,18.059,85.388Z" fill="#f96f4d"/>
      <path id="Path_43431" data-name="Path 43431" d="M15.186,85.845a.611.611,0,0,0-.51.585.429.429,0,0,0,.51.434.612.612,0,0,0,.51-.585A.429.429,0,0,0,15.186,85.845Z" fill="#f96f4d"/>
      <path id="Path_43432" data-name="Path 43432" d="M12.313,86.3a.574.574,0,0,0-.478.549.4.4,0,0,0,.478.407.573.573,0,0,0,.478-.548A.4.4,0,0,0,12.313,86.3Z" fill="#f96f4d"/>
      <path id="Path_43433" data-name="Path 43433" d="M9.44,86.758a.536.536,0,0,0-.446.512.376.376,0,0,0,.446.38.534.534,0,0,0,.446-.512A.376.376,0,0,0,9.44,86.758Z" fill="#f96f4d"/>
      <path id="Path_43434" data-name="Path 43434" d="M6.567,87.215a.5.5,0,0,0-.414.475.349.349,0,0,0,.414.353.5.5,0,0,0,.415-.475A.349.349,0,0,0,6.567,87.215Z" fill="#f96f4d"/>
      <path id="Path_43435" data-name="Path 43435" d="M3.695,87.671a.46.46,0,0,0-.383.439.322.322,0,0,0,.383.326A.459.459,0,0,0,4.077,88,.322.322,0,0,0,3.695,87.671Z" fill="#f96f4d"/>
      <path id="Path_43436" data-name="Path 43436" d="M.822,88.128a.421.421,0,0,0-.351.4.3.3,0,0,0,.351.3.421.421,0,0,0,.35-.4A.3.3,0,0,0,.822,88.128Z" fill="#f96f4d"/>
      <path id="Path_43437" data-name="Path 43437" d="M-2.051,88.585a.382.382,0,0,0-.319.365.269.269,0,0,0,.319.272.383.383,0,0,0,.319-.366A.268.268,0,0,0-2.051,88.585Z" fill="#f96f4d"/>
      <path id="Path_43438" data-name="Path 43438" d="M-4.924,89.041a.346.346,0,0,0-.287.329.242.242,0,0,0,.287.245.345.345,0,0,0,.287-.329A.242.242,0,0,0-4.924,89.041Z" fill="#f96f4d"/>
      <path id="Path_43439" data-name="Path 43439" d="M-7.8,89.5a.306.306,0,0,0-.254.293.214.214,0,0,0,.254.217.306.306,0,0,0,.255-.293A.214.214,0,0,0-7.8,89.5Z" fill="#f96f4d"/>
      <path id="Path_43440" data-name="Path 43440" d="M-10.669,89.963a.257.257,0,0,0-.215.246.182.182,0,0,0,.215.184.259.259,0,0,0,.215-.247A.181.181,0,0,0-10.669,89.963Z" fill="#f96f4d"/>
      <path id="Path_43441" data-name="Path 43441" d="M-13.542,90.419a.22.22,0,0,0-.183.211.154.154,0,0,0,.183.156.22.22,0,0,0,.183-.211A.154.154,0,0,0-13.542,90.419Z" fill="#f96f4d"/>
      <path id="Path_43442" data-name="Path 43442" d="M-16.415,90.876a.182.182,0,0,0-.151.174.128.128,0,0,0,.151.129A.182.182,0,0,0-16.264,91,.127.127,0,0,0-16.415,90.876Z" fill="#f96f4d"/>
      <path id="Path_43443" data-name="Path 43443" d="M-19.288,91.333a.142.142,0,0,0-.119.137.1.1,0,0,0,.119.1.145.145,0,0,0,.12-.138A.1.1,0,0,0-19.288,91.333Z" fill="#f96f4d"/>
      <path id="Path_43444" data-name="Path 43444" d="M-22.16,91.789a.1.1,0,0,0-.088.1.073.073,0,0,0,.088.074.1.1,0,0,0,.087-.1A.073.073,0,0,0-22.16,91.789Z" fill="#f96f4d"/>
      <path id="Path_43445" data-name="Path 43445" d="M-25.033,92.246a.066.066,0,0,0-.056.064.046.046,0,0,0,.056.047.066.066,0,0,0,.056-.064A.047.047,0,0,0-25.033,92.246Z" fill="#f96f4d"/>
      <path id="Path_43446" data-name="Path 43446" d="M-27.906,92.7a.028.028,0,0,0-.024.027.02.02,0,0,0,.024.02.029.029,0,0,0,.024-.027A.02.02,0,0,0-27.906,92.7Z" fill="#f96f4d"/>
      <ellipse id="Ellipse_325" data-name="Ellipse 325" cx="1.467" cy="1.265" rx="1.467" ry="1.265" transform="translate(90.826 72.226) rotate(-47.121)" fill="#f96f4d"/>
      <ellipse id="Ellipse_326" data-name="Ellipse 326" cx="1.467" cy="1.265" rx="1.467" ry="1.265" transform="translate(87.953 72.651) rotate(-47.121)" fill="#f96f4d"/>
      <path id="Path_43447" data-name="Path 43447" d="M87.006,71.532a1.6,1.6,0,0,0-1.331,1.527,1.12,1.12,0,0,0,1.331,1.133,1.6,1.6,0,0,0,1.33-1.527A1.119,1.119,0,0,0,87.006,71.532Z" fill="#f96f4d"/>
      <path id="Path_43448" data-name="Path 43448" d="M84.133,71.988a1.56,1.56,0,0,0-1.3,1.491,1.094,1.094,0,0,0,1.3,1.106,1.558,1.558,0,0,0,1.3-1.49A1.093,1.093,0,0,0,84.133,71.988Z" fill="#f96f4d"/>
      <path id="Path_43449" data-name="Path 43449" d="M81.26,72.445A1.52,1.52,0,0,0,79.993,73.9a1.066,1.066,0,0,0,1.267,1.079,1.52,1.52,0,0,0,1.267-1.454A1.066,1.066,0,0,0,81.26,72.445Z" fill="#f96f4d"/>
      <path id="Path_43450" data-name="Path 43450" d="M78.387,72.9a1.482,1.482,0,0,0-1.235,1.417,1.04,1.04,0,0,0,1.235,1.052,1.483,1.483,0,0,0,1.235-1.417A1.04,1.04,0,0,0,78.387,72.9Z" fill="#f96f4d"/>
      <path id="Path_43451" data-name="Path 43451" d="M75.514,73.366a1.436,1.436,0,0,0-1.195,1.372,1.006,1.006,0,0,0,1.195,1.018,1.436,1.436,0,0,0,1.195-1.372A1.006,1.006,0,0,0,75.514,73.366Z" fill="#f96f4d"/>
      <path id="Path_43452" data-name="Path 43452" d="M72.642,73.823a1.4,1.4,0,0,0-1.163,1.335.979.979,0,0,0,1.163.991,1.4,1.4,0,0,0,1.163-1.335A.979.979,0,0,0,72.642,73.823Z" fill="#f96f4d"/>
      <ellipse id="Ellipse_327" data-name="Ellipse 327" cx="1.218" cy="1.051" rx="1.218" ry="1.051" transform="translate(68.17 75.588) rotate(-47.115)" fill="#f96f4d"/>
      <path id="Path_43453" data-name="Path 43453" d="M66.9,74.736A1.32,1.32,0,0,0,65.8,76a.926.926,0,0,0,1.1.937A1.32,1.32,0,0,0,68,75.673.926.926,0,0,0,66.9,74.736Z" fill="#f96f4d"/>
      <path id="Path_43454" data-name="Path 43454" d="M64.023,75.193a1.282,1.282,0,0,0-1.067,1.225.9.9,0,0,0,1.067.91A1.282,1.282,0,0,0,65.091,76.1.9.9,0,0,0,64.023,75.193Z" fill="#f96f4d"/>
      <path id="Path_43455" data-name="Path 43455" d="M61.15,75.649a1.244,1.244,0,0,0-1.035,1.189.872.872,0,0,0,1.035.883,1.244,1.244,0,0,0,1.036-1.189A.873.873,0,0,0,61.15,75.649Z" fill="#f96f4d"/>
      <path id="Path_43456" data-name="Path 43456" d="M58.278,76.106a1.205,1.205,0,0,0-1,1.152.845.845,0,0,0,1,.856,1.205,1.205,0,0,0,1-1.153A.845.845,0,0,0,58.278,76.106Z" fill="#f96f4d"/>
      <path id="Path_43457" data-name="Path 43457" d="M55.4,76.563a1.167,1.167,0,0,0-.972,1.115.818.818,0,0,0,.972.828,1.166,1.166,0,0,0,.972-1.115A.818.818,0,0,0,55.4,76.563Z" fill="#f96f4d"/>
      <path id="Path_43458" data-name="Path 43458" d="M52.532,77.027A1.119,1.119,0,0,0,51.6,78.1a.784.784,0,0,0,.932.794,1.119,1.119,0,0,0,.932-1.069A.785.785,0,0,0,52.532,77.027Z" fill="#f96f4d"/>
      <path id="Path_43459" data-name="Path 43459" d="M49.659,77.484a1.081,1.081,0,0,0-.9,1.033.758.758,0,0,0,.9.767,1.08,1.08,0,0,0,.9-1.033A.758.758,0,0,0,49.659,77.484Z" fill="#f96f4d"/>
      <path id="Path_43460" data-name="Path 43460" d="M46.787,77.941a1.043,1.043,0,0,0-.869,1,.731.731,0,0,0,.869.74,1.043,1.043,0,0,0,.868-1A.731.731,0,0,0,46.787,77.941Z" fill="#f96f4d"/>
      <path id="Path_43461" data-name="Path 43461" d="M43.914,78.4a1.006,1.006,0,0,0-.837.96.7.7,0,0,0,.837.713,1,1,0,0,0,.836-.96A.7.7,0,0,0,43.914,78.4Z" fill="#f96f4d"/>
      <path id="Path_43462" data-name="Path 43462" d="M41.041,78.854a.967.967,0,0,0-.805.924.678.678,0,0,0,.805.685.967.967,0,0,0,.805-.923A.678.678,0,0,0,41.041,78.854Z" fill="#f96f4d"/>
      <path id="Path_43463" data-name="Path 43463" d="M38.168,79.311a.928.928,0,0,0-.773.887.651.651,0,0,0,.773.658.928.928,0,0,0,.773-.887A.65.65,0,0,0,38.168,79.311Z" fill="#f96f4d"/>
      <path id="Path_43464" data-name="Path 43464" d="M35.295,79.767a.891.891,0,0,0-.741.851.624.624,0,0,0,.741.631.888.888,0,0,0,.741-.85A.624.624,0,0,0,35.295,79.767Z" fill="#f96f4d"/>
      <path id="Path_43465" data-name="Path 43465" d="M32.423,80.224a.851.851,0,0,0-.709.814.6.6,0,0,0,.709.6.852.852,0,0,0,.709-.814A.6.6,0,0,0,32.423,80.224Z" fill="#f96f4d"/>
      <path id="Path_43466" data-name="Path 43466" d="M29.55,80.681a.812.812,0,0,0-.677.777.57.57,0,0,0,.677.577.812.812,0,0,0,.677-.777A.57.57,0,0,0,29.55,80.681Z" fill="#f96f4d"/>
      <path id="Path_43467" data-name="Path 43467" d="M26.677,81.145a.765.765,0,0,0-.637.732.536.536,0,0,0,.637.543.765.765,0,0,0,.637-.732A.536.536,0,0,0,26.677,81.145Z" fill="#f96f4d"/>
      <path id="Path_43468" data-name="Path 43468" d="M23.8,81.6a.727.727,0,0,0-.605.695.51.51,0,0,0,.605.516.728.728,0,0,0,.606-.7A.509.509,0,0,0,23.8,81.6Z" fill="#f96f4d"/>
      <path id="Path_43469" data-name="Path 43469" d="M20.931,82.059a.688.688,0,0,0-.573.658.483.483,0,0,0,.573.489.69.69,0,0,0,.574-.659A.483.483,0,0,0,20.931,82.059Z" fill="#f96f4d"/>
      <path id="Path_43470" data-name="Path 43470" d="M18.059,82.515a.65.65,0,0,0-.542.622.456.456,0,0,0,.542.462.651.651,0,0,0,.541-.622A.456.456,0,0,0,18.059,82.515Z" fill="#f96f4d"/>
      <path id="Path_43471" data-name="Path 43471" d="M15.186,82.972a.612.612,0,0,0-.51.585.43.43,0,0,0,.51.435.614.614,0,0,0,.51-.586A.429.429,0,0,0,15.186,82.972Z" fill="#f96f4d"/>
      <path id="Path_43472" data-name="Path 43472" d="M12.313,83.429a.573.573,0,0,0-.478.548.4.4,0,0,0,.478.407.573.573,0,0,0,.478-.548A.4.4,0,0,0,12.313,83.429Z" fill="#f96f4d"/>
      <path id="Path_43473" data-name="Path 43473" d="M9.44,83.885a.537.537,0,0,0-.446.512.375.375,0,0,0,.446.38.534.534,0,0,0,.446-.512A.376.376,0,0,0,9.44,83.885Z" fill="#f96f4d"/>
      <path id="Path_43474" data-name="Path 43474" d="M6.567,84.342a.5.5,0,0,0-.414.475.349.349,0,0,0,.414.353.5.5,0,0,0,.415-.475A.349.349,0,0,0,6.567,84.342Z" fill="#f96f4d"/>
      <path id="Path_43475" data-name="Path 43475" d="M3.695,84.8a.458.458,0,0,0-.383.438.321.321,0,0,0,.383.326.458.458,0,0,0,.382-.439A.321.321,0,0,0,3.695,84.8Z" fill="#f96f4d"/>
      <path id="Path_43476" data-name="Path 43476" d="M.822,85.255a.422.422,0,0,0-.351.4.3.3,0,0,0,.351.3.421.421,0,0,0,.35-.4A.3.3,0,0,0,.822,85.255Z" fill="#f96f4d"/>
      <path id="Path_43477" data-name="Path 43477" d="M-2.051,85.712a.383.383,0,0,0-.319.366.268.268,0,0,0,.319.271.383.383,0,0,0,.319-.366A.268.268,0,0,0-2.051,85.712Z" fill="#f96f4d"/>
      <path id="Path_43478" data-name="Path 43478" d="M-4.924,86.169a.344.344,0,0,0-.287.329.242.242,0,0,0,.287.244.344.344,0,0,0,.287-.329A.241.241,0,0,0-4.924,86.169Z" fill="#f96f4d"/>
      <path id="Path_43479" data-name="Path 43479" d="M-7.8,86.625a.306.306,0,0,0-.254.293.214.214,0,0,0,.254.217.306.306,0,0,0,.255-.293A.215.215,0,0,0-7.8,86.625Z" fill="#f96f4d"/>
      <path id="Path_43480" data-name="Path 43480" d="M-10.669,87.09a.257.257,0,0,0-.215.247.181.181,0,0,0,.215.183.259.259,0,0,0,.215-.247A.181.181,0,0,0-10.669,87.09Z" fill="#f96f4d"/>
      <path id="Path_43481" data-name="Path 43481" d="M-13.542,87.546a.221.221,0,0,0-.183.211.154.154,0,0,0,.183.156.22.22,0,0,0,.183-.21A.154.154,0,0,0-13.542,87.546Z" fill="#f96f4d"/>
      <path id="Path_43482" data-name="Path 43482" d="M-16.415,88a.182.182,0,0,0-.151.174.128.128,0,0,0,.151.129.181.181,0,0,0,.151-.174A.127.127,0,0,0-16.415,88Z" fill="#f96f4d"/>
      <path id="Path_43483" data-name="Path 43483" d="M-19.288,88.46a.143.143,0,0,0-.119.137.1.1,0,0,0,.119.1.144.144,0,0,0,.12-.137A.1.1,0,0,0-19.288,88.46Z" fill="#f96f4d"/>
      <path id="Path_43484" data-name="Path 43484" d="M-22.16,88.916a.106.106,0,0,0-.088.1.074.074,0,0,0,.088.075.106.106,0,0,0,.087-.1A.074.074,0,0,0-22.16,88.916Z" fill="#f96f4d"/>
      <path id="Path_43485" data-name="Path 43485" d="M-25.033,89.373a.067.067,0,0,0-.056.064.048.048,0,0,0,.056.048.068.068,0,0,0,.056-.064A.048.048,0,0,0-25.033,89.373Z" fill="#f96f4d"/>
      <path id="Path_43486" data-name="Path 43486" d="M-27.906,89.83a.029.029,0,0,0-.024.027.021.021,0,0,0,.024.021.03.03,0,0,0,.024-.028A.02.02,0,0,0-27.906,89.83Z" fill="#f96f4d"/>
      <path id="Path_43487" data-name="Path 43487" d="M92.751,67.777a1.637,1.637,0,0,0-1.362,1.564A1.147,1.147,0,0,0,92.751,70.5a1.637,1.637,0,0,0,1.362-1.564A1.147,1.147,0,0,0,92.751,67.777Z" fill="#f96f4d"/>
      <path id="Path_43488" data-name="Path 43488" d="M89.878,68.2a1.635,1.635,0,0,0-1.362,1.564,1.147,1.147,0,0,0,1.362,1.161,1.637,1.637,0,0,0,1.363-1.564A1.148,1.148,0,0,0,89.878,68.2Z" fill="#f96f4d"/>
      <path id="Path_43489" data-name="Path 43489" d="M87.006,68.659a1.6,1.6,0,0,0-1.331,1.527,1.12,1.12,0,0,0,1.331,1.133,1.6,1.6,0,0,0,1.33-1.527A1.12,1.12,0,0,0,87.006,68.659Z" fill="#f96f4d"/>
      <path id="Path_43490" data-name="Path 43490" d="M84.133,69.115a1.56,1.56,0,0,0-1.3,1.491,1.094,1.094,0,0,0,1.3,1.106,1.558,1.558,0,0,0,1.3-1.49A1.093,1.093,0,0,0,84.133,69.115Z" fill="#f96f4d"/>
      <path id="Path_43491" data-name="Path 43491" d="M81.26,69.572a1.521,1.521,0,0,0-1.267,1.454,1.066,1.066,0,0,0,1.267,1.079,1.52,1.52,0,0,0,1.267-1.454A1.067,1.067,0,0,0,81.26,69.572Z" fill="#f96f4d"/>
      <path id="Path_43492" data-name="Path 43492" d="M78.387,70.029a1.483,1.483,0,0,0-1.235,1.417A1.04,1.04,0,0,0,78.387,72.5a1.483,1.483,0,0,0,1.235-1.417A1.04,1.04,0,0,0,78.387,70.029Z" fill="#f96f4d"/>
      <path id="Path_43493" data-name="Path 43493" d="M75.514,70.493a1.436,1.436,0,0,0-1.195,1.372,1.006,1.006,0,0,0,1.195,1.018,1.434,1.434,0,0,0,1.195-1.371A1.007,1.007,0,0,0,75.514,70.493Z" fill="#f96f4d"/>
      <path id="Path_43494" data-name="Path 43494" d="M72.642,70.95a1.4,1.4,0,0,0-1.163,1.335.979.979,0,0,0,1.163.991,1.4,1.4,0,0,0,1.163-1.335A.979.979,0,0,0,72.642,70.95Z" fill="#f96f4d"/>
      <ellipse id="Ellipse_328" data-name="Ellipse 328" cx="1.218" cy="1.051" rx="1.218" ry="1.051" transform="translate(68.17 72.715) rotate(-47.115)" fill="#f96f4d"/>
      <path id="Path_43495" data-name="Path 43495" d="M66.9,71.863a1.32,1.32,0,0,0-1.1,1.262.926.926,0,0,0,1.1.937A1.32,1.32,0,0,0,68,72.8.926.926,0,0,0,66.9,71.863Z" fill="#f96f4d"/>
      <path id="Path_43496" data-name="Path 43496" d="M64.023,72.32a1.282,1.282,0,0,0-1.067,1.225.9.9,0,0,0,1.067.91,1.282,1.282,0,0,0,1.068-1.225A.9.9,0,0,0,64.023,72.32Z" fill="#f96f4d"/>
      <path id="Path_43497" data-name="Path 43497" d="M61.15,72.777a1.243,1.243,0,0,0-1.035,1.188.872.872,0,0,0,1.035.883,1.244,1.244,0,0,0,1.036-1.189A.872.872,0,0,0,61.15,72.777Z" fill="#f96f4d"/>
      <path id="Path_43498" data-name="Path 43498" d="M58.278,73.233a1.205,1.205,0,0,0-1,1.152.845.845,0,0,0,1,.856,1.205,1.205,0,0,0,1-1.152A.845.845,0,0,0,58.278,73.233Z" fill="#f96f4d"/>
      <path id="Path_43499" data-name="Path 43499" d="M55.4,73.69a1.167,1.167,0,0,0-.972,1.116.819.819,0,0,0,.972.828,1.168,1.168,0,0,0,.972-1.116A.818.818,0,0,0,55.4,73.69Z" fill="#f96f4d"/>
      <path id="Path_43500" data-name="Path 43500" d="M52.532,74.155a1.119,1.119,0,0,0-.932,1.069.785.785,0,0,0,.932.795,1.119,1.119,0,0,0,.932-1.07A.784.784,0,0,0,52.532,74.155Z" fill="#f96f4d"/>
      <path id="Path_43501" data-name="Path 43501" d="M49.659,74.611a1.081,1.081,0,0,0-.9,1.034.758.758,0,0,0,.9.767,1.082,1.082,0,0,0,.9-1.034A.758.758,0,0,0,49.659,74.611Z" fill="#f96f4d"/>
      <path id="Path_43502" data-name="Path 43502" d="M46.787,75.068a1.043,1.043,0,0,0-.869,1,.732.732,0,0,0,.869.74,1.044,1.044,0,0,0,.868-1A.731.731,0,0,0,46.787,75.068Z" fill="#f96f4d"/>
      <path id="Path_43503" data-name="Path 43503" d="M43.914,75.525a1,1,0,0,0-.837.96.7.7,0,0,0,.837.712,1,1,0,0,0,.836-.96A.7.7,0,0,0,43.914,75.525Z" fill="#f96f4d"/>
      <path id="Path_43504" data-name="Path 43504" d="M41.041,75.981a.967.967,0,0,0-.805.924.678.678,0,0,0,.805.685.966.966,0,0,0,.805-.923A.678.678,0,0,0,41.041,75.981Z" fill="#f96f4d"/>
      <ellipse id="Ellipse_329" data-name="Ellipse 329" cx="0.832" cy="0.718" rx="0.832" ry="0.718" transform="translate(37.076 77.332) rotate(-47.127)" fill="#f96f4d"/>
      <path id="Path_43505" data-name="Path 43505" d="M35.295,76.895a.889.889,0,0,0-.741.85.624.624,0,0,0,.741.631.888.888,0,0,0,.741-.85A.623.623,0,0,0,35.295,76.895Z" fill="#f96f4d"/>
      <path id="Path_43506" data-name="Path 43506" d="M32.423,77.351a.851.851,0,0,0-.709.814.6.6,0,0,0,.709.6.852.852,0,0,0,.709-.814A.6.6,0,0,0,32.423,77.351Z" fill="#f96f4d"/>
      <path id="Path_43507" data-name="Path 43507" d="M29.55,77.808a.812.812,0,0,0-.677.777.57.57,0,0,0,.677.577.812.812,0,0,0,.677-.777A.57.57,0,0,0,29.55,77.808Z" fill="#f96f4d"/>
      <path id="Path_43508" data-name="Path 43508" d="M26.677,78.272A.766.766,0,0,0,26.04,79a.536.536,0,0,0,.637.543.765.765,0,0,0,.637-.731A.537.537,0,0,0,26.677,78.272Z" fill="#f96f4d"/>
      <path id="Path_43509" data-name="Path 43509" d="M23.8,78.729a.728.728,0,0,0-.605.7.51.51,0,0,0,.605.516.727.727,0,0,0,.606-.695A.51.51,0,0,0,23.8,78.729Z" fill="#f96f4d"/>
      <path id="Path_43510" data-name="Path 43510" d="M20.931,79.186a.688.688,0,0,0-.573.658.483.483,0,0,0,.573.489.689.689,0,0,0,.574-.658A.483.483,0,0,0,20.931,79.186Z" fill="#f96f4d"/>
      <path id="Path_43511" data-name="Path 43511" d="M18.059,79.642a.651.651,0,0,0-.542.622.456.456,0,0,0,.542.462A.65.65,0,0,0,18.6,80.1.456.456,0,0,0,18.059,79.642Z" fill="#f96f4d"/>
      <path id="Path_43512" data-name="Path 43512" d="M15.186,80.1a.612.612,0,0,0-.51.585.43.43,0,0,0,.51.435.613.613,0,0,0,.51-.585A.43.43,0,0,0,15.186,80.1Z" fill="#f96f4d"/>
      <path id="Path_43513" data-name="Path 43513" d="M12.313,80.556a.573.573,0,0,0-.478.548.4.4,0,0,0,.478.408.574.574,0,0,0,.478-.549A.4.4,0,0,0,12.313,80.556Z" fill="#f96f4d"/>
      <path id="Path_43514" data-name="Path 43514" d="M9.44,81.012a.537.537,0,0,0-.446.512.376.376,0,0,0,.446.381.536.536,0,0,0,.446-.512A.376.376,0,0,0,9.44,81.012Z" fill="#f96f4d"/>
      <path id="Path_43515" data-name="Path 43515" d="M6.567,81.469a.5.5,0,0,0-.414.476.35.35,0,0,0,.414.353.5.5,0,0,0,.415-.476A.349.349,0,0,0,6.567,81.469Z" fill="#f96f4d"/>
      <path id="Path_43516" data-name="Path 43516" d="M3.695,81.926a.458.458,0,0,0-.383.439.321.321,0,0,0,.383.325.458.458,0,0,0,.382-.438A.322.322,0,0,0,3.695,81.926Z" fill="#f96f4d"/>
      <path id="Path_43517" data-name="Path 43517" d="M.822,82.382a.422.422,0,0,0-.351.4.3.3,0,0,0,.351.3.42.42,0,0,0,.35-.4A.3.3,0,0,0,.822,82.382Z" fill="#f96f4d"/>
      <path id="Path_43518" data-name="Path 43518" d="M-2.051,82.839a.383.383,0,0,0-.319.366.268.268,0,0,0,.319.271.382.382,0,0,0,.319-.365A.269.269,0,0,0-2.051,82.839Z" fill="#f96f4d"/>
      <path id="Path_43519" data-name="Path 43519" d="M-4.924,83.3a.345.345,0,0,0-.287.329.241.241,0,0,0,.287.244.344.344,0,0,0,.287-.329A.241.241,0,0,0-4.924,83.3Z" fill="#f96f4d"/>
      <path id="Path_43520" data-name="Path 43520" d="M-7.8,83.752a.306.306,0,0,0-.254.293.214.214,0,0,0,.254.217.306.306,0,0,0,.255-.292A.215.215,0,0,0-7.8,83.752Z" fill="#f96f4d"/>
      <path id="Path_43521" data-name="Path 43521" d="M-10.669,84.217a.258.258,0,0,0-.215.247.18.18,0,0,0,.215.183.258.258,0,0,0,.215-.247A.181.181,0,0,0-10.669,84.217Z" fill="#f96f4d"/>
      <path id="Path_43522" data-name="Path 43522" d="M-13.542,84.674a.22.22,0,0,0-.183.21.154.154,0,0,0,.183.156.22.22,0,0,0,.183-.21A.154.154,0,0,0-13.542,84.674Z" fill="#f96f4d"/>
      <path id="Path_43523" data-name="Path 43523" d="M-16.415,85.13a.182.182,0,0,0-.151.174.127.127,0,0,0,.151.129.181.181,0,0,0,.151-.174A.127.127,0,0,0-16.415,85.13Z" fill="#f96f4d"/>
      <path id="Path_43524" data-name="Path 43524" d="M-19.288,85.587a.143.143,0,0,0-.119.137.1.1,0,0,0,.119.1.144.144,0,0,0,.12-.137A.1.1,0,0,0-19.288,85.587Z" fill="#f96f4d"/>
      <path id="Path_43525" data-name="Path 43525" d="M-22.16,86.044a.1.1,0,0,0-.088.1.074.074,0,0,0,.088.075.1.1,0,0,0,.087-.1A.073.073,0,0,0-22.16,86.044Z" fill="#f96f4d"/>
      <path id="Path_43526" data-name="Path 43526" d="M-25.033,86.5a.067.067,0,0,0-.056.064.048.048,0,0,0,.056.048.067.067,0,0,0,.056-.064A.048.048,0,0,0-25.033,86.5Z" fill="#f96f4d"/>
      <path id="Path_43527" data-name="Path 43527" d="M-27.906,86.957a.029.029,0,0,0-.024.027.02.02,0,0,0,.024.021.029.029,0,0,0,.024-.028A.02.02,0,0,0-27.906,86.957Z" fill="#f96f4d"/>
    </g>
    <g id="Group_175385" data-name="Group 175385" style="mix-blend-mode: multiply;isolation: isolate">
      <path id="Path_43528" data-name="Path 43528" d="M-2.979,212.867A1.29,1.29,0,0,0-1.9,211.635a.9.9,0,0,0-1.074-.915,1.288,1.288,0,0,0-1.073,1.232A.9.9,0,0,0-2.979,212.867Z" fill="#f96f4d"/>
      <path id="Path_43529" data-name="Path 43529" d="M-.715,212.532A1.288,1.288,0,0,0,.358,211.3a.9.9,0,0,0-1.073-.915,1.288,1.288,0,0,0-1.073,1.232A.9.9,0,0,0-.715,212.532Z" fill="#f96f4d"/>
      <path id="Path_43530" data-name="Path 43530" d="M1.548,212.172a1.259,1.259,0,0,0,1.049-1.2.883.883,0,0,0-1.049-.893,1.259,1.259,0,0,0-1.048,1.2A.882.882,0,0,0,1.548,212.172Z" fill="#f96f4d"/>
      <path id="Path_43531" data-name="Path 43531" d="M3.812,211.812a1.228,1.228,0,0,0,1.023-1.174.861.861,0,0,0-1.023-.872,1.228,1.228,0,0,0-1.023,1.174A.861.861,0,0,0,3.812,211.812Z" fill="#f96f4d"/>
      <path id="Path_43532" data-name="Path 43532" d="M6.076,211.452a1.2,1.2,0,0,0,1-1.145.841.841,0,0,0-1-.851,1.2,1.2,0,0,0-1,1.146A.84.84,0,0,0,6.076,211.452Z" fill="#f96f4d"/>
      <path id="Path_43533" data-name="Path 43533" d="M8.339,211.093a1.169,1.169,0,0,0,.973-1.117.818.818,0,0,0-.973-.829,1.168,1.168,0,0,0-.973,1.116A.82.82,0,0,0,8.339,211.093Z" fill="#f96f4d"/>
      <path id="Path_43534" data-name="Path 43534" d="M10.6,210.726a1.129,1.129,0,0,0,.942-1.08.794.794,0,0,0-.942-.8,1.131,1.131,0,0,0-.942,1.081A.793.793,0,0,0,10.6,210.726Z" fill="#f96f4d"/>
      <path id="Path_43535" data-name="Path 43535" d="M12.867,210.367a1.1,1.1,0,0,0,.916-1.052.771.771,0,0,0-.916-.781,1.1,1.1,0,0,0-.917,1.052A.772.772,0,0,0,12.867,210.367Z" fill="#f96f4d"/>
      <path id="Path_43536" data-name="Path 43536" d="M15.13,210.007a1.071,1.071,0,0,0,.892-1.023.751.751,0,0,0-.892-.76,1.071,1.071,0,0,0-.891,1.023A.75.75,0,0,0,15.13,210.007Z" fill="#f96f4d"/>
      <path id="Path_43537" data-name="Path 43537" d="M17.394,209.647a1.041,1.041,0,0,0,.866-.994.729.729,0,0,0-.866-.738,1.038,1.038,0,0,0-.866.994A.729.729,0,0,0,17.394,209.647Z" fill="#f96f4d"/>
      <ellipse id="Ellipse_330" data-name="Ellipse 330" cx="0.906" cy="0.781" rx="0.906" ry="0.781" transform="matrix(0.681, -0.733, 0.733, 0.681, 18.469, 208.578)" fill="#f96f4d"/>
      <path id="Path_43538" data-name="Path 43538" d="M21.921,208.927a.979.979,0,0,0,.816-.936.688.688,0,0,0-.816-.7.98.98,0,0,0-.816.937A.686.686,0,0,0,21.921,208.927Z" fill="#f96f4d"/>
      <path id="Path_43539" data-name="Path 43539" d="M24.185,208.568a.952.952,0,0,0,.791-.908.666.666,0,0,0-.791-.674.949.949,0,0,0-.791.908A.667.667,0,0,0,24.185,208.568Z" fill="#f96f4d"/>
      <ellipse id="Ellipse_331" data-name="Ellipse 331" cx="0.824" cy="0.711" rx="0.824" ry="0.711" transform="translate(25.366 207.562) rotate(-47.102)" fill="#f96f4d"/>
      <path id="Path_43540" data-name="Path 43540" d="M28.712,207.842a.882.882,0,0,0,.734-.843.618.618,0,0,0-.734-.626.881.881,0,0,0-.734.843A.618.618,0,0,0,28.712,207.842Z" fill="#f96f4d"/>
      <path id="Path_43541" data-name="Path 43541" d="M30.976,207.482a.853.853,0,0,0,.709-.814.6.6,0,0,0-.709-.6.853.853,0,0,0-.71.814A.6.6,0,0,0,30.976,207.482Z" fill="#f96f4d"/>
      <path id="Path_43542" data-name="Path 43542" d="M33.239,207.122a.822.822,0,0,0,.684-.785.576.576,0,0,0-.684-.583.82.82,0,0,0-.684.785A.576.576,0,0,0,33.239,207.122Z" fill="#f96f4d"/>
      <path id="Path_43543" data-name="Path 43543" d="M35.5,206.762a.791.791,0,0,0,.659-.756.555.555,0,0,0-.659-.562.791.791,0,0,0-.659.756A.555.555,0,0,0,35.5,206.762Z" fill="#f96f4d"/>
      <path id="Path_43544" data-name="Path 43544" d="M37.766,206.4a.759.759,0,0,0,.634-.727.534.534,0,0,0-.634-.541.762.762,0,0,0-.634.728A.534.534,0,0,0,37.766,206.4Z" fill="#f96f4d"/>
      <path id="Path_43545" data-name="Path 43545" d="M40.03,206.042a.73.73,0,0,0,.609-.7.513.513,0,0,0-.609-.519.73.73,0,0,0-.609.7A.512.512,0,0,0,40.03,206.042Z" fill="#f96f4d"/>
      <path id="Path_43546" data-name="Path 43546" d="M42.294,205.683a.7.7,0,0,0,.583-.67.491.491,0,0,0-.583-.5.7.7,0,0,0-.584.67A.492.492,0,0,0,42.294,205.683Z" fill="#f96f4d"/>
      <path id="Path_43547" data-name="Path 43547" d="M44.557,205.323a.671.671,0,0,0,.559-.641.47.47,0,0,0-.559-.476.67.67,0,0,0-.558.641A.471.471,0,0,0,44.557,205.323Z" fill="#f96f4d"/>
      <path id="Path_43548" data-name="Path 43548" d="M46.821,204.963a.64.64,0,0,0,.533-.612.449.449,0,0,0-.533-.455.64.64,0,0,0-.534.612A.449.449,0,0,0,46.821,204.963Z" fill="#f96f4d"/>
      <path id="Path_43549" data-name="Path 43549" d="M49.085,204.6a.6.6,0,0,0,.5-.577.422.422,0,0,0-.5-.427.6.6,0,0,0-.5.576A.423.423,0,0,0,49.085,204.6Z" fill="#f96f4d"/>
      <path id="Path_43550" data-name="Path 43550" d="M51.348,204.237a.572.572,0,0,0,.477-.548.4.4,0,0,0-.477-.406.573.573,0,0,0-.477.548A.4.4,0,0,0,51.348,204.237Z" fill="#f96f4d"/>
      <path id="Path_43551" data-name="Path 43551" d="M53.612,203.877a.543.543,0,0,0,.452-.519.381.381,0,0,0-.452-.385.543.543,0,0,0-.452.519A.38.38,0,0,0,53.612,203.877Z" fill="#f96f4d"/>
      <path id="Path_43552" data-name="Path 43552" d="M55.875,203.517a.512.512,0,0,0,.427-.49.359.359,0,0,0-.427-.363.512.512,0,0,0-.426.49A.359.359,0,0,0,55.875,203.517Z" fill="#f96f4d"/>
      <path id="Path_43553" data-name="Path 43553" d="M58.139,203.158a.483.483,0,0,0,.4-.462.339.339,0,0,0-.4-.342.482.482,0,0,0-.4.461A.339.339,0,0,0,58.139,203.158Z" fill="#f96f4d"/>
      <path id="Path_43554" data-name="Path 43554" d="M60.4,202.8a.453.453,0,0,0,.376-.433.316.316,0,0,0-.376-.32.452.452,0,0,0-.377.432A.317.317,0,0,0,60.4,202.8Z" fill="#f96f4d"/>
      <path id="Path_43555" data-name="Path 43555" d="M62.666,202.438a.423.423,0,0,0,.352-.4.3.3,0,0,0-.352-.3.422.422,0,0,0-.351.4A.3.3,0,0,0,62.666,202.438Z" fill="#f96f4d"/>
      <path id="Path_43556" data-name="Path 43556" d="M64.93,202.078a.392.392,0,0,0,.326-.375.275.275,0,0,0-.326-.278.394.394,0,0,0-.327.375A.275.275,0,0,0,64.93,202.078Z" fill="#f96f4d"/>
      <path id="Path_43557" data-name="Path 43557" d="M67.194,201.718a.361.361,0,0,0,.3-.346.253.253,0,0,0-.3-.256.361.361,0,0,0-.3.346A.254.254,0,0,0,67.194,201.718Z" fill="#f96f4d"/>
      <path id="Path_43558" data-name="Path 43558" d="M69.457,201.358a.33.33,0,0,0,.276-.317.232.232,0,0,0-.276-.235.333.333,0,0,0-.276.317A.232.232,0,0,0,69.457,201.358Z" fill="#f96f4d"/>
      <path id="Path_43559" data-name="Path 43559" d="M71.721,201a.3.3,0,0,0,.251-.289.212.212,0,0,0-.251-.214.3.3,0,0,0-.251.289A.212.212,0,0,0,71.721,201Z" fill="#f96f4d"/>
      <path id="Path_43560" data-name="Path 43560" d="M73.984,200.639a.272.272,0,0,0,.226-.26.19.19,0,0,0-.226-.192.271.271,0,0,0-.226.259A.191.191,0,0,0,73.984,200.639Z" fill="#f96f4d"/>
      <path id="Path_43561" data-name="Path 43561" d="M76.248,200.279a.241.241,0,0,0,.2-.231.169.169,0,0,0-.2-.171.242.242,0,0,0-.2.231A.169.169,0,0,0,76.248,200.279Z" fill="#f96f4d"/>
      <path id="Path_43562" data-name="Path 43562" d="M78.512,199.913a.2.2,0,0,0,.169-.195.142.142,0,0,0-.169-.144.2.2,0,0,0-.17.194A.143.143,0,0,0,78.512,199.913Z" fill="#f96f4d"/>
      <path id="Path_43563" data-name="Path 43563" d="M80.775,199.553a.174.174,0,0,0,.145-.166.123.123,0,0,0-.145-.123.174.174,0,0,0-.144.166A.121.121,0,0,0,80.775,199.553Z" fill="#f96f4d"/>
      <ellipse id="Ellipse_332" data-name="Ellipse 332" cx="0.128" cy="0.111" rx="0.128" ry="0.111" transform="matrix(0.682, -0.732, 0.732, 0.682, 82.87, 199.092)" fill="#f96f4d"/>
      <path id="Path_43564" data-name="Path 43564" d="M85.3,198.833a.113.113,0,0,0,.1-.108.08.08,0,0,0-.1-.08.113.113,0,0,0-.094.108A.079.079,0,0,0,85.3,198.833Z" fill="#f96f4d"/>
      <path id="Path_43565" data-name="Path 43565" d="M87.566,198.474a.084.084,0,0,0,.069-.08.059.059,0,0,0-.069-.059.084.084,0,0,0-.069.08A.059.059,0,0,0,87.566,198.474Z" fill="#f96f4d"/>
      <path id="Path_43566" data-name="Path 43566" d="M89.83,198.114a.053.053,0,0,0,.044-.051.037.037,0,0,0-.044-.037.051.051,0,0,0-.044.05A.037.037,0,0,0,89.83,198.114Z" fill="#f96f4d"/>
      <path id="Path_43567" data-name="Path 43567" d="M92.093,197.754a.022.022,0,0,0,.019-.022.016.016,0,0,0-.019-.016.023.023,0,0,0-.018.022A.016.016,0,0,0,92.093,197.754Z" fill="#f96f4d"/>
      <path id="Path_43568" data-name="Path 43568" d="M-2.979,215.13A1.288,1.288,0,0,0-1.9,213.9a.9.9,0,0,0-1.074-.915,1.289,1.289,0,0,0-1.073,1.233A.9.9,0,0,0-2.979,215.13Z" fill="#f96f4d"/>
      <path id="Path_43569" data-name="Path 43569" d="M-.715,214.795a1.288,1.288,0,0,0,1.073-1.232.9.9,0,0,0-1.073-.914,1.288,1.288,0,0,0-1.073,1.232A.9.9,0,0,0-.715,214.795Z" fill="#f96f4d"/>
      <path id="Path_43570" data-name="Path 43570" d="M1.548,214.436a1.26,1.26,0,0,0,1.049-1.2.883.883,0,0,0-1.049-.893,1.259,1.259,0,0,0-1.048,1.2A.884.884,0,0,0,1.548,214.436Z" fill="#f96f4d"/>
      <path id="Path_43571" data-name="Path 43571" d="M3.812,214.076A1.23,1.23,0,0,0,4.835,212.9a.861.861,0,0,0-1.023-.871A1.228,1.228,0,0,0,2.789,213.2.862.862,0,0,0,3.812,214.076Z" fill="#f96f4d"/>
      <path id="Path_43572" data-name="Path 43572" d="M6.076,213.716a1.2,1.2,0,0,0,1-1.146.84.84,0,0,0-1-.85,1.2,1.2,0,0,0-1,1.146A.84.84,0,0,0,6.076,213.716Z" fill="#f96f4d"/>
      <path id="Path_43573" data-name="Path 43573" d="M8.339,213.356a1.167,1.167,0,0,0,.973-1.117.819.819,0,0,0-.973-.829,1.17,1.17,0,0,0-.973,1.117A.819.819,0,0,0,8.339,213.356Z" fill="#f96f4d"/>
      <path id="Path_43574" data-name="Path 43574" d="M10.6,212.99a1.131,1.131,0,0,0,.942-1.081.793.793,0,0,0-.942-.8,1.131,1.131,0,0,0-.942,1.081A.793.793,0,0,0,10.6,212.99Z" fill="#f96f4d"/>
      <path id="Path_43575" data-name="Path 43575" d="M12.867,212.63a1.1,1.1,0,0,0,.916-1.052.772.772,0,0,0-.916-.781,1.1,1.1,0,0,0-.917,1.052A.772.772,0,0,0,12.867,212.63Z" fill="#f96f4d"/>
      <path id="Path_43576" data-name="Path 43576" d="M15.13,212.27a1.07,1.07,0,0,0,.892-1.023.751.751,0,0,0-.892-.759,1.07,1.07,0,0,0-.891,1.023A.75.75,0,0,0,15.13,212.27Z" fill="#f96f4d"/>
      <path id="Path_43577" data-name="Path 43577" d="M17.394,211.911a1.041,1.041,0,0,0,.866-.995.729.729,0,0,0-.866-.738,1.04,1.04,0,0,0-.866.994A.73.73,0,0,0,17.394,211.911Z" fill="#f96f4d"/>
      <ellipse id="Ellipse_333" data-name="Ellipse 333" cx="0.906" cy="0.781" rx="0.906" ry="0.781" transform="matrix(0.681, -0.733, 0.733, 0.681, 18.469, 210.842)" fill="#f96f4d"/>
      <path id="Path_43578" data-name="Path 43578" d="M21.921,211.191a.98.98,0,0,0,.816-.937.687.687,0,0,0-.816-.695.98.98,0,0,0-.816.937A.687.687,0,0,0,21.921,211.191Z" fill="#f96f4d"/>
      <path id="Path_43579" data-name="Path 43579" d="M24.185,210.831a.95.95,0,0,0,.791-.908.667.667,0,0,0-.791-.674.95.95,0,0,0-.791.908A.666.666,0,0,0,24.185,210.831Z" fill="#f96f4d"/>
      <path id="Path_43580" data-name="Path 43580" d="M26.448,210.471a.919.919,0,0,0,.766-.879.644.644,0,0,0-.766-.652.918.918,0,0,0-.765.879A.644.644,0,0,0,26.448,210.471Z" fill="#f96f4d"/>
      <ellipse id="Ellipse_334" data-name="Ellipse 334" cx="0.791" cy="0.682" rx="0.791" ry="0.682" transform="matrix(0.68, -0.733, 0.733, 0.68, 27.674, 209.486)" fill="#f96f4d"/>
      <path id="Path_43581" data-name="Path 43581" d="M30.976,209.745a.852.852,0,0,0,.709-.814.6.6,0,0,0-.709-.6.852.852,0,0,0-.71.814A.6.6,0,0,0,30.976,209.745Z" fill="#f96f4d"/>
      <path id="Path_43582" data-name="Path 43582" d="M33.239,209.386a.822.822,0,0,0,.684-.786.576.576,0,0,0-.684-.583.822.822,0,0,0-.684.786A.577.577,0,0,0,33.239,209.386Z" fill="#f96f4d"/>
      <path id="Path_43583" data-name="Path 43583" d="M35.5,209.026a.792.792,0,0,0,.659-.757.554.554,0,0,0-.659-.561.79.79,0,0,0-.659.756A.555.555,0,0,0,35.5,209.026Z" fill="#f96f4d"/>
      <path id="Path_43584" data-name="Path 43584" d="M37.766,208.666a.761.761,0,0,0,.634-.728.533.533,0,0,0-.634-.54.762.762,0,0,0-.634.728A.534.534,0,0,0,37.766,208.666Z" fill="#f96f4d"/>
      <path id="Path_43585" data-name="Path 43585" d="M40.03,208.306a.732.732,0,0,0,.609-.7.513.513,0,0,0-.609-.519.732.732,0,0,0-.609.7A.513.513,0,0,0,40.03,208.306Z" fill="#f96f4d"/>
      <path id="Path_43586" data-name="Path 43586" d="M42.294,207.946a.7.7,0,0,0,.583-.67.491.491,0,0,0-.583-.5.7.7,0,0,0-.584.67A.491.491,0,0,0,42.294,207.946Z" fill="#f96f4d"/>
      <path id="Path_43587" data-name="Path 43587" d="M44.557,207.586a.67.67,0,0,0,.559-.641.471.471,0,0,0-.559-.476.671.671,0,0,0-.558.641A.47.47,0,0,0,44.557,207.586Z" fill="#f96f4d"/>
      <path id="Path_43588" data-name="Path 43588" d="M46.821,207.227a.641.641,0,0,0,.533-.613.448.448,0,0,0-.533-.454.64.64,0,0,0-.534.612A.45.45,0,0,0,46.821,207.227Z" fill="#f96f4d"/>
      <path id="Path_43589" data-name="Path 43589" d="M49.085,206.861a.6.6,0,0,0,.5-.577.423.423,0,0,0-.5-.428.6.6,0,0,0-.5.577A.423.423,0,0,0,49.085,206.861Z" fill="#f96f4d"/>
      <path id="Path_43590" data-name="Path 43590" d="M51.348,206.5a.572.572,0,0,0,.477-.548.4.4,0,0,0-.477-.406.573.573,0,0,0-.477.547A.4.4,0,0,0,51.348,206.5Z" fill="#f96f4d"/>
      <path id="Path_43591" data-name="Path 43591" d="M53.612,206.141a.543.543,0,0,0,.452-.519.381.381,0,0,0-.452-.385.542.542,0,0,0-.452.519A.381.381,0,0,0,53.612,206.141Z" fill="#f96f4d"/>
      <path id="Path_43592" data-name="Path 43592" d="M55.875,205.781a.512.512,0,0,0,.427-.49.36.36,0,0,0-.427-.364.513.513,0,0,0-.426.49A.359.359,0,0,0,55.875,205.781Z" fill="#f96f4d"/>
      <path id="Path_43593" data-name="Path 43593" d="M58.139,205.421a.482.482,0,0,0,.4-.461.338.338,0,0,0-.4-.342.482.482,0,0,0-.4.461A.338.338,0,0,0,58.139,205.421Z" fill="#f96f4d"/>
      <path id="Path_43594" data-name="Path 43594" d="M60.4,205.061a.451.451,0,0,0,.376-.432.317.317,0,0,0-.376-.321.452.452,0,0,0-.377.432A.317.317,0,0,0,60.4,205.061Z" fill="#f96f4d"/>
      <path id="Path_43595" data-name="Path 43595" d="M62.666,204.7a.424.424,0,0,0,.352-.4.3.3,0,0,0-.352-.3.421.421,0,0,0-.351.4A.3.3,0,0,0,62.666,204.7Z" fill="#f96f4d"/>
      <path id="Path_43596" data-name="Path 43596" d="M64.93,204.342a.393.393,0,0,0,.326-.375.274.274,0,0,0-.326-.278.393.393,0,0,0-.327.375A.276.276,0,0,0,64.93,204.342Z" fill="#f96f4d"/>
      <path id="Path_43597" data-name="Path 43597" d="M67.194,203.982a.363.363,0,0,0,.3-.346.254.254,0,0,0-.3-.257.363.363,0,0,0-.3.346A.254.254,0,0,0,67.194,203.982Z" fill="#f96f4d"/>
      <path id="Path_43598" data-name="Path 43598" d="M69.457,203.622a.33.33,0,0,0,.276-.317.232.232,0,0,0-.276-.235.331.331,0,0,0-.276.317A.232.232,0,0,0,69.457,203.622Z" fill="#f96f4d"/>
      <path id="Path_43599" data-name="Path 43599" d="M71.721,203.262a.3.3,0,0,0,.251-.288.212.212,0,0,0-.251-.214.3.3,0,0,0-.251.288A.211.211,0,0,0,71.721,203.262Z" fill="#f96f4d"/>
      <path id="Path_43600" data-name="Path 43600" d="M73.984,202.9a.27.27,0,0,0,.226-.259.191.191,0,0,0-.226-.193.273.273,0,0,0-.226.26A.19.19,0,0,0,73.984,202.9Z" fill="#f96f4d"/>
      <path id="Path_43601" data-name="Path 43601" d="M76.248,202.543a.242.242,0,0,0,.2-.231.169.169,0,0,0-.2-.171.241.241,0,0,0-.2.23A.17.17,0,0,0,76.248,202.543Z" fill="#f96f4d"/>
      <path id="Path_43602" data-name="Path 43602" d="M78.512,202.177a.2.2,0,0,0,.169-.2.142.142,0,0,0-.169-.144.2.2,0,0,0-.17.194A.144.144,0,0,0,78.512,202.177Z" fill="#f96f4d"/>
      <path id="Path_43603" data-name="Path 43603" d="M80.775,201.817a.174.174,0,0,0,.145-.166.122.122,0,0,0-.145-.123.174.174,0,0,0-.144.166A.122.122,0,0,0,80.775,201.817Z" fill="#f96f4d"/>
      <path id="Path_43604" data-name="Path 43604" d="M83.039,201.457a.143.143,0,0,0,.119-.137.1.1,0,0,0-.119-.1.143.143,0,0,0-.119.137A.1.1,0,0,0,83.039,201.457Z" fill="#f96f4d"/>
      <path id="Path_43605" data-name="Path 43605" d="M85.3,201.1a.114.114,0,0,0,.1-.108.08.08,0,0,0-.1-.08.112.112,0,0,0-.094.108A.079.079,0,0,0,85.3,201.1Z" fill="#f96f4d"/>
      <path id="Path_43606" data-name="Path 43606" d="M87.566,200.737a.082.082,0,0,0,.069-.079.058.058,0,0,0-.069-.059.083.083,0,0,0-.069.079A.058.058,0,0,0,87.566,200.737Z" fill="#f96f4d"/>
      <path id="Path_43607" data-name="Path 43607" d="M89.83,200.377a.052.052,0,0,0,.044-.05.037.037,0,0,0-.044-.037.051.051,0,0,0-.044.05A.036.036,0,0,0,89.83,200.377Z" fill="#f96f4d"/>
      <path id="Path_43608" data-name="Path 43608" d="M92.093,200.018a.023.023,0,0,0,.019-.022.016.016,0,0,0-.019-.016.022.022,0,0,0-.018.022A.016.016,0,0,0,92.093,200.018Z" fill="#f96f4d"/>
      <path id="Path_43609" data-name="Path 43609" d="M-2.979,217.394A1.289,1.289,0,0,0-1.9,216.162a.9.9,0,0,0-1.074-.915,1.288,1.288,0,0,0-1.073,1.232A.9.9,0,0,0-2.979,217.394Z" fill="#f96f4d"/>
      <path id="Path_43610" data-name="Path 43610" d="M-.715,217.059a1.288,1.288,0,0,0,1.073-1.232.9.9,0,0,0-1.073-.915,1.289,1.289,0,0,0-1.073,1.232A.9.9,0,0,0-.715,217.059Z" fill="#f96f4d"/>
      <path id="Path_43611" data-name="Path 43611" d="M1.548,216.7A1.259,1.259,0,0,0,2.6,215.5a.883.883,0,0,0-1.049-.893,1.259,1.259,0,0,0-1.048,1.2A.882.882,0,0,0,1.548,216.7Z" fill="#f96f4d"/>
      <path id="Path_43612" data-name="Path 43612" d="M3.812,216.339a1.228,1.228,0,0,0,1.023-1.174.862.862,0,0,0-1.023-.872,1.23,1.23,0,0,0-1.023,1.175A.861.861,0,0,0,3.812,216.339Z" fill="#f96f4d"/>
      <path id="Path_43613" data-name="Path 43613" d="M6.076,215.98a1.2,1.2,0,0,0,1-1.146.84.84,0,0,0-1-.85,1.2,1.2,0,0,0-1,1.145A.841.841,0,0,0,6.076,215.98Z" fill="#f96f4d"/>
      <path id="Path_43614" data-name="Path 43614" d="M8.339,215.62a1.169,1.169,0,0,0,.973-1.117.819.819,0,0,0-.973-.829,1.168,1.168,0,0,0-.973,1.117A.82.82,0,0,0,8.339,215.62Z" fill="#f96f4d"/>
      <path id="Path_43615" data-name="Path 43615" d="M10.6,215.254a1.131,1.131,0,0,0,.942-1.081.793.793,0,0,0-.942-.8,1.13,1.13,0,0,0-.942,1.08A.794.794,0,0,0,10.6,215.254Z" fill="#f96f4d"/>
      <path id="Path_43616" data-name="Path 43616" d="M12.867,214.894a1.1,1.1,0,0,0,.916-1.052.771.771,0,0,0-.916-.781,1.1,1.1,0,0,0-.917,1.052A.772.772,0,0,0,12.867,214.894Z" fill="#f96f4d"/>
      <path id="Path_43617" data-name="Path 43617" d="M15.13,214.534a1.071,1.071,0,0,0,.892-1.023.752.752,0,0,0-.892-.76,1.071,1.071,0,0,0-.891,1.024A.75.75,0,0,0,15.13,214.534Z" fill="#f96f4d"/>
      <path id="Path_43618" data-name="Path 43618" d="M17.394,214.174a1.041,1.041,0,0,0,.866-.994.729.729,0,0,0-.866-.738,1.04,1.04,0,0,0-.866.994A.729.729,0,0,0,17.394,214.174Z" fill="#f96f4d"/>
      <path id="Path_43619" data-name="Path 43619" d="M19.657,213.814a1.01,1.01,0,0,0,.842-.965.709.709,0,0,0-.842-.717,1.011,1.011,0,0,0-.841.966A.708.708,0,0,0,19.657,213.814Z" fill="#f96f4d"/>
      <path id="Path_43620" data-name="Path 43620" d="M21.921,213.455a.98.98,0,0,0,.816-.937.686.686,0,0,0-.816-.7.979.979,0,0,0-.816.936A.688.688,0,0,0,21.921,213.455Z" fill="#f96f4d"/>
      <path id="Path_43621" data-name="Path 43621" d="M24.185,213.1a.951.951,0,0,0,.791-.908.666.666,0,0,0-.791-.674.95.95,0,0,0-.791.908A.666.666,0,0,0,24.185,213.1Z" fill="#f96f4d"/>
      <path id="Path_43622" data-name="Path 43622" d="M26.448,212.735a.92.92,0,0,0,.766-.879.645.645,0,0,0-.766-.653.919.919,0,0,0-.765.879A.645.645,0,0,0,26.448,212.735Z" fill="#f96f4d"/>
      <path id="Path_43623" data-name="Path 43623" d="M28.712,212.369a.882.882,0,0,0,.734-.843.618.618,0,0,0-.734-.626.881.881,0,0,0-.734.843A.618.618,0,0,0,28.712,212.369Z" fill="#f96f4d"/>
      <path id="Path_43624" data-name="Path 43624" d="M30.976,212.009a.852.852,0,0,0,.709-.814.6.6,0,0,0-.709-.605.853.853,0,0,0-.71.815A.6.6,0,0,0,30.976,212.009Z" fill="#f96f4d"/>
      <path id="Path_43625" data-name="Path 43625" d="M33.239,211.649a.821.821,0,0,0,.684-.785.576.576,0,0,0-.684-.583.821.821,0,0,0-.684.785A.576.576,0,0,0,33.239,211.649Z" fill="#f96f4d"/>
      <path id="Path_43626" data-name="Path 43626" d="M35.5,211.289a.79.79,0,0,0,.659-.756.555.555,0,0,0-.659-.562.792.792,0,0,0-.659.757A.554.554,0,0,0,35.5,211.289Z" fill="#f96f4d"/>
      <path id="Path_43627" data-name="Path 43627" d="M37.766,210.93a.761.761,0,0,0,.634-.728.533.533,0,0,0-.634-.54.76.76,0,0,0-.634.727A.535.535,0,0,0,37.766,210.93Z" fill="#f96f4d"/>
      <path id="Path_43628" data-name="Path 43628" d="M40.03,210.57a.732.732,0,0,0,.609-.7.513.513,0,0,0-.609-.519.732.732,0,0,0-.609.7A.513.513,0,0,0,40.03,210.57Z" fill="#f96f4d"/>
      <path id="Path_43629" data-name="Path 43629" d="M42.294,210.21a.7.7,0,0,0,.583-.67.491.491,0,0,0-.583-.5.7.7,0,0,0-.584.67A.491.491,0,0,0,42.294,210.21Z" fill="#f96f4d"/>
      <path id="Path_43630" data-name="Path 43630" d="M44.557,209.85a.671.671,0,0,0,.559-.641.47.47,0,0,0-.559-.476.67.67,0,0,0-.558.641A.47.47,0,0,0,44.557,209.85Z" fill="#f96f4d"/>
      <path id="Path_43631" data-name="Path 43631" d="M46.821,209.49a.639.639,0,0,0,.533-.612.449.449,0,0,0-.533-.455.641.641,0,0,0-.534.613A.449.449,0,0,0,46.821,209.49Z" fill="#f96f4d"/>
      <path id="Path_43632" data-name="Path 43632" d="M49.085,209.124a.6.6,0,0,0,.5-.576.423.423,0,0,0-.5-.428.6.6,0,0,0-.5.576A.423.423,0,0,0,49.085,209.124Z" fill="#f96f4d"/>
      <path id="Path_43633" data-name="Path 43633" d="M51.348,208.764a.572.572,0,0,0,.477-.547.4.4,0,0,0-.477-.407.573.573,0,0,0-.477.548A.4.4,0,0,0,51.348,208.764Z" fill="#f96f4d"/>
      <path id="Path_43634" data-name="Path 43634" d="M53.612,208.4a.542.542,0,0,0,.452-.518.381.381,0,0,0-.452-.385.542.542,0,0,0-.452.518A.38.38,0,0,0,53.612,208.4Z" fill="#f96f4d"/>
      <path id="Path_43635" data-name="Path 43635" d="M55.875,208.045a.513.513,0,0,0,.427-.49.359.359,0,0,0-.427-.364.512.512,0,0,0-.426.49A.359.359,0,0,0,55.875,208.045Z" fill="#f96f4d"/>
      <path id="Path_43636" data-name="Path 43636" d="M58.139,207.685a.482.482,0,0,0,.4-.461.339.339,0,0,0-.4-.343.483.483,0,0,0-.4.462A.339.339,0,0,0,58.139,207.685Z" fill="#f96f4d"/>
      <path id="Path_43637" data-name="Path 43637" d="M60.4,207.325a.452.452,0,0,0,.376-.432.317.317,0,0,0-.376-.321.452.452,0,0,0-.377.432A.317.317,0,0,0,60.4,207.325Z" fill="#f96f4d"/>
      <path id="Path_43638" data-name="Path 43638" d="M62.666,206.965a.423.423,0,0,0,.352-.4.3.3,0,0,0-.352-.3.423.423,0,0,0-.351.4A.3.3,0,0,0,62.666,206.965Z" fill="#f96f4d"/>
      <path id="Path_43639" data-name="Path 43639" d="M64.93,206.6a.391.391,0,0,0,.326-.374.274.274,0,0,0-.326-.278.392.392,0,0,0-.327.374A.275.275,0,0,0,64.93,206.6Z" fill="#f96f4d"/>
      <path id="Path_43640" data-name="Path 43640" d="M67.194,206.246a.363.363,0,0,0,.3-.346.253.253,0,0,0-.3-.257.362.362,0,0,0-.3.346A.255.255,0,0,0,67.194,206.246Z" fill="#f96f4d"/>
      <path id="Path_43641" data-name="Path 43641" d="M69.457,205.886a.332.332,0,0,0,.276-.317.233.233,0,0,0-.276-.236.333.333,0,0,0-.276.317A.233.233,0,0,0,69.457,205.886Z" fill="#f96f4d"/>
      <path id="Path_43642" data-name="Path 43642" d="M71.721,205.526a.3.3,0,0,0,.251-.288.211.211,0,0,0-.251-.214.3.3,0,0,0-.251.288A.211.211,0,0,0,71.721,205.526Z" fill="#f96f4d"/>
      <path id="Path_43643" data-name="Path 43643" d="M73.984,205.166a.271.271,0,0,0,.226-.259.191.191,0,0,0-.226-.193.273.273,0,0,0-.226.259A.191.191,0,0,0,73.984,205.166Z" fill="#f96f4d"/>
      <path id="Path_43644" data-name="Path 43644" d="M76.248,204.806a.24.24,0,0,0,.2-.23.169.169,0,0,0-.2-.171.24.24,0,0,0-.2.23A.169.169,0,0,0,76.248,204.806Z" fill="#f96f4d"/>
      <path id="Path_43645" data-name="Path 43645" d="M78.512,204.44a.2.2,0,0,0,.169-.194.143.143,0,0,0-.169-.145.2.2,0,0,0-.17.2A.143.143,0,0,0,78.512,204.44Z" fill="#f96f4d"/>
      <path id="Path_43646" data-name="Path 43646" d="M80.775,204.08a.173.173,0,0,0,.145-.165.122.122,0,0,0-.145-.123.173.173,0,0,0-.144.165A.121.121,0,0,0,80.775,204.08Z" fill="#f96f4d"/>
      <path id="Path_43647" data-name="Path 43647" d="M83.039,203.72a.142.142,0,0,0,.119-.136.1.1,0,0,0-.119-.1.143.143,0,0,0-.119.137A.1.1,0,0,0,83.039,203.72Z" fill="#f96f4d"/>
      <path id="Path_43648" data-name="Path 43648" d="M85.3,203.361a.114.114,0,0,0,.1-.108.081.081,0,0,0-.1-.081.113.113,0,0,0-.094.108A.08.08,0,0,0,85.3,203.361Z" fill="#f96f4d"/>
      <path id="Path_43649" data-name="Path 43649" d="M87.566,203a.083.083,0,0,0,.069-.079.058.058,0,0,0-.069-.059.082.082,0,0,0-.069.079A.059.059,0,0,0,87.566,203Z" fill="#f96f4d"/>
      <path id="Path_43650" data-name="Path 43650" d="M89.83,202.641a.053.053,0,0,0,.044-.05.037.037,0,0,0-.044-.038.052.052,0,0,0-.044.051A.036.036,0,0,0,89.83,202.641Z" fill="#f96f4d"/>
      <path id="Path_43651" data-name="Path 43651" d="M92.093,202.281a.022.022,0,0,0,.019-.021.015.015,0,0,0-.019-.016.021.021,0,0,0-.018.021A.015.015,0,0,0,92.093,202.281Z" fill="#f96f4d"/>
      <path id="Path_43652" data-name="Path 43652" d="M-2.979,219.657A1.288,1.288,0,0,0-1.9,218.425a.9.9,0,0,0-1.074-.914,1.288,1.288,0,0,0-1.073,1.232A.9.9,0,0,0-2.979,219.657Z" fill="#f96f4d"/>
      <path id="Path_43653" data-name="Path 43653" d="M-.715,219.323a1.289,1.289,0,0,0,1.073-1.232.9.9,0,0,0-1.073-.915,1.288,1.288,0,0,0-1.073,1.232A.9.9,0,0,0-.715,219.323Z" fill="#f96f4d"/>
      <path id="Path_43654" data-name="Path 43654" d="M1.548,218.963a1.259,1.259,0,0,0,1.049-1.2.884.884,0,0,0-1.049-.894A1.26,1.26,0,0,0,.5,218.07.882.882,0,0,0,1.548,218.963Z" fill="#f96f4d"/>
      <path id="Path_43655" data-name="Path 43655" d="M3.812,218.6a1.228,1.228,0,0,0,1.023-1.174.861.861,0,0,0-1.023-.872,1.228,1.228,0,0,0-1.023,1.174A.861.861,0,0,0,3.812,218.6Z" fill="#f96f4d"/>
      <path id="Path_43656" data-name="Path 43656" d="M6.076,218.243a1.2,1.2,0,0,0,1-1.145.841.841,0,0,0-1-.851,1.2,1.2,0,0,0-1,1.146A.84.84,0,0,0,6.076,218.243Z" fill="#f96f4d"/>
      <path id="Path_43657" data-name="Path 43657" d="M8.339,217.883a1.167,1.167,0,0,0,.973-1.116.818.818,0,0,0-.973-.829,1.168,1.168,0,0,0-.973,1.116A.819.819,0,0,0,8.339,217.883Z" fill="#f96f4d"/>
      <path id="Path_43658" data-name="Path 43658" d="M10.6,217.517a1.13,1.13,0,0,0,.942-1.08.794.794,0,0,0-.942-.8,1.131,1.131,0,0,0-.942,1.081A.793.793,0,0,0,10.6,217.517Z" fill="#f96f4d"/>
      <path id="Path_43659" data-name="Path 43659" d="M12.867,217.157a1.1,1.1,0,0,0,.916-1.051.771.771,0,0,0-.916-.781,1.1,1.1,0,0,0-.917,1.052A.771.771,0,0,0,12.867,217.157Z" fill="#f96f4d"/>
      <path id="Path_43660" data-name="Path 43660" d="M15.13,216.8a1.071,1.071,0,0,0,.892-1.023.751.751,0,0,0-.892-.76,1.071,1.071,0,0,0-.891,1.023A.751.751,0,0,0,15.13,216.8Z" fill="#f96f4d"/>
      <path id="Path_43661" data-name="Path 43661" d="M17.394,216.438a1.041,1.041,0,0,0,.866-.994.73.73,0,0,0-.866-.739,1.04,1.04,0,0,0-.866.995A.729.729,0,0,0,17.394,216.438Z" fill="#f96f4d"/>
      <path id="Path_43662" data-name="Path 43662" d="M19.657,216.078a1.011,1.011,0,0,0,.842-.965.709.709,0,0,0-.842-.717,1.01,1.01,0,0,0-.841.965A.708.708,0,0,0,19.657,216.078Z" fill="#f96f4d"/>
      <path id="Path_43663" data-name="Path 43663" d="M21.921,215.718a.979.979,0,0,0,.816-.936.688.688,0,0,0-.816-.7.98.98,0,0,0-.816.937A.686.686,0,0,0,21.921,215.718Z" fill="#f96f4d"/>
      <path id="Path_43664" data-name="Path 43664" d="M24.185,215.358a.95.95,0,0,0,.791-.907.666.666,0,0,0-.791-.674.949.949,0,0,0-.791.907A.666.666,0,0,0,24.185,215.358Z" fill="#f96f4d"/>
      <path id="Path_43665" data-name="Path 43665" d="M26.448,215a.921.921,0,0,0,.766-.879.645.645,0,0,0-.766-.653.919.919,0,0,0-.765.879A.645.645,0,0,0,26.448,215Z" fill="#f96f4d"/>
      <path id="Path_43666" data-name="Path 43666" d="M28.712,214.632a.881.881,0,0,0,.734-.843.618.618,0,0,0-.734-.625.881.881,0,0,0-.734.843A.618.618,0,0,0,28.712,214.632Z" fill="#f96f4d"/>
      <path id="Path_43667" data-name="Path 43667" d="M30.976,214.273a.853.853,0,0,0,.709-.815.6.6,0,0,0-.709-.6.852.852,0,0,0-.71.814A.6.6,0,0,0,30.976,214.273Z" fill="#f96f4d"/>
      <path id="Path_43668" data-name="Path 43668" d="M33.239,213.913a.822.822,0,0,0,.684-.786.577.577,0,0,0-.684-.583.822.822,0,0,0-.684.786A.576.576,0,0,0,33.239,213.913Z" fill="#f96f4d"/>
      <path id="Path_43669" data-name="Path 43669" d="M35.5,213.553a.792.792,0,0,0,.659-.757.554.554,0,0,0-.659-.561.791.791,0,0,0-.659.756A.555.555,0,0,0,35.5,213.553Z" fill="#f96f4d"/>
      <path id="Path_43670" data-name="Path 43670" d="M37.766,213.193a.76.76,0,0,0,.634-.728.533.533,0,0,0-.634-.54.762.762,0,0,0-.634.728A.534.534,0,0,0,37.766,213.193Z" fill="#f96f4d"/>
      <path id="Path_43671" data-name="Path 43671" d="M40.03,212.833a.73.73,0,0,0,.609-.7.512.512,0,0,0-.609-.518.73.73,0,0,0-.609.7A.513.513,0,0,0,40.03,212.833Z" fill="#f96f4d"/>
      <path id="Path_43672" data-name="Path 43672" d="M42.294,212.473a.7.7,0,0,0,.583-.67.491.491,0,0,0-.583-.5.7.7,0,0,0-.584.67A.491.491,0,0,0,42.294,212.473Z" fill="#f96f4d"/>
      <path id="Path_43673" data-name="Path 43673" d="M44.557,212.114a.671.671,0,0,0,.559-.642.471.471,0,0,0-.559-.476.671.671,0,0,0-.558.642A.471.471,0,0,0,44.557,212.114Z" fill="#f96f4d"/>
      <path id="Path_43674" data-name="Path 43674" d="M46.821,211.754a.64.64,0,0,0,.533-.613.448.448,0,0,0-.533-.454.64.64,0,0,0-.534.612A.45.45,0,0,0,46.821,211.754Z" fill="#f96f4d"/>
      <path id="Path_43675" data-name="Path 43675" d="M49.085,211.388a.6.6,0,0,0,.5-.577.423.423,0,0,0-.5-.428.6.6,0,0,0-.5.577A.423.423,0,0,0,49.085,211.388Z" fill="#f96f4d"/>
      <path id="Path_43676" data-name="Path 43676" d="M51.348,211.028a.572.572,0,0,0,.477-.548.4.4,0,0,0-.477-.406.573.573,0,0,0-.477.547A.4.4,0,0,0,51.348,211.028Z" fill="#f96f4d"/>
      <path id="Path_43677" data-name="Path 43677" d="M53.612,210.668a.543.543,0,0,0,.452-.519.381.381,0,0,0-.452-.385.542.542,0,0,0-.452.519A.38.38,0,0,0,53.612,210.668Z" fill="#f96f4d"/>
      <path id="Path_43678" data-name="Path 43678" d="M55.875,210.308a.512.512,0,0,0,.427-.49.359.359,0,0,0-.427-.363.512.512,0,0,0-.426.49A.359.359,0,0,0,55.875,210.308Z" fill="#f96f4d"/>
      <path id="Path_43679" data-name="Path 43679" d="M58.139,209.948a.482.482,0,0,0,.4-.461.338.338,0,0,0-.4-.342.482.482,0,0,0-.4.461A.338.338,0,0,0,58.139,209.948Z" fill="#f96f4d"/>
      <path id="Path_43680" data-name="Path 43680" d="M60.4,209.589a.453.453,0,0,0,.376-.433.317.317,0,0,0-.376-.321.454.454,0,0,0-.377.433A.318.318,0,0,0,60.4,209.589Z" fill="#f96f4d"/>
      <path id="Path_43681" data-name="Path 43681" d="M62.666,209.229a.424.424,0,0,0,.352-.4.3.3,0,0,0-.352-.3.421.421,0,0,0-.351.4A.3.3,0,0,0,62.666,209.229Z" fill="#f96f4d"/>
      <path id="Path_43682" data-name="Path 43682" d="M64.93,208.869a.392.392,0,0,0,.326-.375.275.275,0,0,0-.326-.278.394.394,0,0,0-.327.375A.275.275,0,0,0,64.93,208.869Z" fill="#f96f4d"/>
      <path id="Path_43683" data-name="Path 43683" d="M67.194,208.509a.361.361,0,0,0,.3-.346.253.253,0,0,0-.3-.256.361.361,0,0,0-.3.345A.254.254,0,0,0,67.194,208.509Z" fill="#f96f4d"/>
      <path id="Path_43684" data-name="Path 43684" d="M69.457,208.149a.33.33,0,0,0,.276-.317.232.232,0,0,0-.276-.235.332.332,0,0,0-.276.317A.232.232,0,0,0,69.457,208.149Z" fill="#f96f4d"/>
      <path id="Path_43685" data-name="Path 43685" d="M71.721,207.79a.3.3,0,0,0,.251-.289.212.212,0,0,0-.251-.214.3.3,0,0,0-.251.289A.212.212,0,0,0,71.721,207.79Z" fill="#f96f4d"/>
      <path id="Path_43686" data-name="Path 43686" d="M73.984,207.43a.272.272,0,0,0,.226-.26.189.189,0,0,0-.226-.192.271.271,0,0,0-.226.259A.191.191,0,0,0,73.984,207.43Z" fill="#f96f4d"/>
      <path id="Path_43687" data-name="Path 43687" d="M76.248,207.07a.242.242,0,0,0,.2-.231.169.169,0,0,0-.2-.171.242.242,0,0,0-.2.231A.169.169,0,0,0,76.248,207.07Z" fill="#f96f4d"/>
      <path id="Path_43688" data-name="Path 43688" d="M78.512,206.7a.2.2,0,0,0,.169-.195.142.142,0,0,0-.169-.144.2.2,0,0,0-.17.194A.143.143,0,0,0,78.512,206.7Z" fill="#f96f4d"/>
      <path id="Path_43689" data-name="Path 43689" d="M80.775,206.344a.174.174,0,0,0,.145-.166.122.122,0,0,0-.145-.123.174.174,0,0,0-.144.166A.121.121,0,0,0,80.775,206.344Z" fill="#f96f4d"/>
      <path id="Path_43690" data-name="Path 43690" d="M83.039,205.984a.143.143,0,0,0,.119-.137.1.1,0,0,0-.119-.1.142.142,0,0,0-.119.136A.1.1,0,0,0,83.039,205.984Z" fill="#f96f4d"/>
      <path id="Path_43691" data-name="Path 43691" d="M85.3,205.624a.113.113,0,0,0,.1-.108.08.08,0,0,0-.1-.08.113.113,0,0,0-.094.108A.079.079,0,0,0,85.3,205.624Z" fill="#f96f4d"/>
      <path id="Path_43692" data-name="Path 43692" d="M87.566,205.264a.082.082,0,0,0,.069-.079.059.059,0,0,0-.069-.059.083.083,0,0,0-.069.08A.057.057,0,0,0,87.566,205.264Z" fill="#f96f4d"/>
      <path id="Path_43693" data-name="Path 43693" d="M89.83,204.9a.054.054,0,0,0,.044-.051.037.037,0,0,0-.044-.037.051.051,0,0,0-.044.05A.038.038,0,0,0,89.83,204.9Z" fill="#f96f4d"/>
      <path id="Path_43694" data-name="Path 43694" d="M92.093,204.545a.022.022,0,0,0,.019-.022.016.016,0,0,0-.019-.016.023.023,0,0,0-.018.022A.016.016,0,0,0,92.093,204.545Z" fill="#f96f4d"/>
      <path id="Path_43695" data-name="Path 43695" d="M-2.979,221.921A1.289,1.289,0,0,0-1.9,220.689a.9.9,0,0,0-1.074-.915,1.289,1.289,0,0,0-1.073,1.232A.9.9,0,0,0-2.979,221.921Z" fill="#f96f4d"/>
      <path id="Path_43696" data-name="Path 43696" d="M-.715,221.586a1.288,1.288,0,0,0,1.073-1.232.9.9,0,0,0-1.073-.914,1.288,1.288,0,0,0-1.073,1.232A.9.9,0,0,0-.715,221.586Z" fill="#f96f4d"/>
      <path id="Path_43697" data-name="Path 43697" d="M1.548,221.227a1.26,1.26,0,0,0,1.049-1.2.883.883,0,0,0-1.049-.893,1.259,1.259,0,0,0-1.048,1.2A.884.884,0,0,0,1.548,221.227Z" fill="#f96f4d"/>
      <path id="Path_43698" data-name="Path 43698" d="M3.812,220.867a1.23,1.23,0,0,0,1.023-1.175.862.862,0,0,0-1.023-.872,1.23,1.23,0,0,0-1.023,1.175A.862.862,0,0,0,3.812,220.867Z" fill="#f96f4d"/>
      <path id="Path_43699" data-name="Path 43699" d="M6.076,220.507a1.2,1.2,0,0,0,1-1.146.84.84,0,0,0-1-.85,1.2,1.2,0,0,0-1,1.145A.841.841,0,0,0,6.076,220.507Z" fill="#f96f4d"/>
      <path id="Path_43700" data-name="Path 43700" d="M8.339,220.147a1.167,1.167,0,0,0,.973-1.117.819.819,0,0,0-.973-.829,1.17,1.17,0,0,0-.973,1.117A.82.82,0,0,0,8.339,220.147Z" fill="#f96f4d"/>
      <path id="Path_43701" data-name="Path 43701" d="M10.6,219.781a1.131,1.131,0,0,0,.942-1.081.793.793,0,0,0-.942-.8,1.131,1.131,0,0,0-.942,1.081A.793.793,0,0,0,10.6,219.781Z" fill="#f96f4d"/>
      <path id="Path_43702" data-name="Path 43702" d="M12.867,219.421a1.1,1.1,0,0,0,.916-1.052.771.771,0,0,0-.916-.781,1.1,1.1,0,0,0-.917,1.052A.772.772,0,0,0,12.867,219.421Z" fill="#f96f4d"/>
      <path id="Path_43703" data-name="Path 43703" d="M15.13,219.061a1.071,1.071,0,0,0,.892-1.023.751.751,0,0,0-.892-.759,1.069,1.069,0,0,0-.891,1.023A.75.75,0,0,0,15.13,219.061Z" fill="#f96f4d"/>
      <ellipse id="Ellipse_335" data-name="Ellipse 335" cx="0.933" cy="0.805" rx="0.933" ry="0.805" transform="translate(16.17 217.971) rotate(-47.115)" fill="#f96f4d"/>
      <ellipse id="Ellipse_336" data-name="Ellipse 336" cx="0.906" cy="0.781" rx="0.906" ry="0.781" transform="matrix(0.681, -0.733, 0.733, 0.681, 18.469, 217.632)" fill="#f96f4d"/>
      <path id="Path_43704" data-name="Path 43704" d="M21.921,217.982a.98.98,0,0,0,.816-.937.686.686,0,0,0-.816-.695.979.979,0,0,0-.816.936A.688.688,0,0,0,21.921,217.982Z" fill="#f96f4d"/>
      <path id="Path_43705" data-name="Path 43705" d="M24.185,217.622a.951.951,0,0,0,.791-.908.667.667,0,0,0-.791-.674.95.95,0,0,0-.791.908A.666.666,0,0,0,24.185,217.622Z" fill="#f96f4d"/>
      <path id="Path_43706" data-name="Path 43706" d="M26.448,217.262a.919.919,0,0,0,.766-.879.644.644,0,0,0-.766-.652.918.918,0,0,0-.765.879A.644.644,0,0,0,26.448,217.262Z" fill="#f96f4d"/>
      <path id="Path_43707" data-name="Path 43707" d="M28.712,216.9a.881.881,0,0,0,.734-.843.618.618,0,0,0-.734-.626.882.882,0,0,0-.734.843A.618.618,0,0,0,28.712,216.9Z" fill="#f96f4d"/>
      <path id="Path_43708" data-name="Path 43708" d="M30.976,216.536a.852.852,0,0,0,.709-.814.6.6,0,0,0-.709-.6.852.852,0,0,0-.71.814A.6.6,0,0,0,30.976,216.536Z" fill="#f96f4d"/>
      <path id="Path_43709" data-name="Path 43709" d="M33.239,216.176a.82.82,0,0,0,.684-.785.576.576,0,0,0-.684-.583.822.822,0,0,0-.684.785A.576.576,0,0,0,33.239,216.176Z" fill="#f96f4d"/>
      <path id="Path_43710" data-name="Path 43710" d="M35.5,215.817a.792.792,0,0,0,.659-.757.556.556,0,0,0-.659-.562.792.792,0,0,0-.659.757A.556.556,0,0,0,35.5,215.817Z" fill="#f96f4d"/>
      <path id="Path_43711" data-name="Path 43711" d="M37.766,215.457a.761.761,0,0,0,.634-.728.533.533,0,0,0-.634-.54.761.761,0,0,0-.634.728A.534.534,0,0,0,37.766,215.457Z" fill="#f96f4d"/>
      <path id="Path_43712" data-name="Path 43712" d="M40.03,215.1a.732.732,0,0,0,.609-.7.513.513,0,0,0-.609-.519.732.732,0,0,0-.609.7A.513.513,0,0,0,40.03,215.1Z" fill="#f96f4d"/>
      <path id="Path_43713" data-name="Path 43713" d="M42.294,214.737a.7.7,0,0,0,.583-.67.491.491,0,0,0-.583-.5.7.7,0,0,0-.584.67A.491.491,0,0,0,42.294,214.737Z" fill="#f96f4d"/>
      <path id="Path_43714" data-name="Path 43714" d="M44.557,214.377a.67.67,0,0,0,.559-.641.471.471,0,0,0-.559-.476A.671.671,0,0,0,44,213.9.47.47,0,0,0,44.557,214.377Z" fill="#f96f4d"/>
      <path id="Path_43715" data-name="Path 43715" d="M46.821,214.017a.639.639,0,0,0,.533-.612.449.449,0,0,0-.533-.455.641.641,0,0,0-.534.613A.449.449,0,0,0,46.821,214.017Z" fill="#f96f4d"/>
      <path id="Path_43716" data-name="Path 43716" d="M49.085,213.651a.6.6,0,0,0,.5-.576.423.423,0,0,0-.5-.428.6.6,0,0,0-.5.576A.423.423,0,0,0,49.085,213.651Z" fill="#f96f4d"/>
      <path id="Path_43717" data-name="Path 43717" d="M51.348,213.292a.573.573,0,0,0,.477-.548.4.4,0,0,0-.477-.407.574.574,0,0,0-.477.548A.4.4,0,0,0,51.348,213.292Z" fill="#f96f4d"/>
      <path id="Path_43718" data-name="Path 43718" d="M53.612,212.932a.543.543,0,0,0,.452-.519.381.381,0,0,0-.452-.385.542.542,0,0,0-.452.519A.381.381,0,0,0,53.612,212.932Z" fill="#f96f4d"/>
      <path id="Path_43719" data-name="Path 43719" d="M55.875,212.572a.512.512,0,0,0,.427-.49.359.359,0,0,0-.427-.364.512.512,0,0,0-.426.49A.359.359,0,0,0,55.875,212.572Z" fill="#f96f4d"/>
      <path id="Path_43720" data-name="Path 43720" d="M58.139,212.212a.482.482,0,0,0,.4-.461.338.338,0,0,0-.4-.342.482.482,0,0,0-.4.461A.338.338,0,0,0,58.139,212.212Z" fill="#f96f4d"/>
      <path id="Path_43721" data-name="Path 43721" d="M60.4,211.852a.452.452,0,0,0,.376-.432.317.317,0,0,0-.376-.321.452.452,0,0,0-.377.432A.317.317,0,0,0,60.4,211.852Z" fill="#f96f4d"/>
      <path id="Path_43722" data-name="Path 43722" d="M62.666,211.492a.422.422,0,0,0,.352-.4.3.3,0,0,0-.352-.3.423.423,0,0,0-.351.4A.3.3,0,0,0,62.666,211.492Z" fill="#f96f4d"/>
      <path id="Path_43723" data-name="Path 43723" d="M64.93,211.133a.393.393,0,0,0,.326-.375.274.274,0,0,0-.326-.278.392.392,0,0,0-.327.374A.276.276,0,0,0,64.93,211.133Z" fill="#f96f4d"/>
      <path id="Path_43724" data-name="Path 43724" d="M67.194,210.773a.363.363,0,0,0,.3-.346.254.254,0,0,0-.3-.257.363.363,0,0,0-.3.346A.255.255,0,0,0,67.194,210.773Z" fill="#f96f4d"/>
      <path id="Path_43725" data-name="Path 43725" d="M69.457,210.413a.332.332,0,0,0,.276-.317.232.232,0,0,0-.276-.235.331.331,0,0,0-.276.317A.232.232,0,0,0,69.457,210.413Z" fill="#f96f4d"/>
      <path id="Path_43726" data-name="Path 43726" d="M71.721,210.053a.3.3,0,0,0,.251-.288.211.211,0,0,0-.251-.214.3.3,0,0,0-.251.288A.211.211,0,0,0,71.721,210.053Z" fill="#f96f4d"/>
      <path id="Path_43727" data-name="Path 43727" d="M73.984,209.693a.27.27,0,0,0,.226-.259.191.191,0,0,0-.226-.193.273.273,0,0,0-.226.26A.19.19,0,0,0,73.984,209.693Z" fill="#f96f4d"/>
      <path id="Path_43728" data-name="Path 43728" d="M76.248,209.333a.24.24,0,0,0,.2-.23.169.169,0,0,0-.2-.171.24.24,0,0,0-.2.23A.169.169,0,0,0,76.248,209.333Z" fill="#f96f4d"/>
      <path id="Path_43729" data-name="Path 43729" d="M78.512,208.967a.2.2,0,0,0,.169-.194.143.143,0,0,0-.169-.145.2.2,0,0,0-.17.195A.142.142,0,0,0,78.512,208.967Z" fill="#f96f4d"/>
      <path id="Path_43730" data-name="Path 43730" d="M80.775,208.608a.174.174,0,0,0,.145-.166.122.122,0,0,0-.145-.123.174.174,0,0,0-.144.166A.122.122,0,0,0,80.775,208.608Z" fill="#f96f4d"/>
      <path id="Path_43731" data-name="Path 43731" d="M83.039,208.248a.143.143,0,0,0,.119-.137.1.1,0,0,0-.119-.1.143.143,0,0,0-.119.137A.1.1,0,0,0,83.039,208.248Z" fill="#f96f4d"/>
      <path id="Path_43732" data-name="Path 43732" d="M85.3,207.888a.114.114,0,0,0,.1-.108.08.08,0,0,0-.1-.08.112.112,0,0,0-.094.108A.079.079,0,0,0,85.3,207.888Z" fill="#f96f4d"/>
      <path id="Path_43733" data-name="Path 43733" d="M87.566,207.528a.083.083,0,0,0,.069-.079.058.058,0,0,0-.069-.059.083.083,0,0,0-.069.079A.058.058,0,0,0,87.566,207.528Z" fill="#f96f4d"/>
      <path id="Path_43734" data-name="Path 43734" d="M89.83,207.168a.052.052,0,0,0,.044-.05.038.038,0,0,0-.044-.038.053.053,0,0,0-.044.051A.036.036,0,0,0,89.83,207.168Z" fill="#f96f4d"/>
      <path id="Path_43735" data-name="Path 43735" d="M92.093,206.808a.021.021,0,0,0,.019-.021.015.015,0,0,0-.019-.016.021.021,0,0,0-.018.021A.015.015,0,0,0,92.093,206.808Z" fill="#f96f4d"/>
    </g>
  </g>
</svg>
