<svg xmlns="http://www.w3.org/2000/svg" width="21.367" height="21.206" viewBox="0 0 21.367 21.206">
  <g id="Group_180090" data-name="Group 180090" transform="translate(0 -0.18)">
    <path id="Path_49052" data-name="Path 49052" d="M13.945,9.09l7.843,1.558a1.315,1.315,0,0,1,1.059,1.3v9.081a1.334,1.334,0,0,1-1.335,1.335H13.5a.441.441,0,0,0,.445-.445v-.445h7.567a.446.446,0,0,0,.445-.445V11.948a.447.447,0,0,0-.347-.436L13.945,10Z" transform="translate(-1.481 -0.977)" fill="#1b2444"/>
    <path id="Path_49053" data-name="Path 49053" d="M18.787,13.451a.445.445,0,0,1,0,.89H17.006a.445.445,0,0,1,0-.89Zm0,2.671a.445.445,0,0,1,0,.89H17.006a.445.445,0,0,1,0-.89Zm0,2.671a.445.445,0,0,1,0,.89H17.006a.445.445,0,0,1,0-.89Zm-4.9,3.116a.445.445,0,1,1-.89,0V9.445a.473.473,0,0,1,.16-.347.468.468,0,0,1,.374-.089l.356.071V21.909Z" transform="translate(-1.426 -0.968)" fill="#1b2444"/>
    <path id="Path_49054" data-name="Path 49054" d="M11.9,21.025v.445a.441.441,0,0,0,.445.445H8.787a.441.441,0,0,0,.445-.445v-.445ZM9.677,5a.445.445,0,0,1,0,.89H7.9A.445.445,0,0,1,7.9,5Zm.445,3.116a.441.441,0,0,1-.445.445H7.9a.445.445,0,1,1,0-.89H9.677A.441.441,0,0,1,10.122,8.116Zm-.445,2.226a.445.445,0,0,1,0,.89H7.9a.445.445,0,1,1,0-.89Zm0,2.671a.445.445,0,1,1,0,.89H7.9a.445.445,0,1,1,0-.89Zm-4.006.445a.441.441,0,0,1-.445.445H3.445a.445.445,0,1,1,0-.89H5.226A.441.441,0,0,1,5.671,13.458ZM5.226,5a.445.445,0,0,1,0,.89H3.445a.445.445,0,0,1,0-.89Zm0,2.671a.445.445,0,1,1,0,.89H3.445a.445.445,0,0,1,0-.89Zm0,2.671a.445.445,0,1,1,0,.89H3.445a.445.445,0,0,1,0-.89Zm3.116,6.677a.446.446,0,0,0-.445-.445H5.226a.441.441,0,0,0-.445.445v4.006H3.89V17.019a1.334,1.334,0,0,1,1.335-1.335H7.9a1.334,1.334,0,0,1,1.335,1.335v4.006h-.89Z" transform="translate(-0.329 -0.529)" fill="#1b2444"/>
    <path id="Path_49055" data-name="Path 49055" d="M4.89,23H9.342v.445a.441.441,0,0,1-.445.445H4.445A.441.441,0,0,1,4,23.445V23Z" transform="translate(-0.439 -2.504)" fill="#1b2444"/>
    <path id="Path_49056" data-name="Path 49056" d="M1.558.2l9.784,1.487A1.33,1.33,0,0,1,12.464,3v5.11l-.356-.071a.468.468,0,0,0-.374.089.473.473,0,0,0-.16.347V3a.45.45,0,0,0-.374-.445L1.416,1.079a.246.246,0,0,0-.08-.009.42.42,0,0,0-.285.107.426.426,0,0,0-.16.338V20.051a.446.446,0,0,0,.445.445H3.561v.445a.441.441,0,0,0,.445.445H1.335A1.334,1.334,0,0,1,0,20.051V1.515A1.311,1.311,0,0,1,.472.5,1.336,1.336,0,0,1,1.558.2Z" transform="translate(0 0)" fill="#1b2444"/>
  </g>
</svg>
