<svg width="203" height="153" viewBox="0 0 203 153" fill="none" xmlns="http://www.w3.org/2000/svg">
<path d="M168.354 144.208C168.354 144.208 193.54 126.264 200.782 95.7267C208.024 65.1895 196.954 28.1481 175.965 9.46597C154.976 -9.26229 117.197 3.37698 100.36 19.0146C83.523 34.6523 83.5691 34.6523 83.5691 34.6523C83.5691 34.6523 67.5163 43.4167 46.5277 42.6787C25.5391 41.8945 6.81086 70.5404 1.87508 93.0512C-3.06069 115.562 8.74826 145.361 8.74826 145.361L168.354 144.208Z" fill="#E6EFFA"/>
<path d="M179.84 148.775C179.84 148.775 197.415 139.226 201.981 117.084C206.548 94.9425 186.713 74.692 184.821 63.6211C182.93 52.5502 187.128 38.8038 169.553 28.102C151.978 17.4001 120.703 21.2288 108.847 18.5533C96.9923 15.8778 83.2921 -2.43526 59.582 1.76245C35.9179 5.96017 12.9919 18.5533 11.8848 46.046C10.7316 73.5388 19.5422 74.2768 10.7316 89.1764C1.96715 104.076 -1.49251 114.363 2.70521 129.631C6.90292 144.9 15.6674 149.098 15.6674 149.098L179.84 148.775Z" fill="#E6EFFA"/>
<path d="M143.168 143.793C144.275 142.64 160.281 110.58 142.43 81.1962C124.578 51.8122 79.7868 55.2257 61.935 66.7118C44.0832 78.1978 35.3649 93.0513 33.5197 108.689C31.7207 124.327 43.7142 148.775 43.7142 148.775L143.168 143.793Z" fill="#DDECFF"/>
<path d="M38.0849 89.8222H17.5115C16.2199 89.8222 15.2051 88.8074 15.2051 87.5158V77.2291C15.2051 75.9375 16.2199 74.9227 17.5115 74.9227H38.0849C39.3765 74.9227 40.3914 75.9375 40.3914 77.2291V87.5158C40.3914 88.8074 39.3304 89.8222 38.0849 89.8222Z" fill="#F45C37"/>
<path d="M27.7986 95.6345L31.0276 87.931H24.5234L27.7986 95.6345Z" fill="#F45C37"/>
<path d="M27.709 79.8124H33.6135V80.6888L36.4734 79.0282L33.6135 77.3676V78.1979H27.709V79.8124Z" fill="#002A54"/>
<path d="M36.4734 83.2259H30.569V82.3494L27.709 84.0101L30.569 85.6707V84.7943H36.4734V83.2259Z" fill="white"/>
<path d="M24.0618 84.7481L23.785 84.8404C23.785 84.8404 22.9086 83.8256 22.4473 82.7646C21.986 81.6575 21.986 80.3659 21.986 80.3659L22.1705 80.2736L20.925 77.2753C20.6944 77.4598 20.5099 77.6904 20.3254 77.9672C19.6334 79.1665 19.6796 80.9656 20.4176 82.7646C21.1095 84.5636 21.8937 86.132 23.2776 87.1468C24.1079 87.7465 24.7998 87.8387 25.3534 87.7465L24.0618 84.7481Z" fill="#002A54"/>
<path d="M24.9843 84.3791L24.6152 84.5175L25.9068 87.562C26.0452 87.5159 26.1836 87.4698 26.2759 87.3775C26.5988 87.193 26.7372 86.824 26.5988 86.4549L25.953 84.7943C25.7685 84.4253 25.3533 84.2408 24.9843 84.3791Z" fill="#002A54"/>
<path d="M21.941 76.7218C21.8026 76.7679 21.6181 76.8601 21.4336 76.9524L22.7252 79.9969L23.1404 79.8124C23.5094 79.674 23.6939 79.2127 23.5555 78.8437L22.8636 77.1369C22.7252 76.814 22.31 76.5834 21.941 76.7218Z" fill="#002A54"/>
<path d="M149.117 138.673V104.307C149.117 104.307 149.486 95.0348 144.642 92.3593C139.799 89.6838 119.271 91.1138 119.271 91.1138V138.626H149.117V138.673Z" fill="#5B6266"/>
<path d="M112.814 58.9622C112.814 58.9622 114.06 69.3872 114.521 70.2176C114.982 71.094 114.982 71.094 114.982 71.094L117.381 72.7085C117.381 72.7085 112.814 79.2127 107.186 80.2275C101.559 81.2885 102.02 77.9211 102.02 77.9211L102.896 76.122L101.743 66.2044C101.743 66.2044 111.984 61.5454 112.814 58.9622Z" fill="#F2BDB4"/>
<path d="M120.381 73.585L116.644 71.9705C116.644 71.9705 114.246 75.8914 108.71 78.1517C103.175 80.412 103.083 79.1204 102.806 78.1517C102.529 77.183 102.898 76.1682 102.898 76.1682L102.483 72.8469L100.269 73.585L92.5652 135.72L112.308 136.689L120.381 73.585Z" fill="white"/>
<path d="M102.16 72.8469C102.16 72.8469 100.822 75.9375 99.5769 83.1798C98.3315 90.422 97.1783 102.646 96.9015 111.042C96.6247 119.437 96.4402 138.627 96.4402 138.627C96.4402 138.627 71.8075 138.627 71.5307 138.627C71.2539 138.627 69.5471 129.17 69.5471 129.17C69.5471 129.17 80.4335 119.852 80.9871 118.33C81.3561 117.315 81.1716 98.4484 82.7861 89.7762C84.4006 81.104 86.5225 79.3511 90.9047 77.183C95.4254 74.9688 102.16 72.8469 102.16 72.8469Z" fill="#2F2E41"/>
<path d="M89.1518 127.74C89.2902 127.74 89.3825 127.648 89.3825 127.509C89.3825 126.818 89.5208 117.13 89.6131 107.766C89.7515 98.4022 89.8438 88.7152 89.8438 88.0232C89.8438 87.8849 89.7515 87.7926 89.6131 87.7926C89.4747 87.7926 89.3825 87.8849 89.3825 88.0232C89.3825 88.7152 89.2441 98.4022 89.1518 107.766C89.0134 117.13 88.9212 126.818 88.9212 127.509C88.9212 127.602 89.0134 127.74 89.1518 127.74Z" fill="#404E55"/>
<path d="M138.786 125.388L138.971 138.673H109.956C109.956 138.673 108.71 127.417 109.172 126.356C109.679 125.295 138.786 125.388 138.786 125.388Z" fill="#263238"/>
<path d="M106.496 69.9408C105.296 70.9095 103.682 71.6476 102.436 72.1089L101.745 66.2044C101.745 66.2044 109.402 62.6986 112.031 60.0693C111.478 63.0676 110.14 66.9886 106.496 69.9408Z" fill="#EEA99D"/>
<path d="M92.7956 39.5881C92.7956 39.5881 90.8121 43.0016 90.3969 47.2455C90.0279 51.4432 90.3969 62.2373 93.8104 66.8041C97.224 71.3708 104.42 70.0331 107.649 67.2654C110.647 64.7283 113.554 61.9144 114.338 56.379C115.122 50.8435 112.723 40.3262 105.942 38.1581C99.1614 35.9439 92.7956 39.5881 92.7956 39.5881Z" fill="#F2BDB4"/>
<path d="M84.1701 132.676C84.1701 132.676 84.493 132.676 85.0004 132.676C85.1388 132.676 85.2772 132.676 85.4156 132.676C85.923 132.676 86.5227 132.63 87.1223 132.63C87.2607 132.63 87.3991 132.63 87.5375 132.63C88.1372 132.63 88.6446 132.676 89.152 132.676C89.2443 132.676 89.3826 132.676 89.521 132.676C89.5672 132.676 89.6594 132.676 89.6594 132.676C89.9362 132.63 89.9823 132.537 90.3052 132.445C90.6742 132.261 95.9329 131.107 100.223 131.107C104.467 131.107 108.295 131.43 108.941 130.877C109.587 130.369 109.956 124.972 106.312 124.649L101.837 126.356C101.837 126.356 91.643 125.157 87.8604 127.925C84.0778 130.6 84.1701 132.676 84.1701 132.676Z" fill="#FF9D8C"/>
<path d="M89.1085 132.63C89.2007 132.63 89.3391 132.63 89.4775 132.63C89.5697 132.491 89.7542 132.215 89.8926 132.122C91.0459 130.969 93.8136 130.185 94.8284 129.954C94.9207 129.908 94.9668 129.816 94.9668 129.77C94.9668 129.677 94.8284 129.631 94.7362 129.631C93.26 130 90.1233 130.877 89.2468 132.399C89.2468 132.353 89.1546 132.537 89.1085 132.63Z" fill="#666666"/>
<path d="M87.1223 132.584C87.2607 132.584 87.3991 132.584 87.5374 132.584C88.7829 130.277 90.8587 129.631 93.3958 128.801L93.5342 128.755C93.6264 128.709 93.6726 128.617 93.6264 128.524C93.5803 128.432 93.488 128.386 93.3958 128.432L93.2574 128.478C90.5819 129.355 88.4139 130.047 87.1223 132.584Z" fill="#666666"/>
<path d="M85.0004 132.63C85.1388 132.63 85.2772 132.63 85.3695 132.63C86.1537 131.015 88.6446 128.34 92.012 127.694C92.1043 127.694 92.1504 127.602 92.1504 127.509C92.1504 127.417 92.0581 127.371 91.9659 127.371C88.5524 128.017 85.7846 130.831 85.0004 132.63Z" fill="#666666"/>
<path d="M112.077 51.6738C112.077 51.6738 109.955 50.659 108.479 47.8451C107.003 45.0313 107.188 42.4942 107.188 42.4942C107.188 42.4942 104.512 42.0791 100.499 43.2784C96.4858 44.4777 91.7346 46.0923 87.7214 43.7858C83.7082 41.4794 83.7082 37.8352 85.6917 36.313C87.9059 34.6062 92.242 35.6672 92.242 35.6672C92.242 35.6672 90.5813 34.0527 91.4578 33.0839C92.3804 32.1152 95.6555 33.3607 95.6555 33.3607C95.6555 33.3607 99.6687 30.1778 107.234 30.5469C114.799 30.9159 118.443 36.2207 118.858 42.1252C119.273 48.0297 117.152 53.9803 117.152 53.9803L112.077 51.6738Z" fill="#3A3A3A"/>
<path d="M96.6701 53.1039C97.0853 54.1648 97.0853 55.4103 97.1775 56.5174C97.2698 57.3938 97.4081 58.4087 96.624 59.0083C96.2549 59.2851 94.4098 60.0693 95.3785 60.669C95.7475 60.8996 96.3472 60.8535 96.7162 60.8074C96.993 60.8074 97.2698 60.7612 97.5465 60.7612C97.8233 60.7612 98.1462 60.669 98.423 60.669C98.6075 60.669 98.6536 60.8996 98.5152 60.9919C98.054 61.3148 97.3159 61.407 96.7623 61.407C96.2088 61.407 95.8398 61.407 95.3324 61.1303C95.0095 60.9919 94.7327 60.7612 94.6865 60.3922C94.6404 59.9771 94.9633 59.608 95.2401 59.3774C95.6091 59.1006 96.0243 58.9622 96.3933 58.7316C96.9007 58.3625 96.8546 57.7629 96.8085 57.2093C96.7162 55.8716 96.3933 54.5339 96.3011 53.15C96.3011 52.9193 96.624 52.9194 96.6701 53.1039Z" fill="#666666"/>
<path d="M92.7498 56.2867C92.8882 57.0708 93.4879 57.6705 94.0414 57.5783C94.6411 57.486 94.964 56.7479 94.8256 55.9176C94.6872 55.1334 94.0876 54.5338 93.534 54.626C92.9805 54.7183 92.6115 55.4563 92.7498 56.2867Z" fill="#666666"/>
<path d="M100.084 55.6409C100.222 56.5174 100.822 57.117 101.468 57.0248C102.113 56.9325 102.483 56.1483 102.344 55.2719C102.206 54.3954 101.606 53.7958 100.96 53.888C100.314 53.9803 99.9454 54.7645 100.084 55.6409Z" fill="#666666"/>
<path d="M94.4532 52.9654C93.9919 53.0577 93.5768 52.9654 93.1155 53.0116C93.0232 53.0116 92.8849 53.0577 92.7926 53.0577C92.7003 53.0577 92.931 53.0577 92.8387 53.0577H92.7926C92.7465 53.0577 92.7003 53.0577 92.6081 53.1038C92.5158 53.1499 92.4236 53.1499 92.3313 53.1961C92.2391 53.1961 92.1468 53.2422 92.0545 53.2422C92.0084 53.2422 91.9623 53.2422 91.9161 53.2422C91.9623 53.2422 91.9623 53.2422 92.0084 53.2422H91.8239C91.5471 53.1961 91.4087 52.8732 91.501 52.6425C91.501 52.5503 91.5471 52.5041 91.5933 52.458C91.5933 52.4119 91.6394 52.4119 91.6394 52.3657L91.5933 52.4119C91.5933 52.3658 91.6394 52.3658 91.6394 52.3196C91.6855 52.2735 91.6855 52.2274 91.7316 52.2274C91.7778 52.1812 91.8239 52.1812 91.8239 52.1351C91.9623 52.0428 92.1007 51.9967 92.2391 51.9506C92.5158 51.9045 92.7926 51.8583 93.0694 51.8583C93.3461 51.8583 93.6229 51.9045 93.8997 51.9045C94.1303 51.9506 94.4071 51.9967 94.5916 52.1812C94.73 52.2735 94.8223 52.458 94.8223 52.6425C94.7761 52.7348 94.6377 52.9193 94.4532 52.9654Z" fill="#666666"/>
<path d="M99.5754 51.6738C99.6216 51.6277 99.7138 51.6277 99.7599 51.5816C99.8061 51.5355 99.9445 51.4893 99.8522 51.5355C99.8983 51.5355 99.9445 51.4893 99.9906 51.4893C100.175 51.3971 100.36 51.3509 100.544 51.3048C100.959 51.2126 101.421 51.1664 101.882 51.2126C102.343 51.2587 102.804 51.3971 103.22 51.6277C103.266 51.6738 103.358 51.72 103.404 51.7661C103.45 51.8122 103.45 51.8584 103.496 51.9045C103.496 51.9045 103.496 51.8584 103.45 51.8584C103.589 51.9506 103.635 52.089 103.635 52.2274C103.635 52.3658 103.543 52.5042 103.45 52.5503C103.312 52.6425 103.127 52.5964 102.989 52.5503C103.081 52.5503 103.127 52.5503 103.22 52.5503C103.081 52.5503 102.989 52.5964 102.851 52.5503C102.851 52.5503 102.712 52.5042 102.804 52.5503C102.897 52.5503 102.666 52.5503 102.666 52.5503C102.482 52.5503 102.62 52.5503 102.666 52.5503C102.62 52.5503 102.62 52.5503 102.574 52.5503C102.482 52.5503 102.435 52.5503 102.343 52.5042C102.02 52.458 101.697 52.458 101.421 52.458C101.144 52.458 100.821 52.458 100.544 52.458C100.406 52.458 100.313 52.458 100.175 52.458C100.083 52.458 100.129 52.458 100.175 52.458C100.129 52.458 100.129 52.458 100.083 52.458C100.037 52.458 99.9906 52.5042 99.9445 52.5042C99.76 52.5964 99.4832 52.4119 99.4371 52.2274C99.2987 52.0429 99.3448 51.8122 99.5754 51.6738Z" fill="#666666"/>
<path d="M97.2699 64.9589C96.8547 64.0825 96.0244 63.4367 95.1018 63.0215C95.886 62.9293 99.6686 62.6063 100.637 63.1138C101.698 63.7134 100.453 66.1583 98.2386 66.2966C98.008 66.2966 97.7773 66.2966 97.5928 66.2505C97.5928 65.7892 97.5005 65.3741 97.2699 64.9589Z" fill="#666666"/>
<path d="M114.754 59.8386C114.754 59.8386 114.385 61.3147 112.171 63.0215C109.957 64.7283 106.774 65.9737 106.774 65.9737L106.497 64.8667C106.497 64.8667 109.772 63.4367 111.294 61.8683C112.816 60.2999 113.001 59.4235 113.001 59.4235L114.754 59.8386Z" fill="#DEE1EB"/>
<path d="M106.127 64.0363C104.374 63.944 103.359 65.3279 103.267 66.2505C103.129 67.1731 104.005 68.1879 105.989 67.2653C108.434 66.2044 107.926 64.1286 106.127 64.0363Z" fill="#666666"/>
<path d="M113.368 48.9061C113.368 48.9061 112.583 43.4168 108.939 39.6804C101.928 32.5766 95.9771 32.9917 95.9771 32.9917C95.9771 32.9917 96.0233 31.9769 98.2836 31.2388C100.405 30.5008 101.328 30.9159 101.328 30.9159C101.328 30.9159 107.094 31.3772 111.984 36.7743C116.873 42.1713 117.381 49.0445 117.381 49.0445L113.368 48.9061Z" fill="#DEE1EB"/>
<path d="M113.875 48.2141C118.488 47.4299 121.025 51.028 121.21 54.6721C121.394 58.3163 118.765 61.0379 115.259 60.7611C107.325 60.1614 108.247 49.1828 113.875 48.2141Z" fill="white"/>
<path d="M116.182 57.2554C117.381 57.2554 118.442 56.6557 118.995 55.5947C119.641 54.4415 119.549 53.0115 118.857 51.9967C118.811 51.9044 118.719 51.9044 118.626 51.9505C118.534 51.9967 118.534 52.1351 118.58 52.1812C119.226 53.1038 119.272 54.3954 118.719 55.4102C118.165 56.3789 117.243 56.9325 116.089 56.9325C115.028 56.8863 114.152 56.425 113.598 55.5947C112.953 54.626 112.814 53.2883 113.229 52.2273C113.645 51.1202 114.752 50.3822 115.813 50.5206C115.905 50.5206 115.997 50.4744 115.997 50.3822C115.997 50.2899 115.951 50.1977 115.859 50.1977C114.659 50.0593 113.368 50.8435 112.906 52.0889C112.445 53.2883 112.63 54.7183 113.322 55.7792C113.967 56.7018 114.936 57.2553 116.089 57.3015C116.089 57.2553 116.135 57.2554 116.182 57.2554Z" fill="#818FB3"/>
<path d="M119.504 72.2472C119.504 72.2472 133.435 75.6607 138.324 81.1962C143.214 86.7316 145.474 114.04 145.567 119.068C145.659 124.142 142.153 126.218 140.031 127.648C137.909 129.078 128.683 131.661 121.211 132.03C113.738 132.399 106.726 132.03 106.726 132.03C106.726 132.03 106.772 130.416 105.619 128.017C104.558 125.803 103.22 125.341 103.22 125.341L109.632 123.035C109.632 123.035 110.739 102.969 112.492 93.2358C114.43 82.1649 119.504 72.2472 119.504 72.2472Z" fill="#2F2E41"/>
<path d="M96.394 119.898C96.4401 119.898 96.4401 119.898 96.4863 119.898C96.6247 119.852 96.6708 119.714 96.6247 119.575C95.333 116.623 93.9492 110.857 93.2111 106.798L93.165 106.475C92.9344 105.275 92.6576 103.799 93.2111 102.784C93.4879 102.277 94.1798 101.124 94.7795 100.017C95.4253 98.8635 96.0711 97.8025 96.2095 97.4796C96.5324 96.8338 95.4714 95.1732 93.9492 92.9129C93.534 92.3132 93.165 91.7597 92.9805 91.3907C92.4269 90.4681 92.796 89.5916 93.2111 88.5768L93.3956 88.2539C93.7647 87.3313 94.226 86.3626 94.6411 85.4862C94.8256 85.1171 94.964 84.7481 95.1485 84.3791C95.3792 83.8717 95.6098 83.3643 95.8405 82.8568C97.1782 79.8585 98.5621 76.7217 100.361 73.7234C100.407 73.6311 100.407 73.4927 100.269 73.4005C100.177 73.3543 100.038 73.3543 99.9459 73.4927C98.1469 76.5372 96.763 79.6278 95.3792 82.6723C95.1485 83.1797 94.9179 83.6872 94.6872 84.1946C94.5027 84.5636 94.3644 84.9326 94.1798 85.3017C93.7647 86.2242 93.3034 87.1468 92.9344 88.1155L92.796 88.4384C92.3808 89.4532 91.9195 90.5142 92.5653 91.6674C92.796 92.0365 93.165 92.59 93.5802 93.1897C94.3643 94.389 96.025 96.88 95.7943 97.2951C95.6098 97.618 95.0102 98.679 94.3643 99.7861C93.7185 100.893 93.0727 102 92.796 102.554C92.1502 103.707 92.4269 105.322 92.7037 106.567L92.7498 106.89C93.0266 108.366 94.5027 115.931 96.2095 119.76C96.2556 119.852 96.3018 119.898 96.394 119.898Z" fill="#404E55"/>
<path d="M110 120.682C110.046 120.682 110.139 120.682 110.185 120.636C111.292 119.529 116.504 110.488 116.873 108.781C117.104 107.859 116.55 105.506 116.043 103.2C115.628 101.447 115.213 99.6016 115.351 99.0942C115.536 98.3561 116.873 97.249 118.165 96.1881C119.733 94.8965 121.348 93.6048 121.671 92.4055C122.04 91.0678 121.717 82.5801 121.532 76.9985C121.44 74.9688 121.394 73.4005 121.394 72.8469C121.394 72.7085 121.302 72.6163 121.163 72.6163C121.025 72.6163 120.933 72.7085 120.933 72.8469C120.933 73.4005 120.979 75.015 121.071 77.0446C121.256 82.2572 121.578 91.0216 121.256 92.3132C120.979 93.3742 119.364 94.6658 117.934 95.8652C116.504 97.0184 115.167 98.1255 114.982 99.0019C114.844 99.6016 115.213 101.308 115.674 103.292C116.135 105.414 116.689 107.859 116.504 108.689C116.135 110.35 110.969 119.252 109.908 120.313C109.816 120.406 109.816 120.544 109.908 120.636C109.908 120.682 109.954 120.682 110 120.682Z" fill="#404E55"/>
<path d="M128.775 116.761C128.914 116.761 129.006 116.623 129.006 116.485C128.821 115.285 126.192 91.3906 126.054 89.5455C126.054 89.4071 125.915 89.3148 125.823 89.3148C125.685 89.3148 125.592 89.4532 125.592 89.5455C125.731 91.3906 128.36 115.285 128.545 116.485C128.545 116.669 128.637 116.761 128.775 116.761Z" fill="#404E55"/>
<path d="M109.772 123.219C109.818 123.219 109.818 123.219 109.864 123.219C110.464 122.989 113.047 122.112 116.322 121.005C122.965 118.791 132.006 115.7 133.759 114.824C133.851 114.778 133.897 114.639 133.851 114.501C133.805 114.409 133.667 114.363 133.528 114.409C131.821 115.285 122.411 118.468 116.184 120.59C112.909 121.697 110.279 122.574 109.68 122.804C109.541 122.85 109.495 122.989 109.541 123.127C109.587 123.173 109.68 123.219 109.772 123.219Z" fill="#404E55"/>
<path d="M112.955 132.768C118.768 132.768 130.069 131.707 138.649 128.663C138.787 128.617 138.834 128.478 138.787 128.386C138.741 128.248 138.603 128.201 138.511 128.248C127.67 132.076 112.494 132.722 109.68 132.122C109.542 132.076 109.45 132.168 109.403 132.307C109.357 132.445 109.45 132.537 109.588 132.584C110.188 132.676 111.387 132.768 112.955 132.768Z" fill="#404E55"/>
<path d="M179.657 75.4301C177.858 77.0446 175.552 78.0594 173.983 79.9045C173.337 80.6426 172.784 81.3807 172.23 82.1649C171.815 82.7184 170.662 83.641 170.477 84.3329C170.385 84.6558 170.431 84.2406 170.477 83.9177V83.8716C170.616 82.4878 170.754 81.0578 170.8 79.6278C170.846 78.1978 170.754 76.8139 170.846 75.3839C170.985 73.4004 171.584 71.463 173.199 70.2175C173.983 69.6178 174.998 69.2488 175.736 68.5569C176.428 67.9111 176.151 67.173 175.736 66.4811C175.367 65.7892 174.906 65.1434 174.721 64.4053C174.537 63.5288 174.86 62.6063 175.321 61.8682C176.243 60.2998 178.365 58.5008 180.349 58.7315C182.01 58.916 182.194 60.8534 182.148 62.1911C182.148 63.4827 182.01 64.7743 181.963 66.0659C181.963 67.4037 182.194 68.6953 182.194 70.033C182.379 72.2933 181.318 74.0001 179.657 75.4301Z" fill="#CCDDF1"/>
<path d="M162.867 96.0958C162.359 94.8964 161.806 93.7893 161.068 92.6822C160.099 91.16 158.992 89.73 158.346 88.0232C157.7 86.3165 157.792 84.4713 157.7 82.6723C157.654 81.3346 157.239 80.043 157.377 78.7052C157.423 78.0594 157.792 77.0446 158.623 77.1368C159.269 77.2291 159.638 78.0133 159.914 78.5207C160.33 79.3971 160.652 80.3659 160.975 81.2884C161.114 81.6575 161.206 82.0265 161.391 82.3955C161.483 82.58 161.76 83.0874 162.036 83.0413C162.498 82.9029 162.082 81.0117 161.99 80.6888C161.621 78.982 161.114 77.4136 161.021 75.6607C160.929 73.1236 161.114 70.0792 163.605 68.6953C164.251 68.3263 165.081 68.0956 165.68 68.6492C166.28 69.2027 166.465 70.1253 166.557 70.8633C166.834 73.2159 166.28 75.4301 165.542 77.6443C164.942 79.4894 164.204 81.3346 164.112 83.3181C164.066 85.2094 165.035 86.87 165.496 88.6229C166.234 91.4367 166.096 92.959 166.096 93.8816C166.096 95.0348 166.05 96.1419 165.957 97.2951C165.865 98.3561 165.773 99.417 165.68 100.432C165.634 100.662 165.634 100.847 165.588 101.078C166.003 100.109 166.142 99.0019 166.465 98.0332C167.064 96.2803 167.756 94.6196 168.31 92.8667C168.771 91.4368 169.232 89.9606 169.832 88.5768C170.432 87.2852 171.124 85.9013 172.231 84.9326C172.877 84.3329 173.707 84.01 174.583 84.01C175.137 84.01 175.644 84.1945 176.198 84.3329C176.844 84.5174 177.397 84.4252 177.905 84.01C179.704 82.6262 180.211 80.1813 181.549 78.4746C182.517 77.183 184.87 74.9688 186.577 76.3988C187.499 77.1368 187.73 78.613 187.684 79.7201C187.638 81.1039 187.038 82.3955 186.3 83.5487C185.516 84.7942 184.547 85.9013 183.809 87.1468C183.394 87.8848 183.348 88.6229 183.394 89.4532C183.44 90.2374 183.532 91.0216 183.256 91.8058C182.425 94.1122 179.888 93.7893 177.905 93.8354C176.521 93.8816 175.045 94.0661 173.707 94.5274C172.185 95.0348 171.216 96.0496 170.662 97.5257C170.247 98.6328 170.063 99.8322 169.325 100.801C168.956 101.216 168.494 101.539 167.987 101.77C167.203 102.092 164.85 102.277 164.85 102.046C164.804 101.308 164.435 100.57 164.251 99.8783C163.835 98.5867 163.374 97.3412 162.867 96.0958Z" fill="#CCDDF1"/>
<path d="M151.934 95.6806C152.118 94.3428 152.118 92.9128 152.718 91.6674C152.764 91.5751 152.902 91.5751 152.948 91.6212C153.41 91.8519 153.41 92.5899 153.456 93.0512C153.502 93.7893 153.456 94.5274 153.548 95.2654C153.686 96.557 154.009 97.8948 154.471 99.0941C154.978 100.478 155.947 101.262 157.331 101.677C158.207 101.954 159.084 102.185 159.822 102.784C160.467 103.292 160.929 104.03 161.298 104.814C162.22 106.89 162.682 109.196 163.097 111.457C163.374 112.933 163.604 114.455 163.973 115.931C164.342 117.407 164.711 118.883 164.942 120.406C164.988 120.498 165.034 120.544 165.034 120.636C165.126 120.867 164.757 121.005 164.665 120.775C163.235 118.56 161.482 116.577 159.084 115.378C158.023 114.824 156.593 114.732 155.67 113.855C154.978 113.209 154.886 112.195 154.978 111.318C155.116 110.165 155.67 109.196 156.27 108.181C156.593 107.628 156.962 107.028 156.823 106.382C156.685 105.737 156.177 105.275 155.67 104.952C154.701 104.353 153.502 104.076 152.718 103.153C151.98 102.323 151.565 101.308 151.472 100.201C151.426 98.7251 151.703 97.1106 151.934 95.6806Z" fill="#CCDDF1"/>
<path d="M171.446 103.292C172.692 101.677 174.26 100.247 175.967 99.0941C176.889 98.4945 179.057 97.2951 179.472 99.0941C179.749 100.155 178.688 101.17 178.042 101.862C177.028 102.831 175.828 103.707 174.998 104.86C176.059 105.183 177.166 105.275 178.089 106.013C179.196 106.89 179.657 108.551 178.596 109.611C178.089 110.119 177.351 110.442 176.705 110.765C175.828 111.18 174.998 111.549 174.122 111.918C172.23 112.702 170.293 113.532 168.678 114.824C167.018 116.162 165.495 118.376 165.357 120.544C165.357 120.729 165.403 120.544 165.311 120.452C165.265 120.498 165.034 120.406 165.034 120.267C165.08 117.084 165.634 114.04 166.972 111.088C168.125 108.366 169.647 105.644 171.446 103.292Z" fill="#CCDDF1"/>
<path d="M175.828 73.4926C175.136 74.9226 174.398 76.3526 173.614 77.7826C172.876 79.1204 172.138 80.5042 171.584 81.9342C170.892 83.7332 170.201 85.4861 169.462 87.239C168.724 89.0842 168.032 90.9754 167.479 92.8667C166.418 96.6031 165.634 100.432 165.265 104.307C165.08 106.29 164.988 108.228 165.034 110.211C165.08 111.733 165.265 113.302 165.403 114.824C165.542 116.438 165.68 118.053 165.542 119.621C165.449 120.959 165.219 122.574 164.158 123.496C163.973 123.681 163.65 123.45 163.789 123.219C165.034 120.682 164.942 117.915 164.711 115.193C164.573 113.671 164.388 112.149 164.342 110.626C164.296 108.689 164.342 106.751 164.527 104.814C164.896 101.031 165.634 97.2951 166.602 93.6048C167.11 91.7135 167.71 89.8683 168.448 88.0693C169.186 86.2703 170.016 84.4713 170.708 82.6723C171.953 79.351 173.891 76.4449 175.598 73.3543C175.69 73.2159 175.92 73.3543 175.828 73.4926Z" fill="#43588E"/>
<path d="M165.172 100.524C164.988 98.1255 164.757 95.819 163.927 93.5126C163.558 92.4516 163.097 91.3907 162.728 90.3297C162.405 89.4533 161.99 88.2078 162.22 87.2852C162.266 87.1929 162.405 87.1929 162.451 87.2852C162.589 87.8387 162.589 88.4384 162.681 88.992C162.774 89.5455 162.958 90.0529 163.097 90.5603C163.466 91.6674 163.927 92.7284 164.342 93.8355C165.126 95.9574 165.541 98.31 165.357 100.57C165.357 100.663 165.219 100.663 165.172 100.524Z" fill="#43588E"/>
<path d="M179.148 86.6855C178.179 88.9919 175.32 89.1303 173.244 89.6377C171.768 90.0068 170.661 91.0216 169.876 92.3132C169 93.7432 168.4 95.4038 167.939 96.9722H167.893C168.492 94.2045 169.323 90.8832 172.183 89.5916C174.489 88.5768 177.488 89.0842 178.964 86.5932C178.964 86.501 179.194 86.5471 179.148 86.6855Z" fill="#43588E"/>
<path d="M166.695 100.155C166.603 100.294 166.464 100.478 166.372 100.616C166.326 100.709 166.234 100.755 166.187 100.801C166.095 100.847 166.003 100.939 165.911 100.939C165.864 100.939 165.818 100.893 165.864 100.847C165.911 100.755 166.003 100.709 166.049 100.663C166.095 100.616 166.187 100.524 166.234 100.478C166.372 100.34 166.51 100.201 166.603 100.063C166.695 100.109 166.741 100.155 166.695 100.155Z" fill="#43588E"/>
<path d="M172.691 107.49C171.03 108.827 169.508 110.442 168.309 112.195C167.709 113.025 167.202 113.901 166.694 114.824C166.187 115.793 165.818 116.854 165.402 117.869C165.356 117.961 165.218 117.961 165.218 117.869C165.449 115.7 166.832 113.855 167.94 112.01C168.493 111.088 169.231 110.303 169.969 109.519C170.753 108.689 171.584 107.951 172.506 107.305C172.645 107.213 172.783 107.397 172.691 107.49Z" fill="#43588E"/>
<path d="M159.545 104.953C160.329 105.414 160.375 106.659 160.375 107.443C160.421 108.966 160.006 110.442 160.698 111.872C161.298 113.21 162.266 114.317 163.05 115.516C163.789 116.669 164.48 118.145 164.48 119.529C164.48 119.621 164.342 119.668 164.342 119.575C164.065 118.93 163.927 118.238 163.742 117.592C163.512 116.854 163.189 116.162 162.774 115.516C162.036 114.363 161.113 113.348 160.513 112.102C159.868 110.811 159.96 109.519 160.006 108.135C160.052 107.259 160.144 105.783 159.406 105.137C159.268 105.045 159.406 104.86 159.545 104.953Z" fill="#43588E"/>
<path d="M164.849 119.714C168.032 119.668 174.121 119.621 174.121 119.621L172.599 130.831C172.276 133.368 170.108 135.213 167.571 135.213H164.941H164.665H162.035C159.498 135.213 157.33 133.322 157.007 130.831L155.485 119.621C155.577 119.621 161.666 119.668 164.849 119.714Z" fill="white"/>
<path d="M10.2692 99.1403L28.5362 135.305L81.7227 135.674L65.3008 98.6329L10.2692 99.1403Z" fill="#F6F7FA"/>
<path d="M117.012 135.444V132.537H82.5997L66.7775 97.8026H11.6998L10.316 99.1403H64.0559L80.5239 135.397C80.5239 135.397 117.012 135.351 117.012 135.444Z" fill="#D9DEE8"/>
<path d="M37.9008 119.068C38.5005 120.867 41.7756 122.251 45.1891 122.158C48.6026 122.066 50.9091 120.544 50.3094 118.745C49.7097 116.946 46.4346 115.562 43.0211 115.654C39.5614 115.747 37.3011 117.269 37.9008 119.068Z" fill="#D9DEE8"/>
<path d="M80.5234 135.628C80.5695 135.628 80.5695 135.628 80.6156 135.628C80.754 135.582 80.8001 135.444 80.7079 135.305L64.1938 98.9096H10.2693C10.1309 98.9096 10.0386 99.0019 10.0386 99.1403C10.0386 99.2786 10.1309 99.3709 10.2693 99.3709H63.917L80.3388 135.49C80.385 135.582 80.4311 135.628 80.5234 135.628Z" fill="white"/>
<path d="M119.411 138.165H182.699V152.188H119.411V138.165Z" fill="#5E759B"/>
<path d="M5.93553 138.165H119.781V152.188H5.93553V138.165Z" fill="#7A8EAD"/>
<path d="M119.411 138.165H119.78H182.699V140.748H119.78H119.411H5.93388V138.165H119.411Z" fill="#BDC4D7"/>
<path d="M116.643 135.397H185.744V138.811H116.643V135.397Z" fill="#5E759B"/>
<path d="M3.166 135.397H117.012V138.811H3.166V135.397Z" fill="#7A8EAD"/>
<path d="M135.37 61.8221H157.697C159.08 61.8221 160.188 60.715 160.188 59.3312V48.168C160.188 46.7842 159.08 45.6771 157.697 45.6771H135.37C133.986 45.6771 132.879 46.7842 132.879 48.168V59.3312C132.879 60.6689 133.986 61.8221 135.37 61.8221Z" fill="white"/>
<path d="M126.513 53.7034L134.908 50.1976V57.2553L126.513 53.7034Z" fill="white"/>
<path d="M151.839 55.2257C150.998 55.2257 150.317 54.5442 150.317 53.7035C150.317 52.8627 150.998 52.1812 151.839 52.1812C152.68 52.1812 153.361 52.8627 153.361 53.7035C153.361 54.5442 152.68 55.2257 151.839 55.2257Z" fill="#223A7A"/>
<path d="M146.534 55.2257C145.694 55.2257 145.012 54.5442 145.012 53.7035C145.012 52.8627 145.694 52.1812 146.534 52.1812C147.375 52.1812 148.057 52.8627 148.057 53.7035C148.057 54.5442 147.375 55.2257 146.534 55.2257Z" fill="#223A7A"/>
<path d="M141.275 55.2257C140.434 55.2257 139.752 54.5442 139.752 53.7035C139.752 52.8627 140.434 52.1812 141.275 52.1812C142.115 52.1812 142.797 52.8627 142.797 53.7035C142.797 54.5442 142.115 55.2257 141.275 55.2257Z" fill="#223A7A"/>
<path d="M21.6638 11.3573H73.2357C76.557 11.3573 79.2324 14.0328 79.2324 17.354V41.8023C79.2324 45.1235 76.557 47.799 73.2357 47.799H68.6228C68.4844 50.0132 68.8073 53.3344 70.6525 57.5322C64.7019 54.7644 61.2422 50.659 59.4893 47.799H21.6638C18.3425 47.799 15.667 45.1235 15.667 41.8023V17.354C15.667 14.0328 18.3425 11.3573 21.6638 11.3573Z" fill="#F45C37"/>
<path d="M43.6668 22.9818H69.2221C69.914 22.9818 70.5137 22.4282 70.5137 21.6902C70.5137 20.9982 69.9601 20.3986 69.2221 20.3986H43.6668C42.9748 20.3986 42.3751 20.9521 42.3751 21.6902C42.3751 22.4282 42.9748 22.9818 43.6668 22.9818Z" fill="white"/>
<path d="M25.3075 30.4085H69.7295C70.1447 30.4085 70.5137 30.0394 70.5137 29.6243C70.5137 29.2091 70.1447 28.8401 69.7295 28.8401H25.3075C24.8924 28.8401 24.5233 29.2091 24.5233 29.6243C24.5233 30.0856 24.8924 30.4085 25.3075 30.4085Z" fill="#FFBBAA"/>
<path d="M25.3075 34.7445H69.7295C70.1447 34.7445 70.5137 34.3755 70.5137 33.9603C70.5137 33.5452 70.1447 33.1761 69.7295 33.1761H25.3075C24.8924 33.1761 24.5233 33.5452 24.5233 33.9603C24.5233 34.3755 24.8924 34.7445 25.3075 34.7445Z" fill="#FFBBAA"/>
<path d="M34.9945 39.3574H69.7295C70.1447 39.3574 70.5137 38.9884 70.5137 38.5732C70.5137 38.1581 70.1447 37.7891 69.7295 37.7891H34.9945C34.5794 37.7891 34.2104 38.1581 34.2104 38.5732C34.2104 38.9884 34.5794 39.3574 34.9945 39.3574Z" fill="#FFBBAA"/>
<path d="M25.6757 22.9818H37.8998C38.5917 22.9818 39.1914 22.4282 39.1914 21.6902C39.1914 20.9982 38.6379 20.3986 37.8998 20.3986H25.6757C24.9838 20.3986 24.3841 20.9521 24.3841 21.6902C24.3841 22.4282 24.9838 22.9818 25.6757 22.9818Z" fill="white"/>
<path d="M56.4458 79.2588H70.2845C70.7919 79.2588 71.207 78.8437 71.207 78.3362V68.8799C71.207 68.3724 70.7919 67.9573 70.2845 67.9573H56.4458C55.9384 67.9573 55.5233 68.3724 55.5233 68.8799V78.3362C55.5233 78.8437 55.9384 79.2588 56.4458 79.2588Z" fill="white"/>
<path d="M63.275 75.2917C63.3672 75.2917 63.4134 75.2456 63.5056 75.1995L71.0246 68.9721C71.163 68.8337 71.2091 68.6492 71.0707 68.4647C70.9324 68.3263 70.7478 68.2802 70.5633 68.4185L63.2289 74.4614L56.0789 68.2802C55.9405 68.1418 55.7099 68.1879 55.5715 68.3263C55.4331 68.4647 55.4792 68.6953 55.6176 68.8337L62.9521 75.2456C63.0905 75.2456 63.1827 75.2917 63.275 75.2917Z" fill="#6F7FA9"/>
<path d="M70.7945 78.982C70.8867 78.982 70.979 78.9359 71.0251 78.8898C71.1635 78.7514 71.1635 78.5207 71.0251 78.3823L65.7664 72.8469C65.6281 72.7085 65.3974 72.7085 65.259 72.8469C65.1206 72.9853 65.1206 73.2159 65.259 73.3543L70.5177 78.8898C70.61 78.982 70.7022 78.982 70.7945 78.982Z" fill="#6F7FA9"/>
<path d="M55.8952 78.7975C55.9874 78.7975 56.0797 78.7514 56.1258 78.7053L61.3845 73.4466C61.5229 73.3082 61.5229 73.0776 61.3845 72.9392C61.2461 72.8008 61.0155 72.8008 60.8771 72.9392L55.6184 78.1979C55.48 78.3362 55.48 78.5669 55.6184 78.7053C55.7568 78.7514 55.8029 78.7975 55.8952 78.7975Z" fill="#6F7FA9"/>
<path d="M54.7836 72.2011C52.236 72.2011 50.1707 70.1358 50.1707 67.5882C50.1707 65.0406 52.236 62.9753 54.7836 62.9753C57.3312 62.9753 59.3965 65.0406 59.3965 67.5882C59.3965 70.1358 57.3312 72.2011 54.7836 72.2011Z" fill="#FF5F42"/>
<path d="M54.9923 69.7668L54.9763 69.5828C55.179 69.6734 55.355 69.7908 55.5043 69.9348C55.6536 70.0788 55.7683 70.2361 55.8483 70.4068C55.9283 70.5774 55.9683 70.7534 55.9683 70.9348C55.9683 71.2388 55.883 71.5188 55.7123 71.7748C55.547 72.0254 55.323 72.2281 55.0403 72.3828C54.7576 72.5321 54.443 72.6068 54.0963 72.6068C53.7496 72.6068 53.435 72.5321 53.1523 72.3828C52.8696 72.2281 52.643 72.0254 52.4723 71.7748C52.307 71.5188 52.2243 71.2388 52.2243 70.9348C52.2243 70.6894 52.275 70.4788 52.3763 70.3028C52.483 70.1214 52.6136 69.9694 52.7683 69.8468C52.9283 69.7241 53.0856 69.6228 53.2403 69.5428L53.1763 69.7668C53.043 69.7134 52.9123 69.6388 52.7843 69.5428C52.6616 69.4414 52.5603 69.3134 52.4803 69.1588C52.4003 69.0041 52.3603 68.8228 52.3603 68.6148C52.3603 68.3161 52.4376 68.0468 52.5923 67.8068C52.747 67.5614 52.955 67.3668 53.2163 67.2228C53.483 67.0788 53.7763 67.0068 54.0963 67.0068C54.4216 67.0068 54.7123 67.0788 54.9683 67.2228C55.2296 67.3668 55.4376 67.5614 55.5923 67.8068C55.747 68.0468 55.8243 68.3161 55.8243 68.6148C55.8243 68.8441 55.779 69.0361 55.6883 69.1908C55.5976 69.3454 55.4883 69.4681 55.3603 69.5588C55.2323 69.6494 55.1096 69.7188 54.9923 69.7668ZM53.3203 68.6308C53.3203 68.7748 53.3523 68.9028 53.4163 69.0148C53.4856 69.1268 53.579 69.2174 53.6963 69.2868C53.8136 69.3508 53.947 69.3828 54.0963 69.3828C54.2456 69.3828 54.3763 69.3508 54.4883 69.2868C54.6056 69.2174 54.6963 69.1268 54.7603 69.0148C54.8296 68.9028 54.8643 68.7748 54.8643 68.6308C54.8643 68.4174 54.7896 68.2414 54.6403 68.1028C54.4963 67.9588 54.315 67.8868 54.0963 67.8868C53.8723 67.8868 53.6856 67.9588 53.5363 68.1028C53.3923 68.2414 53.3203 68.4174 53.3203 68.6308ZM54.0963 71.7268C54.3523 71.7268 54.5683 71.6494 54.7443 71.4948C54.9203 71.3348 55.0083 71.1428 55.0083 70.9188C55.0083 70.7641 54.9683 70.6254 54.8883 70.5028C54.8083 70.3801 54.699 70.2841 54.5603 70.2148C54.4216 70.1401 54.267 70.1028 54.0963 70.1028C53.9256 70.1028 53.771 70.1401 53.6323 70.2148C53.4936 70.2841 53.3843 70.3801 53.3043 70.5028C53.2243 70.6254 53.1843 70.7641 53.1843 70.9188C53.1843 71.1428 53.2723 71.3348 53.4483 71.4948C53.6243 71.6494 53.8403 71.7268 54.0963 71.7268ZM53.8323 82.6868C53.635 82.6868 53.4243 82.6574 53.2003 82.5988C52.9763 82.5348 52.7923 82.4441 52.6483 82.3268C52.579 82.2681 52.523 82.1934 52.4803 82.1028C52.443 82.0068 52.4243 81.9161 52.4243 81.8308C52.4243 81.7401 52.4616 81.6548 52.5363 81.5748C52.6163 81.4948 52.7283 81.4548 52.8723 81.4548C52.9683 81.4548 53.0883 81.5054 53.2323 81.6068C53.3176 81.6601 53.411 81.7081 53.5123 81.7508C53.6136 81.7934 53.7176 81.8148 53.8243 81.8148C54.0803 81.8148 54.3016 81.7694 54.4883 81.6788C54.675 81.5828 54.819 81.4521 54.9203 81.2868C55.0216 81.1214 55.0723 80.9268 55.0723 80.7028C55.0723 80.5001 55.0243 80.3268 54.9283 80.1828C54.8376 80.0388 54.715 79.9268 54.5603 79.8468C54.411 79.7668 54.2483 79.7268 54.0723 79.7268C53.907 79.7268 53.763 79.7534 53.6403 79.8068C53.5176 79.8601 53.4056 79.9161 53.3043 79.9748C53.203 80.0281 53.1016 80.0548 53.0003 80.0548C52.8243 80.0548 52.6936 80.0174 52.6083 79.9428C52.523 79.8628 52.4696 79.7694 52.4483 79.6628C52.427 79.5561 52.4216 79.4601 52.4323 79.3748L52.6803 77.4308C52.7016 77.3188 52.755 77.2281 52.8403 77.1588C52.931 77.0841 53.0376 77.0468 53.1603 77.0468H55.4723C55.6003 77.0468 55.707 77.0894 55.7923 77.1748C55.8776 77.2601 55.9203 77.3668 55.9203 77.4948C55.9203 77.6174 55.8776 77.7214 55.7923 77.8068C55.707 77.8868 55.6003 77.9268 55.4723 77.9268H53.4083L53.4963 77.8548L53.2803 79.4788L53.1763 79.1748C53.2083 79.1214 53.2776 79.0708 53.3843 79.0228C53.491 78.9748 53.6136 78.9348 53.7523 78.9028C53.891 78.8654 54.027 78.8468 54.1603 78.8468C54.5176 78.8468 54.8376 78.9294 55.1203 79.0948C55.403 79.2548 55.6243 79.4761 55.7843 79.7588C55.9496 80.0361 56.0323 80.3508 56.0323 80.7028C56.0323 81.1028 55.9416 81.4521 55.7603 81.7508C55.579 82.0494 55.323 82.2814 54.9923 82.4468C54.667 82.6068 54.2803 82.6868 53.8323 82.6868Z" fill="white"/>
<path d="M8.28747 65.8815H35.3189C36.3337 65.8815 37.1641 65.0512 37.1641 64.0364V59.7925C37.1641 58.7777 36.3337 57.9474 35.3189 57.9474H8.28747C7.27264 57.9474 6.44232 58.7777 6.44232 59.7925V64.0364C6.44232 65.0512 7.27264 65.8815 8.28747 65.8815Z" fill="#2F2E41"/>
<path d="M33.3809 64.0363C33.5192 64.0363 33.6115 63.9902 33.6576 63.8979C33.7499 63.8057 33.7499 63.7134 33.7499 63.575L33.6115 62.5602C33.6115 62.5141 33.6115 62.5141 33.6115 62.5141H33.6576L34.488 63.1137C34.5802 63.206 34.7186 63.206 34.8109 63.206C34.9031 63.206 34.9954 63.1137 35.0876 63.0215C35.1799 62.8831 35.1799 62.7447 35.1338 62.6525C35.0876 62.5602 34.9954 62.4679 34.9031 62.4218L33.9344 62.0067C33.8883 62.0067 33.8883 62.0067 33.8883 61.9605C33.8883 61.9605 33.8883 61.9144 33.9344 61.9144L34.9031 61.4992C35.0415 61.4531 35.0876 61.3609 35.1338 61.2686C35.1799 61.1763 35.1338 61.038 35.0876 60.9457C35.0415 60.8534 34.9492 60.7612 34.8109 60.7612C34.7186 60.7612 34.5802 60.7612 34.488 60.8534L33.6576 61.4992C33.6115 61.4992 33.6115 61.4992 33.6115 61.4992V61.4531L33.7499 60.4383C33.7499 60.2999 33.7038 60.2076 33.6576 60.1154C33.5654 60.0231 33.4731 59.977 33.3347 59.977C33.1963 59.977 33.1041 60.0231 33.058 60.1154C32.9657 60.2076 32.9657 60.2999 32.9657 60.4383L33.1041 61.4531C33.1041 61.4992 33.1041 61.4992 33.1041 61.4992H33.058L32.2276 60.8996C32.1354 60.8073 31.997 60.8073 31.9048 60.8073C31.7664 60.8073 31.7202 60.8996 31.628 60.9918C31.5357 61.1302 31.5357 61.2686 31.5818 61.3609C31.628 61.4531 31.7202 61.5454 31.8125 61.5915L32.7812 62.0067C32.8273 62.0067 32.8273 62.0067 32.8273 62.0528C32.8273 62.0528 32.8273 62.0989 32.7812 62.0989L31.8125 62.5141C31.6741 62.5602 31.628 62.6525 31.5818 62.7447C31.5357 62.837 31.5357 62.9754 31.628 63.0676C31.6741 63.1599 31.7664 63.2521 31.9048 63.2521C32.0431 63.2521 32.1354 63.2521 32.2276 63.1599L33.058 62.5141C33.1041 62.5141 33.1041 62.5141 33.1041 62.5141V62.5602L32.9657 63.575C32.9657 63.7134 32.9657 63.8057 33.058 63.8979C33.1502 63.9902 33.2425 64.0363 33.3809 64.0363Z" fill="white"/>
<path d="M27.8008 64.0364C27.9392 64.0364 28.0314 63.9903 28.0776 63.898C28.1698 63.8057 28.1698 63.7135 28.1698 63.5751L28.0314 62.5603C28.0314 62.5141 28.0314 62.5141 28.0314 62.5141H28.0776L28.9079 63.1138C29.0001 63.2061 29.1385 63.2061 29.2308 63.2061C29.323 63.2061 29.4153 63.1138 29.5076 63.0216C29.5998 62.8832 29.5998 62.7448 29.5537 62.6525C29.5076 62.5603 29.4153 62.468 29.323 62.4219L28.3543 62.0067C28.3082 62.0067 28.3082 62.0067 28.3082 61.9606C28.3082 61.9606 28.3082 61.9145 28.3543 61.9145L29.323 61.4993C29.4614 61.4532 29.5076 61.3609 29.5537 61.2687C29.5998 61.1764 29.5537 61.038 29.5076 60.9458C29.4153 60.8535 29.3692 60.7612 29.2308 60.7612C29.1385 60.7612 29.0001 60.7612 28.9079 60.8535L28.0776 61.4993C28.0314 61.4993 28.0314 61.4993 28.0314 61.4993V61.4532L28.1698 60.4383C28.1698 60.3 28.1237 60.2077 28.0776 60.1154C27.9853 60.0232 27.8931 59.9771 27.7547 59.9771C27.6163 59.9771 27.524 60.0232 27.4779 60.1154C27.3856 60.2077 27.3856 60.3 27.3856 60.4383L27.524 61.4532C27.524 61.4993 27.524 61.4993 27.524 61.4993H27.4779L26.6476 60.8996C26.5553 60.8074 26.4169 60.8074 26.3247 60.8074C26.1863 60.8074 26.1402 60.8996 26.0479 60.9919C25.9556 61.1303 25.9556 61.2687 26.0018 61.3609C26.0479 61.4532 26.1402 61.5454 26.2324 61.5916L27.2011 62.0067C27.2472 62.0067 27.2472 62.0067 27.2472 62.0528C27.2472 62.0528 27.2472 62.099 27.2011 62.099L26.2324 62.5141C26.094 62.5603 26.0479 62.6525 26.0018 62.7448C25.9556 62.837 25.9556 62.9754 26.0479 63.0677C26.094 63.1599 26.1863 63.2522 26.3247 63.2522C26.4631 63.2522 26.5553 63.2522 26.6476 63.1599L27.4779 62.5141C27.524 62.5141 27.524 62.5141 27.524 62.5141V62.5603L27.3856 63.5751C27.3856 63.7135 27.3856 63.8057 27.4779 63.898C27.5701 63.9903 27.6624 64.0364 27.8008 64.0364Z" fill="white"/>
<path d="M22.2188 64.0363C22.3572 64.0363 22.4494 63.9902 22.4955 63.8979C22.5878 63.8057 22.5878 63.7134 22.5878 63.575L22.4494 62.5602C22.4494 62.5141 22.4494 62.5141 22.4494 62.5141H22.4955L23.3259 63.1137C23.4181 63.206 23.5565 63.206 23.6487 63.206C23.741 63.206 23.8333 63.1137 23.9255 63.0215C24.0178 62.8831 24.0178 62.7447 23.9717 62.6525C23.9255 62.5602 23.8333 62.4679 23.741 62.4218L22.7723 62.0067C22.7262 62.0067 22.7262 62.0067 22.7262 61.9605C22.7262 61.9605 22.7262 61.9144 22.7723 61.9144L23.741 61.4992C23.8794 61.4531 23.9255 61.3609 23.9717 61.2686C24.0178 61.1763 23.9717 61.038 23.9255 60.9457C23.8794 60.8534 23.7871 60.7612 23.6487 60.7612C23.5565 60.7612 23.4181 60.7612 23.3259 60.8534L22.4955 61.4992C22.4494 61.4992 22.4494 61.4992 22.4494 61.4992V61.4531L22.5878 60.4383C22.5878 60.2999 22.5417 60.2076 22.4955 60.1154C22.4033 60.0231 22.311 59.977 22.1726 59.977C22.0343 59.977 21.942 60.0231 21.8959 60.1154C21.8036 60.2076 21.8036 60.2999 21.8036 60.4383L21.942 61.4531C21.942 61.4992 21.942 61.4992 21.942 61.4992H21.8959L21.0655 60.8996C20.9733 60.8073 20.8349 60.8073 20.7426 60.8073C20.6043 60.8073 20.5581 60.8996 20.4659 60.9918C20.3736 61.1302 20.3736 61.2686 20.4197 61.3609C20.4659 61.4531 20.5581 61.5454 20.6504 61.5915L21.6191 62.0067C21.6652 62.0067 21.6652 62.0067 21.6652 62.0528C21.6652 62.0528 21.6652 62.0989 21.6191 62.0989L20.6504 62.5141C20.512 62.5602 20.4659 62.6525 20.4197 62.7447C20.3736 62.837 20.3736 62.9754 20.4659 63.0676C20.512 63.1599 20.6043 63.2521 20.7426 63.2521C20.881 63.2521 20.9733 63.2521 21.0655 63.1599L21.8959 62.5141C21.942 62.5141 21.942 62.5141 21.942 62.5141V62.5602L21.8036 63.575C21.8036 63.7134 21.8036 63.8057 21.8959 63.8979C21.942 63.9902 22.0804 64.0363 22.2188 64.0363Z" fill="white"/>
<path d="M16.5918 64.0364C16.7302 64.0364 16.8225 63.9903 16.8686 63.898C16.9608 63.8057 16.9608 63.7135 16.9608 63.5751L16.8225 62.5603C16.8225 62.5141 16.8225 62.5141 16.8225 62.5141H16.8686L17.6989 63.1138C17.7912 63.2061 17.9295 63.2061 18.0218 63.2061C18.1141 63.2061 18.2063 63.1138 18.2986 63.0216C18.3908 62.8832 18.3908 62.7448 18.3447 62.6525C18.2986 62.5603 18.2063 62.468 18.1141 62.4219L17.1454 62.0067C17.0992 62.0067 17.0992 62.0067 17.0992 61.9606C17.0992 61.9606 17.0992 61.9145 17.1454 61.9145L18.1141 61.4993C18.2524 61.4532 18.2986 61.3609 18.3447 61.2687C18.3908 61.1764 18.3447 61.038 18.2986 60.9458C18.2063 60.8535 18.1602 60.7612 18.0218 60.7612C17.9295 60.7612 17.7912 60.7612 17.6989 60.8535L16.8686 61.4993C16.8225 61.4993 16.8225 61.4993 16.8225 61.4993V61.4532L16.9608 60.4383C16.9608 60.3 16.9147 60.2077 16.8686 60.1154C16.7763 60.0232 16.6841 59.9771 16.5457 59.9771C16.4073 59.9771 16.315 60.0232 16.2689 60.1154C16.1766 60.2077 16.1767 60.3 16.1767 60.4383L16.315 61.4532C16.315 61.4993 16.315 61.4993 16.315 61.4993H16.2689L15.4386 60.8996C15.3463 60.8074 15.2079 60.8074 15.1157 60.8074C14.9773 60.8074 14.9312 60.8996 14.8389 60.9919C14.7467 61.1303 14.7467 61.2687 14.7928 61.3609C14.8389 61.4532 14.9312 61.5454 15.0234 61.5916L15.9921 62.0067C16.0383 62.0067 16.0383 62.0067 16.0383 62.0528C16.0383 62.0528 16.0383 62.099 15.9921 62.099L15.0234 62.5141C14.885 62.5603 14.8389 62.6525 14.7928 62.7448C14.7467 62.837 14.7467 62.9754 14.8389 63.0677C14.8851 63.1599 14.9773 63.2522 15.1157 63.2522C15.2541 63.2522 15.3463 63.2522 15.4386 63.1599L16.2689 62.5141C16.315 62.5141 16.315 62.5141 16.315 62.5141V62.5603L16.1767 63.5751C16.1767 63.7135 16.1766 63.8057 16.2689 63.898C16.3612 63.9903 16.4534 64.0364 16.5918 64.0364Z" fill="white"/>
<path d="M11.0098 64.0364C11.1482 64.0364 11.2404 63.9903 11.2865 63.898C11.3788 63.8057 11.3788 63.7135 11.3788 63.5751L11.2404 62.5603C11.2404 62.5141 11.2404 62.5141 11.2404 62.5141H11.2865L12.1169 63.1138C12.2091 63.2061 12.3475 63.2061 12.4398 63.2061C12.532 63.2061 12.6243 63.1138 12.7165 63.0216C12.8088 62.8832 12.8088 62.7448 12.7627 62.6525C12.7165 62.5603 12.6243 62.468 12.532 62.4219L11.5633 62.0067C11.5172 62.0067 11.5172 62.0067 11.5172 61.9606C11.5172 61.9606 11.5172 61.9145 11.5633 61.9145L12.532 61.4993C12.6704 61.4532 12.7165 61.3609 12.7627 61.2687C12.8088 61.1764 12.7627 61.038 12.7165 60.9458C12.6704 60.8535 12.5781 60.7612 12.4398 60.7612C12.3475 60.7612 12.2091 60.7612 12.1169 60.8535L11.2865 61.4993C11.2404 61.4993 11.2404 61.4993 11.2404 61.4993V61.4532L11.3788 60.4383C11.3788 60.3 11.3327 60.2077 11.2865 60.1154C11.1943 60.0232 11.102 59.9771 10.9636 59.9771C10.8253 59.9771 10.733 60.0232 10.6869 60.1154C10.5946 60.2077 10.5946 60.3 10.5946 60.4383L10.733 61.4532C10.733 61.4993 10.733 61.4993 10.733 61.4993H10.6869L9.85655 60.8996C9.76429 60.8074 9.62592 60.8074 9.53366 60.8074C9.39527 60.8074 9.34914 60.8996 9.25688 60.9919C9.16463 61.1303 9.16462 61.2687 9.21075 61.3609C9.25688 61.4532 9.34914 61.5454 9.4414 61.5916L10.4101 62.0067C10.4562 62.0067 10.4562 62.0067 10.4562 62.0528C10.4562 62.0528 10.4562 62.099 10.4101 62.099L9.4414 62.5141C9.30301 62.5603 9.25688 62.6525 9.21075 62.7448C9.16462 62.837 9.16463 62.9754 9.25688 63.0677C9.30301 63.1599 9.39527 63.2522 9.53366 63.2522C9.67204 63.2522 9.76429 63.2522 9.85655 63.1599L10.6869 62.5141C10.733 62.5141 10.733 62.5141 10.733 62.5141V62.5603L10.5946 63.5751C10.5946 63.7135 10.5946 63.8057 10.6869 63.898C10.7791 63.9903 10.8714 64.0364 11.0098 64.0364Z" fill="#F45C37"/>
</svg>
