<svg width="42" height="42" viewBox="0 0 42 42" fill="none" xmlns="http://www.w3.org/2000/svg">
<g clip-path="url(#clip0_34_155)">
<path d="M33.9618 12.2025C34.4148 12.2025 34.7822 11.8352 34.7822 11.3821V2.461C34.7822 1.10401 33.6782 0 32.3213 0H2.46101C1.10401 0 0 1.10401 0 2.461V39.5401C0 40.8972 1.10401 42.0012 2.46101 42.0012H32.3213C33.6782 42.0012 34.7822 40.8972 34.7822 39.5401V33.4965C34.7822 33.0435 34.4148 32.6763 33.9618 32.6763C33.5088 32.6763 33.1415 33.0435 33.1415 33.4965V39.5401C33.1415 39.9924 32.7735 40.3605 32.3213 40.3605H2.46101C2.00867 40.3605 1.64067 39.9924 1.64067 39.5401V2.461C1.64067 2.00866 2.00867 1.64067 2.46101 1.64067H32.3213C32.7735 1.64067 33.1415 2.00866 33.1415 2.461V11.3821C33.1415 11.8352 33.5088 12.2025 33.9618 12.2025Z" fill="#002A54"/>
<path d="M17.3908 4.42969C13.2294 4.42969 9.84375 7.81529 9.84375 11.9768C9.84375 14.1356 10.7551 16.0854 12.213 17.4623C12.2404 17.4915 12.2694 17.5191 12.3011 17.5443C13.6441 18.7731 15.4314 19.5237 17.3907 19.5237C19.3501 19.5237 21.1374 18.773 22.4804 17.5443C22.5122 17.5191 22.5411 17.4914 22.5684 17.4623C24.0266 16.0854 24.9379 14.1356 24.9379 11.9768C24.9379 7.81529 21.5523 4.42969 17.3908 4.42969ZM17.3908 17.8832C16.0513 17.8832 14.8151 17.4344 13.8231 16.6799C14.5441 15.4014 15.8895 14.6018 17.3908 14.6018C18.892 14.6018 20.2375 15.4014 20.9586 16.6799C19.9665 17.4344 18.7303 17.8832 17.3908 17.8832ZM16.0783 11.6486V11.1154C16.0783 10.3917 16.6671 9.80288 17.3908 9.80288C18.1146 9.80288 18.7034 10.3917 18.7034 11.1154V11.6486C18.7034 12.3723 18.1146 12.9612 17.3908 12.9612C16.6671 12.9612 16.0783 12.3723 16.0783 11.6486ZM22.1439 15.4782C21.5388 14.5809 20.7005 13.8831 19.727 13.4522C20.1132 12.9529 20.3441 12.3274 20.3441 11.6486V11.1154C20.3441 9.48698 19.0192 8.16221 17.3908 8.16221C15.7624 8.16221 14.4376 9.48698 14.4376 11.1154V11.6486C14.4376 12.3274 14.6684 12.9529 15.0547 13.4522C14.0813 13.8831 13.2428 14.5809 12.6378 15.4782C11.9135 14.4977 11.4844 13.2866 11.4844 11.9768C11.4844 8.71996 14.134 6.07036 17.3908 6.07036C20.6476 6.07036 23.2972 8.71996 23.2972 11.9768C23.2972 13.2866 22.8681 14.4977 22.1439 15.4782Z" fill="#002A54"/>
<path d="M21.8205 35.9308H17.3907C16.9377 35.9308 16.5703 36.298 16.5703 36.751C16.5703 37.2042 16.9377 37.5714 17.3907 37.5714H21.8205C22.2735 37.5714 22.6408 37.2042 22.6408 36.751C22.6408 36.298 22.2735 35.9308 21.8205 35.9308Z" fill="#002A54"/>
<path d="M21.8206 31.3367H10.1719C9.7189 31.3367 9.35156 31.704 9.35156 32.157C9.35156 32.6102 9.7189 32.9774 10.1719 32.9774H21.8206C22.2736 32.9774 22.641 32.6102 22.641 32.157C22.641 31.704 22.2736 31.3367 21.8206 31.3367Z" fill="#002A54"/>
<path d="M21.8206 26.7429H10.1719C9.7189 26.7429 9.35156 27.1103 9.35156 27.5633C9.35156 28.0164 9.7189 28.3836 10.1719 28.3836H21.8206C22.2736 28.3836 22.641 28.0164 22.641 27.5633C22.641 27.1103 22.2736 26.7429 21.8206 26.7429Z" fill="#002A54"/>
<path d="M7.2487 22.3892C7.0962 22.2366 6.88456 22.1489 6.66799 22.1489C6.45216 22.1489 6.24051 22.2366 6.08802 22.3892C5.93542 22.5417 5.84766 22.7534 5.84766 22.9692C5.84766 23.1849 5.93535 23.3966 6.08802 23.5491C6.24141 23.7017 6.45216 23.7894 6.66799 23.7894C6.88456 23.7894 7.09539 23.7017 7.2487 23.5491C7.40128 23.3966 7.48914 23.1849 7.48914 22.9692C7.48914 22.7534 7.40137 22.5417 7.2487 22.3892Z" fill="#002A54"/>
<path d="M7.2487 26.9834C7.09539 26.8307 6.88456 26.7429 6.66799 26.7429C6.45216 26.7429 6.24141 26.8307 6.08802 26.9834C5.93542 27.1359 5.84766 27.3476 5.84766 27.5633C5.84766 27.779 5.93535 27.9906 6.08802 28.1433C6.24141 28.2959 6.45216 28.3836 6.66799 28.3836C6.88456 28.3836 7.09539 28.2959 7.2487 28.1433C7.40128 27.9906 7.48914 27.779 7.48914 27.5633C7.48914 27.3476 7.40137 27.1359 7.2487 26.9834Z" fill="#002A54"/>
<path d="M7.2487 31.5771C7.09539 31.4244 6.88456 31.3367 6.66799 31.3367C6.45216 31.3367 6.24141 31.4244 6.08802 31.5771C5.93542 31.7297 5.84766 31.9413 5.84766 32.157C5.84766 32.3727 5.93535 32.5844 6.08802 32.7371C6.24051 32.8896 6.45216 32.9774 6.66799 32.9774C6.88456 32.9774 7.0962 32.8896 7.2487 32.7371C7.40128 32.5844 7.48914 32.3727 7.48914 32.157C7.48914 31.9413 7.40137 31.7297 7.2487 31.5771Z" fill="#002A54"/>
<path d="M21.8206 22.1489H10.1719C9.7189 22.1489 9.35156 22.5161 9.35156 22.9692C9.35156 23.4222 9.7189 23.7894 10.1719 23.7894H21.8206C22.2736 23.7894 22.641 23.4222 22.641 22.9692C22.641 22.5161 22.2736 22.1489 21.8206 22.1489Z" fill="#002A54"/>
<path d="M40.278 10.6906C39.4811 10.2305 38.5526 10.1082 37.6635 10.3464C36.7746 10.5846 36.0315 11.1548 35.5715 11.9517L25.2482 29.832C25.1916 29.93 25.1559 30.0387 25.1433 30.1512L24.4167 36.66C24.3806 36.9839 24.5396 37.2986 24.8217 37.4615C24.9492 37.535 25.0907 37.5714 25.2318 37.5714C25.4034 37.5714 25.5744 37.5177 25.7184 37.4117L30.9918 33.5279C31.083 33.4607 31.1592 33.3755 31.2158 33.2775L41.5389 15.3972C42.4889 13.7519 41.9232 11.6406 40.278 10.6906ZM26.2553 34.9787L26.6348 31.5798L29.009 32.9505L26.2553 34.9787ZM30.2052 31.7466L27.0792 29.942L35.3634 15.5934L38.4893 17.3982L30.2052 31.7466ZM40.1181 14.5768L39.3096 15.9774L36.1836 14.1726L36.9923 12.772C37.2333 12.3546 37.6224 12.056 38.088 11.9312C38.5539 11.8063 39.0402 11.8705 39.4575 12.1115C39.875 12.3525 40.1736 12.7417 40.2984 13.2073C40.4232 13.6729 40.3592 14.1593 40.1181 14.5768Z" fill="#002A54"/>
</g>
<defs>
<clipPath id="clip0_34_155">
<rect width="42" height="42" fill="white"/>
</clipPath>
</defs>
</svg>
