<svg width="97" height="97" viewBox="0 0 97 97" fill="none" xmlns="http://www.w3.org/2000/svg">
<g filter="url(#filter0_d_1903_411)">
<circle cx="48.5" cy="40.5" r="28.5" fill="white"/>
</g>
<path fill-rule="evenodd" clip-rule="evenodd" d="M51.4409 30.2447C51.5119 30.3221 51.5681 30.414 51.6065 30.5152C51.6449 30.6164 51.6647 30.7249 51.6647 30.8345C51.6647 30.944 51.6449 31.0525 51.6065 31.1537C51.5681 31.2549 51.5119 31.3468 51.4409 31.4242L42.8398 40.8302L51.4409 50.2362C51.584 50.3926 51.6643 50.6048 51.6643 50.826C51.6643 51.0472 51.584 51.2593 51.4409 51.4157C51.2979 51.5721 51.104 51.66 50.9018 51.66C50.6995 51.66 50.5056 51.5721 50.3626 51.4157L41.2237 41.42C41.1528 41.3426 41.0965 41.2507 41.0582 41.1495C41.0198 41.0483 41 40.9398 41 40.8302C41 40.7207 41.0198 40.6122 41.0582 40.511C41.0965 40.4098 41.1528 40.3178 41.2237 40.2405L50.3626 30.2447C50.4333 30.1671 50.5174 30.1056 50.6099 30.0636C50.7024 30.0216 50.8016 30 50.9018 30C51.0019 30 51.1011 30.0216 51.1936 30.0636C51.2862 30.1056 51.3702 30.1671 51.4409 30.2447Z" fill="#2B3481"/>
<defs>
<filter id="filter0_d_1903_411" x="0" y="0" width="97" height="97" filterUnits="userSpaceOnUse" color-interpolation-filters="sRGB">
<feFlood flood-opacity="0" result="BackgroundImageFix"/>
<feColorMatrix in="SourceAlpha" type="matrix" values="0 0 0 0 0 0 0 0 0 0 0 0 0 0 0 0 0 0 127 0" result="hardAlpha"/>
<feOffset dy="8"/>
<feGaussianBlur stdDeviation="10"/>
<feColorMatrix type="matrix" values="0 0 0 0 0.708333 0 0 0 0 0.708333 0 0 0 0 0.708333 0 0 0 0.7 0"/>
<feBlend mode="normal" in2="BackgroundImageFix" result="effect1_dropShadow_1903_411"/>
<feBlend mode="normal" in="SourceGraphic" in2="effect1_dropShadow_1903_411" result="shape"/>
</filter>
</defs>
</svg>
