<svg width="24" height="21" viewBox="0 0 24 21" fill="none" xmlns="http://www.w3.org/2000/svg">
<path d="M6.70537 4.50311V2.47071C6.70537 1.66183 7.3672 1 8.17609 1H15.8239C16.6328 1 17.2946 1.66183 17.2946 2.47071V4.50311M22.0871 11.0757V18.8693C22.0871 19.6223 21.4708 20.2386 20.7178 20.2386H3.28214C2.52916 20.2386 1.91284 19.6224 1.91284 18.8693V11.1214" stroke="#002A54" stroke-width="1.4" stroke-miterlimit="22.9256" stroke-linecap="round" stroke-linejoin="round"/>
<path d="M10.1743 13.3807C5.34573 13.1046 1 11.7239 1 9.23845V5.99793C1 5.24376 1.61509 4.62863 2.36929 4.62863H21.6307C22.3849 4.62863 23 5.24381 23 5.99793V9.23845C23 11.7394 18.5994 13.1219 13.7344 13.3858" stroke="#002A54" stroke-width="1.4" stroke-miterlimit="22.9256" stroke-linecap="round" stroke-linejoin="round"/>
<path fill-rule="evenodd" clip-rule="evenodd" d="M10.3113 12.0228H13.6889V13.5975C13.6889 14.4636 12.9803 15.1722 12.1142 15.1722H11.886C11.0199 15.1722 10.3113 14.4636 10.3113 13.5975V12.0228Z" stroke="#002A54" stroke-width="1.4" stroke-miterlimit="22.9256" stroke-linecap="round" stroke-linejoin="round"/>
</svg>
