<svg width="135" height="126" viewBox="0 0 135 126" fill="none" xmlns="http://www.w3.org/2000/svg">
<circle cx="68" cy="63" r="63" fill="#E4EDF7"/>
<g clip-path="url(#clip0_733_2176)">
<path d="M131.636 66.7103C131.674 66.1405 130.321 65.8623 130.383 65.3636C130.444 64.8668 131.808 64.97 133.25 64.0725C133.51 63.9107 135.149 62.8907 134.989 62.1255C134.686 60.675 128.188 61.4153 127.556 59.3052C127.417 58.8421 127.546 58.1925 127.163 56.737C127.011 56.158 126.884 55.8575 126.626 55.7627C126.26 55.6281 125.948 56.0252 125.049 56.6118C123.701 57.4916 123.454 57.2165 122.486 57.9917C121.768 58.5671 121.527 59.021 121.214 58.9295C120.771 58.8001 120.969 57.8076 120.462 57.5654C119.945 57.3182 119.043 58.0191 118.491 58.6268C117.454 59.7673 117.346 60.9103 117.002 61.9554C116.627 63.0911 115.797 64.6421 113.738 66.2392L94.9448 79.7623C98.9011 77.055 109.965 69.7816 114.275 67.2136C115.52 66.4723 116.827 65.7506 118.253 66.0825C119.627 66.4021 120.946 67.6597 123.161 68.494C123.419 68.5914 124.143 68.8536 124.469 68.5479C124.738 68.2952 124.49 67.8845 124.738 67.6449C125.07 67.3234 125.786 67.8013 126.959 67.965C127.786 68.0804 128.421 67.9809 128.966 67.8953C129.13 67.8695 131.586 67.4689 131.636 66.7103Z" fill="#102A54"/>
<path d="M99.8815 59.029C99.6094 58.8463 99.0811 59.4222 98.8512 59.2485C98.6222 59.0754 99.067 58.4434 99.0375 57.4849C99.0322 57.312 98.9986 56.2226 98.5725 56.0794C97.7649 55.8078 96.2577 59.174 95.0275 58.872C94.7575 58.8057 94.4722 58.5557 93.6391 58.3215C93.3076 58.2283 93.122 58.2029 93.0004 58.3008C92.8279 58.4397 92.9351 58.7054 92.9669 59.311C93.0146 60.2191 92.8069 60.2593 92.9126 60.9525C92.991 61.467 93.1467 61.7151 93.0111 61.8405C92.8191 62.0179 92.3834 61.6356 92.1169 61.8115C91.845 61.9911 91.9328 62.6308 92.0751 63.0742C92.3422 63.9064 92.8787 64.2883 93.2981 64.7571C93.754 65.2665 94.2846 66.1167 94.4836 67.5763L95.7754 80.5962C95.5727 77.8956 95.1535 70.4293 95.1223 67.597C95.1132 66.7794 95.132 65.9371 95.7085 65.3407C96.2635 64.7664 97.2685 64.4893 98.3217 63.6555C98.4447 63.5582 98.7836 63.2828 98.7258 63.0366C98.6781 62.833 98.4027 62.8348 98.3552 62.6454C98.2915 62.3913 98.7353 62.1819 99.155 61.66C99.451 61.292 99.5846 60.9556 99.6994 60.6664C99.7341 60.5792 100.244 59.2722 99.8815 59.029Z" fill="#102A54"/>
<path d="M104.463 63.8953L105.299 62.342L105.449 62.2832C106.145 62.0115 106.664 61.6369 106.991 61.1695C107.043 61.0952 107.091 61.0183 107.14 60.94C107.334 60.6295 107.576 60.2435 108.075 59.9411C108.354 59.7729 109.055 59.4204 109.474 59.8064C109.588 59.909 109.643 60.0305 109.669 60.1463C109.691 60.1367 109.714 60.1274 109.738 60.1171C110.035 59.9962 110.216 59.9802 110.39 59.9648C110.523 59.9528 110.661 59.9407 110.917 59.8643C111.029 59.8308 111.122 59.7973 111.2 59.7692C111.436 59.6845 111.731 59.5929 112.007 59.7848C112.295 60.0001 112.282 60.3486 112.274 60.5794C112.259 60.9912 112.199 61.2546 112.16 61.4293C112.145 61.493 112.129 61.565 112.128 61.5902C112.128 61.7944 112.997 62.1916 113.323 62.3429C114.058 62.6806 114.693 62.9728 114.644 63.5429C114.608 63.9509 114.214 64.2549 113.439 64.4699C113.197 64.5367 112.973 64.5601 112.783 64.5685C112.845 64.7002 112.873 64.8572 112.808 65.0304C112.655 65.4402 112.108 65.5847 111.182 65.4616C110.952 65.4316 110.643 65.39 110.282 65.2268C110.112 65.1498 109.971 65.0635 109.852 64.9878C109.803 65.053 109.737 65.1147 109.644 65.1613C109.371 65.2989 109.047 65.2331 108.686 64.9513C108.283 64.6473 107.994 64.336 107.739 64.0619C107.516 63.8228 107.323 63.6176 107.136 63.5083C106.786 63.31 106.348 63.3995 105.812 63.5369L104.463 63.8953Z" fill="#102A54"/>
<path d="M111.172 55.8193L109.44 55.4139L109.345 55.2849C108.902 54.6883 108.404 54.2877 107.864 54.0936C107.778 54.0628 107.691 54.0363 107.602 54.0092C107.248 53.902 106.809 53.769 106.387 53.3681C106.151 53.144 105.629 52.5633 105.9 52.0648C105.972 51.9301 106.077 51.8461 106.183 51.792C106.168 51.7733 106.153 51.7541 106.137 51.7336C105.944 51.4797 105.882 51.3113 105.823 51.1491C105.777 51.0245 105.731 50.8958 105.591 50.6705C105.53 50.5717 105.473 50.4917 105.426 50.4243C105.283 50.2199 105.119 49.9607 105.237 49.6481C105.374 49.3184 105.718 49.2422 105.946 49.1915C106.353 49.101 106.626 49.0914 106.807 49.0851C106.873 49.083 106.948 49.0802 106.972 49.0742C107.172 49.0231 107.341 48.0911 107.406 47.7407C107.55 46.9528 107.675 46.2709 108.245 46.1739C108.653 46.1041 109.051 46.4041 109.458 47.0909C109.585 47.3048 109.664 47.5128 109.721 47.6925C109.834 47.6003 109.981 47.5338 110.166 47.5517C110.606 47.5945 110.886 48.0807 111.001 48.997C111.03 49.2248 111.068 49.531 110.999 49.9171C110.967 50.0989 110.918 50.2557 110.874 50.3891C110.951 50.4192 111.028 50.4667 111.097 50.5437C111.301 50.7697 111.319 51.0962 111.135 51.5135C110.939 51.9752 110.708 52.3305 110.504 52.6441C110.327 52.9181 110.175 53.1544 110.116 53.3611C110.01 53.7463 110.209 54.1422 110.479 54.62L111.172 55.8193Z" fill="#102A54"/>
<path d="M113.359 51.0558L114.195 49.5025L114.345 49.4437C115.041 49.172 115.56 48.7974 115.887 48.33C115.939 48.2557 115.987 48.1788 116.036 48.1005C116.23 47.79 116.472 47.4041 116.971 47.1016C117.25 46.9334 117.951 46.5809 118.37 46.9669C118.484 47.0695 118.539 47.191 118.565 47.3068C118.587 47.2972 118.61 47.2879 118.634 47.2777C118.931 47.1567 119.112 47.1407 119.286 47.1253C119.419 47.1134 119.557 47.1013 119.813 47.0248C119.925 46.9913 120.018 46.9578 120.096 46.9297C120.332 46.8451 120.627 46.7534 120.903 46.9453C121.191 47.1606 121.178 47.5091 121.17 47.7399C121.155 48.1517 121.095 48.4151 121.056 48.5898C121.041 48.6535 121.025 48.7255 121.024 48.7508C121.024 48.955 121.893 49.3521 122.219 49.5035C122.954 49.8411 123.589 50.1333 123.54 50.7034C123.504 51.1114 123.11 51.4154 122.335 51.6304C122.093 51.6972 121.869 51.7206 121.679 51.7291C121.741 51.8607 121.769 52.0177 121.704 52.1909C121.551 52.6007 121.004 52.7453 120.078 52.6221C119.848 52.5921 119.539 52.5506 119.178 52.3873C119.008 52.3103 118.867 52.224 118.748 52.1483C118.699 52.2135 118.633 52.2752 118.54 52.3218C118.267 52.4594 117.943 52.3936 117.582 52.1118C117.179 51.8078 116.89 51.4965 116.635 51.2224C116.412 50.9833 116.219 50.7781 116.032 50.6688C115.682 50.4706 115.244 50.56 114.708 50.6974L113.359 51.0558Z" fill="#102A54"/>
<path d="M95.4498 80.0695L95.2752 79.673L94.8906 79.472C94.9077 79.4354 94.9404 79.3471 94.9928 79.2096C95.2801 78.4565 96.1536 76.164 97.8896 72.7978C99.1016 70.448 100.478 68.1208 101.983 65.8798C103.489 63.6352 104.761 62.025 105.783 60.7307C106.554 59.7545 107.305 58.8365 108.037 57.9425C109.993 55.5536 111.84 53.2969 113.527 50.557C113.904 49.9455 114.689 48.6723 114.868 46.8741C114.972 45.8312 114.859 44.7656 114.529 43.7077L115.366 43.4535C115.729 44.6221 115.854 45.8018 115.739 46.9599C115.539 48.9536 114.685 50.3409 114.274 51.0075C112.557 53.7957 110.692 56.074 108.717 58.4858C107.988 59.3768 107.24 60.2907 106.472 61.2629C105.46 62.5452 104.199 64.1414 102.712 66.3572C101.225 68.5713 99.8656 70.8701 98.6686 73.1901C96.9546 76.514 96.0943 78.7724 95.8117 79.5143C95.6605 79.9103 95.6289 79.9933 95.4498 80.0695Z" fill="#102A54"/>
<path d="M112.421 43.9451C112.391 43.9251 112.362 43.9041 112.333 43.8815C111.741 43.4327 111.424 42.6839 111.39 41.6558C111.375 41.1727 111.507 40.7231 111.771 39.8264C111.812 39.688 112.025 38.9914 112.46 38.1282C112.743 37.564 112.902 37.355 113.137 37.2347C113.398 37.1005 113.686 37.0783 113.963 37.1199C114.001 37.0454 114.058 36.9801 114.137 36.9286C114.466 36.7144 114.766 36.9748 114.93 37.1133C115.012 37.1851 115.113 37.2753 115.238 37.3506C115.434 37.4699 115.575 37.4831 115.787 37.504C115.99 37.5239 116.242 37.5485 116.553 37.6779C117.167 37.9307 117.512 38.3858 117.626 38.5357C118.229 39.3211 118.198 40.1813 118.162 41.1773C118.154 41.3768 118.108 42.0902 117.827 42.9216C117.625 43.5215 117.45 43.7305 117.292 43.8667C116.967 44.1473 116.622 44.2004 115.791 44.2704C114.923 44.3447 114.488 44.3814 114.153 44.3565C113.375 44.2972 112.886 44.26 112.421 43.9451Z" fill="#102A54"/>
<path d="M108.973 24H59.9423C58.1437 24 56.6812 25.4457 56.6812 27.2237V77.2159C56.6812 78.9938 58.1437 80.4396 59.9423 80.4396H108.973C110.771 80.4396 112.234 78.9938 112.234 77.2159V27.2237C112.234 25.4457 110.771 24 108.973 24ZM111.891 77.2159C111.891 78.8091 110.584 80.1006 108.973 80.1006H59.9423C58.3306 80.1006 57.0241 78.8091 57.0241 77.2159V27.2237C57.0241 25.6305 58.3306 24.339 59.9423 24.339H85.9135C100.26 24.339 111.891 35.8358 111.891 50.0178V77.2159Z" fill="#3F3D56"/>
<path d="M55.6435 61.573C53.925 62.0321 52.7717 63.2808 53.0675 64.3618C53.3633 65.4429 54.996 65.9467 56.715 65.4872C57.4042 65.3129 58.0412 64.978 58.5727 64.5106L65.8291 62.4742L64.7898 59.1285L57.7466 61.4912C57.049 61.352 56.3279 61.3801 55.6435 61.573Z" fill="#FFB6B6"/>
<path d="M86.0522 51.5353C86.0522 51.5353 88.1009 54.5061 83.4837 56.7472C78.8665 58.9882 70.3316 62.1868 70.3316 62.1868L58.5472 64.8855L56.7676 61.0289L70.7509 57.2628L82.1456 50.9769L86.0522 51.5353Z" fill="#3F3D56"/>
<path d="M84.6814 43.628C84.629 45.0362 85.6545 46.7078 86.7388 46.7421C88.0433 46.7834 94.2099 47.2176 94.4081 46.712C95.7845 43.2017 89.3024 35.92 87.8412 35.71C87.056 35.5971 86.1158 36.7115 85.7543 37.6315C85.2477 38.9207 85.9953 39.5287 85.5734 41.2656C85.2516 42.59 84.718 42.6435 84.6814 43.628Z" fill="#2F2E41"/>
<path d="M73.9474 99.1409L69.6194 100.121L73.9682 112.877L76.901 112.213L73.9474 99.1409Z" fill="#FFB6B6"/>
<path d="M72.4008 108.899L74.0748 109.142L74.3328 110.028C74.3328 110.028 74.3886 108.901 76.2374 108.128L76.7179 108.921C76.7179 108.921 77.7076 109.551 78.0275 111.111L78.7377 115.332L77.2843 115.713L76.2178 112.94C76.2178 112.94 75.631 112.41 74.6975 115.997C74.6975 115.997 74.3195 117.202 70.8905 117.063C70.4192 117.044 70.0045 116.733 69.8787 116.283C69.8093 116.035 69.84 115.779 70.1294 115.607C70.8661 115.17 71.7229 115.211 72.0535 114.433C72.384 113.656 72.4008 108.899 72.4008 108.899Z" fill="#2F2E41"/>
<path d="M83.35 104.94L79.4851 104.846L80.0262 118.278L83.0344 118.331L83.35 104.94Z" fill="#FFB6B6"/>
<path d="M79.4733 114.044L81.039 114.678L81.0737 115.599C81.0737 115.599 81.4023 114.518 83.3848 114.208L83.6582 115.092C83.6582 115.092 84.4655 115.939 84.3961 117.529L84.058 121.795L82.5545 121.819L82.1944 118.874C82.1944 118.874 81.7539 118.22 79.9746 121.479C79.9746 121.479 79.3142 122.559 76.02 121.608C75.5672 121.477 75.2403 121.077 75.2277 120.611C75.2207 120.354 75.3129 120.112 75.6356 120.014C76.4572 119.765 77.2788 120.009 77.7889 119.333C78.2989 118.657 79.4733 114.044 79.4733 114.044Z" fill="#2F2E41"/>
<path d="M91.3253 90.2693L70.885 88.7059L76.6372 65.3959L90.3993 63.4358L91.3253 90.2693Z" fill="#2F2E41"/>
<path d="M88.5064 47.4221L92.8131 45.154L96.2909 49.2131L89.3024 71.355L76.5186 65.7594L86.2283 49.3505L88.5064 47.4221Z" fill="#FF491D"/>
<path d="M89.0522 67.3572C89.0522 67.3572 90.4236 74.3475 86.1768 77.9807L84.8769 82.0661L83.4733 89.6069L83.6003 109.083L78.4565 108.575L76.399 89.9316L76.3745 80.653L68.7808 87.0812L76.7281 102.511L70.2523 105.314L62.3432 86.7199C61.7936 85.5872 61.9402 84.2446 62.7215 83.2539L76.5185 65.7595L89.0522 67.3572Z" fill="#2F2E41"/>
<path d="M94.3842 46.9878L85.9401 54.7751C83.9417 70.8052 85.0326 85.5246 90.7826 98.2676L104.972 91.7667C93.2716 88.2587 94.4191 68.997 96.6894 48.3586L94.3842 46.9878Z" fill="#3F3D56"/>
<path d="M87.1022 49.3761L88.4012 47.3894L81.2167 51.5647L75.5356 67.1273L86.0156 54.1994L87.1022 49.3761Z" fill="#3F3D56"/>
<path d="M105.074 78.6491C105.569 80.3393 106.852 81.4569 107.941 81.1452C109.029 80.8335 109.509 79.2108 109.014 77.52C108.825 76.842 108.475 76.2184 107.993 75.7015L105.803 68.566L102.438 69.6531L104.953 76.572C104.825 77.2639 104.866 77.9762 105.074 78.6491Z" fill="#FFB6B6"/>
<path d="M94.0562 48.5247C94.0562 48.5247 97.0014 46.415 99.4003 50.9129C101.799 55.4107 105.279 63.7521 105.279 63.7521L108.346 75.3188L104.498 77.188L100.288 63.4793L93.6038 52.4009L94.0562 48.5247Z" fill="#3F3D56"/>
<path d="M90.5542 44.9714C93.1958 44.9714 95.3372 42.8547 95.3372 40.2435C95.3372 37.6323 93.1958 35.5155 90.5542 35.5155C87.9126 35.5155 85.7712 37.6323 85.7712 40.2435C85.7712 42.8547 87.9126 44.9714 90.5542 44.9714Z" fill="#FFB6B6"/>
<path d="M90.5699 38.3989C90.3006 38.3726 90.1622 38.654 89.134 39.0467C88.7698 39.1858 88.5833 39.2556 88.3693 39.2692C87.7189 39.3105 87.2135 38.9554 86.8757 38.7181C86.3265 38.3324 85.9728 38.0839 85.9037 37.6866C85.8135 37.1682 86.4072 36.5891 87.5983 35.4521C88.1816 34.8953 88.537 34.5589 89.1078 34.1586C90.0651 33.4872 90.5437 33.1514 91.2147 33.0856C92.1034 32.9983 92.779 33.4175 93.7539 34.0224C94.0173 34.1858 94.397 34.2644 94.7996 34.2944C96.1174 34.3924 97.2472 35.2607 97.6056 36.5181C97.633 36.6142 97.656 36.7011 97.6733 36.7756C98.3808 39.8287 98.1833 43.0043 97.2152 45.9867C97.1891 46.0669 97.1673 46.1417 97.1504 46.2098C96.7007 48.0261 90.5225 48.7341 89.7999 47.1986C89.3448 46.2318 91.4714 45.2643 91.789 42.3813C92.0101 40.3742 91.2414 38.4643 90.5699 38.3989Z" fill="#2F2E41"/>
<path d="M71.941 39.4663H20.1172V39.7289H71.941V39.4663Z" fill="#E6E6E6"/>
<path d="M64.6248 35.627H27.4335C26.8475 35.627 26.3708 35.1558 26.3708 34.5766C26.3708 33.9974 26.8475 33.5262 27.4335 33.5262H64.6248C65.2107 33.5262 65.6874 33.9974 65.6874 34.5766C65.6874 35.1558 65.2107 35.627 64.6248 35.627Z" fill="#102A54"/>
<path d="M20.2321 41.5561C21.4632 41.5561 22.4611 40.5696 22.4611 39.3528C22.4611 38.1359 21.4632 37.1494 20.2321 37.1494C19.0011 37.1494 18.0032 38.1359 18.0032 39.3528C18.0032 40.5696 19.0011 41.5561 20.2321 41.5561Z" fill="#102A54"/>
<path d="M27.0905 36.8104C28.3216 36.8104 29.3195 35.824 29.3195 34.6071C29.3195 33.3902 28.3216 32.4037 27.0905 32.4037C25.8595 32.4037 24.8616 33.3902 24.8616 34.6071C24.8616 35.824 25.8595 36.8104 27.0905 36.8104Z" fill="#102A54"/>
<path d="M54.4522 64.0421H2.62842V64.3047H54.4522V64.0421Z" fill="#3F3D56"/>
<path d="M47.1361 60.2028H9.94469C9.35878 60.2028 8.88208 59.7315 8.88208 59.1524C8.88208 58.5732 9.35878 58.102 9.94469 58.102H47.1361C47.722 58.102 48.1987 58.5732 48.1987 59.1524C48.1987 59.7315 47.722 60.2028 47.1361 60.2028Z" fill="#FF491D"/>
<path d="M2.22897 66.1319C3.45999 66.1319 4.45793 65.1454 4.45793 63.9285C4.45793 62.7117 3.45999 61.7252 2.22897 61.7252C0.997942 61.7252 0 62.7117 0 63.9285C0 65.1454 0.997942 66.1319 2.22897 66.1319Z" fill="#FF491D"/>
<path d="M9.08736 61.3862C10.3184 61.3862 11.3163 60.3997 11.3163 59.1829C11.3163 57.966 10.3184 56.9795 9.08736 56.9795C7.85634 56.9795 6.8584 57.966 6.8584 59.1829C6.8584 60.3997 7.85634 61.3862 9.08736 61.3862Z" fill="#FF491D"/>
<path d="M60.6248 91.1602H8.80103V91.4228H60.6248V91.1602Z" fill="#E6E6E6"/>
<path d="M53.3087 87.3209H16.1173C15.5314 87.3209 15.0547 86.8497 15.0547 86.2705C15.0547 85.6913 15.5314 85.2201 16.1173 85.2201H53.3087C53.8946 85.2201 54.3713 85.6913 54.3713 86.2705C54.3713 86.8497 53.8946 87.3209 53.3087 87.3209Z" fill="#102A54"/>
<path d="M15.0886 88.3349C16.3196 88.3349 17.3176 87.3484 17.3176 86.1315C17.3176 84.9146 16.3196 83.9282 15.0886 83.9282C13.8576 83.9282 12.8596 84.9146 12.8596 86.1315C12.8596 87.3484 13.8576 88.3349 15.0886 88.3349Z" fill="#102A54"/>
<path d="M8.40157 93.4195C9.6326 93.4195 10.6305 92.433 10.6305 91.2162C10.6305 89.9993 9.6326 89.0128 8.40157 89.0128C7.17055 89.0128 6.17261 89.9993 6.17261 91.2162C6.17261 92.433 7.17055 93.4195 8.40157 93.4195Z" fill="#102A54"/>
</g>
<defs>
<clipPath id="clip0_733_2176">
<rect width="135" height="98" fill="white" transform="translate(0 24)"/>
</clipPath>
</defs>
</svg>
