<svg width="150" height="126" viewBox="0 0 150 126" fill="none" xmlns="http://www.w3.org/2000/svg">
<circle cx="75" cy="63" r="63" fill="#E4EDF7"/>
<path d="M63.858 70.9148H3.08986C2.27066 70.9138 1.48528 70.5468 0.906016 69.8945C0.326753 69.2422 0.000919497 68.3577 0 67.4351V25.6499C0.000690486 24.9474 0.248809 24.2738 0.689922 23.777C1.13103 23.2802 1.72912 23.0008 2.35295 23H64.56C65.1931 23.0008 65.8 23.2844 66.2477 23.7885C66.6954 24.2927 66.9472 24.9762 66.9479 25.6892V67.4351C66.9469 68.3577 66.6211 69.2422 66.0418 69.8945C65.4626 70.5468 64.6772 70.9138 63.858 70.9148ZM2.35295 23.7524C1.90624 23.753 1.47798 23.9531 1.16212 24.3088C0.846251 24.6645 0.668579 25.1468 0.668078 25.6499V67.4351C0.668809 68.1582 0.924196 68.8514 1.37821 69.3627C1.83222 69.874 2.44779 70.1616 3.08986 70.1625H63.858C64.5001 70.1616 65.1156 69.874 65.5697 69.3627C66.0237 68.8514 66.2791 68.1582 66.2798 67.4351V25.6892C66.2793 25.1757 66.0979 24.6834 65.7755 24.3203C65.4531 23.9572 65.0159 23.7529 64.56 23.7524H2.35295Z" fill="#C9D1DD"/>
<path d="M27.744 60.3354H9.53549C9.09 60.3346 8.65987 60.1519 8.32493 59.8211C7.98998 59.4903 7.77296 59.0339 7.71414 58.5366C7.70308 58.4471 7.69777 58.3568 7.69827 58.2663V35.6484C7.69882 35.0998 7.89256 34.5739 8.23699 34.186C8.58142 33.7981 9.0484 33.58 9.53549 33.5793H27.744C28.2311 33.58 28.698 33.7981 29.0425 34.186C29.3869 34.5739 29.5806 35.0998 29.5812 35.6484V58.2663C29.5806 58.8149 29.3869 59.3408 29.0425 59.7287C28.698 60.1166 28.2311 60.3347 27.744 60.3354ZM9.53549 34.7079C9.31409 34.7082 9.10182 34.8074 8.94527 34.9837C8.78871 35.16 8.70065 35.399 8.70039 35.6484V58.2663C8.70003 58.305 8.70216 58.3437 8.70675 58.382C8.73232 58.6094 8.83054 58.8185 8.98306 58.9703C9.13557 59.1221 9.33195 59.2062 9.53549 59.2068H27.744C27.9654 59.2065 28.1776 59.1073 28.3342 58.931C28.4907 58.7547 28.5788 58.5157 28.5791 58.2663V35.6484C28.5788 35.399 28.4907 35.16 28.3342 34.9837C28.1776 34.8074 27.9654 34.7082 27.744 34.7079H9.53549Z" fill="#102A54"/>
<path d="M57.9135 52.981H35.8669C35.5125 52.981 35.1727 52.8225 34.9221 52.5403C34.6715 52.2581 34.5308 51.8754 34.5308 51.4763C34.5308 51.0772 34.6715 50.6945 34.9221 50.4123C35.1727 50.1301 35.5125 49.9716 35.8669 49.9716H57.9135C58.2679 49.9716 58.6077 50.1301 58.8583 50.4123C59.1089 50.6945 59.2497 51.0772 59.2497 51.4763C59.2497 51.8754 59.1089 52.2581 58.8583 52.5403C58.6077 52.8225 58.2679 52.981 57.9135 52.981Z" fill="#102A54"/>
<path d="M47.8923 46.5859H35.8669C35.5125 46.5859 35.1727 46.4273 34.9221 46.1452C34.6715 45.863 34.5308 45.4802 34.5308 45.0811C34.5308 44.6821 34.6715 44.2993 34.9221 44.0171C35.1727 43.7349 35.5125 43.5764 35.8669 43.5764H47.8923C48.2467 43.5764 48.5866 43.7349 48.8371 44.0171C49.0877 44.2993 49.2285 44.6821 49.2285 45.0811C49.2285 45.4802 49.0877 45.863 48.8371 46.1452C48.5866 46.4273 48.2467 46.5859 47.8923 46.5859Z" fill="#102A54"/>
<path d="M24.6436 46.3357C24.6436 49.6599 21.9142 49.1571 18.5474 49.1571C15.1805 49.1571 12.4512 49.6599 12.4512 46.3357C12.4512 43.0116 13.7844 37.1193 18.5474 37.1193C23.4745 37.1193 24.6436 43.0116 24.6436 46.3357Z" fill="#2F2E41"/>
<path d="M24.8901 51.9303C24.7725 51.5481 24.5381 51.2255 24.2287 51.02C24.169 50.9787 24.1064 50.9428 24.0416 50.9128C23.7703 50.7857 23.472 50.7504 23.1831 50.8112C22.8943 50.872 22.6274 51.0263 22.4152 51.2551C22.2029 51.484 22.0545 51.7775 21.988 52.0999C21.9215 52.4222 21.9398 52.7594 22.0407 53.0702L24.4692 59.2866H27.6676L24.8901 51.9303Z" fill="#E53E15"/>
<path d="M14.2928 52.2689C14.1008 52.1644 13.8915 52.1069 13.6784 52.1C13.4653 52.093 13.2533 52.1369 13.0563 52.2287C12.8593 52.3206 12.6818 52.4582 12.5354 52.6328C12.389 52.8073 12.277 53.0147 12.2068 53.2413L9.94531 59.232C10.0611 59.2684 10.1808 59.2868 10.301 59.2866H13.1387L15.056 54.3812C15.1839 53.9852 15.1767 53.5498 15.0356 53.1595C14.8946 52.7692 14.6299 52.4518 14.2928 52.2689Z" fill="#E53E15"/>
<path d="M18.527 49.1516C20.7925 49.1516 22.6292 47.0832 22.6292 44.5318C22.6292 41.9804 20.7925 39.9121 18.527 39.9121C16.2614 39.9121 14.4248 41.9804 14.4248 44.5318C14.4248 47.0832 16.2614 49.1516 18.527 49.1516Z" fill="#FFB8B8"/>
<path d="M24.3005 51.0933C24.2772 51.0689 24.2537 51.0425 24.2287 51.02C23.9427 50.7296 23.6043 50.5125 23.2367 50.3836C22.8691 50.2547 22.481 50.217 22.0992 50.2732L14.5399 51.351C13.8474 51.4475 13.2155 51.844 12.7784 52.4564C12.3412 53.0688 12.1331 53.849 12.1982 54.6313C12.3018 55.9442 12.4688 57.6013 12.7361 59.2866H24.678L25.1172 53.5385C25.1526 53.088 25.0975 52.6344 24.9561 52.2112C24.8148 51.7879 24.5907 51.4059 24.3005 51.0933Z" fill="#F45C37"/>
<path d="M13.7871 44.0786H15.4096L16.1254 41.8215L16.2685 44.0786H17.044L17.4615 42.762L17.5451 44.0786H23.3072C23.3072 42.7816 22.8497 41.5377 22.0353 40.6206C21.221 39.7035 20.1164 39.1882 18.9647 39.1882H18.1296C16.9779 39.1882 15.8734 39.7035 15.059 40.6206C14.2446 41.5377 13.7871 42.7816 13.7871 44.0786Z" fill="#2F2E41"/>
<path d="M83.0522 67.4351V25.6892C83.0529 24.9762 83.3048 24.2927 83.7524 23.7885C84.2001 23.2844 84.807 23.0008 85.4401 23H147.647C148.271 23.0008 148.869 23.2802 149.31 23.777C149.751 24.2738 149.999 24.9474 150 25.6499V67.4351C149.999 68.3577 149.673 69.2422 149.094 69.8945C148.515 70.5468 147.729 70.9138 146.91 70.9148H86.1421C85.3229 70.9138 84.5375 70.5468 83.9583 69.8945C83.379 69.2422 83.0532 68.3577 83.0522 67.4351ZM85.4401 23.7524C84.9842 23.7529 84.547 23.9572 84.2246 24.3203C83.9022 24.6834 83.7208 25.1757 83.7203 25.6892V67.4351C83.7211 68.1582 83.9764 68.8514 84.4305 69.3627C84.8845 69.874 85.5 70.1616 86.1421 70.1625H146.91C147.552 70.1616 148.168 69.874 148.622 69.3627C149.076 68.8514 149.331 68.1582 149.332 67.4351V25.6499C149.332 25.1468 149.154 24.6645 148.838 24.3088C148.522 23.9531 148.094 23.753 147.647 23.7524H85.4401Z" fill="#BBC5D4"/>
<path d="M120.419 58.2663V35.6484C120.419 35.0998 120.613 34.5739 120.958 34.186C121.302 33.7981 121.769 33.58 122.256 33.5793H140.465C140.952 33.58 141.419 33.7981 141.763 34.186C142.108 34.5739 142.301 35.0998 142.302 35.6484V58.2663C142.302 58.3568 142.297 58.4471 142.286 58.5366C142.227 59.0339 142.01 59.4903 141.675 59.8211C141.34 60.1519 140.91 60.3346 140.465 60.3354H122.256C121.769 60.3347 121.302 60.1166 120.958 59.7287C120.613 59.3408 120.419 58.8149 120.419 58.2663ZM122.256 34.7079C122.035 34.7082 121.823 34.8074 121.666 34.9837C121.509 35.16 121.421 35.399 121.421 35.6484V58.2663C121.421 58.5157 121.509 58.7547 121.666 58.931C121.823 59.1073 122.035 59.2065 122.256 59.2068H140.465C140.668 59.2062 140.865 59.1221 141.017 58.9703C141.17 58.8185 141.268 58.6094 141.293 58.382C141.298 58.3437 141.3 58.305 141.3 58.2663V35.6484C141.299 35.399 141.211 35.16 141.055 34.9837C140.898 34.8074 140.686 34.7082 140.465 34.7079H122.256Z" fill="#05264E"/>
<path d="M90.75 51.4763C90.7504 51.0773 90.8913 50.6949 91.1418 50.4128C91.3923 50.1307 91.7319 49.972 92.0862 49.9716H114.133C114.487 49.9716 114.827 50.1301 115.078 50.4123C115.328 50.6945 115.469 51.0772 115.469 51.4763C115.469 51.8754 115.328 52.2581 115.078 52.5403C114.827 52.8225 114.487 52.981 114.133 52.981H92.0862C91.7319 52.9806 91.3923 52.8219 91.1418 52.5398C90.8913 52.2577 90.7504 51.8752 90.75 51.4763Z" fill="#05264E"/>
<path d="M90.75 45.0811C90.7504 44.6822 90.8913 44.2997 91.1418 44.0176C91.3923 43.7356 91.7319 43.5769 92.0862 43.5764H104.112C104.466 43.5764 104.806 43.7349 105.056 44.0171C105.307 44.2993 105.448 44.6821 105.448 45.0811C105.448 45.4802 105.307 45.863 105.056 46.1452C104.806 46.4273 104.466 46.5859 104.112 46.5859H92.0862C91.7319 46.5854 91.3923 46.4267 91.1418 46.1446C90.8913 45.8626 90.7504 45.4801 90.75 45.0811Z" fill="#05264E"/>
<path d="M126.86 42.3689C128.031 44.9614 128.954 47.6354 131.537 47.6354C132.777 47.6354 133.967 47.0806 134.844 46.0929C135.721 45.1052 136.214 43.7656 136.214 42.3689C136.214 40.9721 135.721 39.6325 134.844 38.6449C133.967 37.6572 132.777 37.1023 131.537 37.1023C128.912 37.0653 124.681 37.5433 126.86 42.3689Z" fill="#2F2E41"/>
<path d="M131.307 47.738C133.572 47.738 135.409 45.6697 135.409 43.1183C135.409 40.5669 133.572 38.4985 131.307 38.4985C129.041 38.4985 127.205 40.5669 127.205 43.1183C127.205 45.6697 129.041 47.738 131.307 47.738Z" fill="#A0616A"/>
<path d="M136.908 51.5391C136.643 51.2146 136.355 50.9152 136.047 50.6437C134.701 49.4552 133.013 48.8661 131.306 48.9885C131.237 48.9923 131.169 48.9979 131.1 49.0055C130.111 49.0945 129.151 49.4196 128.282 49.9593C127.414 50.4989 126.657 51.2407 126.063 52.1353C125.46 53.0435 125.035 54.0864 124.819 55.1941C124.602 56.3019 124.598 57.449 124.807 58.5586C124.852 58.7937 124.892 59.0307 124.931 59.2677H138.529L138.686 58.0828C138.843 56.9116 138.765 55.7158 138.457 54.5833C138.149 53.4508 137.62 52.4105 136.908 51.5391Z" fill="#3F3D56"/>
<path d="M138.991 52.7749C138.895 52.1568 138.609 51.5962 138.184 51.1906C137.759 50.7851 137.221 50.5603 136.664 50.5554C136.642 50.5554 136.619 50.5573 136.597 50.5573C136.412 50.5621 136.227 50.5911 136.048 50.6438C135.746 50.7342 135.463 50.8907 135.215 51.1046C134.967 51.3184 134.759 51.5853 134.603 51.8899C134.447 52.1946 134.345 52.5309 134.305 52.8797C134.265 53.2284 134.286 53.5827 134.367 53.9223L135.652 59.2678H139.974L138.991 52.7749Z" fill="#3F3D56"/>
<path d="M129.479 51.3736C129.316 51.0132 129.082 50.6993 128.796 50.4557C128.593 50.2831 128.366 50.1496 128.124 50.0607C128.025 50.0227 127.924 49.9925 127.822 49.9704C127.263 49.8514 126.685 49.9611 126.192 50.2798C125.699 50.5985 125.323 51.1051 125.133 51.7084L122.781 59.2678H127.244L129.52 53.7078C129.672 53.3409 129.747 52.9398 129.74 52.5352C129.733 52.1306 129.643 51.7332 129.479 51.3736Z" fill="#3F3D56"/>
<path d="M126.954 40.5074C127.892 41.235 129.004 41.6222 130.143 41.6171C129.737 41.9342 129.274 42.1484 128.787 42.245C130.301 42.6106 131.866 42.6205 133.383 42.274C133.72 42.2131 134.046 42.0873 134.345 41.902C134.494 41.8082 134.624 41.68 134.726 41.526C134.829 41.3719 134.901 41.1953 134.939 41.0076C135.039 40.359 134.591 39.7697 134.124 39.3725C133.41 38.7737 132.587 38.3612 131.714 38.1647C130.841 37.9683 129.94 37.9928 129.076 38.2365C128.512 38.4007 127.947 38.678 127.581 39.188C127.215 39.698 127.106 40.4843 127.455 41.0094L126.954 40.5074Z" fill="#2F2E41"/>
<path d="M105.858 102.915H45.0899C44.2707 102.914 43.4853 102.547 42.906 101.895C42.3268 101.242 42.0009 100.358 42 99.4351V57.6499C42.0007 56.9474 42.2488 56.2738 42.6899 55.777C43.131 55.2802 43.7291 55.0008 44.353 55H106.56C107.193 55.0008 107.8 55.2844 108.248 55.7885C108.695 56.2927 108.947 56.9762 108.948 57.6892V99.4351C108.947 100.358 108.621 101.242 108.042 101.895C107.463 102.547 106.677 102.914 105.858 102.915ZM44.353 55.7524C43.9062 55.753 43.478 55.9531 43.1621 56.3088C42.8462 56.6645 42.6686 57.1468 42.6681 57.6499V99.4351C42.6688 100.158 42.9242 100.851 43.3782 101.363C43.8322 101.874 44.4478 102.162 45.0899 102.162H105.858C106.5 102.162 107.116 101.874 107.57 101.363C108.024 100.851 108.279 100.158 108.28 99.4351V57.6892C108.279 57.1757 108.098 56.6834 107.776 56.3203C107.453 55.9572 107.016 55.7529 106.56 55.7524H44.353Z" fill="#C3C1DB"/>
<path d="M89 88C87.6731 88.0024 86.4013 88.5303 85.4639 89.4677C84.5265 90.4051 84 91.6755 84 93C84 94.3245 84.5265 95.5948 85.4639 96.5323C86.4013 97.4697 87.673 97.9975 89 98C90.3269 97.9976 91.5987 97.4697 92.5361 96.5323C93.4735 95.5949 94 94.3245 94 93C94 91.6755 93.4735 90.4051 92.5361 89.4677C91.5987 88.5303 90.3269 88.0024 89 88Z" fill="#FF491D"/>
<path d="M88.7492 95.4155C88.6332 95.4157 88.5203 95.3734 88.4275 95.2951L88.4218 95.2902L87.2102 94.2465C87.0971 94.1486 87.0232 94.0041 87.0046 93.8448C86.986 93.6855 87.0243 93.5244 87.1111 93.3969C87.1979 93.2694 87.3261 93.1859 87.4675 93.1648C87.609 93.1436 87.7521 93.1866 87.8654 93.2841L88.6501 93.9618L90.5045 91.2373C90.5475 91.1742 90.6012 91.1212 90.6624 91.0813C90.7236 91.0415 90.7911 91.0156 90.8612 91.0052C90.9312 90.9948 91.0024 91 91.0707 91.0206C91.139 91.0412 91.203 91.0767 91.2591 91.1251L91.2592 91.1252L91.2477 91.1432L91.2596 91.1252C91.3727 91.2232 91.4468 91.3677 91.4654 91.527C91.4841 91.6863 91.4458 91.8475 91.3591 91.9751L89.1779 95.1783C89.1275 95.2521 89.0626 95.3118 88.9883 95.3528C88.9141 95.3939 88.8324 95.415 88.7497 95.4148L88.7492 95.4155Z" fill="white"/>
<path d="M69.744 92.3354H51.5355C51.09 92.3346 50.6599 92.1519 50.3249 91.8211C49.99 91.4903 49.773 91.0339 49.7141 90.5366C49.7031 90.4471 49.6978 90.3568 49.6983 90.2664V67.6484C49.6988 67.0998 49.8926 66.5739 50.237 66.186C50.5814 65.7981 51.0484 65.58 51.5355 65.5793H69.744C70.2311 65.58 70.698 65.7981 71.0425 66.186C71.3869 66.5739 71.5806 67.0998 71.5812 67.6484V90.2664C71.5806 90.8149 71.3869 91.3408 71.0425 91.7287C70.698 92.1166 70.2311 92.3347 69.744 92.3354ZM51.5355 66.7079C51.3141 66.7082 51.1018 66.8074 50.9453 66.9837C50.7887 67.16 50.7006 67.399 50.7004 67.6484V90.2664C50.7 90.305 50.7022 90.3437 50.7068 90.382C50.7323 90.6094 50.8305 90.8185 50.9831 90.9703C51.1356 91.1221 51.3319 91.2062 51.5355 91.2068H69.744C69.9654 91.2065 70.1776 91.1073 70.3342 90.931C70.4907 90.7547 70.5788 90.5157 70.5791 90.2664V67.6484C70.5788 67.399 70.4907 67.16 70.3342 66.9837C70.1776 66.8074 69.9654 66.7082 69.744 66.7079H51.5355Z" fill="#102A54"/>
<path d="M60.3756 69.7145C59.1902 69.0935 57.7349 68.8899 56.5288 69.4669C55.3227 70.044 54.5004 71.5231 54.8904 72.832C55.0673 73.4255 55.47 74.0092 55.3131 74.6086C55.1923 75.0699 54.771 75.3745 54.3573 75.5911C53.9436 75.8077 53.491 75.9898 53.1918 76.3551C52.8926 76.7203 52.8302 77.3492 53.2039 77.6324C53.3271 77.7258 53.481 77.77 53.6004 77.8684C53.7022 77.9615 53.7756 78.0881 53.8105 78.2304C53.8453 78.3728 53.8399 78.5238 53.7949 78.6625C53.6954 78.9416 53.5309 79.1853 53.3187 79.368C52.8944 79.7801 52.3336 80.2518 52.4654 80.8368C52.5143 80.9931 52.5959 81.1339 52.7034 81.2471C52.8109 81.3603 52.9411 81.4427 53.0829 81.4872C53.3773 81.5828 53.6828 81.6282 53.9892 81.6219L66.5101 82.0661C66.9234 82.101 67.339 82.0749 67.7463 81.9883C67.9443 81.9476 68.1327 81.8614 68.2997 81.735C68.4668 81.6087 68.6089 81.4448 68.7172 81.2538C68.9569 80.754 68.7995 80.1383 68.5034 79.6716C68.2073 79.2049 67.7882 78.8367 67.442 78.4082C67.0957 77.9796 66.8124 77.4447 66.8734 76.8908C66.9223 76.4474 67.182 76.0642 67.3684 75.6613C67.5547 75.2584 67.663 74.755 67.4216 74.3843C67.0814 73.8621 66.2647 73.9093 65.8779 73.4227C65.586 73.0554 65.6423 72.5267 65.6133 72.0531C65.5435 70.9139 64.8432 69.8381 63.8462 69.3385C63.3392 69.0934 62.7878 68.9876 62.2374 69.0298C61.687 69.072 61.1534 69.261 60.6806 69.5813L60.3756 69.7145Z" fill="#2F2E41"/>
<path d="M60.8385 81.9567C63.1041 81.9567 64.9407 79.8884 64.9407 77.337C64.9407 74.7856 63.1041 72.7173 60.8385 72.7173C58.5729 72.7173 56.7363 74.7856 56.7363 77.337C56.7363 79.8884 58.5729 81.9567 60.8385 81.9567Z" fill="#A0616A"/>
<path d="M66.2243 87.9227C66.2202 87.113 66.0211 86.3197 65.6481 85.6274C65.2751 84.9351 64.7423 84.3697 64.1065 83.9916C64.0548 83.9596 64.0013 83.9314 63.9479 83.9032C63.4862 83.6568 62.9865 83.5137 62.4764 83.4819L58.5715 83.2355C58.02 83.2 57.468 83.2955 56.9514 83.5157C56.8256 83.5685 56.7024 83.6288 56.5823 83.6963C56.2049 83.9057 55.8598 84.1819 55.5601 84.5145C55.1655 84.9533 54.8567 85.4801 54.6536 86.0612C54.4506 86.6424 54.3577 87.2649 54.3809 87.8889L54.4512 89.7529L54.9422 91.188H65.8602C65.9956 91.0032 66.1132 90.8027 66.211 90.5899C66.3961 90.1767 66.4936 89.7208 66.4959 89.2581C66.4982 88.7953 66.4053 88.3382 66.2243 87.9227Z" fill="#053774"/>
<path d="M65.9573 85.4513C65.7791 85.016 65.4998 84.643 65.1489 84.3717C64.8957 84.1763 64.6117 84.0372 64.3121 83.9616C64.1922 83.932 64.0705 83.9125 63.9481 83.9033C63.7069 83.8848 63.4646 83.9083 63.2298 83.9729C62.8792 84.0711 62.5531 84.2578 62.2759 84.5188C61.9988 84.7798 61.778 85.1084 61.6301 85.4796C61.4823 85.8508 61.4113 86.255 61.4225 86.6616C61.4338 87.0683 61.5269 87.4668 61.6949 87.8269L63.1965 91.0282L63.2716 91.1881H68.314L65.9573 85.4513Z" fill="#074794"/>
<path d="M57.7046 83.783C57.4684 83.6476 57.2138 83.5574 56.9514 83.5159C56.756 83.4845 56.5579 83.4814 56.3618 83.5065C55.8628 83.5701 55.3945 83.8097 55.0237 84.1911C54.6529 84.5725 54.3987 85.0761 54.2974 85.63L53.2803 91.1881H57.2587L58.0019 90.8458L58.9272 86.847C59.0618 86.2558 59.0141 85.6307 58.792 85.074C58.5699 84.5174 58.1865 84.0622 57.7046 83.783Z" fill="#074794"/>
<path d="M56.6422 76.6803C57.9377 76.5631 59.0132 75.1057 58.8785 73.6499C58.8634 74.25 59.0445 74.8353 59.3876 75.2947C59.7307 75.7541 60.2118 76.0554 60.7393 76.1413C61.3336 76.2151 61.985 76.0126 62.5023 76.3502C63.0751 76.7241 63.2585 77.6322 63.8553 77.9552C64.4319 78.2672 65.1643 77.8416 65.4492 77.1965C65.7341 76.5514 65.6642 75.7764 65.4754 75.088C65.2061 74.1063 64.7159 73.2198 64.0522 72.5147C63.3886 71.8096 62.5743 71.3099 61.6884 71.0642C60.8025 70.8185 59.8752 70.8352 58.9967 71.1127C58.1182 71.3901 57.3185 71.9189 56.6752 72.6475C56.1305 73.2646 55.698 74.051 55.6278 74.9175C55.5577 75.7839 55.9146 76.7241 56.6056 77.1134L56.6422 76.6803Z" fill="#2F2E41"/>
<path d="M99.9135 84.981H77.8669C77.5125 84.981 77.1727 84.8225 76.9221 84.5403C76.6715 84.2581 76.5308 83.8754 76.5308 83.4763C76.5308 83.0772 76.6715 82.6945 76.9221 82.4123C77.1727 82.1301 77.5125 81.9716 77.8669 81.9716H99.9135C100.268 81.9716 100.608 82.1301 100.858 82.4123C101.109 82.6945 101.25 83.0772 101.25 83.4763C101.25 83.8754 101.109 84.2581 100.858 84.5403C100.608 84.8225 100.268 84.981 99.9135 84.981Z" fill="#102A54"/>
<path d="M89.8923 78.5859H77.8669C77.5125 78.5859 77.1727 78.4273 76.9221 78.1451C76.6715 77.863 76.5308 77.4802 76.5308 77.0811C76.5308 76.6821 76.6715 76.2993 76.9221 76.0171C77.1727 75.7349 77.5125 75.5764 77.8669 75.5764H89.8923C90.2467 75.5764 90.5866 75.7349 90.8371 76.0171C91.0877 76.2993 91.2285 76.6821 91.2285 77.0811C91.2285 77.4802 91.0877 77.863 90.8371 78.1451C90.5866 78.4273 90.2467 78.5859 89.8923 78.5859Z" fill="#FF491D"/>
</svg>
