<?xml version="1.0" encoding="utf-8"?>
<!-- Generator: Adobe Illustrator 24.1.1, SVG Export Plug-In . SVG Version: 6.00 Build 0)  -->
<svg version="1.1" id="Layer_1" xmlns="http://www.w3.org/2000/svg" xmlns:xlink="http://www.w3.org/1999/xlink" x="0px" y="0px"
	 viewBox="0 0 589 443" style="enable-background:new 0 0 589 443;" xml:space="preserve">
<style type="text/css">
	.st0{fill:#E8F4FF;}
	.st1{opacity:0.46;}
	.st2{fill:#BFD9FF;}
	.st3{fill:none;stroke:#A9C2FF;stroke-width:3.4455;stroke-linecap:round;stroke-linejoin:round;stroke-miterlimit:10;}
	.st4{fill:none;stroke:#84AEE5;stroke-width:1.1485;stroke-miterlimit:10;}
	.st5{fill:#8DBCF8;}
	.st6{fill:none;stroke:#7094D8;stroke-width:1.1485;stroke-miterlimit:10;}
	.st7{fill:#A5C5FF;}
	.st8{fill:#B7DEFF;}
	.st9{fill:#023F61;}
	.st10{fill:#BEBECF;}
	.st11{fill:#DEE0E8;}
	.st12{fill:#FB8E74;}
	.st13{fill:#FB8877;}
	.st14{fill:#713336;}
	.st15{fill:#FBA990;}
	.st16{fill:none;stroke:#022755;stroke-width:0.4884;stroke-miterlimit:10;}
	.st17{fill:none;stroke:#FFFFFF;stroke-width:1.1485;stroke-miterlimit:10;}
	.st18{fill:none;stroke:#73A5FF;stroke-width:3.4455;stroke-linecap:round;stroke-linejoin:round;stroke-miterlimit:10;}
	.st19{fill:#EDF4FF;}
	.st20{fill:#EBEDFC;}
	.st21{fill:#FFFFFF;}
	.st22{fill:#73A5FF;}
	.st23{fill:#024470;}
	.st24{fill:#45242C;}
	.st25{fill:#FF8D68;}
	.st26{fill:#FF7759;}
	.st27{fill:#E86D5E;}
	.st28{fill:none;stroke:#BB524F;stroke-width:1.1485;stroke-miterlimit:10;}
	.st29{fill:none;stroke:#E66657;stroke-width:1.026;stroke-miterlimit:10;}
	.st30{fill:#FA6157;}
	.st31{fill:none;stroke:#562525;stroke-width:1.1485;stroke-miterlimit:10;}
	.st32{fill:#2D2737;}
	.st33{fill:#3D4776;}
	.st34{fill:#51598D;}
	.st35{fill:#7E78C7;}
	.st36{fill:#C53A45;}
	.st37{fill:#3E3343;}
	.st38{fill:none;stroke:#2A2E59;stroke-width:1.026;stroke-miterlimit:10;}
	.st39{fill:none;stroke:#524B81;stroke-width:1.026;stroke-miterlimit:10;}
	.st40{fill:none;stroke:#A03A45;stroke-width:1.368;stroke-miterlimit:10;}
</style>
<g>
	<path class="st0" d="M84.1,93c0,0,50.2-43.9,111.9-23s109.8,116.1,169.4,119.2c59.6,3.1,115-29.3,162.1-1
		c47.1,28.2,55.4,150.6-34.5,163.1S352.8,318.9,314.1,321c-38.7,2.1-132.8,49.1-207,28.2S-34.1,184,84.1,93z"/>
	<g>
		<g>
			<g class="st1">
				<path class="st2" d="M419.4,100.2H204.9c-2.3,0-3.9-2.1-3.3-4.3l20-77c0.4-1.5,1.8-2.6,3.3-2.6h214.5c2.3,0,3.9,2.1,3.3,4.3
					l-20,77C422.4,99.2,421,100.2,419.4,100.2z"/>
				<g>
					<line class="st3" x1="234.3" y1="32.8" x2="309" y2="32.8"/>
					<line class="st3" x1="228.6" y1="67.3" x2="303.2" y2="67.3"/>
					<line class="st3" x1="260" y1="54.3" x2="334.6" y2="54.3"/>
					<line class="st3" x1="232.4" y1="44.3" x2="254.8" y2="44.3"/>
					<line class="st3" x1="229.3" y1="54.3" x2="251.7" y2="54.3"/>
					<line class="st3" x1="320.8" y1="32.8" x2="347.4" y2="32.8"/>
					<path class="st4" d="M333.9,83.5h-39.7c-0.2,0-0.3-0.2-0.3-0.4l1.8-6.8c0-0.1,0.2-0.2,0.3-0.2h39.7c0.2,0,0.3,0.2,0.3,0.4
						l-1.8,6.8C334.1,83.4,334,83.5,333.9,83.5z"/>
					<path class="st4" d="M284.5,83.5h-39.7c-0.2,0-0.3-0.2-0.3-0.4l1.8-6.8c0-0.1,0.2-0.2,0.3-0.2h39.7c0.2,0,0.3,0.2,0.3,0.4
						l-1.8,6.8C284.8,83.4,284.6,83.5,284.5,83.5z"/>
				</g>
				<path class="st5" d="M403.7,73.5c-2-2.7-10.3-4.7-12.6-7.4c-1.2-1.4-1.2-4-0.9-6.1c0.8-0.5,1.5-1,1.9-1.5c0.7-1,1.5-2.4,2.2-3.9
					c0.2,0.2,0.5,0.4,1,0.4c1.1,0,5.2-5.7,4.1-7c-0.6-0.7-1.6-0.1-2.3,0.6c1.1-2.5,1.9-4.4,1.9-4.4h0c0.1-0.3,0.2-0.6,0.3-1
					c1.6-6.6-2.4-11.9-8.9-11.9c-6.6,0-13.2,5.3-14.9,11.9c-0.1,0.3-0.1,0.6-0.2,1h0c0,0-0.2,1.9-0.3,4.4c-0.4-0.7-1-1.3-2-0.6
					c-1.7,1.3-0.4,6.9,0.7,7c0.4,0,0.8-0.2,1.1-0.4c0,1.5,0.1,2.9,0.3,3.9c0.2,0.6,0.8,1.2,1.5,1.9c-0.8,2.1-2.1,4.5-3.8,5.8
					c-3.6,2.7-12.9,4.7-16.3,7.4c-3,2.4-5.8,9.6-6.3,11h54.4C404.7,83.1,405.5,76,403.7,73.5z"/>
			</g>
			<g>
				<g>
					<path class="st6" d="M382.1,161.5H167.6c-2.3,0-3.9-2.1-3.3-4.3l20-77c0.4-1.5,1.8-2.6,3.3-2.6h214.5c2.3,0,3.9,2.1,3.3,4.3
						l-20,77C385,160.4,383.7,161.5,382.1,161.5z"/>
					<path class="st7" d="M378.1,155.7H163.5c-2.3,0-3.9-2.1-3.3-4.3l20-77c0.4-1.5,1.8-2.6,3.3-2.6h214.5c2.3,0,3.9,2.1,3.3,4.3
						l-20,77C381,154.7,379.7,155.7,378.1,155.7z"/>
					<line class="st6" x1="230.9" y1="155.7" x2="338.3" y2="155.7"/>
					<line class="st6" x1="201" y1="71.9" x2="291.7" y2="71.9"/>
				</g>
				<g>
					<path class="st8" d="M360.8,144.2h-48.2c-2.2,0-3.6-1.8-3-4l12.2-48.8c0.6-2.2,2.8-4,5-4h48.2c2.2,0,3.6,1.8,3,4l-12.2,48.8
						C365.2,142.4,363,144.2,360.8,144.2z"/>
					<g>
						<path class="st9" d="M337.1,144.4l4.2-16.9l-6.9-2.9c0,0-12.9,4.7-14,5.9c-0.9,1-5.6,10.8-7,14H337.1z"/>
						<path class="st9" d="M361,144.4c0.1-3.2,0.4-13,0-14c-0.5-1.1-11.1-5.9-11.1-5.9l-8.4,2.9l-4.2,16.9H361z"/>
						<polygon class="st10" points="341.5,144.4 348.1,129.8 333.9,130.6 332.5,144.4 						"/>
						<polygon class="st11" points="337,121.5 333.9,123.4 331.8,128.3 331.3,135 335.7,133.2 339,137.3 343.6,133.5 346.3,136.1 
							350.5,127.2 349.8,121.6 348,120.8 						"/>
						<g>
							<path class="st12" d="M337.9,108.7c0,0-1-2.4-3.2-0.8c-2.1,1.6,0.4,7.6,1.9,5.8C338.2,111.9,337.9,108.7,337.9,108.7z"/>
							<path class="st12" d="M353.1,108.5c0,0,2-2.5,3.6-1.1c1.5,1.4-3.5,7.8-4.3,6.1S353.1,108.5,353.1,108.5z"/>
							<g>
								<path class="st13" d="M348.3,126.2l2.2-11.6l-12.6,1.1l-2.8,10.9c0,0,2.2,5.1,4.6,7.4C339.7,134,347,127.7,348.3,126.2z"/>
							</g>
							<path class="st14" d="M358.6,103.9c-0.5,1.4-1.6,1.8-1.7,2.6c-0.1,0.8-0.6,2.9-1.4,3.7c-0.8,0.8-1.2,1.1-1.2,1.1
								s-10.8,3-16.3-1.2c0,0-0.4-1.6,0-3.5c0.4-1.9-0.5-2.2,0.5-3.2c1.1-0.9,1.4-1.8,1.4-2.8c0-1.1,0.1-2.3,1.2-3.4
								c1.1-1.1,2.1-0.7,3.1-1.6c0,0,1.6-2.6,3.7-3c2.1-0.3,6.5-1.4,9.1,1.8c2.6,3.2,1.4,6,2.2,7
								C359.9,102.4,358.6,103.9,358.6,103.9z"/>
							<path class="st15" d="M337.8,106.7c0,0-5.1,14.1,4.5,15.1c8.5,0.2,11.5-10.2,12.7-15.5c1.2-5.3,0.5-10.9-6.3-10.7
								C341.9,95.8,338.6,103.5,337.8,106.7z"/>
							<path class="st14" d="M340.5,101.6c0,0,0.6,1.1,0,2.3c-0.6,1.1-2.2,1.6-2.4,3.1c-0.2,1.5-0.9,4.6-1.4,4.8
								c-0.4,0.1-0.1-3-0.1-4.1c0.1-1.1,0.9-5.6,3.2-8.5c2.3-2.9,3.7-4.1,7.7-4.7c4-0.7,7.1,1,8.2,3.5c1.1,2.5-0.7,8.7-0.7,8.7
								s0.3-3-0.7-3.7c-1-0.7-1.8-1.2-1.7-1.6c0.2-0.4-3.2,1.1-6.6,0c-3.4-1.1-4.4-0.6-5-0.2C340.6,101.4,340.5,101.6,340.5,101.6z"
								/>
						</g>
						<path class="st16" d="M331,128.5c-0.1,0.3-4.7,11.3-4.7,11.3l4.1,2l-1.1,2.3"/>
						<path class="st16" d="M350.9,128.5c-0.1,0.3-0.9,11.3-0.9,11.3l-5.1,2l0,2.3"/>
					</g>
				</g>
				<path class="st17" d="M360.8,144.2h-48.2c-2.2,0-3.6-1.8-3-4l12.2-48.8c0.6-2.2,2.8-4,5-4h48.2c2.2,0,3.6,1.8,3,4l-12.2,48.8
					C365.2,142.4,363,144.2,360.8,144.2z"/>
				<line class="st18" x1="193" y1="90.3" x2="267.6" y2="90.3"/>
				<line class="st18" x1="187.2" y1="124.7" x2="261.9" y2="124.7"/>
				<line class="st18" x1="218.6" y1="111.7" x2="293.3" y2="111.7"/>
				<line class="st18" x1="191.1" y1="101.7" x2="213.5" y2="101.7"/>
				<line class="st18" x1="188" y1="111.7" x2="210.4" y2="111.7"/>
				<line class="st18" x1="279.5" y1="90.3" x2="306.1" y2="90.3"/>
				<path class="st6" d="M292.5,140.9h-39.7c-0.2,0-0.3-0.2-0.3-0.4l1.8-6.8c0-0.1,0.2-0.2,0.3-0.2h39.7c0.2,0,0.3,0.2,0.3,0.4
					l-1.8,6.8C292.8,140.8,292.7,140.9,292.5,140.9z"/>
				<path class="st6" d="M243.1,140.9h-39.7c-0.2,0-0.3-0.2-0.3-0.4l1.8-6.8c0-0.1,0.2-0.2,0.3-0.2h39.7c0.2,0,0.3,0.2,0.3,0.4
					l-1.8,6.8C243.4,140.8,243.3,140.9,243.1,140.9z"/>
			</g>
			<line class="st6" x1="288.9" y1="63.3" x2="335.4" y2="63.3"/>
			<g>
				<path class="st2" d="M380.4,265.6H165.8c-2.3,0-3.9-2.1-3.3-4.3l20-77c0.4-1.5,1.8-2.6,3.3-2.6h214.5c2.3,0,3.9,2.1,3.3,4.3
					l-20,77C383.3,264.5,382,265.6,380.4,265.6z"/>
				<g>
					<line class="st3" x1="195.3" y1="198.2" x2="269.9" y2="198.2"/>
					<line class="st3" x1="189.5" y1="232.7" x2="264.2" y2="232.7"/>
					<line class="st3" x1="220.9" y1="219.7" x2="295.6" y2="219.7"/>
					<line class="st3" x1="193.4" y1="209.7" x2="215.8" y2="209.7"/>
					<line class="st3" x1="190.3" y1="219.7" x2="212.7" y2="219.7"/>
					<line class="st3" x1="281.8" y1="198.2" x2="308.4" y2="198.2"/>
					<path class="st4" d="M294.8,248.8h-39.7c-0.2,0-0.3-0.2-0.3-0.4l1.8-6.8c0-0.1,0.2-0.2,0.3-0.2h39.7c0.2,0,0.3,0.2,0.3,0.4
						l-1.8,6.8C295.1,248.7,295,248.8,294.8,248.8z"/>
					<path class="st4" d="M245.4,248.8h-39.7c-0.2,0-0.3-0.2-0.3-0.4l1.8-6.8c0-0.1,0.2-0.2,0.3-0.2h39.7c0.2,0,0.3,0.2,0.3,0.4
						l-1.8,6.8C245.7,248.7,245.6,248.8,245.4,248.8z"/>
				</g>
				<path class="st5" d="M364.7,238.9c-2-2.7-10.3-4.7-12.6-7.4c-1.2-1.4-1.2-4-0.9-6.1c0.8-0.5,1.5-1,1.9-1.5
					c0.7-1,1.5-2.4,2.2-3.9c0.2,0.2,0.5,0.4,1,0.4c1.1,0,5.2-5.7,4.1-7c-0.6-0.7-1.6-0.1-2.3,0.6c1.1-2.5,1.9-4.4,1.9-4.4h0
					c0.1-0.3,0.2-0.6,0.3-1c1.6-6.6-2.4-11.9-8.9-11.9c-6.6,0-13.2,5.3-14.9,11.9c-0.1,0.3-0.1,0.6-0.2,1h0c0,0-0.2,1.9-0.3,4.4
					c-0.4-0.7-1-1.3-2-0.6c-1.7,1.3-0.4,6.9,0.7,7c0.4,0,0.8-0.2,1.1-0.4c0,1.5,0.1,2.9,0.3,3.9c0.2,0.6,0.8,1.2,1.5,1.9
					c-0.8,2.1-2.1,4.5-3.8,5.8c-3.6,2.7-12.9,4.7-16.3,7.4c-3,2.4-5.8,9.6-6.3,11h54.4C365.7,248.5,366.5,241.4,364.7,238.9z"/>
			</g>
			<g class="st1">
				<path class="st2" d="M358.2,368.2H143.6c-2.3,0-3.9-2.1-3.3-4.3l20-77c0.4-1.5,1.8-2.6,3.3-2.6h214.5c2.3,0,3.9,2.1,3.3,4.3
					l-20,77C361.1,367.1,359.8,368.2,358.2,368.2z"/>
				<g>
					<line class="st3" x1="173.1" y1="300.8" x2="247.7" y2="300.8"/>
					<line class="st3" x1="167.3" y1="335.3" x2="242" y2="335.3"/>
					<line class="st3" x1="198.7" y1="322.3" x2="273.4" y2="322.3"/>
					<line class="st3" x1="171.2" y1="312.3" x2="193.5" y2="312.3"/>
					<line class="st3" x1="168.1" y1="322.3" x2="190.5" y2="322.3"/>
					<line class="st3" x1="259.6" y1="300.8" x2="286.2" y2="300.8"/>
					<path class="st4" d="M272.6,351.4h-39.7c-0.2,0-0.3-0.2-0.3-0.4l1.8-6.8c0-0.1,0.2-0.2,0.3-0.2h39.7c0.2,0,0.3,0.2,0.3,0.4
						l-1.8,6.8C272.9,351.3,272.8,351.4,272.6,351.4z"/>
					<path class="st4" d="M223.2,351.4h-39.7c-0.2,0-0.3-0.2-0.3-0.4l1.8-6.8c0-0.1,0.2-0.2,0.3-0.2H225c0.2,0,0.3,0.2,0.3,0.4
						l-1.8,6.8C223.5,351.3,223.4,351.4,223.2,351.4z"/>
				</g>
				<path class="st5" d="M342.5,341.5c-2-2.7-10.3-4.7-12.6-7.4c-1.2-1.4-1.2-4-0.9-6.1c0.8-0.5,1.5-1,1.9-1.5
					c0.7-1,1.5-2.4,2.2-3.9c0.2,0.2,0.5,0.4,1,0.4c1.1,0,5.2-5.7,4.1-7c-0.6-0.7-1.6-0.1-2.3,0.6c1.1-2.5,1.9-4.4,1.9-4.4h0
					c0.1-0.3,0.2-0.6,0.3-1c1.6-6.6-2.4-11.9-8.9-11.9c-6.6,0-13.2,5.3-14.9,11.9c-0.1,0.3-0.1,0.6-0.2,1h0c0,0-0.2,1.9-0.3,4.4
					c-0.4-0.7-1-1.3-2-0.6c-1.7,1.3-0.4,6.9,0.7,7c0.4,0,0.8-0.2,1.1-0.4c0,1.5,0.1,2.9,0.3,3.9c0.2,0.6,0.8,1.2,1.5,1.9
					c-0.8,2.1-2.1,4.5-3.8,5.8c-3.6,2.7-12.9,4.7-16.3,7.4c-3,2.4-5.8,9.6-6.3,11h54.4C343.5,351.1,344.3,344,342.5,341.5z"/>
			</g>
			<line class="st6" x1="315.3" y1="368.6" x2="353.6" y2="368.6"/>
			<line class="st6" x1="185.1" y1="266" x2="276.2" y2="266"/>
			<line class="st6" x1="297.1" y1="266" x2="319.3" y2="266"/>
			<path class="st6" d="M393,182.1h7.7c2.3,0,3.9,2.2,3.2,4.4l-3.3,10.6"/>
			<g>
				<g>
					<path class="st2" d="M149.2,46.8h-3.9c-1,0-1.6-0.8-1.3-1.8l1-3.9c0.2-1,1.2-1.8,2.2-1.8h3.9c1,0,1.6,0.8,1.3,1.8l-1,3.9
						C151.2,46,150.2,46.8,149.2,46.8z"/>
				</g>
				<g>
					<path class="st19" d="M146.4,58.4h-3.9c-1,0-1.6-0.8-1.3-1.8l1-3.9c0.2-1,1.2-1.8,2.2-1.8h3.9c1,0,1.6,0.8,1.3,1.8l-1,3.9
						C148.4,57.6,147.4,58.4,146.4,58.4z"/>
					<path class="st2" d="M158.9,58.4h-3.9c-1,0-1.6-0.8-1.3-1.8l1-3.9c0.2-1,1.2-1.8,2.2-1.8h3.9c1,0,1.6,0.8,1.3,1.8l-1,3.9
						C160.9,57.6,159.9,58.4,158.9,58.4z"/>
					<path class="st19" d="M171.4,58.4h-3.9c-1,0-1.6-0.8-1.3-1.8l1-3.9c0.2-1,1.2-1.8,2.2-1.8h3.9c1,0,1.6,0.8,1.3,1.8l-1,3.9
						C173.3,57.6,172.3,58.4,171.4,58.4z"/>
				</g>
				<g>
					<path class="st19" d="M143.4,70.1h-3.9c-1,0-1.6-0.8-1.3-1.8l1-3.9c0.2-1,1.2-1.8,2.2-1.8h3.9c1,0,1.6,0.8,1.3,1.8l-1,3.9
						C145.4,69.3,144.4,70.1,143.4,70.1z"/>
					<path class="st19" d="M140.3,82.7h-3.9c-1,0-1.6-0.8-1.3-1.8l1-3.9c0.2-1,1.2-1.8,2.2-1.8h3.9c1,0,1.6,0.8,1.3,1.8l-1,3.9
						C142.3,81.9,141.3,82.7,140.3,82.7z"/>
					<path class="st19" d="M155.9,70.1H152c-1,0-1.6-0.8-1.3-1.8l1-3.9c0.2-1,1.2-1.8,2.2-1.8h3.9c1,0,1.6,0.8,1.3,1.8l-1,3.9
						C157.9,69.3,156.9,70.1,155.9,70.1z"/>
					<path class="st2" d="M150.5,92.1h-3.9c-1,0-1.6-0.8-1.3-1.8l1-3.9c0.2-1,1.2-1.8,2.2-1.8h3.9c1,0,1.6,0.8,1.3,1.8l-1,3.9
						C152.4,91.3,151.4,92.1,150.5,92.1z"/>
				</g>
			</g>
			<g>
				<g>
					<g>
						<g>
							<g>
								<path class="st20" d="M212.2,24L212.2,24C212.2,24,212.2,24,212.2,24c-0.1,0-0.2,0-0.2,0l0,0c-0.4,0-0.8,0-1.2,0
									c-11.6,0-23.4,9.3-26.5,20.9l-0.1,0.6h0c0,0.1,0,0.1,0,0.2l-0.1,0.4h0c-2.6,11.7,5,21.1,17.1,20.6
									c11-0.4,22.1-9.2,25.4-20.1C230,34.6,223.5,24.8,212.2,24z M220.2,46c-2.3,7.7-10.3,14-18.1,14.2
									c-8.4,0.3-13.6-6.2-11.9-14.4l0.2-1h0c2.2-8.1,10.5-14.6,18.7-14.6c0.4,0,0.8,0,1.2,0.1C218.2,30.9,222.7,37.8,220.2,46z"/>
								<path class="st7" d="M211.1,27.6L211.1,27.6c-0.4,1.4,0.3,2.7,1.6,3.1c6.4,1.7,9.8,8,7.5,15.4c-2.3,7.7-10.3,14-18.1,14.2
									c-7.7,0.2-12.7-5.2-12.2-12.3c0.1-1.5-0.9-2.5-2.5-2.5l0,0c-1.9,0-3.9,1.8-4,3.7c-0.7,10.2,6.5,17.9,17.5,17.5
									c11-0.4,22.1-9.2,25.4-20.1c3.2-10.5-1.6-19.5-10.7-21.9C213.9,24.1,211.6,25.6,211.1,27.6z"/>
							</g>
						</g>
					</g>
				</g>
				<g>
					<g>
						<g>
							<path class="st21" d="M265.2,21.8L265.2,21.8C265.2,21.8,265.2,21.8,265.2,21.8c-0.1,0-0.2,0-0.3,0c-0.4,0-0.8,0-1.2,0
								c-11.8,0-23.7,9.5-26.6,21.3c-2.9,11.8,4.2,21.3,16,21.3c0.4,0,0.8,0,1.2,0c0.1,0,0.2,0,0.2,0c0,0,0,0,0.1,0l0,0
								c11.2-0.8,22.2-9.9,25.1-21.1c0-0.1,0-0.1,0.1-0.2C282.6,31.8,276.1,22.6,265.2,21.8z M255.8,58.1
								C255.8,58.1,255.7,58.1,255.8,58.1c-0.3,0-0.6,0-0.8,0l0,0c-0.1,0-0.2,0-0.3,0c-8.3,0-13.3-6.7-11.3-15
								c2.1-8.3,10.5-15,18.8-15c0.1,0,0.2,0,0.3,0c0.2,0,0.5,0,0.7,0c0,0,0,0,0.1,0c7.7,0.5,12.2,7,10.2,15c0,0.1,0,0.1-0.1,0.2
								C271.4,51.1,263.7,57.5,255.8,58.1z"/>
							<path class="st2" d="M272.5,45.9c-2.6,6-8.6,10.8-14.9,11.9c-1.6,0.3-3,1.6-3.4,3.1l0,0c-0.5,2,0.9,3.5,3,3.1
								c9-1.6,17.4-8.4,21.2-17c0.8-1.9-0.2-3.7-2.2-3.7h0C274.7,43.3,273.2,44.4,272.5,45.9z"/>
						</g>
					</g>
				</g>
			</g>
			<path class="st19" d="M208.7,96.9H169c-0.2,0-0.3-0.2-0.3-0.4l1.8-6.8c0-0.1,0.2-0.2,0.3-0.2h39.7c0.2,0,0.3,0.2,0.3,0.4
				l-1.8,6.8C209,96.8,208.8,96.9,208.7,96.9z"/>
			<g>
				
					<ellipse transform="matrix(0.7496 -0.6619 0.6619 0.7496 18.4744 282.5667)" class="st22" cx="382.7" cy="116.9" rx="20" ry="15.6"/>
				<path class="st22" d="M408.7,135.8c-0.7,2.7-3.4,4.8-6,4.8c-2.7,0-4.3-2.2-3.6-4.8c0.7-2.7,3.4-4.8,6-4.8
					C407.8,131,409.4,133.2,408.7,135.8z"/>
				<path class="st21" d="M378.1,125.8c-0.6,0-1.1-0.2-1.4-0.6l-4.6-6.1c-0.6-0.8-0.3-2.2,0.8-3.1c1.1-0.8,2.4-0.8,3.1,0l3.4,4.5
					l12.2-9.7c1.1-0.8,2.4-0.8,3.1,0c0.6,0.8,0.3,2.2-0.8,3.1l-14.1,11.3C379.3,125.6,378.7,125.8,378.1,125.8z"/>
			</g>
		</g>
		<g>
			<ellipse class="st2" cx="494.6" cy="418.2" rx="75.2" ry="6.3"/>
			<g>
				<g>
					<path class="st23" d="M497.5,81.8c0,0-1.9,3.8-3.1,12.3s1.9,57,1.9,57l32.9-3.4l-14.9-63.6L497.5,81.8z"/>
					<g>
						<path class="st24" d="M478,287.2l-11.5,56.9l22.4,0.6c0,0,5.7-50.5,3.4-50.5S478,287.2,478,287.2z"/>
						<g>
							<path class="st14" d="M530.1,409.9c0,0-8.4,8.8-11.9,10.7c0.8,1.5,13,1.5,17.6-0.8c4.6-2.3,8-7.7,8-7.7l-0.4,5.7h2.3
								c0,0,2.3-8,2.3-10c0-1.9-2.3-4.6-2.3-4.6L530.1,409.9z"/>
							<path class="st25" d="M526.6,296.6L535,400l10-0.8c0,0,11.5-75.8,6.9-101.8C547.3,271.3,526.6,296.6,526.6,296.6z"/>
							<path class="st25" d="M535,400c0,0-3.1,8-7.3,11.9c-4.2,3.8,6.5,3.8,11.1,0c4.6-3.8,5-6.1,6.5-6.9c1.5-0.8-0.4-5.7-0.4-5.7
								L535,400z"/>
						</g>
						<g>
							<path class="st14" d="M460.9,408.2c0,0-9.8,7.3-13.5,8.6c0.5,1.6,12.6,3.7,17.5,2.2c4.9-1.5,9.2-6.2,9.2-6.2l-1.3,5.6
								l2.3,0.4c0,0,3.6-7.5,3.9-9.4c0.3-1.9-1.5-4.9-1.5-4.9L460.9,408.2z"/>
							<path class="st25" d="M476.6,295.9l-9.1,103.3l9.9,0.9c0,0,24.1-72.8,24-99.2C501.3,274.5,476.6,295.9,476.6,295.9z"/>
							<path class="st25" d="M467.5,399.2c0,0-4.4,7.4-9.2,10.5c-4.8,3.1,5.8,4.9,10.9,1.9c5.2-3,5.9-5.2,7.6-5.7
								c1.6-0.5,0.6-5.7,0.6-5.7L467.5,399.2z"/>
						</g>
						<g>
							<path class="st26" d="M441.4,131.7l-19.8-3.9c0,0-0.3,2.7,1.5,3.3c1.8,0.6,1.8,0.6,1.8,0.6s4.5,10.8,6.6,12
								c2.1,1.2,14.7,6.4,14.7,6.4l3.3-12.7L441.4,131.7z"/>
							<path class="st25" d="M455.6,147.7c0,0-0.2-1.3-2.8-6.7c-2.9-6-3.6-8.4-3.6-8.4s-9.3-3.6-10.8-5.4c-1.5-1.8-2.4-2.1-2.4-2.1
								s-1.8,3.3,0.9,5.7c2.7,2.4,5.1,4.2,5.1,4.2s-0.3,6.9,0.6,10.2c0.9,3.3,3.6,4.9,3.6,4.9L455.6,147.7z"/>
							<path class="st25" d="M486.4,158.8c0,0-13.4,21.4-13.8,19.5c-0.4-1.9-17.2-31.4-17.2-31.4l-9.2,3.2c0,0,13.8,43.2,22.6,50.1
								c0,0,0.8,1.1,3.4,0.8c2.7-0.4,23.4-21.8,23.4-21.8L486.4,158.8z"/>
						</g>
						<path class="st27" d="M499,133.3c0,0-7.2,2.9-10.6,7.8c-3.4,5-13.4,27.6-13.4,27.6s5.4,9.6,17.6,13l16.8-31L499,133.3z"/>
						<path class="st14" d="M490.1,206.8c0,0,0.6,9.2,0.6,12.6c0,0-13.8,66.6-14.4,82.1c-0.6,15.5,10.9,47.1,10.9,47.1
							s49.4-1.1,65.5-4.6l1.7-33.3c0,0,2.3-58,0-74.7s-12.1-25.3-12.1-25.3l-2.9-8L490.1,206.8z"/>
						<path class="st27" d="M532.3,129.3c0,0,12.9,6,16.9,12.3c4,6.3,16.1,40.5,16.1,40.5S551.8,187,540,187c0,0,1.1,10.9,2.3,14.4
							c1.1,3.4-2.9,4.9-2.9,4.9s-28.1,7.8-49.1,3.2c0,0-2.6-0.6-2.6-1.7s0.3-4,0.3-4s-2-19.5-2.6-23c-0.6-3.4-6.9-12.8-6.3-16.6
							c0.6-3.7,10.3-21.1,10.3-21.1s6.6-7.8,9.5-9.8s10-2,10-2L532.3,129.3z"/>
						<path class="st25" d="M507.8,119c0,0.4,1.6,10.2-3.7,17.1c-5.4,7,15.9,6.7,20.8-0.4c4.5-6.4,4-7.5,4-7.5s-3.6-11.7-2.5-19.3
							C526.1,101.9,507.5,106.1,507.8,119z"/>
						<path class="st25" d="M507.6,78.3c0,0-6.2,1.6-9.7,11.1c-3.5,9.5-1.2,29.8,1.2,32.2c2.3,2.4,9.5,1.5,19.3-1.8
							c10.4-3.4,14-14.3,15.8-21.4C537.8,84.7,525.9,70.6,507.6,78.3z"/>
						<path class="st23" d="M495.6,89.1c0,0,5.7,13.8,27.6,14.5l5.1,24.4c0,0,9.3,4.5,12.9,6.5c0,0,4.2-44.2-5.7-54.9
							c-10-10.7-27.6-8-34.5-1.9C494.1,83.8,495.6,89.1,495.6,89.1z"/>
						<path class="st21" d="M532.3,129.3l-4.9-4.6c0,0-4.3,12.3-19.5,13.2c0,0-2-3.2-0.9-7.8l-2.6,2c0,0-5.5,7.8-4.9,10
							c0.6,2.3,7.8-1.7,7.8-1.7s8.6,5.2,12.1,5.5C522.9,146.3,531.7,130.2,532.3,129.3z"/>
						<path class="st26" d="M523.5,103.3c0,0,2.3-3.8,4.6-2.4c2.3,1.4-1.5,10-4.6,10.2C520.4,111.3,522,105.5,523.5,103.3z"/>
					</g>
					<line class="st28" x1="528.9" y1="154.2" x2="537.7" y2="185.6"/>
					<path class="st28" d="M523.5,156c0,0,2,6,8.6,10"/>
					<path class="st28" d="M533.5,148.5c0,0,1.1-8,10.3-8.6"/>
					<path class="st28" d="M488.4,145.1c0,0-9.4,15.4-9.3,19c0.1,3.6,6.1,14,6.1,14l7.5,19.5"/>
					<line class="st28" x1="520.9" y1="209.1" x2="530.9" y2="197.6"/>
					<g>
						<path class="st29" d="M436.6,135.1l-11.8-3.4c0,0,1.1,2.6,1.8,3.4c0.8,0.8,9,3.6,9,3.6"/>
						<path class="st29" d="M426.7,135.1c0,0,1.1,3.4,1.7,4c0.6,0.6,7.8,2.7,7.8,2.7"/>
						<polyline class="st29" points="438.4,132.2 442,135 444.7,134.3 						"/>
					</g>
				</g>
				<g>
					<path class="st29" d="M509,122.2c0,0,7.3-1.5,11.1-8.4"/>
					<polyline class="st29" points="502.7,105.4 501.3,112.7 503.8,113.2 					"/>
					<path class="st29" d="M502.3,116.5c0,0,3.6,0.8,7.5-1.3"/>
					<path class="st30" d="M515.9,109.1c0,2-1.6,3.5-3.5,3.5c-2,0-3.5-1.6-3.5-3.5c0-2,1.6-3.5,3.5-3.5
						C514.3,105.6,515.9,107.2,515.9,109.1z"/>
					<path class="st23" d="M509,104.3c0,0.5-0.4,0.9-0.9,0.9c-0.5,0-0.9-0.4-0.9-0.9c0-0.5,0.4-0.9,0.9-0.9
						C508.6,103.5,509,103.9,509,104.3z"/>
					<path class="st23" d="M499.7,104.3c0,0.5-0.4,0.9-0.9,0.9s-0.9-0.4-0.9-0.9c0-0.5,0.4-0.9,0.9-0.9S499.7,103.9,499.7,104.3z"/>
				</g>
				<path class="st31" d="M493.6,217.5c0,0,15.8,4.9,30.7-1.4"/>
				<path class="st31" d="M498.3,223.1c0,0,8,2.7,21.1-2.3"/>
			</g>
			<rect x="473.8" y="224.6" transform="matrix(0.866 -0.5 0.5 0.866 -58.1256 278.8605)" class="st21" width="35" height="46.5"/>
			<g>
				<g>
					<path class="st25" d="M523.6,234.6c0,0-4.8,5.3-6.2,6.4c-1.4,1.1-11.2,2-11.2,2s-4.3,7.2-5.5,6.9s-0.9-1.1-0.9-1.1
						s-0.3-12.9,0.6-14.4c0.9-1.4,14.9-5.5,14.9-5.5l1.7-2L523.6,234.6"/>
					<path class="st25" d="M561.1,183.5c0.4,1.1,3.4,10.1,5,14.7c1.5,4.6-32.9,28.7-38.3,32.9l-4.2,3.4l-6.5-7.7l30.2-30.2l-4.4-10
						L561.1,183.5z"/>
				</g>
				<g>
					<line class="st29" x1="500.7" y1="249.9" x2="502.5" y2="241.9"/>
					<line class="st29" x1="499.6" y1="242.6" x2="501.7" y2="238"/>
					<polyline class="st29" points="500.4,234.4 499.6,249.9 502.1,249.9 506.1,243 					"/>
				</g>
			</g>
		</g>
		<g>
			<ellipse class="st2" cx="110.3" cy="418.2" rx="75.2" ry="6.3"/>
			<g>
				<g>
					<g>
						<g>
							<path class="st32" d="M80,397.8c0,0,1.6-3.4,7.5-2.5c5.9,0.9,6.6,2.1,7.3,5c0.7,3,2.7,6.2,4.1,6.8c1.4,0.7,6.4,4.1,10.5,4.8
								c4.1,0.7,4.6,3.2,3.6,4.3c-0.9,1.1-16.4,2.1-19.8,1.6c0,0-11.6-0.2-14.4-1.1C76.1,415.9,79.8,399,80,397.8z"/>
							<path class="st33" d="M73.4,317.7c0,0-1.7-9.4,8.2-12.6c10-3.2,11.9,1.4,14.9,10.1c3,8.6-2.6,82.2-2.6,82.2s-11.5,2-14.4,0.2
								c0,0-8.7-47.9-8.1-61C72,323.4,73.4,317.7,73.4,317.7z"/>
							<path class="st34" d="M78.3,394.6c0,0,13-1.1,17.1-1.8l-0.2,5.9c0,0-10.3,1.8-16.6,0.9L78.3,394.6z"/>
						</g>
						<path class="st35" d="M75.1,133.4c0,0-8.2,0.5-13.2,19.2c-5,18.7-8.2,41.5-6.4,47.4c1.8,5.9,21.4,21.9,28.7,21.9
							s7.8-5.5,6.4-10c-1.4-4.6-15.5-16.9-15.5-16.9s11.4-36.5,10.9-46.1S80.1,133.4,75.1,133.4z"/>
						<g>
							<path class="st25" d="M177.9,127.8l-1.4,0.1l3.1-6c0,0,7.8-0.5,9,2.8l-3.6,7.9L177.9,127.8z"/>
							<g>
								<path class="st26" d="M182.2,110.6c0,0-0.3-6.2,1.9-7s4.7,0.8,4.7,0.8s3.6-0.4,4.7,1.2c1.1,1.5,1,3.8,1,3.8s2,0.4,2.5,2.4
									c0.5,1.9-0.4,5.6-0.4,5.6s-2.3,2.8-5,2.1C188.9,118.8,182.2,110.6,182.2,110.6z"/>
								<path class="st26" d="M178.2,115.6c0,0-0.8-8.1,0-9.1c0.9-1.1,9.8-13.4,9.8-13.4s1.8,2.1,0.8,4.5c-1.1,2.4-5.3,9.7-5.3,9.7
									l0,6.2C183.5,113.4,180.7,115.3,178.2,115.6z"/>
								<path class="st25" d="M178.8,122.1c0,0-2.1-13-0.7-14.8c1.5-1.8,8.6-0.7,9.9-0.2c1.4,0.5,5.1,5.4,5.6,7.3s-3,8.8-5.2,10.3
									C186.4,126.2,180.1,124.6,178.8,122.1z"/>
							</g>
						</g>
						<path class="st11" d="M173.8,130.6l2.7-5c0,0,6.4-1.1,9.6,3.9c0.9,1.8,0.5,1.8,0.5,1.8l-2.1,4.1L173.8,130.6z"/>
						<path class="st25" d="M108.9,75.7c0,0,6.7,1.7,10.6,12.1c3.8,10.4,1.3,32.4-1.3,35s-10.3,1.6-21-1.9
							c-11.3-3.7-15.2-15.5-17.2-23.3C76.1,82.6,89,67.3,108.9,75.7z"/>
						<path class="st25" d="M84.7,132.9l5.5-19.6c0,0,10.9-3.2,17.8,4.1l2.3,3.2v12.8C110.2,133.4,98.8,135.6,84.7,132.9z"/>
						<path class="st33" d="M69.4,238.5c0,0-4.1,23.9,0,51.3c4.1,27.4,12.3,30.1,19.8,30.1c7.5,0,9.6-21.9,10.9-31.5
							c1.4-9.6,6.8-42.4-3.4-49.9C86.5,230.9,74.9,230.3,69.4,238.5z"/>
						<path class="st33" d="M98.1,270.6c0,0-8.2-21.9,6.2-31.5s25.3-8.2,28.7,7.5c3.4,15.7,4.1,69.8-0.7,80.7
							C127.5,338.3,110.4,321.2,98.1,270.6z"/>
						<path class="st36" d="M122,76.7c0,0,3.2,4.2,1.3,9.1c-1.9,4.9-9.1,6.8-9.1,6.8s2.3,3.2,0,7.8l-1.6,2.6c0,0,2.3,5.2,1.6,6.5
							c-0.6,1.3-2.9,1-2.9,1s-2.6-7.1-3.6-6.5c-1,0.6-3.6,3.9-3.6,6.8s1,5.2,0.3,7.1c-0.6,1.9-10.7,1.9-14.9,1.3
							c-4.2-0.6-10.7-13.6-12.3-19.4c0,0-2.3-8.1,1-14.9c0,0-0.6-5.8,4.9-11.7c5.5-5.8,23-3.9,25.9-1.6c0,0-0.3-3.2,2.9-2.6
							C115.2,69.6,120.1,72.5,122,76.7z"/>
						<path class="st26" d="M112.3,106.1c0,0-1-4.2-4.5-2.3c-3.6,1.9,0.6,12,3.6,11.3C114.3,114.5,113,107.7,112.3,106.1z"/>
						<path class="st11" d="M81.8,132.8c0,0,1.5-5.4,2.9-5.8c1.4-0.5,18.2-2.3,27.4,3.2c4.1,3.2,3.6,5.5,3.6,5.5
							S88.5,130.4,81.8,132.8z"/>
						<path class="st35" d="M78.3,131.5c0,0,28.3-1.8,48.3,6.8c9.1,4.6,30,25.2,30,25.2l16.4-34.2c0,0,9.2-3.3,12.9,5.4
							c0,0-10.4,40.4-19,53.1c-5.5,4.6-31.6-10.3-31.6-10.3s4.1,52.9,2.7,76.6c-1.8,4.6-37.4,6.8-43.8,6.4
							c-6.4-0.5-28.7-7.8-29.2-9.1c-0.5-1.4,3.2-56.1,2.3-62.5c-0.9-6.4-3.6-37.8-2.7-42.4C65.5,142,69.6,133.4,78.3,131.5z"/>
						<g>
							<path class="st37" d="M108.4,399.2c0,0,1.6-3.4,7.5-2.5c5.9,0.9,6.6,2.1,7.3,5c0.7,3,2.7,6.2,4.1,6.8
								c1.4,0.7,6.4,4.1,10.5,4.8c4.1,0.7,4.6,3.2,3.6,4.3c-0.9,1.1-16.4,2.1-19.8,1.6c0,0-11.6-0.2-14.4-1.1
								C104.5,417.2,108.2,400.3,108.4,399.2z"/>
							<path class="st33" d="M111.1,319.2c0,0-0.7-9.6,9.6-11.6c10.3-2.1,11.6,2.7,13.7,11.6c2.1,8.9-11.6,81.4-11.6,81.4
								s-11.6,0.7-14.4-1.4c0,0-3.4-48.6-1.4-61.6C109.1,324.7,111.1,319.2,111.1,319.2z"/>
							<path class="st34" d="M107.5,400.3c0,0,8.9,2.5,16.4,1.1l0.7-5.2l-17.3-1.1L107.5,400.3z"/>
						</g>
						<path class="st38" d="M95.4,265.5c0,0,9.6,30.8,16.8,45.8"/>
						<path class="st38" d="M114.9,317.5c0,0,5.8-3.4,11.6,0"/>
						<path class="st38" d="M113.9,321.2c0,0,4.8-2.7,13,3.1"/>
						<path class="st38" d="M77.9,313.4c0,0,3.8-3.4,12.3,0.3"/>
						<path class="st38" d="M80.7,316.8c0,0,5.5-2.7,10.6,1.4"/>
						<line class="st38" x1="93.3" y1="322.3" x2="91.3" y2="392"/>
						<path class="st38" d="M121.6,263.8c0,0,7.8,4.6,10.9-2.7"/>
						<path class="st38" d="M129.4,264.7c0,0,3.6,28.3,2.7,47"/>
						<line class="st39" x1="64.6" y1="158.4" x2="68.3" y2="197.7"/>
						<path class="st39" d="M127.2,172.1c0,0,27,19.5,39.7,15.7"/>
						<path class="st39" d="M159.3,167.3c0,0,5.5,3.1,5.1,10.3"/>
						<path class="st39" d="M158,164.6c0,0,5.8-1.7,9.2,4.1"/>
						<path class="st39" d="M126.2,141c0,0-14.4,7.5-4.8,25"/>
						<path class="st29" d="M105.8,118.3c0,0,2.4,6.2,10.4,5.1"/>
						<path class="st29" d="M183.2,105.6l2.7-2.4c0,0,1.9,0,2.9,1.2"/>
						<path class="st29" d="M186.4,106c0-0.2,3.8-2.2,3.8-2.2s3.5,0.9,4,2.7c0.5,1.8,0.1,2.8,0.1,2.8"/>
						<path class="st29" d="M190.9,109.3c0.2-0.1,4.8,0.2,4.8,0.2s1.7,1.1,1.7,3.4s-0.8,4.4-0.8,4.4s-1.7,2.4-4.5,2.3"/>
						<path class="st29" d="M193.6,114.1c0,0,0.6,0.9-0.2,2.6c-0.7,1.7-1.6,6-4.9,8"/>
					</g>
					<path class="st40" d="M96.6,84.4c-6.7-3.2-15.2,0.7-15.2,0.7s1-4.4,5.8-6"/>
					<path class="st40" d="M81.7,87.8c0,0,1.7-0.2,3.9,3.2"/>
					<path class="st40" d="M111.1,72.5c0,0,8.4,1.4,8.7,9.8"/>
				</g>
			</g>
		</g>
	</g>
</g>
</svg>
