<svg xmlns="http://www.w3.org/2000/svg" width="19.42" height="19.422" viewBox="0 0 19.42 19.422">
  <g id="Group_180088" data-name="Group 180088" transform="translate(-0.5)">
    <path id="Path_49050" data-name="Path 49050" d="M19.4,8.447h0L11.474.524a1.788,1.788,0,0,0-2.529,0L1.027,8.442l-.008.008A1.787,1.787,0,0,0,2.209,11.5l.055,0H2.58v5.83a2.1,2.1,0,0,0,2.093,2.093h3.1a.569.569,0,0,0,.569-.569V14.282a.956.956,0,0,1,.955-.955h1.828a.956.956,0,0,1,.955.955v4.571a.569.569,0,0,0,.569.569h3.1a2.1,2.1,0,0,0,2.093-2.093V11.5h.293A1.788,1.788,0,0,0,19.4,8.447Zm-.806,1.723a.646.646,0,0,1-.46.191h-.862a.569.569,0,0,0-.569.569v6.4a.956.956,0,0,1-.955.955H13.216v-4a2.1,2.1,0,0,0-2.093-2.093H9.3A2.1,2.1,0,0,0,7.2,14.282v4H4.672a.956.956,0,0,1-.955-.955v-6.4a.569.569,0,0,0-.569-.569H2.275a.649.649,0,0,1-.448-1.109h0L9.75,1.328a.65.65,0,0,1,.919,0l7.92,7.92,0,0A.651.651,0,0,1,18.592,10.17Zm0,0" transform="translate(0)" fill="#1b2444"/>
  </g>
</svg>
