<svg width="51" height="49" viewBox="0 0 51 49" fill="none" xmlns="http://www.w3.org/2000/svg">
<path d="M49.5187 18.7577C49.3556 17.577 48.8792 16.4616 48.139 15.5275C47.3987 14.5934 46.4217 13.8747 45.3095 13.4462C44.1974 13.0177 42.9907 12.8951 41.8151 13.091C40.6394 13.287 39.5378 13.7944 38.6247 14.5605L36.6979 16.1703L34.7872 14.5598C33.9745 13.8782 33.0108 13.4002 31.9763 13.1656C30.9418 12.931 29.8662 12.9465 28.8389 13.2109C28.3995 12.5759 27.8325 12.0395 27.1741 11.6359C26.5157 11.2324 25.7804 10.9706 25.0151 10.8673C24.2498 10.764 23.4713 10.8214 22.7295 11.036C21.9877 11.2505 21.2987 11.6174 20.7067 12.1132L19.2952 13.2878L17.9243 12.1203H17.9211C17.1609 11.4823 16.2437 11.0597 15.2648 10.8964C14.2859 10.7331 13.2811 10.8351 12.355 11.1918C11.4289 11.5485 10.6153 12.1469 9.9989 12.9247C9.38248 13.7024 8.98577 14.6312 8.85003 15.6143C8.41099 18.7612 8.34229 21.9487 8.64534 25.1115C7.84268 25.3176 7.06115 25.5987 6.31107 25.951L1.88467 28.0198C1.49786 28.2024 1.17081 28.491 0.941513 28.8521C0.712221 29.2132 0.590105 29.6319 0.589357 30.0597V43.5875C0.588892 43.9557 0.678709 44.3184 0.850945 44.6438C1.02318 44.9693 1.27258 45.2475 1.57731 45.4542C1.8836 45.6562 2.23357 45.7823 2.59827 45.8221C2.96297 45.862 3.33192 45.8145 3.6746 45.6835L9.90901 43.2091C10.4018 43.0139 10.9295 42.9227 11.4592 42.941C11.9889 42.9594 12.509 43.0869 12.9871 43.3156L21.4783 47.3701C22.7952 47.9977 24.2532 48.2703 25.7079 48.1607C27.1625 48.0512 28.5633 47.5634 29.7713 46.7457L47.6015 34.6514L47.6073 34.6468C48.1532 34.2918 48.6193 33.8272 48.9761 33.2826C49.3329 32.7379 49.5726 32.125 49.6801 31.4828C49.8983 30.1746 49.93 28.8044 49.9726 27.4794C50.0674 24.5645 49.9156 21.6469 49.5187 18.7577ZM33.4583 16.1444L36.029 18.3115C36.2146 18.4681 36.4496 18.5542 36.6925 18.5548C36.9354 18.5554 37.1707 18.4704 37.3572 18.3147L39.953 16.1457C40.583 15.6171 41.3431 15.2669 42.1543 15.1315C42.9655 14.9961 43.7981 15.0805 44.5656 15.376C45.3332 15.6714 46.0075 16.167 46.5186 16.8114C47.0297 17.4557 47.3588 18.2252 47.4717 19.0398C47.8364 21.7023 47.9852 24.39 47.9166 27.0764C46.8917 26.3769 45.6327 26.1088 44.4117 26.33L44.5059 22.4021C44.5092 22.2664 44.4857 22.1314 44.4368 22.0048C44.3879 21.8782 44.3145 21.7625 44.2209 21.6643C44.1273 21.566 44.0152 21.4872 43.8911 21.4322C43.767 21.3773 43.6333 21.3473 43.4977 21.3441C43.362 21.3408 43.227 21.3643 43.1004 21.4132C42.9738 21.4621 42.8581 21.5355 42.7598 21.6291C42.6616 21.7227 42.5827 21.8348 42.5278 21.9589C42.4729 22.083 42.4429 22.2167 42.4396 22.3524L42.3228 27.2488L33.6236 32.7981C33.3719 32.3019 33.0237 31.8607 32.5996 31.5005C32.1754 31.1403 31.6837 30.8682 31.1531 30.7002L30.9491 22.3517C30.9424 22.0777 30.8272 21.8176 30.6287 21.6285C30.4302 21.4395 30.1648 21.3371 29.8908 21.3438C29.6167 21.3504 29.3566 21.4657 29.1676 21.6642C28.9786 21.8626 28.8761 22.1281 28.8828 22.4021L29.0765 30.3619C27.9172 30.1848 26.7701 29.9355 25.6419 29.6154C25.3549 26.0914 25.4554 22.5465 25.9415 19.0444C26.0541 18.2298 26.3829 17.4602 26.8936 16.8157C27.4044 16.1712 28.0785 15.6753 28.8458 15.3796C29.6132 15.0839 30.4457 14.9992 31.2569 15.1343C32.0681 15.2693 32.8282 15.6193 33.4583 16.1477V16.1444ZM10.8931 15.8939C10.9782 15.2767 11.2272 14.6936 11.614 14.2052C12.0009 13.7168 12.5116 13.341 13.0929 13.1169C13.6743 12.8927 14.3051 12.8285 14.9197 12.9307C15.5343 13.033 16.1102 13.2981 16.5877 13.6985L18.6165 15.4283C18.8019 15.5861 19.0371 15.6734 19.2806 15.6747C19.5241 15.676 19.7602 15.5913 19.9473 15.4354L22.0272 13.7043H22.0304C22.7277 13.1196 23.6259 12.8307 24.5333 12.8993C25.4407 12.9678 26.2853 13.3883 26.8869 14.071C26.0798 14.5917 25.3946 15.2804 24.8781 16.0901C24.3616 16.8998 24.0259 17.8115 23.894 18.7628C23.4278 22.1286 23.3025 25.5329 23.5201 28.9238C21.8827 28.3112 20.3069 27.5447 18.8141 26.6348C17.6528 25.9267 16.3897 25.401 15.0689 25.076L14.9036 18.6369C14.9002 18.5012 14.87 18.3676 14.8149 18.2435C14.7597 18.1195 14.6807 18.0076 14.5823 17.9141C14.4839 17.8206 14.3681 17.7475 14.2414 17.6987C14.1147 17.65 13.9797 17.6268 13.844 17.6302C13.7083 17.6337 13.5747 17.6639 13.4507 17.719C13.3266 17.7741 13.2147 17.8532 13.1212 17.9516C13.0277 18.0499 12.9546 18.1658 12.9059 18.2925C12.8571 18.4191 12.8339 18.5542 12.8373 18.6899L12.9949 24.7364C12.2256 24.6735 11.4523 24.6785 10.6839 24.7512C10.4137 21.8005 10.4839 18.8285 10.8931 15.8939ZM22.3701 45.5039L13.8795 41.4508C13.1445 41.0995 12.3448 40.9037 11.5306 40.8757C10.7164 40.8477 9.90516 40.9881 9.14771 41.288L2.91523 43.7618C2.88671 43.7735 2.85574 43.778 2.82507 43.7748C2.7944 43.7717 2.76499 43.761 2.73944 43.7437C2.71388 43.7265 2.69299 43.7032 2.6786 43.6759C2.66421 43.6487 2.65677 43.6183 2.65695 43.5875V30.0609C2.65713 30.0254 2.66735 29.9906 2.68642 29.9605C2.7055 29.9305 2.73266 29.9064 2.76478 29.8911L7.18343 27.819C8.85315 27.0342 10.6917 26.6764 12.5339 26.7778C14.3761 26.8793 16.1642 27.4367 17.7377 28.4002C21.5006 30.6917 25.725 32.1201 30.1064 32.5825C30.6337 32.638 31.1213 32.8882 31.474 33.284C31.8267 33.6798 32.0192 34.1929 32.0139 34.723C32.0068 35.8027 31.1899 36.675 30.027 36.8449H30.007C26.3554 37.4531 22.6535 36.8862 19.5825 35.2486C19.4626 35.1822 19.3307 35.1403 19.1945 35.1253C19.0582 35.1103 18.9203 35.1226 18.7889 35.1615C18.6574 35.2003 18.535 35.2649 18.4288 35.3515C18.3226 35.4382 18.2346 35.5451 18.1701 35.666C18.1056 35.7869 18.0658 35.9195 18.053 36.056C18.0402 36.1924 18.0547 36.3301 18.0957 36.4609C18.1366 36.5917 18.2032 36.7131 18.2915 36.8179C18.3798 36.9227 18.4881 37.0089 18.6101 37.0715C21.1768 38.4404 24.1245 39.1488 27.1432 39.1488C28.2093 39.1484 29.2736 39.0605 30.3253 38.886H30.3292L30.3466 38.8827H30.3505C32.4168 38.5696 33.9491 36.9456 34.0718 34.9632L43.8647 28.7172C44.1412 28.5465 44.4485 28.4319 44.7693 28.3799C45.09 28.3279 45.4178 28.3397 45.734 28.4144C46.0502 28.4892 46.3486 28.6254 46.6122 28.8155C46.8757 29.0056 47.0992 29.2457 47.2699 29.5221C47.4407 29.7985 47.5553 30.1059 47.6072 30.4266C47.6592 30.7474 47.6475 31.0752 47.5727 31.3914C47.498 31.7076 47.3617 32.006 47.1716 32.2695C46.9816 32.533 46.7415 32.7566 46.4651 32.9273L46.4534 32.935L46.4412 32.9428L28.6109 45.0384C27.7015 45.6533 26.6472 46.0198 25.5524 46.1014C24.4577 46.1831 23.3606 45.9771 22.3701 45.5039Z" fill="#002A54" stroke="#002A54" stroke-width="0.5"/>
<path d="M36.6927 11.6524C37.6779 11.6524 38.6409 11.3603 39.46 10.813C40.2792 10.2656 40.9176 9.48769 41.2946 8.57752C41.6716 7.66735 41.7703 6.66582 41.5781 5.69959C41.3859 4.73335 40.9115 3.84581 40.2149 3.1492C39.5182 2.45258 38.6307 1.97818 37.6645 1.78599C36.6982 1.59379 35.6967 1.69243 34.7865 2.06944C33.8764 2.44644 33.0984 3.08488 32.5511 3.90401C32.0038 4.72314 31.7116 5.68618 31.7116 6.67135C31.7132 7.99193 32.2385 9.25799 33.1723 10.1918C34.1061 11.1256 35.3721 11.6509 36.6927 11.6524ZM36.6927 3.75657C37.2692 3.75657 37.8327 3.92752 38.3121 4.2478C38.7914 4.56808 39.165 5.02331 39.3856 5.55591C39.6062 6.08851 39.6639 6.67458 39.5515 7.23999C39.439 7.8054 39.1614 8.32476 38.7538 8.7324C38.3461 9.14004 37.8268 9.41764 37.2614 9.53011C36.6959 9.64258 36.1099 9.58485 35.5773 9.36424C35.0447 9.14363 34.5894 8.77004 34.2692 8.2907C33.9489 7.81137 33.7779 7.24783 33.7779 6.67135C33.7788 5.89856 34.0862 5.15767 34.6326 4.61123C35.179 4.06479 35.9199 3.75743 36.6927 3.75657ZM19.2867 9.4673C20.1359 9.46781 20.9661 9.21648 21.6724 8.7451C22.3786 8.27372 22.9292 7.60347 23.2545 6.81912C23.5798 6.03477 23.6652 5.17156 23.4999 4.33868C23.3345 3.50581 22.9259 2.74067 22.3257 2.14006C21.7254 1.53946 20.9605 1.13036 20.1277 0.964511C19.295 0.798665 18.4317 0.883525 17.6472 1.20836C16.8626 1.53319 16.192 2.0834 15.7202 2.78939C15.2484 3.49538 14.9966 4.32544 14.9966 5.17457C14.9979 6.31221 15.4503 7.4029 16.2545 8.20757C17.0587 9.01224 18.1491 9.46525 19.2867 9.4673ZM19.2867 2.94555C19.7271 2.94504 20.1577 3.07512 20.5241 3.31934C20.8905 3.56356 21.1763 3.91095 21.3453 4.31758C21.5143 4.72421 21.5589 5.17182 21.4735 5.60381C21.3881 6.03579 21.1765 6.43275 20.8655 6.74449C20.5545 7.05622 20.158 7.26873 19.7262 7.35514C19.2944 7.44154 18.8467 7.39797 18.4397 7.22993C18.0327 7.06189 17.6846 6.77693 17.4395 6.41108C17.1945 6.04522 17.0634 5.61492 17.0629 5.17457C17.0636 4.58474 17.298 4.01922 17.7148 3.60191C18.1317 3.18459 18.6969 2.9495 19.2867 2.94813V2.94555Z" fill="#002A54" stroke="#002A54" stroke-width="0.5"/>
</svg>
