<svg xmlns="http://www.w3.org/2000/svg" width="22.888" height="20.64" viewBox="0 0 22.888 20.64">
  <g id="Group_166250" data-name="Group 166250" transform="translate(0.2 0.2)">
    <path id="Path_40806" data-name="Path 40806" d="M21.363,3.373H16.491v-1.5A1.876,1.876,0,0,0,14.617,0H7.871A1.876,1.876,0,0,0,6,1.874v1.5H1.124A1.124,1.124,0,0,0,0,4.5V12.84A1.129,1.129,0,0,0,.75,13.9v5.216a1.124,1.124,0,0,0,1.124,1.124h18.74a1.124,1.124,0,0,0,1.124-1.124V13.9a1.13,1.13,0,0,0,.75-1.059V4.5A1.124,1.124,0,0,0,21.363,3.373ZM6.746,1.874A1.124,1.124,0,0,1,7.871.75h6.746a1.124,1.124,0,0,1,1.124,1.124v1.5h-.75v-1.5a.375.375,0,0,0-.375-.375H7.871a.375.375,0,0,0-.375.375v1.5h-.75Zm7.5,1.5h-6V2.249h6Zm6.746,15.741a.375.375,0,0,1-.375.375H1.874a.375.375,0,0,1-.375-.375V14.027l8.246,1.137v.952a1.124,1.124,0,0,0,1.124,1.124h.75a1.124,1.124,0,0,0,1.124-1.124v-.952l8.246-1.137Zm-9-3a.375.375,0,0,1-.375.375h-.75a.375.375,0,0,1-.375-.375V13.867a.375.375,0,0,1,.375-.375h.75a.375.375,0,0,1,.375.375Zm9.745-3.276a.375.375,0,0,1-.322.372l-.1.014-8.569,1.182v-.54a1.124,1.124,0,0,0-1.124-1.124h-.75a1.124,1.124,0,0,0-1.124,1.124v.54l-8.672-1.2A.375.375,0,0,1,.75,12.84V4.5a.375.375,0,0,1,.375-.375H21.363a.375.375,0,0,1,.375.375Zm0,0" fill="#555" stroke="#555" stroke-width="0.4"/>
  </g>
</svg>
