<svg id="icon-location" xmlns="http://www.w3.org/2000/svg" width="17" height="22.058" viewBox="0 0 17 22.058">
  <path id="Path_40798" data-name="Path 40798" d="M8.5,0A8.51,8.51,0,0,0,0,8.5a15.073,15.073,0,0,0,4.055,9.8,21.493,21.493,0,0,0,4.028,3.635.762.762,0,0,0,.834,0A21.5,21.5,0,0,0,12.945,18.3,15.072,15.072,0,0,0,17,8.5,8.51,8.51,0,0,0,8.5,0Zm0,20.36C6.936,19.195,1.524,14.712,1.524,8.5a6.976,6.976,0,1,1,13.952,0C15.476,14.712,10.063,19.195,8.5,20.36Z" fill="#555"/>
  <path id="Path_40799" data-name="Path 40799" d="M8.5,5.125A3.373,3.373,0,1,0,11.874,8.5,3.377,3.377,0,0,0,8.5,5.125Zm0,5.223A1.85,1.85,0,1,1,10.35,8.5,1.851,1.851,0,0,1,8.5,10.348Z" fill="#555"/>
</svg>
