<svg xmlns="http://www.w3.org/2000/svg" width="26.462" height="23.037" viewBox="0 0 26.462 23.037">
  <g id="Group_166402" data-name="Group 166402" transform="translate(-9.85 -12.85)">
    <g id="Group_166402-2" data-name="Group 166402" transform="translate(10 13)">
      <path id="Path_41041" data-name="Path 41041" d="M10.989,26.448a3.464,3.464,0,0,1,3.46-3.46h13.84a3.464,3.464,0,0,1,3.46,3.46v.494H24.334v-.494a1.485,1.485,0,0,0-1.483-1.483H20.874a1.485,1.485,0,0,0-1.483,1.483v.494h-8.4Zm12.357,3.46a.5.5,0,0,1-.494.494H20.874a.5.5,0,0,1-.494-.494v-3.46a.5.5,0,0,1,.494-.494h1.977a.5.5,0,0,1,.494.494Zm3.46,9.391H14.448a3.464,3.464,0,0,1-3.46-3.46V27.931h8.4v1.977a1.485,1.485,0,0,0,1.483,1.483h1.977a1.485,1.485,0,0,0,1.483-1.483V27.931h7.414v.989a.494.494,0,1,0,.989,0V26.448A4.453,4.453,0,0,0,28.288,22H14.448A4.454,4.454,0,0,0,10,26.448V35.84a4.454,4.454,0,0,0,4.448,4.448H26.805a.494.494,0,0,0,0-.989Z" transform="translate(-10 -17.552)" fill="#555" stroke="#555" stroke-width="0.3" fill-rule="evenodd"/>
      <path id="Path_41042" data-name="Path 41042" d="M22.494,16.46a.494.494,0,0,0,.494-.494v-.494a1.485,1.485,0,0,1,1.483-1.483H30.9a1.485,1.485,0,0,1,1.483,1.483v.494a.494.494,0,1,0,.989,0v-.494A2.474,2.474,0,0,0,30.9,13H24.471A2.474,2.474,0,0,0,22,15.471v.494a.494.494,0,0,0,.494.494" transform="translate(-16.069 -13)" fill="#555" stroke="#555" stroke-width="0.3" fill-rule="evenodd"/>
      <path id="Path_41043" data-name="Path 41043" d="M53.884,41.471A1.483,1.483,0,1,1,52.4,39.989a1.485,1.485,0,0,1,1.483,1.483m-3.954,0A2.471,2.471,0,1,0,52.4,39a2.474,2.474,0,0,0-2.471,2.471" transform="translate(-30.193 -26.149)" fill="#555" stroke="#555" stroke-width="0.3" fill-rule="evenodd"/>
      <path id="Path_41044" data-name="Path 41044" d="M50.954,51A3.782,3.782,0,0,0,47,54.46a.494.494,0,0,0,.989,0,2.79,2.79,0,0,1,2.966-2.471,2.725,2.725,0,0,1,2.931,2.447.494.494,0,0,0,.989,0A3.706,3.706,0,0,0,50.954,51" transform="translate(-28.712 -32.218)" fill="#555" stroke="#555" stroke-width="0.3" fill-rule="evenodd"/>
    </g>
  </g>
</svg>
