<svg id="icon-clock" xmlns="http://www.w3.org/2000/svg" width="20" height="20" viewBox="0 0 20 20">
  <path id="Path_40793" data-name="Path 40793" d="M17.071,2.929A10,10,0,0,0,2.929,17.071a10,10,0,0,0,12.245,1.488.781.781,0,0,0-.809-1.337,8.512,8.512,0,1,1,2.642-2.539.781.781,0,1,0,1.3.868A9.975,9.975,0,0,0,17.071,2.929Z" fill="#555"/>
  <path id="Path_40794" data-name="Path 40794" d="M10,2.969a.781.781,0,0,0-.781.781V9.676L6.354,12.541a.781.781,0,0,0,1.1,1.1l3.094-3.094A.781.781,0,0,0,10.781,10V3.75A.781.781,0,0,0,10,2.969Z" fill="#555"/>
</svg>
