<svg xmlns="http://www.w3.org/2000/svg" xmlns:xlink="http://www.w3.org/1999/xlink" width="20" height="20" viewBox="0 0 20 20">
  <defs>
    <clipPath id="clip-path">
      <rect id="Rectangle_149032" data-name="Rectangle 149032" width="20" height="20" fill="#555"/>
    </clipPath>
  </defs>
  <g id="icon-calendar" clip-path="url(#clip-path)">
    <path id="Path_40789" data-name="Path 40789" d="M17.708,20H2.292A2.294,2.294,0,0,1,0,17.708V3.958A2.293,2.293,0,0,1,2.292,1.667H17.708A2.293,2.293,0,0,1,20,3.958v13.75A2.294,2.294,0,0,1,17.708,20ZM2.292,2.917A1.043,1.043,0,0,0,1.25,3.958v13.75A1.043,1.043,0,0,0,2.292,18.75H17.708a1.043,1.043,0,0,0,1.042-1.042V3.958a1.043,1.043,0,0,0-1.042-1.042Z" fill="#555"/>
    <path id="Path_40790" data-name="Path 40790" d="M19.375,7.917H.625a.625.625,0,0,1,0-1.25h18.75a.625.625,0,0,1,0,1.25Z" fill="#555"/>
    <path id="Path_40791" data-name="Path 40791" d="M4.791,5a.625.625,0,0,1-.625-.625V.625a.625.625,0,0,1,1.25,0v3.75A.625.625,0,0,1,4.791,5Z" fill="#555"/>
    <path id="Path_40792" data-name="Path 40792" d="M15.209,5a.625.625,0,0,1-.625-.625V.625a.625.625,0,0,1,1.25,0v3.75A.625.625,0,0,1,15.209,5Z" fill="#555"/>
  </g>
</svg>
