<svg xmlns="http://www.w3.org/2000/svg" width="25" height="21.492" viewBox="0 0 25 21.492">
  <g id="icon-salary" transform="translate(0 -1.754)">
    <path id="Path_40800" data-name="Path 40800" d="M24.965,13.915h0L20.245,2.063a.491.491,0,0,0-.637-.275h0L.458,9.414a.481.481,0,0,0-.2.156A.485.485,0,0,0,0,10v12.76a.491.491,0,0,0,.491.491H21.1a.491.491,0,0,0,.491-.491V15.787l3.1-1.234A.491.491,0,0,0,24.965,13.915Zm-4.353,8.349H.982V10.486h19.63ZM8.188,9.507l8.217-3.274a3.9,3.9,0,0,0,2.813,1.213l.82,2.061Zm13.405,5.225V10a.491.491,0,0,0-.491-.491h-.008l-1.04-2.612a.409.409,0,0,0-.04-.062.485.485,0,0,0-.513-.378,2.935,2.935,0,0,1-2.573-1.108.486.486,0,0,0-.63-.11.552.552,0,0,0-.069.013L6.2,9.243a.485.485,0,0,0-.269.262H2.882L19.514,2.882l4.358,10.941Z" fill="#555"/>
    <path id="Path_40801" data-name="Path 40801" d="M2.313,18.952A2.934,2.934,0,0,1,4.294,20.93a.491.491,0,0,0,.47.35.449.449,0,0,0,.076-.011.466.466,0,0,0,.067.014H16.686a.424.424,0,0,0,.06-.012.457.457,0,0,0,.552-.336v0a2.934,2.934,0,0,1,1.981-1.981.485.485,0,0,0,.337-.54.485.485,0,0,0,.014-.073V14.413a.451.451,0,0,0-.015-.073.484.484,0,0,0-.337-.54,2.931,2.931,0,0,1-1.98-1.982.485.485,0,0,0-.544-.337.453.453,0,0,0-.069-.014H4.907a.478.478,0,0,0-.073.015.485.485,0,0,0-.54.337A2.934,2.934,0,0,1,2.313,13.8a.484.484,0,0,0-.337.54.5.5,0,0,0-.014.073v3.926a.45.45,0,0,0,.014.068A.486.486,0,0,0,2.313,18.952Zm.631-4.34A3.894,3.894,0,0,0,5.107,12.45H16.486a3.9,3.9,0,0,0,2.163,2.162v3.527A3.9,3.9,0,0,0,16.486,20.3H5.107a3.9,3.9,0,0,0-2.162-2.162Z" fill="#555"/>
    <path id="Path_40802" data-name="Path 40802" d="M10.8,19.32a2.945,2.945,0,1,0-2.945-2.944A2.945,2.945,0,0,0,10.8,19.32Zm0-4.908a1.963,1.963,0,1,1-1.963,1.963A1.963,1.963,0,0,1,10.8,14.413Z" fill="#555"/>
    <path id="Path_40803" data-name="Path 40803" d="M5.4,17.112a.736.736,0,1,0-.736-.736A.736.736,0,0,0,5.4,17.112Zm0-.982a.245.245,0,1,1-.245.245A.245.245,0,0,1,5.4,16.13Z" fill="#555"/>
    <path id="Path_40804" data-name="Path 40804" d="M16.2,17.112a.736.736,0,1,0-.736-.736A.736.736,0,0,0,16.2,17.112Zm0-.982a.245.245,0,1,1-.245.245A.245.245,0,0,1,16.2,16.13Z" fill="#555"/>
  </g>
</svg>
