<svg xmlns="http://www.w3.org/2000/svg" xmlns:xlink="http://www.w3.org/1999/xlink" width="23" height="23" viewBox="0 0 23 23">
  <defs>
    <clipPath id="clip-path">
      <rect id="Rectangle_149033" data-name="Rectangle 149033" width="23" height="23" fill="#555"/>
    </clipPath>
  </defs>
  <g id="icon-expiry" clip-path="url(#clip-path)">
    <path id="Path_40795" data-name="Path 40795" d="M19.438,21.452H18.069V19.008a7.692,7.692,0,0,0-3.785-6.342,1.4,1.4,0,0,1-.5-1.166,1.4,1.4,0,0,1,.5-1.166,7.693,7.693,0,0,0,3.785-6.343V1.548h1.369a.774.774,0,0,0,0-1.548H3.561a.774.774,0,0,0,0,1.548H4.93V3.992a7.692,7.692,0,0,0,3.785,6.343,1.394,1.394,0,0,1,.5,1.166,1.394,1.394,0,0,1-.5,1.166A7.692,7.692,0,0,0,4.93,19.008v2.444H3.561a.774.774,0,0,0,0,1.548H19.438a.774.774,0,0,0,0-1.548ZM6.478,19.008a6.355,6.355,0,0,1,3.1-5.058,2.9,2.9,0,0,0,1.185-2.45A2.9,2.9,0,0,0,9.578,9.05a6.355,6.355,0,0,1-3.1-5.058V1.548H16.521V3.992a6.355,6.355,0,0,1-3.1,5.058,2.9,2.9,0,0,0-1.185,2.45,2.9,2.9,0,0,0,1.185,2.45,6.356,6.356,0,0,1,3.1,5.058v2.444h-.257c-.636-2.391-3.883-4.99-4.288-5.308a.774.774,0,0,0-.953,0c-.406.317-3.652,2.916-4.288,5.308H6.478V19.008Zm8.16,2.444H8.36a12.52,12.52,0,0,1,3.139-3.7A12.517,12.517,0,0,1,14.638,21.452Z" fill="#555"/>
    <path id="Path_40796" data-name="Path 40796" d="M11.5,14.792a.774.774,0,1,0-.547-.227A.779.779,0,0,0,11.5,14.792Z" fill="#555"/>
    <path id="Path_40797" data-name="Path 40797" d="M11.5,10.688a.774.774,0,0,0,.774-.774V8.547a.774.774,0,1,0-1.548,0V9.915A.774.774,0,0,0,11.5,10.688Z" fill="#555"/>
  </g>
</svg>
