<svg xmlns="http://www.w3.org/2000/svg" width="21.767" height="19.16" viewBox="0 0 21.767 19.16">
  <g id="Group_180087" data-name="Group 180087" transform="translate(-14.5 -44.75)">
    <path id="Path_49047" data-name="Path 49047" d="M39.524,48.557V46.638a1.392,1.392,0,0,1,1.388-1.388h7.219a1.392,1.392,0,0,1,1.388,1.388v1.918m4.524,6.2v7.357a1.3,1.3,0,0,1-1.293,1.293H36.293A1.3,1.3,0,0,1,35,62.118V54.8" transform="translate(-19.138)" fill="none" stroke="#1b2444" stroke-linecap="round" stroke-linejoin="round" stroke-miterlimit="22.926" stroke-width="1" fill-rule="evenodd"/>
    <path id="Path_49048" data-name="Path 49048" d="M23.66,133.011C19.1,132.751,15,131.447,15,129.1v-3.059a1.3,1.3,0,0,1,1.293-1.293H34.474a1.3,1.3,0,0,1,1.293,1.293V129.1c0,2.361-4.154,3.666-8.746,3.915" transform="translate(0 -76.075)" fill="none" stroke="#1b2444" stroke-linecap="round" stroke-linejoin="round" stroke-miterlimit="22.926" stroke-width="1" fill-rule="evenodd"/>
    <path id="Path_49049" data-name="Path 49049" d="M219,286.75h3.188v1.486a1.491,1.491,0,0,1-1.486,1.486h-.215A1.491,1.491,0,0,1,219,288.236Z" transform="translate(-195.211 -231.095)" fill="none" stroke="#1b2444" stroke-linecap="round" stroke-linejoin="round" stroke-miterlimit="22.926" stroke-width="1" fill-rule="evenodd"/>
  </g>
</svg>
