<svg width="395" height="360" viewBox="0 0 395 360" fill="none" xmlns="http://www.w3.org/2000/svg">
<path d="M374.801 301.513H343.586V301.805H374.801V301.513Z" fill="#E0E0E0"/>
<path d="M262.86 304.234H254.656V304.525H262.86V304.234Z" fill="#EBEBEB"/>
<path d="M342.643 292.575H324.536V292.866H342.643V292.575Z" fill="#E0E0E0"/>
<path d="M40.7713 294.129H0.0313721V294.421H40.7713V294.129Z" fill="#E0E0E0"/>
<path d="M55.1057 294.129H49.1644V294.421H55.1057V294.129Z" fill="#E0E0E0"/>
<path d="M162.896 298.307H74.5323V298.598H162.896V298.307Z" fill="#E0E0E0"/>
<path d="M51.999 203.271C51.5275 203.271 51.056 202.883 50.9616 202.397L50.3015 194.139L58.3175 193.459C58.789 193.459 59.2605 193.847 59.3548 194.333C59.3548 194.819 58.9776 195.305 58.5061 195.402L52.2819 195.985L52.8478 202.397C52.9421 202.689 52.5648 203.174 51.999 203.271Z" fill="#E0E0E0"/>
<path d="M90.2869 199.774C89.8154 199.774 89.3439 199.386 89.2496 198.9L88.6838 192.488L82.4596 193.071C81.9881 193.071 81.5165 192.682 81.4222 192.196C81.4222 191.71 81.7995 191.225 82.271 191.127L90.2869 190.447L90.9471 198.706C91.1357 199.289 90.7585 199.774 90.2869 199.774Z" fill="#E0E0E0"/>
<path d="M97.2197 235.43L89.2037 236.11C88.7322 236.11 88.2607 235.722 88.1664 235.236C88.1664 234.75 88.5436 234.264 89.0151 234.167L95.2393 233.584L94.6735 227.172C94.6735 226.686 95.0507 226.2 95.5222 226.103C95.9937 226.103 96.4653 226.492 96.5596 226.978L97.2197 235.43Z" fill="#E0E0E0"/>
<path d="M60.0607 238.232L52.0448 238.912L51.3846 230.654C51.3846 230.168 51.7619 229.682 52.2334 229.585C52.7049 229.585 53.1764 229.974 53.2708 230.46L53.8366 236.872L60.0607 236.289C60.5323 236.289 61.0038 236.678 61.0981 237.163C60.9095 237.746 60.5323 238.232 60.0607 238.232Z" fill="#E0E0E0"/>
<path d="M94.4725 232.442C93.7103 223.018 84.2774 219.521 73.1296 220.492C61.9817 221.464 53.3111 226.613 54.1686 236.037L94.4725 232.442Z" fill="#DBE3ED"/>
<path d="M72.8436 216.217C77.9887 215.731 79.7038 211.262 79.2274 206.016C78.751 200.769 76.369 196.689 71.2238 197.077C66.0786 197.563 64.3635 202.032 64.8399 207.279C65.2211 212.622 67.6031 216.703 72.8436 216.217Z" fill="#DBE3ED"/>
<path d="M311.376 9.83923C311.658 12.7539 309.489 15.2799 306.755 15.5714C303.925 15.8629 301.473 13.6283 301.191 10.8108C300.908 7.89612 303.077 5.37007 305.811 5.0786C308.641 4.78714 311.093 6.92456 311.376 9.83923Z" fill="#DBE3ED"/>
<path d="M339.761 7.31292C340.044 10.2276 337.875 12.7536 335.141 13.0451C332.311 13.3366 329.859 11.102 329.576 8.28448C329.294 5.36981 331.463 2.84376 334.197 2.5523C337.027 2.26083 339.479 4.39825 339.761 7.31292Z" fill="#DBE3ED"/>
<path d="M368.053 4.78722C368.336 7.70189 366.167 10.2279 363.432 10.5194C360.697 10.8109 358.151 8.57629 357.868 5.75878C357.585 2.84411 359.754 0.318067 362.489 0.0266002C365.318 -0.264867 367.865 1.87255 368.053 4.78722Z" fill="#DBE3ED"/>
<path d="M313.922 39.6658C314.205 42.5805 312.036 45.1065 309.301 45.398C306.472 45.6895 304.02 43.4549 303.737 40.6374C303.454 37.7227 305.623 35.1967 308.358 34.9052C311.187 34.6137 313.639 36.7512 313.922 39.6658Z" fill="#DBE3ED"/>
<path d="M342.308 37.043C342.591 39.9577 340.422 42.4837 337.687 42.7752C334.858 43.0667 332.406 40.8321 332.123 38.0146C331.84 35.0999 334.009 32.5739 336.744 32.2824C339.573 31.9909 342.025 34.1284 342.308 37.043Z" fill="#DBE3ED"/>
<path d="M370.6 34.5167C370.883 37.4313 368.714 39.9574 365.979 40.2488C363.15 40.5403 360.698 38.3057 360.415 35.4882C360.132 32.6707 362.301 30.0475 365.036 29.756C367.865 29.4646 370.411 31.602 370.6 34.5167Z" fill="#DBE3ED"/>
<path d="M316.468 69.3953C316.751 72.31 314.582 74.836 311.847 75.1275C309.018 75.419 306.566 73.1844 306.283 70.3669C306 67.4522 308.169 64.9262 310.904 64.6347C313.733 64.3432 316.185 66.4807 316.468 69.3953Z" fill="#DBE3ED"/>
<path d="M344.76 66.869C345.043 69.7837 342.874 72.3097 340.139 72.6012C337.31 72.8927 334.858 70.6581 334.575 67.8406C334.292 64.9259 336.461 62.3999 339.196 62.1084C342.025 61.8169 344.571 63.9543 344.76 66.869Z" fill="#DBE3ED"/>
<path d="M373.145 64.3433C373.428 67.258 371.259 69.784 368.524 70.0755C365.695 70.367 363.243 68.1324 362.96 65.3149C362.677 62.4974 364.847 59.8742 367.581 59.5827C370.411 59.2912 372.862 61.4286 373.145 64.3433Z" fill="#DBE3ED"/>
<path d="M367.016 65.9953L308.735 71.2417L360.415 6.53603L307.509 11.3938C306.849 11.491 306.378 11.0052 306.283 10.3251C306.189 9.64501 306.66 9.15923 307.321 9.06208L365.601 3.81567L313.922 68.5213L366.827 63.7607C367.487 63.6635 367.959 64.1493 368.053 64.8294C368.148 65.4123 367.676 65.9953 367.016 65.9953Z" fill="#DBE3ED"/>
<path d="M358.869 204.17C358.681 203.587 358.209 203.199 357.549 203.101C354.909 202.907 352.645 201.838 350.853 199.993C348.496 197.564 347.175 193.872 346.893 189.597C346.893 188.82 346.232 188.14 345.384 188.14C344.535 188.14 343.781 188.917 343.875 189.791C344.158 194.94 345.855 199.312 348.684 202.227C350.948 204.559 353.777 205.919 357.078 206.21C357.172 206.21 357.172 206.21 357.266 206.21C358.398 206.308 359.152 205.142 358.869 204.17Z" fill="#DBE3ED"/>
<path d="M355.852 222.727C343.309 221.561 334.35 212.817 331.521 199.118C331.332 198.243 331.898 197.369 332.747 197.272C333.501 197.175 334.35 197.661 334.445 198.438C336.991 210.777 345.007 218.646 356.135 219.618C368.3 220.686 381.409 212.428 383.766 191.637C383.861 190.762 384.615 190.18 385.369 190.277C386.218 190.374 386.878 191.151 386.784 192.025C384.426 211.651 371.884 224.184 355.852 222.727Z" fill="#DBE3ED"/>
<path d="M332.275 185.516C331.427 185.419 330.766 184.642 330.861 183.767C333.124 164.142 345.667 151.609 361.699 152.969C375.844 154.232 385.275 165.113 386.784 181.533C386.878 182.407 386.218 183.184 385.369 183.184C384.52 183.282 383.86 182.601 383.766 181.727C382.446 166.959 373.958 157.147 361.416 156.078C349.25 155.009 336.142 163.267 333.784 184.059C333.784 184.933 333.03 185.613 332.275 185.516Z" fill="#DBE3ED"/>
<path d="M356.418 214.469C354.06 214.275 351.891 213.692 349.911 212.817C349.062 212.429 348.779 211.457 349.156 210.68C349.533 210 350.382 209.708 351.042 210C352.928 210.874 355.003 211.36 357.266 211.457C366.508 212.04 376.222 205.239 377.259 189.014C377.825 179.007 374.524 170.846 368.3 166.96C367.64 166.571 367.357 165.697 367.734 164.919C368.112 164.142 369.149 163.754 369.903 164.239C377.071 168.709 380.937 177.841 380.277 189.111C379.334 204.85 369.809 215.246 357.172 214.469C356.889 214.469 356.701 214.469 356.418 214.469Z" fill="#DBE3ED"/>
<path d="M343.026 204.753C342.272 205.239 341.329 205.044 340.857 204.267C338.217 199.506 336.896 193.386 337.274 186.779C338.122 171.72 346.893 161.519 358.775 161.324C359.624 161.324 360.378 162.102 360.284 162.976C360.284 163.753 359.624 164.433 358.775 164.433C350.005 164.628 341.14 171.428 340.197 186.973C339.82 192.997 340.952 198.535 343.309 202.81C343.875 203.393 343.686 204.267 343.026 204.753Z" fill="#DBE3ED"/>
<path d="M363.585 203.491C363.302 202.811 363.585 201.936 364.245 201.548C368.206 199.119 370.658 193.969 370.658 187.654C370.658 182.699 369.243 178.425 366.697 175.801C364.717 173.761 362.17 172.692 359.058 172.692C354.437 172.692 350.665 175.316 348.59 179.979C348.307 180.659 347.459 181.048 346.704 180.756C345.855 180.465 345.478 179.493 345.855 178.619C348.402 172.984 353.306 169.583 359.058 169.583C362.925 169.583 366.32 170.944 368.866 173.567C371.978 176.87 373.77 181.825 373.676 187.654C373.581 195.038 370.658 201.159 365.754 204.171C364.999 204.657 363.962 204.365 363.585 203.491Z" fill="#DBE3ED"/>
<path d="M352.74 192.026C351.891 192.414 350.948 191.831 350.665 190.957C350.571 190.568 350.477 190.082 350.382 189.694C349.534 183.865 352.551 178.812 357.455 177.938C360.001 177.452 362.171 178.035 363.962 179.687C364.622 180.367 364.622 181.436 363.868 182.019L363.774 182.116C363.208 182.504 362.453 182.407 361.888 182.019C360.85 181.144 359.53 180.756 358.021 181.047C354.343 181.727 352.929 185.71 353.4 189.305C353.494 189.694 353.494 189.985 353.589 190.277C353.777 190.957 353.494 191.734 352.74 192.026Z" fill="#DBE3ED"/>
<path d="M357.738 198.05C356.701 197.952 356.135 196.787 356.701 195.815L356.795 195.621C357.078 195.135 357.549 194.941 358.115 194.941C358.587 194.941 359.058 194.941 359.53 194.844C362.736 194.261 364.245 191.152 364.245 187.945C364.245 187.168 364.811 186.488 365.565 186.391C366.414 186.294 367.263 186.974 367.263 187.848C367.357 192.9 364.434 197.078 360.096 197.952C359.247 198.05 358.492 198.147 357.738 198.05Z" fill="#DBE3ED"/>
<path d="M358.398 192.317C356.795 192.22 355.569 191.054 355.192 189.5C354.909 188.626 355.663 187.654 356.606 187.751H356.983C357.549 187.751 357.926 188.14 358.115 188.723C358.209 189.014 358.398 189.208 358.681 189.208C359.435 189.306 359.53 188.237 359.53 187.945C359.53 187.751 359.53 187.168 359.341 186.877C359.058 186.488 358.964 186.099 358.964 185.711C359.058 184.351 360.756 183.768 361.604 184.836C362.264 185.711 362.642 186.877 362.547 188.237C362.359 190.763 360.567 192.512 358.398 192.317Z" fill="#DBE3ED"/>
<path d="M330.012 157.535C329.163 157.438 328.597 156.661 328.597 155.884L329.729 142.379L342.837 143.545C343.686 143.642 344.252 144.419 344.252 145.196C344.158 146.071 343.403 146.654 342.649 146.654L332.558 145.779L331.709 156.175C331.615 156.952 330.86 157.632 330.012 157.535Z" fill="#DBE3ED"/>
<path d="M392.253 163.17C391.404 163.073 390.839 162.296 390.839 161.519L391.687 151.123L381.597 150.249C380.748 150.151 380.182 149.374 380.182 148.597C380.276 147.722 381.031 147.14 381.785 147.14L394.894 148.305L393.762 161.81C393.762 162.587 393.008 163.17 392.253 163.17Z" fill="#DBE3ED"/>
<path d="M387.538 235.552L374.43 234.386C373.581 234.289 373.015 233.511 373.015 232.734C373.11 231.86 373.864 231.277 374.619 231.277L384.709 232.151L385.558 221.756C385.652 220.881 386.407 220.298 387.161 220.298C388.01 220.395 388.576 221.173 388.576 221.95L387.538 235.552Z" fill="#DBE3ED"/>
<path d="M335.482 230.888L322.373 229.722L323.505 216.218C323.599 215.343 324.354 214.76 325.108 214.76C325.957 214.858 326.523 215.635 326.523 216.412L325.674 226.808L335.765 227.682C336.613 227.779 337.179 228.557 337.179 229.334C337.085 230.305 336.33 230.985 335.482 230.888Z" fill="#DBE3ED"/>
<path d="M71.7977 57.6838L41.0542 60.5013L40.394 53.1175C39.7339 45.4422 45.2979 38.6413 52.748 37.9612C60.1981 37.2811 66.7995 43.0133 67.4597 50.6886L67.8369 54.9634L72.2692 54.5748L71.892 50.2999C71.0433 40.0015 62.2729 32.4233 52.3708 33.2977C42.4687 34.1721 35.1129 43.2076 35.9617 53.4089L36.6218 60.8899C33.0382 61.57 30.4919 64.9704 30.7749 68.8567L32.9439 94.7001C33.3211 98.7806 36.8104 101.792 40.7712 101.501L75.1927 98.392C79.1535 98.0033 82.077 94.4086 81.7941 90.3281L79.6251 64.4847C79.2478 60.307 75.7585 57.2952 71.7977 57.6838ZM58.6893 77.6007L59.4437 86.539C59.538 87.9963 58.5006 89.2593 57.0861 89.4537C55.6715 89.5508 54.4455 88.4821 54.2569 87.0248L53.5025 78.0864C52.3708 77.4064 51.522 76.1433 51.4277 74.686C51.2391 72.2571 53.0309 70.0225 55.3886 69.8282C57.7462 69.6339 59.9152 71.4799 60.1038 73.9088C60.2924 75.3661 59.7266 76.7263 58.6893 77.6007Z" fill="#DBE3ED"/>
<path d="M133.429 76.0127L130.317 70.7663C128.619 70.9606 127.299 70.9606 125.602 70.7663L122.489 76.0127L121.924 75.8183C119.943 75.2354 117.963 74.4582 116.171 73.3895L115.605 73.098L116.925 67.463C117.02 66.9772 117.491 66.6857 117.963 66.7829C118.434 66.88 118.717 67.3658 118.623 67.8516L117.586 72.3207C118.906 73.098 120.32 73.6809 121.829 74.1667L124.847 69.0175L125.413 69.1146C127.205 69.4061 128.997 69.4061 130.694 69.1146L131.26 69.0175L134.278 74.1667C135.692 73.6809 137.107 73.098 138.521 72.3207L137.201 66.4914L137.673 66.1999C138.899 65.3255 140.03 64.1597 140.973 62.9938C141.256 62.6052 141.728 62.508 142.105 62.7995C142.482 63.091 142.577 63.6739 142.294 63.9654C141.351 65.1312 140.313 66.2971 139.087 67.1715L140.502 73.098L139.936 73.3895C138.144 74.4582 136.164 75.3326 134.183 75.8183L133.429 76.0127ZM114.379 64.6454C114.096 64.354 113.908 64.0625 113.625 63.6739L107.872 65.1312L107.589 64.5483C106.552 62.7023 105.703 60.6621 105.232 58.6218L105.043 58.0389L110.135 54.8327C110.041 53.9583 109.947 53.1811 109.947 52.4038C109.947 51.6266 110.041 50.8494 110.135 49.975L105.043 46.7688L105.232 46.1859C105.797 44.1456 106.552 42.1053 107.589 40.2594L107.872 39.6765L113.625 41.1338C114.568 39.8708 115.699 38.7049 117.02 37.6362L115.982 33.167C115.888 32.6813 116.171 32.2926 116.548 32.0983C117.02 32.0012 117.397 32.2926 117.586 32.6813L118.906 38.3163L118.434 38.6077C117.02 39.6765 115.699 41.0366 114.662 42.494L114.379 42.9798L108.721 41.6196C107.966 42.9798 107.401 44.4371 106.929 45.9916L111.927 49.1006L111.833 49.6835C111.644 50.655 111.644 51.6266 111.644 52.4038C111.644 53.2782 111.739 54.1526 111.833 55.1242L111.927 55.7071L106.929 58.8161C107.401 60.2734 107.966 61.7308 108.721 63.1881L114.379 61.8279L114.662 62.3137C114.945 62.7995 115.322 63.1881 115.605 63.5767C115.888 63.8682 115.888 64.4511 115.605 64.7426C115.228 65.0341 114.662 65.0341 114.379 64.6454ZM148.141 65.1312L145.971 64.6454C145.5 64.5483 145.217 64.0625 145.311 63.5767C145.406 63.091 145.877 62.7995 146.349 62.8967L147.292 63.091C148.046 61.7308 148.612 60.2734 149.084 58.719L144.085 55.61L144.18 55.027C144.368 54.0555 144.368 53.0839 144.368 52.3067C144.368 51.4323 144.274 50.5579 144.18 49.5863L144.085 49.0034L149.084 45.8944C148.612 44.4371 148.046 42.9798 147.292 41.5224L141.633 42.8826L141.351 42.3968C140.313 40.9395 138.993 39.5793 137.578 38.5106L137.107 38.2191L138.427 32.3898C137.107 31.6125 135.692 31.0296 134.183 30.5438L131.166 35.7902L130.6 35.6931C128.808 35.4016 127.016 35.4016 125.319 35.6931L124.753 35.7902L121.735 30.641C121.546 30.7381 121.358 30.7381 121.169 30.8353C120.792 30.9325 120.32 30.7381 120.132 30.3495C119.943 29.8637 120.226 29.378 120.603 29.2808C120.981 29.1837 121.452 28.9893 121.829 28.8922L122.395 28.6979L125.507 33.9443C127.205 33.75 128.525 33.75 130.223 33.9443L133.335 28.6979L133.9 28.8922C135.881 29.4751 137.861 30.2524 139.653 31.3211L140.219 31.6125L138.804 37.539C140.03 38.5106 141.162 39.6765 142.199 41.0366L148.141 39.6765L148.423 40.2594C149.461 42.1053 150.31 44.1456 150.781 46.1859L150.97 46.7688L145.877 49.975C145.972 50.8494 146.066 51.6266 146.066 52.4038C146.066 53.1811 145.972 53.9583 145.877 54.8327L150.97 58.0389L150.781 58.6218C150.215 60.6621 149.461 62.7023 148.423 64.5483L148.141 65.1312ZM127.771 60.6621C123.527 60.5649 120.038 56.9702 119.943 52.5982C119.849 48.2262 122.961 44.5342 127.11 44.0485C127.582 43.9513 128.053 44.4371 128.053 44.9229C128.053 45.3115 127.771 45.7001 127.299 45.7973C123.715 46.1859 120.981 49.7806 121.735 53.6669C122.207 56.2901 124.281 58.3303 126.733 58.8161C130.883 59.6905 134.466 56.3872 134.466 52.3067C134.466 50.9465 134.089 49.5863 133.335 48.5176C133.052 48.129 133.146 47.6432 133.429 47.4489C133.806 47.1574 134.372 47.1574 134.655 47.6432C135.598 49.0034 136.069 50.655 136.069 52.4038C136.069 57.0673 132.297 60.8564 127.771 60.6621Z" fill="#DBE3ED"/>
<path d="M83.6861 149.665L81.7057 146.265C80.574 146.459 79.7253 146.459 78.5936 146.265L76.6132 149.665L76.236 149.568C74.9157 149.179 73.6897 148.694 72.5581 148.014L72.1809 147.819L73.0296 144.127C73.1239 143.836 73.4068 143.642 73.6897 143.739C73.9727 143.836 74.1613 144.127 74.067 144.419L73.4068 147.236C74.2556 147.722 75.1986 148.111 76.1417 148.402L78.1221 145.099L78.4993 145.196C79.631 145.39 80.7626 145.39 81.8943 145.196L82.2715 145.099L84.2519 148.402C85.195 148.111 86.1381 147.722 86.9868 147.236L86.1381 143.447L86.421 143.253C87.1754 142.67 87.9299 141.99 88.4957 141.213C88.6843 141.018 88.9672 140.921 89.2501 141.116C89.533 141.31 89.5331 141.698 89.3444 141.893C88.7786 142.67 88.0242 143.35 87.2697 143.933L88.1185 147.819L87.7412 148.014C86.6096 148.694 85.2893 149.277 84.0633 149.568L83.6861 149.665ZM71.4264 142.379C71.2378 142.184 71.0492 141.99 70.9549 141.796L67.1827 142.67L66.9941 142.281C66.3339 141.116 65.7681 139.755 65.4852 138.492L65.3909 138.104L68.6916 136.063C68.5973 135.481 68.5973 134.995 68.5973 134.509C68.5973 134.023 68.5973 133.537 68.6916 132.954L65.3909 130.914L65.4852 130.526C65.8624 129.165 66.3339 127.902 66.9941 126.736L67.1827 126.348L70.9549 127.222C71.615 126.348 72.2752 125.668 73.1239 124.988L72.4638 122.073C72.3695 121.782 72.5581 121.49 72.841 121.393C73.1239 121.296 73.4068 121.49 73.5011 121.782L74.3499 125.376L74.067 125.571C73.1239 126.251 72.2752 127.125 71.615 128.097L71.4264 128.388L67.7485 127.514C67.277 128.388 66.8998 129.36 66.6168 130.331L69.8232 132.372L69.7289 132.76C69.6346 133.44 69.5403 134.023 69.5403 134.509C69.5403 135.092 69.6346 135.675 69.7289 136.258L69.8232 136.646L66.6168 138.687C66.8998 139.658 67.277 140.63 67.7485 141.504L71.4264 140.63L71.615 140.921C71.8036 141.213 71.9922 141.504 72.2752 141.698C72.4638 141.893 72.4638 142.281 72.2752 142.476C71.8979 142.573 71.615 142.573 71.4264 142.379ZM93.1167 142.67L91.7021 142.379C91.4192 142.281 91.2305 141.99 91.3249 141.698C91.4192 141.407 91.7021 141.213 91.985 141.31L92.5508 141.504C93.0223 140.63 93.3996 139.658 93.6825 138.687L90.4761 136.646L90.5704 136.258C90.6647 135.578 90.759 134.995 90.759 134.509C90.759 133.926 90.6647 133.343 90.5704 132.76L90.4761 132.372L93.6825 130.331C93.3996 129.36 93.0223 128.388 92.5508 127.514L88.8729 128.388L88.6843 128.097C88.0242 127.125 87.1754 126.251 86.2324 125.571L85.9494 125.376L86.7982 121.587C85.9494 121.101 85.0064 120.713 84.0633 120.421L82.0829 123.725L81.7057 123.628C80.574 123.433 79.4424 123.433 78.3107 123.628L77.9335 123.725L75.9531 120.421C75.8588 120.421 75.6702 120.519 75.5758 120.519C75.2929 120.616 75.01 120.421 74.9157 120.227C74.8214 119.936 74.9157 119.644 75.1986 119.547C75.4815 119.45 75.7645 119.353 76.0474 119.256L76.4246 119.158L78.405 122.559C79.5367 122.364 80.3854 122.364 81.5171 122.559L83.4975 119.158L83.8747 119.256C85.195 119.644 86.421 120.13 87.5526 120.81L87.9299 121.004L87.0811 124.891C87.9299 125.571 88.59 126.251 89.2501 127.125L93.0223 126.251L93.211 126.639C93.8711 127.805 94.4369 129.165 94.7198 130.428L94.8141 130.817L91.5135 132.857C91.6078 133.44 91.6078 133.926 91.6078 134.412C91.6078 134.898 91.6078 135.383 91.5135 135.966L94.8141 138.007L94.7198 138.395C94.3426 139.755 93.8711 141.018 93.211 142.184L93.1167 142.67ZM80.0082 139.755C77.2733 139.658 75.01 137.326 74.9157 134.509C74.8214 131.691 76.8961 129.36 79.5367 128.971C79.8196 128.971 80.1025 129.165 80.1025 129.554C80.1025 129.845 79.9139 130.04 79.631 130.137C77.2733 130.428 75.5758 132.663 76.0474 135.286C76.3303 136.938 77.6506 138.298 79.2538 138.589C81.8943 139.075 84.2519 137.035 84.2519 134.412C84.2519 133.537 83.969 132.663 83.4975 131.983C83.3089 131.789 83.4032 131.4 83.5918 131.303C83.8747 131.108 84.2519 131.109 84.3463 131.4C84.9121 132.274 85.2893 133.343 85.2893 134.509C85.3836 137.424 82.9317 139.852 80.0082 139.755Z" fill="#DBE3ED"/>
<path d="M186.867 360C287.857 360 369.726 355.085 369.726 349.021C369.726 342.958 287.857 338.043 186.867 338.043C85.8777 338.043 4.00934 342.958 4.00934 349.021C4.00934 355.085 85.8777 360 186.867 360Z" fill="#E8F0FA"/>
<path d="M293.227 56.0978H262.484L240.793 311.811H271.537C280.307 311.811 288.04 304.525 288.795 295.489L307.75 72.3228C308.505 63.3845 301.998 56.0978 293.227 56.0978Z" fill="#455A64"/>
<path d="M287.003 56.0977H183.078C174.308 56.0977 166.575 63.3844 165.82 72.4199L146.865 295.586C146.111 304.622 152.618 311.908 161.294 311.908H265.218C273.989 311.908 281.722 304.622 282.476 295.586L301.432 72.4199C302.186 63.3844 295.773 56.0977 287.003 56.0977Z" fill="#567685"/>
<path opacity="0.3" d="M286.98 56.1781H183.056C174.285 56.1781 166.552 63.4648 165.798 72.5002L146.843 295.667C146.088 304.702 152.595 311.989 161.271 311.989H265.196C273.966 311.989 281.699 304.702 282.454 295.667L301.409 72.5002C302.164 63.4648 295.751 56.1781 286.98 56.1781Z" fill="#4D626C"/>
<path d="M286.532 61.3448H259.089C257.486 61.3448 255.977 62.4136 255.317 64.0652C253.148 69.9917 247.489 73.9751 241.548 73.9751H225.327C219.386 73.9751 214.388 69.8945 213.256 64.0652C212.973 62.5107 211.559 61.3448 209.956 61.3448H182.513C176.572 61.3448 171.29 66.2998 170.819 72.4206L151.864 295.587C151.298 301.708 155.73 306.663 161.671 306.663H265.596C271.537 306.663 276.818 301.708 277.29 295.587L296.245 72.4206C296.905 66.2998 292.473 61.3448 286.532 61.3448Z" fill="#E6EFFA"/>
<path d="M260.692 182.497H187.982C185.813 182.497 184.21 180.651 184.399 178.514L184.776 174.239C184.965 172.005 186.851 170.256 189.02 170.256H261.729C263.898 170.256 265.501 172.102 265.313 174.239L264.936 178.514C264.747 180.749 262.861 182.497 260.692 182.497Z" fill="white"/>
<path d="M259.089 200.957H186.379C184.21 200.957 182.607 199.111 182.796 196.974L183.173 192.699C183.362 190.464 185.248 188.715 187.417 188.715H260.126C262.295 188.715 263.898 190.561 263.71 192.699L263.333 196.974C263.144 199.208 261.258 200.957 259.089 200.957Z" fill="white"/>
<path opacity="0.1" d="M238.624 65.5226C238.435 67.9515 236.266 69.9918 233.909 69.9918C231.551 69.9918 229.759 67.9515 229.948 65.5226C230.136 63.0937 232.305 61.0535 234.663 61.0535C237.021 61.0535 238.812 62.9966 238.624 65.5226Z" fill="black"/>
<path opacity="0.1" d="M236.644 65.522C236.549 66.8821 235.418 67.9509 234.097 67.9509C232.777 67.9509 231.834 66.8821 231.928 65.522C232.023 64.1618 233.154 63.0931 234.475 63.0931C235.795 62.9959 236.738 64.1618 236.644 65.522Z" fill="black"/>
<g opacity="0.8">
<path d="M273.8 72.9054C273.14 72.9054 272.574 72.3224 272.669 71.6424L272.857 69.2135C272.952 68.5334 273.517 67.9504 274.272 67.9504C274.932 67.9504 275.498 68.5334 275.403 69.2135L275.215 71.6424C275.121 72.3224 274.46 72.9054 273.8 72.9054Z" fill="#BACBDF"/>
<path d="M283.891 72.9051C283.231 72.9051 282.665 72.3222 282.76 71.6421L283.231 66.0071C283.325 65.327 283.891 64.7441 284.646 64.7441C285.306 64.7441 285.872 65.327 285.777 66.0071L285.306 71.6421C285.212 72.3222 284.646 72.9051 283.891 72.9051Z" fill="#BACBDF"/>
<path d="M278.799 72.9049C278.139 72.9049 277.573 72.322 277.667 71.6419L278.045 67.6585C278.139 66.9784 278.705 66.3955 279.459 66.3955C280.119 66.3955 280.685 66.9784 280.591 67.6585L280.214 71.6419C280.119 72.322 279.554 72.9049 278.799 72.9049Z" fill="#BACBDF"/>
</g>
<g opacity="0.8">
<path d="M186.851 72.9057H180.438C180.061 72.9057 179.778 72.6143 179.778 72.1285L180.061 68.6309C180.061 68.2423 180.438 67.8536 180.815 67.8536H187.228C187.605 67.8536 187.888 68.1451 187.888 68.6309L187.605 72.1285C187.605 72.6143 187.322 72.9057 186.851 72.9057Z" fill="#BACBDF"/>
<path d="M189.869 71.934C189.492 71.934 189.209 71.6425 189.209 71.1567L189.303 69.5051C189.303 69.1165 189.68 68.7278 190.058 68.7278C190.435 68.7278 190.718 69.0193 190.718 69.5051L190.623 71.1567C190.623 71.6425 190.246 71.934 189.869 71.934Z" fill="#BACBDF"/>
</g>
<path d="M248.704 154.34C261.384 141.836 262.641 121.989 251.512 110.012C240.383 98.0344 221.083 98.4613 208.403 110.965C195.723 123.47 194.466 143.316 205.595 155.293C216.724 167.271 236.025 166.844 248.704 154.34Z" fill="white"/>
<path d="M228.628 131.393C220.612 131.393 213.917 134.502 213.256 141.303L212.596 148.881H241.548L242.208 141.303C242.868 134.6 236.644 131.393 228.628 131.393Z" fill="#F45C37"/>
<path d="M228.911 128.285C232.589 128.285 234.381 125.176 234.664 121.387C234.947 117.598 233.815 114.489 230.043 114.489C226.365 114.489 224.573 117.598 224.29 121.387C224.007 125.176 225.233 128.285 228.911 128.285Z" fill="#F45C37"/>
<path d="M257.391 176.086C255.411 176.086 253.713 176.863 253.619 178.515L253.43 180.361H260.597L260.786 178.515C260.88 176.863 259.371 176.086 257.391 176.086Z" fill="#455A64"/>
<path d="M257.391 175.308C258.334 175.308 258.711 174.531 258.805 173.559C258.9 172.588 258.617 171.81 257.674 171.81C256.731 171.81 256.353 172.588 256.259 173.559C256.165 174.628 256.542 175.308 257.391 175.308Z" fill="#455A64"/>
<path d="M235.324 219.514H207.032C203.732 219.514 201.28 216.794 201.563 213.393C201.845 209.993 204.769 207.272 208.07 207.272H236.361C239.662 207.272 242.114 209.993 241.831 213.393C241.548 216.696 238.625 219.514 235.324 219.514Z" fill="#FF491D"/>
<path d="M228.447 282.897H205.571C202.935 282.897 201.011 280.739 201.224 278.077L202.65 261.246C202.863 258.584 205.215 256.426 207.852 256.426H230.727C233.364 256.426 235.288 258.584 235.074 261.246L233.649 278.077C233.364 280.739 231.084 282.897 228.447 282.897Z" fill="#1C3968"/>
<g opacity="0.6">
<path d="M221.515 265.633C221.656 264.032 220.456 262.723 218.902 262.723C217.348 262.723 215.936 264.032 215.794 265.633C215.724 266.579 216.077 267.452 216.783 267.961L216.289 273.855C216.218 274.8 216.924 275.601 217.842 275.601C218.761 275.601 219.608 274.8 219.679 273.855L220.173 267.961C220.879 267.379 221.444 266.579 221.515 265.633Z" fill="white"/>
</g>
<path d="M230.978 259.958H228.082L228.789 251.518C229.212 246.424 225.54 242.35 220.667 242.35C215.794 242.35 211.415 246.497 210.991 251.518L210.285 259.958H207.39L208.096 251.518C208.661 244.824 214.452 239.294 220.949 239.294C227.447 239.294 232.32 244.751 231.755 251.518L230.978 259.958Z" fill="#1C3968"/>
<path d="M257.863 193.379L257.957 192.31C258.051 191.241 257.297 190.27 256.165 190.27C255.128 190.27 254.185 191.144 254.09 192.31L253.996 193.379C253.525 193.379 253.147 193.767 253.147 194.156L252.865 197.071C252.865 197.556 253.147 197.848 253.619 197.848H257.485C257.957 197.848 258.334 197.459 258.334 197.071L258.617 194.156C258.617 193.67 258.24 193.379 257.863 193.379ZM256.071 190.756C256.92 190.756 257.485 191.436 257.391 192.31L257.297 193.379H254.373L254.468 192.31C254.562 191.436 255.316 190.756 256.071 190.756Z" fill="#455A64"/>
<path d="M199.299 194.544L197.979 194.253C197.79 194.253 197.696 194.059 197.79 193.864L198.356 192.504C198.45 192.213 198.167 192.018 197.884 192.213L196.847 193.281C196.753 193.379 196.564 193.379 196.47 193.281L195.621 192.213C195.432 192.018 195.055 192.213 195.149 192.504L195.527 193.864C195.527 194.059 195.432 194.156 195.244 194.253L193.829 194.544C193.546 194.642 193.452 195.03 193.735 195.127L195.055 195.419C195.244 195.419 195.338 195.613 195.244 195.807L194.772 197.07C194.678 197.362 194.961 197.556 195.244 197.362L196.281 196.293C196.375 196.196 196.564 196.196 196.658 196.293L197.507 197.362C197.696 197.556 198.073 197.362 197.979 197.07L197.601 195.71C197.601 195.516 197.696 195.419 197.884 195.322L199.299 195.03C199.582 195.03 199.676 194.544 199.299 194.544Z" fill="#263238"/>
<path d="M208.258 194.544L206.938 194.253C206.749 194.253 206.655 194.058 206.749 193.864L207.315 192.504C207.409 192.212 207.126 192.018 206.843 192.212L205.806 193.281C205.712 193.378 205.523 193.378 205.429 193.281L204.58 192.212C204.392 192.018 204.014 192.212 204.109 192.504L204.486 193.864C204.486 194.058 204.392 194.156 204.203 194.253L202.788 194.544C202.505 194.641 202.411 195.03 202.694 195.127L204.014 195.419C204.203 195.419 204.297 195.613 204.203 195.807L203.637 197.167C203.543 197.459 203.826 197.653 204.109 197.459L205.146 196.39C205.24 196.293 205.429 196.293 205.523 196.39L206.372 197.459C206.561 197.653 206.938 197.459 206.843 197.167L206.466 195.807C206.466 195.613 206.561 195.516 206.749 195.419L208.164 195.127C208.541 195.03 208.541 194.544 208.258 194.544Z" fill="#263238"/>
<path d="M217.217 194.544L215.897 194.253C215.708 194.253 215.614 194.058 215.708 193.864L216.274 192.504C216.369 192.212 216.086 192.018 215.803 192.212L214.765 193.281C214.671 193.378 214.482 193.378 214.388 193.281L213.539 192.212C213.351 192.018 212.974 192.212 213.068 192.504L213.445 193.864C213.445 194.058 213.351 194.156 213.162 194.253L211.748 194.544C211.465 194.641 211.37 195.03 211.653 195.127L212.974 195.419C213.162 195.419 213.256 195.613 213.162 195.807L212.596 197.167C212.502 197.459 212.785 197.653 213.068 197.459L214.105 196.39C214.199 196.293 214.388 196.293 214.482 196.39L215.331 197.459C215.52 197.653 215.897 197.459 215.803 197.167L215.425 195.807C215.425 195.613 215.52 195.516 215.708 195.419L217.123 195.127C217.406 195.03 217.5 194.544 217.217 194.544Z" fill="#263238"/>
<path d="M226.082 194.544L224.762 194.253C224.573 194.253 224.479 194.058 224.573 193.864L225.139 192.504C225.233 192.212 224.95 192.018 224.667 192.212L223.63 193.281C223.536 193.378 223.347 193.378 223.253 193.281L222.404 192.212C222.215 192.018 221.838 192.212 221.933 192.504L222.31 193.864C222.31 194.058 222.215 194.156 222.027 194.253L220.612 194.544C220.329 194.641 220.235 195.03 220.518 195.127L221.838 195.419C222.027 195.419 222.121 195.613 222.027 195.807L221.461 197.167C221.367 197.459 221.65 197.653 221.933 197.459L222.97 196.39C223.064 196.293 223.253 196.293 223.347 196.39L224.196 197.459C224.385 197.653 224.762 197.459 224.667 197.167L224.29 195.807C224.29 195.613 224.385 195.516 224.573 195.419L225.988 195.127C226.365 195.03 226.365 194.544 226.082 194.544Z" fill="#263238"/>
<path d="M235.041 194.544L233.72 194.253C233.532 194.253 233.437 194.058 233.532 193.864L234.097 192.504C234.192 192.212 233.909 192.018 233.626 192.212L232.589 193.281C232.494 193.378 232.306 193.378 232.211 193.281L231.363 192.212C231.174 192.018 230.797 192.212 230.891 192.504L231.268 193.864C231.268 194.058 231.174 194.156 230.985 194.253L229.571 194.544C229.288 194.641 229.194 195.03 229.476 195.127L230.797 195.419C230.985 195.419 231.08 195.613 230.985 195.807L230.42 197.167C230.325 197.459 230.608 197.653 230.891 197.459L231.928 196.39C232.023 196.293 232.211 196.293 232.306 196.39L233.154 197.459C233.343 197.653 233.72 197.459 233.626 197.167L233.249 195.807C233.249 195.613 233.343 195.516 233.532 195.419L234.946 195.127C235.323 195.03 235.323 194.544 235.041 194.544Z" fill="#263238"/>
<path d="M244 194.544L242.679 194.253C242.491 194.253 242.396 194.058 242.491 193.864L243.057 192.504C243.151 192.212 242.868 192.018 242.585 192.212L241.548 193.281C241.453 193.378 241.265 193.378 241.17 193.281L240.322 192.212C240.133 192.018 239.756 192.212 239.85 192.504L240.227 193.864C240.227 194.058 240.133 194.156 239.944 194.253L238.53 194.544C238.247 194.641 238.153 195.03 238.436 195.127L239.756 195.419C239.945 195.419 240.039 195.613 239.944 195.807L239.379 197.167C239.284 197.459 239.567 197.653 239.85 197.459L240.888 196.39C240.982 196.293 241.17 196.293 241.265 196.39L242.114 197.459C242.302 197.653 242.679 197.459 242.585 197.167L242.208 195.807C242.208 195.613 242.302 195.516 242.491 195.419L243.905 195.127C244.188 195.03 244.283 194.544 244 194.544Z" fill="#263238"/>
<path d="M222.498 174.434H205.712C204.674 174.434 203.731 175.308 203.637 176.377C203.543 177.445 204.297 178.32 205.334 178.32H222.121C223.158 178.32 224.101 177.445 224.195 176.377C224.29 175.308 223.535 174.434 222.498 174.434Z" fill="#263238"/>
<path d="M239.473 174.434H229.76C228.722 174.434 227.779 175.308 227.685 176.377C227.591 177.446 228.345 178.32 229.382 178.32H239.096C240.133 178.32 241.076 177.446 241.171 176.377C241.265 175.308 240.51 174.434 239.473 174.434Z" fill="#263238"/>
<path d="M246.314 263.813C240.639 266.049 235.641 269.278 232.253 272.922C230.22 271.266 227.425 270.107 224.036 269.61L223.613 269.527L223.443 271.514L223.697 271.597C227.086 272.839 229.796 275.075 231.575 277.974L231.829 278.471L232.168 277.974C235.641 272.508 240.723 267.953 246.483 265.055L246.653 264.972L246.738 263.647L246.314 263.813Z" fill="#21333D"/>
<path d="M150.265 171.689C152.717 174.057 154.98 176.51 157.244 178.963C159.507 181.416 161.77 183.953 163.939 186.491C164.034 186.575 164.034 186.575 164.034 186.575C164.034 186.575 164.034 186.575 164.034 186.66C164.034 186.66 164.034 186.745 164.128 186.745C164.128 186.829 164.222 186.829 164.317 186.914C164.411 186.998 164.599 187.083 164.882 187.168C164.977 187.168 165.071 187.168 165.165 187.168C165.26 187.168 165.26 187.168 165.354 187.168H165.448C165.542 187.168 165.448 187.168 165.637 187.083L167.994 185.899C171.201 184.376 174.313 182.938 177.708 181.585L180.443 184.63C177.802 186.829 174.973 189.536 172.238 191.566L170.163 193.089C170.069 193.173 169.881 193.258 169.786 193.342C169.598 193.427 169.503 193.511 169.315 193.596C168.937 193.765 168.655 193.934 168.277 194.104C167.523 194.357 166.768 194.526 166.014 194.696C164.411 194.865 162.808 194.78 161.299 194.273C160.544 194.019 159.79 193.681 159.13 193.258C158.752 193.089 158.47 192.835 158.187 192.581C157.998 192.496 157.904 192.327 157.715 192.243L157.338 191.904C154.886 189.621 152.34 187.252 149.982 184.968C147.53 182.6 145.173 180.232 142.909 177.779L150.265 171.689Z" fill="#B55B52"/>
<path d="M176.293 183.446L178.462 177.102L184.215 179.724C184.215 179.724 183.366 184.376 179.122 185.137L176.293 183.446Z" fill="#B55B52"/>
<path d="M180.82 175.41L186.007 176.679L184.309 179.724L178.462 177.102L180.82 175.41Z" fill="#B55B52"/>
<path d="M119.804 173.465C119.144 176.172 118.39 178.794 117.635 181.501C116.786 184.123 115.938 186.829 115.089 189.452L114.712 190.467L114.523 190.974C114.523 191.059 114.429 191.143 114.429 191.143C114.334 191.397 114.24 191.651 114.24 191.989C114.24 192.581 114.334 193.173 114.806 193.765C114.806 193.85 115.183 194.188 115.372 194.442L116.126 195.203L117.635 196.726C118.673 197.741 119.71 198.841 120.653 199.94L117.352 203.324C116.032 202.647 114.712 201.886 113.391 201.124L111.411 199.94L110.468 199.348C110.185 199.179 109.902 199.01 109.336 198.587C107.545 197.233 106.224 195.288 105.753 193.173C105.47 192.074 105.47 190.974 105.564 189.875C105.564 189.621 105.658 189.282 105.658 189.113L105.753 188.606L105.941 187.591C106.507 184.884 107.073 182.177 107.639 179.471C108.299 176.764 108.959 174.057 109.714 171.435L119.804 173.465Z" fill="#B55B52"/>
<path d="M117.447 199.517L121.313 197.741L123.011 203.662C123.011 203.662 119.899 204.761 117.447 203.324V199.517Z" fill="#B55B52"/>
<path d="M126.783 195.795L126.877 201.293L122.539 203.831L121.031 197.825L126.783 195.795Z" fill="#B55B52"/>
<path d="M139.42 145.467C139.514 145.89 139.797 146.144 140.174 146.144C140.457 146.059 140.646 145.721 140.551 145.298C140.457 144.875 140.174 144.621 139.797 144.621C139.514 144.706 139.325 145.044 139.42 145.467Z" fill="#263238"/>
<path d="M139.797 146.229C139.797 146.229 141.4 148.428 142.815 149.443C142.155 150.289 140.646 150.204 140.646 150.204L139.797 146.229Z" fill="#A02724"/>
<path d="M137.251 143.438C137.156 143.438 137.156 143.438 137.062 143.354C136.968 143.269 136.968 143.1 137.062 143.015C138.099 142 139.42 142.169 139.42 142.169C139.608 142.169 139.703 142.338 139.608 142.423C139.608 142.592 139.42 142.677 139.325 142.592C139.325 142.592 138.288 142.423 137.439 143.269C137.345 143.438 137.251 143.438 137.251 143.438Z" fill="#263238"/>
<path d="M125.84 151.389C126.877 155.279 127.914 162.385 124.237 165.007C124.237 165.007 125.651 168.982 135.553 168.982C146.398 168.982 140.74 166.445 140.74 166.445C134.799 165.43 134.987 160.777 136.025 157.817L125.84 151.389Z" fill="#B55B52"/>
<path d="M123.105 165.683C122.445 164.584 121.785 163.4 123.199 162.977C124.802 162.554 135.176 161.793 138.288 162.554C137.345 164.076 138.948 165.853 138.948 165.853L123.105 165.683Z" fill="#263238"/>
<path d="M131.687 347.202H138.477L139.137 334.853H132.347L131.687 347.202Z" fill="#B55B52"/>
<path d="M88.495 345.511L95.3793 345.85L99.623 333.669L92.7387 333.416L88.495 345.511Z" fill="#B55B52"/>
<path d="M95.1906 345.341L88.6835 344.072C88.4006 343.988 88.212 344.157 88.1177 344.326L85.8543 348.724C85.6657 349.147 85.9486 349.74 86.5145 349.824C88.7778 350.247 89.9095 350.332 92.7386 350.839C94.5304 351.177 98.4913 352.023 100.849 352.531C103.207 352.954 104.15 350.924 103.207 350.501C98.9628 348.725 97.171 347.202 96.0393 345.764C95.8507 345.595 95.5678 345.426 95.1906 345.341Z" fill="#263238"/>
<path d="M138.099 346.526H131.687C131.404 346.526 131.215 346.695 131.215 346.864L130.084 351.601C129.989 352.108 130.366 352.531 130.932 352.531C133.29 352.531 136.591 352.362 139.514 352.362C142.909 352.362 145.927 352.531 149.888 352.531C152.34 352.531 153 350.332 151.962 350.163C147.341 349.233 143.569 349.148 139.608 346.949C139.137 346.695 138.665 346.526 138.099 346.526Z" fill="#263238"/>
<path d="M111.882 166.783C106.79 168.982 105.375 182.262 105.375 182.262L118.106 187.506C118.106 187.506 121.219 183.362 121.501 176.764C121.69 169.913 117.163 164.499 111.882 166.783Z" fill="#263238"/>
<path opacity="0.4" d="M118.767 174.903C116.503 178.117 116.692 183.023 117.446 187.252L118.012 187.506C118.012 187.506 121.124 183.361 121.407 176.764C121.407 176.341 121.407 175.918 121.407 175.58L118.767 174.903Z" fill="black"/>
<path d="M147.342 166.445C147.342 166.445 153.66 172.789 147.719 212.29C138.194 212.29 120.747 212.29 116.126 212.29C115.938 207.976 118.956 186.661 114.24 166.191C114.24 166.191 119.616 165.176 124.803 165.007C128.858 164.838 134.705 164.753 138.288 165.007C142.909 165.345 147.342 166.445 147.342 166.445Z" fill="#F45C37"/>
<path opacity="0.05" d="M147.658 166.217C147.658 166.217 153.977 172.561 148.036 212.062C138.511 212.062 121.064 212.062 116.443 212.062C116.255 207.748 119.273 186.433 114.557 165.963C114.557 165.963 119.933 164.948 125.119 164.779C129.175 164.61 135.022 164.525 138.605 164.779C143.226 165.117 147.658 166.217 147.658 166.217Z" fill="#FAFAFA"/>
<path opacity="0.2" d="M150.076 178.455L149.982 178.371L143.663 175.326C143.003 184.038 147.341 189.451 149.888 191.82C150.359 186.322 150.359 181.923 150.076 178.455Z" fill="black"/>
<path opacity="0.2" d="M139.137 334.853L138.854 341.197H131.97L132.347 334.853H139.137Z" fill="black"/>
<path opacity="0.2" d="M92.7384 333.416L99.6227 333.754L97.4536 339.929L90.5693 339.59L92.7384 333.416Z" fill="black"/>
<path d="M123.671 147.413C125.18 152.488 125.745 155.533 129.329 157.648C134.61 160.862 141.117 157.14 141.306 151.811C141.494 146.99 138.948 139.462 132.913 138.447C126.877 137.432 122.162 142.338 123.671 147.413Z" fill="#B55B52"/>
<path d="M136.496 212.289C136.496 212.289 129.8 252.805 126.122 268.031C122.067 284.694 100.471 339.674 100.471 339.674L89.9089 337.644C89.9089 337.644 103.489 292.814 106.884 269.553C108.204 260.503 109.807 245.869 111.788 233.689C113.768 221.847 116.126 212.374 116.126 212.374H136.496V212.289Z" fill="#263238"/>
<path d="M102.923 336.46L100.943 339.928L89.0605 337.645L90.0979 334.43L102.923 336.46Z" fill="#407BFF"/>
<path opacity="0.6" d="M102.923 336.46L100.943 339.928L89.0605 337.645L90.0979 334.43L102.923 336.46Z" fill="white"/>
<path opacity="0.6" d="M132.252 226.669C124.519 228.022 125.274 253.99 126.217 267.354C128.48 257.881 131.686 239.78 133.95 226.838C133.478 226.669 132.912 226.585 132.252 226.669Z" fill="black"/>
<path d="M147.719 212.289C147.719 212.289 150.831 251.959 150.265 268.115C149.605 284.948 140.74 340.012 140.74 340.012H130.744C130.744 340.012 130.366 285.878 129.895 269.384C129.423 251.367 126.971 212.289 126.971 212.289H147.719Z" fill="#263238"/>
<path d="M142.626 336.46L142.06 340.182H129.895L129.612 336.883L142.626 336.46Z" fill="#407BFF"/>
<path opacity="0.6" d="M142.626 336.46L142.06 340.182H129.895L129.612 336.883L142.626 336.46Z" fill="white"/>
<path d="M143.663 173.888C143.663 184.546 149.982 188.944 149.982 188.944L160.261 179.978C160.261 179.978 156.772 174.565 151.962 169.659C146.021 163.4 143.663 167.037 143.663 173.888Z" fill="#263238"/>
<path opacity="0.2" d="M140.929 153.757C140.646 154.434 139.986 155.534 138.288 155.957C135.742 156.633 135.742 158.494 135.742 158.494C138.194 157.818 140.174 156.041 140.929 153.757Z" fill="black"/>
<path d="M138.288 137.347C140.363 134.979 137.157 134.81 137.157 134.81C138.005 131.934 134.233 133.457 134.233 133.457C131.97 130.665 130.649 134.049 130.649 134.049C128.292 131.68 127.82 135.571 127.82 135.571C125.463 132.526 124.237 136.925 124.237 136.925C122.068 133.795 120.747 137.855 120.747 137.855C116.221 136.417 118.39 140.646 118.39 140.646C114.523 140.731 117.635 143.438 117.635 143.438C113.014 143.438 117.069 145.806 117.069 145.806C113.392 148.005 118.013 148.513 118.013 148.513C114.995 152.742 120.182 151.135 120.182 151.135C118.107 155.279 122.728 153.419 122.728 153.419C122.445 157.394 124.991 156.294 126.217 155.618C126.5 156.464 126.877 157.309 127.726 157.394C129.329 157.563 129.612 154.856 129.612 154.856C129.612 154.856 131.121 155.871 132.347 155.364C133.573 154.772 133.101 153.334 133.101 153.334C133.101 153.334 134.044 154.011 134.893 153.334C135.459 152.996 135.459 150.289 134.705 149.358L137.157 148.513C137.157 148.513 138.948 148.259 138.194 146.144C137.345 144.03 138.1 142.253 138.1 142.253C140.834 141.069 138.571 139.716 138.571 139.716C141.872 137.94 138.288 137.347 138.288 137.347Z" fill="#263238"/>
<path d="M133.29 147.667C133.667 149.021 134.61 150.12 135.647 150.797C137.156 151.812 138.382 150.797 138.194 149.275C138.099 147.837 137.156 145.637 135.459 145.214C133.856 144.792 132.913 146.145 133.29 147.667Z" fill="#B55B52"/>
</svg>
