<svg width="184" height="52" viewBox="0 0 184 52" fill="none" xmlns="http://www.w3.org/2000/svg">
<path d="M69.064 7.4H74.608V27H69.064V7.4ZM61.504 27H55.96V7.4H61.504V27ZM69.456 19.356H61.112V14.764H69.456V19.356ZM87.5626 27.392C84.6693 27.392 82.4106 26.5987 80.7866 25.012C79.1626 23.4253 78.3506 21.176 78.3506 18.264V7.4H83.8946V18.096C83.8946 19.776 84.2213 20.98 84.8746 21.708C85.5466 22.436 86.4613 22.8 87.6186 22.8C88.7759 22.8 89.6813 22.436 90.3346 21.708C90.9879 20.98 91.3146 19.776 91.3146 18.096V7.4H96.7746V18.264C96.7746 21.176 95.9626 23.4253 94.3386 25.012C92.7146 26.5987 90.4559 27.392 87.5626 27.392ZM100.53 27V7.4H105.094L115.902 20.448H113.746V7.4H119.178V27H114.614L103.806 13.952H105.962V27H100.53ZM132.889 27.392C131.34 27.392 129.902 27.1493 128.577 26.664C127.252 26.16 126.104 25.4507 125.133 24.536C124.181 23.6213 123.434 22.548 122.893 21.316C122.352 20.0653 122.081 18.6933 122.081 17.2C122.081 15.7067 122.352 14.344 122.893 13.112C123.434 11.8613 124.19 10.7787 125.161 9.864C126.132 8.94933 127.28 8.24933 128.605 7.764C129.949 7.26 131.414 7.008 133.001 7.008C134.849 7.008 136.501 7.316 137.957 7.932C139.413 8.548 140.617 9.43467 141.569 10.592L138.041 13.784C137.369 13.056 136.641 12.5147 135.857 12.16C135.092 11.7867 134.233 11.6 133.281 11.6C132.441 11.6 131.676 11.7307 130.985 11.992C130.294 12.2533 129.706 12.636 129.221 13.14C128.736 13.6253 128.353 14.2133 128.073 14.904C127.812 15.576 127.681 16.3413 127.681 17.2C127.681 18.0213 127.812 18.7773 128.073 19.468C128.353 20.1587 128.736 20.756 129.221 21.26C129.706 21.7453 130.285 22.128 130.957 22.408C131.648 22.6693 132.404 22.8 133.225 22.8C134.046 22.8 134.849 22.6693 135.633 22.408C136.417 22.128 137.21 21.6613 138.013 21.008L141.121 24.9C140.001 25.7027 138.704 26.3187 137.229 26.748C135.754 27.1773 134.308 27.392 132.889 27.392ZM136.221 24.172V16.78H141.121V24.9L136.221 24.172ZM144.636 27V7.4H153.596C155.388 7.4 156.928 7.68933 158.216 8.268C159.522 8.84667 160.53 9.68667 161.24 10.788C161.949 11.8707 162.304 13.1587 162.304 14.652C162.304 16.1267 161.949 17.4053 161.24 18.488C160.53 19.552 159.522 20.3733 158.216 20.952C156.928 21.512 155.388 21.792 153.596 21.792H147.716L150.18 19.468V27H144.636ZM156.76 27L151.888 19.86H157.796L162.696 27H156.76ZM150.18 20.056L147.716 17.508H153.26C154.417 17.508 155.276 17.256 155.836 16.752C156.414 16.248 156.704 15.548 156.704 14.652C156.704 13.7373 156.414 13.028 155.836 12.524C155.276 12.02 154.417 11.768 153.26 11.768H147.716L150.18 9.22V20.056ZM170.045 27V18.712L171.333 22.044L162.569 7.4H168.421L174.749 18.012H171.361L177.717 7.4H183.093L174.357 22.044L175.589 18.712V27H170.045Z" fill="#1C3968"/>
<path d="M78.4878 40.358H84.9858V41.906H78.4878V40.358ZM78.6678 47H76.8678V34.4H85.7598V35.966H78.6678V47ZM93.8409 47.144C92.8809 47.144 91.9869 46.982 91.1589 46.658C90.3429 46.334 89.6349 45.884 89.0349 45.308C88.4349 44.72 87.9669 44.036 87.6309 43.256C87.2949 42.476 87.1269 41.624 87.1269 40.7C87.1269 39.776 87.2949 38.924 87.6309 38.144C87.9669 37.364 88.4349 36.686 89.0349 36.11C89.6349 35.522 90.3429 35.066 91.1589 34.742C91.9749 34.418 92.8689 34.256 93.8409 34.256C94.8009 34.256 95.6829 34.418 96.4869 34.742C97.3029 35.054 98.0109 35.504 98.6109 36.092C99.2229 36.668 99.6909 37.346 100.015 38.126C100.351 38.906 100.519 39.764 100.519 40.7C100.519 41.636 100.351 42.494 100.015 43.274C99.6909 44.054 99.2229 44.738 98.6109 45.326C98.0109 45.902 97.3029 46.352 96.4869 46.676C95.6829 46.988 94.8009 47.144 93.8409 47.144ZM93.8409 45.542C94.5369 45.542 95.1789 45.422 95.7669 45.182C96.3669 44.942 96.8829 44.606 97.3149 44.174C97.7589 43.73 98.1009 43.214 98.3409 42.626C98.5929 42.038 98.7189 41.396 98.7189 40.7C98.7189 40.004 98.5929 39.362 98.3409 38.774C98.1009 38.186 97.7589 37.676 97.3149 37.244C96.8829 36.8 96.3669 36.458 95.7669 36.218C95.1789 35.978 94.5369 35.858 93.8409 35.858C93.1329 35.858 92.4789 35.978 91.8789 36.218C91.2909 36.458 90.7749 36.8 90.3309 37.244C89.8869 37.676 89.5389 38.186 89.2869 38.774C89.0469 39.362 88.9269 40.004 88.9269 40.7C88.9269 41.396 89.0469 42.038 89.2869 42.626C89.5389 43.214 89.8869 43.73 90.3309 44.174C90.7749 44.606 91.2909 44.942 91.8789 45.182C92.4789 45.422 93.1329 45.542 93.8409 45.542ZM103.27 47V34.4H108.184C109.288 34.4 110.23 34.574 111.01 34.922C111.79 35.27 112.39 35.774 112.81 36.434C113.23 37.094 113.44 37.88 113.44 38.792C113.44 39.704 113.23 40.49 112.81 41.15C112.39 41.798 111.79 42.296 111.01 42.644C110.23 42.992 109.288 43.166 108.184 43.166H104.26L105.07 42.338V47H103.27ZM111.694 47L108.49 42.428H110.416L113.656 47H111.694ZM105.07 42.518L104.26 41.636H108.13C109.282 41.636 110.152 41.39 110.74 40.898C111.34 40.394 111.64 39.692 111.64 38.792C111.64 37.892 111.34 37.196 110.74 36.704C110.152 36.212 109.282 35.966 108.13 35.966H104.26L105.07 35.066V42.518ZM122.802 47.144C122.058 47.144 121.362 46.988 120.714 46.676C120.066 46.364 119.538 45.914 119.13 45.326L120.174 44.102C120.522 44.582 120.912 44.954 121.344 45.218C121.788 45.47 122.274 45.596 122.802 45.596C124.242 45.596 124.962 44.744 124.962 43.04V35.966H120.408V34.4H126.744V42.95C126.744 44.354 126.408 45.404 125.736 46.1C125.076 46.796 124.098 47.144 122.802 47.144ZM136.099 47.144C135.139 47.144 134.245 46.982 133.417 46.658C132.601 46.334 131.893 45.884 131.293 45.308C130.693 44.72 130.225 44.036 129.889 43.256C129.553 42.476 129.385 41.624 129.385 40.7C129.385 39.776 129.553 38.924 129.889 38.144C130.225 37.364 130.693 36.686 131.293 36.11C131.893 35.522 132.601 35.066 133.417 34.742C134.233 34.418 135.127 34.256 136.099 34.256C137.059 34.256 137.941 34.418 138.745 34.742C139.561 35.054 140.269 35.504 140.869 36.092C141.481 36.668 141.949 37.346 142.273 38.126C142.609 38.906 142.777 39.764 142.777 40.7C142.777 41.636 142.609 42.494 142.273 43.274C141.949 44.054 141.481 44.738 140.869 45.326C140.269 45.902 139.561 46.352 138.745 46.676C137.941 46.988 137.059 47.144 136.099 47.144ZM136.099 45.542C136.795 45.542 137.437 45.422 138.025 45.182C138.625 44.942 139.141 44.606 139.573 44.174C140.017 43.73 140.359 43.214 140.599 42.626C140.851 42.038 140.977 41.396 140.977 40.7C140.977 40.004 140.851 39.362 140.599 38.774C140.359 38.186 140.017 37.676 139.573 37.244C139.141 36.8 138.625 36.458 138.025 36.218C137.437 35.978 136.795 35.858 136.099 35.858C135.391 35.858 134.737 35.978 134.137 36.218C133.549 36.458 133.033 36.8 132.589 37.244C132.145 37.676 131.797 38.186 131.545 38.774C131.305 39.362 131.185 40.004 131.185 40.7C131.185 41.396 131.305 42.038 131.545 42.626C131.797 43.214 132.145 43.73 132.589 44.174C133.033 44.606 133.549 44.942 134.137 45.182C134.737 45.422 135.391 45.542 136.099 45.542ZM145.528 47V34.4H151.18C152.632 34.4 153.748 34.694 154.528 35.282C155.308 35.858 155.698 36.65 155.698 37.658C155.698 38.342 155.542 38.918 155.23 39.386C154.93 39.854 154.522 40.214 154.006 40.466C153.49 40.718 152.932 40.844 152.332 40.844L152.656 40.304C153.376 40.304 154.012 40.43 154.564 40.682C155.116 40.934 155.554 41.306 155.878 41.798C156.202 42.278 156.364 42.878 156.364 43.598C156.364 44.678 155.956 45.518 155.14 46.118C154.336 46.706 153.136 47 151.54 47H145.528ZM147.328 45.542H151.468C152.464 45.542 153.226 45.374 153.754 45.038C154.282 44.702 154.546 44.174 154.546 43.454C154.546 42.722 154.282 42.188 153.754 41.852C153.226 41.516 152.464 41.348 151.468 41.348H147.166V39.89H151.018C151.93 39.89 152.638 39.722 153.142 39.386C153.646 39.05 153.898 38.546 153.898 37.874C153.898 37.202 153.646 36.698 153.142 36.362C152.638 36.026 151.93 35.858 151.018 35.858H147.328V45.542Z" fill="#FF491D"/>
<path d="M23.3672 3.03941C34.2472 3.70895 43.1185 12.4687 43.9554 23.2929C44.2344 26.6405 43.7323 29.8208 42.6164 32.7222L47.5821 37.8553C48.419 37.6879 49.3117 37.9668 49.9813 38.6364L55.1702 43.9927C56.1745 45.0528 56.1745 46.7266 55.1144 47.7309L54.1101 48.6794C53.05 49.6837 51.3761 49.6837 50.3718 48.6236L45.1829 43.2673C44.5134 42.5978 44.346 41.7051 44.5134 40.8682L37.5391 33.5033C39.0455 30.7693 39.8266 27.6448 39.715 24.2972C39.3245 15.0911 31.7364 7.55878 22.5303 7.3356C11.9851 7.00083 3.50432 15.8722 4.34124 26.4732C5.01078 35.1213 12.0967 42.0956 20.8007 42.7094C26.1569 43.0442 31.0111 41.0356 34.4703 37.6321C34.9167 37.2415 35.3073 37.5763 35.3073 37.5763L37.4833 39.8639C37.4833 39.8639 37.818 40.1986 37.4833 40.645C33.2429 44.8296 27.2728 47.3403 20.7449 47.0056C9.75332 46.3918 0.714593 37.4647 0.0450579 26.4732C-0.791862 13.194 10.1439 2.25829 23.3672 3.03941Z" fill="#1C3968"/>
<path d="M24.4275 18.1598H26.4361C26.3245 16.3186 24.818 14.8679 22.9768 14.8679H20.6892C18.848 14.8679 17.3974 16.3186 17.23 18.1598H19.2386C19.3502 17.4345 19.9639 16.8765 20.6892 16.8765H22.9768C23.7022 16.8765 24.3159 17.4345 24.4275 18.1598Z" fill="#FF9130"/>
<path d="M17.2299 19.1641H13.9938C13.3801 19.1641 12.7106 19.722 12.32 20.1126C12.1526 20.28 12.041 20.5589 12.041 20.7821C12.2084 22.2328 13.1569 23.5718 14.775 24.6319C15.835 25.3015 17.1183 25.8594 18.5132 26.1942C19.5733 26.4174 20.6892 26.5847 21.8609 26.5847C22.4746 26.5847 23.0884 26.529 23.7021 26.4732C25.6549 26.25 27.4961 25.6362 28.891 24.6877C30.509 23.6276 31.4575 22.2886 31.6249 20.8379C31.6249 20.6147 31.6249 20.4473 31.346 20.1684C30.9554 19.7778 30.2859 19.2199 29.6721 19.2199H26.436H24.4274H19.2385H17.2299V19.1641Z" fill="#FF491D"/>
<path d="M11.762 24.074C11.6504 23.9066 11.5388 23.9066 11.5388 24.1298V29.7092C11.5388 30.6577 12.041 31.4946 12.7663 31.941C13.1011 32.1642 13.5474 32.2758 13.9938 32.2758H18.0668H29.6721C31.0111 32.2758 32.127 31.1041 32.127 29.7092V24.1298C32.127 23.9066 32.0154 23.8508 31.9039 24.074C31.3459 24.7993 30.6206 25.413 29.7837 26.0268C27.7193 27.3658 25.0411 28.147 22.1956 28.2028C22.084 28.2028 21.9724 28.2028 21.8608 28.2028C20.2428 28.2028 18.6805 27.9796 17.2299 27.5332C16.0024 27.1985 14.8865 26.6405 13.938 26.0268C13.0453 25.413 12.3199 24.7435 11.762 24.074Z" fill="#FF491D"/>
</svg>
