<svg width="12" height="16" viewBox="0 0 12 16" fill="none" xmlns="http://www.w3.org/2000/svg">
<path fill-rule="evenodd" clip-rule="evenodd" d="M0.54541 14.7272C0.54541 14.426 0.789618 14.1818 1.09086 14.1818H10.909C11.2103 14.1818 11.4545 14.426 11.4545 14.7272C11.4545 15.0285 11.2103 15.2727 10.909 15.2727H1.09086C0.789618 15.2727 0.54541 15.0285 0.54541 14.7272Z" fill="#666666"/>
<path fill-rule="evenodd" clip-rule="evenodd" d="M6.00022 4.36361C5.09648 4.36361 4.36386 5.09624 4.36386 5.99998C4.36386 6.90372 5.09648 7.63634 6.00022 7.63634C6.90396 7.63634 7.63659 6.90372 7.63659 5.99998C7.63659 5.09624 6.90396 4.36361 6.00022 4.36361ZM3.27295 5.99998C3.27295 4.49375 4.49399 3.27271 6.00022 3.27271C7.50645 3.27271 8.72749 4.49375 8.72749 5.99998C8.72749 7.50621 7.50645 8.72725 6.00022 8.72725C4.49399 8.72725 3.27295 7.50621 3.27295 5.99998Z" fill="#666666"/>
<path fill-rule="evenodd" clip-rule="evenodd" d="M6 1.09091C4.69803 1.09091 3.44938 1.60812 2.52875 2.52875C1.60812 3.44938 1.09091 4.69803 1.09091 6C1.09091 8.25815 2.35192 10.3144 3.68433 11.8466C4.34387 12.6051 5.00482 13.2166 5.50099 13.6384C5.69721 13.8052 5.86704 13.9417 6 14.0455C6.13296 13.9417 6.30279 13.8052 6.49901 13.6384C6.99518 13.2166 7.65613 12.6051 8.31567 11.8466C9.64808 10.3144 10.9091 8.25815 10.9091 6C10.9091 4.69803 10.3919 3.44938 9.47125 2.52875C8.55062 1.60812 7.30197 1.09091 6 1.09091ZM6 14.7273C5.6872 15.1741 5.68705 15.174 5.68688 15.1739L5.68642 15.1736L5.68515 15.1727L5.68112 15.1698L5.66725 15.16C5.65546 15.1516 5.63864 15.1395 5.61714 15.1238C5.57413 15.0924 5.51232 15.0465 5.4344 14.987C5.27862 14.8679 5.05812 14.6937 4.79446 14.4696C4.26791 14.022 3.56522 13.3722 2.86112 12.5625C1.46627 10.9584 0 8.65094 0 6C0 4.4087 0.632141 2.88258 1.75736 1.75736C2.88258 0.632141 4.4087 0 6 0C7.5913 0 9.11742 0.632141 10.2426 1.75736C11.3679 2.88258 12 4.4087 12 6C12 8.65094 10.5337 10.9584 9.13888 12.5625C8.43478 13.3722 7.73209 14.022 7.20554 14.4696C6.94188 14.6937 6.72138 14.8679 6.5656 14.987C6.48768 15.0465 6.42587 15.0924 6.38286 15.1238C6.36136 15.1395 6.34454 15.1516 6.33275 15.16L6.31888 15.1698L6.31485 15.1727L6.31358 15.1736L6.31312 15.1739C6.31295 15.174 6.3128 15.1741 6 14.7273ZM6 14.7273L6.3128 15.1741C6.12499 15.3056 5.87501 15.3056 5.6872 15.1741L6 14.7273Z" fill="#666666"/>
</svg>
