<svg xmlns="http://www.w3.org/2000/svg" width="18.331" height="21.707" viewBox="0 0 18.331 21.707">
  <g id="Group_180089" data-name="Group 180089" transform="translate(-51.216 -13.5)">
    <path id="Path_49051" data-name="Path 49051" d="M60.381,23.919a5.21,5.21,0,1,1,5.21-5.21A5.215,5.215,0,0,1,60.381,23.919Zm0-9.3a4.091,4.091,0,1,0,4.091,4.091A4.1,4.1,0,0,0,60.381,14.619Zm6.588,20.588H53.793a2.58,2.58,0,0,1-2.577-2.577V31.017A6.092,6.092,0,0,1,57.3,24.932h6.161a6.092,6.092,0,0,1,6.085,6.085v1.612a2.58,2.58,0,0,1-2.577,2.577ZM57.3,26.051a4.972,4.972,0,0,0-4.966,4.966v1.612a1.46,1.46,0,0,0,1.459,1.459H66.969a1.46,1.46,0,0,0,1.459-1.459V31.017a4.972,4.972,0,0,0-4.966-4.966Z" transform="translate(0 0)" fill="#1b2444"/>
  </g>
</svg>
