<svg width="584" height="257" viewBox="0 0 584 257" fill="none" xmlns="http://www.w3.org/2000/svg">
<path d="M183.197 234.335C183.197 234.335 188.268 242.928 190.424 244.325C193.339 246.238 191.517 248.151 190.12 248.151C188.754 248.151 181.679 248.667 180.131 246.906C178.582 245.145 177.793 239.861 176.366 238.465C174.908 237.068 173.603 231.997 177.064 230.266C180.859 228.384 183.197 234.335 183.197 234.335Z" fill="#E55353"/>
<path d="M181.285 229.841C181.285 229.841 186.811 240.651 187.813 242.139C188.815 243.626 185.93 243.626 184.139 242.928C182.347 242.23 177.702 235.064 177.216 233.667C176.7 232.301 177.064 230.297 177.064 230.297L181.285 229.841Z" fill="#3B3B40"/>
<path d="M175.121 235.975L176.457 246.298L177.155 246.329L176.943 238.92L175.121 235.975Z" fill="#E55353"/>
<path d="M139.686 225.955C139.686 225.955 140.901 235.853 142.298 238.009C144.21 240.924 141.751 241.956 140.506 241.41C139.231 240.863 132.581 238.495 131.852 236.278C131.124 234.032 132.551 228.9 131.761 227.048C131.002 225.196 131.822 220.003 135.678 219.791C139.929 219.578 139.686 225.955 139.686 225.955Z" fill="#E55353"/>
<path d="M139.747 221.066C139.747 221.066 140.506 233.181 140.81 234.942C141.144 236.704 138.502 235.55 137.136 234.183C135.769 232.817 134.373 224.406 134.464 222.949C134.555 221.491 135.678 219.791 135.678 219.791L139.747 221.066Z" fill="#3B3B40"/>
<path d="M131.64 224.224L128.725 234.244L129.363 234.548L132.126 227.655L131.64 224.224Z" fill="#E55353"/>
<path d="M182.377 137.9C182.226 137.111 176.092 125.238 174.969 121.655C173.876 118.073 172.904 114.793 172.357 113.396C172.327 113.305 172.266 113.154 172.175 112.911C171.811 111.848 170.991 109.51 170.141 107.324C170.08 107.172 170.019 107.02 169.959 106.868L169.868 106.018C169.26 104.5 169.868 103.619 169.868 102.405C169.868 102.04 169.837 101.646 169.685 101.19C169.685 101.16 169.685 101.16 169.655 101.13C168.957 99.0952 168.441 97.3037 168.319 96.3017C167.985 92.9921 166.194 78.2049 166.194 78.2049C166.194 78.2049 171.993 81.2109 172.661 83.5186C173.633 87.0408 174.635 92.2937 174.878 93.903C175.121 95.5123 177.641 108.933 178.187 111.666C178.703 114.398 179.311 116.706 180.07 118.498C180.829 120.289 185.869 136.382 186.173 137.839C186.537 139.327 182.529 138.689 182.377 137.9Z" fill="#EEA886"/>
<path d="M182.286 136.2C182.286 136.2 182.195 138.082 181.77 140.056C181.588 141.027 182.378 146.948 182.529 147.707C182.651 148.345 183.015 147.89 183.167 147.434C183.258 147.161 183.319 145.066 183.501 143.912C183.683 142.94 183.896 142.546 184.108 142.819C184.321 143.092 185.232 146.857 185.141 148.527C185.05 150.197 186.021 153.902 186.811 153.203C187.57 152.535 188.481 145.43 187.873 142.91C187.296 140.39 185.839 137.353 185.839 137.353L182.286 136.2Z" fill="#EEA886"/>
<path d="M160.88 150.713C161.123 151.928 162.763 157.029 164.554 162.707C166.194 167.869 168.016 173.517 169.109 177.13C169.503 178.466 169.807 179.529 169.989 180.166C171.022 184.417 169.868 191.128 169.473 196.714C169.078 202.301 177.216 233.637 177.216 233.637C178.643 234.305 181.315 229.811 181.315 229.811C180.283 227.807 180.404 192.494 180.981 190.308C181.558 188.122 181.922 182.049 181.345 179.68C181.224 179.195 181.163 178.557 181.163 177.768C181.102 174.792 181.74 169.843 182.104 164.407C182.59 157.576 179.918 140.633 179.554 139.115C179.523 138.963 179.463 138.781 179.402 138.538C178.704 136.169 176.457 129.398 176.457 129.398C171.902 128.032 168.471 127.789 165.89 128.305C162.489 129.003 160.637 131.038 159.696 133.619C157.449 139.843 160.546 149.135 160.88 150.713Z" fill="#3B3B40"/>
<path d="M135.193 220.641L139.808 222.25C140.597 218.455 159.332 191.947 160.486 189.002C161.639 186.057 162.854 180.379 162.854 178.284C162.854 177.919 162.884 177.282 162.945 176.462C163.158 173.304 163.735 167.353 164.554 162.707C164.706 161.857 164.858 161.037 165.04 160.278C165.951 156.27 166.103 142.606 166.133 134.56C166.133 130.977 166.103 128.518 166.103 128.518C166.103 128.518 166.012 128.457 165.86 128.335C164.129 127.03 153.046 119.044 149.19 126.514C148.158 128.487 147.49 130.582 147.095 132.799C145.85 139.54 147.065 147.161 148.067 154.084C148.917 160.005 150.557 168.385 151.042 174.61C151.316 178.041 151.194 180.804 150.435 182.14C148.249 185.935 146.124 189.154 141.721 202.514C140.294 206.917 135.193 220.641 135.193 220.641Z" fill="#3B3B40"/>
<path d="M168.835 59.5312C168.835 59.5312 171.234 43.9243 158.33 44.2279C145.425 44.5012 145.577 52.2136 145.82 59.8956C146.063 67.5473 151.012 66.9704 145.425 77.628C139.838 88.2857 150.253 88.2857 150.253 88.2857L158.33 77.1726L168.835 59.5312Z" fill="#3C4145"/>
<path d="M159.726 45.7461C159.726 45.7461 168.471 47.1125 168.805 59.5616C169.139 71.9804 166.437 74.6524 158.785 72.0411C151.133 69.4602 148.704 56.4342 148.552 54.4301C148.401 52.3958 147.945 44.2279 159.726 45.7461Z" fill="#EEA886"/>
<path d="M144.362 88.9537C144.332 93.2349 149.251 103.468 150.01 106.625C150.769 109.783 151.983 110.785 150.951 114.854C149.949 118.892 146.791 132.586 146.943 133.77C147.065 134.985 175.151 139.388 179.372 138.568C179.372 138.568 174.21 119.257 173.815 117.04C173.451 114.824 174.27 106.534 174.453 104.196C174.635 101.858 177.003 96.8179 176.942 94.4799C176.851 92.0811 175.698 90.0164 174.058 87.4962C173.542 86.7068 173.026 85.8869 172.479 85.1278C170.748 82.5773 169.018 80.2696 168.167 79.4802C167.53 78.8729 166.953 78.4478 166.437 78.0835C165.374 77.3547 164.645 77.1422 164.645 77.1422L157.115 75.9276C157.115 75.9276 152.439 77.628 149.737 78.2656C149.706 78.2656 144.453 79.0247 144.362 88.9537Z" fill="#F54242"/>
<path d="M166.406 78.0835L170.779 84.9457L174.787 91.2917C174.787 91.2613 174.514 90.2897 174.058 87.5266C173.967 87.0104 173.876 86.4031 173.785 85.7351C173.755 85.553 173.724 85.3404 173.663 85.1582C171.933 81.1806 166.619 78.1746 166.406 78.0835Z" fill="#F54242"/>
<path d="M144.636 85.3404C144.636 85.3404 145.85 77.2029 151.802 78.5389C157.54 79.8446 152.166 90.5022 151.741 91.7775C151.316 93.0528 147.065 103.376 146.7 104.712C145.547 108.994 146.64 109.085 148.37 110.117C153.532 113.093 164.19 112.911 165.405 113.73C166.619 114.55 166.558 117.101 164.494 117.192C161.822 117.313 146.488 115.856 144.362 115.643C142.298 115.431 138.168 115.279 139.231 107.901C139.99 102.951 144.636 85.3404 144.636 85.3404Z" fill="#EEA886"/>
<path d="M153.897 66.4238C154.656 67.8509 155.445 76.7475 155.445 76.7475C155.445 76.7475 166.133 80.7858 165.04 78.5085C164.554 77.4762 164.402 76.1098 164.402 74.956C164.402 74.0451 164.463 73.2556 164.524 72.8002C164.554 72.5573 164.585 72.4358 164.585 72.4358C164.585 72.4358 153.137 64.9967 153.897 66.4238Z" fill="#EEA886"/>
<path d="M163.309 54.6426C163.309 54.6426 158.815 61.9603 154.747 64.8145C150.648 67.699 152.743 70.0067 152.743 70.0067C152.743 70.0067 142.085 47.5679 152.226 46.0193C162.368 44.4708 168.592 44.3493 168.866 59.5312C168.835 59.5312 164.22 54.5516 163.309 54.6426Z" fill="#3C4145"/>
<path d="M158.421 71.8893C160.06 74.3183 164.402 74.956 164.402 74.956C164.402 74.0451 164.463 73.2556 164.524 72.8002C161.73 73.3467 158.421 71.8893 158.421 71.8893Z" fill="#A77860"/>
<path d="M173.633 85.0975C173.633 85.0975 173.876 85.5833 174.058 87.5266L172.479 85.1582C172.479 85.1582 169.655 81.1198 168.714 80.0875C167.742 79.0247 166.437 78.1138 166.437 78.1138C166.437 78.1138 171.963 80.7251 173.633 85.0975Z" fill="#F54242"/>
<path d="M171.933 93.812L155.081 92.4152C154.352 92.3545 153.745 92.9011 153.684 93.5994L151.589 121.534C151.528 122.232 152.044 122.84 152.743 122.931L168.927 124.601C169.655 124.661 170.293 124.145 170.354 123.447L173.117 95.2391C173.177 94.5103 172.661 93.8727 171.933 93.812Z" fill="#2F4563"/>
<path d="M156.022 112.577C156.022 112.577 159.21 113.123 159.514 113.062C159.817 113.002 161.062 110.937 162.55 110.573C164.007 110.208 165.829 109.905 166.285 109.631C166.74 109.358 166.862 110.785 165.465 111.362C164.068 111.939 163.704 112.728 166.345 113.275C167.803 113.579 173.238 112.971 172.783 113.882C172.509 114.429 167.287 114.793 167.287 114.793C167.287 114.793 172.934 114.763 173.147 115.097C173.542 115.765 167.864 116.008 167.621 115.977C167.621 115.977 172.479 116.251 172.54 116.706C172.6 117.253 167.681 117.01 167.712 117.101C167.712 117.101 171.568 117.374 171.538 117.708C171.477 118.133 168.076 118.194 167.439 118.103C166.771 118.012 160.121 117.253 158.997 117.04C157.874 116.828 155.991 116.676 155.991 116.676L156.022 112.577Z" fill="#EEA886"/>
<path d="M149.919 110.846C149.919 110.846 153.077 111.969 156.022 112.577C158.967 113.184 155.931 116.706 155.931 116.706C155.931 116.706 150.83 116.251 148.401 116.008C147.186 115.917 149.919 110.846 149.919 110.846Z" fill="#EEA886"/>
<path d="M152.348 91.1095C152.348 91.1095 145.486 88.4072 143.451 88.2554C143.451 88.2554 144.818 77.2333 151.589 78.3871C158.33 79.5713 152.348 91.1095 152.348 91.1095Z" fill="#F54242"/>
<path d="M148.097 154.114C148.947 160.035 150.587 168.416 151.073 174.64C151.073 174.64 155.901 175.612 162.945 176.462C164.858 176.705 166.923 176.917 169.109 177.13C172.874 177.464 177.003 177.737 181.163 177.798C181.103 174.822 181.74 169.873 182.105 164.438C182.59 157.606 179.918 140.663 179.554 139.145C179.524 138.993 179.463 138.811 179.402 138.568C176.001 136.685 171.113 135.41 166.164 134.56C163.977 134.196 161.791 133.892 159.726 133.649C153.229 132.92 147.824 132.799 147.156 132.799C145.881 139.57 147.095 147.191 148.097 154.114Z" fill="#F54242"/>
<path d="M164.615 77.1422C164.615 77.1422 169.655 84.8849 167.955 85.5833C166.255 86.2513 157.024 84.6724 153.077 77.3244C153.077 77.294 158.937 74.288 164.615 77.1422Z" fill="#EEA886"/>
<path d="M70.2747 146.614L68.3922 143.366C67.8456 142.424 68.1796 141.21 69.1209 140.663L79.7785 134.53C80.7198 133.983 81.9344 134.317 82.4809 135.258L84.3635 138.507C84.91 139.449 84.576 140.663 83.6347 141.21L72.9771 147.343C72.0358 147.89 70.8213 147.556 70.2747 146.614Z" fill="#525252"/>
<path d="M72.0056 145.127C72.0056 145.127 71.2465 144.701 71.0339 144.367C71.0339 144.367 70.6392 143.699 70.3659 143.274C70.2748 143.123 70.1838 143.001 70.123 142.94C69.8498 142.637 69.1817 142.06 68.7263 141.119C68.3012 140.208 67.4207 135.775 67.4207 135.775L69.6676 134.621L71.6108 133.254C71.6108 133.254 76.7727 136.655 77.2889 137.475C77.3496 137.566 77.38 137.627 77.4103 137.718C77.7747 138.447 77.7443 139.115 77.8961 139.54C77.9569 139.691 78.382 141.179 78.1087 141.574C77.7443 142.121 77.2889 142.333 76.8334 142.333C76.8334 142.333 76.0743 143.335 75.2545 143.548C75.2545 143.548 74.5865 144.519 73.4934 144.459C73.4934 144.428 72.704 145.339 72.0056 145.127Z" fill="#EEA886"/>
<path d="M29.7698 155.997L19.5372 153.72C18.5048 153.477 17.8368 152.444 18.0797 151.412L19.5068 144.975C19.7498 143.942 20.7821 143.274 21.8145 143.517L32.0471 145.795C33.0794 146.037 33.7474 147.07 33.5045 148.102L32.0774 154.539C31.8649 155.572 30.8325 156.209 29.7698 155.997ZM21.5716 144.762C21.2376 144.671 20.9036 144.914 20.8125 145.248L19.3854 151.685C19.2943 152.019 19.5372 152.353 19.8712 152.444L30.0734 154.721C30.4074 154.813 30.7414 154.57 30.8325 154.236L32.2596 147.799C32.3507 147.465 32.1078 147.131 31.7738 147.039L21.5716 144.762Z" fill="#0E1E2B"/>
<path d="M22.5734 147.222C22.5734 147.222 22.3001 146.432 22.3609 146.037C22.3609 146.037 22.5127 145.309 22.5734 144.793C22.6038 144.641 22.6038 144.489 22.6038 144.398C22.6038 144.003 22.4823 143.153 22.7556 142.212C23.0289 141.27 25.215 137.536 25.215 137.536L27.5834 138.143L29.8911 138.416C29.8911 138.416 31.4396 144.185 31.2878 145.096C31.2878 145.187 31.2574 145.278 31.2271 145.339C31.0145 146.098 30.5591 146.554 30.4072 146.948C30.3465 147.1 29.7089 148.436 29.2534 148.558C28.6461 148.71 28.1603 148.558 27.8567 148.284C27.8567 148.284 26.6421 148.527 25.9134 148.133C25.9134 148.133 24.8203 148.406 24.0309 147.647C24.0916 147.677 22.9378 147.799 22.5734 147.222Z" fill="#EEA886"/>
<path d="M47.1074 94.3281C46.652 94.905 44.8605 98.2754 42.9476 101.858C42.644 102.435 42.3099 103.042 42.0063 103.65C41.7634 104.136 41.4901 104.591 41.2472 105.077C40.9739 105.593 40.7007 106.079 40.4578 106.565C39.395 108.569 38.4841 110.208 38.0287 110.967C36.7534 113.123 34.6583 120.896 34.1421 122.445C33.6259 123.993 31.1057 139.266 31.1057 139.266C31.1057 139.266 23.0594 139.297 23.3023 138.69C23.5452 138.082 26.6119 121.595 27.2192 119.135C28.039 115.886 31.1361 107.111 31.4397 106.474C31.7434 105.836 38.3019 92.1723 39.1825 89.8039C40.1238 87.3141 40.6096 85.0672 44.5265 80.4215C48.4434 75.7759 52.9069 78.205 52.9069 78.205C56.5809 80.7251 48.0183 93.1136 47.1074 94.3281Z" fill="#5B94E2"/>
<path d="M44.478 156.367L6.13037 147.81L-7.7946e-05 175.282L38.3476 183.839L44.478 156.367Z" fill="#665955"/>
<path d="M44.4634 156.374L6.11572 147.817L2.56443 163.731L40.9121 172.288L44.4634 156.374Z" fill="#877671"/>
<path d="M49.2024 75.1382C49.6882 72.4966 49.2024 68.7011 49.2024 68.7011C49.2024 68.7011 58.7973 73.1342 57.1577 74.3488C56.7326 74.6524 56.429 75.2597 56.2164 75.9884C55.6395 78.0531 55.8217 81.1199 55.8217 81.1199L59.0099 84.8242C61.8033 88.7108 48.9595 76.4135 49.2024 75.1382Z" fill="#EEA886"/>
<path d="M17.3508 219.791C17.3508 219.791 18.2314 223.343 19.0512 227.746C19.8407 232.149 23.5754 235.368 24.1219 236.157C24.6685 236.946 27.0976 240.044 24.9721 240.438C22.8467 240.803 14.1323 235.003 11.7639 231.663C11.7639 231.663 10.3368 228.505 10.1546 228.323C9.97246 228.141 8.7579 229.082 8.7579 229.082L6.54135 227.534C6.54135 227.534 5.60008 226.835 5.26608 226.41C4.93208 226.016 5.72153 223.769 5.84299 223.556C5.9948 223.313 9.88136 217.939 12.4016 216.785C14.861 215.661 17.3508 219.791 17.3508 219.791Z" fill="#34395C"/>
<path d="M90.1026 229.568C90.1026 229.568 93.1693 231.42 96.7522 233.91C100.335 236.4 105.072 236.096 105.983 236.248C106.894 236.43 110.689 236.916 109.505 238.616C108.321 240.317 98.4222 242.23 94.5053 241.531C94.5053 241.531 91.3475 240.317 91.1045 240.317C90.8313 240.317 90.6795 241.805 90.6795 241.805L88.0986 242.26C88.0986 242.26 86.9751 242.412 86.4589 242.382C85.9427 242.351 85.0014 240.286 84.88 240.013C84.7889 239.77 83.7565 233.424 84.6371 230.904C85.548 228.414 90.1026 229.568 90.1026 229.568Z" fill="#3C4169"/>
<path d="M20.1748 214.174C20.1748 214.174 17.3813 219.305 17.2295 220.216C17.0473 221.127 12.9482 221.157 12.1284 217.271C12.1284 217.271 15.347 210.803 15.2559 210.621C15.1344 210.439 20.1748 214.174 20.1748 214.174Z" fill="#EEA886"/>
<path d="M49.0809 158.061C49.0809 158.061 48.7773 159.124 48.2915 160.825C47.9575 161.918 47.5627 163.284 47.1377 164.772C45.1336 171.634 42.2187 181.442 41.6722 182.838C40.822 184.994 36.9658 191.31 36.3889 191.674C35.812 192.038 20.6605 218.091 20.1747 219.335C20.1747 219.335 13.9501 216.512 12.8267 214.447C12.8267 214.447 23.211 185.723 27.4012 180.682C31.4396 175.824 31.2271 146.827 34.8707 138.052C38.5447 129.277 51.3279 150.44 49.0809 158.061Z" fill="#34395C"/>
<path d="M88.0985 223.769C88.0985 223.769 89.7685 229.173 90.2847 229.932C90.8008 230.692 88.0377 233.485 84.7888 231.359C84.7888 231.359 82.5115 224.71 82.299 224.679C82.1472 224.649 88.0985 223.769 88.0985 223.769Z" fill="#EEA886"/>
<path d="M60.1636 138.264C60.1636 138.264 73.1289 168.203 74.6167 172.697C76.1045 177.191 75.4062 181.016 76.1956 182.869C77.0154 184.721 88.918 226.471 88.918 226.471C88.918 226.471 82.6024 229.932 79.7785 228.536C79.7785 228.536 68.9994 201.057 66.6918 196.563C64.536 192.342 63.3518 183.84 60.619 178.405C58.7061 174.579 35.0831 145.43 34.8706 134.651C34.6884 123.902 60.1636 138.264 60.1636 138.264Z" fill="#393D63"/>
<path d="M49.2935 75.4722C49.2935 75.4722 52.9979 76.9904 54.2732 80.3608C55.5484 83.7615 55.0019 88.2553 55.0626 89.8039C55.1233 91.3524 57.6435 106.565 57.9775 107.02C58.3115 107.476 63.3823 116.858 65.4774 121.625C67.5725 126.392 72.0967 132.495 72.0967 132.495L68.6048 134.53C68.6048 134.53 52.755 115.886 51.8137 110.785C50.8724 105.684 44.7389 90.3201 44.7389 90.3201C44.7389 90.3201 41.6722 78.9337 49.2935 75.4722Z" fill="#EEA886"/>
<path d="M56.2468 47.3857C59.4349 47.325 66.4793 49.1165 67.3295 57.6183C67.3295 57.6183 66.9955 59.8956 66.4186 61.6567C65.8113 63.4178 67.2688 68.7618 66.8437 69.0047C66.4186 69.2476 64.6879 69.5513 64.6879 69.5513C64.6879 69.5513 62.6535 75.2596 60.6495 75.1686C58.6151 75.0471 50.9938 73.2557 47.5931 65.9684C44.1316 58.6811 43.3422 47.6287 56.2468 47.3857Z" fill="#EEA886"/>
<path d="M67.3296 57.6183C67.3296 57.6183 62.0463 60.9887 56.8845 61.5656C51.7227 62.1425 48.2916 67.3347 48.2916 67.3347C48.2916 67.3347 40.731 57.2843 47.2896 49.5416C53.7874 41.7685 68.7263 47.7805 67.3296 57.6183Z" fill="#3B3B40"/>
<path d="M63.686 104.986C62.1071 106.656 63.4127 110.512 63.2002 112.728C63.1394 113.305 62.9572 115.249 62.7143 117.799C62.4411 120.441 62.1071 123.75 61.7427 126.939C61.5909 128.214 61.4694 129.459 61.3176 130.673C60.8622 134.439 60.4371 137.505 60.1638 138.264C59.3743 140.481 41.9759 140.572 35.0834 133.103C35.0834 133.103 33.8688 130.643 41.7634 116.372C43.3423 113.518 41.7937 99.3077 40.5185 95.5426C39.2432 91.7775 38.7877 78.9944 49.1721 75.1685C49.1721 75.1685 55.427 80.5733 57.5525 82.972C59.678 85.4011 66.6313 94.1155 67.2689 96.7572C67.9673 99.3685 65.4167 103.164 63.686 104.986Z" fill="#5B94E2"/>
<path d="M57.1579 74.3791C56.7328 74.6827 56.4292 75.29 56.2167 76.0188C52.4819 73.7718 50.6601 70.4319 50.5994 70.3408C52.6337 72.8306 57.1579 74.3791 57.1579 74.3791Z" fill="#A77860"/>
<path d="M63.2002 112.728C63.1395 113.305 62.9573 115.249 62.7144 117.799C61.1354 119.317 50.2956 98.3968 55.3967 92.4455C55.3967 92.4455 59.01 106.474 59.4047 107.202C59.7691 107.901 63.2002 112.728 63.2002 112.728Z" fill="#3E6499"/>
<path d="M49.3847 75.9884C49.3847 75.9884 53.5141 77.9013 54.8198 81.4538C56.1254 85.0064 55.5788 89.6824 55.6396 91.322C55.7003 92.9313 58.3419 108.842 58.6759 109.297C59.0099 109.783 63.7163 117.01 65.9025 121.989C68.0887 126.969 73.038 133.801 73.038 133.801L67.1171 137.111C67.1171 137.111 52.9372 119.196 51.6012 113.943C50.1741 108.326 44.8605 91.8079 44.8605 91.8079C44.8605 91.8079 40.3059 77.6887 49.3847 75.9884Z" fill="#5B94E2"/>
<path d="M41.9759 103.619C41.733 104.105 41.4597 104.561 41.2168 105.046C40.9435 105.563 40.6702 106.048 40.4273 106.534C40.063 102.283 39.9111 91.8686 39.9111 91.8686C39.9111 91.8686 40.3666 94.9353 40.822 96.5749C41.2775 98.0931 41.8848 102.891 41.9759 103.619Z" fill="#3E6499"/>
<path d="M54.7893 45.989C54.7893 45.989 41.3989 44.9567 41.9758 61.262C42.583 77.5673 39.8503 81.8486 33.899 89.227C27.9781 96.6053 33.1703 105.836 38.909 101.069C44.6478 96.3321 51.2367 85.6137 51.3582 74.1666C51.51 62.7194 54.7893 45.989 54.7893 45.989Z" fill="#3B3B40"/>
<path d="M54.7592 61.262C54.7592 60.26 53.6965 58.7418 52.0265 60.0474C50.3565 61.3531 52.4212 66.1505 53.7572 65.7254C55.0932 65.3004 54.7592 62.2944 54.7592 61.262Z" fill="#EEA886"/>
<path d="M48.2916 160.794C47.9576 161.887 47.5629 163.254 47.1378 164.742C45.6196 161.553 42.1278 151.473 42.0063 151.169C42.8565 152.626 48.1702 160.612 48.2916 160.794Z" fill="#2B2D4A"/>
<path d="M523.211 237.948C523.211 237.948 518.565 244.446 519.203 245.479C519.84 246.511 524.699 246.663 527.674 245.479C530.65 244.294 530.711 236.673 532.047 233.394C532.593 232.027 531.409 227.959 529.709 227.685C528.008 227.412 526.186 228.262 526.186 228.262C526.186 228.262 527.947 232.878 523.211 237.948Z" fill="#363A5E"/>
<path d="M526.156 228.202C526.156 228.202 525.184 230.965 524.82 233.606C524.516 235.793 521.51 240.469 521.662 241.045C521.814 241.622 525.609 242.169 527.158 240.651C528.706 239.133 529.708 234.699 530.042 232.058C530.346 229.598 530.771 228.384 530.771 228.384C530.771 228.384 527.643 226.592 526.156 228.202Z" fill="#EEA886"/>
<path d="M563.534 238.07C563.534 238.07 559.07 244.477 559.708 245.509C560.345 246.541 565.204 246.693 568.179 245.509C571.155 244.325 571.216 236.703 572.552 233.424C573.098 232.058 571.914 227.989 570.214 227.716C568.513 227.412 566.54 228.353 566.54 228.353C566.54 228.353 568.27 232.999 563.534 238.07Z" fill="#363A5E"/>
<path d="M566.54 228.323C566.54 228.323 566.175 231.329 565.629 233.485C565.052 235.61 562.015 240.469 562.167 241.076C562.319 241.653 566.114 242.199 567.663 240.681C569.212 239.163 570.426 234.76 570.548 232.088C570.699 229.416 570.183 227.685 570.183 227.685C570.183 227.685 568.027 226.714 566.54 228.323Z" fill="#EEA886"/>
<path d="M544.222 122.384C544.222 122.384 540.244 141.665 539.333 146.523C538.423 151.381 535.872 174.913 535.599 178.921C535.325 182.929 531.439 197.99 531.621 199.417C531.803 200.844 525.882 229.538 525.882 229.538C525.882 229.538 527.917 231.238 530.042 229.689C531.135 228.9 543.038 202.818 543.038 195.682C543.038 185.814 550.021 172.909 550.932 170.693C559.313 150.167 557.673 143.882 558.766 142.546C559.859 141.21 559.95 143.365 560.588 146.311C561.226 149.256 562.592 174.792 563.412 178.041C564.232 181.29 563.594 192.221 564.049 197.747C564.505 203.273 566.509 228.262 566.509 228.262C566.509 228.262 568.058 230.813 570.244 228.323C570.699 227.777 574.009 200.48 574.1 193.921C574.191 187.362 574.282 178.284 574.464 175.43C576.165 148.193 580.324 144.307 573.766 125.026C561.529 89.0144 544.222 122.384 544.222 122.384Z" fill="#EEA886"/>
<path d="M570.912 117.01C570.912 117.01 582.238 133.558 577.349 168.719C577.349 168.719 550.477 172.545 536.115 164.316C536.115 164.316 542.067 128.032 544.222 122.414C546.378 116.736 570.912 117.01 570.912 117.01Z" fill="#3F446E"/>
<path d="M532.168 232.847V239.649H531.348V234.396L532.168 232.847Z" fill="#363A5E"/>
<path d="M572.673 232.847V239.649H571.823V234.396L572.673 232.847Z" fill="#363A5E"/>
<path d="M557.491 43.651C557.491 43.651 549.9 51.3026 552.481 61.1405C555.062 70.9783 559.222 71.039 563.776 66.7881C568.361 62.5676 571.033 58.1041 571.641 53.1548C572.278 48.2359 564.414 36.8495 557.491 43.651Z" fill="#EEA886"/>
<path d="M556.003 76.4742C556.003 76.4742 557.126 73.8932 557.916 71.0087C558.068 70.4925 558.189 69.9763 558.28 69.4602C558.675 67.6383 558.827 65.8469 558.402 64.602C557.187 61.019 565.993 63.5089 565.993 63.5089C565.993 63.5089 564.292 72.952 565.993 76.1402C567.723 79.3284 556.003 76.4742 556.003 76.4742Z" fill="#EEA886"/>
<path d="M578.29 80.968C576.894 78.2049 575.861 77.3244 573.189 76.4742C571.702 75.9884 564.991 74.2576 564.991 74.2576L556.945 73.954C556.945 73.954 551.419 74.8649 547.137 76.3527C542.856 77.8405 537.239 85.9476 537.239 85.9476C537.239 85.9476 544.981 104.136 546.469 109.358C547.957 114.581 546.955 122.657 546.955 122.657C556.246 127.728 571.125 122.172 571.125 122.172C570.001 118.103 569.94 113.336 570.548 109.965C570.608 109.571 570.7 109.176 570.791 108.842C570.882 108.508 570.973 108.052 571.094 107.536C571.094 107.506 571.094 107.476 571.125 107.476C577.046 108.083 582.572 108.326 582.724 107.142C583.422 101.798 580.203 84.7635 578.29 80.968ZM574.191 101.706C573.948 101.676 573.432 101.676 572.916 101.615C573.584 99.7935 574.313 98.1539 574.313 98.1539C574.738 99.3381 576.317 102.04 574.191 101.706Z" fill="#EDDAD3"/>
<path d="M559.981 49.1468C559.981 49.1468 563.594 55.7358 565.872 58.1041C568.119 60.4725 567.845 62.3551 567.845 62.3551C567.845 62.3551 576.621 51.5152 570.366 44.987C564.111 38.4588 556.034 41.1005 553.666 46.8088C551.297 52.5172 552.178 59.5009 552.178 59.5009C552.178 59.5009 552.208 52.7905 559.981 49.1468Z" fill="#E8734D"/>
<path d="M562.349 42.2543C562.349 42.2543 561.469 37.4264 569.029 35.5135C576.59 33.6006 579.991 42.315 579.08 47.6287C578.138 52.9423 571.671 66.4542 575.193 68.2153C578.715 69.9764 580.082 66.1809 580.082 66.1809C580.082 66.1809 578.989 72.8305 574.1 71.282C569.211 69.7334 569.879 58.9543 570.608 54.673C571.337 50.3917 562.349 42.2543 562.349 42.2543Z" fill="#E8734D"/>
<path d="M564.809 65.8468C564.779 65.9076 562.866 70.3103 557.947 71.0087C558.099 70.4925 558.22 69.9763 558.311 69.4601C558.311 69.4601 561.013 70.0067 564.809 65.8468Z" fill="#A77860"/>
<path d="M574.191 98.2449C574.191 98.2449 573.827 99.004 572.825 102.01C571.823 93.5689 572.339 89.1965 572.339 89.1965C572.491 93.6904 574.191 98.2449 574.191 98.2449Z" fill="#CFBEB8"/>
<path d="M563.534 41.2523C563.534 41.2523 568.908 42.2847 571.58 46.657C571.58 46.657 571.034 42.6794 568.362 41.5559C565.69 40.4021 563.534 41.2523 563.534 41.2523Z" fill="#EDDAD3"/>
<path d="M571.155 107.536C571.033 108.052 570.912 108.508 570.851 108.842C570.76 109.206 570.699 109.571 570.608 109.965C567.268 108.144 564.9 106.747 564.9 106.747C565.78 106.959 571.155 107.536 571.155 107.536Z" fill="#CFBEB8"/>
<path d="M565.477 74.379L556.034 82.0914L557.005 73.9843C556.975 73.9843 562.501 72.7697 565.477 74.379Z" fill="#EEA886"/>
<path d="M558.736 80.7858L556.003 82.0914L565.294 72.8912L558.736 80.7858Z" fill="#D6C5BE"/>
<path d="M571.701 106.868C570.396 112.273 575.224 124.388 575.224 124.388L565.689 127.364C564.323 127.789 562.866 126.939 562.562 125.542C561.287 119.591 558.281 104.986 557.916 96.8482C557.461 86.4638 565.021 74.2576 565.021 74.2576C578.442 76.5652 574.768 96.8482 574.768 96.8482C574.768 96.8482 574.282 98.1235 573.645 100.127C573.493 100.644 573.311 101.19 573.129 101.767C572.643 103.285 572.157 105.016 571.701 106.868Z" fill="#494F80"/>
<path d="M556.034 74.4094L556.186 73.954C556.186 73.954 549.323 74.9864 545.832 76.7475C542.34 78.4782 535.66 87.4962 535.66 87.4962L544.404 99.0344C544.404 107.901 542.977 123.69 542.977 123.69L546.985 125.997C548.048 126.605 549.414 125.846 549.414 124.631C549.536 118.619 549.809 104.378 549.931 97.4859C550.113 88.6197 556.459 74.2576 556.459 74.2576C556.307 74.3183 556.186 74.3487 556.034 74.4094Z" fill="#494F80"/>
<path d="M543.584 116.008C543.584 116.008 550.173 116.251 551.206 116.008C552.238 115.765 559.07 112.789 559.495 109.844C559.92 106.899 543.584 112.486 543.584 112.486V116.008Z" fill="#EEA886"/>
<path d="M564.05 106.868L537.269 103.741L549.354 113.579L564.05 106.868Z" fill="#6A77BF"/>
<path d="M549.354 113.579L564.05 108.569V106.868L548.868 111.726L549.354 113.579Z" fill="#323657"/>
<path d="M556.277 101.949C556.277 101.949 554.06 101.949 552.815 101.706C551.843 101.524 549.475 101.767 548.868 102.314C548.26 102.86 546.317 106.595 545.953 106.838C545.589 107.081 546.135 107.597 546.773 107.324C546.773 107.324 547.35 108.963 548.807 108.356C550.265 107.749 551.236 106.413 551.995 106.17C552.754 105.927 557.187 104.743 557.187 104.743C557.187 104.743 557.4 101.555 556.277 101.949Z" fill="#EEA886"/>
<path d="M557.491 72.4662L552.39 80.543L549.931 82.0915L555.669 74.0451L557.491 72.4662Z" fill="#FAE6DE"/>
<path d="M552.39 80.543L556.003 82.0915L556.975 73.9844L557.491 72.4662L552.39 80.543Z" fill="#D6C5BE"/>
<path d="M544.374 112.243C544.374 112.243 544.101 115.643 544.374 116.372C544.374 116.372 527.856 114.732 526.338 112.425C524.789 110.117 524.85 107.324 524.85 107.324L544.374 112.243Z" fill="#494F80"/>
<path d="M549.354 113.579L541.55 84.5509L511.885 81.4235L520.022 108.113L549.354 113.579Z" fill="#252740"/>
<path d="M565.294 72.8912L558.736 80.7858L562.319 83.974L566.205 74.5309L565.294 72.8912Z" fill="#FAE6DE"/>
<path d="M573.857 99.4899L573.645 100.158C573.493 100.674 573.311 101.221 573.129 101.797C571.853 102.192 560.892 101.403 560.892 101.403C560.892 101.403 570.062 99.2166 573.857 99.4899Z" fill="#3D426B"/>
<path d="M573.219 101.555C571.458 101.433 568.574 101.221 566.205 101.221C562.531 101.19 556.216 101.615 556.216 101.615L556.975 105.563C556.975 105.563 568.118 107.384 574.221 107.809C574.221 107.809 582.268 108.72 582.875 107.536C583.482 106.322 582.663 98.6396 581.357 91.6863C580.051 84.733 578.715 80.7554 577.106 78.5996C575.497 76.4437 567.056 74.7737 567.056 74.7737L574.221 98.2449C574.221 98.2449 575.254 100.34 575.193 101.251C575.163 101.524 574.981 101.646 574.738 101.706C574.556 101.676 574.161 101.646 573.614 101.615L573.219 101.555Z" fill="#494F80"/>
<path d="M513.464 126.423C513.464 126.423 514.8 129.489 516.106 129.125C517.412 128.73 519.325 128.852 519.932 128.912C520.752 129.003 523.363 128.396 523.211 129.368C523.059 130.339 518.93 130.582 518.08 130.795C517.23 131.007 520.327 133.194 520.539 134.044C520.752 134.894 516.44 139.783 514.497 138.021C512.553 136.26 511.764 133.133 511.369 132.89C510.975 132.647 509.183 130.157 509.183 130.157L513.464 126.423Z" fill="#EEA886"/>
<path d="M520.144 133.497C520.144 133.497 525.67 139.236 525.701 139.934C525.731 140.633 525.367 140.906 524.82 140.39C524.274 139.874 519.294 134.985 519.294 134.985C519.294 134.985 524.608 142.91 524.729 143.457C524.82 143.791 524.152 144.367 523.848 144.125C523.545 143.882 517.806 136.351 517.806 136.351C517.806 136.351 522.755 143.76 522.725 144.246C522.695 144.701 521.966 145.096 521.571 144.58C521.176 144.064 516.166 137.445 516.166 137.445C516.166 137.445 519.385 143.062 519.112 143.487C518.93 143.76 518.383 144.276 517.594 142.819C516.804 141.331 514.557 138.052 514.557 138.052L520.144 133.497Z" fill="#EEA886"/>
<path d="M444.872 234.426C444.872 234.426 442.747 235.944 441.563 237.007C440.379 238.07 438.8 239.224 437.798 241.926C436.796 244.659 438.374 246.632 441.016 246.784C443.658 246.936 447.727 244.932 448.121 242.503C448.516 240.104 451.643 240.378 452.038 238.677C452.433 236.977 451.886 234.851 451.886 234.851L444.872 234.426Z" fill="#353A3D"/>
<path d="M445.237 232.453L444.873 234.426C444.873 234.426 445.966 236.461 451.947 234.882L451.644 232.908L445.237 232.453Z" fill="#81807E"/>
<path d="M451.947 234.882C451.947 234.882 450.611 235.064 449.64 235.216C448.668 235.368 446.785 234.153 444.873 234.426L445.449 236.855C445.449 236.855 451.795 235.671 451.947 234.882Z" fill="#353A3D"/>
<path d="M483.009 234.032C483.009 234.032 485.135 235.55 486.319 236.612C487.503 237.675 489.082 238.829 490.084 241.531C491.086 244.264 489.507 246.238 486.865 246.39C484.224 246.541 480.155 244.537 479.76 242.108C479.366 239.71 476.238 239.983 475.843 238.282C475.449 236.582 475.995 234.457 475.995 234.457L483.009 234.032Z" fill="#353A3D"/>
<path d="M482.645 232.028L483.009 234.001C483.009 234.001 481.916 236.036 475.935 234.457L476.238 232.483L482.645 232.028Z" fill="#81807E"/>
<path d="M485.529 186.816C485.529 191.188 484.892 232.422 484.892 232.422C484.467 233.88 476.299 234.366 474.841 233.637C473.384 232.908 473.627 192.008 473.384 187.605C473.111 183.203 469.588 150.774 468.283 150.926C467.007 151.078 459.781 181.624 458.779 184.964C457.746 188.304 453.738 233.394 453.738 233.394C448.759 235.125 443.658 233.606 443.658 233.606C443.658 233.606 445.571 187.939 445.571 182.535C445.571 180.531 446.178 179.012 446.724 168.294C447.15 160.126 449.427 143.426 450.945 131.949C451.006 131.554 451.036 131.159 451.097 130.765C451.4 128.518 451.613 126.878 451.734 126.089C451.795 125.755 451.795 125.572 451.795 125.572C452.19 125.39 452.645 125.208 453.07 125.056C463.728 121.23 484.315 125.269 484.315 125.269C484.315 125.269 484.315 125.36 484.345 125.572C484.375 125.815 484.406 126.18 484.467 126.635C484.588 127.637 484.77 129.155 484.952 130.916V130.947C484.952 131.007 484.952 131.068 484.983 131.099C485.711 137.323 486.045 140.754 486.622 147.404C486.774 148.831 485.529 182.444 485.529 186.816Z" fill="#292C47"/>
<path d="M474.72 66.4845C474.72 66.4845 492.179 70.1889 493.637 75.0471C495.094 79.9053 497.918 91.322 501.865 103.71C504.233 111.119 516.166 128.032 516.166 128.032C516.166 128.032 509.335 133.072 509.335 132.404C509.335 131.736 493.211 110.208 493.029 107.597C492.847 104.986 487.959 91.565 487.959 91.565C487.959 91.565 485.651 117.344 485.651 121.321C485.651 125.299 486.653 137.536 486.653 137.536C486.653 137.536 479.639 143.365 467.068 142.728C467.068 142.728 449.306 142.789 449.548 135.805C449.761 129.641 451.279 92.7795 450.884 92.567C450.49 92.3544 443.506 101.099 444.204 102.8C444.872 104.47 462.939 110.512 462.939 110.512C462.939 110.512 463.455 112.455 460.662 116.858C460.662 116.858 433.699 108.963 433.607 107.324C433.516 105.684 444.812 73.62 448.516 71.9196C453.83 69.4905 467.918 66.272 467.918 66.272L474.72 66.4845Z" fill="#F54242"/>
<path d="M475.965 234.487C475.965 234.487 477.301 234.669 478.272 234.821C479.244 234.973 481.127 233.758 483.04 234.032L482.463 236.461C482.432 236.461 476.086 235.246 475.965 234.487Z" fill="#353A3D"/>
<path d="M475.357 66.9097C475.266 71.191 465.489 75.6848 465.489 75.6848C465.489 75.6848 463.121 67.6991 463.941 67.3044C464.275 67.1526 464.366 67.0311 464.396 66.3024C464.426 65.604 464.396 64.8449 464.335 64.3591C464.305 64.0555 464.275 63.8733 464.275 63.8733C464.275 63.8733 465.459 62.6284 466.947 61.1406C469.558 58.5597 473.323 54.7034 473.323 56.0394C473.323 56.1002 473.414 56.1306 473.414 56.252C472.807 59.1973 475.357 66.9097 475.357 66.9097Z" fill="#EEA886"/>
<path d="M471.684 59.7134C471.653 59.7438 471.319 60.2599 470.712 61.019C469.437 62.6283 467.068 65.2396 464.366 66.3023C464.396 65.604 464.366 64.8449 464.305 64.359C464.032 64.359 463.759 64.3287 463.485 64.268C464.214 62.9927 465.277 61.6263 465.277 61.6263L466.947 61.1405L471.684 59.7134Z" fill="#A77860"/>
<path d="M473.263 56.586C472.534 58.1345 471.866 59.258 471.684 59.7134C471.562 60.0171 471.228 60.4725 470.712 61.0191C469.346 62.4765 466.826 64.4198 464.336 64.3591C464.063 64.3591 463.789 64.3287 463.516 64.268C462.514 64.0555 461.33 63.5696 460.662 62.2944C455.5 52.2136 459.235 43.9547 459.235 43.9547C459.235 43.9547 473.323 39.977 475.54 44.1976C477.089 47.1732 474.933 52.912 473.263 56.586Z" fill="#EEA886"/>
<path d="M459.234 43.9243C459.234 43.9243 457.929 43.8636 457.595 41.3737C457.261 38.9143 460.449 37.2443 460.449 37.2443C460.449 37.2443 462.908 35.9082 465.854 35.5135C467.949 35.2099 473.08 34.9062 474.295 36.2726C474.295 36.2726 477.21 35.6046 478.03 40.4628C479.305 48.1752 473.718 55.6447 473.718 55.6447C473.718 55.6447 473.779 50.6043 472.655 49.9363C471.532 49.2683 470.59 50.8472 470.59 50.8472L468.313 51.2419C468.313 51.2419 471.532 45.0174 467.402 44.7441C463.242 44.4708 461.603 44.3797 459.234 43.9243Z" fill="#223247"/>
<path d="M470.621 48.8432C470.834 46.6266 474.842 45.7764 474.568 48.1144C474.295 50.4524 472.322 52.669 471.411 52.6083C470.5 52.4868 470.469 50.5132 470.621 48.8432Z" fill="#EEA886"/>
<path d="M471.926 94.6924L465.337 128.518L443.658 124.297L449.366 90.32L471.926 94.6924Z" fill="#616161"/>
<path d="M470.287 96.3321L464.457 126.362L445.176 122.627L450.247 92.4455L470.287 96.3321Z" fill="#E0CEC7"/>
<path d="M464.184 95.9373L464.579 93.8118L456.805 92.2936L456.077 94.3584L464.184 95.9373Z" fill="#616161"/>
<path d="M467.676 110.239C467.676 110.239 469.346 110.178 469.832 110.117C470.348 110.056 470.014 111.119 469.406 111.332C468.83 111.544 467.676 110.239 467.676 110.239Z" fill="#C98462"/>
<path d="M468.647 118.164C468.647 118.164 467.918 118.346 467.554 118.255C467.554 118.255 466.916 118.072 466.461 117.951C466.309 117.921 466.188 117.89 466.097 117.89C465.732 117.86 464.973 117.89 464.153 117.556C463.334 117.222 460.54 115.795 460.54 115.795L461.329 113.214L461.937 111.15C461.937 111.15 466.643 109.905 467.433 110.117C467.524 110.148 467.584 110.148 467.645 110.178C468.313 110.421 468.708 110.876 469.012 111.058C469.133 111.119 470.287 111.818 470.348 112.212C470.439 112.759 470.256 113.184 469.983 113.457C469.983 113.457 470.105 114.55 469.68 115.188C469.68 115.188 469.831 116.19 469.103 116.828C469.163 116.858 469.194 117.89 468.647 118.164Z" fill="#EEA886"/>
<path d="M462.939 110.512C462.939 110.512 462.058 115.249 459.538 118.285C459.538 118.285 440.834 110.694 438.496 109.753C436.128 108.812 447.059 79.7838 447.059 79.7838L455.105 82.5165L450.793 90.6844C450.793 90.6844 448.668 95.2693 444.204 102.799C444.204 102.799 446.937 105.411 462.939 110.512Z" fill="#F54242"/>
<path d="M474.083 85.0671C474.083 85.0671 473.597 94.1155 478.121 94.1155C482.645 94.1155 482.22 85.9781 482.311 85.0671H474.083Z" fill="#F54242"/>
<path d="M474.902 85.0671H481.643V83.7007L474.902 85.0671Z" fill="white"/>
<path d="M334.105 118.012C334.105 118.012 332.04 119.348 330.856 118.589C329.854 117.951 328.093 117.86 327.547 117.83C326.818 117.799 324.662 116.858 324.601 117.769C324.541 118.68 328.124 119.5 328.822 119.803C329.551 120.137 326.393 121.655 326.028 122.384C325.664 123.113 328.518 128.184 330.553 126.878C332.587 125.572 333.893 122.84 334.318 122.688C334.712 122.536 335.836 121.807 335.836 121.807L334.105 118.012Z" fill="#EEA886"/>
<path d="M395.531 231.815C395.531 231.815 390.946 238.525 389.337 239.952C389.337 239.952 386.118 241.622 386.027 242.958C385.845 245.479 385.602 247.817 389.823 247.938C394.043 248.059 396.776 247.058 397.535 244.507C398.294 241.956 400.146 239.74 400.146 239.74V245.084H401.088C401.088 245.084 401.331 239.922 401.391 238.95C401.452 238.009 402.09 234.335 400.055 232.726C398.082 231.147 395.531 231.815 395.531 231.815Z" fill="#162D40"/>
<path d="M388.699 240.317C388.699 240.317 390.976 240.954 393.709 240.286C396.412 239.588 399.023 233.09 399.812 232.574L400.511 229.963H395.227C395.227 229.963 395.045 231.876 394.195 233.546C393.345 235.185 388.699 240.317 388.699 240.317Z" fill="#EEA886"/>
<path d="M365.684 229.295C365.684 229.295 364.985 230.934 363.68 232.635C362.738 233.88 359.763 239.011 358.457 239.345C357.151 239.709 353.113 240.408 352.749 242.685C352.384 244.932 352.202 246.541 356.21 246.723C360.188 246.906 362.799 247.149 364.712 244.355C366.625 241.562 369.661 239.527 369.661 239.527V246.815H371.21C371.21 246.815 371.908 239.224 372.333 238.677C372.758 238.131 373.821 232.301 370.147 229.295C366.412 226.289 365.684 229.295 365.684 229.295Z" fill="#162D40"/>
<path d="M358.457 239.345C358.457 239.345 362.009 240.226 363.406 239.345C364.772 238.465 369.418 230.6 370.966 230.115C370.966 230.115 369.479 227.078 365.713 229.295C365.683 229.295 359.459 238.04 358.457 239.345Z" fill="#EEA886"/>
<path d="M397.565 120.107C397.565 120.107 402.606 126.635 403.972 134.408C405.338 142.181 403.152 168.203 403.213 172.029C403.274 175.855 406.765 188.091 406.067 195.318C405.369 202.544 401.452 232.392 401.452 232.392L392.737 232.24C392.737 232.24 394.499 199.69 394.043 196.684C393.588 193.648 392.191 180.743 392.009 179.498C391.827 178.253 382.08 145.218 382.08 139.631C382.049 134.044 385.42 110.998 397.565 120.107Z" fill="#1D3B54"/>
<path d="M372.272 122.688C372.272 122.688 364.013 154.236 363.042 158.608C362.07 162.98 360.097 168.689 360.188 169.478C360.279 170.268 361.22 183.749 361.22 183.749L363.558 229.598H372.272C372.272 229.598 375.066 200.449 375.521 194.559C375.977 188.668 372.303 179.589 373.214 177.069C374.094 174.579 387.576 145.764 387.576 145.764C387.576 145.764 397.748 113.518 372.272 122.688Z" fill="#1D3B54"/>
<path d="M374.853 75.4721C374.853 75.4721 370.451 75.6543 367.961 78.3263C365.471 80.9983 364.226 85.4011 363.558 86.8282C362.89 88.2553 354.631 101.463 354.176 101.737C353.69 102.04 345.309 108.812 341.484 112.425C337.688 116.038 330.249 120.107 330.249 120.107L333.042 124.024C333.042 124.024 355.572 112 358.427 107.627C361.281 103.225 373.001 91.2917 373.001 91.2917C373.001 91.2917 382.323 80.3303 374.853 75.4721Z" fill="#EEA886"/>
<path d="M374.853 75.4721C374.853 75.4721 370.45 75.6543 367.961 78.3263C365.471 80.9983 364.226 85.4011 363.558 86.8282C362.89 88.2553 354.631 101.463 354.176 101.737C353.69 102.04 346.828 106.747 343.002 110.39C339.206 114.004 332.253 118.285 332.253 118.285L336.322 123.447C336.322 123.447 355.633 112.728 358.791 108.538C362.161 104.075 373.031 91.2613 373.031 91.2613C373.031 91.2613 382.323 80.3303 374.853 75.4721Z" fill="#285173"/>
<path d="M380.622 73.1342C380.622 73.1342 376.341 75.1685 374.853 75.4418C373.365 75.7454 367.596 83.2453 366.594 85.978C365.592 88.7108 366.594 92.8098 368.689 97.6377C370.784 102.465 368.811 104.044 369.752 108.872C370.693 113.7 371.543 123.872 371.361 126.574C371.179 129.246 395.409 129.762 400.935 124.874C400.935 124.874 395.379 116.554 394.65 115.37C393.921 114.186 394.529 107.688 395.197 106.048C395.865 104.378 403.213 91.9597 403.213 91.9597C403.213 91.9597 403.759 79.3587 400.541 76.8689C397.747 74.7131 390.126 73.9236 388.76 73.4378C387.393 72.952 383.416 72.7394 380.622 73.1342Z" fill="#EDDAD3"/>
<path d="M379.256 82.6987L376.645 79.6623L378.891 71.6463C378.891 71.6159 379.651 76.0794 379.256 82.6987Z" fill="#D6C5BE"/>
<path d="M326.453 121.989C326.453 121.989 320.502 126.392 320.35 127.03C320.199 127.667 320.441 127.971 321.018 127.576C321.595 127.182 326.909 123.477 326.909 123.477C326.909 123.477 320.715 129.884 320.502 130.37C320.35 130.643 320.836 131.281 321.14 131.098C321.474 130.916 327.972 124.935 327.972 124.935C327.972 124.935 322.203 130.916 322.142 131.372C322.081 131.766 322.658 132.252 323.113 131.827C323.569 131.402 329.247 126.149 329.247 126.149C329.247 126.149 325.33 130.764 325.482 131.19C325.573 131.463 325.968 132.009 326.939 130.795C327.911 129.58 330.522 126.939 330.522 126.939L326.453 121.989Z" fill="#EEA886"/>
<path d="M385.997 42.7704C383.446 41.8898 374.094 39.6733 371.908 51.6366C369.722 63.5999 376.311 72.1017 382.383 69.8245C388.456 67.5775 392.191 59.2882 392.555 53.003C392.92 46.6873 389.215 43.8939 385.997 42.7704Z" fill="#EEA886"/>
<path d="M371.908 51.6366C371.908 51.6366 371.452 41.4041 381.624 41.0397C391.796 40.6754 394.529 49.0557 393.679 55.1588C392.859 61.262 388.638 64.4805 388.638 64.4805C388.638 64.4805 389.003 59.5312 387.029 58.2559C385.055 56.9807 377.161 54.4301 373.699 48.4788C373.73 48.4788 372.12 50.3613 371.908 51.6366Z" fill="#252E3B"/>
<path d="M384.6 50.5436C385.936 54.6123 389.914 56.9807 393.466 55.7965C397.019 54.6123 398.841 50.3614 397.474 46.2926C396.138 42.2239 392.161 39.8555 388.608 41.0397C385.056 42.2239 383.264 46.4748 384.6 50.5436Z" fill="#252E3B"/>
<path d="M395.561 75.4721C395.561 75.4721 400.966 73.9236 404.063 79.8749C407.16 85.8262 406.371 89.0447 407.1 91.7167C407.798 94.3887 410.652 112.303 410.834 113.062C411.017 113.822 413.749 122.931 413.385 125.724C413.02 128.518 410.47 149.681 410.591 150.41C410.713 151.108 405.642 149.711 405.642 149.711C405.642 149.711 405.855 128.092 405.672 126.301C405.49 124.51 405.308 115.158 403.972 112.759C402.636 110.36 399.326 95.6336 398.628 94.1155C397.899 92.5973 391.007 77.385 395.561 75.4721Z" fill="#EEA886"/>
<path d="M378.558 68.2152C378.558 68.2152 379.408 76.0794 379.226 78.63C379.226 78.63 383.659 83.0935 388.729 73.4378C388.729 73.4378 386.604 69.4601 388.213 64.025C389.823 58.5899 378.558 68.2152 378.558 68.2152Z" fill="#EEA886"/>
<path d="M399.63 162.707V155.42C399.63 154.236 400.571 153.294 401.755 153.294H413.294C414.478 153.294 415.419 154.236 415.419 155.42V162.707C415.419 163.891 414.478 164.833 413.294 164.833H401.755C400.571 164.833 399.63 163.861 399.63 162.707ZM401.755 154.721C401.361 154.721 401.057 155.025 401.057 155.42V162.707C401.057 163.102 401.361 163.406 401.755 163.406H413.294C413.688 163.406 413.992 163.102 413.992 162.707V155.42C413.992 155.025 413.688 154.721 413.294 154.721H401.755Z" fill="#0E1E2B"/>
<path d="M411.624 157.151C411.624 157.151 412.109 156.361 412.14 155.936C412.14 155.936 412.17 155.116 412.2 154.539C412.231 154.357 412.231 154.205 412.261 154.084C412.352 153.659 412.686 152.748 412.626 151.685C412.565 150.622 411.107 146.037 411.107 146.037L408.405 146.129L405.885 145.855C405.885 145.855 402.818 151.685 402.757 152.717C402.757 152.809 402.757 152.9 402.757 152.991C402.788 153.841 403.182 154.479 403.243 154.934C403.274 155.086 403.638 156.725 404.093 156.938C404.701 157.242 405.247 157.211 405.672 156.968C405.672 156.968 406.917 157.515 407.767 157.272C407.767 157.272 408.891 157.819 409.893 157.211C409.893 157.242 411.077 157.667 411.624 157.151Z" fill="#EEA886"/>
<path d="M379.256 78.6299V82.6987L384.357 78.8729L379.256 78.6299Z" fill="#EEA886"/>
<path d="M379.256 82.6987L381.381 80.0571L388.517 72.9216L390.855 75.1685L379.256 82.6987Z" fill="#D6C5BE"/>
<path d="M389.519 73.6199C389.519 73.6199 383.507 82.7291 383.233 86.7371C382.96 90.7451 385.48 120.775 387.484 130.43C389.488 140.086 404.093 129.337 404.093 129.337C404.093 129.337 394.286 113.487 398.051 100.765C401.816 88.0731 403.941 79.632 403.941 79.632C403.941 79.632 401.391 75.5329 397.322 74.9256C393.223 74.3183 389.519 73.6199 389.519 73.6199Z" fill="#285173"/>
<path d="M365.653 87.1014C365.653 87.1014 366.624 96.2106 368.477 100.735C368.477 100.735 369.236 110.36 369.145 113.761C369.023 117.162 368.234 129.975 368.234 129.975L372.424 132.434C373.274 132.92 374.306 132.252 374.185 131.281C373.001 121.534 369.145 84.5205 377.464 74.5916L374.124 75.5632C374.094 75.5329 367.232 81.9396 365.653 87.1014Z" fill="#285173"/>
<path d="M386.027 56.1001C386.392 55.1589 387.636 54.8856 388.335 55.4321C389.033 55.9787 389.458 57.5576 388.335 59.6527C387.211 61.7174 383.234 63.1749 386.027 56.1001Z" fill="#EEA886"/>
<path d="M376.644 79.6319L373.365 80.5428L378.891 71.6159L376.644 79.6319Z" fill="#FAE6DE"/>
<path d="M381.381 80.0571L384.357 83.974L390.49 73.7718L388.517 72.9216L381.381 80.0571Z" fill="#FAE6DE"/>
<path d="M395.561 75.4721C395.561 75.4721 400.966 73.9236 404.063 79.8749C407.16 85.8262 407.13 88.3463 407.555 91.2613C407.949 93.994 411.715 110.299 411.897 111.058C412.079 111.818 413.324 122.02 413.415 125.724C413.476 128.548 412.808 147.009 412.929 147.707C413.05 148.406 404.397 146.463 404.397 146.463C404.397 146.463 405.368 129.428 405.186 127.637C405.004 125.846 404.64 116.949 403.759 114.338C402.727 111.271 398.688 95.8158 397.99 94.2976C397.292 92.7795 391.006 77.385 395.561 75.4721Z" fill="#285173"/>
<path d="M378.74 69.9459L378.892 71.4945C378.892 71.4945 382.414 72.1929 387.029 66.5452C387.059 66.5149 383.78 70.5228 378.74 69.9459Z" fill="#A77860"/>
<path d="M385.842 192.733H429.171V161.701H385.842V192.733Z" fill="#54281A"/>
<path d="M385.842 179.688H429.171V161.712H385.842V179.688Z" fill="#873F2B"/>
<path d="M366.26 99.3076C366.26 99.3076 364.681 93.2046 366.868 87.4962C366.868 87.4962 365.228 92.7187 367.505 97.7591L366.26 99.3076Z" fill="#1D3B54"/>
<path d="M399.266 98.6093C399.266 98.6093 396.412 88.6804 396.229 88.1339C396.229 88.1339 396.685 97.0608 397.839 101.524C397.839 101.524 398.476 99.7328 399.266 98.6093Z" fill="#1D3B54"/>
<path d="M218.298 254.74H302.648C308.691 254.74 313.579 249.851 313.579 243.809V19.1171C313.579 13.0747 308.691 8.18619 302.648 8.18619H218.298C212.256 8.18619 207.367 13.0747 207.367 19.1171V243.809C207.367 249.851 212.256 254.74 218.298 254.74Z" fill="#587AA3"/>
<path d="M215.015 257H316.985C323.633 257 329 251.49 329 244.734V12.2663C329 5.47933 323.603 0 316.985 0H215.015C208.367 0 203 5.51047 203 12.2663V244.703C203 251.49 208.367 257 215.015 257Z" fill="#455A64"/>
<path d="M273.682 92.2329L278.267 99.4595L282.517 106.14C282.517 106.109 282.214 105.077 281.758 102.162C281.667 101.615 281.576 100.978 281.455 100.279C281.424 100.067 281.364 99.8542 281.333 99.6721C279.511 95.4819 273.894 92.324 273.682 92.2329Z" fill="#EDDAD3"/>
<path d="M281.303 99.6113C281.303 99.6113 281.546 100.128 281.758 102.162L280.088 99.6417C280.088 99.6417 277.113 95.3908 276.111 94.2673C275.109 93.1742 273.712 92.2026 273.712 92.2026C273.712 92.2026 279.542 95.0264 281.303 99.6113Z" fill="#FFCA55"/>
<path d="M318.134 19.1171V243.809C318.134 249.851 313.245 254.74 307.203 254.74H222.853C216.81 254.74 211.922 249.851 211.922 243.809V19.1171C211.922 13.0747 216.81 8.18619 222.853 8.18619H307.203C313.245 8.18619 318.134 13.0747 318.134 19.1171Z" fill="white"/>
<path d="M250.575 232.483C250.575 232.483 252.336 237.341 255.281 239.406C258.226 241.471 261.263 244.416 260.473 246.481C259.684 248.545 249.846 247.452 245.716 241.471C243.105 237.706 240.464 236.855 240.494 235.064C240.494 233.272 243.53 229.689 243.682 229.204C243.834 228.536 250.575 232.483 250.575 232.483Z" fill="#353A3D"/>
<path d="M251.303 230.722C251.303 230.722 250.666 232.483 250.575 232.483C250.484 232.483 242.984 230.479 243.652 229.173C244.198 228.141 245.231 227.017 245.231 227.017L251.303 230.722Z" fill="#81807E"/>
<path d="M232.204 149.043C232.204 149.043 234.391 143.882 236.061 143.548C237.731 143.214 236.364 144.58 236.364 144.58C236.364 144.58 234.239 148.133 233.51 149.62C233.48 149.681 232.204 149.043 232.204 149.043Z" fill="#434343"/>
<path d="M242.862 139.479C242.862 139.479 242.407 141.969 242.316 144.519C242.225 147.039 242.619 148.011 241.891 149.226C241.314 150.137 239.947 150.471 239.765 150.076C239.583 149.651 240.828 145.795 239.219 145.248C237.609 144.701 238.004 150.167 237.184 149.469C236.365 148.801 233.419 145.521 234.361 143.669C235.271 141.817 237.215 140.936 238.156 138.021C239.006 135.38 240.19 134.56 240.19 134.56L242.862 139.479Z" fill="#EEA886"/>
<path d="M239.461 145.096C239.461 145.096 241.374 146.371 238.733 153.477L236.486 152.232C236.486 152.232 237.943 148.284 237.974 145.886C237.943 145.886 238.581 144.519 239.461 145.096Z" fill="#545554"/>
<path d="M244.927 157.485L228.166 145.612L220.09 168.567L234.695 186.239L244.927 157.485Z" fill="#545554"/>
<path d="M326.757 191.947V237.037C322.142 223.04 312.061 192.767 309.632 187.787C307.506 183.445 288.347 158.426 286.92 160.217C285.523 162.009 277.659 182.99 276.596 188.152C275.564 193.314 252.062 231.633 252.062 231.633C252.062 231.633 251.637 231.542 251.03 231.39C249.39 230.904 246.263 229.781 244.654 227.685C244.471 227.443 244.289 227.2 244.168 226.926C244.168 226.926 261.445 189.427 263.054 182.352C263.631 179.863 264.268 167.778 266.546 155.147C267.578 149.468 268.914 143.699 270.736 138.659C271.465 136.685 273.529 135.866 276.323 135.774C276.809 135.744 277.295 135.774 277.811 135.774C278.661 135.835 279.572 135.926 280.483 136.048C282.608 136.351 284.885 136.898 287.163 137.566C289.076 138.112 290.989 138.75 292.78 139.388C294.845 140.116 296.788 140.876 298.367 141.513C298.883 141.726 299.369 141.938 299.824 142.12C300.31 142.333 300.766 142.515 301.13 142.667C302.132 143.092 302.709 143.365 302.709 143.365C302.709 143.365 305.745 148.74 309.48 155.572C314.642 164.984 321.2 177.099 323.204 181.745C324.48 184.539 325.694 188.182 326.757 191.947Z" fill="#353A3D"/>
<path d="M319.683 112.85L326.788 120.775V133.892C321.717 129.064 315.735 122.9 313.519 120.957C313.124 120.623 312.851 120.411 312.729 120.35C312.426 120.228 311.849 119.439 311.15 118.255C310.968 117.921 310.725 117.556 310.513 117.162C310.179 116.554 309.845 115.917 309.48 115.249C309.237 114.793 308.994 114.338 308.752 113.852C308.509 113.366 308.266 112.88 308.023 112.425C307.537 111.453 307.082 110.512 306.656 109.601C306.322 108.933 306.019 108.265 305.746 107.688C305.563 107.293 305.381 106.929 305.229 106.595C305.078 106.261 304.926 105.957 304.804 105.684C304.501 105.016 304.319 104.591 304.258 104.5C304.288 104.804 304.501 107.111 304.197 110.117C304.076 111.423 303.833 112.88 303.468 114.338C303.013 116.099 302.8 118.437 302.709 120.896V120.957C302.709 121.018 302.709 121.079 302.709 121.139V121.2C302.588 125.663 302.891 130.491 303.013 133.042C303.195 137.08 301.859 138.872 301.859 138.872C301.859 138.872 301.677 138.841 301.343 138.811L300.462 138.689L299.46 138.568L298.124 138.386L292.902 137.657L290.989 137.384L290.564 137.323L287.254 136.837L280.574 135.896L277.902 135.532L276.445 135.319L272.922 134.833L271.344 134.59H271.313C271.313 134.59 269.947 124.995 269.856 119.803C269.765 114.945 267.123 105.047 266.759 103.741C266.759 103.71 266.728 103.68 266.728 103.65V103.619C266.728 103.619 259.077 111.635 257.619 115.158C257.255 116.008 256.283 118.073 254.977 120.684C254.947 120.745 254.917 120.805 254.917 120.866C251.395 128.001 245.625 139.145 243.379 141.756C243.105 142.09 242.893 142.303 242.711 142.303C242.65 142.303 242.589 142.333 242.498 142.333C241.101 142.333 238.763 140.39 237.609 139.357C237.184 138.993 236.941 138.72 236.941 138.72C236.941 138.72 237.032 138.477 237.245 138.082C238.885 134.347 247.113 115.613 249.208 111.18C249.391 110.755 249.542 110.482 249.633 110.33C249.664 110.269 249.694 110.208 249.755 110.087C251.303 107.081 261.87 84.1259 263.479 82.9721C263.661 82.8506 263.965 82.6684 264.329 82.4863C264.451 82.4255 264.603 82.3648 264.755 82.2737C264.755 82.2737 264.785 82.2737 264.815 82.2433C265.089 82.1219 265.362 82.0004 265.665 81.8486C265.757 81.7879 265.878 81.7575 265.969 81.6968C266.182 81.6057 266.394 81.5146 266.637 81.3931C267.912 80.8466 269.431 80.209 270.888 79.6017C271.313 79.4195 271.708 79.2677 272.072 79.1159C272.649 78.873 273.196 78.6908 273.712 78.4782C273.773 78.4479 273.833 78.4175 273.894 78.4175C275.594 77.7495 276.9 77.3244 277.173 77.294H277.386C277.507 77.294 277.629 77.2941 277.811 77.3244C279.936 77.4459 286.222 78.0228 288.256 78.2353C288.681 78.2657 288.894 78.2961 288.894 78.2961C288.894 78.2961 289.865 78.7515 291.323 79.3891L291.444 79.4499C292.294 79.8446 293.296 80.3 294.359 80.7859C296.576 81.8182 299.066 82.9721 301.039 83.9133C302.922 84.8243 305.806 86.3728 306.019 86.5246L319.683 112.85Z" fill="#DECBC4"/>
<path d="M301.859 138.902C301.859 138.902 302.557 139.752 302.77 143.305C302.77 143.305 273.833 139.934 270.767 138.598C270.767 138.598 270.645 134.681 271.283 134.59C272.011 134.53 301.859 138.902 301.859 138.902Z" fill="#495055"/>
<path d="M277.173 76.3224C277.264 80.8769 286.07 83.3364 286.07 83.3364C286.07 83.3364 289.744 78.7211 288.863 78.296C288.529 78.1138 288.378 77.4458 288.347 76.6564C288.317 75.9276 288.347 75.1078 288.408 74.5916C288.438 74.2576 288.469 74.0754 288.469 74.0754C288.469 74.0754 287.224 72.7394 285.614 71.1605C282.821 68.3974 278.995 64.8752 278.965 66.272C278.965 66.3327 278.965 66.4238 278.995 66.5453C279.663 69.7031 277.173 76.3224 277.173 76.3224Z" fill="#EEA886"/>
<path d="M277.902 135.289C277.902 135.289 277.264 139.266 277.204 140.299L275.868 140.025C275.868 140.025 276.232 135.805 276.445 135.106L277.902 135.289Z" fill="#5D676C"/>
<path d="M299.43 138.446C299.43 138.446 299.946 142.06 299.946 143.426L298.519 143.244C298.519 143.244 298.215 138.72 298.063 138.264L299.43 138.446Z" fill="#353A3D"/>
<path d="M280.574 69.6423C280.605 69.6727 280.969 70.2192 281.607 71.0391C282.943 72.7394 285.493 75.5329 288.347 76.6563C288.317 75.9276 288.347 75.1078 288.408 74.5916C288.712 74.5916 288.985 74.5613 289.289 74.5005C288.499 73.1342 287.376 71.7071 287.376 71.7071L285.615 71.1909L280.574 69.6423Z" fill="#A77860"/>
<path d="M278.873 66.3327C279.632 67.9723 280.361 69.1869 280.574 69.6727C280.695 69.9763 281.06 70.4925 281.606 71.0694C283.064 72.618 285.736 74.6827 288.408 74.622C288.711 74.622 288.984 74.5916 289.288 74.5309C290.351 74.288 291.626 73.8021 292.324 72.4358C297.82 61.687 293.843 52.9119 293.843 52.9119C293.843 52.9119 278.843 48.661 276.505 53.1852C274.805 56.3127 277.082 62.4461 278.873 66.3327Z" fill="#EEA886"/>
<path d="M293.812 52.8816C293.812 52.8816 295.209 52.7905 295.543 50.1488C295.877 47.5376 295.209 46.8088 295.209 46.8088C295.209 46.8088 289.015 44.2279 286.798 43.8939C284.582 43.5599 279.116 43.2259 277.811 44.7137C277.811 44.7137 274.683 43.985 273.833 49.1468C272.497 57.345 278.418 65.3003 278.418 65.3003C278.418 65.3003 278.357 59.9563 279.541 59.2276C280.726 58.5292 281.758 60.1992 281.758 60.1992L284.187 60.6243C284.187 60.6243 280.513 52.6994 284.916 52.3957C289.319 52.1225 291.292 53.337 293.812 52.8816Z" fill="#E2D2CA"/>
<path d="M281.698 58.0737C281.455 55.7054 277.204 54.8248 277.477 57.2843C277.75 59.7437 279.876 62.1425 280.847 62.0514C281.819 61.9906 281.849 59.8955 281.698 58.0737Z" fill="#EEA886"/>
<path d="M257.589 115.127C255.919 118.528 245.443 141.361 243.621 141.695C241.799 142.029 236.911 137.809 236.911 137.809C236.911 137.809 248.601 112.06 249.573 110.33C250.544 108.599 261.748 84.1562 263.418 82.972C264.39 82.2736 268.52 80.5126 272.011 79.1462C272.649 78.9033 273.256 78.6604 273.833 78.4478C274.562 79.2676 286.495 92.7491 285.371 104.682C285.037 108.265 284.582 114.125 283.58 120.289C282.548 126.696 280.908 133.922 279.815 139.388C277.872 149.256 273.59 158.669 273.59 158.669L262.416 153.082C260.655 152.201 259.835 150.167 260.503 148.315C263.024 141.27 268.034 127.09 268.034 120.927C268.034 120.927 267.639 106.99 266.667 103.68C266.728 103.619 259.532 111.21 257.589 115.127Z" fill="#3C4145"/>
<path d="M326.757 120.532V134.378C321.777 129.52 315.705 123.022 313.488 120.987C313.093 120.653 312.82 120.441 312.699 120.38C312.395 120.259 311.818 119.469 311.12 118.285C310.907 117.951 310.695 117.587 310.482 117.192C310.148 116.585 309.814 115.947 309.45 115.279C309.207 114.824 308.964 114.368 308.721 113.882C308.478 113.396 308.235 112.911 307.992 112.455C307.507 111.484 307.051 110.542 306.626 109.631C306.292 108.963 305.988 108.295 305.715 107.718C305.533 107.324 305.351 106.959 305.199 106.625C305.047 106.291 304.895 105.988 304.774 105.714C304.47 105.046 304.288 104.621 304.227 104.53C304.652 106.352 304.5 108.235 304.166 110.148C303.559 113.548 302.405 117.101 302.679 120.927V120.987C303.59 132.556 308.478 148.952 309.905 153.598C310.118 154.266 309.966 154.995 309.511 155.541C309.45 155.632 309.389 155.693 309.328 155.784L305.867 159.003C305.867 159.003 302.861 149.711 301.312 143.183C301.282 143.001 301.221 142.819 301.191 142.637C300.826 141.119 300.584 139.752 300.462 138.75C300.189 136.139 299.612 133.102 299.005 129.884C298.397 126.665 297.79 123.204 297.426 119.834C296.454 111.241 295.452 102.708 294.754 97.6984C294.511 96.0588 294.298 94.5709 294.086 93.1742C292.537 83.4578 291.353 79.5712 291.353 79.5712L291.414 79.5105C292.264 79.9053 293.266 80.3607 294.329 80.8465C296.545 81.8789 299.035 83.0327 301.009 83.974C302.891 84.8849 305.776 86.4335 305.988 86.5853L319.652 112.911L326.757 120.532Z" fill="#3C4145"/>
<path d="M276.293 89.6824L280.574 92.0811L278.752 93.9333L283.611 120.198C284.613 114.034 285.068 108.204 285.402 104.591C286.525 92.658 274.593 79.1765 273.864 78.3567C273.287 78.5693 272.68 78.8122 272.042 79.0551L276.293 89.6824Z" fill="#51565C"/>
<path d="M291.292 79.3891C291.292 79.3891 292.902 84.6116 294.754 97.6377C295.483 102.648 296.485 111.15 297.426 119.773L298.428 95.1479L296.394 92.9313L298.215 90.654L294.329 80.7555C293.266 80.2696 292.264 79.8142 291.444 79.4195L291.292 79.3891Z" fill="#51565C"/>
<path d="M272.011 79.1158C268.52 80.4822 263.327 82.2737 262.356 82.9721C260.686 84.1562 250.544 108.569 249.542 110.299L272.011 79.1158Z" fill="#3C4145"/>
<path d="M234.694 186.239L232.205 185.844L218.146 168.233L226.587 145.157L228.166 145.612L234.694 186.239Z" fill="#545554"/>
<path d="M273.621 78.4782L277.173 76.3224C277.173 76.3224 277.264 78.2657 286.07 83.3364L283.58 90.3504L273.621 78.4782Z" fill="#F5E2D9"/>
<path d="M288.408 77.294C288.408 77.294 288.256 79.3891 286.07 83.3364L290.928 89.6824L291.292 79.3891L288.408 77.294Z" fill="#F5E2D9"/>
<path d="M286.039 83.3364C286.039 83.3364 285.098 87.1015 285.432 88.1642C285.432 88.1642 287.497 88.9233 288.985 87.982C289.015 87.982 287.952 85.3404 286.039 83.3364Z" fill="#464157"/>
<path d="M290.928 137.779C291.444 135.107 290.958 127.121 290.928 126.787L290.473 126.817C290.473 126.908 290.989 135.076 290.473 137.687L290.928 137.779Z" fill="#AD9F99"/>
<path d="M287.223 136.534C287.223 136.534 291.474 137.05 292.901 137.384L292.719 142.151L287.132 141.544L287.223 136.534Z" fill="#69737A"/>
<path d="M288.165 87.648C288.165 87.648 292.355 99.4291 292.871 112.88C293.387 126.331 291.991 129.793 291.991 129.793L286.738 134.499L284.977 128.366C284.977 128.366 289.713 113.427 287.163 96.1802C286.707 93.0527 286.009 87.1318 286.009 87.1318L288.165 87.648Z" fill="#464157"/>
<path opacity="0.98" d="M318.506 19.4449V243.821C318.506 249.855 313.979 254.736 308.384 254.736H222.29C216.694 254.736 212.167 249.855 212.167 243.821V19.4449C212.167 13.411 216.694 8.52936 222.29 8.52936H308.384C313.979 8.52936 318.506 13.411 318.506 19.4449Z" fill="#A3CDFF" fill-opacity="0.5"/>
<path d="M336.352 132.86C336.352 132.86 338.053 135.349 338.964 135.441C339.844 135.532 341.119 136.321 341.909 136.534C342.698 136.777 345.067 136.625 345.765 137.141C346.038 137.353 347.253 139.357 347.891 139.722C348.528 140.086 349.864 140.693 349.53 141.21C349.166 141.756 347.799 141.544 347.799 141.544C347.799 141.544 348.346 141.908 348.194 142.485C347.891 143.578 347.162 143.699 347.162 143.699C347.162 143.699 347.465 144.459 347.223 144.853C346.676 145.795 346.008 145.886 346.008 145.886C346.008 145.886 346.008 146.493 345.522 147.039C344.885 147.738 343.974 147.495 343.974 147.495C343.974 147.495 343.366 148.527 342.698 148.436C342.03 148.345 341.605 147.92 341.119 147.707C340.634 147.495 337.051 144.276 335.502 141.027C333.984 137.779 331.494 135.866 331.494 135.866L336.352 132.86Z" fill="#EEA886"/>
<path d="M347.557 141.179C347.557 141.179 344.429 138.477 343.032 138.72C341.636 138.963 342.699 139.995 342.699 139.995C342.699 139.995 341.666 138.963 340.725 139.691C339.784 140.451 341.12 141.574 341.12 141.574C341.12 141.574 340.118 140.997 339.48 142.06C338.842 143.123 340.148 143.821 340.148 143.821C340.148 143.821 338.265 143.791 338.812 145.218C339.723 147.647 342.668 148.436 342.668 148.436C342.668 148.436 343.397 148.558 343.943 147.495C343.943 147.495 345.704 147.92 345.978 145.886C345.978 145.886 347.951 145.187 347.132 143.669C347.132 143.73 349.196 142.849 347.557 141.179Z" fill="#DB9C7C"/>
<path d="M337.962 244.962C337.962 244.962 342.213 248.394 346.008 248.606C349.804 248.849 354.146 249.821 354.54 252.128C354.935 254.436 343.063 257.351 338.508 255.711C331.707 253.282 331.251 254.436 330.28 252.796C329.308 251.187 330.067 246.298 329.915 245.752C329.764 245.114 337.962 244.962 337.962 244.962Z" fill="#353A3D"/>
<path d="M337.263 243.11C337.263 243.11 338.053 244.902 337.992 244.962C337.931 245.023 329.946 247.331 329.946 245.782C329.946 244.537 330.007 243.141 330.007 243.141L337.263 243.11Z" fill="#81807E"/>
<path d="M338.933 243.05C339.024 243.535 338.508 243.839 337.658 244.021C335.623 244.477 331.706 244.294 329.976 244.203C329.429 244.173 329.125 244.143 329.125 244.143C329.125 244.143 312.85 194.285 309.662 187.818C307.537 183.476 288.377 158.456 286.95 160.248C286.95 160.248 283.549 152.475 282.001 140.663C281.819 139.236 281.637 137.748 281.515 136.2C283.337 136.503 285.28 136.989 287.223 137.536C289.136 138.082 291.049 138.72 292.841 139.357C294.906 140.086 296.849 140.845 298.428 141.483C298.944 141.695 299.43 141.908 299.885 142.09C300.371 142.303 300.826 142.485 301.191 142.637C302.193 143.062 302.77 143.335 302.77 143.335C302.77 143.335 305.806 148.709 309.541 155.541C314.703 164.954 321.261 177.069 323.265 181.715C326.484 189.184 329.793 202.605 330.219 207.858C330.765 214.447 338.538 241.106 338.933 243.05Z" fill="#353A3D"/>
<path d="M339.48 135.015C339.48 135.015 339.328 135.198 339.085 135.471C338.235 136.443 336.231 138.781 334.925 140.025C334.864 140.056 334.834 140.086 334.804 140.147C334.652 140.268 334.379 140.208 333.953 139.995C330.279 138.082 317.071 124.145 313.488 121.018C313.245 120.805 313.033 120.653 312.881 120.532C312.851 120.502 312.82 120.502 312.79 120.471C312.729 120.441 312.699 120.41 312.669 120.41C312.365 120.289 311.788 119.5 311.09 118.315C310.907 117.981 310.665 117.617 310.452 117.222C310.3 116.919 310.118 116.615 309.966 116.311C309.784 115.977 309.632 115.643 309.45 115.309C309.207 114.854 308.964 114.398 308.721 113.913C307.871 112.273 307.021 110.512 306.292 108.994C306.11 108.629 305.928 108.265 305.776 107.901C305.503 107.324 305.26 106.808 305.047 106.322C304.956 106.109 304.865 105.927 304.774 105.745C304.713 105.593 304.653 105.472 304.592 105.35C304.531 105.229 304.501 105.107 304.44 105.046C304.319 104.804 304.258 104.621 304.227 104.561C304.258 104.864 304.47 107.172 304.167 110.178C304.045 111.484 303.802 112.911 303.438 114.398C302.983 116.16 302.77 118.498 302.679 120.957V121.018C302.679 121.078 302.679 121.139 302.679 121.2V121.261C302.557 125.724 302.861 130.552 302.983 133.103C303.165 137.141 301.829 138.932 301.829 138.932C301.829 138.932 301.646 138.902 301.312 138.872C301.1 138.841 300.796 138.811 300.432 138.75L299.43 138.629L298.094 138.447L292.871 137.718L290.958 137.445L290.533 137.384L287.224 136.898L281.485 136.109V136.017C281.394 134.864 281.303 133.649 281.272 132.435C281.212 130.643 281.181 128.791 281.242 126.878C281.364 121.989 281.849 117.708 282.366 113.609C283.155 107.749 284.066 102.374 284.37 96.3624C284.491 93.7511 284.521 91.0791 284.37 88.1642C284.278 86.4031 284.127 84.5813 283.884 82.6684C283.853 82.4862 283.823 82.2737 283.793 82.0915C283.61 80.7251 283.428 79.3284 283.155 77.8709C285.189 78.0531 287.193 78.2353 288.195 78.3264C288.59 78.3567 288.833 78.3871 288.833 78.3871C288.833 78.3871 289.805 78.8426 291.262 79.4802L291.384 79.5409C292.234 79.9356 293.236 80.3911 294.298 80.8769C296.515 81.9093 299.005 83.0631 300.979 84.0044C302.861 84.9153 305.746 86.4639 305.958 86.6157L319.622 112.941L338.933 134.56L339.48 135.015Z" fill="#DECBC4"/>
<path d="M302.77 143.305C302.77 143.305 302.223 143.244 301.312 143.123C300.918 143.062 300.462 143.001 299.946 142.94C299.521 142.88 299.035 142.819 298.519 142.758C296.879 142.546 294.906 142.303 292.719 142.029C290.928 141.817 289.045 141.574 287.132 141.301C285.402 141.058 283.671 140.845 282.001 140.602C281.819 139.175 281.637 137.687 281.515 136.139C281.515 136.108 281.515 136.048 281.515 136.017V135.926C283.367 136.2 285.311 136.473 287.254 136.746C288.377 136.928 289.501 137.08 290.594 137.232C290.746 137.262 290.898 137.262 291.019 137.293C291.657 137.384 292.294 137.475 292.902 137.566C294.875 137.839 296.667 138.112 298.124 138.325C298.61 138.386 299.065 138.447 299.46 138.507C299.824 138.568 300.158 138.629 300.462 138.659C300.826 138.72 301.13 138.75 301.343 138.78C301.677 138.841 301.859 138.841 301.859 138.841C301.859 138.841 302.557 139.752 302.77 143.305Z" fill="#495055"/>
<path d="M286.07 83.3364C285.888 83.2756 285.038 83.0327 283.914 82.5773C283.884 82.3951 283.853 82.1825 283.823 82.0004C283.641 80.634 283.459 79.2373 283.185 77.7798C283.003 76.6564 282.76 75.5025 282.517 74.3184C282.335 73.3771 282.153 72.4662 282.001 71.5856C281.849 71.4034 281.698 71.2516 281.576 71.0998C281.698 71.2213 281.819 71.3731 281.971 71.4945C281.88 71.0087 281.819 70.5229 281.758 70.0674C281.637 69.1565 281.515 68.2456 281.455 67.3954C282.73 68.4278 284.278 69.9156 285.584 71.2212C287.193 72.8001 288.438 74.1362 288.438 74.1362C288.438 74.1362 288.408 74.3487 288.378 74.6524C288.347 75.1685 288.286 75.9884 288.317 76.7171C288.317 76.9296 288.347 77.1422 288.378 77.3547C288.438 77.8405 288.59 78.2353 288.833 78.3567C289.744 78.7211 286.07 83.3364 286.07 83.3364Z" fill="#EEA886"/>
<path d="M299.43 138.447C299.43 138.447 299.946 142.06 299.946 143.426L298.519 143.244C298.519 143.244 298.215 138.72 298.063 138.264L299.43 138.447Z" fill="#353A3D"/>
<path d="M288.378 74.5917C288.347 75.1079 288.287 75.9276 288.317 76.6564C285.736 75.624 283.398 73.2557 282.001 71.5553C281.849 71.3731 281.698 71.2213 281.576 71.0694C281.698 71.1909 281.819 71.3427 281.971 71.4642C281.88 70.9784 281.819 70.4926 281.758 70.0371L285.584 71.1606L287.345 71.7071C287.345 71.7071 288.469 73.1342 289.258 74.5006C288.955 74.5613 288.681 74.5917 288.378 74.5917Z" fill="#A77860"/>
<path d="M292.294 72.4055C291.596 73.7719 290.351 74.2577 289.258 74.5006C288.954 74.5613 288.681 74.5917 288.377 74.6221C285.948 74.6828 283.489 72.9521 281.971 71.4642C281.88 70.9784 281.819 70.4926 281.758 70.0372C281.637 69.1262 281.515 68.2153 281.454 67.3651C281.272 65.3611 281.212 63.5393 281.272 61.8693C281.272 61.1406 281.333 60.4422 281.394 59.7742C281.454 59.0455 281.515 58.3775 281.637 57.7095C282.001 55.0678 282.639 52.912 283.367 51.1205C288.256 51.3331 293.843 52.912 293.843 52.912C293.843 52.912 297.76 61.6567 292.294 72.4055Z" fill="#EEA886"/>
<path d="M295.544 50.1489C295.21 52.7906 293.813 52.8817 293.813 52.8817C291.293 53.3371 289.319 52.1529 284.916 52.4262C280.513 52.7298 284.187 60.6548 284.187 60.6548L281.758 60.2297C281.728 60.1689 281.607 59.9868 281.394 59.7438C281.455 59.0151 281.516 58.3471 281.637 57.6791C282.001 55.0375 282.639 52.8816 283.368 51.0902C285.311 46.2927 287.983 44.3798 288.226 44.228C290.959 45.0175 295.21 46.8089 295.21 46.8089C295.21 46.8089 295.878 47.5376 295.544 50.1489Z" fill="#E2D2CA"/>
<path d="M281.728 60.1993C281.667 60.928 281.546 61.5353 281.242 61.839C281.242 61.1102 281.303 60.4119 281.364 59.7439C281.424 59.0151 281.485 58.3471 281.607 57.6791C281.667 57.8006 281.667 57.9524 281.698 58.1042C281.758 58.8026 281.789 59.5617 281.728 60.1993Z" fill="#EEA886"/>
<path d="M285.372 104.652C285.038 108.235 284.582 114.095 283.61 120.259C282.973 124.176 282.092 128.396 281.272 132.374C281.212 130.582 281.181 128.73 281.242 126.817C281.364 121.929 281.849 117.647 282.366 113.548C283.155 107.688 284.066 102.314 284.37 96.3017C285.189 99.0345 285.645 101.889 285.372 104.652Z" fill="#3C4145"/>
<path d="M303.043 121.048C302.588 115.036 305.442 109.48 304.258 104.47C304.501 105.016 311.242 119.803 312.699 120.35C314.156 120.896 332.435 141.361 333.954 139.934C335.593 138.416 339.328 134.044 339.328 134.044L319.683 112.82L306.019 86.4943C305.806 86.3121 302.922 84.7635 301.039 83.883C299.066 82.9417 296.576 81.7879 294.359 80.7555C293.297 80.2697 292.295 79.8142 291.475 79.4195L291.414 79.4802C291.414 79.4802 292.932 84.5813 294.815 97.6074C295.544 102.617 296.546 111.119 297.487 119.743C298.246 126.514 299.977 133.467 300.523 138.659C301.1 144.034 305.928 158.912 305.928 158.912L309.389 155.693C309.997 155.147 310.209 154.296 309.966 153.507C308.509 148.922 303.924 132.617 303.043 121.048Z" fill="#3C4145"/>
<path d="M285.371 104.652C285.037 108.235 284.582 114.095 283.61 120.259L282.365 113.548C283.155 107.688 284.066 102.314 284.369 96.3017C285.189 99.0345 285.645 101.889 285.371 104.652Z" fill="#51565C"/>
<path d="M291.292 79.3891C291.292 79.3891 292.902 84.6117 294.754 97.6377C295.483 102.648 296.485 111.15 297.426 119.773L298.428 95.1479L296.394 92.9313L298.215 90.6541L294.329 80.7555C293.266 80.2697 292.264 79.8142 291.444 79.4195L291.292 79.3891Z" fill="#51565C"/>
<path d="M286.07 83.3364L286.04 83.4275V83.4579L284.4 88.0731C284.309 86.312 284.157 84.4902 283.914 82.5773C283.884 82.3951 283.854 82.1826 283.823 82.0004C284.491 82.4255 285.22 82.8506 286.07 83.3364Z" fill="#F5E2D9"/>
<path d="M288.408 77.294C288.408 77.294 288.256 79.3891 286.07 83.3364L290.928 89.6824L291.292 79.3891L288.408 77.294Z" fill="#F5E2D9"/>
<path d="M286.04 83.3364C286.04 83.3364 285.099 87.1015 285.433 88.1642C285.433 88.1642 287.497 88.9233 288.985 87.9821C289.015 87.9821 287.953 85.3404 286.04 83.3364Z" fill="#464157"/>
<path d="M290.928 137.779C291.444 135.107 290.958 127.121 290.928 126.787L290.473 126.817C290.473 126.908 290.989 135.076 290.473 137.687L290.928 137.779Z" fill="#AD9F99"/>
<path d="M287.224 136.534C287.224 136.534 291.475 137.05 292.902 137.384L292.72 142.151L287.133 141.544L287.224 136.534Z" fill="#69737A"/>
<path d="M288.165 87.648C288.165 87.648 292.355 99.4292 292.871 112.88C293.387 126.331 291.991 129.793 291.991 129.793L286.738 134.499L284.977 128.366C284.977 128.366 289.713 113.427 287.163 96.1802C286.707 93.0528 286.009 87.1318 286.009 87.1318L288.165 87.648Z" fill="#464157"/>
</svg>
