<svg width="126" height="126" viewBox="0 0 126 126" fill="none" xmlns="http://www.w3.org/2000/svg">
<circle cx="63" cy="63" r="63" fill="#E4EDF7"/>
<g clip-path="url(#clip0_733_2175)">
<path d="M30.6847 25.7381L14.3423 27.662L16.1675 43.1511L32.5099 41.2273L30.6847 25.7381Z" fill="#2F2E41"/>
<path d="M22.3321 34.6668C26.7632 34.6668 30.3554 31.0765 30.3554 26.6477C30.3554 22.2188 26.7632 18.6285 22.3321 18.6285C17.901 18.6285 14.3088 22.2188 14.3088 26.6477C14.3088 31.0765 17.901 34.6668 22.3321 34.6668Z" fill="#FFB6B6"/>
<path d="M17.0422 14.2099C12.0423 15.5972 12.508 17.46 10.993 18.6339C8.32394 20.7019 7.77908 25.8305 9.68476 28.9481C10.1939 29.7811 11.1902 30.882 10.9283 32.2281C10.7272 33.2614 9.87845 33.9569 9.7186 34.0836C8.41018 35.1205 9.20977 33.9761 8.6579 34.7795C8.04877 35.6664 9.27299 36.6737 8.77436 38.1922C8.33234 39.5383 7.09834 39.5744 7.03431 40.3957C6.92401 41.81 10.3868 44.22 13.6977 43.6086C16.6457 43.0643 18.5569 40.2941 19.0175 37.8429C19.3259 36.2009 19.2184 33.4517 17.7902 32.2769C17.5899 32.1121 17.0491 31.7196 16.4972 31.0014C16.0605 30.4331 15.4855 29.685 15.7014 29.0964C15.9314 28.4694 16.8178 28.6808 17.2924 28.0525C17.936 27.2005 16.9117 26.0095 16.8942 24.6731C16.8646 22.4101 19.7168 19.3483 23.1256 19.3711C26.9925 19.3969 28.8785 23.3744 29.0765 23.81C29.4867 24.7129 29.5877 25.6213 29.7897 27.4379C30.0795 30.045 30.2611 31.679 29.6413 33.4515C28.7497 36.0008 27.2213 35.9166 27.0065 37.759C26.6716 40.6316 30.1268 43.0703 30.521 43.3414C33.4441 45.3509 37.5281 45.5778 38.0792 44.4503C38.5758 43.4343 35.7339 42.2792 35.4764 39.3317C35.2531 36.7774 37.2226 35.7589 36.5696 34.0635C35.8509 32.1973 33.2772 32.9453 31.9117 30.9C30.6371 28.9909 32.4122 27.6395 31.6124 23.5115C31.4431 22.6383 30.8685 20.1426 28.9431 17.8297C28.0949 16.8107 27.2322 15.7744 25.7936 15.3452C24.1831 14.8647 19.687 13.476 17.0422 14.2099Z" fill="#2F2E41"/>
<path d="M14.4908 21.6484C14.903 23.368 17.6237 23.9142 18.7673 24.0003C19.2517 24.0367 20.8884 24.1599 22.3971 23.2874C22.9547 22.9649 23.1418 22.7107 23.7395 22.5584C24.5489 22.3522 24.9999 22.616 26.3418 22.8231C27.8339 23.0534 28.58 23.1685 28.9109 22.8062C29.4518 22.2138 28.788 20.5624 27.9491 19.4931C26.3979 17.5157 23.9403 17.1362 22.794 16.9591C21.4845 16.7568 18.827 16.3464 16.6284 17.9705C16.3345 18.1876 14.072 19.9013 14.4908 21.6484Z" fill="#2F2E41"/>
<path d="M123.54 52.5494C123.577 52.1429 122.626 51.9194 122.679 51.5642C122.731 51.2102 123.693 51.3089 124.729 50.6938C124.916 50.5829 126.093 49.8839 125.994 49.3341C125.807 48.292 121.201 48.7026 120.793 47.1831C120.703 46.8496 120.806 46.3878 120.563 45.3407C120.466 44.9241 120.382 44.7071 120.201 44.6346C119.945 44.5317 119.717 44.8098 119.071 45.2126C118.101 45.8167 117.932 45.6156 117.234 46.1519C116.716 46.5501 116.537 46.87 116.317 46.7989C116.007 46.6984 116.165 45.9928 115.811 45.8104C115.45 45.6243 114.8 46.1087 114.398 46.533C113.644 47.3291 113.547 48.1439 113.284 48.8845C112.999 49.6892 112.384 50.7825 110.899 51.8863L97.3665 61.2073C100.213 59.3448 108.166 54.3489 111.26 52.5924C112.154 52.0853 113.091 51.5934 114.093 51.8567C115.058 52.1101 115.967 53.0328 117.517 53.6695C117.698 53.7438 118.204 53.9444 118.44 53.7318C118.635 53.5561 118.468 53.2582 118.647 53.0914C118.888 52.8677 119.385 53.2223 120.211 53.3607C120.794 53.4582 121.244 53.3987 121.631 53.3475C121.747 53.3321 123.49 53.0906 123.54 52.5494Z" fill="#F2F2F2"/>
<path d="M101.238 46.4809C101.049 46.3454 100.665 46.7473 100.506 46.619C100.347 46.4911 100.673 46.0476 100.67 45.362C100.67 45.2384 100.666 44.4593 100.368 44.3492C99.8018 44.1404 98.6744 46.5184 97.8105 46.2802C97.6209 46.2279 97.4238 46.044 96.8394 45.8614C96.6068 45.7888 96.4761 45.7673 96.3883 45.835C96.2638 45.9311 96.3347 46.123 96.346 46.5563C96.363 47.2061 96.2154 47.2311 96.2773 47.7283C96.3233 48.0975 96.4287 48.2776 96.3305 48.3647C96.1916 48.488 95.8907 48.2069 95.6991 48.3278C95.5036 48.4511 95.5538 48.9099 95.6462 49.2293C95.8196 49.8289 96.1918 50.1116 96.4796 50.4542C96.7923 50.8266 97.1517 51.4438 97.2654 52.4906L97.938 61.8184C97.8446 59.8848 97.6862 54.5416 97.7164 52.517C97.7251 51.9325 97.7539 51.331 98.1723 50.9153C98.5752 50.515 99.2907 50.3353 100.05 49.7587C100.139 49.6913 100.384 49.5008 100.348 49.3237C100.317 49.1774 100.123 49.1736 100.093 49.0374C100.052 48.8547 100.37 48.7132 100.676 48.3478C100.892 48.0902 100.993 47.8523 101.079 47.6477C101.105 47.586 101.49 46.6613 101.238 46.4809Z" fill="#F2F2F2"/>
<path d="M104.386 50.0421L105.006 48.9473L105.113 48.908C105.61 48.7265 105.984 48.4683 106.223 48.1402C106.261 48.0881 106.297 48.034 106.333 47.9789C106.476 47.7606 106.654 47.4892 107.012 47.2821C107.213 47.167 107.715 46.9279 108.004 47.2114C108.082 47.2868 108.119 47.3746 108.135 47.4579C108.151 47.4514 108.167 47.4452 108.184 47.4383C108.397 47.3573 108.525 47.3492 108.648 47.3413C108.742 47.3352 108.84 47.3291 109.022 47.2791C109.102 47.2572 109.168 47.235 109.224 47.2163C109.392 47.1601 109.603 47.1 109.794 47.2422C109.994 47.4013 109.978 47.6501 109.968 47.8149C109.95 48.1089 109.903 48.2961 109.872 48.4202C109.86 48.4654 109.848 48.5166 109.847 48.5346C109.842 48.6805 110.45 48.9802 110.677 49.0943C111.19 49.349 111.634 49.5694 111.588 49.9759C111.556 50.2668 111.272 50.4769 110.72 50.6164C110.548 50.6597 110.389 50.6724 110.255 50.6749C110.296 50.7701 110.312 50.8829 110.264 51.0055C110.148 51.2955 109.758 51.3888 109.107 51.2839C108.944 51.2583 108.727 51.2229 108.475 51.0997C108.356 51.0416 108.258 50.9773 108.175 50.921C108.139 50.9668 108.092 51.0096 108.025 51.0413C107.83 51.1346 107.602 51.0817 107.351 50.8737C107.073 50.6491 106.874 50.4214 106.699 50.2208C106.546 50.0459 106.413 49.8958 106.283 49.8142C106.039 49.6662 105.728 49.7221 105.347 49.8105L104.386 50.0421Z" fill="#F2F2F2"/>
<path d="M109.278 44.3932L108.061 44.0719L107.996 43.9779C107.694 43.5435 107.349 43.2481 106.971 43.0996C106.911 43.076 106.85 43.0554 106.787 43.0345C106.54 42.9515 106.232 42.8484 105.94 42.5542C105.778 42.3897 105.42 41.9652 105.621 41.614C105.674 41.519 105.749 41.4609 105.826 41.4242C105.815 41.4105 105.805 41.3965 105.794 41.3816C105.662 41.1966 105.622 41.0752 105.583 40.9582C105.553 40.8682 105.522 40.7754 105.428 40.6119C105.386 40.5402 105.348 40.4819 105.316 40.4329C105.219 40.2843 105.107 40.096 105.196 39.8748C105.3 39.6417 105.544 39.5935 105.706 39.5615C105.995 39.5042 106.188 39.5023 106.316 39.5011C106.363 39.5008 106.416 39.5002 106.434 39.4963C106.576 39.4635 106.712 38.8005 106.765 38.5513C106.881 37.9908 106.982 37.5058 107.387 37.4469C107.676 37.4045 107.952 37.6261 108.227 38.1243C108.312 38.2795 108.365 38.4297 108.402 38.5591C108.483 38.4953 108.588 38.4504 108.719 38.4666C109.029 38.5052 109.218 38.8578 109.282 39.5147C109.298 39.678 109.32 39.8975 109.264 40.1722C109.238 40.3015 109.201 40.4126 109.167 40.5072C109.22 40.5301 109.274 40.5654 109.322 40.6217C109.462 40.7869 109.468 41.0206 109.33 41.3155C109.184 41.6418 109.014 41.8915 108.864 42.1119C108.734 42.3044 108.622 42.4706 108.576 42.6172C108.495 42.8905 108.628 43.1771 108.81 43.5235L109.278 44.3932Z" fill="#F2F2F2"/>
<path d="M110.911 41.029L111.53 39.9342L111.638 39.8949C112.135 39.7134 112.508 39.4552 112.748 39.1271C112.786 39.075 112.821 39.0209 112.858 38.9658C113.001 38.7475 113.179 38.4761 113.537 38.269C113.737 38.1539 114.239 37.9149 114.528 38.1983C114.607 38.2737 114.644 38.3616 114.66 38.4448C114.676 38.4383 114.692 38.4321 114.709 38.4252C114.922 38.3442 115.049 38.3361 115.172 38.3282C115.267 38.3221 115.365 38.316 115.547 38.266C115.627 38.2441 115.693 38.2219 115.749 38.2032C115.917 38.147 116.128 38.0869 116.319 38.2291C116.518 38.3882 116.503 38.637 116.493 38.8018C116.475 39.0958 116.428 39.283 116.396 39.4071C116.385 39.4524 116.372 39.5035 116.371 39.5215C116.367 39.6674 116.974 39.9671 117.202 40.0812C117.715 40.3359 118.159 40.5563 118.113 40.9628C118.081 41.2537 117.796 41.4638 117.244 41.6033C117.072 41.6466 116.914 41.6593 116.779 41.6618C116.82 41.757 116.837 41.8698 116.788 41.9924C116.672 42.2824 116.283 42.3757 115.631 42.2708C115.469 42.2452 115.251 42.2099 114.999 42.0866C114.881 42.0285 114.783 41.9642 114.7 41.908C114.664 41.9537 114.616 41.9966 114.55 42.0282C114.354 42.1215 114.127 42.0686 113.876 41.8606C113.597 41.636 113.399 41.4083 113.224 41.2077C113.07 41.0328 112.938 40.8827 112.808 40.8011C112.564 40.6531 112.253 40.709 111.871 40.7974L110.911 41.029Z" fill="#F2F2F2"/>
<path d="M97.7176 61.4361L97.6016 61.1496L97.3335 60.9989C97.3462 60.9731 97.371 60.9106 97.4105 60.8132C97.6275 60.2803 98.2872 58.658 99.5763 56.2841C100.476 54.627 101.492 52.989 102.597 51.415C103.703 49.8384 104.632 48.7109 105.378 47.8046C105.941 47.1211 106.489 46.4787 107.023 45.8532C108.449 44.1818 109.796 42.6028 111.039 40.6755C111.317 40.2454 111.895 39.3499 112.055 38.0681C112.148 37.3247 112.087 36.5612 111.874 35.7992L112.47 35.6327C112.705 36.4745 112.771 37.3198 112.668 38.1453C112.491 39.5664 111.861 40.5422 111.559 41.0111C110.293 42.9723 108.933 44.5664 107.493 46.2539C106.962 46.8773 106.416 47.5167 105.855 48.1975C105.116 49.0954 104.195 50.2131 103.103 51.7694C102.012 53.3246 101.008 54.9425 100.12 56.5787C98.8469 58.9227 98.1972 60.5209 97.9837 61.046C97.8695 61.3262 97.8456 61.3849 97.7176 61.4361Z" fill="#F2F2F2"/>
<path d="M110.379 35.9303C110.359 35.9155 110.338 35.9 110.318 35.8833C109.908 35.5518 109.698 35.0109 109.693 34.2756C109.691 33.9301 109.793 33.6112 109.996 32.9752C110.027 32.877 110.191 32.3831 110.514 31.7741C110.725 31.3761 110.841 31.2297 111.009 31.148C111.196 31.0568 111.4 31.0462 111.595 31.081C111.624 31.0285 111.665 30.9828 111.722 30.9475C111.958 30.8004 112.166 30.992 112.279 31.094C112.335 31.1467 112.405 31.2131 112.492 31.2692C112.629 31.358 112.728 31.37 112.877 31.3888C113.02 31.4067 113.198 31.4289 113.416 31.527C113.845 31.7189 114.081 32.0504 114.158 32.1596C114.57 32.7318 114.532 33.346 114.488 34.0572C114.479 34.1995 114.433 34.7085 114.219 35.2976C114.065 35.7225 113.938 35.8687 113.823 35.9632C113.589 36.1577 113.344 36.1894 112.755 36.2243C112.14 36.2615 111.832 36.2799 111.596 36.2559C111.047 36.1993 110.702 36.1639 110.379 35.9303Z" fill="#F2F2F2"/>
<path d="M31.7234 111.525C27.7448 112.49 23.5885 113 19.3137 113C14.6834 113 10.1907 112.402 5.91401 111.275C5.44773 109.551 4.91839 107.641 4.31836 105.528C-1.06482 86.5602 9.84102 73.112 9.84102 73.112L12.5317 70.9901L36.7511 74.2446C39.5698 87.9793 37.7353 98.1709 31.7234 111.525Z" fill="#2F2E41"/>
<path d="M27.7783 36.8747L16.448 35.7422L8.23364 42.82L10.7829 68.2999L9.64992 73.1127L36.5592 74.2452L35.1429 67.4505L37.1257 42.5369L27.7783 36.8747Z" fill="#FF491D"/>
<path d="M31.4606 50.1808H13.3323V78.4918H31.4606V50.1808Z" fill="white"/>
<path d="M28.8739 53.9054H23.8085C23.6715 53.9054 23.5601 53.794 23.5601 53.6571C23.5601 53.5201 23.6715 53.4087 23.8085 53.4087H28.8739C29.0109 53.4087 29.1223 53.5201 29.1223 53.6571C29.1223 53.794 29.0109 53.9054 28.8739 53.9054Z" fill="#FF491D"/>
<path d="M28.8739 55.8154H23.8085C23.6715 55.8154 23.5601 55.704 23.5601 55.567C23.5601 55.4301 23.6715 55.3187 23.8085 55.3187H28.8739C29.0109 55.3187 29.1223 55.4301 29.1223 55.567C29.1223 55.704 29.0109 55.8154 28.8739 55.8154Z" fill="#FF491D"/>
<path d="M28.8739 57.7254H23.8085C23.6715 57.7254 23.5601 57.614 23.5601 57.477C23.5601 57.3401 23.6715 57.2287 23.8085 57.2287H28.8739C29.0109 57.2287 29.1223 57.3401 29.1223 57.477C29.1223 57.614 29.0109 57.7254 28.8739 57.7254Z" fill="#FF491D"/>
<path d="M28.6465 64.4103H16.3293C15.9961 64.4103 15.7251 64.1394 15.7251 63.8064C15.7251 63.4734 15.9961 63.2025 16.3293 63.2025H28.6465C28.9796 63.2025 29.2507 63.4734 29.2507 63.8064C29.2507 64.1394 28.9796 64.4103 28.6465 64.4103Z" fill="#E6E6E6"/>
<path d="M21.7174 75.4061C24.1681 76.1738 26.551 75.5323 27.0395 73.9733C27.5281 72.4144 25.9375 70.5288 23.4858 69.7611C22.5106 69.441 21.473 69.359 20.4596 69.522L10.0346 66.4002L3.41846 71.131L19.0949 73.8761C19.8343 74.5881 20.7335 75.1128 21.7174 75.4061Z" fill="#FFB6B6"/>
<path d="M9.30138 42.2538C9.30138 42.2538 5.50313 44.4231 4.41791 49.0329L0.0770566 67.472C0.0770566 67.472 -0.736854 70.1837 2.92574 71.5395C6.58834 72.8953 11.0648 67.0653 11.0648 67.0653L9.02046 65.022L12.964 47.8127L9.30138 42.2538Z" fill="#FF491D"/>
<path d="M18.8917 72.6808C16.3439 73.0046 14.1116 71.9532 13.9057 70.3326C13.6998 68.7119 15.5981 67.1362 18.1468 66.8126C19.1631 66.6693 20.199 66.7715 21.1677 67.1104L31.9801 65.8747L37.6581 71.6972L21.743 71.6368C20.8896 72.2074 19.9119 72.5654 18.8917 72.6808Z" fill="#FFB6B6"/>
<path d="M36.961 42.2357C36.961 42.2357 40.317 45.0403 40.5721 49.7691L41.5923 68.6844C41.5923 68.6844 41.9151 71.4969 38.0707 72.1861C34.2264 72.8753 30.8484 66.3477 30.8484 66.3477L33.2212 64.6967L32.3752 47.062L36.961 42.2357Z" fill="#FF491D"/>
<path d="M21.8298 52.1626H15.3149V60.0897H21.8298V52.1626Z" fill="#FF491D"/>
<path d="M17.0543 58.0796L16.6068 60.0387L16.5954 60.0897H15.3208C15.4738 59.4442 15.6635 58.6458 15.7513 58.2636C15.8618 57.7993 16.1507 57.4992 16.3348 57.3492C16.4283 57.2671 16.4963 57.2303 16.4963 57.2303L17.0543 58.0796Z" fill="#E6E6E6"/>
<path d="M21.3568 60.0897H20.1161L20.0142 57.9635L20.694 57.2472L20.7138 57.2274C20.7138 57.2274 21.2265 57.6549 21.2633 58.3769C21.2831 58.7364 21.3228 59.4583 21.3568 60.0897Z" fill="#E6E6E6"/>
<path d="M87.4307 64.3251C76.1391 64.3251 66.9527 55.1434 66.9527 43.8575C66.9527 32.5716 76.1391 23.39 87.4307 23.39C98.7224 23.39 107.909 32.5717 107.909 43.8575C107.909 55.1434 98.7224 64.3251 87.4307 64.3251ZM87.4307 23.734C76.3288 23.734 72.9756 38.0097 67.2968 43.8575C59.5647 51.8199 76.3288 63.9811 87.4307 63.9811C98.5326 63.9811 107.565 54.9536 107.565 43.8575C107.565 32.7614 98.5326 23.734 87.4307 23.734Z" fill="#102A54"/>
<path d="M88.6036 48.398C88.6036 48.7149 88.3465 48.9718 88.0295 48.9718C87.7124 48.9718 87.4554 48.7149 87.4554 48.398V44.0454L86.1397 45.3616C85.9152 45.586 85.5513 45.586 85.3268 45.3616C85.1023 45.1373 85.1023 44.7735 85.3268 44.5492L87.6231 42.2541C87.847 42.0298 88.2104 42.0293 88.4349 42.2531L88.4359 42.2541L90.7322 44.5492C90.9567 44.7735 90.9567 45.1373 90.7322 45.3616C90.5077 45.586 90.1438 45.586 89.9193 45.3616L88.6036 44.0454V48.398Z" fill="#FF491D"/>
<path d="M94.9184 51.2669V40.3653L89.7518 35.2014H83.4371C82.1689 35.2014 81.1409 36.2289 81.1409 37.4964V51.2669C81.1409 52.5344 82.1689 53.5619 83.4371 53.5619H92.6221C93.8903 53.5619 94.9184 52.5344 94.9184 51.2669ZM89.7518 38.644C89.7518 39.5946 90.5229 40.3653 91.474 40.3653H93.7703V51.2669C93.7703 51.9006 93.2562 52.4144 92.6221 52.4144H83.4371C82.803 52.4144 82.289 51.9006 82.289 51.2669V37.4964C82.289 36.8627 82.803 36.3489 83.4371 36.3489H89.7518V38.644Z" fill="#FF491D"/>
<path d="M19.7482 54.7109L17.5322 54.9718L17.7797 57.072L19.9957 56.8112L19.7482 54.7109Z" fill="#2F2E41"/>
<path d="M18.6157 55.9216C19.2166 55.9216 19.7037 55.4347 19.7037 54.8342C19.7037 54.2337 19.2166 53.7469 18.6157 53.7469C18.0149 53.7469 17.5278 54.2337 17.5278 54.8342C17.5278 55.4347 18.0149 55.9216 18.6157 55.9216Z" fill="#FFB6B6"/>
<path d="M17.8984 53.1477C17.2204 53.3358 17.2836 53.5884 17.0781 53.7476C16.7162 54.028 16.6423 54.7234 16.9008 55.1462C16.9698 55.2591 17.1049 55.4084 17.0694 55.5909C17.0421 55.731 16.927 55.8253 16.9053 55.8425C16.7279 55.9831 16.8363 55.8279 16.7615 55.9369C16.6789 56.0571 16.8449 56.1937 16.7773 56.3996C16.7174 56.5821 16.55 56.587 16.5414 56.6984C16.5264 56.8902 16.9959 57.217 17.4449 57.1341C17.8446 57.0603 18.1038 56.6846 18.1662 56.3523C18.2081 56.1296 18.1935 55.7568 17.9998 55.5975C17.9727 55.5752 17.8993 55.522 17.8245 55.4246C17.7653 55.3475 17.6873 55.2461 17.7166 55.1663C17.7478 55.0812 17.868 55.1099 17.9323 55.0247C18.0196 54.9092 17.8807 54.7477 17.8783 54.5665C17.8743 54.2596 18.2611 53.8445 18.7233 53.8476C19.2476 53.8511 19.5033 54.3904 19.5302 54.4495C19.5858 54.5719 19.5995 54.6951 19.6269 54.9414C19.6662 55.2949 19.6908 55.5165 19.6068 55.7568C19.4859 56.1025 19.2786 56.0911 19.2495 56.3409C19.2041 56.7304 19.6726 57.0611 19.7261 57.0978C20.1224 57.3703 20.6762 57.4011 20.7509 57.2482C20.8182 57.1104 20.4329 56.9538 20.398 56.5541C20.3677 56.2078 20.6348 56.0697 20.5462 55.8398C20.4488 55.5867 20.0998 55.6882 19.9146 55.4108C19.7418 55.152 19.9825 54.9687 19.874 54.409C19.8511 54.2906 19.7732 53.9522 19.5121 53.6385C19.3971 53.5004 19.2801 53.3599 19.085 53.3017C18.8667 53.2365 18.257 53.0482 17.8984 53.1477Z" fill="#2F2E41"/>
<path d="M17.5524 54.1564C17.6083 54.3895 17.9772 54.4636 18.1323 54.4753C18.198 54.4802 18.4199 54.4969 18.6245 54.3786C18.7001 54.3349 18.7254 54.3004 18.8065 54.2797C18.9162 54.2518 18.9774 54.2876 19.1593 54.3156C19.3617 54.3469 19.4628 54.3625 19.5077 54.3133C19.581 54.233 19.491 54.0091 19.3773 53.8641C19.167 53.596 18.8337 53.5445 18.6783 53.5205C18.5007 53.4931 18.1404 53.4374 17.8423 53.6576C17.8024 53.6871 17.4956 53.9195 17.5524 54.1564Z" fill="#2F2E41"/>
<path d="M20.7395 57.2756L20.5157 60.0897H16.6096L16.6068 60.0387L16.3349 57.3492L16.332 57.318L17.1591 56.6074L17.4141 56.3866L17.5869 56.2394L18.0316 56.2847L19.3119 56.4121H19.3147L19.7453 56.6725L20.3882 57.0632L20.6942 57.2472L20.7395 57.2756Z" fill="#E6E6E6"/>
</g>
<defs>
<clipPath id="clip0_733_2175">
<rect width="126" height="99" fill="white" transform="translate(0 14)"/>
</clipPath>
</defs>
</svg>
