<svg width="425" height="279" viewBox="0 0 425 279" fill="none" xmlns="http://www.w3.org/2000/svg">
<path d="M35.1264 32.2209L29.7751 32.2496L31.0599 272.337L36.4111 272.308L35.1264 32.2209Z" fill="#E0E0E0"/>
<path d="M48.0822 32.1267L42.731 32.1554L44.0157 272.242L49.367 272.214L48.0822 32.1267Z" fill="#E0E0E0"/>
<path d="M160.929 31.5633L155.578 31.592L156.863 271.679L162.214 271.65L160.929 31.5633Z" fill="#E0E0E0"/>
<path d="M173.887 31.4691L168.536 31.4977L169.816 271.585L175.167 271.556L173.887 31.4691Z" fill="#E0E0E0"/>
<path d="M173.949 31.4707L29.7471 32.2439L29.7762 37.694L173.978 36.9208L173.949 31.4707Z" fill="#E0E0E0"/>
<path d="M174.241 80.8042L30.0391 81.5774L30.0476 83.1748L174.249 82.4016L174.241 80.8042Z" fill="#E0E0E0"/>
<path d="M174.522 127.225L30.3206 127.998L30.3291 129.595L174.531 128.822L174.522 127.225Z" fill="#E0E0E0"/>
<path d="M174.71 173.74L30.5088 174.513L30.5173 176.11L174.719 175.337L174.71 173.74Z" fill="#E0E0E0"/>
<path d="M174.992 220.16L30.79 220.933L30.7986 222.531L175 221.757L174.992 220.16Z" fill="#E0E0E0"/>
<path d="M114.651 193.322L89.1157 193.459L89.261 220.615L114.797 220.478L114.651 193.322Z" fill="#EBEBEB"/>
<path d="M140.094 193.228L114.558 193.365L114.704 220.521L140.239 220.384L140.094 193.228Z" fill="#F5F5F5"/>
<path d="M89.187 200.903C106.179 201.09 123.172 200.903 140.164 200.621C140.446 200.621 140.446 200.245 140.164 200.245C123.172 200.151 106.179 200.151 89.187 200.527C88.9992 200.621 88.9992 200.903 89.187 200.903Z" fill="#E0E0E0"/>
<path d="M107.254 91.2899L88.572 91.39L88.6781 111.217L107.36 111.117L107.254 91.2899Z" fill="#EBEBEB"/>
<path d="M125.937 91.1955L107.255 91.2957L107.361 111.123L126.043 111.023L125.937 91.1955Z" fill="#F5F5F5"/>
<path d="M88.6237 96.8805C101.016 96.9745 113.502 96.8805 125.988 96.6926C126.27 96.6926 126.27 96.3167 125.988 96.3167C113.596 96.2227 101.11 96.3167 88.6237 96.5046C88.436 96.5046 88.436 96.8805 88.6237 96.8805Z" fill="#E0E0E0"/>
<path d="M110.925 110.794L76.9404 110.976L77.0269 127.139L111.012 126.956L110.925 110.794Z" fill="#EBEBEB"/>
<path d="M144.723 110.606L110.738 110.789L110.825 126.951L144.81 126.769L144.723 110.606Z" fill="#F5F5F5"/>
<path d="M76.9826 115.486C99.5141 115.768 122.233 115.486 144.765 115.11C145.046 115.11 145.046 114.734 144.765 114.734C122.233 114.64 99.5141 114.64 76.9826 115.11C76.7949 115.204 76.7949 115.486 76.9826 115.486Z" fill="#E0E0E0"/>
<path d="M86.3764 47.9978L77.8333 48.0437L78.0117 81.4021L86.5549 81.3563L86.3764 47.9978Z" fill="#EBEBEB"/>
<path d="M77.7634 57.0186L69.2202 57.0644L69.3499 81.308L77.8931 81.2622L77.7634 57.0186Z" fill="#E0E0E0"/>
<path d="M99.8185 54.1864L86.5813 54.2574L86.7257 81.2261L99.9629 81.1551L99.8185 54.1864Z" fill="#E0E0E0"/>
<path d="M103.856 54.1167L99.6309 54.1393L99.7748 81.108L103.999 81.0854L103.856 54.1167Z" fill="#EBEBEB"/>
<path d="M108.097 60.4126L103.872 60.4353L103.984 81.2021L108.208 81.1794L108.097 60.4126Z" fill="#E0E0E0"/>
<path d="M84.6478 145.534L76.7437 142.29L64.9183 171.154L72.8225 174.398L84.6478 145.534Z" fill="#E0E0E0"/>
<path d="M92.0092 141.027L83.4661 141.073L83.6445 174.431L92.1877 174.385L92.0092 141.027Z" fill="#EBEBEB"/>
<path d="M109.676 147.216L96.439 147.287L96.5833 174.255L109.821 174.184L109.676 147.216Z" fill="#E0E0E0"/>
<path d="M96.318 137.283L93.4077 137.299L93.6071 174.322L96.5174 174.306L96.318 137.283Z" fill="#EBEBEB"/>
<path d="M93.4231 143.019L92.0149 143.027L92.1832 174.224L93.5914 174.217L93.4231 143.019Z" fill="#F5F5F5"/>
<path d="M109.902 172.787L109.909 174.197L141.078 174.029L141.07 172.619L109.902 172.787Z" fill="#F5F5F5"/>
<path d="M143.711 163.981L109.726 164.163L109.772 172.808L143.757 172.626L143.711 163.981Z" fill="#EBEBEB"/>
<path d="M137.045 155.353L109.726 155.5L109.772 164.145L137.092 163.998L137.045 155.353Z" fill="#E0E0E0"/>
<path d="M424.906 272.412C424.906 272.506 329.805 272.694 212.453 272.694C95.1016 272.694 0 272.6 0 272.412C0 272.318 95.1016 272.13 212.453 272.13C329.711 272.13 424.906 272.224 424.906 272.412Z" fill="#263238"/>
<path d="M287.652 272.036H133.217C127.209 272.036 122.421 267.15 122.421 261.23V10.8063C122.421 4.79234 127.303 0 133.217 0H287.652C293.66 0 298.448 4.88631 298.448 10.8063V261.23C298.448 267.244 293.66 272.036 287.652 272.036Z" fill="#455A64"/>
<path d="M215.833 259.444C215.833 263.485 212.828 266.68 209.073 266.68C205.318 266.68 202.314 263.391 202.314 259.444C202.314 255.498 205.318 252.209 209.073 252.209C212.828 252.115 215.833 255.404 215.833 259.444Z" fill="#263238"/>
<path d="M235.829 10.8063H185.04C184.382 10.8063 183.913 10.3364 183.913 9.67867V8.92692C183.913 8.26915 184.382 7.79932 185.04 7.79932H235.829C236.487 7.79932 236.956 8.26915 236.956 8.92692V9.67867C236.956 10.2425 236.393 10.8063 235.829 10.8063Z" fill="#263238"/>
<path d="M293.379 15.5046H128.335V245.067H293.379V15.5046Z" fill="#E6EFFA"/>
<path d="M159.771 115.105L262.13 114.412L265.052 184.074L159.002 183.073L159.771 115.105Z" fill="#F45C37"/>
<path d="M159.771 115.105L211.758 73L262.13 114.412" fill="#F45C37"/>
<g opacity="0.3">
<path d="M159.73 115.303L211.716 73.1981L262.088 114.61" fill="black"/>
</g>
<path d="M159.002 183.073C158.848 182.919 167.077 173.99 177.305 163.06C187.533 152.129 195.916 143.354 196.07 143.508C196.223 143.662 187.995 152.591 177.767 163.522C167.538 174.452 159.079 183.227 159.002 183.073Z" fill="#263238"/>
<path d="M265.052 184.074C264.898 184.228 256.9 175.376 247.21 164.445C237.52 153.515 229.753 144.509 229.83 144.432C229.984 144.278 237.905 153.13 247.672 164.06C257.362 174.991 265.129 183.92 265.052 184.074Z" fill="#263238"/>
<g opacity="0.5">
<path d="M262.13 114.412L210.758 155.516L159.771 115.105" fill="black"/>
</g>
<path d="M164.924 118.954L164.77 89.0876L254.439 86.9323L255.439 119.569L210.758 154.977L164.924 118.954Z" fill="white"/>
<path d="M209.922 131.928C209.28 131.928 208.638 131.87 207.996 131.811C203.503 131.286 199.476 129.066 196.675 125.503C193.874 121.94 192.59 117.559 193.115 113.062C194.166 103.774 202.569 97.057 211.848 98.1084C216.341 98.6341 220.368 100.854 223.169 104.417C225.97 107.98 227.254 112.361 226.729 116.858C226.204 121.356 223.986 125.386 220.426 128.19C217.392 130.643 213.715 131.928 209.922 131.928ZM209.864 98.5757C201.694 98.5757 194.574 104.767 193.64 113.12C193.174 117.442 194.399 121.765 197.084 125.153C199.826 128.599 203.678 130.702 208.055 131.227C212.373 131.695 216.692 130.468 220.076 127.781C223.519 125.036 225.62 121.181 226.145 116.8C226.612 112.477 225.387 108.155 222.702 104.767C219.96 101.321 216.108 99.2182 211.731 98.6925C211.089 98.6341 210.506 98.5757 209.864 98.5757Z" fill="#2A953B"/>
<path d="M198.367 117.326L201.227 113.821L207.821 118.611L218.559 105.935L221.827 108.798L207.996 124.744L198.367 117.326Z" fill="#2A953B"/>
<path d="M328.678 144.522C328.772 145.18 329.71 145.556 330.368 145.18C330.931 144.804 331.213 144.052 331.119 143.301C331.025 142.643 330.649 141.985 330.274 141.327C331.4 141.985 332.996 141.233 333.278 140.106C333.56 138.884 332.527 137.475 331.306 137.475C332.151 137.287 333.09 137.005 333.747 136.441C334.405 135.877 334.78 134.843 334.405 133.998C334.029 133.152 332.715 132.87 332.151 133.528C332.621 133.246 333.09 132.87 333.372 132.4C333.653 131.93 333.747 131.273 333.466 130.803C333.09 130.333 332.339 130.239 331.682 130.521C331.025 130.803 330.555 131.179 329.992 131.461C328.678 132.212 326.894 132.118 325.674 131.273L322.2 134.186L328.678 144.522Z" fill="#263238"/>
<path d="M309.902 128.642C307.93 129.205 306.428 131.085 306.24 133.152C306.146 133.904 306.24 134.656 306.804 135.313C307.367 135.971 308.399 136.159 309.244 135.971C310.089 135.783 310.84 135.313 311.591 134.749C312.624 133.998 313.657 133.058 313.845 131.836C314.032 130.615 313.187 129.393 311.967 128.923C310.84 128.454 309.526 128.548 308.399 129.111" fill="#263238"/>
<path d="M313 146.026C312.624 147.247 312.249 148.469 311.404 149.502C310.653 150.536 309.526 151.382 308.212 151.476C306.897 151.57 305.583 150.818 305.208 149.69C305.02 150.442 304.363 151.006 303.612 151.194C302.86 151.382 302.016 151.006 301.64 150.348C301.265 149.69 301.546 148.751 302.203 148.375C301.452 148.845 300.513 149.22 299.762 148.751C299.481 148.563 299.199 148.187 299.105 147.905C298.73 146.683 299.481 145.462 300.232 144.522C301.077 143.582 302.016 142.643 302.203 141.421C302.391 140.482 302.016 139.448 301.734 138.508C301.452 137.475 301.358 136.253 301.64 135.219C301.922 134.092 302.485 133.152 303.518 132.588C304.456 132.024 305.771 132.024 306.616 132.776L306.803 134.374L313 146.026Z" fill="#263238"/>
<path d="M327.551 164.631C327.551 164.631 329.71 187.841 327.927 190.848C326.049 193.855 303.517 225.428 303.517 225.428H303.611C303.142 225.616 302.673 225.804 302.203 225.992C301.452 226.274 300.607 226.462 299.762 226.462C298.73 226.462 297.415 226.462 296.664 226.18C295.725 225.898 294.974 226.838 295.444 227.495C295.913 228.247 298.354 229.093 301.452 228.811C304.55 228.529 301.077 231.912 299.856 233.133C298.636 234.355 294.974 238.49 295.068 239.147C295.162 240.181 296.289 240.181 297.509 238.865C298.73 237.55 302.579 233.979 303.236 234.637C303.893 235.295 297.509 241.684 297.509 241.684C297.509 241.684 295.913 242.812 296.664 243.658C297.979 245.161 304.175 237.926 304.738 237.174C305.113 236.704 305.865 237.362 305.395 237.926C304.926 238.396 298.917 244.128 300.232 245.631C301.17 246.759 305.395 239.711 307.367 239.241C309.244 238.771 303.611 244.316 304.644 245.349C305.02 245.725 305.301 246.007 308.118 242.342C309.714 240.275 312.248 235.952 314.22 232.476C317.224 229.281 346.327 197.614 346.515 191.694C346.797 185.492 347.829 164.349 347.829 164.349L327.551 164.631Z" fill="#EB996E"/>
<path d="M292.815 267.714L292.534 259.069L308.587 258.505L309.151 271.096L308.118 271.19C303.705 271.566 285.586 272.976 282.582 272.224C279.202 271.378 292.815 267.714 292.815 267.714Z" fill="#285173"/>
<g opacity="0.4">
<path d="M286.15 269.687C286.15 269.687 281.456 271.284 282.019 272.036C282.676 272.788 300.983 272.13 309.057 271.096V270.72L287.652 271.754C287.652 271.754 287.088 269.781 286.15 269.687Z" fill="white"/>
</g>
<path d="M309.338 270.72C309.338 270.72 309.244 270.72 309.057 270.72C308.775 270.72 308.587 270.814 308.306 270.814C307.555 270.908 306.522 271.002 305.395 271.096C302.954 271.284 299.481 271.472 295.726 271.66C291.97 271.848 288.497 271.848 286.056 271.848C284.929 271.848 283.897 271.848 283.145 271.848C282.864 271.848 282.582 271.848 282.394 271.848C282.676 271.848 282.864 271.848 283.145 271.848C283.897 271.848 284.929 271.848 286.056 271.754C288.497 271.754 291.97 271.66 295.726 271.472C299.481 271.284 302.861 271.096 305.395 271.002C306.522 270.908 307.555 270.908 308.306 270.814C308.587 270.814 308.869 270.814 309.057 270.814C309.244 270.72 309.338 270.72 309.338 270.72Z" fill="#263238"/>
<path d="M287.652 272.036C287.558 272.036 287.558 271.378 287.088 270.627C286.619 269.969 286.056 269.593 286.056 269.499C286.056 269.405 286.807 269.687 287.276 270.439C287.746 271.284 287.746 272.036 287.652 272.036Z" fill="#263238"/>
<path d="M292.346 269.405C292.346 269.405 292.064 269.123 291.783 268.841C291.501 268.465 291.407 268.183 291.407 268.089C291.407 268.089 291.689 268.371 291.97 268.653C292.252 269.029 292.346 269.405 292.346 269.405Z" fill="#263238"/>
<path d="M293.66 268.653C293.66 268.653 293.378 268.559 293.097 268.277C292.815 267.995 292.627 267.807 292.627 267.807C292.627 267.807 292.909 267.901 293.191 268.183C293.472 268.371 293.66 268.653 293.66 268.653Z" fill="#263238"/>
<path d="M294.411 267.15C294.411 267.244 294.036 267.244 293.566 267.244C293.097 267.244 292.721 267.244 292.721 267.15C292.721 267.056 293.097 267.056 293.566 267.056C294.036 267.056 294.411 267.056 294.411 267.15Z" fill="#263238"/>
<path d="M294.599 266.022C294.599 266.116 294.223 266.304 293.66 266.304C293.097 266.398 292.721 266.304 292.721 266.21C292.721 266.116 293.191 266.21 293.66 266.116C294.223 266.116 294.599 266.022 294.599 266.022Z" fill="#263238"/>
<path d="M291.782 267.995C291.782 267.995 291.407 268.089 290.75 267.995C290.468 267.995 290.093 267.901 289.623 267.808C289.435 267.714 289.248 267.714 288.966 267.526C288.872 267.432 288.778 267.338 288.684 267.244C288.59 267.056 288.684 266.868 288.872 266.868C289.811 266.304 290.844 266.868 291.219 267.338C291.407 267.62 291.501 267.807 291.595 267.995C291.688 268.183 291.688 268.277 291.595 268.277C291.595 268.277 291.501 267.901 291.125 267.432C290.937 267.244 290.656 266.962 290.186 266.868C289.811 266.774 289.341 266.774 288.966 266.962C288.778 267.056 288.872 267.244 289.06 267.338C289.248 267.432 289.435 267.526 289.623 267.526C289.999 267.62 290.374 267.714 290.656 267.808C291.313 267.995 291.782 267.995 291.782 267.995Z" fill="#263238"/>
<path d="M291.501 268.089C291.501 268.089 291.313 267.808 291.313 267.338C291.313 267.15 291.407 266.868 291.595 266.586C291.782 266.304 291.97 266.022 292.44 266.022C292.721 266.022 292.815 266.304 292.815 266.492C292.815 266.68 292.721 266.868 292.627 266.962C292.44 267.244 292.346 267.432 292.158 267.62C291.876 267.995 291.595 268.089 291.501 268.089C291.595 268.089 291.782 267.901 292.064 267.526C292.158 267.338 292.346 267.15 292.44 266.868C292.533 266.68 292.627 266.21 292.44 266.21C292.158 266.21 291.97 266.492 291.782 266.68C291.595 266.868 291.501 267.15 291.501 267.338C291.407 267.808 291.501 268.089 291.501 268.089Z" fill="#263238"/>
<path d="M308.869 266.304C308.869 266.304 308.399 266.304 307.648 266.398C306.897 266.492 305.959 266.868 305.114 267.526C304.269 268.277 303.799 269.217 303.611 269.875C303.424 270.533 303.424 271.002 303.33 271.002C303.33 271.002 303.33 270.908 303.33 270.72C303.33 270.533 303.424 270.251 303.518 269.875C303.705 269.123 304.175 268.183 305.02 267.432C305.865 266.68 306.897 266.304 307.648 266.304C308.024 266.304 308.306 266.304 308.493 266.304C308.775 266.304 308.869 266.304 308.869 266.304Z" fill="#263238"/>
<path d="M306.897 259.726C306.991 259.726 307.085 261.23 307.179 263.015C307.273 264.801 307.273 266.304 307.273 266.304C307.179 266.304 307.085 264.801 306.991 263.015C306.897 261.23 306.897 259.726 306.897 259.726Z" fill="#263238"/>
<path d="M301.171 269.687C301.171 269.781 300.138 269.969 298.824 269.969C297.509 270.063 296.477 269.875 296.477 269.875C296.477 269.781 297.509 269.875 298.824 269.781C300.138 269.781 301.171 269.687 301.171 269.687Z" fill="#263238"/>
<path d="M304.362 269.593C304.362 269.593 304.269 269.781 304.175 270.063C304.081 270.345 303.987 270.533 303.987 270.533C303.893 270.533 303.893 270.251 303.987 269.969C304.081 269.687 304.362 269.593 304.362 269.593Z" fill="#263238"/>
<path d="M305.489 268.089C305.489 268.089 305.395 268.277 305.301 268.465C305.114 268.653 305.02 268.747 304.926 268.747C304.926 268.747 305.02 268.559 305.114 268.371C305.301 268.183 305.489 267.995 305.489 268.089Z" fill="#263238"/>
<path d="M307.179 267.338C307.179 267.432 306.991 267.432 306.71 267.526C306.428 267.62 306.334 267.714 306.24 267.714C306.24 267.714 306.334 267.432 306.616 267.338C306.897 267.15 307.179 267.244 307.179 267.338Z" fill="#263238"/>
<path d="M308.4 266.962C308.4 267.056 308.306 267.056 308.212 267.15C308.118 267.244 307.93 267.244 307.93 267.15C307.93 267.056 308.024 267.056 308.118 266.962C308.212 266.868 308.306 266.868 308.4 266.962Z" fill="#263238"/>
<g opacity="0.3">
<path d="M308.775 265.928L292.721 266.21V264.331L308.869 264.894L308.775 265.928Z" fill="black"/>
</g>
<path d="M353.368 209.36L302.485 208.702C302.485 208.702 288.309 210.017 288.309 228.435L290.093 264.801H311.779L310.277 229.939C311.497 229.939 327.927 230.502 327.927 230.502L353.368 209.36Z" fill="#263238"/>
<path d="M290.093 264.8C290.093 264.8 290.093 264.613 289.999 264.143C289.999 263.673 289.905 263.109 289.905 262.357C289.811 260.76 289.717 258.505 289.529 255.686C289.154 250.048 288.591 242.342 288.121 233.791C287.933 229.469 287.652 225.428 288.121 221.669C288.215 220.73 288.403 219.884 288.684 218.944C288.966 218.099 289.342 217.253 289.717 216.595C290.562 215.186 291.595 213.964 292.627 213.024C293.66 212.085 294.787 211.427 295.819 210.957C296.852 210.487 297.791 210.205 298.542 210.017C298.917 209.923 299.293 209.829 299.575 209.736C299.856 209.736 300.138 209.642 300.326 209.642C300.701 209.548 300.983 209.548 300.983 209.548C300.983 209.548 300.795 209.642 300.326 209.736C300.138 209.829 299.856 209.83 299.575 209.923C299.293 210.017 298.917 210.111 298.542 210.205C297.791 210.393 296.946 210.769 295.913 211.239C294.974 211.709 293.848 212.461 292.815 213.306C291.783 214.246 290.75 215.374 289.999 216.783C289.623 217.535 289.248 218.287 289.06 219.132C288.778 219.978 288.684 220.824 288.497 221.763C288.027 225.428 288.309 229.469 288.497 233.791C288.872 242.342 289.529 250.048 289.717 255.686C289.811 258.505 289.905 260.76 289.905 262.357C289.905 263.109 289.905 263.673 289.905 264.143C290.187 264.613 290.187 264.8 290.093 264.8Z" fill="#455A64"/>
<path d="M387.26 267.714L378.716 268.277L377.59 252.209L390.17 251.269L390.264 252.303C390.827 256.719 392.799 274.761 392.141 277.862C391.296 281.151 387.26 267.714 387.26 267.714Z" fill="#285173"/>
<g opacity="0.4">
<path d="M389.419 274.291C389.419 274.291 391.109 278.99 391.86 278.332C392.611 277.674 391.297 259.35 389.982 251.269L389.607 251.363L391.39 272.788C391.39 272.694 389.419 273.352 389.419 274.291Z" fill="white"/>
</g>
<path d="M389.607 251.081C389.607 251.081 389.607 251.175 389.701 251.363C389.701 251.645 389.794 251.833 389.794 252.115C389.888 252.867 389.982 253.9 390.17 255.028C390.452 257.471 390.733 260.854 391.015 264.707C391.297 268.465 391.484 271.848 391.578 274.385C391.578 275.513 391.672 276.546 391.672 277.298C391.672 277.58 391.672 277.862 391.672 278.05C391.672 277.768 391.672 277.58 391.578 277.298C391.578 276.546 391.484 275.513 391.39 274.385C391.297 271.942 391.015 268.465 390.827 264.707C390.545 260.948 390.264 257.565 389.982 255.028C389.888 253.9 389.794 252.867 389.701 252.115C389.701 251.833 389.607 251.551 389.607 251.363C389.607 251.175 389.607 251.081 389.607 251.081Z" fill="#263238"/>
<path d="M391.672 272.694C391.672 272.788 391.015 272.882 390.358 273.352C389.701 273.821 389.325 274.479 389.325 274.385C389.231 274.385 389.513 273.633 390.264 273.164C390.921 272.694 391.672 272.694 391.672 272.694Z" fill="#263238"/>
<path d="M388.856 268.183C388.856 268.183 388.668 268.465 388.292 268.747C387.917 269.029 387.635 269.217 387.635 269.123C387.635 269.123 387.823 268.841 388.199 268.559C388.574 268.277 388.856 268.089 388.856 268.183Z" fill="#263238"/>
<path d="M388.104 266.868C388.104 266.868 388.011 267.15 387.729 267.432C387.541 267.713 387.26 267.901 387.26 267.901C387.26 267.901 387.353 267.62 387.635 267.338C387.823 267.056 388.104 266.868 388.104 266.868Z" fill="#263238"/>
<path d="M386.509 266.21C386.602 266.21 386.602 266.586 386.696 267.056C386.696 267.526 386.696 267.901 386.696 267.901C386.602 267.901 386.602 267.526 386.509 267.056C386.509 266.586 386.509 266.21 386.509 266.21Z" fill="#263238"/>
<path d="M385.476 265.928C385.476 265.928 385.757 266.304 385.851 266.868C385.945 267.432 385.851 267.807 385.757 267.807C385.664 267.807 385.664 267.338 385.664 266.868C385.57 266.398 385.382 266.022 385.476 265.928Z" fill="#263238"/>
<path d="M387.541 268.747C387.541 268.747 387.635 269.123 387.635 269.781C387.635 270.063 387.541 270.439 387.447 270.908C387.354 271.096 387.354 271.284 387.26 271.566C387.166 271.66 387.072 271.754 386.978 271.848C386.79 271.942 386.603 271.848 386.509 271.754C385.945 270.814 386.415 269.781 386.884 269.405C387.166 269.217 387.354 269.029 387.541 269.029C387.729 268.935 387.823 268.935 387.823 268.935C387.823 268.935 387.447 269.029 386.978 269.499C386.79 269.687 386.603 270.063 386.509 270.439C386.415 270.814 386.415 271.378 386.696 271.66C386.79 271.848 386.978 271.754 387.072 271.566C387.166 271.378 387.26 271.19 387.26 271.002C387.354 270.626 387.447 270.251 387.447 269.875C387.541 269.217 387.541 268.747 387.541 268.747Z" fill="#263238"/>
<path d="M387.635 269.029C387.635 269.029 387.354 269.217 386.884 269.217C386.696 269.217 386.415 269.123 386.133 269.029C385.851 268.841 385.57 268.653 385.57 268.183C385.57 267.901 385.851 267.807 386.039 267.807C386.227 267.807 386.415 267.901 386.509 267.995C386.79 268.089 386.978 268.277 387.166 268.465C387.447 268.747 387.635 268.935 387.635 269.029C387.541 268.935 387.447 268.747 387.072 268.465C386.884 268.371 386.696 268.183 386.415 268.089C386.227 267.995 385.758 267.901 385.758 268.183C385.758 268.465 386.039 268.653 386.227 268.841C386.509 269.029 386.696 269.029 386.884 269.123C387.354 269.123 387.635 269.029 387.635 269.029Z" fill="#263238"/>
<path d="M385.288 251.739C385.288 251.739 385.288 252.209 385.382 252.961C385.476 253.712 385.851 254.652 386.603 255.498C387.354 256.343 388.292 256.719 389.043 256.907C389.794 257.095 390.17 257.095 390.17 257.095C390.17 257.095 390.076 257.095 389.888 257.095C389.701 257.095 389.419 257.095 389.043 257.001C388.292 256.813 387.354 256.437 386.509 255.592C385.758 254.746 385.382 253.712 385.288 252.961C385.194 252.585 385.194 252.303 385.288 252.115C385.194 251.833 385.288 251.739 385.288 251.739Z" fill="#263238"/>
<path d="M378.717 253.9C378.717 253.806 380.219 253.712 382.002 253.524C383.786 253.336 385.288 253.242 385.288 253.336C385.288 253.43 383.786 253.524 382.002 253.712C380.219 253.9 378.717 253.9 378.717 253.9Z" fill="#263238"/>
<path d="M388.855 259.256C388.949 259.256 389.137 260.29 389.231 261.606C389.325 262.921 389.231 263.955 389.231 263.955C389.137 263.955 389.137 262.921 389.043 261.606C388.949 260.29 388.855 259.256 388.855 259.256Z" fill="#263238"/>
<path d="M388.668 256.155C388.668 256.155 388.855 256.249 389.137 256.343C389.419 256.437 389.607 256.437 389.607 256.531C389.607 256.625 389.325 256.625 389.043 256.531C388.762 256.343 388.574 256.155 388.668 256.155Z" fill="#263238"/>
<path d="M387.072 255.028C387.072 255.028 387.26 255.122 387.447 255.216C387.635 255.404 387.729 255.498 387.729 255.592C387.729 255.592 387.541 255.498 387.353 255.404C387.166 255.216 387.072 255.028 387.072 255.028Z" fill="#263238"/>
<path d="M386.321 253.336C386.415 253.336 386.415 253.524 386.509 253.806C386.602 253.994 386.79 254.182 386.696 254.276C386.696 254.276 386.415 254.182 386.321 253.9C386.133 253.618 386.227 253.336 386.321 253.336Z" fill="#263238"/>
<path d="M385.851 252.209C385.945 252.209 385.945 252.303 386.039 252.397C386.133 252.491 386.133 252.679 386.039 252.679C385.945 252.679 385.945 252.585 385.851 252.491C385.851 252.303 385.851 252.209 385.851 252.209Z" fill="#263238"/>
<g opacity="0.3">
<path d="M384.819 251.833L385.757 267.901L383.786 267.995V251.739L384.819 251.833Z" fill="black"/>
</g>
<path d="M334.592 251.833C334.592 251.833 377.965 228.153 382.847 220.448C387.917 212.461 384.255 205.037 384.255 205.037L347.735 209.923L321.918 235.952C316.285 240.463 306.052 249.766 306.052 259.068C306.052 274.855 326.424 272.318 341.164 272.318C361.16 272.318 383.692 272.412 383.692 272.412L383.786 250.893L334.592 251.833Z" fill="#263238"/>
<path d="M324.359 256.343C324.359 256.437 326.8 255.498 329.71 254.276C332.621 253.055 334.968 251.927 334.874 251.833C334.874 251.739 332.433 252.679 329.523 253.9C326.612 255.122 324.265 256.249 324.359 256.343Z" fill="#455A64"/>
<path d="M327.739 251.081C327.739 251.175 329.429 251.363 331.494 251.457C333.559 251.551 335.249 251.457 335.343 251.363C335.343 251.269 333.653 251.081 331.588 250.987C329.429 250.893 327.739 250.987 327.739 251.081Z" fill="#455A64"/>
<path d="M345.013 213.588C345.013 213.588 344.919 213.776 344.637 214.058C344.356 214.34 343.886 214.81 343.417 215.28C342.29 216.407 340.694 217.911 338.817 219.696C334.874 223.455 329.429 228.529 323.514 234.261C320.51 237.08 317.6 239.711 315.065 242.248C312.53 244.785 310.465 247.229 309.056 249.578C307.648 251.833 306.897 253.994 306.616 255.404C306.522 255.78 306.428 256.062 306.428 256.343C306.428 256.625 306.334 256.813 306.334 257.095C306.24 257.471 306.24 257.659 306.24 257.659C306.24 257.659 306.24 257.471 306.24 257.095C306.24 256.907 306.24 256.625 306.334 256.343C306.334 256.062 306.428 255.686 306.522 255.31C306.803 253.806 307.46 251.645 308.869 249.296C310.277 246.947 312.342 244.41 314.783 241.872C317.318 239.335 320.228 236.704 323.232 233.885C329.241 228.247 334.686 223.173 338.629 219.508C340.6 217.723 342.196 216.219 343.323 215.186C343.886 214.716 344.262 214.34 344.637 214.058C344.825 213.682 345.013 213.588 345.013 213.588Z" fill="#455A64"/>
<path d="M331.964 166.51C328.114 168.578 323.233 166.886 321.543 162.846C320.604 160.591 319.853 158.805 319.853 158.805C319.853 158.805 314.22 160.778 311.404 155.704C309.808 152.791 307.554 147.905 305.865 144.146C304.456 140.951 304.832 137.287 306.803 134.374C311.404 128.548 315.065 129.581 322.294 130.709L323.42 130.897L335.155 156.926C336.845 160.497 335.437 164.631 331.964 166.51Z" fill="#FFBE9D"/>
<path d="M309.526 146.589C309.714 146.12 309.432 145.65 308.963 145.462C308.493 145.274 308.024 145.556 307.836 146.026C307.648 146.495 307.93 146.965 308.399 147.153C308.869 147.247 309.338 147.059 309.526 146.589Z" fill="#263238"/>
<path d="M307.179 145.744C307.273 145.744 307.648 145.086 308.306 144.71C308.963 144.334 309.714 144.428 309.714 144.24C309.714 144.146 309.526 144.052 309.244 144.052C308.963 143.958 308.493 144.052 308.024 144.24C307.555 144.522 307.273 144.898 307.179 145.18C307.179 145.462 307.179 145.744 307.179 145.744Z" fill="#263238"/>
<path d="M315.722 142.361C315.44 142.737 315.628 143.3 316.004 143.488C316.379 143.77 316.942 143.582 317.13 143.207C317.412 142.831 317.224 142.267 316.849 142.079C316.473 141.891 315.91 141.985 315.722 142.361Z" fill="#263238"/>
<path d="M314.971 142.173C315.065 142.173 315.44 141.515 316.098 141.139C316.755 140.763 317.506 140.857 317.506 140.669C317.506 140.575 317.318 140.481 317.036 140.481C316.755 140.388 316.285 140.481 315.816 140.669C315.346 140.951 315.065 141.327 314.971 141.609C314.971 141.985 314.971 142.173 314.971 142.173Z" fill="#263238"/>
<path d="M315.628 149.784C315.628 149.69 315.159 149.878 314.314 150.16C314.126 150.254 313.938 150.254 313.844 150.16C313.751 150.066 313.751 149.784 313.657 149.596C313.563 149.032 313.469 148.469 313.469 147.811C313.093 145.368 312.718 143.3 312.624 143.394C312.53 143.394 312.624 145.462 312.999 147.905C313.093 148.469 313.187 149.126 313.281 149.69C313.375 149.972 313.375 150.254 313.563 150.536C313.657 150.63 313.938 150.724 314.032 150.63C314.22 150.63 314.314 150.536 314.408 150.536C315.159 150.066 315.628 149.784 315.628 149.784Z" fill="#263238"/>
<path d="M319.853 158.711C319.853 158.711 323.233 157.208 325.58 153.167C325.58 153.167 325.955 157.772 320.604 160.027L319.853 158.711Z" fill="#EB996E"/>
<path d="M325.861 136.629C325.955 136.535 329.992 134.092 331.213 138.602C332.245 142.455 327.927 143.113 327.927 142.925C327.739 142.831 325.861 136.629 325.861 136.629Z" fill="#FFBE9D"/>
<path d="M328.584 140.669C328.584 140.669 328.678 140.669 328.772 140.669C328.866 140.669 329.053 140.669 329.241 140.481C329.617 140.2 329.711 139.448 329.429 138.79C329.335 138.414 329.147 138.132 328.959 137.944C328.772 137.756 328.49 137.568 328.302 137.662C328.115 137.662 328.021 137.85 328.021 137.944C328.021 138.038 328.021 138.132 328.021 138.132C328.021 138.132 327.927 138.132 327.927 137.944C327.927 137.85 327.927 137.756 328.021 137.662C328.115 137.568 328.208 137.475 328.302 137.475C328.584 137.381 328.959 137.568 329.147 137.756C329.429 138.038 329.617 138.32 329.71 138.696C329.992 139.448 329.804 140.294 329.335 140.575C329.147 140.763 328.866 140.763 328.678 140.669C328.678 140.763 328.584 140.669 328.584 140.669Z" fill="#EB996E"/>
<path d="M323.984 165.853C323.984 165.853 334.123 148.939 349.707 163.128C359.846 172.43 376.463 191.6 382.472 199.117C383.786 200.809 385.851 203.346 384.443 204.943C380.031 209.736 367.826 220.542 345.389 212.461L324.078 182.767C320.416 177.787 320.322 171.021 323.984 165.853Z" fill="#285173"/>
<path d="M336.845 157.772L334.029 153.167L319.477 164.725L322.2 169.048L336.845 157.772Z" fill="#285173"/>
<g opacity="0.3">
<path d="M336.282 158.429C336.282 158.429 324.828 168.296 324.641 168.202C324.453 168.014 320.041 164.819 320.041 164.819L324.077 167.074L336.282 158.429Z" fill="black"/>
</g>
<path d="M337.033 157.772C337.033 157.772 336.751 157.865 336.282 158.147C335.813 158.429 335.155 158.805 334.404 159.369C332.808 160.403 330.743 162 328.396 163.785C326.8 165.007 325.298 166.041 324.077 166.886H324.265C322.951 166.135 321.73 165.571 320.979 165.101C320.134 164.725 319.759 164.443 319.665 164.537C319.665 164.537 320.041 164.819 320.885 165.289C321.637 165.759 322.763 166.417 324.077 167.168L324.171 167.262L324.265 167.168C325.58 166.323 327.082 165.289 328.678 164.067C330.931 162.376 332.996 160.778 334.592 159.557C335.249 158.993 335.906 158.617 336.376 158.241C336.751 157.959 337.033 157.772 337.033 157.772Z" fill="#263238"/>
<path d="M267.162 179.249L265.215 177.038C265.215 177.038 263.779 175.914 261.787 173.367C261.279 172.699 260.896 171.987 260.554 171.192C260.211 170.186 259.866 168.97 259.86 168.13C259.896 167.205 258.674 166.711 258.217 167.429C257.676 168.105 257.612 170.795 258.849 173.6C260.087 176.406 255.83 174.212 254.229 173.426C252.627 172.641 247.615 170.495 247.029 170.836C246.108 171.221 246.41 172.311 248.011 173.097C249.654 173.798 254.25 176.367 253.836 177.211C253.422 178.055 245.372 174 245.372 174C245.372 174 243.852 172.835 243.271 173.806C242.233 175.495 251.12 179.123 252.004 179.452C252.635 179.657 252.18 180.585 251.506 180.254C250.916 179.965 243.623 176.073 242.585 177.761C241.839 179.07 249.872 180.814 250.849 182.444C251.911 184.117 244.914 180.474 244.168 181.783C243.919 182.289 243.754 182.626 248.132 184.147C252.594 185.708 265.208 187.92 265.208 187.92L267.162 179.249Z" fill="#FFBE9D"/>
<path d="M328.951 175.655C328.951 175.655 306.611 187.511 303.12 186.74C299.629 185.969 262.677 174.536 262.677 174.536L258.858 186.583C258.858 186.583 302.084 206.328 308.076 204.558C314.069 202.789 335.939 189.76 335.939 189.76L328.951 175.655Z" fill="#FFBE9D"/>
<path d="M304.322 202.193C304.322 202.193 304.324 202.403 304.494 202.696C304.664 202.989 305.002 203.364 305.634 203.569C306.224 203.859 307.063 203.852 307.732 203.343C308.443 202.959 309.108 202.029 308.975 201.022C308.929 200.476 308.716 200.058 308.378 199.682C307.998 199.391 307.576 199.184 307.156 199.187C306.191 199.237 305.651 200.124 305.781 200.711C305.87 201.382 306.46 201.672 306.88 201.669C307.258 201.75 307.383 201.497 307.383 201.497C307.383 201.497 307.173 201.498 306.878 201.459C306.584 201.419 306.12 201.086 306.117 200.666C306.03 200.205 306.571 199.528 307.201 199.523C307.536 199.479 307.873 199.644 308.169 199.894C308.465 200.144 308.593 200.521 308.596 200.941C308.602 201.781 308.146 202.499 307.56 202.84C306.933 203.265 306.219 203.228 305.756 203.106C304.705 202.904 304.363 202.109 304.322 202.193Z" fill="#EB996E"/>
<path d="M341.474 188.708L318.153 204.269L309.491 185.051C309.491 185.051 327.718 173.48 334.963 170.65L341.474 188.708Z" fill="#28567C"/>
<path d="M305.395 224.207C305.395 224.113 307.273 224.77 308.681 226.65C310.089 228.529 310.277 230.502 310.183 230.408C309.995 230.408 309.714 228.623 308.306 226.932C306.991 225.146 305.395 224.301 305.395 224.207Z" fill="#455A64"/>
<path d="M322.294 138.79C322.482 139.166 322.857 139.448 323.326 139.542C323.702 139.636 324.171 139.636 324.641 139.73C325.298 139.824 325.955 140.2 326.331 140.763C326.518 140.951 326.706 141.233 326.894 141.421C327.176 141.609 327.457 141.703 327.739 141.515C328.114 141.233 327.927 140.669 327.739 140.2C326.894 138.414 325.955 136.723 325.11 134.937L320.135 136.065L322.294 138.602" fill="#263238"/>
<path d="M305.958 132.87C306.522 132.212 307.367 131.649 308.024 132.212C308.681 132.776 308.963 133.716 309.15 134.562C309.338 135.407 309.526 136.347 309.995 137.099C310.652 138.038 311.779 138.602 312.906 138.414C314.032 138.32 315.065 137.475 315.44 136.441C316.098 137.475 316.849 138.508 317.787 139.26C318.726 140.012 320.134 140.388 321.261 139.918C322.388 139.448 323.139 138.038 322.575 136.911C323.233 137.381 323.984 137.756 324.829 137.756C325.673 137.756 326.518 137.287 326.8 136.535C327.082 135.783 326.706 134.749 325.861 134.562C326.8 135.125 328.114 135.125 328.959 134.468C329.804 133.81 330.086 132.494 329.523 131.555C328.959 130.615 327.551 130.333 326.706 130.991C327.363 130.615 327.927 130.239 328.302 129.581C328.678 128.923 328.49 127.984 327.833 127.702C327.082 127.326 326.237 128.078 325.392 128.266C323.984 128.548 322.857 127.232 321.73 126.386C319.665 124.883 316.943 124.413 314.502 124.977C311.967 125.447 309.714 126.856 307.836 128.548C306.709 129.675 305.489 131.273 305.958 132.87Z" fill="#263238"/>
<path d="M308.963 143.019C308.963 143.394 308.587 143.77 308.118 143.958C307.648 144.146 307.085 144.146 306.803 143.864C306.522 143.582 306.803 142.925 307.554 142.643C308.306 142.267 308.963 142.643 308.963 143.019Z" fill="#263238"/>
<path d="M316.379 139.448C316.285 139.824 315.816 140.106 315.346 140.388C314.877 140.575 314.314 140.763 313.938 140.575C313.751 140.481 313.75 140.2 313.844 139.918C313.938 139.636 314.314 139.26 314.689 139.072C315.159 138.884 315.628 138.884 315.91 138.978C316.285 139.072 316.379 139.26 316.379 139.448Z" fill="#263238"/>
<path d="M318.539 148.093C318.633 147.999 319.008 149.033 318.539 150.066C318.069 151.1 317.13 151.57 317.13 151.476C317.037 151.382 317.694 150.818 318.069 149.878C318.445 148.939 318.445 148.093 318.539 148.093Z" fill="#263238"/>
<path d="M329.335 133.058C329.335 133.058 329.241 133.152 329.147 133.152C328.959 133.246 328.772 133.246 328.396 133.34C327.833 133.34 326.706 133.152 326.143 132.024L326.425 132.118C325.767 132.776 324.641 133.34 323.327 133.34C322.012 133.34 320.604 132.964 319.571 131.742L319.947 131.555C319.947 132.212 319.571 132.776 319.102 133.152C318.539 133.528 317.975 133.716 317.318 133.622C316.192 133.434 315.441 132.776 314.783 132.024C314.126 131.367 313.657 130.615 313 130.051C312.436 129.487 311.779 129.017 311.028 128.923C310.371 128.83 309.62 128.923 309.057 129.205C307.93 129.675 307.179 130.427 306.616 130.991C306.146 131.555 305.865 131.836 305.771 131.742C305.771 131.742 305.959 131.367 306.428 130.803C306.897 130.239 307.648 129.393 308.869 128.829C309.526 128.548 310.277 128.36 311.028 128.548C311.873 128.642 312.624 129.111 313.281 129.769C313.938 130.333 314.502 131.085 315.065 131.742C315.722 132.4 316.473 133.058 317.318 133.152C318.351 133.34 319.571 132.588 319.477 131.649V130.991L319.947 131.555C320.886 132.588 322.2 133.058 323.327 133.058C324.547 133.058 325.58 132.588 326.237 132.024L326.425 131.836L326.518 132.024C326.988 132.964 327.927 133.34 328.49 133.34C329.053 133.246 329.335 133.058 329.335 133.058Z" fill="#455A64"/>
<path d="M348.205 174.216C348.111 174.216 348.205 173.652 348.017 172.712C347.829 171.773 347.454 170.269 346.515 168.766C345.576 167.262 344.074 165.665 341.915 164.819C339.756 163.879 337.033 163.691 334.498 164.537C333.184 165.007 332.057 165.665 331.119 166.417C330.086 167.168 329.241 168.108 328.49 168.954C326.988 170.739 325.861 172.618 324.922 174.122C323.984 175.625 323.233 176.941 322.669 177.787C322.388 178.162 322.2 178.538 322.012 178.726C321.824 178.914 321.73 179.008 321.73 179.008C321.73 179.008 322.012 178.538 322.482 177.599C323.045 176.659 323.796 175.437 324.641 173.934C325.58 172.336 326.612 170.457 328.114 168.672C329.617 166.792 331.682 164.913 334.311 163.973C337.033 163.034 339.85 163.316 342.103 164.255C344.356 165.195 345.952 166.886 346.891 168.484C347.829 170.081 348.205 171.491 348.299 172.524C348.393 172.994 348.393 173.464 348.393 173.652C348.205 174.122 348.205 174.216 348.205 174.216Z" fill="#263238"/>
<path d="M344.074 183.143C344.074 183.143 344.168 182.767 343.699 182.391C343.511 182.203 343.135 182.109 342.76 182.015C342.384 181.921 341.821 182.015 341.258 181.733C340.131 181.263 339.474 179.948 339.098 178.632C338.911 177.975 338.723 177.223 338.535 176.471C338.253 175.813 337.878 175.062 337.221 174.686C336.564 174.216 335.813 174.028 335.062 173.934C334.31 173.84 333.559 173.84 332.902 173.934C331.494 174.028 330.086 173.934 329.147 173.37C328.114 172.806 327.645 171.961 327.457 171.397C327.363 171.115 327.363 170.833 327.457 170.645C327.457 170.457 327.551 170.363 327.551 170.363C327.645 170.363 327.551 170.739 327.739 171.303C327.927 171.867 328.49 172.618 329.335 172.994C330.274 173.464 331.588 173.464 332.996 173.37C334.404 173.276 336.094 173.182 337.596 174.216C338.347 174.78 338.723 175.531 339.005 176.283C339.286 177.035 339.38 177.787 339.568 178.444C339.943 179.76 340.507 180.981 341.445 181.357C341.915 181.545 342.384 181.545 342.854 181.639C343.323 181.733 343.699 181.921 343.886 182.109C344.074 182.297 344.168 182.579 344.168 182.767C344.074 183.049 344.074 183.143 344.074 183.143Z" fill="#FAFAFA"/>
<path d="M338.441 191.13C338.347 191.13 338.347 190.848 338.066 190.378C337.784 189.908 337.127 189.439 336.188 189.157C335.249 188.875 334.029 188.875 332.714 188.405C332.057 188.217 331.4 187.747 330.931 187.183C330.461 186.526 330.274 185.868 329.804 185.21C328.959 183.988 327.457 183.613 326.237 183.331C324.922 183.049 323.702 182.673 322.857 182.015C322.012 181.357 321.637 180.606 321.543 179.948C321.449 179.384 321.637 179.008 321.637 179.102C321.637 179.102 321.637 179.384 321.73 179.948C321.824 180.512 322.294 181.169 323.045 181.733C323.796 182.297 325.016 182.579 326.331 182.861C326.988 183.049 327.645 183.143 328.396 183.519C329.053 183.801 329.804 184.27 330.274 184.928C330.743 185.586 330.931 186.338 331.4 186.901C331.776 187.465 332.339 187.841 332.902 188.029C334.123 188.499 335.343 188.499 336.282 188.875C337.221 189.251 337.972 189.814 338.253 190.284C338.441 190.566 338.441 190.754 338.535 190.942C338.441 191.036 338.441 191.13 338.441 191.13Z" fill="#FAFAFA"/>
<path d="M364.353 178.444C364.353 178.444 364.353 178.538 364.353 178.82C364.259 179.102 364.165 179.478 363.977 179.854C363.508 180.7 362.381 181.733 360.785 182.485C360.034 182.861 359.095 183.143 358.156 183.613C357.218 183.988 356.279 184.552 355.528 185.304C353.932 186.901 353.181 189.345 352.054 191.694C351.491 192.915 350.834 194.043 349.895 194.983C349.613 195.171 349.426 195.452 349.144 195.546C348.862 195.734 348.581 195.922 348.299 196.016C347.736 196.298 347.172 196.486 346.609 196.58C344.356 197.05 342.291 196.956 340.601 197.426C339.005 197.896 337.878 198.929 337.503 199.681C337.033 200.527 337.033 201.091 337.033 201.091C337.033 201.091 337.033 200.997 337.033 200.715C337.033 200.433 337.127 200.057 337.315 199.587C337.69 198.741 338.817 197.614 340.507 197.05C342.197 196.486 344.262 196.58 346.515 196.016C347.078 195.922 347.642 195.734 348.111 195.452C348.393 195.359 348.581 195.171 348.862 194.983C349.144 194.795 349.332 194.607 349.519 194.419C350.364 193.573 351.021 192.446 351.585 191.318C352.711 188.969 353.462 186.432 355.246 184.834C356.091 183.988 357.124 183.425 358.063 183.049C359.001 182.673 359.94 182.297 360.691 182.015C362.287 181.357 363.32 180.418 363.789 179.572C364.259 179.008 364.259 178.444 364.353 178.444Z" fill="#FAFAFA"/>
<path d="M373.835 190.002C373.835 190.002 373.835 190.566 373.271 191.506C372.708 192.352 371.488 193.385 369.798 194.137C368.108 194.889 365.949 195.265 363.883 196.392C362.851 196.956 361.912 197.802 361.348 198.929C360.691 200.057 360.316 201.278 359.752 202.594C358.626 205.225 356.654 207.198 354.589 208.42C352.43 209.642 350.271 210.017 348.393 210.017C346.515 210.017 345.107 209.548 344.168 209.172C343.699 208.984 343.323 208.796 343.136 208.702C342.948 208.608 342.76 208.514 342.76 208.514C342.76 208.514 343.229 208.702 344.262 209.078C345.201 209.454 346.609 209.736 348.393 209.736C350.177 209.736 352.336 209.266 354.307 208.138C356.373 206.917 358.25 205.037 359.283 202.5C359.846 201.278 360.222 199.963 360.879 198.741C361.536 197.52 362.569 196.674 363.602 196.11C365.761 194.983 367.92 194.701 369.61 193.949C371.3 193.291 372.426 192.352 372.99 191.6C373.647 190.566 373.741 190.002 373.835 190.002Z" fill="#FAFAFA"/>
<path d="M382.284 199.211C382.378 199.305 380.594 199.775 378.529 201.466C377.496 202.312 376.369 203.534 375.524 205.131C375.055 205.883 374.773 206.823 374.398 207.762C374.022 208.702 373.459 209.642 372.52 210.299C371.581 210.957 370.455 211.145 369.516 211.239C368.483 211.333 367.544 211.427 366.7 211.521C364.916 211.803 363.414 212.367 362.193 212.93C359.752 214.152 358.532 215.374 358.438 215.28C358.438 215.28 358.72 214.904 359.283 214.434C359.846 213.964 360.785 213.212 362.005 212.555C363.226 211.897 364.822 211.333 366.606 210.957C367.544 210.769 368.483 210.769 369.422 210.675C370.361 210.581 371.394 210.393 372.239 209.83C373.083 209.266 373.553 208.42 373.928 207.48C374.304 206.541 374.679 205.695 375.055 204.849C375.994 203.252 377.12 201.936 378.247 201.091C379.373 200.245 380.406 199.681 381.063 199.399C381.439 199.211 381.721 199.117 381.908 199.117C382.19 199.211 382.284 199.211 382.284 199.211Z" fill="#FAFAFA"/>
<path d="M344.637 181.827C344.637 181.733 345.67 181.639 346.797 180.512C347.36 179.948 347.923 179.196 348.299 178.162C348.674 177.223 348.956 176.095 349.332 174.874C349.613 173.652 349.989 172.524 350.458 171.491C350.927 170.551 351.585 169.705 352.242 169.236C352.899 168.672 353.556 168.39 353.932 168.296C354.401 168.202 354.683 168.202 354.683 168.202C354.683 168.296 353.65 168.296 352.43 169.424C351.866 169.987 351.303 170.739 350.834 171.679C350.364 172.618 350.083 173.746 349.801 174.968C349.519 176.189 349.238 177.317 348.768 178.35C348.299 179.384 347.736 180.136 347.078 180.7C346.421 181.263 345.858 181.545 345.388 181.733C344.919 181.827 344.637 181.827 344.637 181.827Z" fill="#FAFAFA"/>
<path d="M341.915 164.913C341.821 164.913 342.103 163.504 343.229 162.188C344.356 160.872 345.764 160.497 345.764 160.591C345.858 160.685 344.638 161.342 343.605 162.47C342.572 163.785 342.103 165.007 341.915 164.913Z" fill="#FAFAFA"/>
<path d="M335.343 155.328C335.437 155.328 334.874 156.174 333.841 157.584C333.372 158.241 332.808 159.087 332.057 159.839C331.682 160.215 331.212 160.685 330.649 160.872C330.086 161.154 329.429 161.154 328.772 161.154C328.114 161.154 327.551 161.154 326.988 161.154C326.425 161.248 325.955 161.436 325.486 161.624C324.547 162.094 323.984 162.94 323.702 163.597C323.045 165.101 323.42 166.135 323.326 166.135C323.326 166.135 323.233 165.947 323.139 165.477C323.045 165.007 323.139 164.349 323.42 163.504C323.702 162.752 324.359 161.812 325.298 161.248C325.767 160.966 326.331 160.778 326.988 160.685C327.645 160.591 328.208 160.591 328.865 160.591C329.523 160.591 330.086 160.591 330.555 160.309C331.025 160.121 331.494 159.745 331.87 159.369C332.621 158.617 333.184 157.772 333.653 157.208C334.686 155.986 335.343 155.234 335.343 155.328Z" fill="#FAFAFA"/>
<g opacity="0.2">
<path d="M347.829 177.317L340.694 206.165L334.498 197.52L347.829 177.317Z" fill="black"/>
</g>
<path d="M378.716 272.412C378.623 272.412 378.435 267.62 378.435 261.7C378.435 255.78 378.529 250.987 378.716 250.987C378.81 250.987 378.998 255.78 378.998 261.7C378.998 267.62 378.904 272.412 378.716 272.412Z" fill="#455A64"/>
<path d="M61.3044 219.132C64.1208 219.226 66.7495 220.824 68.6271 222.985C70.5047 225.146 71.6313 227.777 72.2885 230.596C73.6967 235.859 72.7579 242.154 71.1619 247.417C65.4351 245.349 61.9615 239.147 60.3656 235.953C58.0185 230.784 56.6103 220.072 61.3044 219.132Z" fill="#8FBB96"/>
<path d="M79.4233 253.9C77.6396 251.269 77.6396 247.698 79.0478 244.879C80.456 242.06 83.2724 240.087 86.2766 239.147C87.6849 238.772 89.2808 238.584 90.5013 239.429C91.6279 240.181 92.0973 241.685 91.9095 243.094C91.7218 244.41 91.0646 245.725 90.2197 246.759C87.4971 250.424 84.0235 253.524 79.4233 253.9Z" fill="#8FBB96"/>
<path d="M79.8929 271.566C79.8929 271.566 79.799 271.19 79.6113 270.439C79.4235 269.687 79.2357 268.653 79.048 267.432C78.5786 264.895 77.9214 261.324 78.4847 257.283C79.048 253.337 80.644 249.954 82.3338 247.886C83.1788 246.853 83.9298 246.195 84.4931 245.725C84.7747 245.537 85.0564 245.349 85.1503 245.255C85.338 245.161 85.4319 245.067 85.4319 245.067C85.5258 245.161 84.1176 246.007 82.5216 248.074C80.9256 250.048 79.4235 253.43 78.8602 257.283C78.2969 261.23 78.9541 264.801 79.3296 267.338C79.5174 268.653 79.7051 269.687 79.799 270.345C79.8929 271.19 79.8929 271.566 79.8929 271.566Z" fill="#263238"/>
<path d="M63.0881 227.214C63.0881 227.214 63.182 227.401 63.2759 227.683C63.4637 228.059 63.6514 228.435 63.8392 228.999C64.3086 230.127 65.0596 231.724 65.9046 233.791C67.5944 237.832 69.8476 243.376 72.1946 249.672C74.5416 255.874 76.5131 261.606 77.9214 265.74C78.5785 267.807 79.1418 269.499 79.5173 270.627C79.7051 271.19 79.799 271.66 79.8929 271.942C79.9867 272.224 79.9867 272.412 79.9867 272.412C79.9867 272.412 79.8929 272.224 79.799 271.942C79.7051 271.566 79.5173 271.19 79.3296 270.627C78.8602 269.405 78.2969 267.807 77.6397 265.74C76.1376 261.606 74.1661 255.968 71.8191 249.766C69.472 243.564 67.2189 237.926 65.6229 233.885C64.8719 231.912 64.2147 230.22 63.7453 229.093C63.5575 228.529 63.3698 228.153 63.2759 227.777C63.182 227.401 63.0881 227.214 63.0881 227.214Z" fill="#263238"/>
<path d="M73.1334 259.82C69.8475 253.994 63.5575 250.048 56.8919 249.484C55.2021 249.39 53.1367 249.578 52.3856 251.175C51.6346 252.679 52.5734 254.464 53.7939 255.78C58.5818 261.042 66.6556 262.921 73.2273 260.29" fill="#8FBB96"/>
<path d="M59.4268 254.088C59.4268 254.088 59.8023 254.088 60.4594 254.182C60.835 254.182 61.2105 254.276 61.6799 254.37C62.1493 254.464 62.7126 254.558 63.2759 254.652C63.8392 254.84 64.4963 254.934 65.2474 255.216C65.9046 255.404 66.6556 255.686 67.4067 256.062C68.9088 256.719 70.4108 257.659 71.9129 258.787C73.415 259.914 74.6355 261.23 75.6682 262.545C76.1376 263.203 76.607 263.861 76.9825 264.425C77.3581 264.988 77.6397 265.646 77.9213 266.21C78.203 266.774 78.3908 267.244 78.5785 267.714C78.7663 268.183 78.8602 268.559 78.954 268.935C79.1418 269.593 79.2357 269.969 79.2357 269.969C79.1418 269.969 78.7663 268.559 77.6397 266.398C77.3581 265.834 77.0764 265.27 76.607 264.707C76.2315 264.049 75.7621 263.485 75.2927 262.827C74.26 261.606 73.0395 260.29 71.6313 259.162C70.2231 258.035 68.6271 257.189 67.2189 256.437C66.4678 256.156 65.8107 255.78 65.1535 255.592C64.4963 255.31 63.8392 255.122 63.2759 255.028C60.9289 254.276 59.4268 254.182 59.4268 254.088Z" fill="#263238"/>
</svg>
