<svg width="70" height="70" viewBox="0 0 70 70" fill="none" xmlns="http://www.w3.org/2000/svg">
<path d="M65.2531 29.8703C65.2412 29.1726 65.0832 28.485 64.7893 27.8521C64.4955 27.2191 64.0722 26.6547 63.5469 26.1953L57.9578 21.4244V16.4063C57.9567 15.2463 57.4953 14.1342 56.6751 13.314C55.8549 12.4937 54.7428 12.0324 53.5828 12.0313H46.9416L40.1187 6.21252C38.7125 5.02775 36.9329 4.37799 35.0941 4.37799C33.2553 4.37799 31.4756 5.02775 30.0694 6.21252L23.2433 12.0313H16.4172C15.2572 12.0324 14.1451 12.4937 13.3249 13.314C12.5047 14.1342 12.0433 15.2463 12.0422 16.4063V21.5797L6.45203 26.3485C5.92234 26.8042 5.4961 27.3678 5.20185 28.0016C4.90759 28.6354 4.7521 29.3247 4.74578 30.0235V60.736C4.77506 62.0502 5.32066 63.3 6.26451 64.215C7.20837 65.13 8.47455 65.6366 9.78906 65.625H60.2109C60.8962 65.6258 61.5746 65.4881 62.2053 65.2203C62.8361 64.9525 63.4062 64.56 63.8816 64.0664C64.753 63.1759 65.2447 61.9819 65.2531 60.736V29.8703ZM43.2797 45.6499L63.0109 29.3913C63.0416 29.5488 62.9858 61.4491 62.8469 61.7663L43.2797 45.6499ZM61.7859 27.568L57.9578 30.7224V24.3021L61.7859 27.568ZM31.4891 7.87612C32.4982 7.02759 33.7745 6.56236 35.093 6.56236C36.4115 6.56236 37.6877 7.02759 38.6969 7.87612L43.5717 12.0313H26.6153L31.4891 7.87612ZM16.4172 14.2188H53.5828C54.1628 14.2194 54.7189 14.45 55.129 14.8601C55.5391 15.2702 55.7697 15.8263 55.7703 16.4063V32.5249L38.15 47.0422C37.2546 47.7617 36.1404 48.1538 34.9918 48.1538C33.8432 48.1538 32.729 47.7617 31.8336 47.0422L14.2297 32.5369V16.4063C14.2303 15.8263 14.4609 15.2702 14.871 14.8601C15.2811 14.45 15.8372 14.2194 16.4172 14.2188ZM7.15203 61.7652C7.01312 61.448 6.96281 29.6177 7.00984 29.4208L26.7028 45.6488L7.15203 61.7652ZM12.0411 30.7344L8.29828 27.65L12.0422 24.4541L12.0411 30.7344ZM8.78281 63.256L28.4233 47.0663L30.4412 48.7288C31.7233 49.7819 33.331 50.3576 34.9902 50.3576C36.6493 50.3576 38.257 49.7819 39.5391 48.7288L41.5581 47.0663L61.2172 63.256C60.9033 63.3686 9.09891 63.3686 8.78391 63.256H8.78281Z" fill="#05264E"/>
<path d="M35 37.8766C37.7999 37.8734 40.4841 36.7598 42.464 34.7801C44.4439 32.8004 45.5578 30.1163 45.5612 27.3164C44.9816 13.3055 25.0173 13.3088 24.4387 27.3164C24.4422 30.1163 25.5561 32.8004 27.536 34.7801C29.5159 36.7598 32.2001 37.8734 35 37.8766ZM35 18.9416C37.2202 18.9442 39.3488 19.8274 40.9186 21.3975C42.4885 22.9675 43.3714 25.0962 43.3737 27.3164C42.9527 38.4103 27.0462 38.407 26.6262 27.3164C26.6286 25.0962 27.5115 22.9675 29.0814 21.3975C30.6512 19.8274 32.7798 18.9442 35 18.9416Z" fill="#2A953B"/>
<path d="M38.106 58.3334H21.7348C21.4447 58.3334 21.1665 58.4486 20.9614 58.6537C20.7563 58.8588 20.641 59.137 20.641 59.4271C20.641 59.7172 20.7563 59.9954 20.9614 60.2005C21.1665 60.4056 21.4447 60.5209 21.7348 60.5209H38.106C38.3961 60.5209 38.6743 60.4056 38.8794 60.2005C39.0845 59.9954 39.1998 59.7172 39.1998 59.4271C39.1998 59.137 39.0845 58.8588 38.8794 58.6537C38.6743 58.4486 38.3961 58.3334 38.106 58.3334ZM46.8527 58.3334H43.3221C43.032 58.3334 42.7538 58.4486 42.5487 58.6537C42.3436 58.8588 42.2284 59.137 42.2284 59.4271C42.2284 59.7172 42.3436 59.9954 42.5487 60.2005C42.7538 60.4056 43.032 60.5209 43.3221 60.5209H46.8527C47.1428 60.5209 47.421 60.4056 47.6261 60.2005C47.8313 59.9954 47.9465 59.7172 47.9465 59.4271C47.9465 59.137 47.8313 58.8588 47.6261 58.6537C47.421 58.4486 47.1428 58.3334 46.8527 58.3334Z" fill="#05264E"/>
<ellipse cx="35" cy="27.2794" rx="9.26471" ry="8.75" fill="#2A953B"/>
<path d="M33.0349 30.9423C33.1379 31.0757 33.2702 31.1837 33.4215 31.2579C33.5728 31.3321 33.7392 31.3706 33.9077 31.3704C34.0762 31.3703 34.2425 31.3314 34.3937 31.2569C34.5448 31.1823 34.6769 31.0741 34.7796 30.9405L39.4996 24.6804C39.6742 24.4487 39.7496 24.1572 39.7093 23.8699C39.6689 23.5826 39.5161 23.3231 39.2844 23.1485C39.0527 22.9739 38.7612 22.8985 38.4739 22.9388C38.1866 22.9792 37.9271 23.132 37.7525 23.3637L33.9064 28.4672L32.296 26.3386C32.2094 26.224 32.101 26.1276 31.977 26.055C31.8531 25.9823 31.7161 25.9347 31.5738 25.915C31.4315 25.8953 31.2867 25.9038 31.1477 25.94C31.0087 25.9763 30.8781 26.0395 30.7636 26.1262C30.649 26.2129 30.5526 26.3213 30.48 26.4452C30.4073 26.5691 30.3597 26.7062 30.34 26.8485C30.3203 26.9908 30.3288 27.1356 30.365 27.2746C30.4013 27.4136 30.4645 27.5441 30.5512 27.6587L33.0349 30.9423Z" fill="white"/>
</svg>
