<svg width="34" height="34" viewBox="0 0 34 34" fill="none" xmlns="http://www.w3.org/2000/svg">
<path d="M27.3427 26.7731C26.8209 27.5529 26.9616 29.0462 26.9417 29.9784L31.3072 25.7588L28.921 25.7647C28.5897 25.7675 28.2659 25.8635 27.9868 26.0419C27.7076 26.2203 27.4844 26.4737 27.3427 26.7731ZM7.33606 11.9188C8.00238 12.3511 8.70692 12.7215 9.44085 13.0252V3.3877H6.84768C6.32495 3.38878 5.82401 3.59728 5.45488 3.9674C5.08575 4.33752 4.87859 4.83901 4.87891 5.36174V12.9654C5.55611 12.6682 6.2089 12.3183 6.83126 11.9188C6.90666 11.871 6.99409 11.8456 7.08337 11.8456C7.17264 11.8456 7.26066 11.871 7.33606 11.9188ZM9.44026 28.6381V25.3355C8.77699 25.8535 8.04743 26.2804 7.27098 26.6049C7.21284 26.6303 7.15006 26.6435 7.08659 26.6435C7.02312 26.6435 6.96034 26.6303 6.9022 26.6049C6.18387 26.3028 5.5047 25.915 4.87949 25.4499V31.4476C4.87918 31.969 5.08578 32.4691 5.45392 32.8382C5.82206 33.2074 6.32165 33.4153 6.84299 33.4164H24.1861C24.3765 33.4153 24.5588 33.3388 24.6929 33.2037C24.8271 33.0685 24.9023 32.8857 24.902 32.6953V31.5508H12.3418C11.5712 31.5485 10.8329 31.2406 10.2889 30.6947C9.745 30.1487 9.43979 29.4088 9.44026 28.6381Z" fill="#43B48A"/>
<path d="M7.0874 25.6611C12.0767 23.4109 12.3857 18.0416 12.0551 14.7877C10.2932 14.46 8.60718 13.8093 7.08212 12.8682C5.56008 13.8104 3.87523 14.4596 2.11447 14.7824C1.64251 18.3676 2.56943 23.8002 7.0874 25.6611ZM4.49013 18.459L6.13292 20.6283L9.71223 16.8163C9.79864 16.7326 9.91391 16.6854 10.0342 16.6844C10.1545 16.6834 10.2705 16.7286 10.3583 16.8109C10.4461 16.8931 10.4989 17.0059 10.5058 17.126C10.5127 17.2461 10.4731 17.3642 10.3953 17.4559L6.43662 21.6754C6.38962 21.7247 6.33251 21.7633 6.26922 21.7884C6.20592 21.8136 6.13793 21.8247 6.06992 21.8211C6.00191 21.8175 5.93548 21.7992 5.87521 21.7674C5.81494 21.7357 5.76225 21.6913 5.72075 21.6373L3.74084 19.0231C3.67329 18.9235 3.64659 18.8017 3.66628 18.683C3.68597 18.5643 3.75054 18.4577 3.84664 18.3852C3.94273 18.3128 4.06299 18.28 4.18255 18.2938C4.3021 18.3075 4.4118 18.3667 4.48895 18.459H4.49013Z" fill="#43B48A"/>
<path d="M30.0326 0.583984H12.3418C11.8198 0.585537 11.3197 0.79437 10.9516 1.16456C10.5835 1.53475 10.3775 2.03598 10.3789 2.55803V13.388C11.0895 13.6256 11.8186 13.8035 12.5587 13.9198C12.6593 13.9377 12.7516 13.9874 12.8218 14.0616C12.8921 14.1358 12.9368 14.2305 12.9492 14.3319C13.2746 17.0705 13.2365 21.4906 10.3789 24.4895V28.6386C10.3775 29.1607 10.5835 29.6619 10.9516 30.0321C11.3197 30.4023 11.8198 30.6111 12.3418 30.6127H26.003L26.0141 28.4C25.9573 26.6552 27.1252 24.7767 28.921 24.826L32.0014 24.8148V2.55803C32.0017 2.0353 31.7945 1.53381 31.4254 1.16369C31.0563 0.793568 30.5553 0.585072 30.0326 0.583984ZM18.726 21.2138L15.8625 24.045C15.8154 24.0901 15.7596 24.1251 15.6985 24.1477C15.6373 24.1703 15.5722 24.1801 15.5072 24.1765C15.4421 24.173 15.3784 24.1561 15.3201 24.1269C15.2619 24.0977 15.2102 24.0569 15.1683 24.0069L13.6334 22.1249C13.5622 22.0279 13.5311 21.9072 13.5464 21.7878C13.5618 21.6684 13.6224 21.5595 13.7158 21.4836C13.8092 21.4077 13.9282 21.3706 14.0482 21.3799C14.1682 21.3893 14.28 21.4445 14.3604 21.534L15.5694 23.0143L18.0693 20.5472C18.1578 20.4608 18.277 20.4129 18.4007 20.4141C18.5245 20.4153 18.6427 20.4655 18.7295 20.5536C18.8163 20.6418 18.8647 20.7607 18.8641 20.8845C18.8634 21.0082 18.8137 21.1266 18.726 21.2138ZM14.3598 13.4208L15.5694 14.9012L18.0693 12.4335C18.1131 12.3904 18.165 12.3564 18.222 12.3333C18.2789 12.3102 18.3399 12.2986 18.4014 12.2991C18.4628 12.2996 18.5236 12.3122 18.5802 12.3361C18.6368 12.3601 18.6881 12.395 18.7312 12.4388C18.7743 12.4826 18.8084 12.5345 18.8315 12.5915C18.8546 12.6484 18.8662 12.7094 18.8657 12.7709C18.8652 12.8323 18.8526 12.8931 18.8286 12.9497C18.8047 13.0063 18.7698 13.0576 18.726 13.1007L15.8625 15.9319C15.8156 15.9773 15.7598 16.0125 15.6986 16.0354C15.6375 16.0582 15.5723 16.0681 15.5071 16.0645C15.4419 16.061 15.3782 16.0439 15.3199 16.0146C15.2616 15.9852 15.21 15.9441 15.1683 15.8938L13.6334 14.0177C13.5543 13.9213 13.5167 13.7974 13.5289 13.6733C13.5411 13.5491 13.6021 13.4349 13.6985 13.3558C13.7949 13.2766 13.9188 13.239 14.0429 13.2512C14.1671 13.2634 14.2807 13.3244 14.3598 13.4208ZM18.726 4.98762L15.8625 7.81883C15.8156 7.86422 15.7598 7.89944 15.6986 7.92225C15.6375 7.94507 15.5723 7.955 15.5071 7.95143C15.4419 7.94785 15.3782 7.93084 15.3199 7.90146C15.2616 7.87209 15.21 7.83098 15.1683 7.78072L13.6334 5.90458C13.5942 5.85685 13.5648 5.80186 13.5469 5.74276C13.529 5.68366 13.5228 5.62161 13.5289 5.56014C13.5349 5.49868 13.553 5.43901 13.5821 5.38453C13.6112 5.33006 13.6508 5.28185 13.6985 5.24266C13.7949 5.16351 13.9188 5.12591 14.0429 5.13811C14.1044 5.14415 14.1641 5.16224 14.2186 5.19135C14.273 5.22045 14.3212 5.26 14.3604 5.30774L15.5694 6.78813L18.0693 4.32042C18.1578 4.23335 18.2772 4.18498 18.4014 4.18597C18.5255 4.18696 18.6442 4.23722 18.7312 4.3257C18.8183 4.41418 18.8667 4.53362 18.8657 4.65775C18.8647 4.78189 18.8144 4.90055 18.726 4.98762ZM20.7651 15.1293H26.4756C26.6 15.1293 26.7193 15.1787 26.8072 15.2667C26.8952 15.3546 26.9446 15.4739 26.9446 15.5983C26.9446 15.7227 26.8952 15.842 26.8072 15.93C26.7193 16.018 26.6 16.0674 26.4756 16.0674H20.7651C20.6407 16.0674 20.5214 16.018 20.4334 15.93C20.3455 15.842 20.296 15.7227 20.296 15.5983C20.296 15.4739 20.3455 15.3546 20.4334 15.2667C20.5214 15.1787 20.6407 15.1293 20.7651 15.1293ZM26.0798 24.1805H20.7651C20.6407 24.1805 20.5214 24.1311 20.4334 24.0431C20.3455 23.9551 20.296 23.8358 20.296 23.7114C20.296 23.587 20.3455 23.4677 20.4334 23.3798C20.5214 23.2918 20.6407 23.2424 20.7651 23.2424H26.0798C26.2042 23.2424 26.3235 23.2918 26.4115 23.3798C26.4994 23.4677 26.5488 23.587 26.5488 23.7114C26.5488 23.8358 26.4994 23.9551 26.4115 24.0431C26.3235 24.1311 26.2042 24.1805 26.0798 24.1805ZM26.6004 21.5451H20.7651C20.6407 21.5451 20.5214 21.4957 20.4334 21.4077C20.3455 21.3198 20.296 21.2005 20.296 21.0761C20.296 20.9517 20.3455 20.8324 20.4334 20.7444C20.5214 20.6564 20.6407 20.607 20.7651 20.607H26.6004C26.7248 20.607 26.8441 20.6564 26.9321 20.7444C27.0201 20.8324 27.0695 20.9517 27.0695 21.0761C27.0695 21.2005 27.0201 21.3198 26.9321 21.4077C26.8441 21.4957 26.7248 21.5451 26.6004 21.5451ZM28.3793 13.4367H20.7645C20.6401 13.4367 20.5208 13.3873 20.4328 13.2993C20.3449 13.2113 20.2955 13.092 20.2955 12.9676C20.2955 12.8432 20.3449 12.7239 20.4328 12.636C20.5208 12.548 20.6401 12.4986 20.7645 12.4986H28.3787C28.5031 12.4986 28.6224 12.548 28.7103 12.636C28.7983 12.7239 28.8477 12.8432 28.8477 12.9676C28.8477 13.092 28.7983 13.2113 28.7103 13.2993C28.6224 13.3873 28.5036 13.4367 28.3793 13.4367ZM20.2925 7.48288C20.2938 7.35863 20.3441 7.23991 20.4325 7.1526C20.5209 7.06528 20.6402 7.01646 20.7645 7.01678H26.475C26.5994 7.01678 26.7187 7.0662 26.8066 7.15416C26.8946 7.24212 26.944 7.36142 26.944 7.48581C26.944 7.61021 26.8946 7.72951 26.8066 7.81747C26.7187 7.90543 26.5994 7.95485 26.475 7.95485H20.7645C20.6393 7.95485 20.5193 7.90512 20.4308 7.81661C20.3422 7.7281 20.2925 7.60806 20.2925 7.48288ZM28.3787 5.32474H20.7645C20.6401 5.32474 20.5208 5.27533 20.4328 5.18737C20.3449 5.0994 20.2955 4.9801 20.2955 4.85571C20.2955 4.73131 20.3449 4.61201 20.4328 4.52405C20.5208 4.43609 20.6401 4.38667 20.7645 4.38667H28.3787C28.5031 4.38667 28.6224 4.43609 28.7103 4.52405C28.7983 4.61201 28.8477 4.73131 28.8477 4.85571C28.8477 4.9801 28.7983 5.0994 28.7103 5.18737C28.6224 5.27533 28.5031 5.32474 28.3787 5.32474Z" fill="#43B48A"/>
</svg>
