<svg width="22" height="22" viewBox="0 0 22 22" fill="none" xmlns="http://www.w3.org/2000/svg">
<g clip-path="url(#clip0_3015_2630)">
<path d="M7.06615 21.7C10.0081 21.7 13.1346 20.833 13.1346 19.2257V18.7216C13.9774 18.8687 14.8304 18.942 15.6846 18.9408C18.6266 18.9408 21.7508 18.0738 21.7508 16.4641V3.47426C21.7508 1.86696 18.6266 1 15.6846 1C12.7426 1 9.61618 1.86696 9.61618 3.47426C9.61727 3.54377 9.62422 3.61305 9.63693 3.68126C9.62427 3.71968 9.61727 3.75992 9.61618 3.80059V6.17743C9.61726 6.23452 9.62188 6.29146 9.63002 6.34791C9.62188 6.37971 9.61724 6.41239 9.61618 6.44532V8.82216C9.61752 9.00595 9.65936 9.18688 9.73838 9.35062C8.8561 9.187 7.96192 9.10551 7.06615 9.10709C4.12415 9.10709 1.00001 9.97406 1.00001 11.5935V14.2845C1.00003 14.3425 1.00466 14.4003 1.01384 14.4574C1.00442 14.4881 0.999752 14.5202 1.00001 14.5524V19.2257C1.00001 20.833 4.12415 21.7 7.06615 21.7ZM7.06615 20.9694C3.7345 20.9694 1.6917 19.9539 1.6917 19.2257V18.1226C2.77535 18.9603 4.96801 19.4035 7.06845 19.4035C9.16889 19.4035 11.3616 18.9603 12.4452 18.1226V19.2257C12.4429 19.9539 10.3978 20.9694 7.06615 20.9694ZM10.3079 4.66755C11.3915 5.50529 13.5842 5.94852 15.6846 5.94852C17.7851 5.94852 19.9777 5.50529 21.0591 4.66755V6.17743C21.0591 6.90802 19.014 7.9211 15.6823 7.9211C12.3507 7.9211 10.3056 6.90559 10.3056 6.17743L10.3079 4.66755ZM21.0591 13.7634V14.1676C21.0591 14.8982 19.014 15.9113 15.6823 15.9113C14.8276 15.9137 13.9744 15.8371 13.1323 15.6824V13.6635C13.9751 13.8106 14.828 13.8839 15.6823 13.8827C17.7828 13.8827 19.9754 13.4419 21.0591 12.6042V13.7634ZM21.0591 11.4084C21.0591 12.139 19.014 13.1521 15.6823 13.1521C14.8276 13.1545 13.9744 13.0779 13.1323 12.9232V11.5935C13.1315 11.4097 13.0896 11.2286 13.0101 11.0651C13.8924 11.2287 14.7865 11.3102 15.6823 11.3086C17.7851 11.2964 19.9777 10.8629 21.0591 10.0155V11.4084ZM12.4429 14.2261V14.2845C12.4429 15.0151 10.3978 16.0282 7.06615 16.0282C3.7345 16.0282 1.6917 15.0029 1.6917 14.2845V12.7771C2.77535 13.6148 4.96801 14.0556 7.06845 14.0556C9.16889 14.0556 11.3616 13.6148 12.4452 12.7771L12.4429 14.2261ZM7.06615 16.7588C9.16658 16.7588 11.3592 16.318 12.4429 15.4803V16.9414C12.4429 17.672 10.3978 18.6851 7.06615 18.6851C3.7345 18.6851 1.6917 17.6574 1.6917 16.9293V15.49C2.77305 16.318 4.96571 16.7588 7.06615 16.7588ZM15.6846 18.22C14.8299 18.2223 13.9767 18.1457 13.1346 17.991V16.4325C13.9774 16.5795 14.8304 16.6528 15.6846 16.6516C17.7851 16.6516 19.9777 16.2108 21.0614 15.3731V16.4641C21.0591 17.1947 19.0163 18.2102 15.6846 18.2102V18.22ZM15.6846 1.74033C19.0163 1.73059 21.0591 2.74611 21.0591 3.47426C21.0591 4.20241 19.014 5.21793 15.6823 5.21793C12.3507 5.21793 10.3056 4.20241 10.3056 3.47426C10.3056 2.74611 12.353 1.73059 15.6846 1.73059V1.74033ZM10.3079 8.82216V7.37316C11.3915 8.20847 13.5842 8.65169 15.6846 8.65169C17.7851 8.65169 19.9777 8.20847 21.0591 7.37316V8.82216C21.0591 9.55275 19.014 10.5658 15.6823 10.5658C14.3325 10.5966 12.9874 10.3884 11.7028 9.94971C11.5829 9.89369 11.4584 9.84012 11.3293 9.79141C10.6837 9.47969 10.3079 9.12658 10.3079 8.82216ZM7.06615 9.83768C8.41592 9.80689 9.76105 10.0152 11.0457 10.4538C11.1656 10.5098 11.2901 10.561 11.4192 10.6121C12.0786 10.9214 12.4429 11.2769 12.4429 11.5862C12.4429 12.3168 10.3978 13.3299 7.06615 13.3299C3.7345 13.3299 1.6917 12.3095 1.6917 11.5935C1.6917 10.8776 3.7345 9.83768 7.06615 9.83768Z" fill="#444444" stroke="#444444" stroke-width="0.2"/>
</g>
<defs>
<clipPath id="clip0_3015_2630">
<rect width="22" height="22" fill="white"/>
</clipPath>
</defs>
</svg>
