<svg width="32" height="32" viewBox="0 0 32 32" fill="none" xmlns="http://www.w3.org/2000/svg">
<g clip-path="url(#clip0_3498_2583)">
<path d="M29.0665 2.89746H25.5607V4.42589H26.5471C26.6924 4.42589 26.8317 4.48361 26.9344 4.58634C27.0372 4.68907 27.0949 4.8284 27.0949 4.97368C27.0949 5.11897 27.0372 5.2583 26.9344 5.36103C26.8317 5.46376 26.6924 5.52147 26.5471 5.52147H25.4892C25.3555 6.05137 25.0488 6.5215 24.6176 6.85735C24.1865 7.1932 23.6556 7.37558 23.1091 7.37558C22.5626 7.37558 22.0317 7.1932 21.6006 6.85735C21.1694 6.5215 20.8627 6.05137 20.729 5.52147H19.6769C19.5316 5.52147 19.3922 5.46376 19.2895 5.36103C19.1868 5.2583 19.1291 5.11897 19.1291 4.97368C19.1291 4.8284 19.1868 4.68907 19.2895 4.58634C19.3922 4.48361 19.5316 4.42589 19.6769 4.42589H20.6575C20.6564 4.13885 20.6581 3.16964 20.6575 2.89746H11.3434C11.3445 3.16335 11.3428 4.14171 11.3434 4.42589H12.3297C12.475 4.42589 12.6144 4.48361 12.7171 4.58634C12.8198 4.68907 12.8775 4.8284 12.8775 4.97368C12.8775 5.11897 12.8198 5.2583 12.7171 5.36103C12.6144 5.46376 12.475 5.52147 12.3297 5.52147H11.2719C11.1384 6.05163 10.8317 6.52205 10.4005 6.85812C9.96926 7.1942 9.43819 7.37671 8.89148 7.37671C8.34476 7.37671 7.81369 7.1942 7.38247 6.85812C6.95126 6.52205 6.64457 6.05163 6.51105 5.52147H5.45379C5.3085 5.52147 5.16917 5.46376 5.06644 5.36103C4.96371 5.2583 4.906 5.11897 4.906 4.97368C4.906 4.8284 4.96371 4.68907 5.06644 4.58634C5.16917 4.48361 5.3085 4.42589 5.45379 4.42589H6.44015C6.43786 4.12741 6.44129 3.18279 6.44015 2.89746H2.93384C2.42123 2.89837 1.92988 3.1024 1.56741 3.46487C1.20494 3.82734 1.00091 4.3187 1 4.8313V8.45826H31.0003V4.8313C30.9994 4.3187 30.7954 3.82734 30.4329 3.46487C30.0704 3.1024 29.5791 2.89837 29.0665 2.89746ZM1 9.55384V25.5243C1.00391 26.0355 1.20908 26.5245 1.57107 26.8854C1.93305 27.2463 2.42268 27.4501 2.93384 27.4525H9.17852C9.36493 27.1437 9.90471 26.1962 10.0934 25.8691H3.57484C3.42969 25.8687 3.29062 25.8108 3.18799 25.7082C3.08536 25.6056 3.0275 25.4665 3.02705 25.3213V11.685C3.0275 11.5398 3.08536 11.4007 3.18799 11.2981C3.29062 11.1955 3.42969 11.1376 3.57484 11.1372H28.4255C28.5706 11.1376 28.7097 11.1955 28.8123 11.2981C28.9149 11.4007 28.9728 11.5398 28.9733 11.685V25.3213C28.9728 25.4665 28.9149 25.6056 28.8123 25.7082C28.7097 25.8108 28.5706 25.8687 28.4255 25.8691H21.9012C22.083 26.1888 22.6388 27.1385 22.8161 27.453H29.067C29.5784 27.4506 30.0682 27.2468 30.4302 26.8856C30.7922 26.5244 30.9973 26.0351 31.0009 25.5238V9.55441C30.7681 9.54583 1.00057 9.55441 1.00057 9.55441L1 9.55384Z" fill="#FC1010"/>
<path d="M8.88766 6.29947C9.24718 6.29977 9.59215 6.15744 9.84686 5.90369C10.1016 5.64995 10.2452 5.30553 10.2463 4.946V1.30818C10.2383 0.953352 10.0915 0.615792 9.83746 0.367936C9.58342 0.120079 9.24235 -0.0183234 8.88743 -0.0175751C8.53251 -0.0168268 8.19202 0.123013 7.93903 0.371938C7.68604 0.620864 7.5407 0.95904 7.5342 1.3139C7.53076 1.62553 7.53534 4.40279 7.5342 4.946C7.53495 5.30473 7.67779 5.64855 7.93145 5.90221C8.18511 6.15587 8.52893 6.29871 8.88766 6.29947ZM23.1044 6.29947C23.464 6.29977 23.8089 6.15744 24.0636 5.90369C24.3183 5.64995 24.462 5.30553 24.463 4.946C24.4619 4.40165 24.4659 1.62839 24.463 1.30818C24.455 0.953352 24.3083 0.615792 24.0542 0.367936C23.8002 0.120079 23.4591 -0.0183234 23.1042 -0.0175751C22.7493 -0.0168268 22.4088 0.123013 22.1558 0.371938C21.9028 0.620864 21.7575 0.95904 21.751 1.3139C21.751 1.3139 21.751 4.64867 21.751 4.946C21.7517 5.30473 21.8946 5.64855 22.1482 5.90221C22.4019 6.15587 22.7457 6.29871 23.1044 6.29947ZM4.12109 12.2325H7.76978V24.7728H4.12109V12.2325ZM8.86536 12.2325H12.892V15.7771H8.86536V12.2325ZM13.9882 12.2325H18.0148V15.7771H13.9882V12.2325ZM19.1104 12.2325H23.137V15.7771H19.1104V12.2325ZM24.2332 12.2325H27.8761V15.7771H24.2332V12.2325ZM8.86536 16.8733H12.892V20.1331H8.86536V16.8733ZM24.2332 21.2287H27.8761V24.7733H24.2332V21.2287ZM19.1104 16.8733H23.137V20.1331H19.1104V16.8733ZM24.2332 16.8733H27.8761V20.1331H24.2332V16.8733ZM23.1645 30.2466C21.3827 27.1515 18.8262 22.752 17.0176 19.6237C16.913 19.4455 16.7637 19.2978 16.5845 19.1952C16.4053 19.0925 16.2023 19.0385 15.9958 19.0385C15.7892 19.0385 15.5863 19.0925 15.407 19.1952C15.2278 19.2978 15.0785 19.4455 14.9739 19.6237C13.1396 22.8829 10.4321 27.3018 8.70697 30.5423C8.66382 30.7163 8.66079 30.8979 8.69811 31.0733C8.73542 31.2487 8.8121 31.4133 8.92235 31.5548C9.03261 31.6962 9.17356 31.8107 9.33456 31.8897C9.49556 31.9687 9.67239 32.01 9.85172 32.0107H22.1455C22.3511 32.0085 22.5526 31.9528 22.7301 31.8491C22.9076 31.7453 23.055 31.5972 23.1579 31.4191C23.2607 31.2411 23.3154 31.0394 23.3166 30.8338C23.3177 30.6282 23.2653 30.4258 23.1645 30.2466ZM16.4858 29.7755C16.4812 29.9176 16.4215 30.0524 16.3193 30.1513C16.2172 30.2503 16.0805 30.3056 15.9383 30.3056C15.7961 30.3056 15.6594 30.2503 15.5573 30.1513C15.4551 30.0524 15.3954 29.9176 15.3908 29.7755C15.3908 29.6302 15.4485 29.4909 15.5512 29.3881C15.654 29.2854 15.7933 29.2277 15.9386 29.2277C16.0839 29.2277 16.2232 29.2854 16.3259 29.3881C16.4287 29.4909 16.4858 29.6302 16.4858 29.7755ZM15.3908 27.9783C15.3931 27.9297 15.3885 22.7183 15.3908 22.7406C15.3908 22.5953 15.4485 22.4559 15.5512 22.3532C15.654 22.2505 15.7933 22.1928 15.9386 22.1928C16.0839 22.1928 16.2232 22.2505 16.3259 22.3532C16.4287 22.4559 16.4864 22.5953 16.4864 22.7406V27.9783C16.4864 28.1237 16.4286 28.2631 16.3258 28.3658C16.2231 28.4686 16.0837 28.5264 15.9383 28.5264C15.7929 28.5264 15.6535 28.4686 15.5507 28.3658C15.448 28.2631 15.3908 28.1237 15.3908 27.9783Z" fill="#FC1010"/>
<path d="M13.9897 19.1413C14.1839 18.7869 14.4684 18.4903 14.8144 18.2815C15.1604 18.0728 15.5554 17.9593 15.9595 17.9527C16.3635 17.9461 16.7621 18.0465 17.1147 18.2438C17.4674 18.4412 17.7615 18.7283 17.9672 19.0761L18.0163 19.1636V16.8735H13.9897V19.1413ZM8.86689 24.7736H10.7298L12.7843 21.229H8.86689V24.7736ZM23.1386 24.7736V21.229H19.216L21.2653 24.7736H23.1386ZM29.0665 28.5481H23.4513C23.8173 29.2159 24.5326 30.1486 24.4097 30.9537H29.0665C29.5783 30.9531 30.069 30.7498 30.4314 30.3884C30.7938 30.027 30.9983 29.5368 31.0003 29.025V27.8528C30.4558 28.3017 29.7722 28.5475 29.0665 28.5481ZM1.41627 28.1375C1.27003 28.054 1.13081 27.9588 1 27.8528V29.025C1.00196 29.5368 1.2065 30.027 1.56889 30.3884C1.93128 30.7498 2.42203 30.9531 2.93384 30.9537H7.5849C7.46482 30.1543 8.18701 29.2108 8.54954 28.5481H2.93384C2.40029 28.55 1.87606 28.4082 1.41627 28.1375Z" fill="#FC1010"/>
</g>
<defs>
<clipPath id="clip0_3498_2583">
<rect width="32" height="32" fill="white"/>
</clipPath>
</defs>
</svg>
