<svg width="32" height="32" viewBox="0 0 32 32" fill="none" xmlns="http://www.w3.org/2000/svg">
<g clip-path="url(#clip0_3497_2577)">
<path d="M2.90292 27.591C2.90292 27.9144 3.16578 28.1773 3.48922 28.1773H15.3743C15.1555 27.6043 15.0068 27.007 14.9314 26.3984H5.031C4.87944 26.3984 4.73409 26.3382 4.62692 26.231C4.51975 26.1238 4.45955 25.9785 4.45955 25.8269V3.98319C4.45955 3.83163 4.51975 3.68628 4.62692 3.57911C4.73409 3.47194 4.87944 3.41174 5.031 3.41174H8.22827C8.21424 3.33709 8.20659 3.26139 8.20541 3.18544V2.27455H3.48865C3.16578 2.27455 2.90234 2.54199 2.90234 2.87057V27.591H2.90292ZM24.6804 18.0769V2.87057C24.6804 2.54199 24.4175 2.27455 24.094 2.27455H19.3853V3.18544C19.3853 3.26259 19.375 3.33745 19.3624 3.41174H22.5523C22.7038 3.41174 22.8492 3.47194 22.9563 3.57911C23.0635 3.68628 23.1237 3.83163 23.1237 3.98319V17.8003C23.6508 17.8385 24.1724 17.9312 24.6804 18.0769ZM18.2424 1.38594C18.2431 1.35564 18.2379 1.32549 18.2269 1.29724C18.2159 1.269 18.1993 1.24322 18.1783 1.22142C18.1572 1.19961 18.132 1.18222 18.1042 1.17024C18.0763 1.15826 18.0464 1.15194 18.0161 1.15165H15.26C15.1304 1.15161 15.0047 1.10754 14.9034 1.02665C14.8022 0.945761 14.7314 0.832867 14.7028 0.706487C14.6097 0.296756 14.2297 -0.000398188 13.7993 -0.000398188C13.5906 -0.00332754 13.3872 0.0652557 13.2228 0.193954C13.0585 0.322653 12.9431 0.503717 12.8959 0.707058C12.8671 0.833333 12.7963 0.946096 12.6951 1.02687C12.5939 1.10765 12.4682 1.15164 12.3387 1.15165H9.58261C9.55184 1.15165 9.52137 1.15771 9.49295 1.16948C9.46452 1.18126 9.43869 1.19851 9.41694 1.22027C9.39518 1.24203 9.37792 1.26786 9.36615 1.29628C9.35437 1.32471 9.34831 1.35517 9.34831 1.38594V3.18544C9.34831 3.30716 9.45403 3.41002 9.57975 3.41174H18.0189C18.0785 3.41099 18.1354 3.38683 18.1773 3.34449C18.2192 3.30215 18.2428 3.24502 18.243 3.18544V1.71396C18.243 1.70996 18.2407 1.70653 18.2407 1.7031C18.2407 1.69967 18.243 1.69567 18.243 1.69224L18.2424 1.38594Z" fill="#E6247E"/>
<path d="M5.60271 25.255H14.8779C14.9814 21.3029 18.0769 18.0902 21.9805 17.7999V4.5542H5.60156V25.255H5.60271ZM8.11881 7.05716H19.465C19.6165 7.05716 19.7619 7.11736 19.869 7.22453C19.9762 7.3317 20.0364 7.47705 20.0364 7.62861C20.0364 7.78017 19.9762 7.92552 19.869 8.03268C19.7619 8.13985 19.6165 8.20006 19.465 8.20006H8.11881C7.96725 8.20006 7.8219 8.13985 7.71473 8.03268C7.60756 7.92552 7.54735 7.78017 7.54735 7.62861C7.54735 7.47705 7.60756 7.3317 7.71473 7.22453C7.8219 7.11736 7.96725 7.05716 8.11881 7.05716ZM8.11881 10.4464H19.465C19.6165 10.4464 19.7619 10.5066 19.869 10.6138C19.9762 10.721 20.0364 10.8663 20.0364 11.0179C20.0364 11.1694 19.9762 11.3148 19.869 11.422C19.7619 11.5291 19.6165 11.5893 19.465 11.5893H8.11881C7.96725 11.5893 7.8219 11.5291 7.71473 11.422C7.60756 11.3148 7.54735 11.1694 7.54735 11.0179C7.54735 10.8663 7.60756 10.721 7.71473 10.6138C7.8219 10.5066 7.96725 10.4464 8.11881 10.4464ZM8.11881 13.8351H19.465C19.6165 13.8351 19.7619 13.8953 19.869 14.0025C19.9762 14.1097 20.0364 14.255 20.0364 14.4066C20.0364 14.5581 19.9762 14.7035 19.869 14.8107C19.7619 14.9178 19.6165 14.978 19.465 14.978H8.11881C7.96725 14.978 7.8219 14.9178 7.71473 14.8107C7.60756 14.7035 7.54735 14.5581 7.54735 14.4066C7.54735 14.255 7.60756 14.1097 7.71473 14.0025C7.8219 13.8953 7.96725 13.8351 8.11881 13.8351ZM8.11881 17.2238H17.8363C17.9879 17.2238 18.1332 17.2841 18.2404 17.3912C18.3476 17.4984 18.4078 17.6437 18.4078 17.7953C18.4078 17.9469 18.3476 18.0922 18.2404 18.1994C18.1332 18.3065 17.9879 18.3667 17.8363 18.3667H8.11881C7.96725 18.3667 7.8219 18.3065 7.71473 18.1994C7.60756 18.0922 7.54735 17.9469 7.54735 17.7953C7.54735 17.6437 7.60756 17.4984 7.71473 17.3912C7.8219 17.2841 7.96725 17.2238 8.11881 17.2238ZM8.11881 20.6131H14.7471C14.8986 20.6131 15.044 20.6733 15.1511 20.7805C15.2583 20.8877 15.3185 21.033 15.3185 21.1846C15.3185 21.3361 15.2583 21.4815 15.1511 21.5886C15.044 21.6958 14.8986 21.756 14.7471 21.756H8.11881C7.96725 21.756 7.8219 21.6958 7.71473 21.5886C7.60756 21.4815 7.54735 21.3361 7.54735 21.1846C7.54735 21.033 7.60756 20.8877 7.71473 20.7805C7.8219 20.6733 7.96725 20.6131 8.11881 20.6131Z" fill="#E6247E"/>
<path d="M25.0526 19.4118C25.0412 19.4072 25.0298 19.4044 25.0184 19.3992C24.2388 19.08 23.4047 18.9152 22.5623 18.9141C22.5588 18.9141 22.5565 18.9158 22.5531 18.9158L22.5445 18.9141C18.9415 18.9198 16.0117 21.8525 16.0117 25.4566C16.0117 29.0608 18.9473 32.0003 22.5554 32.0003C26.1636 32.0003 29.0985 29.0648 29.0985 25.4566C29.0985 22.7331 27.4247 20.3953 25.0526 19.4118ZM25.0721 27.1664C25.1792 27.2735 25.2394 27.4189 25.2394 27.5704C25.2394 27.7219 25.1792 27.8673 25.0721 27.9744C24.9649 28.0816 24.8196 28.1418 24.6681 28.1418C24.5165 28.1418 24.3712 28.0816 24.264 27.9744L22.5554 26.2658L20.8468 27.9744C20.7938 28.0277 20.7309 28.0699 20.6615 28.0988C20.5922 28.1276 20.5178 28.1424 20.4428 28.1424C20.3677 28.1424 20.2933 28.1276 20.224 28.0988C20.1546 28.0699 20.0917 28.0277 20.0387 27.9744C19.9856 27.9214 19.9435 27.8584 19.9147 27.7891C19.886 27.7198 19.8712 27.6455 19.8712 27.5704C19.8712 27.4954 19.886 27.421 19.9147 27.3517C19.9435 27.2824 19.9856 27.2194 20.0387 27.1664L21.7474 25.4578L20.0387 23.7491C19.9316 23.642 19.8714 23.4966 19.8714 23.3451C19.8714 23.1936 19.9316 23.0482 20.0387 22.9411C20.1459 22.8339 20.2912 22.7737 20.4428 22.7737C20.5943 22.7737 20.7396 22.8339 20.8468 22.9411L22.5554 24.6497L24.264 22.9411C24.3712 22.8339 24.5165 22.7737 24.6681 22.7737C24.8196 22.7737 24.9649 22.8339 25.0721 22.9411C25.1792 23.0482 25.2394 23.1936 25.2394 23.3451C25.2394 23.4966 25.1792 23.642 25.0721 23.7491L23.3634 25.4578L25.0721 27.1664Z" fill="#E6247E"/>
</g>
<defs>
<clipPath id="clip0_3497_2577">
<rect width="32" height="32" fill="white"/>
</clipPath>
</defs>
</svg>
