<svg width="19" height="19" viewBox="0 0 19 19" fill="none" xmlns="http://www.w3.org/2000/svg">
<path opacity="0.4" d="M17.9993 2.92611L16.2866 1.13141C16.1196 0.956362 15.8487 0.956109 15.6815 1.13118C15.6815 1.13129 15.6814 1.13141 15.6812 1.13141L10.5434 6.51559C10.5036 6.5572 10.4721 6.60663 10.4505 6.66104C10.429 6.71545 10.418 6.77377 10.418 6.83266V8.62747C10.418 8.87518 10.6097 9.07604 10.846 9.07604H12.5588C12.6723 9.07604 12.7812 9.02884 12.8614 8.94466L17.9993 3.56059C18.1665 3.38555 18.1666 3.1016 17.9997 2.92644C17.9996 2.92644 17.9996 2.92622 17.9993 2.92611ZM12.3815 8.17882H11.2742V7.01861L15.984 2.08319L17.0912 3.2434L12.3815 8.17882Z" fill="#002A54" stroke="#002A54" stroke-width="0.2"/>
<path d="M16.842 6.38418C16.6056 6.38418 16.4139 6.58507 16.4139 6.83278V13.1142C16.4132 13.8573 15.8385 14.4595 15.1294 14.4603H10.8477C10.7551 14.4601 10.6649 14.4916 10.5908 14.55L7.85062 16.7037V14.909C7.85062 14.6612 7.65896 14.4603 7.42245 14.4603H3.14083C2.43174 14.4595 1.85704 13.8573 1.85642 13.1143V5.03808C1.85717 4.29514 2.43174 3.69293 3.14083 3.69214H10.8477C11.0842 3.69214 11.2759 3.49131 11.2759 3.24349C11.2759 2.99576 11.0842 2.79492 10.8477 2.79492H3.14083C1.95898 2.79613 1.00115 3.79981 1 5.03805V13.1143C1.00115 14.3526 1.95898 15.3564 3.14083 15.3577H6.99431V17.6011C6.99431 17.8488 7.18596 18.0496 7.42245 18.0496C7.51514 18.0496 7.60523 18.0181 7.67937 17.9599L10.9909 15.3576H15.1294C16.3113 15.3564 17.269 14.3526 17.2702 13.1142V6.83289C17.2702 6.58507 17.0784 6.38418 16.842 6.38418Z" fill="#002A54" stroke="#002A54" stroke-width="0.2"/>
<path d="M8.28003 5.48682H3.99859C3.762 5.48682 3.57034 5.68768 3.57034 5.93553C3.57034 6.18323 3.762 6.38407 3.99859 6.38407H8.28003C8.51651 6.38407 8.7083 6.18323 8.7083 5.9355C8.7083 5.68768 8.51651 5.48682 8.28003 5.48682ZM3.99859 9.07621H8.28003C8.51651 9.07621 8.70828 8.87526 8.70828 8.62756C8.70828 8.37974 8.51651 8.17885 8.28003 8.17885H3.99859C3.762 8.17885 3.57031 8.37974 3.57031 8.62756C3.57031 8.87526 3.762 9.07621 3.99859 9.07621ZM3.99859 11.7682H14.2744C14.5109 11.7682 14.7025 11.5673 14.7025 11.3195C14.7025 11.0718 14.5108 10.8709 14.2744 10.8709H3.99859C3.762 10.8709 3.57031 11.0718 3.57031 11.3195C3.57031 11.5673 3.762 11.7682 3.99859 11.7682Z" fill="#002A54" stroke="#002A54" stroke-width="0.2"/>
</svg>
