<svg width="20" height="20" viewBox="0 0 20 20" fill="none" xmlns="http://www.w3.org/2000/svg">
<g clip-path="url(#clip0_3190_1087)">
<path d="M18.5939 8.71967C18.5227 6.54577 17.6245 4.48102 16.0827 2.94686C14.4567 1.32061 12.2958 0.425293 9.99828 0.425293C5.35797 0.425293 1.56641 4.11873 1.40297 8.71967C1.04517 8.87816 0.741013 9.13702 0.527358 9.46488C0.313703 9.79274 0.199719 10.1755 0.199219 10.5669V12.8362C0.199798 13.3721 0.412936 13.8859 0.791869 14.2648C1.1708 14.6438 1.68458 14.8569 2.22047 14.8575C2.5672 14.8571 2.8996 14.7191 3.14478 14.474C3.38995 14.2288 3.52787 13.8964 3.52828 13.5497V9.85311C3.52828 9.17592 3.00891 8.62373 2.34859 8.55811C2.59234 4.54967 5.92922 1.36279 9.99828 1.36279C12.0458 1.36279 13.9711 2.16092 15.4202 3.60998C16.7508 4.94061 17.5295 6.67498 17.6467 8.55842C16.987 8.62467 16.4686 9.17654 16.4686 9.85311V13.5494C16.4686 14.2322 16.9961 14.7878 17.6642 14.8456V15.7797C17.6636 16.2854 17.4624 16.7703 17.1048 17.1279C16.7471 17.4856 16.2622 17.6867 15.7564 17.6872H14.3436C14.2483 17.4095 14.0685 17.1686 13.8294 16.9983C13.5902 16.828 13.3037 16.7369 13.0102 16.7378H11.5539C11.3448 16.7378 11.1442 16.7822 10.9605 16.8678C10.7144 16.9815 10.506 17.1631 10.3598 17.3914C10.2137 17.6196 10.1358 17.8849 10.1355 18.1559C10.1355 18.5353 10.2833 18.8915 10.5511 19.1581C10.6824 19.2904 10.8386 19.3954 11.0107 19.4668C11.1829 19.5383 11.3675 19.5748 11.5539 19.5744H13.0102C13.6139 19.5744 14.1461 19.184 14.3445 18.6247H15.7564C17.3255 18.6247 18.6017 17.3484 18.6017 15.7797V14.6787C18.9574 14.5194 19.2595 14.2606 19.4716 13.9336C19.6837 13.6067 19.7968 13.2254 19.7973 12.8356V10.5662C19.7973 9.74311 19.3017 9.03436 18.5939 8.71967ZM2.59047 9.85311V13.5494C2.59047 13.7534 2.42453 13.9197 2.22016 13.9197C1.93283 13.9193 1.65737 13.8051 1.45419 13.6019C1.25102 13.3987 1.13674 13.1232 1.13641 12.8359V10.5665C1.13674 10.2792 1.25102 10.0038 1.45419 9.80058C1.65737 9.59741 1.93283 9.48312 2.22016 9.48279C2.42453 9.48279 2.59047 9.64904 2.59047 9.85311ZM13.4805 18.2565C13.4572 18.3642 13.3978 18.4606 13.3122 18.5299C13.2266 18.5992 13.12 18.6371 13.0098 18.6375H11.5536C11.4255 18.6375 11.3052 18.5875 11.2133 18.4956C11.1686 18.4512 11.1331 18.3984 11.109 18.3402C11.0848 18.282 11.0725 18.2196 11.0727 18.1565C11.073 18.0291 11.1238 17.907 11.2139 17.8169C11.304 17.7269 11.4262 17.6762 11.5536 17.6759H13.0098C13.138 17.6759 13.2583 17.7256 13.3498 17.8175C13.4405 17.9078 13.4905 18.0284 13.4905 18.1565C13.4908 18.1909 13.487 18.2253 13.4805 18.2565ZM18.8598 12.8359C18.8595 13.1232 18.7452 13.3987 18.5421 13.6019C18.3389 13.8051 18.0634 13.9193 17.7761 13.9197C17.6779 13.9196 17.5838 13.8805 17.5143 13.8111C17.4449 13.7417 17.4059 13.6475 17.4058 13.5494V9.85311C17.4058 9.64904 17.5717 9.48279 17.7761 9.48279C18.0634 9.48312 18.3389 9.59741 18.5421 9.80058C18.7452 10.0038 18.8595 10.2792 18.8598 10.5665V12.8359Z" fill="#002A54" stroke="#002A54" stroke-width="0.2"/>
<path opacity="0.4" d="M13.0334 12.9977C13.56 12.9971 14.0649 12.7877 14.4373 12.4153C14.8097 12.0429 15.0191 11.5381 15.0197 11.0115V6.96428C15.0197 6.4349 14.8128 5.93615 14.4372 5.56053C14.0616 5.1849 13.5631 4.97803 13.0334 4.97803H6.96281C6.4362 4.97861 5.93133 5.18806 5.55896 5.56043C5.18659 5.93279 4.97714 6.43767 4.97656 6.96428V11.0115C4.97714 11.5381 5.18659 12.0429 5.55896 12.4153C5.93133 12.7877 6.4362 12.9971 6.96281 12.9977H7V14.0465C6.99938 14.1745 7.02409 14.3014 7.0727 14.4199C7.1213 14.5384 7.19285 14.6461 7.28323 14.7368C7.37361 14.8276 7.48103 14.8995 7.59933 14.9486C7.71762 14.9976 7.84444 15.0228 7.9725 15.0227C8.10048 15.023 8.22719 14.9975 8.3451 14.9477C8.463 14.8979 8.56967 14.8249 8.65875 14.733L10.4034 12.9977H13.0334ZM9.88 12.1965L7.99188 14.0743C7.98344 14.083 7.97719 14.0896 7.95938 14.0818C7.93781 14.073 7.93781 14.059 7.93781 14.0465V12.529C7.93781 12.4046 7.88843 12.2854 7.80052 12.1975C7.71261 12.1096 7.59338 12.0602 7.46906 12.0602H6.96313C6.68508 12.0599 6.41852 11.9493 6.22191 11.7527C6.02531 11.5561 5.91471 11.2895 5.91437 11.0115V6.96428C5.91471 6.68623 6.02531 6.41967 6.22191 6.22306C6.41852 6.02646 6.68508 5.91586 6.96313 5.91553H13.0338C13.3131 5.91553 13.5759 6.0249 13.7747 6.22334C13.9734 6.42209 14.0825 6.68521 14.0825 6.96428V11.0115C14.0822 11.2895 13.9716 11.5561 13.775 11.7527C13.5784 11.9493 13.3118 12.0599 13.0338 12.0602H10.2106C10.0866 12.0602 9.96781 12.1093 9.88 12.1965Z" fill="#002A54" stroke="#002A54" stroke-width="0.2"/>
<path opacity="0.4" d="M7.72281 8.37109C7.34156 8.37109 7.03125 8.68172 7.03125 9.06266C7.03125 9.44359 7.34187 9.75422 7.72281 9.75422C8.10437 9.75422 8.415 9.44359 8.415 9.06266C8.415 8.68172 8.10469 8.37109 7.72281 8.37109ZM9.99969 8.37109C9.61844 8.37109 9.30812 8.68172 9.30812 9.06266C9.30812 9.44359 9.61875 9.75422 9.99969 9.75422C10.3816 9.75422 10.6919 9.44359 10.6919 9.06266C10.6919 8.68172 10.3816 8.37109 9.99969 8.37109ZM12.2766 8.37109C11.8953 8.37109 11.585 8.68172 11.585 9.06266C11.585 9.44359 11.8956 9.75422 12.2766 9.75422C12.6581 9.75422 12.9688 9.44359 12.9688 9.06266C12.9688 8.68172 12.6581 8.37109 12.2766 8.37109Z" fill="#002A54" stroke="#002A54" stroke-width="0.2"/>
</g>
<defs>
<clipPath id="clip0_3190_1087">
<rect width="20" height="20" fill="white"/>
</clipPath>
</defs>
</svg>
