<svg width="30" height="31" viewBox="0 0 30 31" fill="none" xmlns="http://www.w3.org/2000/svg">
<path d="M10.3868 30.139H0.685769C0.403214 30.139 0.214844 29.9507 0.214844 29.6681C0.214844 29.3856 0.403214 29.1972 0.685769 29.1972H9.91591V26.8897C9.91591 26.6071 10.1043 26.4187 10.3868 26.4187H16.4147V24.1112C16.4147 23.8286 16.603 23.6403 16.8856 23.6403H22.4425V21.3327C22.4425 21.0502 22.6309 20.8618 22.9134 20.8618H29.2709C29.5535 20.8618 29.7419 21.0502 29.7419 21.3327C29.7419 21.6153 29.5535 21.8037 29.2709 21.8037H23.3844V24.1112C23.3844 24.3938 23.196 24.5821 22.9134 24.5821H17.3565V26.8897C17.3565 27.1722 17.1682 27.3606 16.8856 27.3606H10.8578V29.6681C10.8578 29.9507 10.6223 30.139 10.3868 30.139Z" fill="#60B092"/>
<path d="M24.372 9.98362C24.4191 10.8784 23.7598 11.6319 22.8651 11.726L18.7209 12.0557C18.25 12.1028 17.732 11.9144 17.4023 11.5377L16.6959 10.7371L16.1779 12.9975C16.6488 13.2801 17.6378 13.9865 19.804 15.6347C20.1337 15.9173 20.3691 16.294 20.4162 16.7179L20.9343 20.9562C21.0755 21.8509 20.3691 22.6515 19.5215 22.7928C18.6267 22.887 17.8261 22.2748 17.732 21.38L17.3081 17.801L15.2832 16.1998C15.189 16.6708 15.0477 17.283 14.9535 17.7068C14.718 18.7428 14.718 18.8841 14.6239 18.9783L12.0809 23.7817C11.657 24.5352 10.7152 24.8649 9.86751 24.441C9.06694 24.0172 8.78438 23.0283 9.20822 22.2277L11.5628 17.7539C11.5628 16.1056 11.6099 14.1749 11.657 13.9394L12.646 9.4656L12.0338 9.65397L9.11403 12.5737C8.64311 13.0446 7.93672 13.1859 7.37161 12.9504C6.33557 12.5266 6.00592 11.1138 6.85359 10.3133L10.103 7.11097C10.2913 6.9226 10.5268 6.78133 10.8094 6.68714L14.3413 5.6511C14.3413 5.6511 15.3302 5.41564 15.7541 5.50983C16.0366 5.55692 16.5547 5.79238 16.7901 6.07494L19.286 8.8063L22.6767 8.57084C23.5243 8.42956 24.2778 9.08886 24.372 9.98362ZM19.3331 2.543C19.3331 3.95577 18.2029 5.08599 16.7901 5.08599C15.3773 5.08599 14.2471 3.95577 14.2471 2.543C14.2471 1.13022 15.3773 0 16.7901 0C18.2029 0 19.3331 1.13022 19.3331 2.543ZM28.94 11.3493L28.2336 10.6429V19.9201H27.2917V10.69L26.5854 11.3964C26.397 11.5848 26.1144 11.5848 25.9261 11.3964C25.7377 11.208 25.7377 10.9255 25.9261 10.7371L27.433 9.23014C27.6214 9.04177 27.904 9.04177 28.0923 9.23014L29.5993 10.7371C30.0702 11.1138 29.4109 11.7731 28.94 11.3493Z" fill="#60B092"/>
<path d="M3.69786 14.787L3.08566 10.7842C3.08566 10.7842 3.03857 10.7842 3.03857 10.8313L0.307202 13.3272C-0.0695379 13.7039 -0.11663 14.269 0.26011 14.6458L4.1217 18.7899C4.45135 19.1667 5.06355 19.2137 5.44029 18.837L8.12456 16.3411C8.12456 16.3411 8.12456 16.294 8.17166 16.294L3.98042 15.1638C3.83914 15.1167 3.74496 14.9754 3.69786 14.787Z" fill="#60B092"/>
<path d="M8.45404 15.3994L4.59245 14.3634L4.02734 10.6431C4.40408 10.7843 4.40408 10.9727 5.44012 12.0087C5.67558 12.9506 6.47616 13.657 7.13545 13.8454C8.12439 14.9285 8.31276 15.0227 8.45404 15.3994Z" fill="#60B092"/>
</svg>
