<svg width="9" height="15" viewBox="0 0 9 15" fill="none" xmlns="http://www.w3.org/2000/svg">
<path d="M7.72882 1.40756H0.70262C0.516274 1.40756 0.33756 1.33353 0.205793 1.20177C0.074026 1.07 0 0.891286 0 0.70494C0 0.518593 0.074026 0.339879 0.205793 0.208112C0.33756 0.0763453 0.516274 0.00231934 0.70262 0.00231934H7.72882C7.91517 0.00231934 8.09388 0.0763453 8.22565 0.208112C8.35742 0.339879 8.43144 0.518593 8.43144 0.70494C8.43144 0.891286 8.35742 1.07 8.22565 1.20177C8.09388 1.33353 7.91517 1.40756 7.72882 1.40756ZM7.72882 4.92066H0.70262C0.516274 4.92066 0.33756 4.84663 0.205793 4.71487C0.074026 4.5831 0 4.40439 0 4.21804C0 4.03169 0.074026 3.85298 0.205793 3.72121C0.33756 3.58945 0.516274 3.51542 0.70262 3.51542H7.72882C7.91517 3.51542 8.09388 3.58945 8.22565 3.72121C8.35742 3.85298 8.43144 4.03169 8.43144 4.21804C8.43144 4.40439 8.35742 4.5831 8.22565 4.71487C8.09388 4.84663 7.91517 4.92066 7.72882 4.92066Z" fill="#666666"/>
<path d="M6.32358 14.0547C6.23111 14.0553 6.13945 14.0376 6.05384 14.0026C5.96824 13.9676 5.89038 13.9161 5.82472 13.851L0.20376 8.23003C0.106266 8.13122 0.0402221 8.00575 0.0139623 7.86945C-0.0122976 7.73315 0.00240331 7.59213 0.0562096 7.46417C0.10892 7.33586 0.198433 7.22602 0.313466 7.1485C0.428499 7.07098 0.563905 7.02924 0.70262 7.02855H2.10786C2.85325 7.02855 3.5681 6.73244 4.09517 6.20538C4.62224 5.67831 4.91834 4.96345 4.91834 4.21807C4.91834 3.47268 4.62224 2.75782 4.09517 2.23076C3.5681 1.70369 2.85325 1.40758 2.10786 1.40758H0.70262C0.516274 1.40758 0.33756 1.33356 0.205793 1.20179C0.074026 1.07002 0 0.891311 0 0.704964C0 0.518618 0.074026 0.339904 0.205793 0.208137C0.33756 0.07637 0.516274 0.00234404 0.70262 0.00234404H2.10786C3.22594 -0.0349253 4.31303 0.373487 5.12999 1.13773C5.94694 1.90198 6.42684 2.95946 6.46411 4.07754C6.50138 5.19562 6.09297 6.28271 5.32872 7.09967C4.56447 7.91662 3.50699 8.39652 2.38891 8.43379L6.82244 12.8603C6.8883 12.9256 6.94057 13.0033 6.97624 13.0889C7.01191 13.1746 7.03028 13.2664 7.03028 13.3592C7.03028 13.4519 7.01191 13.5437 6.97624 13.6294C6.94057 13.715 6.8883 13.7927 6.82244 13.858C6.68871 13.987 6.50934 14.0577 6.32358 14.0547Z" fill="#666666"/>
</svg>
