<svg width="246" height="157" viewBox="0 0 246 157" fill="none" xmlns="http://www.w3.org/2000/svg">
<path d="M56.6001 36.5591H0.0908203V68.8407H56.6001V36.5591Z" fill="#FAFAFA"/>
<path d="M56.603 68.8407C56.603 68.8407 56.5979 68.6411 56.5954 68.26C56.5936 67.876 56.591 67.3113 56.5874 66.5728C56.5834 65.0911 56.5773 62.9148 56.5693 60.1188C56.5603 54.5307 56.5473 46.4693 56.531 36.5591L56.603 36.6327C41.5284 36.6386 21.7229 36.6467 0.0980404 36.6552H0.0936988L0.187759 36.5591C0.185589 47.9743 0.183418 58.8928 0.181609 68.8407L0.0936988 68.7509C16.6302 68.7686 30.7461 68.7838 40.7317 68.7945C45.7285 68.8048 49.6913 68.8133 52.409 68.8189C53.7663 68.8237 54.8118 68.8274 55.522 68.83C55.874 68.8322 56.1424 68.834 56.3266 68.8355C56.5082 68.837 56.603 68.8407 56.603 68.8407C56.603 68.8407 56.5151 68.8444 56.3374 68.8462C56.1555 68.8473 55.8906 68.8492 55.543 68.8518C54.8368 68.8544 53.7971 68.8581 52.4477 68.8629C49.7348 68.8684 45.7788 68.8769 40.7907 68.8873C30.7906 68.898 16.6548 68.9131 0.0940604 68.9309H0.00615017V68.8411C0.00434132 58.8928 0.00217062 47.9747 0 36.5595V36.4634H0.0940604H0.098402C21.7232 36.4719 41.5287 36.48 56.6033 36.4859H56.6757V36.5595C56.6598 46.4889 56.6464 54.5658 56.6373 60.1646C56.6294 62.9536 56.6232 65.1243 56.6192 66.6024C56.6156 67.3349 56.6131 67.8949 56.6113 68.2759C56.608 68.6515 56.603 68.8407 56.603 68.8407Z" fill="#E0E0E0"/>
<path d="M14.9851 44.2529H6.99609V52.4149H14.9851V44.2529Z" fill="#E0E0E0"/>
<path d="M25.9602 45.3998C25.9602 45.453 24.0956 45.4959 21.7962 45.4959C19.4957 45.4959 17.6318 45.4527 17.6318 45.3998C17.6318 45.3466 19.496 45.3037 21.7962 45.3037C24.0956 45.3037 25.9602 45.3466 25.9602 45.3998Z" fill="#E0E0E0"/>
<path d="M52.564 48.3334C52.564 48.3866 44.7436 48.4295 35.0988 48.4295C25.4508 48.4295 17.6318 48.3863 17.6318 48.3334C17.6318 48.2802 25.4508 48.2373 35.0988 48.2373C44.7433 48.2373 52.564 48.2805 52.564 48.3334Z" fill="#E0E0E0"/>
<path d="M40.8116 51.6254C40.8116 51.6786 35.6731 51.7215 29.3356 51.7215C22.9959 51.7215 17.8584 51.6783 17.8584 51.6254C17.8584 51.5722 22.9959 51.5293 29.3356 51.5293C35.6731 51.5289 40.8116 51.5722 40.8116 51.6254Z" fill="#E0E0E0"/>
<path d="M48.2353 64.5614H9.63436C7.58963 64.5614 5.93164 62.8679 5.93164 60.7785C5.93164 58.6895 7.58927 56.9956 9.63436 56.9956H48.2353C50.28 56.9956 51.938 58.6891 51.938 60.7785C51.938 62.8679 50.28 64.5614 48.2353 64.5614Z" fill="#E0E0E0"/>
<path d="M21.8402 61.31H20.8931L20.7122 61.7564H20.2285L21.138 59.6719H21.6043L22.5164 61.7564H22.0207L21.8402 61.31ZM21.6915 60.9437L21.3681 60.1457L21.0447 60.9437H21.6915Z" fill="white"/>
<path d="M24.4985 60.4289C24.4985 60.8935 24.1574 61.1822 23.6126 61.1822H23.2016V61.7569H22.7295V59.6724H23.6126C24.1574 59.6724 24.4985 59.9614 24.4985 60.4289ZM24.0207 60.4289C24.0207 60.1998 23.8749 60.0656 23.5862 60.0656H23.2016V60.7893H23.5862C23.8749 60.7889 24.0207 60.6551 24.0207 60.4289Z" fill="white"/>
<path d="M26.6024 60.4289C26.6024 60.8935 26.2616 61.1822 25.7164 61.1822H25.3055V61.7569H24.833V59.6724H25.7161C26.2613 59.6724 26.6024 59.9614 26.6024 60.4289ZM26.1242 60.4289C26.1242 60.1998 25.9784 60.0656 25.69 60.0656H25.3055V60.7893H25.69C25.9787 60.7889 26.1242 60.6551 26.1242 60.4289Z" fill="white"/>
<path d="M26.9395 59.6724H27.4119V61.3637H28.435V61.7566H26.9398V59.6724H26.9395Z" fill="white"/>
<path d="M29.4683 61.0185V61.7569H28.9958V61.0126L28.2061 59.6724H28.7075L29.2523 60.5982L29.7975 59.6724H30.2609L29.4683 61.0185Z" fill="white"/>
<path d="M33.1566 59.6724V61.7569H32.7688L31.7515 60.4914V61.7569H31.2852V59.6724H31.6759L32.6903 60.9379V59.6724H33.1566Z" fill="white"/>
<path d="M33.5117 60.7144C33.5117 60.0949 33.9838 59.6362 34.6281 59.6362C35.2692 59.6362 35.7442 60.092 35.7442 60.7144C35.7442 61.3368 35.2692 61.7925 34.6281 61.7925C33.9838 61.7925 33.5117 61.3338 33.5117 60.7144ZM35.2663 60.7144C35.2663 60.3185 34.9924 60.0472 34.6281 60.0472C34.2638 60.0472 33.99 60.3182 33.99 60.7144C33.99 61.1102 34.2638 61.3815 34.6281 61.3815C34.9924 61.3815 35.2663 61.1102 35.2663 60.7144Z" fill="white"/>
<path d="M39.1182 59.6724L38.4507 61.7569H37.9435L37.4945 60.3454L37.0311 61.7569H36.5268L35.8564 59.6724H36.3463L36.8068 61.1375L37.288 59.6724H37.725L38.1913 61.1493L38.6667 59.6724H39.1182Z" fill="white"/>
<path d="M57.7944 105.302H8.95215V133.204H57.7944V105.302Z" fill="#FAFAFA"/>
<path d="M57.7928 133.204C57.7928 133.204 57.7877 133.031 57.7852 132.701C57.7834 132.367 57.7808 131.879 57.7772 131.241C57.7732 129.959 57.7671 128.078 57.7591 125.662C57.7501 120.832 57.7371 113.866 57.7208 105.302L57.7928 105.375C44.7629 105.381 27.6446 105.389 8.95412 105.398H8.95051L9.04457 105.302C9.0424 115.168 9.04022 124.605 9.03842 133.204L8.95051 133.114C23.2415 133.131 35.4401 133.147 44.0712 133.157C48.39 133.168 51.8152 133.176 54.1653 133.182C55.3382 133.187 56.2419 133.19 56.8572 133.193C57.1611 133.195 57.393 133.197 57.5533 133.198C57.7103 133.2 57.7928 133.204 57.7928 133.204C57.7928 133.204 57.7172 133.207 57.5638 133.209C57.4057 133.21 57.1774 133.212 56.8779 133.215C56.2665 133.217 55.3689 133.221 54.2036 133.226C51.8579 133.232 48.4396 133.24 44.1294 133.25C35.4842 133.261 23.265 133.276 8.95051 133.294H8.86259V133.204C8.86079 124.605 8.85862 115.168 8.85645 105.302V105.206H8.95051H8.95412C27.6446 105.215 44.7629 105.223 57.7928 105.229H57.8651V105.302C57.8492 113.885 57.8358 120.867 57.8268 125.708C57.8188 128.117 57.8127 129.992 57.8087 131.271C57.8051 131.903 57.8025 132.386 57.8007 132.716C57.7978 133.041 57.7928 133.204 57.7928 133.204Z" fill="#E0E0E0"/>
<path d="M21.826 111.952H14.9209V119.007H21.826V111.952Z" fill="#E0E0E0"/>
<path d="M31.3102 112.943C31.3102 112.996 29.6985 113.039 27.7109 113.039C25.7227 113.039 24.1113 112.996 24.1113 112.943C24.1113 112.89 25.7227 112.847 27.7109 112.847C29.6985 112.846 31.3102 112.89 31.3102 112.943Z" fill="#E0E0E0"/>
<path d="M54.304 115.48C54.304 115.533 47.5446 115.576 39.2084 115.576C30.8692 115.576 24.1113 115.533 24.1113 115.48C24.1113 115.427 30.8692 115.384 39.2084 115.384C47.5446 115.384 54.304 115.427 54.304 115.48Z" fill="#E0E0E0"/>
<path d="M44.1458 118.323C44.1458 118.376 39.7043 118.419 34.2267 118.419C28.7474 118.419 24.3066 118.376 24.3066 118.323C24.3066 118.27 28.747 118.227 34.2267 118.227C39.7043 118.227 44.1458 118.27 44.1458 118.323Z" fill="#E0E0E0"/>
<path d="M50.5638 129.506H17.2002C15.4326 129.506 14 128.042 14 126.236C14 124.43 15.433 122.967 17.2002 122.967H50.5641C52.3314 122.967 53.7644 124.431 53.7644 126.236C53.7644 128.042 52.3314 129.506 50.5638 129.506Z" fill="#E0E0E0"/>
<path d="M27.7476 126.696H26.9296L26.7733 127.082H26.3555L27.1409 125.281H27.5435L28.3315 127.082H27.9035L27.7476 126.696ZM27.6191 126.379L27.3398 125.69L27.0602 126.379H27.6191Z" fill="white"/>
<path d="M30.0453 125.934C30.0453 126.335 29.7509 126.585 29.2802 126.585H28.9253V127.081H28.5176V125.281H29.2802C29.7509 125.281 30.0453 125.53 30.0453 125.934ZM29.6329 125.934C29.6329 125.736 29.507 125.62 29.2578 125.62H28.9253V126.245H29.2578C29.507 126.245 29.6329 126.129 29.6329 125.934Z" fill="white"/>
<path d="M31.8637 125.934C31.8637 126.335 31.5692 126.585 31.0986 126.585H30.7437V127.081H30.3359V125.281H31.0986C31.5689 125.281 31.8637 125.53 31.8637 125.934ZM31.4506 125.934C31.4506 125.736 31.3247 125.62 31.0754 125.62H30.7429V126.245H31.0754C31.3247 126.245 31.4506 126.129 31.4506 125.934Z" fill="white"/>
<path d="M32.1562 125.281H32.564V126.742H33.4474V127.081H32.1562V125.281Z" fill="white"/>
<path d="M34.3406 126.444V127.082H33.9329V126.439L33.251 125.282H33.6837L34.1543 126.082L34.625 125.282H35.0251L34.3406 126.444Z" fill="white"/>
<path d="M37.5278 125.282V127.082H37.1931L36.3148 125.989V127.082H35.9121V125.282H36.2493L37.1251 126.375V125.282H37.5278Z" fill="white"/>
<path d="M37.835 126.181C37.835 125.646 38.2427 125.25 38.7991 125.25C39.3526 125.25 39.7628 125.644 39.7628 126.181C39.7628 126.719 39.3526 127.112 38.7991 127.112C38.2427 127.112 37.835 126.716 37.835 126.181ZM39.3504 126.181C39.3504 125.839 39.1138 125.605 38.7994 125.605C38.4847 125.605 38.2481 125.839 38.2481 126.181C38.2481 126.523 38.4847 126.757 38.7994 126.757C39.1138 126.757 39.3504 126.523 39.3504 126.181Z" fill="white"/>
<path d="M42.6823 125.281L42.106 127.081H41.6683L41.2805 125.862L40.88 127.081H40.4444L39.8652 125.281H40.2881L40.6861 126.546L41.1014 125.281H41.4791L41.8817 126.556L42.292 125.281H42.6823Z" fill="white"/>
<path d="M227.958 117.891H179.116V145.793H227.958V117.891Z" fill="#FAFAFA"/>
<path d="M227.96 145.793C227.96 145.793 227.955 145.62 227.952 145.29C227.95 144.957 227.948 144.469 227.944 143.831C227.94 142.549 227.934 140.668 227.926 138.252C227.917 133.421 227.904 126.455 227.888 117.891L227.96 117.965C214.93 117.971 197.812 117.979 179.121 117.987H179.118L179.212 117.891C179.209 127.758 179.207 137.195 179.205 145.793L179.118 145.703C193.409 145.721 205.607 145.736 214.238 145.747C218.557 145.757 221.982 145.766 224.332 145.771C225.505 145.776 226.409 145.78 227.024 145.782C227.328 145.785 227.56 145.786 227.72 145.788C227.877 145.79 227.96 145.793 227.96 145.793C227.96 145.793 227.884 145.797 227.731 145.799C227.573 145.8 227.344 145.802 227.045 145.804C226.433 145.807 225.536 145.811 224.371 145.816C222.025 145.821 218.607 145.83 214.296 145.84C205.651 145.851 193.432 145.866 179.118 145.884H179.03V145.794C179.028 137.195 179.026 127.759 179.023 117.892V117.796H179.118H179.121C197.812 117.804 214.93 117.813 227.96 117.818H228.032V117.892C228.016 126.475 228.003 133.456 227.994 138.297C227.986 140.707 227.98 142.582 227.976 143.86C227.972 144.492 227.97 144.976 227.968 145.306C227.965 145.631 227.96 145.793 227.96 145.793Z" fill="#E0E0E0"/>
<path d="M191.992 124.542H185.087V131.597H191.992V124.542Z" fill="#E0E0E0"/>
<path d="M201.477 125.534C201.477 125.587 199.866 125.63 197.878 125.63C195.89 125.63 194.278 125.586 194.278 125.534C194.278 125.481 195.89 125.438 197.878 125.438C199.866 125.437 201.477 125.48 201.477 125.534Z" fill="#E0E0E0"/>
<path d="M224.471 128.067C224.471 128.121 217.712 128.163 209.375 128.163C201.036 128.163 194.278 128.12 194.278 128.067C194.278 128.014 201.036 127.971 209.375 127.971C217.712 127.971 224.471 128.014 224.471 128.067Z" fill="#E0E0E0"/>
<path d="M214.308 130.913C214.308 130.966 209.866 131.009 204.389 131.009C198.909 131.009 194.469 130.966 194.469 130.913C194.469 130.86 198.909 130.817 204.389 130.817C209.866 130.817 214.308 130.86 214.308 130.913Z" fill="#E0E0E0"/>
<path d="M220.728 142.095H187.364C185.597 142.095 184.164 140.631 184.164 138.826C184.164 137.02 185.597 135.556 187.364 135.556H220.728C222.496 135.556 223.928 137.02 223.928 138.826C223.928 140.631 222.495 142.095 220.728 142.095Z" fill="#E0E0E0"/>
<path d="M197.913 139.284H197.094L196.938 139.669H196.521L197.306 137.869H197.709L198.496 139.669H198.069L197.913 139.284ZM197.784 138.968L197.505 138.278L197.226 138.968H197.784Z" fill="white"/>
<path d="M200.211 138.523C200.211 138.925 199.917 139.174 199.446 139.174H199.091V139.67H198.684V137.87H199.446C199.916 137.87 200.211 138.119 200.211 138.523ZM199.799 138.523C199.799 138.325 199.672 138.209 199.423 138.209H199.091V138.834H199.423C199.673 138.834 199.799 138.719 199.799 138.523Z" fill="white"/>
<path d="M202.028 138.523C202.028 138.925 201.733 139.174 201.263 139.174H200.908V139.67H200.5V137.87H201.263C201.733 137.87 202.028 138.119 202.028 138.523ZM201.615 138.523C201.615 138.325 201.489 138.209 201.24 138.209H200.908V138.834H201.24C201.489 138.834 201.615 138.719 201.615 138.523Z" fill="white"/>
<path d="M202.32 137.87H202.728V139.33H203.611V139.67H202.32V137.87Z" fill="white"/>
<path d="M204.506 139.033V139.671H204.098V139.028L203.416 137.871H203.849L204.319 138.67L204.79 137.871H205.191L204.506 139.033Z" fill="white"/>
<path d="M207.693 137.869V139.669H207.359L206.48 138.577V139.669H206.077V137.869H206.415L207.291 138.962V137.869H207.693Z" fill="white"/>
<path d="M208.004 138.77C208.004 138.235 208.412 137.839 208.968 137.839C209.522 137.839 209.932 138.233 209.932 138.77C209.932 139.307 209.522 139.701 208.968 139.701C208.412 139.701 208.004 139.305 208.004 138.77ZM209.519 138.77C209.519 138.428 209.282 138.194 208.968 138.194C208.653 138.194 208.417 138.428 208.417 138.77C208.417 139.112 208.653 139.346 208.968 139.346C209.282 139.346 209.519 139.112 209.519 138.77Z" fill="white"/>
<path d="M212.847 137.869L212.27 139.669H211.832L211.444 138.451L211.044 139.669H210.609L210.03 137.869H210.453L210.851 139.135L211.266 137.869H211.644L212.046 139.145L212.457 137.869H212.847Z" fill="white"/>
<path d="M245.551 49.7612H189.042V82.0428H245.551V49.7612Z" fill="#FAFAFA"/>
<path d="M245.552 82.0438C245.552 82.0438 245.547 81.8442 245.544 81.4632C245.542 81.0792 245.54 80.5148 245.536 79.7759C245.532 78.2942 245.526 76.118 245.518 73.3219C245.509 67.7339 245.496 59.6724 245.48 49.7622L245.552 49.8358C230.477 49.8417 210.672 49.8498 189.047 49.8583H189.043L189.137 49.7622C189.134 61.1775 189.132 72.0959 189.13 82.0438L189.043 81.954C205.579 81.9717 219.695 81.9869 229.681 81.9976C234.677 82.008 238.64 82.0165 241.357 82.022C242.715 82.0268 243.76 82.0305 244.471 82.0331C244.823 82.0353 245.091 82.0372 245.275 82.0386C245.457 82.0401 245.552 82.0438 245.552 82.0438C245.552 82.0438 245.464 82.0475 245.286 82.0494C245.104 82.0505 244.84 82.0523 244.492 82.0549C243.786 82.0575 242.746 82.0612 241.397 82.066C238.684 82.0715 234.728 82.08 229.74 82.0904C219.74 82.1011 205.604 82.1163 189.043 82.134H188.955V82.0442C188.954 72.0963 188.951 61.1778 188.949 49.7626V49.6665H189.044H189.048C210.672 49.675 230.478 49.6831 245.553 49.6891H245.625V49.7626C245.609 59.692 245.596 67.769 245.587 73.3677C245.579 76.1568 245.573 78.3274 245.569 79.8055C245.565 80.538 245.563 81.098 245.561 81.4791C245.557 81.8546 245.552 82.0438 245.552 82.0438Z" fill="#E0E0E0"/>
<path d="M203.935 57.4565H195.946V65.6185H203.935V57.4565Z" fill="#E0E0E0"/>
<path d="M214.911 58.6024C214.911 58.6557 213.047 58.6989 210.747 58.6989C208.447 58.6989 206.583 58.6557 206.583 58.6024C206.583 58.5492 208.447 58.5063 210.747 58.5063C213.047 58.5063 214.911 58.5496 214.911 58.6024Z" fill="#E0E0E0"/>
<path d="M241.515 61.5365C241.515 61.5897 233.695 61.6326 224.05 61.6326C214.402 61.6326 206.583 61.5894 206.583 61.5365C206.583 61.4833 214.402 61.4404 224.05 61.4404C233.695 61.4404 241.515 61.4833 241.515 61.5365Z" fill="#E0E0E0"/>
<path d="M229.763 64.8275C229.763 64.8808 224.624 64.9236 218.287 64.9236C211.947 64.9236 206.81 64.8804 206.81 64.8275C206.81 64.7743 211.947 64.7314 218.287 64.7314C224.624 64.7314 229.763 64.7747 229.763 64.8275Z" fill="#E0E0E0"/>
<path d="M237.185 77.764H198.585C196.54 77.764 194.882 76.0705 194.882 73.9811C194.882 71.8921 196.539 70.1982 198.585 70.1982H237.185C239.231 70.1982 240.888 71.8918 240.888 73.9811C240.888 76.0705 239.231 77.764 237.185 77.764Z" fill="#E0E0E0"/>
<path d="M210.788 74.5122H209.841L209.66 74.9591H209.177L210.086 72.8745H210.553L211.465 74.9591H210.969L210.788 74.5122ZM210.64 74.146L210.316 73.348L209.993 74.146H210.64Z" fill="white"/>
<path d="M213.448 73.6311C213.448 74.0957 213.107 74.3843 212.562 74.3843H212.151V74.9591H211.679V72.8745H212.561C213.107 72.8749 213.448 73.1639 213.448 73.6311ZM212.97 73.6311C212.97 73.4019 212.824 73.2678 212.535 73.2678H212.151V73.9915H212.535C212.824 73.9915 212.97 73.8577 212.97 73.6311Z" fill="white"/>
<path d="M215.553 73.6311C215.553 74.0957 215.212 74.3843 214.667 74.3843H214.256V74.9591H213.783V72.8745H214.666C215.212 72.8749 215.553 73.1639 215.553 73.6311ZM215.075 73.6311C215.075 73.4019 214.929 73.2678 214.641 73.2678H214.256V73.9915H214.641C214.929 73.9915 215.075 73.8577 215.075 73.6311Z" fill="white"/>
<path d="M215.891 72.8745H216.363V74.5658H217.386V74.9591H215.891V72.8745Z" fill="white"/>
<path d="M218.418 74.2211V74.9596H217.945V74.2152L217.155 72.875H217.657L218.202 73.8009L218.747 72.875H219.21L218.418 74.2211Z" fill="white"/>
<path d="M222.105 72.875V74.9596H221.718L220.701 73.694V74.9596H220.234V72.875H220.625L221.639 74.1405V72.875H222.105Z" fill="white"/>
<path d="M222.462 73.917C222.462 73.2975 222.934 72.8389 223.578 72.8389C224.219 72.8389 224.694 73.2946 224.694 73.917C224.694 74.5394 224.219 74.9951 223.578 74.9951C222.934 74.9948 222.462 74.5365 222.462 73.917ZM224.216 73.917C224.216 73.5212 223.942 73.2499 223.578 73.2499C223.213 73.2499 222.939 73.5208 222.939 73.917C222.939 74.3132 223.213 74.5841 223.578 74.5841C223.942 74.5838 224.216 74.3128 224.216 73.917Z" fill="white"/>
<path d="M228.068 72.875L227.401 74.9596H226.894L226.445 73.548L225.982 74.9596H225.477L224.807 72.875H225.296L225.757 74.3401L226.238 72.875H226.675L227.141 74.3519L227.616 72.875H228.068Z" fill="white"/>
<path d="M206.205 0.097168H38.7861V156.501H206.205V0.097168Z" fill="white"/>
<path d="M206.205 0.097168H38.7861V10.5026H206.205V0.097168Z" fill="#E0E0E0"/>
<path d="M183.673 146.461C183.673 146.514 155.654 146.557 121.1 146.557C86.5331 146.557 58.5205 146.514 58.5205 146.461C58.5205 146.408 86.5331 146.365 121.1 146.365C155.654 146.364 183.673 146.408 183.673 146.461Z" fill="#263238"/>
<path d="M110.732 115.083H108.253V128.417H110.732V115.083Z" fill="#E0E0E0"/>
<path d="M110.732 128.416C110.728 128.412 110.723 128.318 110.719 128.141C110.716 127.95 110.712 127.695 110.707 127.374C110.7 126.694 110.691 125.737 110.68 124.553C110.67 122.157 110.655 118.842 110.639 115.082L110.732 115.177C109.936 115.178 109.102 115.178 108.254 115.179C108.44 114.986 108.305 115.128 108.347 115.086V115.09V115.098V115.114V115.147V115.213V115.344V115.605C108.347 115.779 108.347 115.952 108.347 116.125C108.347 116.47 108.347 116.812 108.346 117.151C108.346 117.828 108.345 118.491 108.344 119.139C108.341 120.433 108.338 121.662 108.335 122.805C108.323 125.077 108.312 127.003 108.304 128.416L108.253 128.364C109.022 128.376 109.633 128.386 110.07 128.393C110.271 128.399 110.433 128.403 110.557 128.406C110.669 128.41 110.729 128.413 110.732 128.416C110.735 128.42 110.682 128.423 110.576 128.427C110.454 128.43 110.296 128.434 110.099 128.439C109.655 128.446 109.035 128.456 108.253 128.468L108.203 128.469L108.202 128.416C108.194 127.003 108.183 125.077 108.171 122.805C108.168 121.662 108.165 120.433 108.162 119.139C108.161 118.491 108.161 117.827 108.16 117.151C108.16 116.812 108.16 116.47 108.159 116.125C108.159 115.952 108.159 115.779 108.159 115.605V115.344V115.213V115.147V115.114V115.098V115.09V115.086C108.202 115.042 108.064 115.178 108.254 114.986C109.103 114.987 109.936 114.987 110.732 114.987H110.825L110.825 115.082C110.809 118.869 110.794 122.207 110.784 124.62C110.773 125.796 110.763 126.745 110.757 127.419C110.752 127.731 110.748 127.979 110.744 128.166C110.74 128.335 110.736 128.421 110.732 128.416Z" fill="#263238"/>
<path d="M115.225 113.065H103.637C101.919 113.065 100.526 111.642 100.526 109.887H118.335C118.336 111.642 116.943 113.065 115.225 113.065Z" fill="#263238"/>
<path d="M125.449 110.509H105.245V106.094H125.449C126.643 106.094 127.61 107.082 127.61 108.301C127.61 109.52 126.643 110.509 125.449 110.509Z" fill="#FF725E"/>
<path d="M89.5454 74.3912C88.3906 74.5505 87.5712 75.6216 87.6986 76.8051L90.6134 103.882C91.028 107.656 94.1515 110.509 97.8687 110.509H105.575C106.77 110.509 107.738 109.519 107.738 108.299C107.738 107.078 106.77 106.088 105.575 106.088H99.0328C97.1719 106.088 95.5986 104.681 95.3526 102.796L91.9624 76.281C91.8079 75.0757 90.7241 74.2282 89.5454 74.3912Z" fill="#FF725E"/>
<path d="M114.094 106.312L92.1321 106.626L89.9883 74.3708L108.37 74.2515C110.204 74.2515 111.691 75.7849 111.691 77.677L114.094 106.312Z" fill="#FF725E"/>
<g opacity="0.3">
<path d="M89.5454 74.3912C88.3906 74.5505 87.5712 75.6216 87.6986 76.8051L90.6134 103.882C91.028 107.656 94.1515 110.509 97.8687 110.509H105.575C106.77 110.509 107.738 109.519 107.738 108.299C107.738 107.078 106.77 106.088 105.575 106.088H98.5629C96.702 106.088 95.3956 104.742 95.1496 102.857L91.9624 76.281C91.8079 75.0757 90.7241 74.2282 89.5454 74.3912Z" fill="black"/>
</g>
<path d="M111.891 113.063H107.09V115.614H111.891V113.063Z" fill="#263238"/>
<path d="M110.391 139.352H108.526C107.733 139.352 107.091 138.696 107.091 137.886V129.134C107.091 128.324 107.733 127.668 108.526 127.668H110.391C111.183 127.668 111.826 128.324 111.826 129.134V137.886C111.826 138.696 111.184 139.352 110.391 139.352Z" fill="#E0E0E0"/>
<path d="M110.39 139.353C110.389 139.342 110.495 139.346 110.687 139.301C110.874 139.252 111.158 139.142 111.409 138.861C111.533 138.722 111.644 138.542 111.712 138.324C111.785 138.107 111.776 137.858 111.772 137.582C111.768 137.03 111.763 136.406 111.758 135.718C111.752 134.331 111.745 132.689 111.738 130.867C111.736 130.41 111.735 129.943 111.734 129.465C111.732 129.222 111.747 128.987 111.684 128.771C111.628 128.549 111.507 128.346 111.35 128.178C111.191 128.012 110.989 127.886 110.767 127.82C110.548 127.75 110.307 127.766 110.052 127.764C109.55 127.764 109.04 127.765 108.525 127.765C108.04 127.763 107.577 128.047 107.351 128.47C107.239 128.681 107.18 128.917 107.183 129.156C107.182 129.409 107.182 129.66 107.182 129.908C107.18 130.901 107.178 131.86 107.176 132.773C107.169 134.595 107.162 136.238 107.156 137.625C107.139 137.976 107.17 138.283 107.313 138.552C107.452 138.815 107.66 139.017 107.889 139.14C108.119 139.265 108.36 139.311 108.587 139.307C108.815 139.31 109.025 139.313 109.216 139.315C109.58 139.323 109.87 139.329 110.086 139.333C110.285 139.34 110.39 139.346 110.39 139.353C110.39 139.359 110.285 139.366 110.086 139.372C109.87 139.376 109.58 139.382 109.216 139.39C109.025 139.393 108.815 139.395 108.587 139.398C108.354 139.408 108.088 139.366 107.84 139.236C107.592 139.108 107.362 138.894 107.207 138.61C107.132 138.468 107.077 138.308 107.048 138.14C107.016 137.968 107.025 137.795 107.023 137.625C107.017 136.238 107.01 134.595 107.002 132.773C107.001 131.86 106.999 130.902 106.997 129.908C106.997 129.66 106.996 129.409 106.996 129.156C106.993 128.891 107.059 128.616 107.188 128.377C107.443 127.895 107.972 127.57 108.525 127.572C109.04 127.572 109.55 127.573 110.052 127.573C110.296 127.575 110.563 127.556 110.82 127.637C111.072 127.713 111.302 127.857 111.483 128.046C111.66 128.237 111.796 128.469 111.859 128.721C111.931 128.976 111.912 129.233 111.914 129.465C111.913 129.943 111.912 130.41 111.91 130.867C111.903 132.689 111.896 134.331 111.89 135.718C111.885 136.406 111.88 137.03 111.876 137.582C111.875 137.851 111.88 138.123 111.796 138.353C111.719 138.582 111.596 138.77 111.462 138.912C111.189 139.199 110.889 139.301 110.694 139.338C110.496 139.372 110.39 139.353 110.39 139.353Z" fill="#263238"/>
<path d="M123.28 138.628H95.0959C94.2693 138.628 93.5866 138.909 93.0675 139.463C92.0223 140.578 92.0874 142.409 92.0907 142.486L93.3735 142.431C93.3598 142.056 93.4452 140.953 93.9976 140.367C94.2686 140.079 94.6278 139.939 95.0959 139.939H102.491V143.285H103.774V139.939H123.28C124.106 139.939 124.777 140.625 124.777 141.469V142.457H126.061V141.469C126.061 139.902 124.814 138.628 123.28 138.628Z" fill="#E0E0E0"/>
<path d="M123.276 138.627C123.276 138.627 123.395 138.618 123.627 138.639C123.857 138.662 124.204 138.735 124.611 138.948C125.009 139.169 125.468 139.549 125.781 140.159C125.936 140.461 126.049 140.819 126.084 141.212C126.112 141.607 126.095 142.016 126.102 142.456L126.103 142.503H126.056C125.657 142.504 125.225 142.506 124.773 142.508H124.725L124.722 142.456C124.687 141.815 124.867 141.031 124.343 140.483C124.107 140.216 123.764 140.034 123.392 140.005C123.014 139.994 122.609 140.004 122.203 140.002C120.571 140.006 118.778 140.01 116.847 140.014C112.983 140.018 108.564 140.024 103.77 140.029L103.86 139.937C103.86 140.99 103.861 142.128 103.862 143.283V143.377H103.769C103.368 143.378 102.928 143.378 102.486 143.378H102.393V143.283C102.393 142.225 102.392 141.088 102.392 139.937L102.486 140.033C101.146 140.033 99.7255 140.033 98.2871 140.033C97.1699 140.035 96.0629 140.036 94.9693 140.037C94.7081 140.05 94.4541 140.123 94.2464 140.27C94.037 140.415 93.8832 140.633 93.77 140.871C93.5482 141.35 93.4578 141.902 93.4618 142.425L93.4625 142.52L93.3728 142.524C92.9419 142.542 92.5147 142.56 92.0899 142.578L91.9948 142.582L91.9937 142.488C91.9854 141.86 92.0722 141.245 92.269 140.662C92.4633 140.082 92.7907 139.537 93.2595 139.151C93.7259 138.761 94.3213 138.565 94.902 138.54C95.4797 138.529 96.0361 138.537 96.5958 138.535C98.825 138.538 100.962 138.54 102.988 138.543C107.037 138.551 110.64 138.558 113.648 138.564C116.648 138.576 119.053 138.585 120.716 138.592C121.538 138.599 122.176 138.605 122.616 138.608C122.828 138.612 122.991 138.615 123.108 138.617C123.219 138.621 123.276 138.627 123.276 138.627C123.276 138.627 123.219 138.633 123.108 138.635C122.991 138.637 122.828 138.64 122.617 138.644C122.177 138.647 121.538 138.653 120.716 138.66C119.054 138.667 116.649 138.676 113.649 138.689C110.641 138.694 107.037 138.701 102.988 138.71C100.962 138.712 98.8254 138.714 96.5961 138.717C96.0408 138.72 95.471 138.712 94.9117 138.723C94.3593 138.748 93.808 138.933 93.3735 139.296C92.9372 139.658 92.6286 140.168 92.4423 140.725C92.2542 141.28 92.1699 141.886 92.1786 142.481L92.0823 142.39C92.5071 142.372 92.9343 142.353 93.3652 142.335L93.2762 142.433C93.2729 141.871 93.363 141.31 93.6021 140.788C93.7241 140.531 93.8966 140.282 94.1401 140.113C94.3814 139.941 94.6744 139.86 94.9588 139.846C96.056 139.845 97.1667 139.843 98.2874 139.842C99.7258 139.842 101.147 139.842 102.486 139.842H102.58V139.938C102.579 141.088 102.579 142.225 102.579 143.284L102.486 143.189C102.929 143.19 103.369 143.19 103.77 143.19L103.678 143.284C103.679 142.128 103.679 140.991 103.68 139.938V139.846H103.77C108.564 139.851 112.983 139.857 116.847 139.861C118.778 139.865 120.571 139.869 122.203 139.873C122.614 139.877 123.005 139.868 123.402 139.882C123.805 139.915 124.176 140.115 124.428 140.405C124.682 140.694 124.822 141.068 124.825 141.433C124.824 141.785 124.824 142.126 124.823 142.456L124.772 142.404C125.225 142.406 125.657 142.407 126.056 142.409L126.01 142.456C126.006 142.019 126.026 141.599 126.003 141.218C125.972 140.836 125.865 140.488 125.717 140.191C125.419 139.593 124.974 139.214 124.587 138.991C124.191 138.775 123.851 138.693 123.623 138.663C123.395 138.635 123.275 138.634 123.276 138.627Z" fill="#263238"/>
<path d="M105.603 144.847C105.603 146.264 104.478 147.413 103.091 147.413C101.704 147.413 100.579 146.264 100.579 144.847C100.579 143.43 101.703 142.281 103.091 142.281C104.478 142.281 105.603 143.429 105.603 144.847Z" fill="#263238"/>
<path d="M95.2423 144.218C95.2423 145.635 94.1179 146.784 92.7305 146.784C91.3435 146.784 90.2188 145.635 90.2188 144.218C90.2188 142.801 91.3431 141.652 92.7305 141.652C94.1175 141.652 95.2423 142.801 95.2423 144.218Z" fill="#263238"/>
<path d="M127.641 144.311C127.641 145.728 126.516 146.877 125.129 146.877C123.742 146.877 122.617 145.729 122.617 144.311C122.617 142.894 123.742 141.745 125.129 141.745C126.516 141.745 127.641 142.894 127.641 144.311Z" fill="#263238"/>
<path d="M125.991 106.095C125.991 106.148 119.798 106.215 112.161 106.243C104.521 106.272 98.3295 106.253 98.3291 106.199C98.3287 106.146 104.52 106.08 112.16 106.051C119.798 106.022 125.991 106.042 125.991 106.095Z" fill="#263238"/>
<path d="M95.1809 102.424C95.1292 102.431 94.3673 96.583 93.4788 89.3646C92.5903 82.144 91.912 76.2869 91.9637 76.2803C92.0154 76.2736 92.7773 82.12 93.6658 89.3406C94.554 96.559 95.2323 102.417 95.1809 102.424Z" fill="#263238"/>
<path d="M91.7334 74.3305C91.732 74.3246 91.7982 74.3046 91.9273 74.2773C92.0568 74.2555 92.2493 74.2248 92.4993 74.2181C92.9953 74.2059 93.734 74.2318 94.5849 74.546C95.0042 74.7053 95.4524 74.9769 95.8001 75.3913C96.1575 75.7952 96.4538 76.2909 96.7331 76.8201C97.2757 77.8865 97.877 79.047 98.5427 80.2519C99.8729 82.6606 101.121 84.8184 101.968 86.414C102.396 87.2093 102.726 87.8617 102.949 88.3145C103.05 88.527 103.132 88.7007 103.199 88.8404C103.254 88.9616 103.28 89.0267 103.274 89.0297C103.268 89.0326 103.231 88.9735 103.165 88.8581C103.09 88.7232 102.998 88.5547 102.884 88.3492C102.627 87.8839 102.278 87.2511 101.851 86.4797C100.976 84.9034 99.7101 82.7582 98.3777 80.3458C97.712 79.1409 97.1108 77.9689 96.5793 76.9037C96.3073 76.377 96.0218 75.8902 95.6829 75.4973C95.3518 75.0941 94.9423 74.8383 94.5361 74.6727C93.7174 74.3516 92.9888 74.3031 92.4996 74.2928C92.0062 74.2873 91.7367 74.3471 91.7334 74.3305Z" fill="#263238"/>
<path d="M87.8464 75.7311C87.8913 75.7581 86.2282 78.7216 84.1325 82.3496C82.036 85.9788 80.3006 88.8979 80.2558 88.8709C80.2109 88.844 81.8736 85.8812 83.9701 82.2521C86.0658 78.6237 87.8016 75.7038 87.8464 75.7311Z" fill="#263238"/>
<path d="M107.469 88.8701H77.3584V97.9409H107.469V88.8701Z" fill="#FAFAFA"/>
<path d="M85.4783 91.687L84.0048 95.165H83.2266L81.7578 91.687H82.6087L83.6444 94.1715L84.695 91.687H85.4783Z" fill="#263238"/>
<path d="M87.8896 94.4205H86.309L86.0077 95.166H85.2002L86.7175 91.688H87.4956L89.0176 95.166H88.191L87.8896 94.4205ZM87.6414 93.8092L87.1017 92.4778L86.5619 93.8092H87.6414Z" fill="#263238"/>
<path d="M89.1084 93.4264C89.1084 92.3779 89.8963 91.6279 90.9563 91.6279C91.5446 91.6279 92.0358 91.8467 92.3571 92.2441L91.8513 92.7208C91.6227 92.4525 91.3358 92.3135 90.9954 92.3135C90.3583 92.3135 89.9061 92.7704 89.9061 93.4264C89.9061 94.0825 90.3583 94.5397 90.9954 94.5397C91.3358 94.5397 91.6227 94.4003 91.8513 94.1272L92.3571 94.604C92.0362 95.0069 91.5449 95.2253 90.9516 95.2253C89.8963 95.2249 89.1084 94.475 89.1084 93.4264Z" fill="#263238"/>
<path d="M95.0605 94.4205H93.4799L93.1786 95.166H92.3711L93.8884 91.688H94.6665L96.1885 95.166H95.3618L95.0605 94.4205ZM94.8123 93.8092L94.2726 92.4778L93.7328 93.8092H94.8123Z" fill="#263238"/>
<path d="M99.6641 91.687V95.165H99.0172L97.3202 93.0534V95.165H96.542V91.687H97.1935L98.8859 93.7986V91.687H99.6641Z" fill="#263238"/>
<path d="M101.175 92.3427H100.086V91.687H103.052V92.3427H101.963V95.165H101.175V92.3427Z" fill="#263238"/>
<path d="M106.493 97.1145C106.492 97.1127 106.49 97.0683 106.488 96.983C106.486 96.8906 106.484 96.7664 106.482 96.6056C106.479 96.2674 106.474 95.7806 106.468 95.1512C106.461 93.8809 106.45 92.0366 106.437 89.7058L106.493 89.7635C100.073 89.772 89.7351 89.786 78.0929 89.8019C78.1345 89.759 77.9974 89.898 78.1856 89.7058V89.7077V89.7114V89.7188V89.7335V89.7635V89.823V89.942V90.1797V90.6539C78.1856 90.9695 78.1856 91.284 78.1856 91.5975C78.1856 92.2247 78.1852 92.8471 78.1852 93.4654C78.1848 94.7018 78.1841 95.9192 78.1837 97.1145L78.0915 97.0203C86.1825 97.0373 93.2692 97.0524 98.3416 97.0632C100.877 97.0746 102.908 97.0839 104.314 97.0901C105.01 97.0953 105.551 97.0998 105.926 97.1027C106.105 97.1053 106.244 97.1071 106.346 97.1086C106.442 97.1101 106.493 97.1145 106.493 97.1145C106.496 97.1164 106.45 97.1186 106.358 97.1208C106.259 97.1223 106.124 97.1242 105.95 97.1267C105.579 97.1297 105.045 97.1338 104.357 97.1393C102.956 97.1456 100.932 97.1548 98.4056 97.1663C93.317 97.177 86.2078 97.1918 78.0911 97.2092H77.9989V97.1145C77.9985 95.9192 77.9978 94.7018 77.9974 93.4654C77.9974 92.8475 77.9971 92.2247 77.9971 91.5975C77.9971 91.284 77.9971 90.9695 77.9971 90.6539V90.1797V89.942V89.823V89.7635V89.7335V89.7188V89.7114V89.7077V89.7058C78.1856 89.5133 78.0503 89.6526 78.0929 89.6094C89.7347 89.6252 100.072 89.6389 106.493 89.6478H106.551L106.55 89.7055C106.537 92.051 106.526 93.9067 106.519 95.1852C106.513 95.8087 106.508 96.2914 106.505 96.6267C106.502 96.783 106.501 96.9039 106.499 96.9937C106.497 97.0757 106.496 97.1164 106.493 97.1145Z" fill="#263238"/>
<path d="M109.438 43.8652H111.73L109.463 45.738H107.822L109.438 43.8652Z" fill="#263238"/>
<path d="M83.728 61.7101V66.5755H80.8092V62.1965C80.8092 60.972 80.2868 60.4542 79.4421 60.4542C78.5051 60.4542 77.783 61.0507 77.783 62.4633V66.5755H74.8643V54.9297H77.783V58.8534C78.4284 58.2413 79.3039 57.9275 80.2872 57.9275C82.2379 57.9275 83.728 59.0733 83.728 61.7101Z" fill="#263238"/>
<path d="M85.2354 55.5418C85.2354 54.6473 85.9419 53.9565 87.0174 53.9565C88.093 53.9565 88.7995 54.6 88.7995 55.4948C88.7995 56.4366 88.0926 57.127 87.0174 57.127C85.9419 57.127 85.2354 56.4362 85.2354 55.5418ZM85.5581 58.0688H88.4768V66.5756H85.5581V58.0688Z" fill="#263238"/>
<path d="M95.9448 57.9277V60.6118C95.6836 60.5804 95.4992 60.5649 95.2843 60.5649C94.1013 60.5649 93.2869 61.1769 93.2869 62.6679V66.5761H90.3682V58.0693H93.1487V59.0894C93.7478 58.3199 94.7159 57.9277 95.9448 57.9277Z" fill="#263238"/>
<path d="M96.8203 55.5418C96.8203 54.6473 97.5268 53.9565 98.6024 53.9565C99.6779 53.9565 100.384 54.6 100.384 55.4948C100.384 56.4366 99.6779 57.127 98.6024 57.127C97.5268 57.127 96.8203 56.4362 96.8203 55.5418ZM97.143 58.0688H100.062V66.5756H97.143V58.0688Z" fill="#263238"/>
<path d="M110.816 61.7106V66.5761H107.897V62.197C107.897 60.9725 107.375 60.4547 106.53 60.4547C105.593 60.4547 104.871 61.0513 104.871 62.4639V66.5761H101.952V58.0693H104.733V58.9952C105.393 58.2888 106.331 57.9277 107.375 57.9277C109.325 57.9281 110.816 59.0739 110.816 61.7106Z" fill="#263238"/>
<path d="M121.727 58.0695V65.0225C121.727 68.2403 119.945 69.7627 116.841 69.7627C115.244 69.7627 113.723 69.3857 112.709 68.6483L113.769 66.5608C114.46 67.1259 115.597 67.4712 116.58 67.4712C118.147 67.4712 118.808 66.7493 118.808 65.415V65.1327C118.24 65.8076 117.395 66.1372 116.335 66.1372C114.122 66.1372 112.248 64.5361 112.248 62.025C112.248 59.5295 114.122 57.9287 116.335 57.9287C117.487 57.9287 118.378 58.3053 118.946 59.1059V58.0699L121.727 58.0695ZM118.839 62.0247C118.839 60.9887 118.07 60.2982 117.026 60.2982C115.982 60.2982 115.198 60.989 115.198 62.0247C115.198 63.0607 115.982 63.767 117.026 63.767C118.07 63.767 118.839 63.0607 118.839 62.0247Z" fill="#263238"/>
<path d="M123.076 64.9434C123.076 63.876 123.845 63.1855 124.828 63.1855C125.826 63.1855 126.579 63.876 126.579 64.9434C126.579 65.9794 125.826 66.7171 124.828 66.7171C123.845 66.7171 123.076 65.9794 123.076 64.9434Z" fill="#FF725E"/>
<path d="M114.65 46.4282V48.5353C114.445 48.5109 114.3 48.4984 114.131 48.4984C113.203 48.4984 112.563 48.9789 112.563 50.1498V53.2182H110.271V46.5395H112.455V47.3404C112.925 46.7365 113.685 46.4282 114.65 46.4282Z" fill="#263238"/>
<path d="M122.177 50.4702H117.424C117.618 51.1481 118.185 51.5424 119.029 51.5424C119.668 51.5424 120.09 51.3576 120.537 50.9633L121.743 52.2447C121.116 52.9595 120.199 53.3291 118.957 53.3291C116.629 53.3291 115.121 51.8625 115.121 49.8663C115.121 47.8579 116.653 46.4282 118.715 46.4282C120.645 46.4282 122.213 47.6852 122.213 49.891C122.213 50.0636 122.189 50.2854 122.177 50.4702ZM117.388 49.238H120.066C119.945 48.5357 119.439 48.0922 118.727 48.0922C118.016 48.0918 117.521 48.5353 117.388 49.238Z" fill="#263238"/>
<path d="M100.392 46.54L98.0635 53.2188H95.8444L94.614 49.5834L93.3355 53.2188H91.1161L88.7881 46.54H90.9591L92.298 50.582L93.685 46.54H95.6389L96.9898 50.619L98.3768 46.54H100.392Z" fill="#263238"/>
<path d="M107.556 50.4707H102.803C102.997 51.1486 103.563 51.5429 104.408 51.5429C105.047 51.5429 105.469 51.3581 105.916 50.9638L107.122 52.2452C106.495 52.96 105.578 53.3296 104.335 53.3296C102.008 53.3296 100.5 51.863 100.5 49.8668C100.5 47.8583 102.032 46.4287 104.094 46.4287C106.024 46.4287 107.592 47.6857 107.592 49.8915C107.592 50.0641 107.568 50.2859 107.556 50.4707ZM102.767 49.2384H105.445C105.324 48.5362 104.818 48.0927 104.106 48.0927C103.395 48.0923 102.9 48.5358 102.767 49.2384Z" fill="#263238"/>
<path d="M90.4897 34.1735L90.1239 26.3194C90.0939 25.6774 89.6001 25.1585 88.9728 25.1101C88.3107 25.0591 87.7261 25.5473 87.6425 26.2204L86.669 34.0926C86.5952 34.6888 87.0496 35.2158 87.6375 35.2169L89.5111 35.2202C90.0704 35.221 90.5164 34.7438 90.4897 34.1735Z" fill="#E0E0E0"/>
<path d="M87.0039 20.6637C87.3454 19.665 88.4148 19.1387 89.3919 19.4876C90.3694 19.8365 90.8846 20.9291 90.5431 21.9274C90.2016 22.9261 89.1322 23.4524 88.1547 23.1035C87.1779 22.7549 86.6624 21.6624 87.0039 20.6637Z" fill="#E0E0E0"/>
<path d="M70.366 44.0979L65.888 40.2223C65.5219 39.9055 64.9818 39.917 64.629 40.2496C64.2571 40.6004 64.2195 41.1873 64.5433 41.585L68.3347 46.2335C68.6219 46.5854 69.1457 46.6009 69.4522 46.2664L70.4286 45.2005C70.7198 44.8819 70.6912 44.3796 70.366 44.0979Z" fill="#F5F5F5"/>
<path d="M61.1764 39.0583C60.8088 38.3442 61.0772 37.4612 61.7762 37.0857C62.4748 36.7102 63.3394 36.9844 63.707 37.6985C64.0745 38.4126 63.8057 39.2956 63.1071 39.6711C62.4082 40.0466 61.5439 39.7724 61.1764 39.0583Z" fill="#F5F5F5"/>
<path d="M66.5673 25.8315L73.4518 37.749C74.0147 38.7232 75.2002 39.1161 76.2161 38.6648C77.2873 38.1884 77.805 36.9381 77.3936 35.8207L72.5796 22.7512C72.2149 21.7614 71.084 21.3219 70.168 21.8139L67.2489 23.3813C66.3781 23.8489 66.0673 24.9658 66.5673 25.8315Z" fill="#E0E0E0"/>
<path d="M82.8535 43.933C83.1248 45.774 81.884 47.4908 80.082 47.7676C78.28 48.0448 76.5996 46.7771 76.3282 44.9364C76.0569 43.0954 77.2978 41.3786 79.0998 41.1014C80.9018 40.8246 82.5822 42.092 82.8535 43.933Z" fill="#E0E0E0"/>
<path d="M206.205 156.501C206.204 155.807 206.173 94.1537 206.124 0.0968352L206.205 0.178887C157.913 0.182953 100.384 0.187758 38.801 0.193302H38.7858L38.8799 0.097206C38.8755 57.0765 38.8716 110.652 38.8683 156.501L38.7858 156.417C138.879 156.467 205.492 156.5 206.205 156.501C205.492 156.501 138.879 156.535 38.7858 156.585H38.703V156.5C38.6997 110.651 38.6957 57.0757 38.6914 0.0964658V0H38.7855H38.8007C100.383 0.00517446 157.913 0.00997844 206.204 0.0144137H206.284V0.0964658C206.236 94.1537 206.205 155.808 206.205 156.501Z" fill="#263238"/>
<path d="M43.4398 6.64022C44.2042 6.64022 44.8239 6.00711 44.8239 5.22612C44.8239 4.44513 44.2042 3.81201 43.4398 3.81201C42.6754 3.81201 42.0557 4.44513 42.0557 5.22612C42.0557 6.00711 42.6754 6.64022 43.4398 6.64022Z" fill="white"/>
<path d="M48.2005 6.64022C48.965 6.64022 49.5847 6.00711 49.5847 5.22612C49.5847 4.44513 48.965 3.81201 48.2005 3.81201C47.4361 3.81201 46.8164 4.44513 46.8164 5.22612C46.8164 6.00711 47.4361 6.64022 48.2005 6.64022Z" fill="white"/>
<path d="M52.9613 6.64022C53.7257 6.64022 54.3454 6.00711 54.3454 5.22612C54.3454 4.44513 53.7257 3.81201 52.9613 3.81201C52.1968 3.81201 51.5771 4.44513 51.5771 5.22612C51.5771 6.00711 52.1968 6.64022 52.9613 6.64022Z" fill="white"/>
<path d="M142.099 34.6505C142.078 34.7067 141.305 34.4579 140.372 34.0954C139.439 33.7324 138.699 33.3931 138.72 33.3369C138.741 33.2811 139.514 33.5295 140.447 33.8925C141.38 34.255 142.12 34.5947 142.099 34.6505Z" fill="#455A64"/>
<path d="M137.467 42.1134C137.089 42.0705 136.128 42.5661 135.317 43.5541C135.303 43.5692 135.289 43.5818 135.276 43.5973C134.701 44.2593 134.343 42.2268 134.305 41.4773C134.28 40.9909 133.79 40.6579 133.316 40.7994L130.791 41.7929L130.076 41.7667C129.706 41.8768 129.48 42.2409 129.55 42.6145L130.448 46.6421L130.399 47.7206L135.248 48.7481L135.509 46.0574C135.603 45.751 135.725 45.3903 135.884 44.98C136.028 44.6115 136.234 44.2652 136.495 43.9658C136.769 43.652 137.139 43.2573 137.443 43.0426C137.47 43.027 137.501 43.0049 137.527 42.993C137.589 42.9646 137.635 42.9239 137.675 42.8796C137.941 42.6227 137.836 42.1551 137.467 42.1134Z" fill="#FFBE9D"/>
<path d="M136.407 30.7632C136.407 30.7632 133.513 30.3954 129.162 26.8602C124.812 23.3249 122.457 18.3009 121.971 18.3733C121.485 18.4458 119.26 17.6397 116.036 27.042C112.812 36.4444 114.602 38.3833 115.408 38.2887C116.213 38.1941 121.548 36.1066 125.008 36.1746C128.467 36.2426 133.034 37.6412 133.034 37.6412L136.407 30.7632Z" fill="#FF725E"/>
<path d="M142.881 35.0963L142.087 37.0678L141.731 37.9511C141.244 39.1627 139.913 39.7722 138.703 39.3379L132.428 37.76L135.205 29.166L141.581 31.8867C142.804 32.4093 143.385 33.843 142.881 35.0963Z" fill="#263238"/>
<path d="M140.409 38.0094L138.307 41.8174L137.347 41.5003L130.786 46.5044L129.157 42.8819C129.157 42.8819 132.975 41.3909 133.724 40.0541C134.473 38.7172 133.684 38.3735 133.684 38.3735L135.532 36.3994L140.409 38.0094Z" fill="#263238"/>
<path d="M116.377 27.1754C114.669 32.2648 114.172 36.7015 115.267 37.0852C116.361 37.4685 118.633 33.6534 120.341 28.564C122.048 23.4745 122.546 19.0378 121.451 18.6545C120.356 18.2709 118.085 22.0859 116.377 27.1754Z" fill="#263238"/>
<path d="M143.652 37.7605L141.956 37.3909L142.793 35.313L144.1 35.9783L143.652 37.7605Z" fill="#455A64"/>
<path d="M141.701 35.8785C141.682 35.9354 140.83 35.6881 139.798 35.3263C138.766 34.9644 137.945 34.6252 137.964 34.5686C137.983 34.5121 138.835 34.7593 139.867 35.1208C140.899 35.4826 141.72 35.8219 141.701 35.8785Z" fill="#455A64"/>
<path d="M141.177 37.177C141.171 37.2066 140.971 37.1792 140.65 37.1109C140.49 37.0769 140.299 37.0321 140.088 36.9797C139.878 36.9242 139.657 36.8355 139.422 36.7527C138.481 36.4123 137.755 36.0601 137.773 36.0083C137.794 35.9474 138.56 36.2105 139.492 36.548C139.725 36.63 139.943 36.7243 140.147 36.7889C140.351 36.851 140.535 36.9098 140.688 36.9627C140.994 37.0676 141.183 37.1478 141.177 37.177Z" fill="#455A64"/>
<path d="M120.676 25.6664C120.676 25.6664 118.068 24.3428 117.034 27.8733C116 31.4041 118.643 31.7135 118.643 31.7135C119.549 29.9309 120.233 27.9217 120.676 25.6664Z" fill="#FAFAFA"/>
<path d="M122.923 21.3608C122.938 21.362 122.925 21.5963 122.887 22.0198C122.848 22.443 122.793 23.057 122.703 23.8128C122.633 24.1876 122.556 24.5967 122.473 25.0358C122.431 25.2557 122.387 25.483 122.342 25.717C122.32 25.8342 122.297 25.9528 122.274 26.0733C122.248 26.193 122.21 26.3117 122.178 26.4333C122.044 26.9182 121.903 27.4272 121.757 27.9542C121.72 28.0862 121.683 28.2188 121.646 28.353C121.61 28.4875 121.554 28.6165 121.508 28.75C121.411 29.0153 121.313 29.2844 121.213 29.5568C121.113 29.8292 121.014 30.0983 120.916 30.3633C120.865 30.4949 120.824 30.6298 120.766 30.7554C120.707 30.8815 120.65 31.0068 120.593 31.131C120.364 31.6266 120.143 32.1049 119.933 32.561C119.878 32.6741 119.831 32.7886 119.774 32.8966C119.713 33.003 119.655 33.1083 119.596 33.2118C119.479 33.4188 119.365 33.6195 119.256 33.8143C119.036 34.2009 118.83 34.562 118.643 34.892C118.225 35.5207 117.873 36.0186 117.631 36.3642C117.387 36.7083 117.247 36.8949 117.234 36.8864C117.222 36.8779 117.34 36.6758 117.562 36.3169C117.794 35.951 118.119 35.4372 118.518 34.8063C118.698 34.4744 118.894 34.1118 119.104 33.723C119.21 33.5286 119.32 33.3275 119.432 33.1209C119.488 33.0178 119.546 32.9128 119.604 32.8064C119.659 32.6988 119.706 32.5839 119.758 32.4711C119.964 32.0165 120.179 31.5397 120.403 31.0452C120.459 30.9218 120.516 30.7972 120.573 30.6715C120.631 30.5466 120.671 30.4124 120.721 30.2816C120.818 30.0181 120.916 29.7509 121.014 29.4803C121.114 29.2101 121.212 28.9429 121.309 28.6797C121.354 28.5474 121.411 28.4195 121.447 28.2861C121.485 28.1531 121.522 28.0215 121.559 27.8906C121.708 27.3684 121.852 26.8639 121.989 26.3834C122.023 26.2629 122.061 26.1457 122.089 26.0271C122.113 25.9077 122.137 25.7902 122.161 25.6741C122.209 25.4424 122.256 25.2169 122.301 24.9992C122.392 24.5646 122.478 24.1591 122.556 23.788C122.66 23.0459 122.745 22.4419 122.806 22.0113C122.867 21.5915 122.909 21.3597 122.923 21.3608Z" fill="#263238"/>
<path d="M132.518 39.985C132.248 40.0818 132.097 40.3878 132.175 40.6791C132.326 41.2365 132.571 42.1113 132.763 42.6443C132.825 42.8161 132.892 42.991 133.011 43.1248C133.129 43.2586 133.311 43.3439 133.477 43.2926C133.652 43.2382 133.766 43.0457 133.793 42.8531C133.819 42.6602 133.775 42.4658 133.73 42.2776C133.604 41.7576 133.38 40.9774 133.186 40.3416C133.095 40.0445 132.796 39.8848 132.518 39.985Z" fill="#FFBE9D"/>
<path d="M131.702 40.9331C131.432 41.0299 131.281 41.336 131.36 41.6272C131.51 42.1846 131.756 43.0594 131.948 43.5924C132.01 43.7643 132.077 43.9394 132.195 44.0729C132.314 44.2067 132.495 44.292 132.662 44.2407C132.837 44.1867 132.951 43.9938 132.977 43.8012C133.004 43.6083 132.96 43.4139 132.914 43.2254C132.789 42.7053 132.565 41.9251 132.37 41.2894C132.28 40.9926 131.98 40.8333 131.702 40.9331Z" fill="#FFBE9D"/>
<path d="M130.943 41.5185C130.699 41.6017 130.563 41.8663 130.635 42.1187C130.773 42.6018 130.998 43.3602 131.173 43.8226C131.229 43.9716 131.291 44.1235 131.398 44.2395C131.505 44.3556 131.67 44.4302 131.82 44.3863C131.978 44.3397 132.081 44.1734 132.104 44.0063C132.128 43.8392 132.088 43.6707 132.046 43.5073C131.931 43.0568 131.726 42.3804 131.549 41.829C131.466 41.5717 131.195 41.4328 130.943 41.5185Z" fill="#FFBE9D"/>
<path d="M129.985 41.6641C129.74 41.7476 129.603 42.0137 129.676 42.2673C129.814 42.7526 130.039 43.5147 130.215 43.9793C130.272 44.129 130.334 44.2816 130.441 44.3981C130.549 44.5149 130.715 44.5895 130.866 44.5452C131.025 44.4986 131.128 44.3312 131.152 44.1634C131.175 43.9956 131.135 43.8263 131.093 43.6622C130.978 43.2094 130.772 42.5297 130.593 41.976C130.511 41.7177 130.238 41.578 129.985 41.6641Z" fill="#FFBE9D"/>
<path d="M132.955 43.1421C132.903 43.1598 132.71 42.7178 132.523 42.1541C132.337 41.5905 132.228 41.1192 132.279 41.1011C132.331 41.083 132.525 41.5254 132.711 42.0891C132.897 42.6527 133.007 43.1243 132.955 43.1421Z" fill="#EB996E"/>
<path d="M132.086 43.9163C132.034 43.9326 131.829 43.4236 131.629 42.7794C131.429 42.1352 131.309 41.5982 131.361 41.5801C131.413 41.5619 131.617 42.0709 131.818 42.717C132.018 43.3627 132.139 43.8997 132.086 43.9163Z" fill="#EB996E"/>
<path d="M131.234 43.966C131.185 43.9881 130.951 43.5564 130.762 42.9821C130.572 42.4077 130.503 41.9191 130.555 41.9065C130.609 41.8932 130.763 42.3526 130.95 42.9174C131.135 43.4822 131.285 43.9431 131.234 43.966Z" fill="#EB996E"/>
<path d="M161.401 30.5256C160.021 28.145 157.531 26.6004 154.921 25.8656C153.822 25.5563 153.077 25.6424 151.945 25.7729C150.813 25.9033 149.742 26.3465 148.953 27.1862C148.016 28.1834 147.182 29.334 146.834 30.6697C146.476 32.0421 146.116 33.4237 146.01 34.84C145.904 36.2559 146.067 37.724 146.704 38.9858L150.098 40.1479C152.014 40.5149 153.956 40.8834 155.899 40.727C157.843 40.5703 159.819 39.8234 161.075 38.3002C162.819 36.1835 162.78 32.9066 161.401 30.5256Z" fill="#263238"/>
<path d="M163.232 40.9633C163.265 40.1461 162.971 39.2919 162.351 38.7745C161.73 38.2571 160.772 38.1513 160.121 38.6267L159.473 39.2084C158.559 39.4483 157.87 40.3616 157.833 41.3255C157.795 42.2894 158.384 43.236 159.235 43.6533C160.086 44.0706 161.15 43.9604 161.93 43.4164C162.709 42.8727 163.192 41.9272 163.232 40.9633Z" fill="#263238"/>
<path d="M162.186 43.2616C162.162 43.2453 162.438 43.0553 162.479 42.5819C162.518 42.1213 162.283 41.4734 161.92 40.8562C161.548 40.2349 161.07 39.7755 160.694 39.4942C160.318 39.2066 160.05 39.081 160.063 39.0533C160.069 39.0366 160.359 39.1224 160.763 39.3918C161.169 39.6539 161.681 40.1177 162.067 40.7638C162.261 41.0846 162.405 41.4154 162.5 41.7277C162.598 42.0382 162.641 42.3438 162.6 42.597C162.564 42.8509 162.454 43.0354 162.36 43.1374C162.264 43.2405 162.191 43.2701 162.186 43.2616Z" fill="#455A64"/>
<path d="M160.342 44.047C160.285 44.0348 160.683 42.9947 160.537 41.6704C160.411 40.3435 159.81 39.411 159.863 39.3866C159.879 39.3756 160.05 39.5892 160.244 39.9872C160.439 40.3835 160.639 40.9737 160.71 41.6519C160.778 42.3302 160.703 42.9496 160.593 43.3787C160.484 43.809 160.359 44.0544 160.342 44.047Z" fill="#455A64"/>
<path d="M148.953 47.5839C149.163 46.3376 149.63 43.6665 149.629 43.672C149.629 43.672 146.834 42.9092 146.603 39.0642C146.489 37.1519 146.874 34.0731 147.269 31.5645C147.624 29.3063 149.968 26.5213 152.702 26.9371L153.938 26.9822L158.304 29.5938C158.971 29.7332 159.422 30.37 159.343 31.0604L156.95 47.2055L150.182 60.7374L148.653 51.1377L148.953 47.5839Z" fill="#FFBE9D"/>
<path d="M148.519 34.3153C148.485 34.571 148.67 34.8105 148.931 34.8508C149.191 34.8911 149.429 34.717 149.462 34.4613C149.495 34.2059 149.311 33.966 149.051 33.9257C148.79 33.8854 148.551 34.0599 148.519 34.3153Z" fill="#263238"/>
<path d="M147.973 33.101C148.025 33.1701 148.411 32.9335 148.923 32.9853C149.434 33.0296 149.784 33.3356 149.846 33.2772C149.876 33.2517 149.827 33.1313 149.675 32.9938C149.526 32.857 149.262 32.7121 148.944 32.6818C148.625 32.6523 148.345 32.7454 148.179 32.8529C148.01 32.9605 147.946 33.0699 147.973 33.101Z" fill="#263238"/>
<path d="M150.564 37.5166C150.569 37.487 150.257 37.3998 149.748 37.2811C149.618 37.2545 149.497 37.2157 149.484 37.1226C149.462 37.0232 149.531 36.8845 149.609 36.7356C149.762 36.4248 149.923 36.0988 150.091 35.7576C150.765 34.3639 151.266 33.2125 151.211 33.1856C151.155 33.1582 150.565 34.2659 149.891 35.6597C149.728 36.0038 149.573 36.3316 149.425 36.6454C149.361 36.7922 149.26 36.9559 149.307 37.1625C149.333 37.2656 149.422 37.3477 149.504 37.3787C149.585 37.4131 149.658 37.4216 149.723 37.4323C150.238 37.5121 150.559 37.5461 150.564 37.5166Z" fill="#263238"/>
<path d="M149.614 43.6637C149.614 43.6637 152.092 44.0743 154.706 42.8018C154.706 42.8018 153.135 45.2958 149.459 44.5747L149.614 43.6637Z" fill="#EB996E"/>
<path d="M148.365 31.2516C148.444 31.3791 148.808 31.2908 149.232 31.327C149.657 31.3481 150.007 31.4841 150.101 31.368C150.143 31.3115 150.098 31.1869 149.952 31.0591C149.808 30.9319 149.558 30.8147 149.266 30.7948C148.974 30.7756 148.711 30.858 148.553 30.9652C148.391 31.0724 148.33 31.1899 148.365 31.2516Z" fill="#263238"/>
<path d="M154.366 34.7038C154.341 34.9603 154.108 35.1503 153.846 35.1288C153.583 35.1074 153.391 34.8823 153.415 34.6258C153.44 34.3693 153.673 34.1789 153.935 34.2004C154.198 34.2218 154.391 34.4473 154.366 34.7038Z" fill="#263238"/>
<path d="M154.726 33.5299C154.659 33.5849 154.336 33.2645 153.826 33.1957C153.318 33.1196 152.909 33.3362 152.863 33.2645C152.839 33.2327 152.914 33.127 153.093 33.0283C153.269 32.93 153.558 32.8502 153.875 32.8952C154.192 32.9407 154.443 33.0967 154.58 33.2401C154.72 33.3842 154.758 33.5058 154.726 33.5299Z" fill="#263238"/>
<path d="M154.66 31.7482C154.555 31.8539 154.22 31.6832 153.799 31.6192C153.38 31.5405 153.009 31.5915 152.943 31.4566C152.915 31.3915 152.987 31.281 153.158 31.1905C153.327 31.1003 153.596 31.0445 153.885 31.0933C154.173 31.1428 154.41 31.2844 154.541 31.4256C154.674 31.5675 154.707 31.6961 154.66 31.7482Z" fill="#263238"/>
<path d="M158.554 36.3603L157.817 36.9358C155.469 33.8196 151.101 26.252 151.342 26.7C151.342 26.7 153.343 26.2021 155.334 26.8763C157.325 27.5504 161.046 29.1996 160.618 31.653C160.191 34.1065 158.554 36.3603 158.554 36.3603Z" fill="#263238"/>
<path d="M160.071 38.775C160.056 38.772 160.092 38.5602 160.135 38.1766C160.179 37.7933 160.209 37.2334 160.164 36.5463C160.087 35.1747 159.593 33.2845 158.493 31.5019C157.391 29.7182 156.008 28.395 154.978 27.5061C154.46 27.0608 154.027 26.7166 153.726 26.4812C153.425 26.2454 153.259 26.1138 153.266 26.1031C153.269 26.0983 153.315 26.1242 153.4 26.1789C153.484 26.2339 153.609 26.3145 153.765 26.4258C154.079 26.6449 154.525 26.9743 155.056 27.41C156.11 28.2786 157.521 29.5996 158.639 31.4084C159.756 33.2172 160.24 35.1469 160.286 36.5396C160.316 37.2374 160.267 37.8029 160.202 38.1866C160.177 38.3799 160.135 38.5259 160.115 38.626C160.092 38.7247 160.077 38.7765 160.071 38.775Z" fill="#455A64"/>
<path d="M154.862 26.1984C154.865 26.1933 154.913 26.218 155 26.2701C155.089 26.3215 155.217 26.4017 155.379 26.5085C155.704 26.7225 156.166 27.0444 156.713 27.478C157.259 27.9112 157.889 28.4545 158.544 29.1076C159.193 29.7621 159.901 30.5076 160.464 31.435C160.744 31.897 160.962 32.3867 161.104 32.8816C161.244 33.3776 161.302 33.8755 161.306 34.3467C161.311 35.2925 161.125 36.1264 160.933 36.8042C160.736 37.4832 160.532 38.0158 160.388 38.3813C160.315 38.5643 160.256 38.7047 160.213 38.799C160.171 38.8936 160.146 38.942 160.141 38.9398C160.129 38.935 160.199 38.7287 160.325 38.3569C160.45 37.9847 160.635 37.4473 160.815 36.7706C160.99 36.0949 161.16 35.2704 161.147 34.3493C161.139 33.8903 161.079 33.4087 160.942 32.93C160.803 32.4525 160.591 31.9787 160.317 31.5278C159.769 30.623 159.072 29.8812 158.433 29.2236C157.789 28.5687 157.171 28.0191 156.637 27.5759C156.104 27.1324 155.654 26.7961 155.342 26.5654C155.029 26.3348 154.854 26.2099 154.862 26.1984Z" fill="#455A64"/>
<path d="M158.593 36.4308C158.582 36.4371 158.483 36.3033 158.313 36.0561C158.127 35.7781 157.89 35.4237 157.606 34.999C157.015 34.1023 156.209 32.8571 155.328 31.4763C154.447 30.0947 153.657 28.8388 153.093 27.9248C152.827 27.4879 152.605 27.1231 152.432 26.837C152.279 26.5779 152.199 26.4316 152.209 26.4246C152.219 26.4179 152.317 26.5513 152.488 26.7986C152.674 27.0765 152.911 27.431 153.195 27.8553C153.785 28.752 154.592 29.9975 155.473 31.3795C156.355 32.761 157.145 34.0173 157.71 34.9317C157.975 35.3682 158.197 35.7334 158.37 36.0191C158.523 36.2778 158.602 36.4242 158.593 36.4308Z" fill="#455A64"/>
<path d="M157.854 37.3595C157.881 37.0775 158.263 36.4443 158.54 36.4277C159.279 36.3837 160.586 36.5733 160.419 38.4631C160.191 41.0466 157.699 40.2801 157.701 40.2054C157.703 40.1474 157.759 38.333 157.854 37.3595Z" fill="#FFBE9D"/>
<path d="M158.4 39.2303C158.412 39.223 158.442 39.2658 158.513 39.3076C158.583 39.3482 158.705 39.3834 158.842 39.3449C159.118 39.2695 159.381 38.8567 159.434 38.3921C159.462 38.1574 159.433 37.9293 159.368 37.736C159.307 37.5398 159.199 37.3967 159.067 37.3602C158.936 37.3162 158.833 37.3897 158.796 37.4592C158.755 37.5283 158.767 37.5815 158.753 37.5845C158.746 37.5904 158.703 37.5364 158.733 37.4315C158.748 37.3812 158.782 37.3228 158.846 37.2785C158.912 37.2337 159.003 37.216 159.096 37.2352C159.29 37.267 159.449 37.4666 159.52 37.6784C159.603 37.892 159.64 38.1493 159.609 38.4128C159.547 38.9317 159.244 39.3952 158.869 39.4695C158.687 39.5005 158.543 39.4321 158.472 39.3641C158.4 39.2932 158.391 39.2344 158.4 39.2303Z" fill="#EB996E"/>
<path d="M163.781 133.015C163.73 133.422 162.749 144.789 162.749 144.789H157.651L156.758 133.062L163.781 133.015Z" fill="#FFBE9D"/>
<path d="M157.64 143.095C157.64 143.095 161.22 145.69 162.952 143.443L163.405 144.532L165.44 152.288C165.572 152.79 165.341 153.343 164.868 153.533C164.503 153.679 164.101 153.597 163.826 153.33C162.354 151.899 156.964 146.608 157.016 145.89L157.037 143.986C157.042 143.591 157.28 143.239 157.64 143.095Z" fill="#FF725E"/>
<path d="M164.697 153.585L157.019 145.227L157.021 145.643C156.982 146.094 157.175 146.272 157.384 146.561C158.006 147.417 159.725 149.331 163.802 153.329C164.039 153.562 164.376 153.658 164.697 153.585Z" fill="#263238"/>
<path d="M158.146 143.987C158.387 144.156 158.467 144.528 158.312 144.781C158.156 145.035 157.787 145.121 157.543 144.956C157.299 144.792 157.189 144.348 157.371 144.114C157.553 143.88 157.992 143.803 158.191 144.023" fill="white"/>
<path d="M162.484 149.306C162.539 149.333 162.754 148.818 163.324 148.539C163.886 148.242 164.418 148.379 164.43 148.318C164.438 148.294 164.316 148.218 164.091 148.187C163.868 148.154 163.543 148.188 163.23 148.346C162.918 148.505 162.696 148.749 162.587 148.951C162.475 149.153 162.461 149.298 162.484 149.306Z" fill="#263238"/>
<path d="M163.176 150.617C163.222 150.659 163.529 150.339 164.025 150.191C164.518 150.033 164.948 150.125 164.963 150.064C164.991 150.013 164.527 149.807 163.964 149.985C163.399 150.156 163.126 150.59 163.176 150.617Z" fill="#263238"/>
<path d="M161.196 147.625C161.241 147.671 161.711 147.176 162.463 146.877C163.212 146.567 163.886 146.597 163.887 146.532C163.903 146.479 163.188 146.346 162.385 146.677C161.58 146.999 161.149 147.598 161.196 147.625Z" fill="#263238"/>
<path d="M161.029 145.262C161.055 145.321 161.584 145.092 162.275 145.064C162.966 145.026 163.514 145.203 163.535 145.142C163.561 145.094 163.008 144.81 162.266 144.848C161.523 144.881 160.998 145.217 161.029 145.262Z" fill="#263238"/>
<path d="M162.667 145.045C162.679 145.042 162.677 144.909 162.613 144.677C162.549 144.448 162.42 144.116 162.154 143.776C162.019 143.616 161.87 143.406 161.583 143.329C161.441 143.29 161.25 143.353 161.161 143.502C161.073 143.647 161.067 143.812 161.092 143.966C161.214 144.576 161.837 145.071 162.528 145.03C163.219 144.976 163.76 144.464 163.931 143.883C163.965 143.735 163.974 143.56 163.871 143.411C163.769 143.26 163.565 143.231 163.434 143.281C163.162 143.377 163.015 143.576 162.872 143.73C162.596 144.06 162.446 144.379 162.365 144.603C162.284 144.828 162.269 144.961 162.281 144.964C162.319 144.983 162.433 144.444 162.984 143.832C163.124 143.688 163.284 143.51 163.482 143.452C163.579 143.423 163.671 143.447 163.721 143.522C163.771 143.593 163.774 143.717 163.743 143.835C163.595 144.311 163.1 144.778 162.515 144.814C161.934 144.855 161.386 144.42 161.283 143.929C161.26 143.811 161.269 143.685 161.318 143.603C161.367 143.522 161.456 143.485 161.55 143.504C161.747 143.545 161.908 143.724 162.04 143.873C162.567 144.506 162.627 145.062 162.667 145.045Z" fill="#263238"/>
<path d="M135.793 129.313L136.671 143.822L142.844 143.778L143.887 128.704L135.793 129.313Z" fill="#FFBE9D"/>
<path d="M136.558 142.072L136.555 142.492C136.555 142.492 129.584 145.319 129.505 146.667L143.324 146.653L143.131 141.955C141.078 142.929 138.928 143.041 136.558 142.072Z" fill="#FF725E"/>
<path d="M141.737 143.459C142.005 143.534 142.19 143.84 142.128 144.117C142.066 144.393 141.762 144.588 141.493 144.518C141.224 144.448 140.991 144.087 141.083 143.819C141.174 143.552 141.544 143.343 141.788 143.476" fill="white"/>
<path d="M143.328 146.653L143.281 145.523L130.054 145.951C130.054 145.951 129.439 146.225 129.508 146.668L143.328 146.653Z" fill="#263238"/>
<path d="M136.51 142.531C136.512 142.6 136.85 142.631 137.182 142.852C137.52 143.065 137.691 143.363 137.753 143.335C137.815 143.322 137.714 142.91 137.307 142.649C136.903 142.385 136.496 142.468 136.51 142.531Z" fill="#263238"/>
<path d="M135.06 143.145C135.045 143.212 135.337 143.329 135.567 143.62C135.804 143.905 135.863 144.22 135.93 144.217C135.993 144.228 136.039 143.824 135.748 143.467C135.459 143.108 135.062 143.079 135.06 143.145Z" fill="#263238"/>
<path d="M134.239 144.919C134.3 144.934 134.394 144.589 134.22 144.212C134.049 143.833 133.73 143.684 133.702 143.742C133.664 143.799 133.869 144.001 134.007 144.313C134.152 144.621 134.172 144.912 134.239 144.919Z" fill="#263238"/>
<path d="M143.887 84.407C143.703 84.9503 136.383 110.284 136.383 110.284L135.124 140.345L144.236 140.882L147.497 110.868L155.819 92.0962L152.162 76.8257H144.717L143.887 84.407Z" fill="#263238"/>
<path d="M150.371 76.8256C150.501 77.1874 155.17 94.3807 155.17 94.3807L155.819 120.01V141.213H164.119L167.988 94.4505C167.988 94.4505 168.671 85.9651 167.503 83.0922C166.336 80.2196 161.604 75.2163 161.604 75.2163L150.371 76.8256Z" fill="#263238"/>
<path d="M151.04 78.5845C151.053 78.5812 151.119 78.7948 151.228 79.1833C151.348 79.6024 151.506 80.1561 151.698 80.8258C152.114 82.2392 152.673 84.1363 153.291 86.2331C153.904 88.3494 154.406 90.2832 154.696 91.7006C154.845 92.4081 154.945 92.9854 155.002 93.386C155.059 93.7867 155.084 94.0088 155.071 94.011C155.058 94.0129 155.009 93.7948 154.93 93.3994C154.85 93.0039 154.731 92.4325 154.565 91.731C154.243 90.3254 153.722 88.4023 153.11 86.2878C152.496 84.1744 151.935 82.2606 151.569 80.8631C151.383 80.1653 151.244 79.5972 151.157 79.2025C151.07 78.8074 151.028 78.5878 151.04 78.5845Z" fill="#455A64"/>
<path d="M153.906 78.5848C153.92 78.6166 153.616 78.6244 153.386 78.9666C153.277 79.1304 153.213 79.378 153.314 79.6149C153.405 79.8485 153.647 80.064 153.929 80.0788C154.212 80.0906 154.472 79.8988 154.584 79.6752C154.706 79.4486 154.664 79.1962 154.571 79.0228C154.373 78.6606 154.071 78.6236 154.087 78.5933C154.088 78.5826 154.159 78.5741 154.278 78.6148C154.395 78.6547 154.56 78.7563 154.685 78.9537C154.811 79.1422 154.884 79.4619 154.74 79.755C154.607 80.0385 154.296 80.2843 153.921 80.2717C153.546 80.2488 153.258 79.9749 153.152 79.68C153.035 79.3747 153.136 79.0635 153.278 78.8875C153.421 78.7027 153.594 78.6174 153.715 78.5885C153.837 78.559 153.906 78.5741 153.906 78.5848Z" fill="#455A64"/>
<path d="M161.276 90.9287C161.279 90.9287 161.282 90.9723 161.285 91.0577C161.287 91.1531 161.29 91.2784 161.293 91.4365C161.295 91.7814 161.299 92.27 161.304 92.8932C161.312 94.1583 161.298 95.9886 161.263 98.2502C161.197 102.773 160.999 109.019 160.74 115.915C160.48 122.813 160.261 129.057 160.162 133.578C160.109 135.839 160.075 137.668 160.061 138.933C160.051 139.556 160.042 140.044 160.036 140.388C160.032 140.547 160.028 140.672 160.025 140.767C160.022 140.853 160.018 140.896 160.015 140.896C160.012 140.896 160.009 140.853 160.006 140.767C160.004 140.672 160.002 140.547 159.998 140.388C159.996 140.044 159.992 139.555 159.988 138.932C159.98 137.667 159.993 135.837 160.028 133.575C160.094 129.052 160.292 122.806 160.551 115.908C160.811 109.012 161.03 102.769 161.129 98.2476C161.181 95.9871 161.215 94.1576 161.23 92.8928C161.24 92.2696 161.249 91.7814 161.255 91.4365C161.259 91.2784 161.263 91.1531 161.266 91.0577C161.27 90.9723 161.273 90.9287 161.276 90.9287Z" fill="#455A64"/>
<path d="M148.465 87.8413C148.468 87.8424 148.454 87.8872 148.423 87.9736C148.388 88.0683 148.342 88.1943 148.283 88.3543C148.15 88.6977 147.963 89.1863 147.723 89.8106C147.226 91.082 146.513 92.9045 145.634 95.1517C144.766 97.4119 143.743 100.109 142.78 103.163C141.824 106.213 140.879 109.627 140.483 113.303C140.294 115.141 140.21 116.952 140.1 118.694C140.007 120.439 139.918 122.121 139.833 123.725C139.672 126.93 139.526 129.817 139.404 132.246C139.274 134.672 139.15 136.633 139.051 137.988C138.998 138.656 138.956 139.179 138.927 139.547C138.911 139.717 138.899 139.851 138.889 139.952C138.879 140.043 138.873 140.09 138.87 140.089C138.866 140.089 138.866 140.042 138.87 139.95C138.874 139.849 138.881 139.715 138.889 139.544C138.91 139.176 138.939 138.652 138.977 137.983C139.054 136.627 139.158 134.665 139.27 132.239C139.382 129.81 139.514 126.922 139.66 123.716C139.741 122.112 139.827 120.429 139.916 118.683C140.024 116.938 140.106 115.132 140.296 113.283C140.694 109.584 141.648 106.161 142.615 103.108C143.59 100.051 144.627 97.3564 145.51 95.1015C146.398 92.848 147.145 91.0362 147.656 89.7821C147.91 89.1638 148.108 88.68 148.248 88.3396C148.314 88.1825 148.366 88.059 148.406 87.9659C148.442 87.8824 148.462 87.8402 148.465 87.8413Z" fill="#455A64"/>
<path d="M160.986 46.5713C160.986 46.5713 165.926 47.5123 167.011 48.4367C168.072 49.34 177.987 62.5397 178.193 65.2012C178.398 67.8627 177.195 68.8388 176.509 69.469C175.824 70.0992 164.003 78.2981 164.003 78.2981L160.369 72.135L170.583 65.9016L165.654 57.2857L160.986 46.5713Z" fill="#FF725E"/>
<path d="M173.887 63.5416C173.897 63.6026 172.909 63.5938 171.926 64.235C170.931 64.8574 170.507 65.7692 170.457 65.733C170.438 65.7245 170.512 65.4865 170.728 65.1513C170.941 64.8168 171.315 64.3991 171.826 64.0716C172.337 63.7464 172.869 63.5853 173.256 63.5354C173.646 63.4844 173.888 63.5202 173.887 63.5416Z" fill="#FF725E"/>
<path d="M149.018 47.2108L150.327 59.3489L157.01 45.6621L161.318 50.1336C161.318 50.1336 163.965 66.1201 164.002 66.2335C164.039 66.347 162.189 75.3794 162.189 75.3794L149.945 77.7981L146.209 76.8271L145.617 62.6096L145.358 51.721L149.018 47.2108Z" fill="white"/>
<path d="M147.43 47.7274L144.25 48.4825C143.826 48.583 143.431 48.7863 143.101 49.0757C140.385 51.4493 134.52 56.4704 134.52 56.4704L135.599 47.5611L129.965 47.0107C129.965 47.0107 128.269 58.2389 128.445 61.1943C128.65 64.6239 131.66 65.4662 136.043 63.6222C140.898 61.5794 143.879 59.6726 143.879 59.6726L147.43 47.7274Z" fill="#FF725E"/>
<path d="M165.165 57.3183L164.585 67.9633L165.168 70.0338C165.168 70.0338 170.652 80.6093 171.543 87.6129L164.756 88.7335C164.756 88.7335 162.906 79.6989 161.603 75.2164C160.3 70.7338 156.461 68.8429 155.159 64.2206C153.857 59.5984 154.336 56.3765 154.336 56.0964C154.336 55.8162 157.01 45.661 157.01 45.661L157.489 43.5376L159.889 45.8709L166.059 47.9721L165.165 57.3183Z" fill="#FF725E"/>
<g opacity="0.3">
<path d="M168.399 77.1123C168.399 77.1123 166.065 78.9348 164.884 79.5568C164.814 79.5938 164.719 79.6345 164.613 79.6751C164.109 79.8684 163.543 79.6478 163.285 79.1654C163.141 78.896 162.993 78.6095 162.895 78.3955C162.644 77.8474 162.374 77.1855 162.134 76.6122L162.895 76.4219L164.001 78.2983L167.192 76.0645L167.8 75.6387L168.399 77.1123Z" fill="black"/>
</g>
<path d="M149.078 46.0117L147.594 47.597L144.039 48.8717C144.039 48.8717 143.168 59.5973 143.641 61.8751C144.097 64.0698 144.964 66.738 145.037 69.8907C145.111 73.0435 141.584 89.7074 141.584 89.7074L145.845 91.3588C145.845 91.3588 148.02 72.0673 147.594 67.8638C147.168 63.6603 148.27 55.1779 148.27 55.1779L149.078 46.0117Z" fill="#FF725E"/>
<path d="M157.145 66.4621C157.14 66.4665 157.087 66.4066 156.988 66.2876C156.892 66.1675 156.763 65.9779 156.625 65.717C156.355 65.1932 156.111 64.3502 156.075 63.2916C156.033 62.2331 156.15 60.9823 156.326 59.6033C156.511 58.2251 156.798 56.7189 157.229 55.1736C158.016 52.2745 159.152 49.7722 160.131 47.9981L160.19 48.1038C159.63 48.0854 159.127 48.0691 158.681 48.0543L158.574 48.051L158.637 47.9638C159.052 47.3942 159.384 46.9374 159.628 46.6029C159.736 46.4591 159.825 46.3419 159.897 46.247C159.959 46.1671 159.993 46.1276 159.997 46.1305C160.002 46.1335 159.976 46.1797 159.922 46.2651C159.856 46.3645 159.775 46.4876 159.677 46.6384C159.444 46.9802 159.125 47.4478 158.728 48.0303L158.684 47.9397C159.131 47.946 159.633 47.953 160.194 47.9608L160.309 47.9623L160.254 48.0665C159.305 49.8484 158.193 52.3428 157.41 55.225C156.982 56.7618 156.692 58.2576 156.498 59.6274C156.314 60.9975 156.184 62.2438 156.208 63.2864C156.227 64.3309 156.446 65.1585 156.691 65.6833C156.941 66.2082 157.163 66.4488 157.145 66.4621Z" fill="#263238"/>
<path d="M161.318 56.6246C161.327 56.6752 160.55 56.8641 159.572 56.9646C158.594 57.067 157.796 57.0407 157.795 56.9894C157.793 56.9347 158.583 56.8744 159.553 56.7732C160.523 56.6737 161.308 56.571 161.318 56.6246Z" fill="#263238"/>
<path d="M165.648 54.1602C165.662 54.1639 165.629 54.3554 165.572 54.6991C165.525 55.0458 165.463 55.5473 165.405 56.1708C165.289 57.4172 165.171 59.1439 165.056 61.0522C164.944 62.9442 164.843 64.6555 164.766 65.9417C164.726 66.5674 164.688 67.0734 164.656 67.4227C164.623 67.772 164.598 67.9645 164.585 67.9638C164.572 67.9627 164.573 67.7687 164.583 67.4183C164.596 67.032 164.613 66.5334 164.633 65.9347C164.681 64.6821 164.755 62.9512 164.868 61.0404C164.983 59.1306 165.122 57.4024 165.273 56.1557C165.348 55.5325 165.43 55.0303 165.499 54.6858C165.579 54.3424 165.637 54.1569 165.648 54.1602Z" fill="#263238"/>
<path d="M173.545 66.2425C173.527 66.2972 172.859 66.0776 172.008 66.0159C171.156 65.9468 170.464 66.0625 170.454 66.0052C170.441 65.9586 171.139 65.7531 172.022 65.8237C172.905 65.8888 173.566 66.1985 173.545 66.2425Z" fill="#263238"/>
<path d="M134.555 56.2486C134.603 56.2704 134.38 56.8877 134.057 57.6273C133.734 58.3672 133.434 58.9493 133.386 58.9275C133.339 58.9057 133.562 58.2889 133.885 57.5489C134.208 56.809 134.508 56.2268 134.555 56.2486Z" fill="#263238"/>
<path d="M143.426 52.6948C143.478 52.6937 143.56 54.7868 143.608 57.3692C143.657 59.9524 143.654 62.0469 143.602 62.0477C143.55 62.0488 143.468 59.9561 143.42 57.3729C143.371 54.7905 143.374 52.6959 143.426 52.6948Z" fill="#263238"/>
<path d="M147.641 61.4853C147.628 61.4857 147.613 61.2939 147.596 60.9461C147.583 60.562 147.565 60.0671 147.544 59.4724C147.508 58.228 147.47 56.5079 147.441 54.6081C147.412 52.7076 147.396 50.9871 147.394 49.7423C147.396 49.1476 147.399 48.6519 147.401 48.2679C147.407 47.9197 147.416 47.7275 147.429 47.7275C147.442 47.7275 147.457 47.9201 147.474 48.2683C147.488 48.6523 147.505 49.1476 147.527 49.7423C147.563 50.9867 147.6 52.7061 147.629 54.6055C147.659 56.5042 147.675 58.2239 147.677 59.4688C147.674 60.0638 147.671 60.5595 147.67 60.9438C147.664 61.292 147.654 61.4849 147.641 61.4853Z" fill="#263238"/>
<path d="M174.426 71.0008C174.429 71.0056 174.362 71.0592 174.231 71.1576C174.086 71.2636 173.894 71.4052 173.651 71.5826C173.128 71.9574 172.391 72.4844 171.478 73.1386C169.607 74.4589 167.012 76.2891 164.055 78.3759L163.974 78.4328L163.923 78.3467C163.398 77.4563 162.853 76.5342 162.296 75.5898C161.6 74.4075 160.924 73.2595 160.291 72.1832L160.243 72.1026L160.322 72.055C163.26 70.2779 165.814 68.7326 167.651 67.6216C168.555 67.0834 169.281 66.651 169.798 66.3435C170.04 66.2037 170.232 66.0921 170.377 66.0082C170.51 65.9336 170.58 65.897 170.583 65.9018C170.586 65.9066 170.521 65.9528 170.394 66.0367C170.252 66.1276 170.065 66.2477 169.83 66.3985C169.32 66.7175 168.603 67.1658 167.711 67.7236C165.883 68.8494 163.34 70.4146 160.416 72.215L160.447 72.0867C161.082 73.1623 161.76 74.3088 162.458 75.4904C163.014 76.4355 163.557 77.358 164.082 78.2495L163.951 78.2203C166.923 76.1553 169.53 74.3439 171.41 73.0374C172.337 72.4028 173.084 71.8912 173.615 71.5279C173.865 71.3612 174.063 71.2289 174.212 71.1291C174.349 71.0404 174.422 70.9964 174.426 71.0008Z" fill="#263238"/>
<g opacity="0.3">
<path d="M156.647 65.6624C156.471 64.0834 156.73 62.4882 157.066 60.9362C158 56.6222 159.543 52.4464 161.633 48.5782C161.174 48.2614 160.523 48.4018 160.093 48.7585C159.662 49.1148 159.405 49.64 159.172 50.153C157.591 53.6317 156.549 57.3832 156.188 61.2009C156.104 62.0901 156.061 62.6619 156.133 63.4351C156.205 64.2083 156.206 65.0222 156.677 65.6324" fill="black"/>
</g>
<g opacity="0.3">
<path d="M143.413 53.4702C142.289 55.4687 142.438 57.8704 143.513 59.8965C143.513 57.6678 143.513 55.7363 143.383 53.5009" fill="black"/>
</g>
<path d="M152.163 38.6643C152.134 38.5345 152.073 38.4004 151.956 38.3427C151.883 38.3072 151.8 38.3058 151.719 38.3069C151.249 38.3139 150.78 38.3823 150.327 38.5102L150.301 38.5833C150.33 38.7888 150.359 38.9962 150.426 39.1924C150.492 39.3887 150.599 39.5761 150.758 39.7051C151.054 39.9453 151.51 39.9339 151.812 39.7003C152.113 39.4667 152.247 39.0409 152.163 38.6643Z" fill="#EB996E"/>
<path d="M150.767 39.7935C150.774 39.761 151.006 39.8612 151.353 39.7584C151.522 39.7055 151.713 39.5961 151.84 39.4032C151.968 39.2136 152.035 38.9438 151.97 38.6877C151.94 38.5605 151.875 38.4474 151.789 38.402C151.705 38.355 151.584 38.3709 151.465 38.3957C151.242 38.4385 151.025 38.4803 150.812 38.5213C150.438 38.5875 150.205 38.6152 150.199 38.5893C150.194 38.5635 150.417 38.4884 150.783 38.3886C150.993 38.3347 151.208 38.2796 151.429 38.2227C151.549 38.1961 151.708 38.1536 151.874 38.2345C152.034 38.3203 152.114 38.4855 152.153 38.6403C152.233 38.9604 152.144 39.2842 151.981 39.5071C151.817 39.7355 151.58 39.8497 151.386 39.8907C150.981 39.9683 150.753 39.8072 150.767 39.7935Z" fill="#263238"/>
<path d="M158.663 40.1646C158.566 39.9025 158.25 39.6808 157.984 39.7458L157.991 39.7469C157.833 39.7617 157.678 39.86 157.591 39.9994C157.444 40.2356 157.471 40.5719 157.658 40.7774C157.844 40.9829 158.174 41.035 158.41 40.8927C158.646 40.7508 158.76 40.4263 158.663 40.1646Z" fill="#FAFAFA"/>
<path d="M160.527 72.5029L156.344 68.7134L152.81 69.0246C152.81 69.0246 152.932 69.616 153.419 69.7095C153.907 69.803 155.674 69.834 155.674 69.834L156.502 70.6745L154.394 70.4575L151.713 72.0753C151.713 72.0753 151.652 72.5732 152.353 72.449C153.054 72.3244 154.394 71.7641 154.394 71.7641L155.953 71.8576L154.251 72.1067L152.048 73.6942C152.048 73.6942 152.505 74.2234 153.206 74.0054C153.907 73.7877 154.76 73.4451 154.76 73.4451L156.679 73.2584L154.76 73.7566L153.328 75.5618C153.328 75.5618 153.774 75.904 154.251 75.5618C154.729 75.2195 155.064 74.9079 155.064 74.9079L157.197 74.8144C157.197 74.8144 159.553 76.5575 160.37 76.7441C161.188 76.9308 162.898 76.423 162.898 76.423L160.527 72.5029Z" fill="#FFBE9D"/>
<path d="M243.49 90.3271H178.626V127.381H243.49V90.3271Z" fill="#FAFAFA"/>
<path d="M243.49 127.381C243.49 127.381 243.485 127.153 243.482 126.715C243.481 126.276 243.478 125.628 243.474 124.78C243.47 123.08 243.464 120.582 243.456 117.372C243.447 110.958 243.434 101.704 243.418 90.3263L243.49 90.3999C226.188 90.4058 203.453 90.4139 178.631 90.4224H178.627L178.721 90.3263C178.719 103.43 178.716 115.962 178.715 127.381L178.627 127.291C197.61 127.309 213.815 127.324 225.277 127.334C231.012 127.345 235.561 127.353 238.679 127.359C240.237 127.364 241.437 127.367 242.251 127.37C242.655 127.372 242.963 127.374 243.174 127.375C243.381 127.377 243.49 127.381 243.49 127.381C243.49 127.381 243.389 127.385 243.184 127.387C242.976 127.388 242.672 127.389 242.271 127.392C241.461 127.395 240.268 127.398 238.717 127.403C235.604 127.409 231.062 127.417 225.335 127.428C213.859 127.438 197.634 127.453 178.626 127.471H178.538V127.381C178.537 115.962 178.534 103.43 178.532 90.327V90.231H178.626H178.631C203.453 90.2395 226.187 90.2476 243.49 90.2535H243.562V90.327C243.546 101.723 243.533 110.994 243.524 117.419C243.516 120.621 243.509 123.114 243.505 124.809C243.502 125.651 243.499 126.295 243.498 126.731C243.495 127.163 243.49 127.381 243.49 127.381Z" fill="#263238"/>
<path d="M195.723 99.1587H186.553V108.527H195.723V99.1587Z" fill="#455A64"/>
<path d="M208.317 100.475C208.317 100.528 206.176 100.571 203.537 100.571C200.896 100.571 198.757 100.528 198.757 100.475C198.757 100.422 200.897 100.379 203.537 100.379C206.176 100.379 208.317 100.422 208.317 100.475Z" fill="#FF725E"/>
<path d="M238.853 103.843C238.853 103.896 229.877 103.939 218.806 103.939C207.732 103.939 198.757 103.896 198.757 103.843C198.757 103.789 207.732 103.747 218.806 103.747C229.877 103.747 238.853 103.789 238.853 103.843Z" fill="#263238"/>
<path d="M225.366 107.621C225.366 107.674 219.468 107.717 212.193 107.717C204.916 107.717 199.02 107.673 199.02 107.621C199.02 107.567 204.917 107.524 212.193 107.524C219.468 107.524 225.366 107.567 225.366 107.621Z" fill="#263238"/>
<path d="M233.887 122.47H189.579C187.232 122.47 185.329 120.526 185.329 118.128C185.329 115.73 187.232 113.786 189.579 113.786H233.887C236.234 113.786 238.137 115.73 238.137 118.128C238.137 120.526 236.234 122.47 233.887 122.47Z" fill="#FF725E"/>
<path d="M203.589 118.737H202.502L202.295 119.25H201.739L202.783 116.857H203.318L204.365 119.25H203.797L203.589 118.737ZM203.418 118.317L203.047 117.401L202.676 118.317H203.418Z" fill="white"/>
<path d="M206.64 117.726C206.64 118.259 206.249 118.591 205.623 118.591H205.151V119.25H204.609V116.858H205.623C206.249 116.858 206.64 117.189 206.64 117.726ZM206.092 117.726C206.092 117.463 205.924 117.309 205.593 117.309H205.152V118.14H205.593C205.924 118.14 206.092 117.986 206.092 117.726Z" fill="white"/>
<path d="M209.057 117.726C209.057 118.259 208.666 118.591 208.04 118.591H207.568V119.25H207.026V116.858H208.04C208.666 116.858 209.057 117.189 209.057 117.726ZM208.509 117.726C208.509 117.463 208.341 117.309 208.01 117.309H207.568V118.14H208.01C208.341 118.14 208.509 117.986 208.509 117.726Z" fill="white"/>
<path d="M209.441 116.857H209.983V118.799H211.157V119.25H209.441V116.857Z" fill="white"/>
<path d="M212.345 118.402V119.25H211.803V118.396L210.896 116.858H211.472L212.098 117.921L212.723 116.858H213.255L212.345 118.402Z" fill="white"/>
<path d="M216.58 116.857V119.25H216.135L214.968 117.797V119.25H214.433V116.857H214.881L216.045 118.31V116.857H216.58Z" fill="white"/>
<path d="M216.99 118.054C216.99 117.343 217.532 116.816 218.272 116.816C219.007 116.816 219.553 117.339 219.553 118.054C219.553 118.768 219.007 119.291 218.272 119.291C217.532 119.291 216.99 118.765 216.99 118.054ZM219.004 118.054C219.004 117.6 218.689 117.288 218.272 117.288C217.853 117.288 217.539 117.6 217.539 118.054C217.539 118.508 217.853 118.819 218.272 118.819C218.689 118.819 219.004 118.508 219.004 118.054Z" fill="white"/>
<path d="M223.424 116.857L222.658 119.25H222.076L221.561 117.63L221.029 119.25H220.45L219.681 116.857H220.243L220.771 118.539L221.323 116.857H221.825L222.36 118.552L222.905 116.857H223.424Z" fill="white"/>
<path d="M57.294 64.583H9.28418V92.0095H57.294V64.583Z" fill="#FAFAFA"/>
<path d="M57.2927 92.0085C57.2927 92.0085 57.2877 91.8381 57.2851 91.514C57.2833 91.1862 57.2808 90.7068 57.2772 90.0796C57.2728 88.8192 57.2667 86.9701 57.2591 84.595C57.25 79.8471 57.237 72.9998 57.2207 64.5821L57.2927 64.6556C44.485 64.6615 27.6583 64.6697 9.28652 64.6782H9.2829L9.37696 64.5821C9.37479 74.2805 9.37262 83.5564 9.37081 92.0085L9.2829 91.9187C23.3301 91.9364 35.3206 91.9516 43.8045 91.9623C48.0495 91.9727 51.4165 91.9812 53.7268 91.9867C54.8797 91.9915 55.7679 91.9952 56.3731 91.9978C56.6719 92 56.8995 92.0019 57.0572 92.0033C57.2117 92.0048 57.2927 92.0085 57.2927 92.0085C57.2927 92.0085 57.2186 92.0122 57.0677 92.0141C56.9121 92.0152 56.6878 92.017 56.3934 92.0196C55.7925 92.0222 54.9101 92.0259 53.7647 92.0307C51.4592 92.0362 48.0991 92.0447 43.8624 92.0551C35.364 92.0658 23.3532 92.081 9.28254 92.0987H9.19463V92.0089C9.19282 83.5568 9.19065 74.2808 9.18848 64.5824V64.4863H9.2829H9.28652C27.6583 64.4948 44.485 64.503 57.2927 64.5089H57.3651V64.5824C57.3488 73.019 57.3358 79.8818 57.3267 84.6405C57.3188 87.0085 57.3126 88.8521 57.3086 90.1088C57.305 90.7297 57.3025 91.205 57.3007 91.5295C57.2978 91.8485 57.2927 92.0085 57.2927 92.0085Z" fill="#263238"/>
<path d="M21.9356 71.1201H15.1484V78.0543H21.9356V71.1201Z" fill="#455A64"/>
<path d="M31.2595 72.0937C31.2595 72.1469 29.6753 72.1898 27.7217 72.1898C25.7674 72.1898 24.1836 72.1465 24.1836 72.0937C24.1836 72.0408 25.7674 71.9976 27.7217 71.9976C29.6753 71.9972 31.2595 72.0404 31.2595 72.0937Z" fill="#FF725E"/>
<path d="M53.8618 74.5863C53.8618 74.6396 47.2175 74.6824 39.0234 74.6824C30.8264 74.6824 24.1836 74.6392 24.1836 74.5863C24.1836 74.5331 30.8264 74.4902 39.0234 74.4902C47.2175 74.4902 53.8618 74.5331 53.8618 74.5863Z" fill="#263238"/>
<path d="M43.8749 77.3832C43.8749 77.4364 39.5091 77.4797 34.1248 77.4797C28.7388 77.4797 24.374 77.4364 24.374 77.3832C24.374 77.33 28.7388 77.2871 34.1248 77.2871C39.5091 77.2871 43.8749 77.33 43.8749 77.3832Z" fill="#263238"/>
<path d="M50.1859 88.3737H17.3907C15.6535 88.3737 14.2451 86.9348 14.2451 85.16C14.2451 83.3852 15.6535 81.9463 17.3907 81.9463H50.1859C51.9231 81.9463 53.3315 83.3852 53.3315 85.16C53.3315 86.9348 51.9231 88.3737 50.1859 88.3737Z" fill="#FF725E"/>
<path d="M27.7584 85.6108H26.9528L26.799 85.9904H26.3877L27.1608 84.2178H27.5573L28.3333 85.9904H27.9122L27.7584 85.6108ZM27.6322 85.2992L27.3572 84.6206L27.0819 85.2992H27.6322Z" fill="white"/>
<path d="M30.0193 84.8608C30.0193 85.2555 29.7291 85.5013 29.2657 85.5013H28.9162V85.9899H28.5146V84.2173H29.2657C29.7291 84.2177 30.0193 84.4634 30.0193 84.8608ZM29.6126 84.8608C29.6126 84.666 29.4889 84.5518 29.2433 84.5518H28.9162V85.1672H29.2433C29.4889 85.1675 29.6126 85.0533 29.6126 84.8608Z" fill="white"/>
<path d="M31.8064 84.8608C31.8064 85.2555 31.5162 85.5013 31.0528 85.5013H30.7033V85.9899H30.3018V84.2173H31.0528C31.5166 84.2177 31.8064 84.4634 31.8064 84.8608ZM31.3997 84.8608C31.3997 84.666 31.276 84.5518 31.0304 84.5518H30.7033V85.1672H31.0304C31.276 85.1675 31.3997 85.0533 31.3997 84.8608Z" fill="white"/>
<path d="M32.0889 84.2178H32.4904V85.6563H33.3605V85.9904H32.0889V84.2178Z" fill="white"/>
<path d="M34.24 85.3624V85.9904H33.8384V85.3573L33.167 84.2178H33.5932L34.0566 85.0054L34.52 84.2178H34.914L34.24 85.3624Z" fill="white"/>
<path d="M37.3746 84.2178V85.9904H37.0447L36.1797 84.9141V85.9904H35.7832V84.2178H36.1153L36.9778 85.2941V84.2178H37.3746Z" fill="white"/>
<path d="M37.6738 85.1036C37.6738 84.5766 38.0754 84.187 38.6231 84.187C39.1683 84.187 39.5724 84.5744 39.5724 85.1036C39.5724 85.6329 39.1683 86.0199 38.6231 86.0199C38.0754 86.0199 37.6738 85.6299 37.6738 85.1036ZM39.1661 85.1036C39.1661 84.7666 38.9332 84.5363 38.6235 84.5363C38.3138 84.5363 38.0808 84.7666 38.0808 85.1036C38.0808 85.4403 38.3138 85.6706 38.6235 85.6706C38.9332 85.6706 39.1661 85.4403 39.1661 85.1036Z" fill="white"/>
<path d="M42.4384 84.2178L41.8708 85.9904H41.4395L41.0579 84.7903L40.6639 85.9904H40.2352L39.665 84.2178H40.0814L40.4732 85.4637L40.882 84.2178H41.2539L41.6504 85.4737L42.0545 84.2178H42.4384Z" fill="white"/>
<path d="M232.017 16.6689H179.345V46.7588H232.017V16.6689Z" fill="#FAFAFA"/>
<path d="M232.015 46.7582C232.015 46.7582 232.01 46.5719 232.008 46.2164C232.006 45.8578 232.003 45.3315 232 44.6433C231.996 43.2617 231.99 41.233 231.982 38.6269C231.973 33.4181 231.96 25.9048 231.943 16.6684L232.015 16.7419C217.964 16.7478 199.503 16.756 179.347 16.7645H179.343L179.438 16.6684C179.435 27.3085 179.433 37.4856 179.431 46.7582L179.343 46.6684C194.756 46.6861 207.912 46.7013 217.22 46.712C221.878 46.7223 225.571 46.7308 228.105 46.7364C229.37 46.7412 230.345 46.7449 231.008 46.7475C231.335 46.7497 231.586 46.7515 231.758 46.753C231.927 46.7545 232.015 46.7582 232.015 46.7582C232.015 46.7582 231.934 46.7619 231.768 46.7637C231.598 46.7649 231.351 46.7667 231.028 46.7693C230.369 46.7719 229.401 46.7756 228.143 46.7804C225.614 46.7859 221.927 46.7944 217.278 46.8048C207.956 46.8155 194.78 46.8306 179.343 46.8484H179.255V46.7586C179.253 37.4859 179.251 27.3089 179.249 16.6687V16.5723H179.343H179.347C199.503 16.5811 217.964 16.5889 232.015 16.5948H232.087V16.6684C232.071 25.924 232.058 33.4525 232.049 38.672C232.041 41.2711 232.035 43.2943 232.031 44.6721C232.027 45.3544 232.025 45.876 232.023 46.2315C232.02 46.5823 232.015 46.7582 232.015 46.7582Z" fill="#263238"/>
<path d="M193.226 23.8408H185.779V31.4484H193.226V23.8408Z" fill="#455A64"/>
<path d="M203.452 24.9096C203.452 24.9628 201.714 25.0057 199.57 25.0057C197.426 25.0057 195.688 24.9624 195.688 24.9096C195.688 24.8564 197.426 24.8135 199.57 24.8135C201.714 24.8135 203.452 24.8564 203.452 24.9096Z" fill="#FF725E"/>
<path d="M228.249 27.6449C228.249 27.6982 220.96 27.741 211.97 27.741C202.977 27.741 195.688 27.6982 195.688 27.6449C195.688 27.5917 202.976 27.5488 211.97 27.5488C220.959 27.5485 228.249 27.5917 228.249 27.6449Z" fill="#263238"/>
<path d="M217.299 30.7138C217.299 30.767 212.509 30.8099 206.602 30.8099C200.693 30.8099 195.904 30.7666 195.904 30.7138C195.904 30.6605 200.693 30.6177 206.602 30.6177C212.509 30.6177 217.299 30.6605 217.299 30.7138Z" fill="#263238"/>
<path d="M224.216 42.7708H188.236C186.33 42.7708 184.785 41.1922 184.785 39.2448C184.785 37.2973 186.33 35.7188 188.236 35.7188H224.216C226.122 35.7188 227.668 37.2973 227.668 39.2448C227.668 41.1922 226.122 42.7708 224.216 42.7708Z" fill="#FF725E"/>
<path d="M199.612 39.7395H198.73L198.561 40.1556H198.11L198.958 38.2134H199.392L200.243 40.1556H199.781L199.612 39.7395ZM199.474 39.398L199.173 38.6543L198.871 39.398H199.474Z" fill="white"/>
<path d="M202.09 38.9177C202.09 39.3505 201.772 39.6196 201.264 39.6196H200.881V40.1552H200.441V38.2129H201.264C201.772 38.2133 202.09 38.4823 202.09 38.9177ZM201.645 38.9177C201.645 38.7041 201.509 38.5792 201.24 38.5792H200.881V39.2533H201.24C201.509 39.2537 201.645 39.1288 201.645 38.9177Z" fill="white"/>
<path d="M204.053 38.9182C204.053 39.351 203.735 39.6201 203.227 39.6201H202.844V40.1557H202.404V38.2134H203.227C203.735 38.2137 204.053 38.4828 204.053 38.9182ZM203.608 38.9182C203.608 38.7046 203.472 38.5797 203.203 38.5797H202.844V39.2538H203.203C203.472 39.2542 203.608 39.1293 203.608 38.9182Z" fill="white"/>
<path d="M204.367 38.2134H204.807V39.7894H205.761V40.1556H204.367V38.2134Z" fill="white"/>
<path d="M206.725 39.4674V40.1556H206.285V39.4619L205.549 38.2134H206.016L206.524 39.0764L207.032 38.2134H207.463L206.725 39.4674Z" fill="white"/>
<path d="M210.162 38.2139V40.1561H209.801L208.853 38.9771V40.1561H208.419V38.2139H208.783L209.728 39.3929V38.2139H210.162Z" fill="white"/>
<path d="M210.495 39.1848C210.495 38.6078 210.935 38.1802 211.535 38.1802C212.132 38.1802 212.575 38.6045 212.575 39.1848C212.575 39.7647 212.132 40.189 211.535 40.189C210.935 40.189 210.495 39.7621 210.495 39.1848ZM212.13 39.1848C212.13 38.8159 211.875 38.5631 211.535 38.5631C211.196 38.5631 210.94 38.8155 210.94 39.1848C210.94 39.554 211.196 39.8064 211.535 39.8064C211.875 39.8064 212.13 39.554 212.13 39.1848Z" fill="white"/>
<path d="M215.718 38.2134L215.096 40.1556H214.623L214.205 38.8402L213.773 40.1556H213.303L212.679 38.2134H213.135L213.564 39.5783L214.012 38.2134H214.42L214.854 39.5898L215.297 38.2134H215.718Z" fill="white"/>
</svg>
