<svg width="56" height="47" viewBox="0 0 56 47" fill="none" xmlns="http://www.w3.org/2000/svg">
<path d="M23.3672 0.0394105C34.2472 0.708946 43.1185 9.4687 43.9554 20.2929C44.2344 23.6405 43.7323 26.8208 42.6164 29.7222L47.5821 34.8553C48.419 34.6879 49.3117 34.9668 49.9813 35.6364L55.1702 40.9927C56.1745 42.0528 56.1745 43.7266 55.1144 44.7309L54.1101 45.6794C53.05 46.6837 51.3761 46.6837 50.3718 45.6236L45.1829 40.2673C44.5134 39.5978 44.346 38.7051 44.5134 37.8682L37.5391 30.5033C39.0455 27.7693 39.8266 24.6448 39.715 21.2972C39.3245 12.091 31.7364 4.55878 22.5303 4.3356C11.9851 4.00083 3.50432 12.8722 4.34124 23.4732C5.01078 32.1213 12.0967 39.0956 20.8007 39.7094C26.1569 40.0442 31.0111 38.0356 34.4703 34.6321C34.9167 34.2415 35.3073 34.5763 35.3073 34.5763L37.4833 36.8639C37.4833 36.8639 37.818 37.1986 37.4833 37.645C33.2429 41.8296 27.2728 44.3403 20.7449 44.0056C9.75332 43.3918 0.714593 34.4647 0.0450579 23.4732C-0.791862 10.194 10.1439 -0.741714 23.3672 0.0394105Z" fill="#1C3968"/>
<path d="M24.428 15.1598H26.4366C26.325 13.3186 24.8185 11.8679 22.9773 11.8679H20.6897C18.8485 11.8679 17.3979 13.3186 17.2305 15.1598H19.2391C19.3507 14.4345 19.9644 13.8765 20.6897 13.8765H22.9773C23.7026 13.8765 24.3164 14.4345 24.428 15.1598Z" fill="#FF9130"/>
<path d="M17.2299 16.1641H13.9938C13.3801 16.1641 12.7106 16.722 12.32 17.1126C12.1526 17.28 12.041 17.5589 12.041 17.7821C12.2084 19.2328 13.1569 20.5718 14.775 21.6319C15.835 22.3015 17.1183 22.8594 18.5132 23.1942C19.5733 23.4174 20.6892 23.5847 21.8609 23.5847C22.4746 23.5847 23.0884 23.529 23.7021 23.4732C25.6549 23.25 27.4961 22.6362 28.891 21.6877C30.509 20.6276 31.4575 19.2886 31.6249 17.8379C31.6249 17.6147 31.6249 17.4473 31.346 17.1684C30.9554 16.7778 30.2859 16.2199 29.6721 16.2199H26.436H24.4274H19.2385H17.2299V16.1641Z" fill="#FF491D"/>
<path d="M11.7622 21.074C11.6507 20.9066 11.5391 20.9066 11.5391 21.1298V26.7092C11.5391 27.6577 12.0412 28.4946 12.7665 28.941C13.1013 29.1642 13.5477 29.2758 13.994 29.2758H18.067H29.6723C31.0114 29.2758 32.1273 28.1041 32.1273 26.7092V21.1298C32.1273 20.9066 32.0157 20.8508 31.9041 21.074C31.3462 21.7993 30.6208 22.413 29.7839 23.0268C27.7195 24.3658 25.0414 25.147 22.1958 25.2028C22.0842 25.2028 21.9727 25.2028 21.8611 25.2028C20.243 25.2028 18.6808 24.9796 17.2301 24.5332C16.0026 24.1985 14.8867 23.6405 13.9382 23.0268C13.0455 22.413 12.3202 21.7435 11.7622 21.074Z" fill="#FF491D"/>
</svg>
