<svg width="395" height="360" viewBox="0 0 395 360" fill="none" xmlns="http://www.w3.org/2000/svg">
<g clip-path="url(#clip0_2396_1986)">
<path d="M374.801 301.513H343.586V301.805H374.801V301.513Z" fill="#E0E0E0"/>
<path d="M262.86 304.234H254.656V304.525H262.86V304.234Z" fill="#EBEBEB"/>
<path d="M342.642 292.575H324.535V292.866H342.642V292.575Z" fill="#E0E0E0"/>
<path d="M40.7712 294.129H0.03125V294.421H40.7712V294.129Z" fill="#E0E0E0"/>
<path d="M55.1054 294.129H49.1641V294.421H55.1054V294.129Z" fill="#E0E0E0"/>
<path d="M162.897 298.307H74.5332V298.598H162.897V298.307Z" fill="#E0E0E0"/>
<path d="M51.9983 203.271C51.5268 203.271 51.0553 202.883 50.9609 202.397L50.3008 194.139L58.3168 193.459C58.7883 193.459 59.2598 193.847 59.3541 194.333C59.3541 194.819 58.9769 195.305 58.5054 195.402L52.2812 195.985L52.8471 202.397C52.9414 202.689 52.5641 203.174 51.9983 203.271Z" fill="#E0E0E0"/>
<path d="M90.2866 199.774C89.8151 199.774 89.3436 199.386 89.2493 198.9L88.6835 192.488L82.4593 193.071C81.9878 193.071 81.5162 192.682 81.4219 192.196C81.4219 191.71 81.7992 191.225 82.2707 191.127L90.2866 190.447L90.9468 198.706C91.1354 199.289 90.7582 199.774 90.2866 199.774Z" fill="#E0E0E0"/>
<path d="M97.2193 235.43L89.2033 236.11C88.7318 236.11 88.2603 235.722 88.166 235.236C88.166 234.75 88.5432 234.264 89.0147 234.167L95.2389 233.584L94.6731 227.172C94.6731 226.686 95.0503 226.2 95.5218 226.103C95.9933 226.103 96.4649 226.492 96.5592 226.978L97.2193 235.43Z" fill="#E0E0E0"/>
<path d="M60.0609 238.232L52.045 238.912L51.3848 230.654C51.3848 230.168 51.7621 229.682 52.2336 229.585C52.7051 229.585 53.1766 229.974 53.271 230.46L53.8368 236.872L60.0609 236.289C60.5325 236.289 61.004 236.678 61.0983 237.163C60.9097 237.746 60.5325 238.232 60.0609 238.232Z" fill="#E0E0E0"/>
<path d="M94.4718 232.442C93.7096 223.018 84.2767 219.521 73.1289 220.492C61.981 221.464 53.3104 226.613 54.1679 236.037L94.4718 232.442Z" fill="#DBE3ED"/>
<path d="M72.8435 216.217C77.9886 215.731 79.7037 211.262 79.2273 206.016C78.7509 200.769 76.3689 196.689 71.2237 197.077C66.0785 197.563 64.3634 202.032 64.8398 207.279C65.221 212.622 67.603 216.703 72.8435 216.217Z" fill="#DBE3ED"/>
<path d="M311.376 9.83923C311.658 12.7539 309.489 15.2799 306.755 15.5714C303.925 15.8629 301.473 13.6283 301.191 10.8108C300.908 7.89612 303.077 5.37007 305.811 5.0786C308.641 4.78714 311.093 6.92456 311.376 9.83923Z" fill="#DBE3ED"/>
<path d="M339.76 7.31298C340.043 10.2277 337.874 12.7537 335.14 13.0452C332.31 13.3367 329.858 11.1021 329.575 8.28454C329.293 5.36987 331.462 2.84382 334.196 2.55236C337.026 2.26089 339.478 4.39831 339.76 7.31298Z" fill="#DBE3ED"/>
<path d="M368.054 4.78722C368.337 7.70189 366.168 10.2279 363.433 10.5194C360.698 10.8109 358.152 8.57629 357.869 5.75878C357.586 2.84411 359.755 0.318067 362.49 0.0266003C365.319 -0.264867 367.866 1.87255 368.054 4.78722Z" fill="#DBE3ED"/>
<path d="M313.923 39.6657C314.206 42.5804 312.037 45.1064 309.302 45.3979C306.473 45.6894 304.021 43.4548 303.738 40.6373C303.455 37.7226 305.624 35.1966 308.359 34.9051C311.188 34.6136 313.64 36.7511 313.923 39.6657Z" fill="#DBE3ED"/>
<path d="M342.308 37.0429C342.591 39.9576 340.422 42.4836 337.687 42.7751C334.858 43.0666 332.406 40.832 332.123 38.0145C331.84 35.0998 334.009 32.5738 336.744 32.2823C339.573 31.9908 342.025 34.1283 342.308 37.0429Z" fill="#DBE3ED"/>
<path d="M370.6 34.5167C370.883 37.4313 368.714 39.9574 365.979 40.2488C363.15 40.5403 360.698 38.3057 360.415 35.4882C360.132 32.6707 362.301 30.0475 365.036 29.756C367.865 29.4646 370.411 31.602 370.6 34.5167Z" fill="#DBE3ED"/>
<path d="M316.468 69.3954C316.751 72.3101 314.582 74.8361 311.847 75.1276C309.018 75.4191 306.566 73.1845 306.283 70.367C306 67.4523 308.169 64.9263 310.904 64.6348C313.733 64.3433 316.185 66.4808 316.468 69.3954Z" fill="#DBE3ED"/>
<path d="M344.761 66.869C345.044 69.7837 342.875 72.3097 340.14 72.6012C337.311 72.8927 334.859 70.6581 334.576 67.8406C334.293 64.9259 336.462 62.3999 339.197 62.1084C342.026 61.8169 344.572 63.9543 344.761 66.869Z" fill="#DBE3ED"/>
<path d="M373.145 64.3434C373.428 67.2581 371.259 69.7841 368.524 70.0756C365.695 70.3671 363.243 68.1325 362.96 65.315C362.677 62.4975 364.847 59.8743 367.581 59.5828C370.411 59.2913 372.862 61.4287 373.145 64.3434Z" fill="#DBE3ED"/>
<path d="M367.016 65.9953L308.735 71.2417L360.415 6.53603L307.509 11.3938C306.849 11.491 306.378 11.0052 306.283 10.3251C306.189 9.64501 306.66 9.15923 307.321 9.06208L365.601 3.81567L313.922 68.5213L366.827 63.7607C367.487 63.6635 367.959 64.1493 368.053 64.8294C368.148 65.4123 367.676 65.9953 367.016 65.9953Z" fill="#DBE3ED"/>
<path d="M358.869 204.17C358.681 203.587 358.209 203.199 357.549 203.101C354.909 202.907 352.645 201.838 350.853 199.993C348.496 197.564 347.175 193.872 346.893 189.597C346.893 188.82 346.232 188.14 345.384 188.14C344.535 188.14 343.781 188.917 343.875 189.791C344.158 194.94 345.855 199.312 348.684 202.227C350.948 204.559 353.777 205.919 357.078 206.21C357.172 206.21 357.172 206.21 357.266 206.21C358.398 206.308 359.152 205.142 358.869 204.17Z" fill="#DBE3ED"/>
<path d="M355.852 222.727C343.309 221.561 334.35 212.817 331.521 199.118C331.332 198.243 331.898 197.369 332.747 197.272C333.501 197.175 334.35 197.661 334.445 198.438C336.991 210.777 345.007 218.646 356.135 219.618C368.3 220.686 381.409 212.428 383.766 191.637C383.861 190.762 384.615 190.18 385.369 190.277C386.218 190.374 386.878 191.151 386.784 192.025C384.426 211.651 371.884 224.184 355.852 222.727Z" fill="#DBE3ED"/>
<path d="M332.275 185.516C331.427 185.419 330.766 184.642 330.861 183.767C333.124 164.142 345.667 151.609 361.699 152.969C375.844 154.232 385.275 165.113 386.784 181.533C386.878 182.407 386.218 183.184 385.369 183.184C384.52 183.282 383.86 182.601 383.766 181.727C382.446 166.959 373.958 157.147 361.416 156.078C349.25 155.009 336.142 163.267 333.784 184.059C333.784 184.933 333.03 185.613 332.275 185.516Z" fill="#DBE3ED"/>
<path d="M356.418 214.469C354.06 214.275 351.891 213.692 349.911 212.817C349.062 212.429 348.779 211.457 349.156 210.68C349.533 210 350.382 209.708 351.042 210C352.928 210.874 355.003 211.36 357.266 211.457C366.508 212.04 376.222 205.239 377.259 189.014C377.825 179.007 374.524 170.846 368.3 166.96C367.64 166.571 367.357 165.697 367.734 164.919C368.112 164.142 369.149 163.754 369.903 164.239C377.071 168.709 380.937 177.841 380.277 189.111C379.334 204.85 369.809 215.246 357.172 214.469C356.889 214.469 356.701 214.469 356.418 214.469Z" fill="#DBE3ED"/>
<path d="M343.027 204.753C342.273 205.239 341.33 205.044 340.858 204.267C338.218 199.506 336.897 193.386 337.275 186.779C338.123 171.72 346.894 161.519 358.776 161.324C359.625 161.324 360.379 162.102 360.285 162.976C360.285 163.753 359.625 164.433 358.776 164.433C350.006 164.628 341.141 171.428 340.198 186.973C339.821 192.997 340.953 198.535 343.31 202.81C343.876 203.393 343.687 204.267 343.027 204.753Z" fill="#DBE3ED"/>
<path d="M363.585 203.491C363.302 202.811 363.585 201.936 364.245 201.548C368.206 199.119 370.658 193.969 370.658 187.654C370.658 182.699 369.243 178.425 366.697 175.801C364.717 173.761 362.17 172.692 359.058 172.692C354.437 172.692 350.665 175.316 348.59 179.979C348.307 180.659 347.459 181.048 346.704 180.756C345.855 180.465 345.478 179.493 345.855 178.619C348.402 172.984 353.306 169.583 359.058 169.583C362.925 169.583 366.32 170.944 368.866 173.567C371.978 176.87 373.77 181.825 373.676 187.654C373.581 195.038 370.658 201.159 365.754 204.171C364.999 204.657 363.962 204.365 363.585 203.491Z" fill="#DBE3ED"/>
<path d="M352.741 192.026C351.892 192.414 350.949 191.831 350.666 190.957C350.572 190.568 350.478 190.082 350.383 189.694C349.535 183.865 352.552 178.812 357.456 177.938C360.002 177.452 362.172 178.035 363.963 179.687C364.623 180.367 364.623 181.436 363.869 182.019L363.775 182.116C363.209 182.504 362.454 182.407 361.889 182.019C360.851 181.144 359.531 180.756 358.022 181.047C354.344 181.727 352.93 185.71 353.401 189.305C353.495 189.694 353.495 189.985 353.59 190.277C353.778 190.957 353.495 191.734 352.741 192.026Z" fill="#DBE3ED"/>
<path d="M357.737 198.05C356.7 197.952 356.134 196.787 356.7 195.815L356.794 195.621C357.077 195.135 357.548 194.941 358.114 194.941C358.586 194.941 359.057 194.941 359.529 194.844C362.735 194.261 364.244 191.152 364.244 187.945C364.244 187.168 364.81 186.488 365.564 186.391C366.413 186.294 367.262 186.974 367.262 187.848C367.356 192.9 364.433 197.078 360.095 197.952C359.246 198.05 358.491 198.147 357.737 198.05Z" fill="#DBE3ED"/>
<path d="M358.397 192.317C356.794 192.22 355.568 191.054 355.191 189.5C354.908 188.626 355.662 187.654 356.605 187.751H356.982C357.548 187.751 357.925 188.14 358.114 188.723C358.208 189.014 358.397 189.208 358.68 189.208C359.434 189.306 359.529 188.237 359.529 187.945C359.529 187.751 359.529 187.168 359.34 186.877C359.057 186.488 358.963 186.099 358.963 185.711C359.057 184.351 360.755 183.768 361.603 184.836C362.263 185.711 362.641 186.877 362.546 188.237C362.358 190.763 360.566 192.512 358.397 192.317Z" fill="#DBE3ED"/>
<path d="M330.013 157.535C329.164 157.438 328.598 156.661 328.598 155.884L329.73 142.379L342.838 143.545C343.687 143.642 344.253 144.419 344.253 145.196C344.159 146.071 343.404 146.654 342.65 146.654L332.559 145.779L331.71 156.175C331.616 156.952 330.861 157.632 330.013 157.535Z" fill="#DBE3ED"/>
<path d="M392.253 163.17C391.404 163.073 390.839 162.296 390.839 161.519L391.687 151.123L381.597 150.249C380.748 150.151 380.182 149.374 380.182 148.597C380.276 147.722 381.031 147.14 381.785 147.14L394.894 148.305L393.762 161.81C393.762 162.587 393.008 163.17 392.253 163.17Z" fill="#DBE3ED"/>
<path d="M387.539 235.552L374.431 234.386C373.582 234.289 373.016 233.511 373.016 232.734C373.111 231.86 373.865 231.277 374.62 231.277L384.71 232.151L385.559 221.756C385.653 220.881 386.408 220.298 387.162 220.298C388.011 220.395 388.577 221.173 388.577 221.95L387.539 235.552Z" fill="#DBE3ED"/>
<path d="M335.482 230.888L322.373 229.722L323.505 216.218C323.599 215.343 324.354 214.76 325.108 214.76C325.957 214.858 326.523 215.635 326.523 216.412L325.674 226.808L335.765 227.682C336.613 227.779 337.179 228.557 337.179 229.334C337.085 230.305 336.33 230.985 335.482 230.888Z" fill="#DBE3ED"/>
<path d="M71.7982 57.6838L41.0547 60.5013L40.3945 53.1175C39.7344 45.4422 45.2984 38.6413 52.7485 37.9612C60.1986 37.2811 66.8 43.0133 67.4602 50.6886L67.8374 54.9634L72.2697 54.5748L71.8925 50.2999C71.0438 40.0015 62.2734 32.4233 52.3713 33.2977C42.4692 34.1721 35.1134 43.2076 35.9622 53.4089L36.6223 60.8899C33.0387 61.57 30.4924 64.9704 30.7754 68.8567L32.9444 94.7001C33.3216 98.7806 36.8109 101.792 40.7717 101.501L75.1932 98.392C79.154 98.0033 82.0775 94.4086 81.7946 90.3281L79.6256 64.4847C79.2483 60.307 75.759 57.2952 71.7982 57.6838ZM58.6898 77.6007L59.4442 86.539C59.5385 87.9963 58.5011 89.2593 57.0866 89.4537C55.672 89.5508 54.446 88.4821 54.2574 87.0248L53.503 78.0864C52.3713 77.4064 51.5225 76.1433 51.4282 74.686C51.2396 72.2571 53.0314 70.0225 55.3891 69.8282C57.7467 69.6339 59.9157 71.4799 60.1043 73.9088C60.2929 75.3661 59.7271 76.7263 58.6898 77.6007Z" fill="#DBE3ED"/>
<path d="M133.429 76.0127L130.317 70.7663C128.619 70.9606 127.299 70.9606 125.602 70.7663L122.489 76.0127L121.924 75.8183C119.943 75.2354 117.963 74.4582 116.171 73.3895L115.605 73.098L116.925 67.463C117.02 66.9772 117.491 66.6857 117.963 66.7829C118.434 66.88 118.717 67.3658 118.623 67.8516L117.586 72.3207C118.906 73.098 120.32 73.6809 121.829 74.1667L124.847 69.0175L125.413 69.1146C127.205 69.4061 128.997 69.4061 130.694 69.1146L131.26 69.0175L134.278 74.1667C135.692 73.6809 137.107 73.098 138.521 72.3207L137.201 66.4914L137.673 66.1999C138.899 65.3255 140.03 64.1597 140.973 62.9938C141.256 62.6052 141.728 62.508 142.105 62.7995C142.482 63.091 142.577 63.6739 142.294 63.9654C141.351 65.1312 140.313 66.2971 139.087 67.1715L140.502 73.098L139.936 73.3895C138.144 74.4582 136.164 75.3326 134.183 75.8183L133.429 76.0127ZM114.379 64.6454C114.096 64.354 113.908 64.0625 113.625 63.6739L107.872 65.1312L107.589 64.5483C106.552 62.7023 105.703 60.6621 105.232 58.6218L105.043 58.0389L110.135 54.8327C110.041 53.9583 109.947 53.1811 109.947 52.4038C109.947 51.6266 110.041 50.8494 110.135 49.975L105.043 46.7688L105.232 46.1859C105.797 44.1456 106.552 42.1053 107.589 40.2594L107.872 39.6765L113.625 41.1338C114.568 39.8708 115.699 38.7049 117.02 37.6362L115.982 33.167C115.888 32.6813 116.171 32.2926 116.548 32.0983C117.02 32.0012 117.397 32.2926 117.586 32.6813L118.906 38.3163L118.434 38.6077C117.02 39.6765 115.699 41.0366 114.662 42.494L114.379 42.9798L108.721 41.6196C107.966 42.9798 107.401 44.4371 106.929 45.9916L111.927 49.1006L111.833 49.6835C111.644 50.655 111.644 51.6266 111.644 52.4038C111.644 53.2782 111.739 54.1526 111.833 55.1242L111.927 55.7071L106.929 58.8161C107.401 60.2734 107.966 61.7308 108.721 63.1881L114.379 61.8279L114.662 62.3137C114.945 62.7995 115.322 63.1881 115.605 63.5767C115.888 63.8682 115.888 64.4511 115.605 64.7426C115.228 65.0341 114.662 65.0341 114.379 64.6454ZM148.141 65.1312L145.971 64.6454C145.5 64.5483 145.217 64.0625 145.311 63.5767C145.406 63.091 145.877 62.7995 146.349 62.8967L147.292 63.091C148.046 61.7308 148.612 60.2734 149.084 58.719L144.085 55.61L144.18 55.027C144.368 54.0555 144.368 53.0839 144.368 52.3067C144.368 51.4323 144.274 50.5579 144.18 49.5863L144.085 49.0034L149.084 45.8944C148.612 44.4371 148.046 42.9798 147.292 41.5224L141.633 42.8826L141.351 42.3968C140.313 40.9395 138.993 39.5793 137.578 38.5106L137.107 38.2191L138.427 32.3898C137.107 31.6125 135.692 31.0296 134.183 30.5438L131.166 35.7902L130.6 35.6931C128.808 35.4016 127.016 35.4016 125.319 35.6931L124.753 35.7902L121.735 30.641C121.546 30.7381 121.358 30.7381 121.169 30.8353C120.792 30.9325 120.32 30.7381 120.132 30.3495C119.943 29.8637 120.226 29.378 120.603 29.2808C120.981 29.1837 121.452 28.9893 121.829 28.8922L122.395 28.6979L125.507 33.9443C127.205 33.75 128.525 33.75 130.223 33.9443L133.335 28.6979L133.9 28.8922C135.881 29.4751 137.861 30.2524 139.653 31.3211L140.219 31.6125L138.804 37.539C140.03 38.5106 141.162 39.6765 142.199 41.0366L148.141 39.6765L148.423 40.2594C149.461 42.1053 150.31 44.1456 150.781 46.1859L150.97 46.7688L145.877 49.975C145.972 50.8494 146.066 51.6266 146.066 52.4038C146.066 53.1811 145.972 53.9583 145.877 54.8327L150.97 58.0389L150.781 58.6218C150.215 60.6621 149.461 62.7023 148.423 64.5483L148.141 65.1312ZM127.771 60.6621C123.527 60.5649 120.038 56.9702 119.943 52.5982C119.849 48.2262 122.961 44.5342 127.11 44.0485C127.582 43.9513 128.053 44.4371 128.053 44.9229C128.053 45.3115 127.771 45.7001 127.299 45.7973C123.715 46.1859 120.981 49.7806 121.735 53.6669C122.207 56.2901 124.281 58.3303 126.733 58.8161C130.883 59.6905 134.466 56.3872 134.466 52.3067C134.466 50.9465 134.089 49.5863 133.335 48.5176C133.052 48.129 133.146 47.6432 133.429 47.4489C133.806 47.1574 134.372 47.1574 134.655 47.6432C135.598 49.0034 136.069 50.655 136.069 52.4038C136.069 57.0673 132.297 60.8564 127.771 60.6621Z" fill="#DBE3ED"/>
<path d="M83.6858 149.665L81.7054 146.265C80.5737 146.459 79.725 146.459 78.5933 146.265L76.6129 149.665L76.2357 149.568C74.9154 149.179 73.6894 148.694 72.5578 148.014L72.1806 147.819L73.0293 144.127C73.1236 143.836 73.4065 143.642 73.6894 143.739C73.9724 143.836 74.161 144.127 74.0667 144.419L73.4065 147.236C74.2553 147.722 75.1983 148.111 76.1414 148.402L78.1218 145.099L78.499 145.196C79.6307 145.39 80.7623 145.39 81.894 145.196L82.2712 145.099L84.2516 148.402C85.1947 148.111 86.1378 147.722 86.9865 147.236L86.1378 143.447L86.4207 143.253C87.1751 142.67 87.9296 141.99 88.4954 141.213C88.684 141.018 88.9669 140.921 89.2498 141.116C89.5327 141.31 89.5328 141.698 89.3441 141.893C88.7783 142.67 88.0239 143.35 87.2694 143.933L88.1182 147.819L87.7409 148.014C86.6093 148.694 85.289 149.277 84.063 149.568L83.6858 149.665ZM71.4261 142.379C71.2375 142.184 71.0489 141.99 70.9546 141.796L67.1824 142.67L66.9938 142.281C66.3336 141.116 65.7678 139.755 65.4849 138.492L65.3906 138.104L68.6913 136.063C68.597 135.481 68.597 134.995 68.597 134.509C68.597 134.023 68.597 133.537 68.6913 132.954L65.3906 130.914L65.4849 130.526C65.8621 129.165 66.3336 127.902 66.9938 126.736L67.1824 126.348L70.9546 127.222C71.6147 126.348 72.2749 125.668 73.1236 124.988L72.4635 122.073C72.3692 121.782 72.5578 121.49 72.8407 121.393C73.1236 121.296 73.4065 121.49 73.5008 121.782L74.3496 125.376L74.0667 125.571C73.1236 126.251 72.2749 127.125 71.6147 128.097L71.4261 128.388L67.7482 127.514C67.2767 128.388 66.8995 129.36 66.6165 130.331L69.8229 132.372L69.7286 132.76C69.6343 133.44 69.54 134.023 69.54 134.509C69.54 135.092 69.6343 135.675 69.7286 136.258L69.8229 136.646L66.6165 138.687C66.8995 139.658 67.2767 140.63 67.7482 141.504L71.4261 140.63L71.6147 140.921C71.8033 141.213 71.9919 141.504 72.2749 141.698C72.4635 141.893 72.4635 142.281 72.2749 142.476C71.8976 142.573 71.6147 142.573 71.4261 142.379ZM93.1164 142.67L91.7018 142.379C91.4189 142.281 91.2302 141.99 91.3246 141.698C91.4189 141.407 91.7018 141.213 91.9847 141.31L92.5505 141.504C93.022 140.63 93.3993 139.658 93.6822 138.687L90.4758 136.646L90.5701 136.258C90.6644 135.578 90.7587 134.995 90.7587 134.509C90.7587 133.926 90.6644 133.343 90.5701 132.76L90.4758 132.372L93.6822 130.331C93.3993 129.36 93.022 128.388 92.5505 127.514L88.8726 128.388L88.684 128.097C88.0239 127.125 87.1751 126.251 86.2321 125.571L85.9491 125.376L86.7979 121.587C85.9491 121.101 85.0061 120.713 84.063 120.421L82.0826 123.725L81.7054 123.628C80.5737 123.433 79.4421 123.433 78.3104 123.628L77.9332 123.725L75.9528 120.421C75.8585 120.421 75.6699 120.519 75.5755 120.519C75.2926 120.616 75.0097 120.421 74.9154 120.227C74.8211 119.936 74.9154 119.644 75.1983 119.547C75.4812 119.45 75.7642 119.353 76.0471 119.256L76.4243 119.158L78.4047 122.559C79.5364 122.364 80.3851 122.364 81.5168 122.559L83.4972 119.158L83.8744 119.256C85.1947 119.644 86.4207 120.13 87.5523 120.81L87.9296 121.004L87.0808 124.891C87.9296 125.571 88.5897 126.251 89.2498 127.125L93.022 126.251L93.2107 126.639C93.8708 127.805 94.4366 129.165 94.7195 130.428L94.8138 130.817L91.5132 132.857C91.6075 133.44 91.6075 133.926 91.6075 134.412C91.6075 134.898 91.6075 135.383 91.5132 135.966L94.8138 138.007L94.7195 138.395C94.3423 139.755 93.8708 141.018 93.2107 142.184L93.1164 142.67ZM80.0079 139.755C77.273 139.658 75.0097 137.326 74.9154 134.509C74.8211 131.691 76.8958 129.36 79.5364 128.971C79.8193 128.971 80.1022 129.165 80.1022 129.554C80.1022 129.845 79.9136 130.04 79.6307 130.137C77.273 130.428 75.5755 132.663 76.0471 135.286C76.33 136.938 77.6503 138.298 79.2535 138.589C81.894 139.075 84.2516 137.035 84.2516 134.412C84.2516 133.537 83.9687 132.663 83.4972 131.983C83.3086 131.789 83.4029 131.4 83.5915 131.303C83.8744 131.108 84.2516 131.109 84.346 131.4C84.9118 132.274 85.289 133.343 85.289 134.509C85.3833 137.424 82.9314 139.852 80.0079 139.755Z" fill="#DBE3ED"/>
<path d="M186.867 360C287.857 360 369.726 355.085 369.726 349.021C369.726 342.958 287.857 338.043 186.867 338.043C85.8781 338.043 4.00977 342.958 4.00977 349.021C4.00977 355.085 85.8781 360 186.867 360Z" fill="#E8F0FA"/>
<path d="M293.227 56.0978H262.484L240.793 311.811H271.537C280.307 311.811 288.04 304.525 288.795 295.489L307.75 72.3228C308.505 63.3845 301.998 56.0978 293.227 56.0978Z" fill="#455A64"/>
<path d="M287.002 56.0977H183.077C174.307 56.0977 166.574 63.3844 165.819 72.4199L146.864 295.586C146.11 304.622 152.617 311.908 161.293 311.908H265.217C273.988 311.908 281.721 304.622 282.475 295.586L301.431 72.4199C302.185 63.3844 295.772 56.0977 287.002 56.0977Z" fill="#567685"/>
<path opacity="0.3" d="M286.98 56.1781H183.056C174.285 56.1781 166.552 63.4648 165.798 72.5002L146.843 295.667C146.088 304.702 152.595 311.989 161.271 311.989H265.196C273.966 311.989 281.699 304.702 282.454 295.667L301.409 72.5002C302.164 63.4648 295.751 56.1781 286.98 56.1781Z" fill="#4D626C"/>
<path d="M286.531 61.3448H259.088C257.485 61.3448 255.976 62.4137 255.316 64.0653C253.147 69.9918 247.488 73.9751 241.547 73.9751H225.326C219.385 73.9751 214.387 69.8946 213.255 64.0653C212.972 62.5108 211.558 61.3448 209.955 61.3448H182.512C176.571 61.3448 171.289 66.2999 170.818 72.4207L151.863 295.587C151.297 301.708 155.729 306.663 161.67 306.663H265.595C271.536 306.663 276.817 301.708 277.289 295.587L296.244 72.4207C296.904 66.2999 292.472 61.3448 286.531 61.3448Z" fill="#E6EFFA"/>
<path d="M260.693 182.497H187.983C185.814 182.497 184.211 180.651 184.4 178.514L184.777 174.239C184.966 172.005 186.852 170.256 189.021 170.256H261.73C263.899 170.256 265.502 172.102 265.314 174.239L264.937 178.514C264.748 180.749 262.862 182.497 260.693 182.497Z" fill="white"/>
<path d="M259.089 200.957H186.379C184.21 200.957 182.607 199.111 182.796 196.974L183.173 192.699C183.362 190.464 185.248 188.715 187.417 188.715H260.126C262.295 188.715 263.898 190.561 263.71 192.699L263.333 196.974C263.144 199.208 261.258 200.957 259.089 200.957Z" fill="white"/>
<path opacity="0.1" d="M238.623 65.5226C238.434 67.9515 236.265 69.9918 233.908 69.9918C231.55 69.9918 229.758 67.9515 229.947 65.5226C230.135 63.0937 232.304 61.0535 234.662 61.0535C237.02 61.0535 238.811 62.9966 238.623 65.5226Z" fill="black"/>
<path opacity="0.1" d="M236.644 65.522C236.549 66.8821 235.418 67.9509 234.097 67.9509C232.777 67.9509 231.834 66.8821 231.928 65.522C232.023 64.1618 233.154 63.0931 234.475 63.0931C235.795 62.9959 236.738 64.1618 236.644 65.522Z" fill="black"/>
<g opacity="0.8">
<path d="M273.8 72.9054C273.14 72.9054 272.574 72.3224 272.669 71.6424L272.857 69.2135C272.952 68.5334 273.517 67.9504 274.272 67.9504C274.932 67.9504 275.498 68.5334 275.403 69.2135L275.215 71.6424C275.121 72.3224 274.46 72.9054 273.8 72.9054Z" fill="#BACBDF"/>
<path d="M283.891 72.9051C283.231 72.9051 282.665 72.3222 282.76 71.6421L283.231 66.0071C283.325 65.327 283.891 64.7441 284.646 64.7441C285.306 64.7441 285.872 65.327 285.777 66.0071L285.306 71.6421C285.212 72.3222 284.646 72.9051 283.891 72.9051Z" fill="#BACBDF"/>
<path d="M278.799 72.9049C278.139 72.9049 277.573 72.322 277.667 71.6419L278.045 67.6585C278.139 66.9784 278.705 66.3955 279.459 66.3955C280.119 66.3955 280.685 66.9784 280.591 67.6585L280.214 71.6419C280.119 72.322 279.554 72.9049 278.799 72.9049Z" fill="#BACBDF"/>
</g>
<g opacity="0.8">
<path d="M186.85 72.9057H180.437C180.06 72.9057 179.777 72.6143 179.777 72.1285L180.06 68.6309C180.06 68.2423 180.437 67.8536 180.814 67.8536H187.227C187.604 67.8536 187.887 68.1451 187.887 68.6309L187.604 72.1285C187.604 72.6143 187.321 72.9057 186.85 72.9057Z" fill="#BACBDF"/>
<path d="M189.869 71.934C189.492 71.934 189.209 71.6425 189.209 71.1567L189.303 69.5051C189.303 69.1165 189.68 68.7278 190.058 68.7278C190.435 68.7278 190.718 69.0193 190.718 69.5051L190.623 71.1567C190.623 71.6425 190.246 71.934 189.869 71.934Z" fill="#BACBDF"/>
</g>
<path d="M248.704 154.34C261.384 141.836 262.641 121.989 251.512 110.012C240.383 98.0345 221.083 98.4614 208.403 110.965C195.723 123.47 194.466 143.316 205.595 155.293C216.724 167.271 236.025 166.844 248.704 154.34Z" fill="white"/>
<path d="M228.628 131.393C220.612 131.393 213.917 134.502 213.256 141.303L212.596 148.881H241.548L242.208 141.303C242.868 134.6 236.644 131.393 228.628 131.393Z" fill="#F45C37"/>
<path d="M228.91 128.285C232.588 128.285 234.38 125.176 234.663 121.387C234.946 117.598 233.814 114.489 230.042 114.489C226.364 114.489 224.572 117.598 224.289 121.387C224.006 125.176 225.232 128.285 228.91 128.285Z" fill="#F45C37"/>
<path d="M257.391 176.086C255.411 176.086 253.713 176.863 253.619 178.515L253.43 180.361H260.597L260.786 178.515C260.88 176.863 259.371 176.086 257.391 176.086Z" fill="#455A64"/>
<path d="M257.39 175.308C258.333 175.308 258.71 174.531 258.804 173.559C258.899 172.588 258.616 171.81 257.673 171.81C256.73 171.81 256.352 172.588 256.258 173.559C256.164 174.628 256.541 175.308 257.39 175.308Z" fill="#455A64"/>
<path d="M235.324 219.514H207.032C203.732 219.514 201.28 216.794 201.563 213.393C201.845 209.993 204.769 207.272 208.07 207.272H236.361C239.662 207.272 242.114 209.993 241.831 213.393C241.548 216.696 238.625 219.514 235.324 219.514Z" fill="#FF491D"/>
<path d="M228.446 282.897H205.57C202.934 282.897 201.01 280.739 201.223 278.077L202.649 261.246C202.862 258.584 205.214 256.426 207.851 256.426H230.726C233.363 256.426 235.287 258.584 235.073 261.246L233.648 278.077C233.363 280.739 231.083 282.897 228.446 282.897Z" fill="#1C3968"/>
<g opacity="0.6">
<path d="M221.515 265.633C221.656 264.032 220.456 262.723 218.902 262.723C217.348 262.723 215.936 264.032 215.794 265.633C215.724 266.579 216.077 267.452 216.783 267.961L216.289 273.855C216.218 274.8 216.924 275.601 217.842 275.601C218.761 275.601 219.608 274.8 219.679 273.855L220.173 267.961C220.879 267.379 221.444 266.579 221.515 265.633Z" fill="white"/>
</g>
<path d="M230.979 259.958H228.083L228.79 251.518C229.213 246.424 225.541 242.35 220.668 242.35C215.795 242.35 211.416 246.497 210.992 251.518L210.286 259.958H207.391L208.097 251.518C208.662 244.824 214.453 239.294 220.95 239.294C227.448 239.294 232.321 244.751 231.756 251.518L230.979 259.958Z" fill="#1C3968"/>
<path d="M257.863 193.379L257.957 192.31C258.051 191.241 257.297 190.27 256.165 190.27C255.128 190.27 254.185 191.144 254.09 192.31L253.996 193.379C253.525 193.379 253.147 193.767 253.147 194.156L252.865 197.071C252.865 197.556 253.147 197.848 253.619 197.848H257.485C257.957 197.848 258.334 197.459 258.334 197.071L258.617 194.156C258.617 193.67 258.24 193.379 257.863 193.379ZM256.071 190.756C256.92 190.756 257.485 191.436 257.391 192.31L257.297 193.379H254.373L254.468 192.31C254.562 191.436 255.316 190.756 256.071 190.756Z" fill="#455A64"/>
<path d="M199.299 194.544L197.979 194.253C197.79 194.253 197.696 194.059 197.79 193.864L198.356 192.504C198.45 192.213 198.167 192.018 197.884 192.213L196.847 193.281C196.753 193.379 196.564 193.379 196.47 193.281L195.621 192.213C195.432 192.018 195.055 192.213 195.149 192.504L195.527 193.864C195.527 194.059 195.432 194.156 195.244 194.253L193.829 194.544C193.546 194.642 193.452 195.03 193.735 195.127L195.055 195.419C195.244 195.419 195.338 195.613 195.244 195.807L194.772 197.07C194.678 197.362 194.961 197.556 195.244 197.362L196.281 196.293C196.375 196.196 196.564 196.196 196.658 196.293L197.507 197.362C197.696 197.556 198.073 197.362 197.979 197.07L197.601 195.71C197.601 195.516 197.696 195.419 197.884 195.322L199.299 195.03C199.582 195.03 199.676 194.544 199.299 194.544Z" fill="#263238"/>
<path d="M208.258 194.544L206.938 194.253C206.749 194.253 206.655 194.058 206.749 193.864L207.315 192.504C207.409 192.212 207.126 192.018 206.843 192.212L205.806 193.281C205.712 193.378 205.523 193.378 205.429 193.281L204.58 192.212C204.392 192.018 204.014 192.212 204.109 192.504L204.486 193.864C204.486 194.058 204.392 194.156 204.203 194.253L202.788 194.544C202.505 194.641 202.411 195.03 202.694 195.127L204.014 195.419C204.203 195.419 204.297 195.613 204.203 195.807L203.637 197.167C203.543 197.459 203.826 197.653 204.109 197.459L205.146 196.39C205.24 196.293 205.429 196.293 205.523 196.39L206.372 197.459C206.561 197.653 206.938 197.459 206.843 197.167L206.466 195.807C206.466 195.613 206.561 195.516 206.749 195.419L208.164 195.127C208.541 195.03 208.541 194.544 208.258 194.544Z" fill="#263238"/>
<path d="M217.217 194.544L215.897 194.253C215.708 194.253 215.614 194.058 215.708 193.864L216.274 192.504C216.369 192.212 216.086 192.018 215.803 192.212L214.765 193.281C214.671 193.378 214.482 193.378 214.388 193.281L213.539 192.212C213.351 192.018 212.974 192.212 213.068 192.504L213.445 193.864C213.445 194.058 213.351 194.156 213.162 194.253L211.748 194.544C211.465 194.641 211.37 195.03 211.653 195.127L212.974 195.419C213.162 195.419 213.256 195.613 213.162 195.807L212.596 197.167C212.502 197.459 212.785 197.653 213.068 197.459L214.105 196.39C214.199 196.293 214.388 196.293 214.482 196.39L215.331 197.459C215.52 197.653 215.897 197.459 215.803 197.167L215.425 195.807C215.425 195.613 215.52 195.516 215.708 195.419L217.123 195.127C217.406 195.03 217.5 194.544 217.217 194.544Z" fill="#263238"/>
<path d="M226.083 194.544L224.763 194.253C224.574 194.253 224.48 194.058 224.574 193.864L225.14 192.504C225.234 192.212 224.951 192.018 224.668 192.212L223.631 193.281C223.537 193.378 223.348 193.378 223.254 193.281L222.405 192.212C222.216 192.018 221.839 192.212 221.934 192.504L222.311 193.864C222.311 194.058 222.216 194.156 222.028 194.253L220.613 194.544C220.33 194.641 220.236 195.03 220.519 195.127L221.839 195.419C222.028 195.419 222.122 195.613 222.028 195.807L221.462 197.167C221.368 197.459 221.651 197.653 221.934 197.459L222.971 196.39C223.065 196.293 223.254 196.293 223.348 196.39L224.197 197.459C224.386 197.653 224.763 197.459 224.668 197.167L224.291 195.807C224.291 195.613 224.386 195.516 224.574 195.419L225.989 195.127C226.366 195.03 226.366 194.544 226.083 194.544Z" fill="#263238"/>
<path d="M235.042 194.544L233.721 194.253C233.533 194.253 233.438 194.058 233.533 193.864L234.098 192.504C234.193 192.212 233.91 192.018 233.627 192.212L232.59 193.281C232.495 193.378 232.307 193.378 232.212 193.281L231.364 192.212C231.175 192.018 230.798 192.212 230.892 192.504L231.269 193.864C231.269 194.058 231.175 194.156 230.986 194.253L229.572 194.544C229.289 194.641 229.195 195.03 229.477 195.127L230.798 195.419C230.986 195.419 231.081 195.613 230.986 195.807L230.421 197.167C230.326 197.459 230.609 197.653 230.892 197.459L231.929 196.39C232.024 196.293 232.212 196.293 232.307 196.39L233.155 197.459C233.344 197.653 233.721 197.459 233.627 197.167L233.25 195.807C233.25 195.613 233.344 195.516 233.533 195.419L234.947 195.127C235.324 195.03 235.324 194.544 235.042 194.544Z" fill="#263238"/>
<path d="M244.001 194.544L242.68 194.253C242.492 194.253 242.397 194.058 242.492 193.864L243.058 192.504C243.152 192.212 242.869 192.018 242.586 192.212L241.549 193.281C241.454 193.378 241.266 193.378 241.171 193.281L240.323 192.212C240.134 192.018 239.757 192.212 239.851 192.504L240.228 193.864C240.228 194.058 240.134 194.156 239.945 194.253L238.531 194.544C238.248 194.641 238.154 195.03 238.437 195.127L239.757 195.419C239.946 195.419 240.04 195.613 239.945 195.807L239.38 197.167C239.285 197.459 239.568 197.653 239.851 197.459L240.889 196.39C240.983 196.293 241.171 196.293 241.266 196.39L242.115 197.459C242.303 197.653 242.68 197.459 242.586 197.167L242.209 195.807C242.209 195.613 242.303 195.516 242.492 195.419L243.906 195.127C244.189 195.03 244.284 194.544 244.001 194.544Z" fill="#263238"/>
<path d="M222.498 174.434H205.712C204.674 174.434 203.731 175.308 203.637 176.377C203.543 177.445 204.297 178.32 205.334 178.32H222.121C223.158 178.32 224.101 177.445 224.195 176.377C224.29 175.308 223.535 174.434 222.498 174.434Z" fill="#263238"/>
<path d="M239.474 174.434H229.761C228.723 174.434 227.78 175.308 227.686 176.377C227.592 177.446 228.346 178.32 229.383 178.32H239.097C240.134 178.32 241.077 177.446 241.172 176.377C241.266 175.308 240.511 174.434 239.474 174.434Z" fill="#263238"/>
<path d="M246.314 263.813C240.639 266.049 235.641 269.278 232.253 272.922C230.22 271.266 227.425 270.107 224.036 269.61L223.613 269.527L223.443 271.514L223.697 271.597C227.086 272.839 229.796 275.075 231.575 277.974L231.829 278.471L232.168 277.974C235.641 272.508 240.723 267.953 246.483 265.055L246.653 264.972L246.738 263.647L246.314 263.813Z" fill="#21333D"/>
<path d="M150.264 171.689C152.716 174.057 154.979 176.51 157.243 178.963C159.506 181.416 161.769 183.953 163.938 186.491C164.033 186.575 164.033 186.575 164.033 186.575C164.033 186.575 164.033 186.575 164.033 186.66C164.033 186.66 164.033 186.745 164.127 186.745C164.127 186.829 164.221 186.829 164.316 186.914C164.41 186.998 164.598 187.083 164.881 187.168C164.976 187.168 165.07 187.168 165.164 187.168C165.259 187.168 165.259 187.168 165.353 187.168H165.447C165.541 187.168 165.447 187.168 165.636 187.083L167.993 185.899C171.2 184.376 174.312 182.938 177.707 181.585L180.442 184.63C177.801 186.829 174.972 189.536 172.237 191.566L170.162 193.089C170.068 193.173 169.88 193.258 169.785 193.342C169.597 193.427 169.502 193.511 169.314 193.596C168.936 193.765 168.654 193.934 168.276 194.104C167.522 194.357 166.767 194.526 166.013 194.696C164.41 194.865 162.807 194.78 161.298 194.273C160.543 194.019 159.789 193.681 159.129 193.258C158.751 193.089 158.469 192.835 158.186 192.581C157.997 192.496 157.903 192.327 157.714 192.243L157.337 191.904C154.885 189.621 152.339 187.252 149.981 184.968C147.529 182.6 145.172 180.232 142.908 177.779L150.264 171.689Z" fill="#B55B52"/>
<path d="M176.293 183.446L178.462 177.102L184.215 179.724C184.215 179.724 183.366 184.376 179.122 185.137L176.293 183.446Z" fill="#B55B52"/>
<path d="M180.821 175.41L186.008 176.679L184.31 179.724L178.463 177.102L180.821 175.41Z" fill="#B55B52"/>
<path d="M119.804 173.465C119.144 176.172 118.39 178.794 117.635 181.501C116.786 184.123 115.938 186.829 115.089 189.452L114.712 190.467L114.523 190.974C114.523 191.059 114.429 191.143 114.429 191.143C114.334 191.397 114.24 191.651 114.24 191.989C114.24 192.581 114.334 193.173 114.806 193.765C114.806 193.85 115.183 194.188 115.372 194.442L116.126 195.203L117.635 196.726C118.673 197.741 119.71 198.841 120.653 199.94L117.352 203.324C116.032 202.647 114.712 201.886 113.391 201.124L111.411 199.94L110.468 199.348C110.185 199.179 109.902 199.01 109.336 198.587C107.545 197.233 106.224 195.288 105.753 193.173C105.47 192.074 105.47 190.974 105.564 189.875C105.564 189.621 105.658 189.282 105.658 189.113L105.753 188.606L105.941 187.591C106.507 184.884 107.073 182.177 107.639 179.471C108.299 176.764 108.959 174.057 109.714 171.435L119.804 173.465Z" fill="#B55B52"/>
<path d="M117.447 199.517L121.313 197.741L123.011 203.662C123.011 203.662 119.899 204.761 117.447 203.324V199.517Z" fill="#B55B52"/>
<path d="M126.783 195.795L126.877 201.293L122.539 203.831L121.031 197.825L126.783 195.795Z" fill="#B55B52"/>
<path d="M139.419 145.467C139.513 145.89 139.796 146.144 140.173 146.144C140.456 146.059 140.645 145.721 140.55 145.298C140.456 144.875 140.173 144.621 139.796 144.621C139.513 144.706 139.324 145.044 139.419 145.467Z" fill="#263238"/>
<path d="M139.797 146.229C139.797 146.229 141.4 148.428 142.815 149.443C142.155 150.289 140.646 150.204 140.646 150.204L139.797 146.229Z" fill="#A02724"/>
<path d="M137.252 143.438C137.157 143.438 137.157 143.438 137.063 143.354C136.969 143.269 136.969 143.1 137.063 143.015C138.1 142 139.421 142.169 139.421 142.169C139.609 142.169 139.704 142.338 139.609 142.423C139.609 142.592 139.421 142.677 139.326 142.592C139.326 142.592 138.289 142.423 137.44 143.269C137.346 143.438 137.252 143.438 137.252 143.438Z" fill="#263238"/>
<path d="M125.839 151.389C126.876 155.279 127.913 162.385 124.236 165.007C124.236 165.007 125.65 168.982 135.552 168.982C146.397 168.982 140.739 166.445 140.739 166.445C134.798 165.43 134.986 160.777 136.024 157.817L125.839 151.389Z" fill="#B55B52"/>
<path d="M123.106 165.683C122.446 164.584 121.786 163.4 123.2 162.977C124.803 162.554 135.177 161.793 138.289 162.554C137.346 164.076 138.949 165.853 138.949 165.853L123.106 165.683Z" fill="#263238"/>
<path d="M131.688 347.202H138.478L139.137 334.853H132.348L131.688 347.202Z" fill="#B55B52"/>
<path d="M88.4941 345.511L95.3784 345.85L99.6221 333.669L92.7378 333.416L88.4941 345.511Z" fill="#B55B52"/>
<path d="M95.1914 345.341L88.6843 344.072C88.4014 343.988 88.2128 344.157 88.1185 344.326L85.8551 348.724C85.6665 349.147 85.9494 349.74 86.5153 349.824C88.7786 350.247 89.9103 350.332 92.7394 350.839C94.5312 351.177 98.4921 352.023 100.85 352.531C103.208 352.954 104.151 350.924 103.208 350.501C98.9636 348.725 97.1718 347.202 96.0401 345.764C95.8515 345.595 95.5686 345.426 95.1914 345.341Z" fill="#263238"/>
<path d="M138.1 346.526H131.688C131.405 346.526 131.216 346.695 131.216 346.864L130.085 351.601C129.99 352.108 130.367 352.531 130.933 352.531C133.291 352.531 136.592 352.362 139.515 352.362C142.91 352.362 145.928 352.531 149.889 352.531C152.341 352.531 153.001 350.332 151.963 350.163C147.342 349.233 143.57 349.148 139.609 346.949C139.138 346.695 138.666 346.526 138.1 346.526Z" fill="#263238"/>
<path d="M111.882 166.783C106.79 168.982 105.375 182.262 105.375 182.262L118.106 187.506C118.106 187.506 121.219 183.362 121.501 176.764C121.69 169.913 117.163 164.499 111.882 166.783Z" fill="#263238"/>
<path opacity="0.4" d="M118.767 174.903C116.503 178.117 116.692 183.023 117.446 187.252L118.012 187.506C118.012 187.506 121.124 183.361 121.407 176.764C121.407 176.341 121.407 175.918 121.407 175.58L118.767 174.903Z" fill="black"/>
<path d="M147.342 166.445C147.342 166.445 153.66 172.789 147.719 212.29C138.194 212.29 120.747 212.29 116.126 212.29C115.938 207.976 118.956 186.661 114.24 166.191C114.24 166.191 119.616 165.176 124.803 165.007C128.858 164.838 134.705 164.753 138.288 165.007C142.909 165.345 147.342 166.445 147.342 166.445Z" fill="#F45C37"/>
<path opacity="0.05" d="M147.658 166.217C147.658 166.217 153.977 172.561 148.036 212.062C138.511 212.062 121.064 212.062 116.443 212.062C116.255 207.748 119.273 186.433 114.557 165.963C114.557 165.963 119.933 164.948 125.119 164.779C129.175 164.61 135.022 164.525 138.605 164.779C143.226 165.117 147.658 166.217 147.658 166.217Z" fill="#FAFAFA"/>
<path opacity="0.2" d="M150.076 178.455L149.982 178.371L143.663 175.326C143.003 184.038 147.341 189.451 149.888 191.82C150.359 186.322 150.359 181.923 150.076 178.455Z" fill="black"/>
<path opacity="0.2" d="M139.138 334.853L138.855 341.197H131.971L132.348 334.853H139.138Z" fill="black"/>
<path opacity="0.2" d="M92.7375 333.416L99.6218 333.754L97.4527 339.929L90.5684 339.59L92.7375 333.416Z" fill="black"/>
<path d="M123.671 147.413C125.18 152.488 125.745 155.533 129.329 157.648C134.61 160.862 141.117 157.14 141.306 151.811C141.494 146.99 138.948 139.462 132.913 138.447C126.877 137.432 122.162 142.338 123.671 147.413Z" fill="#B55B52"/>
<path d="M136.495 212.289C136.495 212.289 129.799 252.805 126.121 268.031C122.066 284.694 100.47 339.674 100.47 339.674L89.9082 337.644C89.9082 337.644 103.488 292.814 106.883 269.553C108.203 260.503 109.806 245.869 111.787 233.689C113.767 221.847 116.125 212.374 116.125 212.374H136.495V212.289Z" fill="#263238"/>
<path d="M102.923 336.46L100.943 339.928L89.0605 337.645L90.0979 334.43L102.923 336.46Z" fill="#263238"/>
<path opacity="0.2" d="M102.923 336.46L100.943 339.928L89.0605 337.645L90.0979 334.43L102.923 336.46Z" fill="white"/>
<path opacity="0.6" d="M132.251 226.669C124.518 228.022 125.273 253.99 126.216 267.354C128.479 257.881 131.685 239.78 133.949 226.838C133.477 226.669 132.911 226.585 132.251 226.669Z" fill="black"/>
<path d="M147.719 212.289C147.719 212.289 150.831 251.959 150.265 268.115C149.605 284.948 140.74 340.012 140.74 340.012H130.744C130.744 340.012 130.366 285.878 129.895 269.384C129.423 251.367 126.971 212.289 126.971 212.289H147.719Z" fill="#263238"/>
<path d="M142.625 336.46L142.059 340.182H129.894L129.611 336.883L142.625 336.46Z" fill="#263238"/>
<path opacity="0.2" d="M142.625 336.46L142.059 340.182H129.894L129.611 336.883L142.625 336.46Z" fill="white"/>
<path d="M143.662 173.888C143.662 184.546 149.981 188.944 149.981 188.944L160.26 179.978C160.26 179.978 156.771 174.565 151.961 169.659C146.02 163.4 143.662 167.037 143.662 173.888Z" fill="#263238"/>
<path opacity="0.2" d="M140.929 153.757C140.646 154.434 139.986 155.534 138.288 155.957C135.742 156.633 135.742 158.494 135.742 158.494C138.194 157.818 140.174 156.041 140.929 153.757Z" fill="black"/>
<path d="M138.288 137.347C140.363 134.979 137.157 134.81 137.157 134.81C138.005 131.934 134.233 133.457 134.233 133.457C131.97 130.665 130.649 134.049 130.649 134.049C128.292 131.68 127.82 135.571 127.82 135.571C125.463 132.526 124.237 136.925 124.237 136.925C122.068 133.795 120.747 137.855 120.747 137.855C116.221 136.417 118.39 140.646 118.39 140.646C114.523 140.731 117.635 143.438 117.635 143.438C113.014 143.438 117.069 145.806 117.069 145.806C113.392 148.005 118.013 148.513 118.013 148.513C114.995 152.742 120.182 151.135 120.182 151.135C118.107 155.279 122.728 153.419 122.728 153.419C122.445 157.394 124.991 156.294 126.217 155.618C126.5 156.464 126.877 157.309 127.726 157.394C129.329 157.563 129.612 154.856 129.612 154.856C129.612 154.856 131.121 155.871 132.347 155.364C133.573 154.772 133.101 153.334 133.101 153.334C133.101 153.334 134.044 154.011 134.893 153.334C135.459 152.996 135.459 150.289 134.705 149.358L137.157 148.513C137.157 148.513 138.948 148.259 138.194 146.144C137.345 144.03 138.1 142.253 138.1 142.253C140.834 141.069 138.571 139.716 138.571 139.716C141.872 137.94 138.288 137.347 138.288 137.347Z" fill="#263238"/>
<path d="M133.29 147.667C133.667 149.021 134.61 150.12 135.647 150.797C137.156 151.812 138.382 150.797 138.194 149.275C138.099 147.837 137.156 145.637 135.459 145.214C133.856 144.792 132.913 146.145 133.29 147.667Z" fill="#B55B52"/>
</g>
<defs>
<clipPath id="clip0_2396_1986">
<rect width="395" height="360" fill="white"/>
</clipPath>
</defs>
</svg>
