<svg width="202" height="59" viewBox="0 0 202 59" fill="none" xmlns="http://www.w3.org/2000/svg">
<path d="M79.14 8H85.08V29H79.14V8ZM71.04 29H65.1V8H71.04V29ZM79.56 20.81H70.62V15.89H79.56V20.81ZM98.9599 29.42C95.8599 29.42 93.4399 28.57 91.6999 26.87C89.9599 25.17 89.0899 22.76 89.0899 19.64V8H95.0299V19.46C95.0299 21.26 95.3799 22.55 96.0799 23.33C96.7999 24.11 97.7799 24.5 99.0199 24.5C100.26 24.5 101.23 24.11 101.93 23.33C102.63 22.55 102.98 21.26 102.98 19.46V8H108.83V19.64C108.83 22.76 107.96 25.17 106.22 26.87C104.48 28.57 102.06 29.42 98.9599 29.42ZM112.854 29V8H117.744L129.324 21.98H127.014V8H132.834V29H127.944L116.364 15.02H118.674V29H112.854ZM147.524 29.42C145.864 29.42 144.324 29.16 142.904 28.64C141.484 28.1 140.254 27.34 139.214 26.36C138.194 25.38 137.394 24.23 136.814 22.91C136.234 21.57 135.944 20.1 135.944 18.5C135.944 16.9 136.234 15.44 136.814 14.12C137.394 12.78 138.204 11.62 139.244 10.64C140.284 9.66 141.514 8.91 142.934 8.39C144.374 7.85 145.944 7.58 147.644 7.58C149.624 7.58 151.394 7.91 152.954 8.57C154.514 9.23 155.804 10.18 156.824 11.42L153.044 14.84C152.324 14.06 151.544 13.48 150.704 13.1C149.884 12.7 148.964 12.5 147.944 12.5C147.044 12.5 146.224 12.64 145.484 12.92C144.744 13.2 144.114 13.61 143.594 14.15C143.074 14.67 142.664 15.3 142.364 16.04C142.084 16.76 141.944 17.58 141.944 18.5C141.944 19.38 142.084 20.19 142.364 20.93C142.664 21.67 143.074 22.31 143.594 22.85C144.114 23.37 144.734 23.78 145.454 24.08C146.194 24.36 147.004 24.5 147.884 24.5C148.764 24.5 149.624 24.36 150.464 24.08C151.304 23.78 152.154 23.28 153.014 22.58L156.344 26.75C155.144 27.61 153.754 28.27 152.174 28.73C150.594 29.19 149.044 29.42 147.524 29.42ZM151.094 25.97V18.05H156.344V26.75L151.094 25.97ZM160.11 29V8H169.71C171.63 8 173.28 8.31 174.66 8.93C176.06 9.55 177.14 10.45 177.9 11.63C178.66 12.79 179.04 14.17 179.04 15.77C179.04 17.35 178.66 18.72 177.9 19.88C177.14 21.02 176.06 21.9 174.66 22.52C173.28 23.12 171.63 23.42 169.71 23.42H163.41L166.05 20.93V29H160.11ZM173.1 29L167.88 21.35H174.21L179.46 29H173.1ZM166.05 21.56L163.41 18.83H169.35C170.59 18.83 171.51 18.56 172.11 18.02C172.73 17.48 173.04 16.73 173.04 15.77C173.04 14.79 172.73 14.03 172.11 13.49C171.51 12.95 170.59 12.68 169.35 12.68H163.41L166.05 9.95V21.56ZM187.334 29V20.12L188.714 23.69L179.324 8H185.594L192.374 19.37H188.744L195.554 8H201.314L191.954 23.69L193.274 20.12V29H187.334Z" fill="#1C3968"/>
<path d="M69.604 41.782H78.002V45.76H69.604V41.782ZM69.968 52H64.82V33.8H79.094V37.778H69.968V52ZM93.1273 52.364C91.6713 52.364 90.328 52.13 89.0973 51.662C87.8666 51.194 86.792 50.5353 85.8733 49.686C84.972 48.8193 84.27 47.814 83.7673 46.67C83.2646 45.526 83.0133 44.2693 83.0133 42.9C83.0133 41.5307 83.2646 40.274 83.7673 39.13C84.27 37.986 84.972 36.9893 85.8733 36.14C86.792 35.2733 87.8666 34.606 89.0973 34.138C90.328 33.67 91.6713 33.436 93.1273 33.436C94.6006 33.436 95.944 33.67 97.1573 34.138C98.388 34.606 99.454 35.2733 100.355 36.14C101.257 36.9893 101.959 37.986 102.461 39.13C102.981 40.274 103.241 41.5307 103.241 42.9C103.241 44.2693 102.981 45.5347 102.461 46.696C101.959 47.84 101.257 48.8367 100.355 49.686C99.454 50.5353 98.388 51.194 97.1573 51.662C95.944 52.13 94.6006 52.364 93.1273 52.364ZM93.1273 48.1C93.8206 48.1 94.462 47.9787 95.0513 47.736C95.658 47.4933 96.178 47.1467 96.6113 46.696C97.062 46.228 97.4086 45.6733 97.6513 45.032C97.9113 44.3907 98.0413 43.68 98.0413 42.9C98.0413 42.1027 97.9113 41.392 97.6513 40.768C97.4086 40.1267 97.062 39.5807 96.6113 39.13C96.178 38.662 95.658 38.3067 95.0513 38.064C94.462 37.8213 93.8206 37.7 93.1273 37.7C92.434 37.7 91.784 37.8213 91.1773 38.064C90.588 38.3067 90.068 38.662 89.6173 39.13C89.184 39.5807 88.8373 40.1267 88.5773 40.768C88.3346 41.392 88.2133 42.1027 88.2133 42.9C88.2133 43.68 88.3346 44.3907 88.5773 45.032C88.8373 45.6733 89.184 46.228 89.6173 46.696C90.068 47.1467 90.588 47.4933 91.1773 47.736C91.784 47.9787 92.434 48.1 93.1273 48.1ZM108.538 52V33.8H116.858C118.522 33.8 119.952 34.0687 121.148 34.606C122.361 35.1433 123.297 35.9233 123.956 36.946C124.614 37.9513 124.944 39.1473 124.944 40.534C124.944 41.9033 124.614 43.0907 123.956 44.096C123.297 45.084 122.361 45.8467 121.148 46.384C119.952 46.904 118.522 47.164 116.858 47.164H111.398L113.686 45.006V52H108.538ZM119.796 52L115.272 45.37H120.758L125.308 52H119.796ZM113.686 45.552L111.398 43.186H116.546C117.62 43.186 118.418 42.952 118.938 42.484C119.475 42.016 119.744 41.366 119.744 40.534C119.744 39.6847 119.475 39.026 118.938 38.558C118.418 38.09 117.62 37.856 116.546 37.856H111.398L113.686 35.49V45.552ZM144.528 52.364C143.193 52.364 141.98 52.1387 140.888 51.688C139.813 51.22 138.921 50.5527 138.21 49.686L141.018 46.358C141.503 46.982 142.006 47.4587 142.526 47.788C143.046 48.1 143.592 48.256 144.164 48.256C145.689 48.256 146.452 47.372 146.452 45.604V37.778H140.16V33.8H151.548V45.292C151.548 47.6667 150.95 49.4433 149.754 50.622C148.558 51.7833 146.816 52.364 144.528 52.364ZM166.801 52.364C165.345 52.364 164.001 52.13 162.771 51.662C161.54 51.194 160.465 50.5353 159.547 49.686C158.645 48.8193 157.943 47.814 157.441 46.67C156.938 45.526 156.687 44.2693 156.687 42.9C156.687 41.5307 156.938 40.274 157.441 39.13C157.943 37.986 158.645 36.9893 159.547 36.14C160.465 35.2733 161.54 34.606 162.771 34.138C164.001 33.67 165.345 33.436 166.801 33.436C168.274 33.436 169.617 33.67 170.831 34.138C172.061 34.606 173.127 35.2733 174.029 36.14C174.93 36.9893 175.632 37.986 176.135 39.13C176.655 40.274 176.915 41.5307 176.915 42.9C176.915 44.2693 176.655 45.5347 176.135 46.696C175.632 47.84 174.93 48.8367 174.029 49.686C173.127 50.5353 172.061 51.194 170.831 51.662C169.617 52.13 168.274 52.364 166.801 52.364ZM166.801 48.1C167.494 48.1 168.135 47.9787 168.725 47.736C169.331 47.4933 169.851 47.1467 170.285 46.696C170.735 46.228 171.082 45.6733 171.325 45.032C171.585 44.3907 171.715 43.68 171.715 42.9C171.715 42.1027 171.585 41.392 171.325 40.768C171.082 40.1267 170.735 39.5807 170.285 39.13C169.851 38.662 169.331 38.3067 168.725 38.064C168.135 37.8213 167.494 37.7 166.801 37.7C166.107 37.7 165.457 37.8213 164.851 38.064C164.261 38.3067 163.741 38.662 163.291 39.13C162.857 39.5807 162.511 40.1267 162.251 40.768C162.008 41.392 161.887 42.1027 161.887 42.9C161.887 43.68 162.008 44.3907 162.251 45.032C162.511 45.6733 162.857 46.228 163.291 46.696C163.741 47.1467 164.261 47.4933 164.851 47.736C165.457 47.9787 166.107 48.1 166.801 48.1ZM182.211 52V33.8H191.519C193.911 33.8 195.696 34.242 196.875 35.126C198.054 35.9927 198.643 37.1367 198.643 38.558C198.643 39.494 198.392 40.3173 197.889 41.028C197.404 41.7213 196.71 42.276 195.809 42.692C194.925 43.0907 193.868 43.29 192.637 43.29L193.157 42.042C194.44 42.042 195.558 42.2413 196.511 42.64C197.464 43.0213 198.201 43.5847 198.721 44.33C199.258 45.058 199.527 45.9507 199.527 47.008C199.527 48.5853 198.886 49.816 197.603 50.7C196.338 51.5667 194.483 52 192.039 52H182.211ZM187.307 48.282H191.623C192.507 48.282 193.174 48.1347 193.625 47.84C194.093 47.528 194.327 47.06 194.327 46.436C194.327 45.812 194.093 45.3527 193.625 45.058C193.174 44.746 192.507 44.59 191.623 44.59H186.943V41.028H190.843C191.71 41.028 192.36 40.8807 192.793 40.586C193.226 40.2913 193.443 39.8493 193.443 39.26C193.443 38.6707 193.226 38.2373 192.793 37.96C192.36 37.6653 191.71 37.518 190.843 37.518H187.307V48.282Z" fill="#FF491D"/>
<path d="M23.3672 6.03941C34.2472 6.70895 43.1185 15.4687 43.9554 26.2929C44.2344 29.6405 43.7323 32.8208 42.6164 35.7222L47.5821 40.8553C48.419 40.6879 49.3117 40.9668 49.9813 41.6364L55.1702 46.9927C56.1745 48.0528 56.1745 49.7266 55.1144 50.7309L54.1101 51.6794C53.05 52.6837 51.3761 52.6837 50.3718 51.6236L45.1829 46.2673C44.5134 45.5978 44.346 44.7051 44.5134 43.8682L37.5391 36.5033C39.0455 33.7693 39.8266 30.6448 39.715 27.2972C39.3245 18.091 31.7364 10.5588 22.5303 10.3356C11.9851 10.0008 3.50432 18.8722 4.34124 29.4732C5.01078 38.1213 12.0967 45.0956 20.8007 45.7094C26.1569 46.0442 31.0111 44.0356 34.4703 40.6321C34.9167 40.2415 35.3073 40.5763 35.3073 40.5763L37.4833 42.8639C37.4833 42.8639 37.818 43.1986 37.4833 43.645C33.2429 47.8296 27.2728 50.3403 20.7449 50.0056C9.75332 49.3918 0.714593 40.4647 0.0450579 29.4732C-0.791862 16.194 10.1439 5.25829 23.3672 6.03941Z" fill="#1C3968"/>
<path d="M24.428 21.1598H26.4366C26.325 19.3186 24.8185 17.8679 22.9773 17.8679H20.6897C18.8485 17.8679 17.3979 19.3186 17.2305 21.1598H19.2391C19.3507 20.4345 19.9644 19.8765 20.6897 19.8765H22.9773C23.7026 19.8765 24.3164 20.4345 24.428 21.1598Z" fill="#FF9130"/>
<path d="M17.2299 22.1641H13.9938C13.3801 22.1641 12.7106 22.722 12.32 23.1126C12.1526 23.28 12.041 23.5589 12.041 23.7821C12.2084 25.2328 13.1569 26.5718 14.775 27.6319C15.835 28.3015 17.1183 28.8594 18.5132 29.1942C19.5733 29.4174 20.6892 29.5847 21.8609 29.5847C22.4746 29.5847 23.0884 29.529 23.7021 29.4732C25.6549 29.25 27.4961 28.6362 28.891 27.6877C30.509 26.6276 31.4575 25.2886 31.6249 23.8379C31.6249 23.6147 31.6249 23.4473 31.346 23.1684C30.9554 22.7778 30.2859 22.2199 29.6721 22.2199H26.436H24.4274H19.2385H17.2299V22.1641Z" fill="#FF491D"/>
<path d="M11.7622 27.074C11.6507 26.9066 11.5391 26.9066 11.5391 27.1298V32.7093C11.5391 33.6578 12.0412 34.4947 12.7665 34.9411C13.1013 35.1642 13.5477 35.2758 13.994 35.2758H18.067H29.6723C31.0114 35.2758 32.1273 34.1041 32.1273 32.7093V27.1298C32.1273 26.9066 32.0157 26.8508 31.9041 27.074C31.3462 27.7994 30.6208 28.4131 29.7839 29.0268C27.7195 30.3659 25.0414 31.147 22.1958 31.2028C22.0842 31.2028 21.9727 31.2028 21.8611 31.2028C20.243 31.2028 18.6808 30.9796 17.2301 30.5333C16.0026 30.1985 14.8867 29.6406 13.9382 29.0268C13.0455 28.4131 12.3202 27.7436 11.7622 27.074Z" fill="#FF491D"/>
</svg>
