<svg width="19" height="19" viewBox="0 0 19 19" fill="none" xmlns="http://www.w3.org/2000/svg">
<path opacity="0.4" d="M14.4941 10.0035C14.4095 10.0044 14.3259 10.022 14.2481 10.0552C14.1704 10.0885 14.0999 10.1368 14.0408 10.1973C13.9817 10.2579 13.9351 10.3294 13.9037 10.408C13.8723 10.4865 13.8568 10.5705 13.8579 10.6551V11.353C13.4552 11.4369 13.0724 11.5978 12.7307 11.8267L12.2371 11.3331C12.0854 11.1776 11.9139 11.1185 11.7513 11.1275C11.2648 11.1532 10.8612 11.7875 11.3284 12.2418L11.8239 12.7379C11.5962 13.0797 11.4365 13.4622 11.3535 13.8645H10.6556C9.78669 13.8523 9.78669 15.1626 10.6556 15.1498H11.356C11.4396 15.5553 11.6035 15.9325 11.8252 16.2673L11.3258 16.7667C10.7025 17.3727 11.6285 18.2988 12.2345 17.6754L12.7332 17.1773C13.0744 17.4052 13.4562 17.5654 13.8579 17.649V18.3482C13.845 19.2171 15.1554 19.2171 15.1432 18.3482V17.651C15.5441 17.5675 15.9252 17.4078 16.2659 17.1805L16.7684 17.6818C16.8271 17.7456 16.898 17.7968 16.977 17.8324C17.056 17.868 17.1413 17.8873 17.2279 17.8891C17.3146 17.8909 17.4006 17.8752 17.481 17.8428C17.5614 17.8105 17.6344 17.7623 17.6957 17.701C17.7569 17.6398 17.8052 17.5667 17.8375 17.4864C17.8698 17.406 17.8856 17.3199 17.8838 17.2333C17.882 17.1467 17.8627 17.0613 17.8271 16.9823C17.7914 16.9034 17.7402 16.8324 17.6765 16.7738L17.1771 16.2738C17.4048 15.9332 17.565 15.5521 17.6488 15.1511H18.3493C18.5198 15.1511 18.6832 15.0834 18.8037 14.9628C18.9243 14.8423 18.992 14.6789 18.992 14.5084C18.992 14.338 18.9243 14.1745 18.8037 14.054C18.6832 13.9335 18.5198 13.8658 18.3493 13.8658H17.6514C17.5685 13.4609 17.4079 13.0759 17.1784 12.7321L17.6739 12.2367C17.7356 12.177 17.7847 12.1055 17.8182 12.0264C17.8518 11.9474 17.869 11.8624 17.869 11.7765C17.869 11.6907 17.8518 11.6057 17.8182 11.5266C17.7847 11.4476 17.7356 11.3761 17.6739 11.3164C17.5519 11.1975 17.3879 11.1317 17.2176 11.1332C17.0478 11.1362 16.8861 11.2062 16.7678 11.328L16.271 11.8247C15.9295 11.5966 15.5472 11.4365 15.1451 11.353V10.6551C15.1465 10.5694 15.1306 10.4842 15.0985 10.4047C15.0664 10.3252 15.0187 10.2529 14.9582 10.1922C14.8977 10.1314 14.8256 10.0834 14.7462 10.051C14.6668 10.0186 14.5818 10.0024 14.496 10.0035H14.4941ZM14.5024 12.5741C15.5744 12.5741 16.4304 13.4294 16.4304 14.502C16.4304 15.5739 15.5744 16.4299 14.5024 16.4299C13.4299 16.4299 12.5745 15.5739 12.5745 14.502C12.5745 13.4294 13.4299 12.5741 14.5024 12.5741Z" fill="#002A54"/>
<path d="M8.46176 0.749512C6.33974 0.749512 4.60588 2.48337 4.60588 4.60539C4.60588 6.72741 6.33974 8.46127 8.46176 8.46127C10.5838 8.46127 12.3176 6.72741 12.3176 4.60539C12.3176 2.48337 10.5838 0.749512 8.46176 0.749512ZM8.46176 2.03481C9.88908 2.03481 11.0324 3.17872 11.0324 4.60539C11.0324 6.03271 9.88908 7.17598 8.46176 7.17598C7.03444 7.17598 5.89118 6.03271 5.89118 4.60539C5.89118 3.17872 7.03444 2.03481 8.46176 2.03481ZM6.53382 9.74657C3.34051 9.74657 0.75 12.3371 0.75 15.5304V16.8157C0.75 16.9861 0.817707 17.1496 0.938227 17.2701C1.05875 17.3906 1.22221 17.4583 1.39265 17.4583H8.36408C8.53452 17.4583 8.69798 17.3906 8.8185 17.2701C8.93902 17.1496 9.00673 16.9861 9.00673 16.8157C9.00673 16.6452 8.93902 16.4818 8.8185 16.3613C8.69798 16.2407 8.53452 16.173 8.36408 16.173H2.03529V15.5304C2.03529 13.0273 4.03071 11.0319 6.53382 11.0319H9.11469C9.28513 11.0319 9.44859 10.9642 9.56911 10.8436C9.68963 10.7231 9.75734 10.5597 9.75734 10.3892C9.75734 10.2188 9.68963 10.0553 9.56911 9.9348C9.44859 9.81428 9.28513 9.74657 9.11469 9.74657H6.53382Z" fill="#002A54"/>
</svg>
