<svg width="9" height="11" viewBox="0 0 9 11" fill="none" xmlns="http://www.w3.org/2000/svg">
<path d="M1.06615 8.86841C1.17145 8.86841 1.19251 8.85788 1.28727 8.83683L3.18257 8.45777C3.38263 8.40512 3.58269 8.31035 3.74063 8.15241L8.33146 3.56158C9.03693 2.85611 9.03693 1.64522 8.33146 0.939752L7.94187 0.529104C7.2364 -0.176368 6.01499 -0.176368 5.30951 0.529104L0.718683 5.13047C0.571271 5.27788 0.465977 5.48847 0.413329 5.68853L0.013211 7.60488C-0.0394362 7.96288 0.065858 8.31035 0.318564 8.56306C0.518624 8.76312 0.813448 8.86841 1.06615 8.86841ZM1.42415 5.88858L6.01499 1.28722C6.32034 0.981869 6.8784 0.981869 7.17322 1.28722L7.57334 1.68734C7.93134 2.04534 7.93134 2.55075 7.57334 2.89823L2.99304 7.49959L1.0451 7.826L1.42415 5.88858ZM8.28934 9.52124H0.518624C0.21327 9.52124 0.013211 9.7213 0.013211 10.0267C0.013211 10.332 0.265917 10.5321 0.518624 10.5321H8.24723C8.55258 10.5321 8.80529 10.332 8.80529 10.0267C8.79476 9.7213 8.54205 9.52124 8.28934 9.52124Z" fill="#444444"/>
</svg>
