<svg width="32" height="32" viewBox="0 0 32 32" fill="none" xmlns="http://www.w3.org/2000/svg">
<g clip-path="url(#clip0_3522_2545)">
<path d="M3.25175 22.0886C2.33819 20.1795 1.875 18.131 1.875 16C1.875 8.21144 8.21144 1.875 16 1.875C19.0944 1.875 22.0364 2.86394 24.4665 4.69119L22.1285 4.999C21.6152 5.06656 21.2538 5.5375 21.3214 6.05081C21.3889 6.56419 21.8599 6.9255 22.3732 6.85794L26.7731 6.27869C27.2864 6.21112 27.6478 5.74019 27.5802 5.22687L27.0009 0.827C26.9334 0.313688 26.4624 -0.0476875 25.9491 0.019875H25.9491C25.4357 0.0874375 25.0744 0.558375 25.1419 1.07169L25.4026 3.05125C22.6868 1.07037 19.4259 0 16 0C11.7263 0 7.70831 1.66425 4.68625 4.68625C1.66431 7.70831 0 11.7263 0 16C0 18.4134 0.525 20.7342 1.5605 22.898C1.784 23.3651 2.34375 23.5625 2.81081 23.339C3.27781 23.1155 3.47525 22.5557 3.25175 22.0886Z" fill="#E7BA04"/>
<path d="M24.6713 14.6019L25.14 14.3313C25.5884 14.0724 25.7421 13.4991 25.4832 13.0507L23.2957 9.26181C23.0368 8.81344 22.4634 8.65975 22.015 8.91869L21.5463 9.18931C20.4701 9.81069 19.1248 9.03394 19.1248 7.79119V7.25C19.1248 6.73225 18.705 6.3125 18.1873 6.3125H13.8123C13.2945 6.3125 12.8748 6.73225 12.8748 7.25V7.79119C12.8748 9.03394 11.5295 9.81063 10.4532 9.18931L9.98453 8.91869C9.53616 8.65981 8.96278 8.81344 8.70391 9.26181L6.51641 13.0507C6.25753 13.4991 6.41116 14.0724 6.85953 14.3313L7.32822 14.6019C8.40447 15.2233 8.40447 16.7767 7.32822 17.3981L6.85953 17.6686C6.41116 17.9275 6.25747 18.5009 6.51641 18.9492L8.70391 22.7381C8.96278 23.1865 9.53616 23.3402 9.98453 23.0812L10.4532 22.8106C11.5295 22.1893 12.8748 22.966 12.8748 24.2087V24.75C12.8748 25.2678 13.2945 25.6875 13.8123 25.6875H18.1873C18.705 25.6875 19.1248 25.2678 19.1248 24.75V24.2088C19.1248 22.9661 20.4701 22.1894 21.5463 22.8107L22.015 23.0813C22.4634 23.3402 23.0368 23.1866 23.2957 22.7382L25.4832 18.9493C25.742 18.5009 25.5884 17.9276 25.14 17.6687L24.6713 17.3981C23.5951 16.7767 23.5951 15.2233 24.6713 14.6019ZM15.9998 19.5938C14.015 19.5938 12.406 17.9848 12.406 16C12.406 14.0152 14.015 12.4062 15.9998 12.4062C17.9845 12.4062 19.5935 14.0152 19.5935 16C19.5935 17.9848 17.9845 19.5938 15.9998 19.5938Z" fill="#E7BA04"/>
<path d="M30.438 9.1019C30.2145 8.63484 29.6548 8.43741 29.1877 8.66091C28.7207 8.88441 28.5233 9.44415 28.7467 9.91122C29.6603 11.8204 30.1235 13.8689 30.1235 15.9999C30.1235 23.7885 23.7871 30.1249 15.9985 30.1249C12.9042 30.1249 9.96209 29.136 7.53203 27.3087L9.87003 27.0009C10.3833 26.9333 10.7447 26.4624 10.6772 25.9491C10.6096 25.4357 10.1387 25.0744 9.62534 25.142L5.2254 25.7212C4.71209 25.7888 4.35072 26.2597 4.41828 26.773L4.99759 31.1729C5.06515 31.6862 5.53609 32.0476 6.0494 31.98C6.56272 31.9125 6.92415 31.4415 6.85659 30.9282L6.59597 28.9487C9.31172 30.9295 12.5727 31.9999 15.9985 31.9999C20.2723 31.9999 24.2902 30.3357 27.3123 27.3137C30.3342 24.2916 31.9985 20.2737 31.9985 15.9999C31.9985 13.5865 31.4735 11.2657 30.438 9.1019Z" fill="#E7BA04"/>
</g>
<defs>
<clipPath id="clip0_3522_2545">
<rect width="32" height="32" fill="white"/>
</clipPath>
</defs>
</svg>
