<svg width="32" height="32" viewBox="0 0 32 32" fill="none" xmlns="http://www.w3.org/2000/svg">
<g clip-path="url(#clip0_3493_2565)">
<path d="M16.332 2.66667H14.8654C14.4254 1.13333 13.012 0 11.332 0C9.65203 0 8.2387 1.13333 7.7987 2.66667H6.33203C5.78536 2.66667 5.33203 3.12 5.33203 3.66667V5.66667C5.33203 6.94667 6.38536 8 7.66536 8H14.9987C16.2787 8 17.332 6.94667 17.332 5.66667V3.66667C17.332 3.12 16.8787 2.66667 16.332 2.66667Z" fill="#37B6D2"/>
<path d="M19 4H18.6667V5.66667C18.6667 7.69333 17.0267 9.33333 15 9.33333H7.66667C5.64 9.33333 4 7.69333 4 5.66667V4H3.66667C1.64 4 0 5.64 0 7.66667V24.3333C0 26.36 1.64 28 3.66667 28H12.4533C11.7867 26.5733 11.3867 25 11.3467 23.3333H5C4.45333 23.3333 4 22.88 4 22.3333C4 21.7867 4.45333 21.3333 5 21.3333H11.4533C11.5733 20.52 11.7733 19.7467 12.04 19H5C4.45333 19 4 18.5467 4 18C4 17.4533 4.45333 17 5 17H13C13.52 16.1467 14.1333 15.36 14.8533 14.6667H5C4.45333 14.6667 4 14.2133 4 13.6667C4 13.12 4.45333 12.6667 5 12.6667H17.5867C19.12 11.8667 20.84 11.3867 22.6667 11.3467V7.66667C22.6667 5.64 21.0267 4 19 4Z" fill="#37B6D2"/>
<path d="M23 14C18.0373 14 14 18.0373 14 23C14 27.9627 18.0373 32 23 32C27.9627 32 32 27.9627 32 23C32 18.0373 27.9627 14 23 14ZM27.336 21.212L22.6693 26.5453C22.5492 26.6828 22.4021 26.794 22.2372 26.8722C22.0723 26.9505 21.8931 26.9939 21.7107 27H21.6667C21.3131 26.9999 20.974 26.8594 20.724 26.6093L18.0573 23.9427C17.9335 23.8189 17.8353 23.6719 17.7683 23.5102C17.7014 23.3484 17.6669 23.1751 17.6669 23C17.6669 22.8249 17.7014 22.6516 17.7683 22.4898C17.8353 22.3281 17.9335 22.1811 18.0573 22.0573C18.3073 21.8073 18.6464 21.6669 19 21.6669C19.1751 21.6669 19.3484 21.7014 19.5102 21.7683C19.6719 21.8353 19.8189 21.9335 19.9427 22.0573L21.6013 23.716L25.3293 19.4547C25.5665 19.2039 25.8916 19.0547 26.2363 19.0385C26.5811 19.0223 26.9187 19.1403 27.1784 19.3676C27.438 19.595 27.5995 19.9142 27.6289 20.2581C27.6583 20.6019 27.5533 20.9438 27.336 21.212Z" fill="#37B6D2"/>
</g>
<defs>
<clipPath id="clip0_3493_2565">
<rect width="32" height="32" fill="white"/>
</clipPath>
</defs>
</svg>
