<svg width="16" height="16" viewBox="0 0 16 16" fill="none" xmlns="http://www.w3.org/2000/svg">
<path d="M13.0539 6.08742H7.09357C7.36918 5.8028 7.53665 5.43153 7.53665 5.02554C7.53665 4.13211 6.72761 3.40527 5.73314 3.40527C4.73867 3.40527 3.92963 4.13211 3.92963 5.02554C3.92963 5.43153 4.0971 5.8028 4.37268 6.08742H2.94989C2.09011 6.08742 1.39062 6.71584 1.39062 7.48826V9.14122C1.39062 9.29595 1.53024 9.42138 1.70248 9.42138C1.87471 9.42138 2.01433 9.29595 2.01433 9.14122V7.48826C2.01433 7.02481 2.43402 6.64776 2.94989 6.64776H11.6818C12.1976 6.64776 12.6173 7.02481 12.6173 7.48826V9.00116H9.37405C8.51427 9.00116 7.81479 9.62957 7.81479 10.402C7.81479 11.1744 8.51427 11.8028 9.37405 11.8028H12.6173V13.3157C12.6173 13.7792 12.1976 14.1562 11.6818 14.1562H2.94989C2.43402 14.1562 2.01433 13.7792 2.01433 13.3157V11.6606C2.01433 11.5058 1.87471 11.3804 1.70248 11.3804C1.53024 11.3804 1.39062 11.5058 1.39062 11.6606V13.3157C1.39062 14.0882 2.09011 14.7166 2.94989 14.7166H13.0539C13.9137 14.7166 14.6132 14.0882 14.6132 13.3157V7.48826C14.6132 6.71584 13.9137 6.08742 13.0539 6.08742ZM5.73314 3.96564C6.3837 3.96564 6.91294 4.44111 6.91294 5.02556C6.91294 5.61002 6.3837 6.08549 5.73314 6.08549C5.08262 6.08549 4.55334 5.61002 4.55334 5.02556C4.55334 4.44111 5.08259 3.96564 5.73314 3.96564ZM12.9283 6.64776H13.0539C13.5698 6.64776 13.9895 7.02481 13.9895 7.48826V9.00116H13.241V7.48826C13.241 7.17316 13.1245 6.88206 12.9283 6.64776ZM8.43849 10.402C8.43849 9.93854 8.85818 9.56149 9.37405 9.56149H13.9895V11.2425H9.37405C8.85818 11.2425 8.43849 10.8654 8.43849 10.402ZM13.0539 14.1562H12.9283C13.1245 13.9219 13.241 13.6309 13.241 13.3157V11.8028H13.9895V13.3157C13.9895 13.7792 13.5698 14.1562 13.0539 14.1562Z" fill="#002A54" stroke="#002A54" stroke-width="0.3"/>
<path opacity="0.4" d="M9.29422 10.1218C9.21189 10.1218 9.13143 10.1518 9.07343 10.2039C9.01542 10.256 8.98236 10.3283 8.98236 10.402C8.98236 10.4757 9.01542 10.548 9.07343 10.6001C9.13216 10.6524 9.21147 10.6819 9.29422 10.6822C9.37623 10.6822 9.45638 10.6522 9.5147 10.6001C9.5727 10.548 9.60607 10.4757 9.60607 10.402C9.60607 10.3283 9.5727 10.256 9.5147 10.2039C9.45609 10.1515 9.37687 10.1221 9.29422 10.1218ZM10.2707 4.19903C11.2651 4.19903 12.0742 3.4722 12.0742 2.57877C12.0742 1.68538 11.2651 0.95851 10.2707 0.95851C9.27619 0.95851 8.46715 1.68535 8.46715 2.57877C8.46715 3.4722 9.27619 4.19903 10.2707 4.19903ZM10.2707 1.51887C10.9212 1.51887 11.4505 1.99434 11.4505 2.5788C11.4505 3.16326 10.9212 3.63873 10.2707 3.63873C9.6201 3.63873 9.09086 3.16326 9.09086 2.5788C9.09086 1.99434 9.6201 1.51887 10.2707 1.51887ZM7.22479 3.10417C7.39703 3.10417 7.53665 2.97874 7.53665 2.824V0.622422C7.53665 0.467685 7.39703 0.342255 7.22479 0.342255C7.05256 0.342255 6.91294 0.467685 6.91294 0.622422V2.824C6.91294 2.97874 7.05256 3.10417 7.22479 3.10417ZM5.7279 2.13532C5.90014 2.13532 6.03975 2.00989 6.03975 1.85516V0.622422C6.03975 0.467685 5.90014 0.342255 5.7279 0.342255C5.55567 0.342255 5.41605 0.467685 5.41605 0.622422V1.85516C5.41605 2.00989 5.55567 2.13532 5.7279 2.13532ZM1.70248 10.6822C1.78449 10.6822 1.86495 10.6522 1.92296 10.6001C1.98096 10.548 2.01433 10.4757 2.01433 10.402C2.01433 10.3283 1.98096 10.256 1.92296 10.2039C1.86495 10.1518 1.78481 10.1218 1.70248 10.1218C1.62046 10.1218 1.54 10.1518 1.482 10.2039C1.42399 10.256 1.39062 10.3283 1.39062 10.402C1.39062 10.4757 1.42399 10.548 1.482 10.6001C1.54 10.6522 1.62043 10.6822 1.70248 10.6822Z" fill="#002A54" stroke="#002A54" stroke-width="0.3"/>
</svg>
