<svg width="19" height="19" viewBox="0 0 19 19" fill="none" xmlns="http://www.w3.org/2000/svg">
<path d="M16.9175 6.875H16.8375C16.7202 6.87396 16.606 6.83764 16.5097 6.77075C16.4134 6.70386 16.3394 6.60951 16.2975 6.5C16.2534 6.39425 16.2417 6.27776 16.2639 6.16535C16.2862 6.05294 16.3414 5.9497 16.4225 5.86875L16.4794 5.81187C16.8222 5.46772 17.0147 5.00172 17.0147 4.51594C17.0147 4.03015 16.8222 3.56416 16.4794 3.22L15.535 2.27625C15.1911 1.93314 14.7252 1.74045 14.2394 1.74045C13.7536 1.74045 13.2876 1.93314 12.9437 2.27625L12.8869 2.33312C12.8031 2.41382 12.6976 2.4683 12.5832 2.48988C12.4689 2.51146 12.3508 2.4992 12.2434 2.4546C12.1359 2.41 12.0438 2.33501 11.9784 2.23882C11.913 2.14264 11.877 2.02944 11.875 1.91312V1.8325C11.8745 1.34664 11.6813 0.880828 11.3377 0.537275C10.9942 0.193722 10.5284 0.000496364 10.0425 0H8.7075C8.22164 0.000496364 7.75583 0.193722 7.41228 0.537275C7.06872 0.880828 6.8755 1.34664 6.875 1.8325V1.91312C6.87195 2.02861 6.8355 2.14073 6.77004 2.23592C6.70459 2.3311 6.61294 2.40528 6.5062 2.44945C6.39946 2.49363 6.28221 2.50592 6.16863 2.48483C6.05505 2.46374 5.95002 2.41018 5.86625 2.33063L5.8125 2.27375C5.46861 1.93064 5.00266 1.73795 4.51688 1.73795C4.03109 1.73795 3.56514 1.93064 3.22125 2.27375L2.27375 3.2175C1.93091 3.56166 1.73841 4.02765 1.73841 4.51344C1.73841 4.99922 1.93091 5.46522 2.27375 5.80937L2.33063 5.86625C2.41253 5.95005 2.46736 6.05654 2.48798 6.1719C2.50859 6.28725 2.49406 6.40614 2.44625 6.51312C2.40336 6.61969 2.32967 6.71104 2.23459 6.7755C2.13951 6.83996 2.02737 6.8746 1.9125 6.875H1.8325C1.34664 6.8755 0.880828 7.06872 0.537275 7.41228C0.193722 7.75583 0.000496364 8.22164 0 8.7075V10.0425C0.000496364 10.5284 0.193722 10.9942 0.537275 11.3377C0.880828 11.6813 1.34664 11.8745 1.8325 11.875H1.9125C2.02976 11.876 2.14399 11.9124 2.24031 11.9793C2.33663 12.0461 2.41057 12.1405 2.4525 12.25C2.49664 12.3557 2.50833 12.4722 2.48607 12.5846C2.46381 12.6971 2.40861 12.8003 2.3275 12.8813L2.27062 12.9381C1.92778 13.2823 1.73528 13.7483 1.73528 14.2341C1.73528 14.7198 1.92778 15.1858 2.27062 15.53L3.21438 16.4731C3.55821 16.8166 4.02432 17.0095 4.51031 17.0095C4.9963 17.0095 5.46241 16.8166 5.80625 16.4731L5.86312 16.4163C5.94697 16.3344 6.05346 16.2796 6.16879 16.259C6.28413 16.2384 6.403 16.2529 6.51 16.3006C6.61656 16.3433 6.70794 16.4169 6.77241 16.5119C6.83689 16.6069 6.87152 16.7189 6.87187 16.8337V16.9144C6.87171 17.1555 6.91908 17.3943 7.01127 17.617C7.10346 17.8398 7.23866 18.0422 7.40915 18.2127C7.57964 18.3832 7.78206 18.5184 8.00484 18.6106C8.22762 18.7028 8.4664 18.7502 8.7075 18.75H10.0425C10.5284 18.7495 10.9942 18.5563 11.3377 18.2127C11.6813 17.8692 11.8745 17.4034 11.875 16.9175V16.8369C11.878 16.7214 11.9145 16.6093 11.98 16.5141C12.0454 16.4189 12.1371 16.3447 12.2438 16.3005C12.3505 16.2564 12.4678 16.2441 12.5814 16.2652C12.695 16.2863 12.8 16.3398 12.8837 16.4194L12.9406 16.4762C13.2845 16.8194 13.7505 17.0121 14.2362 17.0121C14.722 17.0121 15.188 16.8194 15.5319 16.4762L16.4762 15.5331C16.8191 15.189 17.0116 14.723 17.0116 14.2372C17.0116 13.7514 16.8191 13.2854 16.4762 12.9412L16.4194 12.8844C16.3375 12.8006 16.2826 12.6941 16.262 12.5787C16.2414 12.4634 16.2559 12.3445 16.3038 12.2375C16.3465 12.1308 16.4202 12.0393 16.5153 11.9748C16.6104 11.9102 16.7226 11.8754 16.8375 11.875H16.9175C17.4034 11.8745 17.8692 11.6813 18.2127 11.3377C18.5563 10.9942 18.7495 10.5284 18.75 10.0425V8.7075C18.7495 8.22164 18.5563 7.75583 18.2127 7.41228C17.8692 7.06872 17.4034 6.8755 16.9175 6.875ZM17.5 10.0425C17.4998 10.1969 17.4384 10.345 17.3292 10.4542C17.22 10.5634 17.0719 10.6248 16.9175 10.625H16.8375C16.4748 10.6281 16.121 10.7379 15.8203 10.9406C15.5196 11.1434 15.2852 11.4302 15.1464 11.7653C15.0076 12.1004 14.9705 12.469 15.0397 12.825C15.1089 13.181 15.2814 13.5088 15.5356 13.7675L15.5919 13.8244C15.701 13.9338 15.7623 14.082 15.7623 14.2366C15.7623 14.3911 15.701 14.5393 15.5919 14.6488L14.6475 15.5919C14.5383 15.7011 14.3901 15.7625 14.2356 15.7625C14.0811 15.7625 13.933 15.7011 13.8237 15.5919L13.7675 15.535C13.5087 15.281 13.1809 15.1088 12.825 15.0398C12.4691 14.9707 12.1007 15.0079 11.7657 15.1467C11.4307 15.2854 11.144 15.5197 10.9412 15.8202C10.7383 16.1208 10.6284 16.4743 10.625 16.8369V16.9175C10.6248 17.0719 10.5634 17.22 10.4542 17.3292C10.345 17.4384 10.1969 17.4998 10.0425 17.5H8.7075C8.55306 17.4998 8.405 17.4384 8.29579 17.3292C8.18659 17.22 8.12516 17.0719 8.125 16.9175V16.8369C8.12324 16.4736 8.01423 16.1189 7.81165 15.8173C7.60906 15.5157 7.32193 15.2807 6.98627 15.1417C6.6506 15.0027 6.28137 14.966 5.92489 15.0361C5.56842 15.1061 5.24057 15.2799 4.9825 15.5356L4.92562 15.5925C4.81622 15.7014 4.66813 15.7626 4.51375 15.7626C4.35937 15.7626 4.21128 15.7014 4.10188 15.5925L3.15812 14.6494C3.04901 14.5399 2.98773 14.3917 2.98773 14.2372C2.98773 14.0827 3.04901 13.9344 3.15812 13.825L3.215 13.7681C3.4695 13.5094 3.64218 13.1815 3.71149 12.8253C3.78081 12.4691 3.74369 12.1004 3.60477 11.7652C3.46584 11.4299 3.23127 11.143 2.93032 10.9403C2.62937 10.7375 2.27537 10.6278 1.9125 10.625H1.8325C1.67806 10.6248 1.53 10.5634 1.42079 10.4542C1.31159 10.345 1.25017 10.1969 1.25 10.0425V8.7075C1.25017 8.55306 1.31159 8.405 1.42079 8.29579C1.53 8.18659 1.67806 8.12516 1.8325 8.125H1.9125C2.27519 8.12191 2.62895 8.01214 2.92968 7.80936C3.2304 7.60657 3.46479 7.31976 3.60361 6.98467C3.74243 6.64958 3.77954 6.28104 3.71033 5.925C3.64111 5.56896 3.46863 5.24117 3.21438 4.9825L3.15812 4.92562C3.04905 4.8163 2.98779 4.66818 2.98779 4.51375C2.98779 4.35932 3.04905 4.21119 3.15812 4.10188L4.10188 3.1575C4.21111 3.04827 4.35927 2.9869 4.51375 2.9869C4.66823 2.9869 4.81639 3.04827 4.92562 3.1575L4.98187 3.21438C5.24059 3.4685 5.56836 3.6409 5.92435 3.71009C6.28034 3.77928 6.64882 3.74221 6.98389 3.60349C7.31896 3.46477 7.60582 3.23054 7.80872 2.92996C8.01163 2.62939 8.12162 2.27576 8.125 1.91312V1.8325C8.12516 1.67806 8.18659 1.53 8.29579 1.42079C8.405 1.31159 8.55306 1.25017 8.7075 1.25H10.0425C10.1969 1.25017 10.345 1.31159 10.4542 1.42079C10.5634 1.53 10.6248 1.67806 10.625 1.8325V1.91312C10.6282 2.27576 10.7381 2.62944 10.9409 2.93007C11.1437 3.2307 11.4305 3.46499 11.7656 3.60373C12.1007 3.74248 12.4692 3.77954 12.8251 3.7103C13.1811 3.64107 13.5089 3.46859 13.7675 3.21438L13.8244 3.1575C13.9336 3.04827 14.0818 2.9869 14.2362 2.9869C14.3907 2.9869 14.5389 3.04827 14.6481 3.1575L15.5919 4.10188C15.701 4.21119 15.7622 4.35932 15.7622 4.51375C15.7622 4.66818 15.701 4.8163 15.5919 4.92562L15.535 4.9825C15.2807 5.24121 15.1082 5.56906 15.039 5.92516C14.9698 6.28125 15.007 6.64984 15.1459 6.98496C15.2848 7.32007 15.5193 7.60688 15.8201 7.80961C16.1209 8.01235 16.4748 8.12204 16.8375 8.125H16.9175C17.0719 8.12516 17.22 8.18659 17.3292 8.29579C17.4384 8.405 17.4998 8.55306 17.5 8.7075V10.0425Z" fill="#002A54"/>
<path opacity="0.4" d="M9.375 5C8.50971 5 7.66385 5.25659 6.94438 5.73732C6.22492 6.21805 5.66416 6.90133 5.33303 7.70076C5.0019 8.50019 4.91526 9.37985 5.08407 10.2285C5.25288 11.0772 5.66956 11.8567 6.28141 12.4686C6.89326 13.0804 7.67281 13.4971 8.52148 13.6659C9.37015 13.8347 10.2498 13.7481 11.0492 13.417C11.8487 13.0858 12.532 12.5251 13.0127 11.8056C13.4934 11.0862 13.75 10.2403 13.75 9.375C13.7487 8.21508 13.2873 7.10305 12.4671 6.28287C11.6469 5.46268 10.5349 5.00132 9.375 5ZM9.375 12.5C8.75694 12.5 8.15275 12.3167 7.63884 11.9733C7.12494 11.63 6.7244 11.1419 6.48788 10.5709C6.25135 9.99987 6.18947 9.37153 6.31005 8.76534C6.43063 8.15915 6.72825 7.60233 7.16529 7.16529C7.60233 6.72825 8.15915 6.43062 8.76534 6.31005C9.37154 6.18947 9.99987 6.25135 10.5709 6.48788C11.1419 6.7244 11.63 7.12494 11.9733 7.63884C12.3167 8.15275 12.5 8.75693 12.5 9.375C12.499 10.2035 12.1695 10.9978 11.5836 11.5836C10.9978 12.1695 10.2035 12.499 9.375 12.5Z" fill="#002A54"/>
</svg>
