<svg width="53" height="53" viewBox="0 0 53 53" fill="none" xmlns="http://www.w3.org/2000/svg">
<path d="M16.1836 50.7464C16.2475 50.7464 16.3114 50.8103 16.3753 50.8103C16.8866 51.0021 17.4618 50.8743 17.9092 50.4908L50.4406 17.7038C50.824 17.3203 50.9519 16.6812 50.7601 16.1699C50.7601 16.106 50.6962 16.0421 50.6962 15.9781L16.1836 50.7464Z" fill="#FFE6DA"/>
<path d="M12.8574 49.0208C13.4326 49.3403 14.0718 49.2764 14.5191 48.829L48.7122 14.3164C49.1596 13.869 49.2235 13.166 48.904 12.6547L12.8574 49.0208Z" fill="#FFE6DA"/>
<path d="M9.91797 47.0394C10.1736 47.2312 10.4932 47.4868 10.7488 47.6786L47.4984 10.6094C47.3067 10.3538 47.051 10.0342 46.8593 9.77856L9.91797 47.0394Z" fill="#FFE6DA"/>
<path d="M24.1719 52.6637C24.4275 52.6637 24.6832 52.7276 24.9388 52.7276C25.3223 52.7276 25.7058 52.5998 25.9614 52.3442L52.2933 25.8206C52.5489 25.5649 52.7407 25.1814 52.6767 24.798C52.6767 24.5423 52.6128 24.2867 52.6128 24.031L24.1719 52.6637Z" fill="#FFE6DA"/>
<path d="M35.6758 51.0659C36.5066 50.7463 37.2736 50.4268 38.1044 50.0433C38.2323 49.9794 38.3601 49.8516 38.4879 49.7877L49.8643 38.3474C49.9921 38.2195 50.056 38.0917 50.1199 37.9639C50.5034 37.1969 50.823 36.3661 51.1426 35.5352L35.6758 51.0659Z" fill="#FFE6DA"/>
<path d="M19.8887 51.9607C20.0165 52.0246 20.2082 52.0246 20.3361 52.0885C20.7835 52.2163 21.2947 52.0246 21.6143 51.705L51.5892 21.4745C51.9087 21.155 52.1005 20.6437 51.9726 20.1963C51.9087 20.0685 51.9087 19.8767 51.8448 19.7489L19.8887 51.9607Z" fill="#FFE6DA"/>
<path d="M29.2207 52.5998C29.6681 52.5359 30.0516 52.472 30.4989 52.4081C30.8185 52.3442 31.0742 52.2164 31.2659 52.0246L52.1013 30.9975C52.2931 30.8057 52.4209 30.5501 52.4848 30.2305C52.5487 29.7831 52.6126 29.3997 52.6126 28.9523L29.2207 52.5998Z" fill="#FFE6DA"/>
<path d="M5.0625 41.9265C5.25424 42.1821 5.50989 42.5017 5.70162 42.7573L42.579 5.56039C42.3234 5.36865 42.0038 5.113 41.7481 4.92126L5.0625 41.9265Z" fill="#FFE6DA"/>
<path d="M0.715832 21.2189C0.524095 21.4107 0.396286 21.6663 0.332374 21.9859C0.268461 22.4333 0.204537 22.8806 0.140625 23.2641L23.0212 0.191772C22.5739 0.255685 22.1265 0.319599 21.743 0.383511C21.4873 0.447424 21.2317 0.575252 20.976 0.766989L0.715832 21.2189Z" fill="#FFE6DA"/>
<path d="M3.33521 13.6133C3.20738 13.7411 3.14348 13.805 3.07956 13.9329C2.63218 14.7637 2.24871 15.6585 1.86523 16.5533L16.3733 1.91736C15.4785 2.30083 14.5838 2.68431 13.7529 3.1317C13.6251 3.19561 13.4973 3.25952 13.4334 3.38734L3.33521 13.6133Z" fill="#FFE6DA"/>
<path d="M0.395846 26.5875C0.140197 26.8432 -0.0515244 27.2266 0.0123879 27.6101C0.0123879 27.8658 0.0123723 28.1214 0.0762846 28.441L28.1977 0.0639162C27.942 0.0639162 27.6864 0 27.3668 0C26.9834 0 26.5999 0.127828 26.3442 0.383478L0.395846 26.5875Z" fill="#FFE6DA"/>
<path d="M2.2475 34.7683C1.86402 35.1518 1.7362 35.727 1.92793 36.2383C1.92793 36.3022 1.99183 36.3661 1.99183 36.43L36.2488 1.85348C36.1849 1.85348 36.121 1.78957 36.0571 1.78957C35.5458 1.59783 34.9706 1.72565 34.5871 2.10913L2.2475 34.7683Z" fill="#FFE6DA"/>
<path d="M3.84655 38.1557C3.39916 38.6031 3.33524 39.2422 3.6548 39.8174L39.6374 3.57912C39.0622 3.25956 38.4231 3.32347 37.9757 3.77086L3.84655 38.1557Z" fill="#FFE6DA"/>
<path d="M44.4944 7.1582L7.36133 44.6108C7.61698 44.8664 7.87261 45.1221 8.06435 45.3777L45.1974 7.92515C45.0057 7.6695 44.75 7.41385 44.4944 7.1582Z" fill="#FFE6DA"/>
<path d="M1.03678 30.9974C0.717218 31.317 0.525497 31.8283 0.653322 32.2757C0.717234 32.4035 0.717222 32.5953 0.781135 32.7231L32.4816 0.703018C32.3538 0.639106 32.1621 0.639108 32.0342 0.575196C31.5869 0.447371 31.0756 0.639102 30.756 0.958663L1.03678 30.9974Z" fill="#FFE6DA"/>
</svg>
