<svg width="81" height="81" viewBox="0 0 81 81" fill="none" xmlns="http://www.w3.org/2000/svg">
<path opacity="0.35" d="M4.34593 39.1134C5.3117 40.0792 5.3117 41.7693 4.34593 42.735C3.38017 43.7008 1.69009 43.7008 0.724322 42.735C-0.241441 41.7693 -0.241441 40.0792 0.724322 39.1134C1.69009 38.1477 3.38017 38.1477 4.34593 39.1134Z" fill="#B9CFF3"/>
<path d="M14.0041 29.4558C14.9699 30.4215 14.9699 32.1116 14.0041 33.0774C13.0384 34.0431 11.3483 34.0431 10.3825 33.0774C9.41676 32.1116 9.41676 30.4215 10.3825 29.4558C11.3483 28.49 12.7969 28.49 14.0041 29.4558Z" fill="#B9CFF3"/>
<path opacity="0.35" d="M23.4202 20.0396C24.3859 21.0053 24.3859 22.6954 23.4202 23.6612C22.4544 24.6269 20.7643 24.6269 19.7985 23.6612C18.8328 22.6954 18.8328 21.0053 19.7985 20.0396C20.7643 18.8324 22.4544 18.8324 23.4202 20.0396Z" fill="#B9CFF3"/>
<path d="M33.0784 10.382C34.0441 11.3477 34.0441 13.0378 33.0784 14.0036C32.1126 14.9693 30.4225 14.9693 29.4567 14.0036C28.491 13.0378 28.491 11.3477 29.4567 10.382C30.4225 9.4162 32.1126 9.4162 33.0784 10.382Z" fill="#B9CFF3"/>
<path d="M42.7385 0.724322C43.7043 1.69009 43.7043 3.38017 42.7385 4.34593C41.7727 5.3117 40.0827 5.3117 39.1169 4.34593C38.1511 3.38017 38.1511 1.69009 39.1169 0.724322C40.0827 -0.241441 41.7727 -0.241441 42.7385 0.724322Z" fill="#B9CFF3"/>
<path d="M13.5256 48.5296C14.4914 49.4953 14.4914 51.1854 13.5256 52.1512C12.5599 53.1169 10.8698 53.1169 9.90401 52.1512C8.93825 51.1854 8.93825 49.4953 9.90401 48.5296C10.8698 47.5638 12.5599 47.5638 13.5256 48.5296Z" fill="#B9CFF3"/>
<path d="M23.1838 38.8719C24.1496 39.8377 24.1496 41.5278 23.1838 42.4935C22.2181 43.4593 20.528 43.4593 19.5622 42.4935C18.5964 41.5278 18.5964 39.8377 19.5622 38.8719C20.528 37.9062 22.2181 37.9062 23.1838 38.8719Z" fill="#B9CFF3"/>
<path d="M32.8401 29.2143C33.8058 30.1801 33.8058 31.8702 32.8401 32.8359C31.8743 33.8017 30.1842 33.8017 29.2185 32.8359C28.2527 31.8702 28.2527 30.1801 29.2185 29.2143C30.1842 28.2485 31.8743 28.2485 32.8401 29.2143Z" fill="#B9CFF3"/>
<path opacity="0.35" d="M42.4983 19.5567C43.464 20.5224 43.464 22.2125 42.4983 23.1783C41.5325 24.144 39.8424 24.144 38.8767 23.1783C37.9109 22.2125 37.9109 20.5224 38.8767 19.5567C39.8424 18.5909 41.5325 18.5909 42.4983 19.5567Z" fill="#B9CFF3"/>
<path d="M52.1565 10.1405C53.1222 11.1063 53.1222 12.7963 52.1565 13.7621C51.1907 14.7279 49.5006 14.7279 48.5349 13.7621C47.5691 12.7963 47.5691 11.1063 48.5349 10.1405C49.5006 8.93329 50.9493 8.93329 52.1565 10.1405Z" fill="#B9CFF3"/>
<path d="M22.9358 57.7043C23.9015 58.6701 23.9015 60.3602 22.9358 61.3259C21.97 62.2917 20.2799 62.2917 19.3142 61.3259C18.3484 60.3602 18.3484 58.6701 19.3142 57.7043C20.2799 56.7385 21.97 56.7385 22.9358 57.7043Z" fill="#B9CFF3"/>
<path opacity="0.35" d="M30.6637 52.634C32.1305 52.634 33.3195 51.445 33.3195 49.9782C33.3195 48.5114 32.1305 47.3223 30.6637 47.3223C29.1969 47.3223 28.0078 48.5114 28.0078 49.9782C28.0078 51.445 29.1969 52.634 30.6637 52.634Z" fill="#B9CFF3"/>
<path opacity="0.35" d="M42.01 38.6304C42.9758 39.5962 42.9758 41.2863 42.01 42.252C41.0442 43.2178 39.3541 43.2178 38.3884 42.252C37.4226 41.2863 37.4226 39.5962 38.3884 38.6304C39.3541 37.6647 41.0442 37.6647 42.01 38.6304Z" fill="#B9CFF3"/>
<path d="M51.6702 28.9728C52.6359 29.9386 52.6359 31.6287 51.6702 32.5945C50.7044 33.5602 49.0143 33.5602 48.0485 32.5945C47.0828 31.6287 47.0828 29.9386 48.0485 28.9728C49.0143 28.0071 50.7044 28.0071 51.6702 28.9728Z" fill="#B9CFF3"/>
<path d="M61.3284 19.3152C62.2941 20.281 62.2941 21.971 61.3284 22.9368C60.3626 23.9026 58.6725 23.9026 57.7067 22.9368C56.741 21.971 56.741 20.281 57.7067 19.3152C58.6725 18.3494 60.3626 18.3494 61.3284 19.3152Z" fill="#B9CFF3"/>
<path d="M32.1155 67.1205C33.0812 68.0863 33.0812 69.7764 32.1155 70.7421C31.1497 71.7079 29.4596 71.7079 28.4939 70.7421C27.5281 69.7764 27.5281 68.0863 28.4939 67.1205C29.4596 66.1548 31.1497 66.1548 32.1155 67.1205Z" fill="#B9CFF3"/>
<path d="M41.7737 57.4629C42.7394 58.4287 42.7394 60.1187 41.7737 61.0845C40.8079 62.0503 39.1178 62.0503 38.1521 61.0845C37.1863 60.1187 37.1863 58.4287 38.1521 57.4629C39.1178 56.4971 40.8079 56.4971 41.7737 57.4629Z" fill="#B9CFF3"/>
<path d="M51.4299 47.8053C52.3957 48.771 52.3957 50.4611 51.4299 51.4269C50.4642 52.3927 48.7741 52.3927 47.8083 51.4269C46.8425 50.4611 46.8425 48.771 47.8083 47.8053C48.7741 46.8395 50.4642 46.8395 51.4299 47.8053Z" fill="#B9CFF3"/>
<path opacity="0.35" d="M59.1598 42.735C60.6266 42.735 61.8156 41.5459 61.8156 40.0792C61.8156 38.6124 60.6266 37.4233 59.1598 37.4233C57.693 37.4233 56.5039 38.6124 56.5039 40.0792C56.5039 41.5459 57.693 42.735 59.1598 42.735Z" fill="#B9CFF3"/>
<path d="M70.7463 28.7314C71.7121 29.6972 71.7121 31.3873 70.7463 32.3531C69.7806 33.3188 68.0905 33.3188 67.1247 32.3531C66.1589 31.3873 66.1589 29.6972 67.1247 28.7314C68.0905 27.7657 69.5391 27.7657 70.7463 28.7314Z" fill="#B9CFF3"/>
<path d="M41.5295 76.2953C42.4953 77.261 42.4953 78.9511 41.5295 79.9169C40.5638 80.8826 38.8737 80.8826 37.9079 79.9169C36.9422 78.9511 36.9422 77.261 37.9079 76.2953C38.8737 75.3295 40.5638 75.3295 41.5295 76.2953Z" fill="#B9CFF3"/>
<path opacity="0.35" d="M51.1877 66.8791C52.1535 67.8449 52.1535 69.535 51.1877 70.5007C50.222 71.4665 48.5319 71.4665 47.5661 70.5007C46.6004 69.535 46.6004 67.8449 47.5661 66.8791C48.5319 65.6719 50.222 65.6719 51.1877 66.8791Z" fill="#B9CFF3"/>
<path d="M60.844 57.2215C61.8097 58.1872 61.8097 59.8773 60.844 60.8431C59.8782 61.8088 58.1881 61.8088 57.2224 60.8431C56.2566 59.8773 56.2566 58.1872 57.2224 57.2215C58.1881 56.2557 59.6368 56.2557 60.844 57.2215Z" fill="#B9CFF3"/>
<path d="M70.2639 47.5638C71.2297 48.5296 71.2297 50.2197 70.2639 51.1854C69.2981 52.1512 67.6081 52.1512 66.6423 51.1854C65.6765 50.2197 65.6765 48.5296 66.6423 47.5638C67.6081 46.5981 69.2981 46.5981 70.2639 47.5638Z" fill="#B9CFF3"/>
<path d="M79.9221 37.9062C80.8879 38.872 80.8879 40.562 79.9221 41.5278C78.9563 42.4936 77.2663 42.4936 76.3005 41.5278C75.3347 40.562 75.3347 38.872 76.3005 37.9062C77.2663 36.9404 78.9563 36.9404 79.9221 37.9062Z" fill="#B9CFF3"/>
</svg>
