<svg width="33" height="30" viewBox="0 0 33 30" fill="none" xmlns="http://www.w3.org/2000/svg">
<path fill-rule="evenodd" clip-rule="evenodd" d="M15.6955 23.7588L18.8732 20.5494C19.2494 20.1695 19.863 20.1685 20.2418 20.5452C20.6206 20.9218 20.6217 21.5338 20.246 21.9129C18.9574 23.2134 17.6776 24.5226 16.383 25.8172C16.0046 26.1957 15.3907 26.1956 15.0122 25.8172L12.8645 23.6695C12.486 23.291 12.486 22.6771 12.8645 22.2987C13.2429 21.9202 13.8568 21.9202 14.2353 22.2987L15.6955 23.7588ZM23.9687 21.3537H32.5677C32.6307 21.3539 32.693 21.3403 32.7502 21.3138C32.8074 21.2872 32.858 21.2484 32.8984 21.2C32.9389 21.1517 32.9682 21.095 32.9842 21.034C33.0003 20.9731 33.0027 20.9093 32.9913 20.8473C32.3853 17.4683 29.4311 14.9039 25.8779 14.9039C23.9449 14.9039 22.1895 15.663 20.8928 16.8989C22.4024 17.9436 23.5174 19.518 23.9687 21.3537ZM0.540056 21.3537H9.13904C9.59024 19.518 10.7053 17.9436 12.2149 16.8989C10.9182 15.663 9.1627 14.9039 7.22982 14.9039C3.6765 14.9039 0.722352 17.4684 0.116443 20.8474C0.105045 20.9094 0.107456 20.9731 0.123506 21.0341C0.139555 21.095 0.168848 21.1517 0.209298 21.2001C0.249748 21.2484 0.30036 21.2872 0.35753 21.3138C0.4147 21.3403 0.477021 21.354 0.540056 21.3537ZM25.878 7.11909C27.8961 7.11909 29.5322 8.75514 29.5322 10.7733C29.5322 12.7914 27.8961 14.4275 25.878 14.4275C23.8598 14.4275 22.2237 12.7914 22.2237 10.7733C22.2237 8.75514 23.8598 7.11909 25.878 7.11909ZM7.22982 7.11909C9.248 7.11909 10.8841 8.75514 10.8841 10.7733C10.8841 12.7914 9.248 14.4275 7.22982 14.4275C5.21164 14.4275 3.57559 12.7914 3.57559 10.7733C3.57565 8.75514 5.21171 7.11909 7.22982 7.11909ZM10.4896 14.2345L22.6182 14.2345C21.6978 13.3674 21.1231 12.1373 21.1231 10.7733C21.1231 10.3494 21.1789 9.93854 21.2831 9.5474C20.0156 8.44943 18.3625 7.78477 16.5539 7.78477C14.7453 7.78477 13.0923 8.44936 11.8248 9.54733C11.9312 9.9473 11.985 10.3594 11.9848 10.7733C11.9847 12.1374 11.41 13.3674 10.4896 14.2345ZM16.5539 0C18.572 0 20.2081 1.63605 20.2081 3.65416C20.2081 5.67235 18.572 7.3084 16.5539 7.3084C14.5357 7.3084 12.8996 5.67235 12.8996 3.65416C12.8997 1.63605 14.5357 0 16.5539 0ZM16.5539 16.6472C12.9446 16.6472 10.0187 19.5731 10.0187 23.1823C10.0187 26.7916 12.9446 29.7175 16.5539 29.7175C20.1631 29.7175 23.089 26.7916 23.089 23.1823C23.089 19.5731 20.1631 16.6472 16.5539 16.6472Z" fill="#6C61B0"/>
</svg>
