<svg width="16" height="16" viewBox="0 0 16 16" fill="none" xmlns="http://www.w3.org/2000/svg">
<g clip-path="url(#clip0_1982_1734)">
<path d="M15.2723 8.31927C15.0542 8.31927 14.9087 8.46699 14.9087 8.68853V13.489C14.9087 13.7105 14.7633 13.8582 14.5451 13.8582H1.45416C1.23597 13.8582 1.09053 13.7105 1.09053 13.489V8.68853C1.09053 8.46696 0.945063 8.31927 0.726906 8.31927C0.50875 8.31927 0.363281 8.46699 0.363281 8.68853V13.489C0.363281 14.1167 0.836 14.5968 1.45419 14.5968H14.5451C15.1633 14.5968 15.636 14.1167 15.636 13.489V8.68853C15.636 8.46696 15.4905 8.31927 15.2723 8.31927Z" fill="#002A54" stroke="#002A54" stroke-width="0.4"/>
<path d="M14.9091 3.14957H1.09091C0.472719 3.14957 0 3.6296 0 4.25736V6.62067C0 7.13761 0.363625 7.58074 0.836375 7.69152L6.54547 8.98394V10.1656C6.54547 10.3871 6.69094 10.5348 6.90909 10.5348H9.09091C9.30909 10.5348 9.45453 10.3871 9.45453 10.1656V8.98394L15.1636 7.69152C15.6364 7.58074 16 7.13761 16 6.62063V4.25733C16 3.6296 15.5273 3.14957 14.9091 3.14957ZM8.72728 9.79632H7.27275V8.31928H8.72728V9.79632ZM15.2727 6.62063C15.2727 6.80526 15.1636 6.95298 14.9818 6.98989L9.45453 8.2454V7.94999C9.45453 7.72843 9.30906 7.58074 9.09091 7.58074H6.90909C6.69091 7.58074 6.54547 7.72846 6.54547 7.94999V8.2454L1.01819 6.98992C0.836375 6.95298 0.727281 6.80529 0.727281 6.62067V4.25736C0.727281 4.03579 0.87275 3.88811 1.09091 3.88811H14.9091C15.1273 3.88811 15.2727 4.03583 15.2727 4.25736V6.62063Z" fill="#002A54" stroke="#002A54" stroke-width="0.4"/>
<path opacity="0.4" d="M9.81712 0.564697H6.18075C5.56256 0.564697 5.08984 1.04473 5.08984 1.67249V2.04174C5.08984 2.26331 5.23531 2.411 5.45347 2.411C5.67162 2.411 5.81709 2.26328 5.81709 2.04174V1.67249C5.81709 1.45093 5.96256 1.30324 6.18072 1.30324H9.81709C10.0353 1.30324 10.1807 1.45096 10.1807 1.67249V2.04174C10.1807 2.26331 10.3262 2.411 10.5443 2.411C10.7625 2.411 10.908 2.26328 10.908 2.04174V1.67249C10.908 1.04473 10.4353 0.564697 9.81712 0.564697Z" fill="#002A54" stroke="#002A54" stroke-width="0.4"/>
</g>
<defs>
<clipPath id="clip0_1982_1734">
<rect width="16" height="15.0588" fill="white"/>
</clipPath>
</defs>
</svg>
