<svg xmlns="http://www.w3.org/2000/svg" width="114" height="114" viewBox="0 0 114 114">
  <g id="noun-check-mark-4046700" transform="translate(-105 -35)">
    <path id="Path_2" data-name="Path 2" d="M162,35a57,57,0,1,0,57,57A57.063,57.063,0,0,0,162,35Zm0,8.143A48.857,48.857,0,1,1,113.143,92,48.795,48.795,0,0,1,162,43.143Z" transform="translate(0)" fill="#fff"/>
    <path id="Path_3" data-name="Path 3" d="M280.314,192.495a4.073,4.073,0,0,0-2.8,1.233L247.89,223.382,234.511,210h0a4.071,4.071,0,1,0-5.755,5.757l16.256,16.262a4.069,4.069,0,0,0,5.755,0l32.5-32.532a4.072,4.072,0,0,0-2.957-6.991Z" transform="translate(-94.004 -120.852)" fill="#fff" fill-rule="evenodd"/>
  </g>
</svg>
